%TF.GenerationSoftware,KiCad,Pcbnew,8.0.5*%
%TF.CreationDate,2025-04-11T15:10:19-05:00*%
%TF.ProjectId,PSEC5_Ctrl_Board,50534543-355f-4437-9472-6c5f426f6172,rev?*%
%TF.SameCoordinates,Original*%
%TF.FileFunction,Plated,1,10,PTH,Drill*%
%TF.FilePolarity,Positive*%
%FSLAX46Y46*%
G04 Gerber Fmt 4.6, Leading zero omitted, Abs format (unit mm)*
G04 Created by KiCad (PCBNEW 8.0.5) date 2025-04-11 15:10:19*
%MOMM*%
%LPD*%
G01*
G04 APERTURE LIST*
%TA.AperFunction,ViaDrill*%
%ADD10C,0.200000*%
%TD*%
%TA.AperFunction,ViaDrill*%
%ADD11C,0.250000*%
%TD*%
%TA.AperFunction,ViaDrill*%
%ADD12C,0.300000*%
%TD*%
%TA.AperFunction,ViaDrill*%
%ADD13C,0.600000*%
%TD*%
%TA.AperFunction,ComponentDrill*%
%ADD14C,0.700000*%
%TD*%
%TA.AperFunction,ComponentDrill*%
%ADD15C,0.900000*%
%TD*%
%TA.AperFunction,ComponentDrill*%
%ADD16C,1.020000*%
%TD*%
%TA.AperFunction,ComponentDrill*%
%ADD17C,1.041400*%
%TD*%
%TA.AperFunction,ComponentDrill*%
%ADD18C,1.400000*%
%TD*%
%TA.AperFunction,ComponentDrill*%
%ADD19C,1.447800*%
%TD*%
%TA.AperFunction,ComponentDrill*%
%ADD20C,1.600000*%
%TD*%
G04 APERTURE END LIST*
D10*
X65786000Y-123444000D03*
X66548000Y-97282000D03*
X66802000Y-80772000D03*
X66802000Y-82296000D03*
X66802000Y-83820000D03*
X66802000Y-85344000D03*
X67310000Y-123698000D03*
X68072000Y-130556000D03*
X68834000Y-46990000D03*
X68834000Y-62738000D03*
X69850000Y-96173997D03*
X69850000Y-96774000D03*
X70612000Y-110236000D03*
X71120000Y-111506000D03*
X71374000Y-109474000D03*
X71628000Y-66294000D03*
X71628000Y-112268000D03*
X71882000Y-108712000D03*
X72136000Y-96012000D03*
X72136000Y-97028000D03*
X72136000Y-113030000D03*
X72390000Y-98552000D03*
X75538254Y-77978000D03*
X75946000Y-76708000D03*
X76200000Y-118618000D03*
X77470000Y-72390000D03*
X79121000Y-51562000D03*
X79502000Y-107950000D03*
X79756000Y-88900000D03*
X80264000Y-75438000D03*
X80264000Y-104394000D03*
X81026000Y-74168000D03*
X81788000Y-102616000D03*
X82419000Y-107819000D03*
X82550000Y-105918000D03*
X82550000Y-110490000D03*
X82804000Y-40640000D03*
X83058000Y-73660000D03*
X84074000Y-73152000D03*
X84328000Y-144886000D03*
X85090000Y-108966000D03*
X85598000Y-93853000D03*
X85598000Y-99822000D03*
X85852000Y-106680000D03*
X86233000Y-69469000D03*
X86868000Y-42926000D03*
X87109624Y-93980000D03*
X87122000Y-75656001D03*
X87376000Y-85852000D03*
X88138000Y-89014300D03*
X88392000Y-107188000D03*
X88928001Y-75155999D03*
X89916000Y-69680999D03*
X89916000Y-71131000D03*
X89916000Y-71628000D03*
X90170000Y-77470000D03*
X90358001Y-82550000D03*
X90424000Y-79248000D03*
X91186000Y-95250000D03*
X91440000Y-88138000D03*
X91694000Y-62484000D03*
X91948000Y-92202000D03*
X92964000Y-96278376D03*
X92964000Y-97282000D03*
X93218000Y-66040000D03*
X93980000Y-66294000D03*
X94234000Y-78486000D03*
X94488000Y-76200000D03*
X94742000Y-65024000D03*
X94742000Y-68580000D03*
X94742000Y-71120000D03*
X94742000Y-72136000D03*
X94742000Y-74676000D03*
X94869000Y-78105000D03*
X95250000Y-42672000D03*
X96012000Y-84836000D03*
X96266000Y-60960000D03*
X96266000Y-76200000D03*
X97282000Y-70866000D03*
X97286000Y-68580000D03*
X97790000Y-64770000D03*
X98806000Y-68834000D03*
X98823280Y-71598472D03*
X99060000Y-40386000D03*
X99314000Y-45466000D03*
X99314000Y-64770000D03*
X99314000Y-68326000D03*
X99806625Y-68823313D03*
X99822000Y-125222000D03*
X99822000Y-127508000D03*
X100838000Y-64770000D03*
X101346000Y-46736000D03*
X101600000Y-41656000D03*
X101600000Y-68326000D03*
X101600000Y-69088000D03*
X102616000Y-70612000D03*
X102616000Y-71630999D03*
X102870000Y-68834000D03*
X103124000Y-49022000D03*
X103210510Y-73071024D03*
X103378000Y-64770000D03*
X103378000Y-70612000D03*
X103632000Y-72644000D03*
X103632000Y-124968000D03*
X103886000Y-127508000D03*
X104140000Y-58420000D03*
X104902000Y-64770000D03*
X105029000Y-58801000D03*
X105664000Y-125476000D03*
X106299000Y-58547000D03*
X106426000Y-64770000D03*
X106939484Y-123963211D03*
X107680617Y-58801000D03*
X107950000Y-48006000D03*
X108444622Y-125424709D03*
X108839000Y-58547000D03*
X109479484Y-123963211D03*
X110109919Y-125462581D03*
X110236000Y-58801000D03*
X110490000Y-120142000D03*
X110590000Y-43080000D03*
X110744000Y-124968000D03*
X111125000Y-58420000D03*
X112014000Y-58801000D03*
X112019484Y-123963211D03*
X112597000Y-125222000D03*
X112776000Y-41402000D03*
X112776000Y-64008000D03*
X112879258Y-126307847D03*
X113284000Y-65229480D03*
X113301236Y-57370706D03*
X113538000Y-59004200D03*
X113538000Y-76708000D03*
X113670500Y-51152375D03*
X113792000Y-66548000D03*
X113792000Y-67564000D03*
X113792000Y-122936000D03*
X113992502Y-126464002D03*
X114046000Y-65622248D03*
X114046000Y-68580000D03*
X114168877Y-59042558D03*
X114554000Y-123952000D03*
X114554000Y-127508000D03*
X114681000Y-51152375D03*
X114782600Y-59055000D03*
X114795139Y-58290455D03*
X115062000Y-75184000D03*
X115330089Y-59900683D03*
X115394426Y-58319750D03*
X115470751Y-51152375D03*
X115645000Y-125222000D03*
X115829484Y-123963211D03*
X115829484Y-126503211D03*
X115993121Y-59064401D03*
X116026416Y-58301389D03*
X116078000Y-73152000D03*
X116147994Y-51152375D03*
X116614825Y-59050953D03*
X116691700Y-57481164D03*
X116747997Y-51152375D03*
X116840000Y-73406000D03*
X116840000Y-120396000D03*
X117279500Y-59081325D03*
X117348000Y-51152375D03*
X117602000Y-74930000D03*
X117602000Y-120396000D03*
X117655983Y-124053386D03*
X117899429Y-58282228D03*
X118017997Y-51152375D03*
X118110000Y-76454000D03*
X118364000Y-125476000D03*
X118381236Y-59910706D03*
X118516400Y-58318400D03*
X118618000Y-51152375D03*
X118872000Y-120396000D03*
X119050998Y-58978425D03*
X119380000Y-51152375D03*
X119634000Y-120396000D03*
X119639484Y-123963211D03*
X119651236Y-57437294D03*
X119656810Y-58973767D03*
X119980003Y-51152375D03*
X120291765Y-59014801D03*
X120370600Y-58420000D03*
X120392561Y-125469268D03*
X120396000Y-41402000D03*
X120523000Y-40386000D03*
X120904000Y-71628000D03*
X120904000Y-120396000D03*
X120995261Y-58380912D03*
X121424951Y-124006148D03*
X121539000Y-72771000D03*
X121595183Y-58963068D03*
X121602170Y-58363108D03*
X121666000Y-120396000D03*
X122018375Y-60960000D03*
X122090858Y-56370155D03*
X122174000Y-58674000D03*
X122174000Y-125476000D03*
X122191236Y-57437294D03*
X122301000Y-72771000D03*
X122682000Y-120396000D03*
X122726837Y-59125707D03*
X122806884Y-58395980D03*
X122936000Y-56388000D03*
X123190000Y-72771000D03*
X123444000Y-53086000D03*
X123444000Y-120396000D03*
X123449484Y-123963211D03*
X123571000Y-58420000D03*
X123825000Y-56261000D03*
X123952000Y-72771000D03*
X124202561Y-125469268D03*
X124206000Y-58928000D03*
X124460000Y-67564000D03*
X124714000Y-120396000D03*
X124731236Y-59977294D03*
X124897382Y-57342862D03*
X124936000Y-56229000D03*
X124968000Y-150114000D03*
X125222000Y-66802000D03*
X125234951Y-124006148D03*
X125476000Y-120396000D03*
X125492630Y-58530370D03*
X125717000Y-49784000D03*
X125730000Y-66294000D03*
X125984000Y-125476000D03*
X126136400Y-58496200D03*
X126238000Y-52578000D03*
X126492000Y-120396000D03*
X126771400Y-58445400D03*
X127005500Y-52583500D03*
X127254000Y-120396000D03*
X127259484Y-123963211D03*
X127271236Y-57437294D03*
X127273997Y-59975855D03*
X127889000Y-58521600D03*
X128012561Y-125469268D03*
X128270000Y-120396000D03*
X128524000Y-48260000D03*
X128905000Y-59055000D03*
X129032000Y-120396000D03*
X129044951Y-124006148D03*
X129284718Y-57439829D03*
X129540000Y-65786000D03*
X129794000Y-125476000D03*
X129981397Y-58420000D03*
X130048000Y-65278000D03*
X130302000Y-120396000D03*
X130556000Y-64008000D03*
X130570089Y-59900683D03*
X130581400Y-58420000D03*
X130828947Y-63473676D03*
X130975500Y-53354996D03*
X131064000Y-64770000D03*
X131064000Y-120396000D03*
X131069484Y-123963211D03*
X131191000Y-59004200D03*
X131445000Y-63274625D03*
X131549296Y-58468156D03*
X131572000Y-53430248D03*
X131822561Y-125469268D03*
X132334000Y-53340000D03*
X132334000Y-58953400D03*
X132351236Y-57437294D03*
X132517382Y-59882862D03*
X132588000Y-120142000D03*
X132854951Y-124006148D03*
X133019800Y-58928000D03*
X133080617Y-57432455D03*
X133096000Y-120650000D03*
X133604000Y-125476000D03*
X133676866Y-58863703D03*
X134112000Y-121412000D03*
X134132334Y-60024330D03*
X134199956Y-57492848D03*
X134797800Y-58724800D03*
X134879484Y-123963211D03*
X135128000Y-121412000D03*
X135559800Y-58674000D03*
X135636000Y-125476000D03*
X136161236Y-59977294D03*
X136161237Y-57437294D03*
X136777541Y-58401167D03*
X136902561Y-123958732D03*
X136982200Y-58978800D03*
X137377101Y-58378134D03*
X137617200Y-58928000D03*
X137942334Y-57484330D03*
X137999625Y-60044394D03*
X138176000Y-125476000D03*
X138853730Y-59065038D03*
X139442561Y-123958732D03*
X139573000Y-59055000D03*
X140551565Y-58276894D03*
X140700617Y-59915545D03*
X140716000Y-60960000D03*
X140716000Y-125476000D03*
X141274800Y-58267600D03*
X144780000Y-60706000D03*
X154210099Y-57879901D03*
X154329190Y-58776810D03*
X155980190Y-58141810D03*
X155995310Y-57237690D03*
X159512000Y-130302000D03*
X166370000Y-130556000D03*
X205510190Y-81001810D03*
X205969810Y-80542190D03*
X206248000Y-126492000D03*
X206502000Y-54610000D03*
X206756000Y-83566000D03*
X208026000Y-79502000D03*
X208534000Y-77724000D03*
X209042000Y-52578000D03*
X209296000Y-71120000D03*
X209550000Y-126492000D03*
X210058000Y-126492000D03*
X210312000Y-54356000D03*
X210947000Y-54356000D03*
X211582000Y-54356000D03*
X211582000Y-83002001D03*
X212217000Y-54356000D03*
X212344000Y-74168000D03*
X213487000Y-46355000D03*
X213487000Y-51181000D03*
X213868000Y-68834000D03*
X214122000Y-46355000D03*
X214122000Y-51054000D03*
X214122000Y-54356000D03*
X214757000Y-45085000D03*
X214757000Y-46355000D03*
X214884000Y-42926000D03*
X215212330Y-75790948D03*
X215519000Y-43561000D03*
X215646000Y-126492000D03*
X215741905Y-76073000D03*
X216345494Y-76071923D03*
X216408000Y-44450000D03*
X216408000Y-126492000D03*
X216902994Y-75850120D03*
X217454400Y-76282022D03*
X217678000Y-68580000D03*
X217932000Y-54102000D03*
X219202000Y-143256000D03*
X219338999Y-61204001D03*
X219710000Y-75692000D03*
X220599000Y-83002001D03*
X221234000Y-80772000D03*
X221996000Y-74422000D03*
X221996000Y-126492000D03*
X222504000Y-126492000D03*
X224282000Y-78232000D03*
X224790000Y-84836000D03*
X225806000Y-71374000D03*
X225806000Y-126492000D03*
X226314000Y-126492000D03*
X227076000Y-82042000D03*
X227584000Y-79756000D03*
X227838000Y-76962000D03*
X228600000Y-71501000D03*
X229616000Y-55626000D03*
X229616000Y-126492000D03*
X230124000Y-126492000D03*
X230426001Y-82755999D03*
X231140000Y-80518000D03*
X231267000Y-61683376D03*
X231394000Y-83235374D03*
X231648000Y-77724000D03*
X231902000Y-143002000D03*
X232410000Y-43434000D03*
X232410000Y-74422000D03*
X234275000Y-61976000D03*
X235204000Y-69850000D03*
X235331000Y-76200000D03*
X235712000Y-126492000D03*
X235839000Y-92218190D03*
X235876775Y-76679917D03*
X236220000Y-51308000D03*
X236270070Y-91692310D03*
X236362275Y-76184725D03*
X236474000Y-126492000D03*
X236474001Y-74295000D03*
X236847774Y-76802114D03*
X237006190Y-89027000D03*
X237064898Y-76242775D03*
X237490000Y-71120000D03*
X237571454Y-89228195D03*
X238252000Y-54102000D03*
X238778907Y-54389000D03*
X239458500Y-45466000D03*
X239522000Y-51308000D03*
X239759500Y-54897000D03*
X239776000Y-76200000D03*
X240538000Y-83256001D03*
X240792000Y-81026000D03*
X241046000Y-55372000D03*
X242042000Y-50833000D03*
X242062000Y-74422000D03*
X242062000Y-126492000D03*
X242570000Y-126492000D03*
X243586000Y-78232000D03*
X244348000Y-143002000D03*
X245618000Y-71628000D03*
X245618000Y-126492000D03*
X245872000Y-80772000D03*
D11*
X98425000Y-75565000D03*
X111506000Y-62484000D03*
X112014000Y-63246000D03*
X127952500Y-69278500D03*
X129540000Y-68834000D03*
X129603500Y-69913500D03*
X138557000Y-74231500D03*
X139573000Y-75565000D03*
D12*
X67817986Y-111252000D03*
X68072000Y-108966000D03*
X69723009Y-125603009D03*
X71374008Y-130047992D03*
X73215000Y-126555000D03*
X73882001Y-48768000D03*
X75184000Y-119887978D03*
X75438000Y-51562000D03*
X75692000Y-94742000D03*
X75692000Y-98552000D03*
X76454000Y-83566000D03*
X77470000Y-96012000D03*
X78486000Y-85852000D03*
X78981000Y-127267000D03*
X80264000Y-52085997D03*
X80264000Y-53086000D03*
X80517990Y-51085999D03*
X81026000Y-125476000D03*
X81280000Y-50292000D03*
X83058000Y-88364301D03*
X83312000Y-99060000D03*
X85852000Y-96266000D03*
X86288999Y-93035001D03*
X86360000Y-97282000D03*
X87122000Y-96266000D03*
X87884000Y-152146000D03*
X88138000Y-159004000D03*
X88392000Y-91694000D03*
X88646000Y-86868000D03*
X89916000Y-98552000D03*
X90295001Y-85661000D03*
X90424000Y-65024000D03*
X90678000Y-143510000D03*
X90678000Y-147574000D03*
X90678000Y-150876000D03*
X90932000Y-163068000D03*
X92265000Y-63817000D03*
X92532200Y-158165800D03*
X92532200Y-159435800D03*
X92532200Y-160705800D03*
X92710000Y-163068000D03*
X94234000Y-59690000D03*
X94234000Y-143510000D03*
X94234000Y-147574000D03*
X94234000Y-150876000D03*
X94234000Y-157734000D03*
X94234000Y-161798000D03*
X94488000Y-163068000D03*
X95949000Y-160973000D03*
X96012000Y-78232000D03*
X96520000Y-72644000D03*
X96520000Y-74168000D03*
X97028000Y-78232000D03*
X97536000Y-73406000D03*
X97790000Y-143510000D03*
X97790000Y-147574000D03*
X97790000Y-150876000D03*
X98005811Y-78486000D03*
X98552000Y-163068000D03*
X98796067Y-70844961D03*
X99822000Y-76454000D03*
X100076000Y-79502000D03*
X100584000Y-73152000D03*
X103378000Y-161798000D03*
X103505000Y-74863000D03*
X104140000Y-61468000D03*
X104648000Y-49657000D03*
X104902000Y-43434000D03*
X105410000Y-121920000D03*
X105415500Y-55123500D03*
X106426000Y-61468000D03*
X106680000Y-46495000D03*
X106680000Y-128016000D03*
X107696000Y-54864000D03*
X107950000Y-121920000D03*
X108712000Y-159512000D03*
X108966000Y-61976000D03*
X109220000Y-128016000D03*
X110236000Y-54864000D03*
X110490000Y-121920000D03*
X111252000Y-162814000D03*
X111506000Y-61468000D03*
X111506000Y-143510000D03*
X111506000Y-147574000D03*
X111506000Y-150876000D03*
X111760000Y-128016000D03*
X112776000Y-54864000D03*
X113284000Y-162814000D03*
X113360200Y-157911800D03*
X113360200Y-159181800D03*
X113360200Y-160705800D03*
X114300000Y-130556000D03*
X114300000Y-161798000D03*
X115062000Y-143510000D03*
X115062000Y-147574000D03*
X115062000Y-150876000D03*
X115062000Y-157988000D03*
X115316000Y-162814000D03*
X116205000Y-130429000D03*
X116210500Y-121920000D03*
X116777000Y-160719000D03*
X116840000Y-129921000D03*
X117480500Y-127883500D03*
X118110000Y-54356000D03*
X118110000Y-121920000D03*
X118110000Y-130937000D03*
X118618000Y-143510000D03*
X118618000Y-147574000D03*
X118618000Y-150876000D03*
X118745000Y-130302000D03*
X119380000Y-128016000D03*
X119888000Y-163068000D03*
X120015000Y-130937000D03*
X120020500Y-122306500D03*
X120650000Y-130302000D03*
X121290500Y-127883500D03*
X121920000Y-122174000D03*
X121920000Y-130937000D03*
X122555000Y-130302000D03*
X123190000Y-128016000D03*
X123825000Y-130937000D03*
X123830500Y-122306500D03*
X124460000Y-61468000D03*
X124460000Y-130048000D03*
X124460000Y-161798000D03*
X124968000Y-156210000D03*
X125100500Y-127883500D03*
X125730000Y-122174000D03*
X125730000Y-130937000D03*
X126365000Y-130048000D03*
X127000000Y-128016000D03*
X127635000Y-131064000D03*
X127640500Y-122306500D03*
X128270000Y-54356000D03*
X128270000Y-129921000D03*
X128910500Y-127883500D03*
X129540000Y-130937000D03*
X129545491Y-122179491D03*
X129545500Y-61087000D03*
X130175000Y-129921000D03*
X130180500Y-54488500D03*
X130810000Y-128016000D03*
X131445000Y-130937000D03*
X131450500Y-122052500D03*
X132080000Y-129921000D03*
X132720500Y-127883500D03*
X133350000Y-121920000D03*
X133350000Y-130937000D03*
X133985000Y-129921000D03*
X134620000Y-128016000D03*
X135382000Y-158750000D03*
X135636000Y-121920000D03*
X136906000Y-128016000D03*
X137922000Y-158750000D03*
X138176000Y-121920000D03*
X139446000Y-128016000D03*
X140716000Y-121920000D03*
X141224000Y-156210000D03*
X141224000Y-160782000D03*
X141986000Y-55880000D03*
X146304000Y-140208000D03*
X156210000Y-148590000D03*
X159766000Y-132588000D03*
X159766000Y-136652000D03*
X159766000Y-139954000D03*
X160528000Y-152654000D03*
X161874200Y-147497800D03*
X161874200Y-149021800D03*
X161874200Y-150799800D03*
X162560000Y-152654000D03*
X163068000Y-151130000D03*
X163322000Y-132588000D03*
X163322000Y-136652000D03*
X163322000Y-139954000D03*
X163576000Y-147066000D03*
X164338000Y-152654000D03*
X165291000Y-149797000D03*
X166878000Y-132588000D03*
X166878000Y-136652000D03*
X166878000Y-139954000D03*
X167894000Y-152146000D03*
X172847000Y-148717000D03*
X179324000Y-148336000D03*
X179959000Y-108293500D03*
X180467000Y-108876500D03*
X181102000Y-109436500D03*
X181356000Y-130302000D03*
X181610000Y-132588000D03*
X181610000Y-136652000D03*
X181610000Y-139954000D03*
X181991000Y-109944500D03*
X183007000Y-110452500D03*
X183089502Y-61550502D03*
X183464200Y-147243800D03*
X183464200Y-148666200D03*
X183464200Y-150291800D03*
X183642000Y-60198000D03*
X183922157Y-151180775D03*
X184277000Y-110998000D03*
X184531000Y-59563000D03*
X185166000Y-132588000D03*
X185166000Y-136652000D03*
X185166000Y-139954000D03*
X185166000Y-147066000D03*
X185166000Y-152908000D03*
X185674000Y-111526753D03*
X186690000Y-112103500D03*
X186817000Y-62103000D03*
X186881000Y-149797000D03*
X187452000Y-112649000D03*
X188341000Y-113246500D03*
X188468000Y-152908000D03*
X188722000Y-60198000D03*
X188722000Y-130302000D03*
X188722000Y-132588000D03*
X188722000Y-136652000D03*
X188722000Y-139954000D03*
X189230000Y-113754500D03*
X189725300Y-51054000D03*
X190119000Y-114262500D03*
X190629232Y-114770500D03*
X191139464Y-115278500D03*
X191770000Y-115786500D03*
X192532000Y-116332000D03*
X193167000Y-116929500D03*
X193821350Y-117475000D03*
X194043300Y-49911000D03*
X194170300Y-52451000D03*
X194564000Y-118020500D03*
X194564000Y-151130000D03*
X195197855Y-118565999D03*
X195906300Y-48641000D03*
X196202300Y-51181000D03*
X205473300Y-49276000D03*
X206756000Y-50546000D03*
X207955000Y-60452000D03*
X209804000Y-45847000D03*
X210566000Y-82804000D03*
X211582000Y-80103500D03*
X211963000Y-77978000D03*
X212845000Y-60452000D03*
X212852000Y-161544000D03*
X214630000Y-76454000D03*
X214630000Y-81280000D03*
X214630000Y-82550000D03*
X215138000Y-163322000D03*
X216154000Y-78740000D03*
X216154000Y-82804000D03*
X216306391Y-80768009D03*
X216662000Y-161036000D03*
X216916000Y-164338000D03*
X217932000Y-75692000D03*
X217932000Y-81534000D03*
X217932000Y-82804000D03*
X218948000Y-145288000D03*
X218948000Y-149352000D03*
X218948000Y-152654000D03*
X219195000Y-60452000D03*
X219710000Y-163576000D03*
X220726000Y-77978000D03*
X220802200Y-159689800D03*
X220802200Y-160782000D03*
X220980000Y-162306000D03*
X221234000Y-163576000D03*
X221394012Y-79662012D03*
X221488000Y-82804000D03*
X222504000Y-145288000D03*
X222504000Y-149352000D03*
X222504000Y-152654000D03*
X222504000Y-159512000D03*
X223266000Y-81026000D03*
X223294000Y-82483123D03*
X223520000Y-163576000D03*
X224085000Y-60452000D03*
X224205800Y-159435800D03*
X224219000Y-161989000D03*
X225044000Y-85552635D03*
X225298000Y-143256000D03*
X225552000Y-82550000D03*
X225806000Y-81026000D03*
X226060000Y-145288000D03*
X226060000Y-149352000D03*
X226060000Y-152654000D03*
X226695000Y-102993973D03*
X226695000Y-103713976D03*
X226695000Y-104433979D03*
X226695000Y-105153982D03*
X226695000Y-105873985D03*
X226695000Y-106593988D03*
X226695000Y-107313991D03*
X226695000Y-108033994D03*
X226695000Y-108753997D03*
X226695000Y-109474000D03*
X226695000Y-110232973D03*
X226695000Y-110952976D03*
X226695000Y-111672979D03*
X226695000Y-112392982D03*
X226695000Y-113112985D03*
X226695000Y-113832988D03*
X226695000Y-114552991D03*
X226695000Y-115272994D03*
X226695000Y-115992997D03*
X226695000Y-116713000D03*
X226822000Y-85662187D03*
X227076000Y-163830000D03*
X227965000Y-60452000D03*
X229108000Y-161036000D03*
X230124000Y-163068000D03*
X231394000Y-45399000D03*
X231648000Y-145288000D03*
X231648000Y-149352000D03*
X231648000Y-152654000D03*
X232855000Y-60452000D03*
X233104592Y-162969556D03*
X233502200Y-159943800D03*
X233502200Y-161036000D03*
X233502200Y-162052000D03*
X233680000Y-163830000D03*
X234188000Y-82804000D03*
X234442000Y-45974000D03*
X234442000Y-81534000D03*
X234665512Y-76804512D03*
X235204000Y-145288000D03*
X235204000Y-149352000D03*
X235204000Y-152654000D03*
X235204000Y-159766000D03*
X235458000Y-163830000D03*
X235665002Y-60452000D03*
X235712000Y-82804000D03*
X235915200Y-81229200D03*
X235966000Y-78994000D03*
X236474000Y-131318000D03*
X236919000Y-161989000D03*
X237236000Y-61214000D03*
X237695625Y-131318000D03*
X237744000Y-76073000D03*
X237744000Y-82042000D03*
X237744000Y-83058000D03*
X237998000Y-132080000D03*
X238252000Y-143256000D03*
X238760000Y-145288000D03*
X238760000Y-149352000D03*
X238760000Y-152654000D03*
X239205000Y-60452000D03*
X239268000Y-132080000D03*
X240030000Y-163576000D03*
X240538000Y-77724000D03*
X241039400Y-80321500D03*
X241046000Y-131318000D03*
X241300000Y-47244000D03*
X241300000Y-86614000D03*
X241554010Y-83312000D03*
X242061942Y-160020000D03*
X242062000Y-131318000D03*
X242316000Y-132080000D03*
X242570000Y-163068000D03*
X242824000Y-51562000D03*
X243840000Y-43942000D03*
X243840000Y-132080000D03*
X244095000Y-60452000D03*
X244348000Y-145288000D03*
X244348000Y-149352000D03*
X244348000Y-152654000D03*
X245618000Y-83820000D03*
X246126000Y-163830000D03*
X246329200Y-159969200D03*
X246380000Y-82296000D03*
X246380000Y-95897700D03*
X246380000Y-98945700D03*
X246380000Y-101993700D03*
X246380000Y-161036000D03*
X246507000Y-85852000D03*
X246634000Y-162560000D03*
X246888000Y-112903000D03*
X246888000Y-114693700D03*
X247904000Y-145288000D03*
X247904000Y-149352000D03*
X247904000Y-152654000D03*
X247980200Y-109791500D03*
X247980200Y-111061500D03*
X247980200Y-112331500D03*
X248031000Y-159639000D03*
X248412000Y-163830000D03*
X248539000Y-113538000D03*
X248920000Y-114693700D03*
X249682000Y-95643700D03*
X249682000Y-98945700D03*
X249682000Y-102247700D03*
X249682000Y-109613700D03*
X249732800Y-159461200D03*
X249873000Y-161735000D03*
X250698000Y-114693700D03*
X251383800Y-109283500D03*
X251397000Y-111836700D03*
X251460000Y-143002000D03*
X251460000Y-145288000D03*
X251460000Y-149352000D03*
X251460000Y-152654000D03*
X252349000Y-50927000D03*
X252349000Y-52197000D03*
X252476000Y-48387000D03*
X252476000Y-49657000D03*
X252730000Y-163830000D03*
X252984000Y-114947700D03*
X253238000Y-95643700D03*
X253238000Y-98945700D03*
X253238000Y-102501700D03*
X255016000Y-163322000D03*
X255778000Y-113919000D03*
X256413000Y-84836000D03*
X256413000Y-92329000D03*
X257047000Y-49784000D03*
D13*
X101346000Y-62484000D03*
X102108000Y-58928000D03*
X103886000Y-54610000D03*
X154559000Y-107188000D03*
D14*
%TO.C,TP23*%
X86106000Y-146664000D03*
%TO.C,TP24*%
X86106000Y-150114000D03*
%TO.C,TP21*%
X123190000Y-151638000D03*
%TO.C,TP22*%
X123190000Y-154432000D03*
%TO.C,TP11*%
X147320000Y-105537000D03*
%TO.C,TP3*%
X161544000Y-129540000D03*
%TO.C,TP4*%
X164338000Y-129540000D03*
%TO.C,TP31*%
X169672000Y-101600000D03*
%TO.C,TP32*%
X169672000Y-104394000D03*
%TO.C,TP33*%
X169672000Y-107188000D03*
%TO.C,TP12*%
X176276000Y-101600000D03*
%TO.C,TP29*%
X176276000Y-104394000D03*
%TO.C,TP30*%
X176276000Y-107188000D03*
%TO.C,TP1*%
X183642000Y-129032000D03*
%TO.C,TP2*%
X186436000Y-129032000D03*
%TO.C,TP19*%
X219202000Y-51054000D03*
%TO.C,TP13*%
X220980000Y-142240000D03*
%TO.C,TP20*%
X222885000Y-51181000D03*
%TO.C,TP14*%
X223520000Y-142240000D03*
%TO.C,TP5*%
X233680000Y-141986000D03*
%TO.C,TP6*%
X236474000Y-141986000D03*
%TO.C,TP7*%
X246634000Y-141986000D03*
%TO.C,TP8*%
X249428000Y-141986000D03*
%TO.C,TP10*%
X256413000Y-87122000D03*
%TO.C,TP9*%
X256413000Y-89789000D03*
D15*
%TO.C,T1*%
X69088000Y-69088000D03*
X69088000Y-71628000D03*
X69088000Y-74168000D03*
X69088000Y-76708000D03*
X69088000Y-79248000D03*
X71628000Y-67818000D03*
X71628000Y-70358000D03*
X71628000Y-72898000D03*
X71628000Y-75438000D03*
X71628000Y-77978000D03*
D16*
X82058000Y-66903000D03*
X82058000Y-69443000D03*
X82058000Y-77623000D03*
X82058000Y-80163000D03*
D17*
%TO.C,J12*%
X68834000Y-48799999D03*
X68834000Y-50800000D03*
X68834000Y-52799999D03*
X68834000Y-54800000D03*
X68834000Y-56800001D03*
X68834000Y-58799999D03*
X68834000Y-60800001D03*
X70834001Y-48799999D03*
X70834001Y-50800000D03*
X70834001Y-52799999D03*
X70834001Y-54800000D03*
X70834001Y-56800001D03*
X70834001Y-58799999D03*
X70834001Y-60800001D03*
D18*
%TO.C,J1*%
X173034000Y-154718500D03*
X180534000Y-154718500D03*
D19*
%TO.C,U5*%
X141224000Y-158750000D03*
X143764000Y-158750000D03*
X146304000Y-158750000D03*
X159004000Y-158750000D03*
X161544000Y-158750000D03*
%TO.C,U16*%
X192532000Y-163322000D03*
X195072000Y-163322000D03*
X207772000Y-163322000D03*
X210312000Y-163322000D03*
X212852000Y-163322000D03*
D20*
%TO.C,T1*%
X74928000Y-65788000D03*
X74928000Y-81278000D03*
M02*
