%TF.GenerationSoftware,KiCad,Pcbnew,9.0.2*%
%TF.CreationDate,2025-10-06T13:03:54-05:00*%
%TF.ProjectId,PSEC5_Ctrl_Board,50534543-355f-4437-9472-6c5f426f6172,rev?*%
%TF.SameCoordinates,Original*%
%TF.FileFunction,Copper,L10,Bot*%
%TF.FilePolarity,Positive*%
%FSLAX46Y46*%
G04 Gerber Fmt 4.6, Leading zero omitted, Abs format (unit mm)*
G04 Created by KiCad (PCBNEW 9.0.2) date 2025-10-06 13:03:54*
%MOMM*%
%LPD*%
G01*
G04 APERTURE LIST*
G04 Aperture macros list*
%AMRoundRect*
0 Rectangle with rounded corners*
0 $1 Rounding radius*
0 $2 $3 $4 $5 $6 $7 $8 $9 X,Y pos of 4 corners*
0 Add a 4 corners polygon primitive as box body*
4,1,4,$2,$3,$4,$5,$6,$7,$8,$9,$2,$3,0*
0 Add four circle primitives for the rounded corners*
1,1,$1+$1,$2,$3*
1,1,$1+$1,$4,$5*
1,1,$1+$1,$6,$7*
1,1,$1+$1,$8,$9*
0 Add four rect primitives between the rounded corners*
20,1,$1+$1,$2,$3,$4,$5,0*
20,1,$1+$1,$4,$5,$6,$7,0*
20,1,$1+$1,$6,$7,$8,$9,0*
20,1,$1+$1,$8,$9,$2,$3,0*%
G04 Aperture macros list end*
%TA.AperFunction,ComponentPad*%
%ADD10R,1.500000X1.500000*%
%TD*%
%TA.AperFunction,ComponentPad*%
%ADD11C,1.955800*%
%TD*%
%TA.AperFunction,ComponentPad*%
%ADD12C,1.500000*%
%TD*%
%TA.AperFunction,ComponentPad*%
%ADD13C,1.600000*%
%TD*%
%TA.AperFunction,ComponentPad*%
%ADD14C,2.200000*%
%TD*%
%TA.AperFunction,ComponentPad*%
%ADD15C,1.905000*%
%TD*%
%TA.AperFunction,ComponentPad*%
%ADD16C,1.549400*%
%TD*%
%TA.AperFunction,ComponentPad*%
%ADD17RoundRect,0.250000X-0.750000X-1.550000X0.750000X-1.550000X0.750000X1.550000X-0.750000X1.550000X0*%
%TD*%
%TA.AperFunction,ComponentPad*%
%ADD18O,2.000000X3.600000*%
%TD*%
%TA.AperFunction,SMDPad,CuDef*%
%ADD19RoundRect,0.225000X-0.250000X0.225000X-0.250000X-0.225000X0.250000X-0.225000X0.250000X0.225000X0*%
%TD*%
%TA.AperFunction,SMDPad,CuDef*%
%ADD20RoundRect,0.200000X0.200000X0.275000X-0.200000X0.275000X-0.200000X-0.275000X0.200000X-0.275000X0*%
%TD*%
%TA.AperFunction,SMDPad,CuDef*%
%ADD21RoundRect,0.200000X-0.200000X-0.275000X0.200000X-0.275000X0.200000X0.275000X-0.200000X0.275000X0*%
%TD*%
%TA.AperFunction,SMDPad,CuDef*%
%ADD22RoundRect,0.225000X-0.225000X-0.250000X0.225000X-0.250000X0.225000X0.250000X-0.225000X0.250000X0*%
%TD*%
%TA.AperFunction,SMDPad,CuDef*%
%ADD23RoundRect,0.200000X-0.275000X0.200000X-0.275000X-0.200000X0.275000X-0.200000X0.275000X0.200000X0*%
%TD*%
%TA.AperFunction,SMDPad,CuDef*%
%ADD24RoundRect,0.225000X0.225000X0.250000X-0.225000X0.250000X-0.225000X-0.250000X0.225000X-0.250000X0*%
%TD*%
%TA.AperFunction,SMDPad,CuDef*%
%ADD25RoundRect,0.225000X0.250000X-0.225000X0.250000X0.225000X-0.250000X0.225000X-0.250000X-0.225000X0*%
%TD*%
%TA.AperFunction,SMDPad,CuDef*%
%ADD26R,1.397000X0.558800*%
%TD*%
%TA.AperFunction,SMDPad,CuDef*%
%ADD27R,0.355600X1.981200*%
%TD*%
%TA.AperFunction,SMDPad,CuDef*%
%ADD28RoundRect,0.250000X-0.625000X0.312500X-0.625000X-0.312500X0.625000X-0.312500X0.625000X0.312500X0*%
%TD*%
%TA.AperFunction,SMDPad,CuDef*%
%ADD29R,0.558800X1.320800*%
%TD*%
%TA.AperFunction,SMDPad,CuDef*%
%ADD30R,0.685800X0.203200*%
%TD*%
%TA.AperFunction,SMDPad,CuDef*%
%ADD31R,1.397000X0.853186*%
%TD*%
%TA.AperFunction,SMDPad,CuDef*%
%ADD32R,0.863600X0.228600*%
%TD*%
%TA.AperFunction,SMDPad,CuDef*%
%ADD33RoundRect,0.200000X0.275000X-0.200000X0.275000X0.200000X-0.275000X0.200000X-0.275000X-0.200000X0*%
%TD*%
%TA.AperFunction,SMDPad,CuDef*%
%ADD34R,0.711200X0.203200*%
%TD*%
%TA.AperFunction,SMDPad,CuDef*%
%ADD35R,0.280000X0.850000*%
%TD*%
%TA.AperFunction,SMDPad,CuDef*%
%ADD36R,0.850000X0.280000*%
%TD*%
%TA.AperFunction,SMDPad,CuDef*%
%ADD37R,2.450000X2.450000*%
%TD*%
%TA.AperFunction,SMDPad,CuDef*%
%ADD38R,1.981200X0.355600*%
%TD*%
%TA.AperFunction,SMDPad,CuDef*%
%ADD39R,0.203200X0.685800*%
%TD*%
%TA.AperFunction,SMDPad,CuDef*%
%ADD40R,0.853186X1.397000*%
%TD*%
%TA.AperFunction,SMDPad,CuDef*%
%ADD41R,0.228600X0.863600*%
%TD*%
%TA.AperFunction,SMDPad,CuDef*%
%ADD42R,1.200000X1.000000*%
%TD*%
%TA.AperFunction,SMDPad,CuDef*%
%ADD43R,0.254000X0.812800*%
%TD*%
%TA.AperFunction,SMDPad,CuDef*%
%ADD44R,0.812800X0.254000*%
%TD*%
%TA.AperFunction,SMDPad,CuDef*%
%ADD45R,3.098800X3.098800*%
%TD*%
%TA.AperFunction,ViaPad*%
%ADD46C,0.400000*%
%TD*%
%TA.AperFunction,ViaPad*%
%ADD47C,0.600000*%
%TD*%
%TA.AperFunction,ViaPad*%
%ADD48C,0.520000*%
%TD*%
%TA.AperFunction,ViaPad*%
%ADD49C,1.200000*%
%TD*%
%TA.AperFunction,ViaPad*%
%ADD50C,0.500000*%
%TD*%
%TA.AperFunction,Conductor*%
%ADD51C,0.158750*%
%TD*%
%TA.AperFunction,Conductor*%
%ADD52C,0.171000*%
%TD*%
%TA.AperFunction,Conductor*%
%ADD53C,0.130000*%
%TD*%
%TA.AperFunction,Conductor*%
%ADD54C,0.150000*%
%TD*%
%TA.AperFunction,Conductor*%
%ADD55C,0.128000*%
%TD*%
%TA.AperFunction,Conductor*%
%ADD56C,0.200000*%
%TD*%
G04 APERTURE END LIST*
D10*
%TO.P,TP21,1,1*%
%TO.N,GND*%
X123190000Y-151638000D03*
%TD*%
D11*
%TO.P,U16,1,+VOUT*%
%TO.N,VDD_BUCK_2V7*%
X199060000Y-164286000D03*
%TO.P,U16,2,TRIM*%
%TO.N,Net-(U16-TRIM)*%
X196520000Y-164286000D03*
%TO.P,U16,3,GND_COMMON*%
%TO.N,GND*%
X193980000Y-164286000D03*
%TO.P,U16,4,+VIN*%
%TO.N,/power2/power*%
X181280000Y-164286000D03*
%TO.P,U16,5,REMOTE_ON/OFF*%
%TO.N,unconnected-(U16-REMOTE_ON{slash}OFF-Pad5)*%
X178740000Y-164286000D03*
%TD*%
D10*
%TO.P,T1,1,VCC*%
%TO.N,/SOM240_1(1.5)/ethernet1/PHY_VCC*%
X86584000Y-67183000D03*
D12*
%TO.P,T1,2,D1+*%
%TO.N,/SOM240_1(1.5)/ethernet1/PHY_MDI0_P*%
X84044000Y-68453000D03*
%TO.P,T1,3,D1-*%
%TO.N,/SOM240_1(1.5)/ethernet1/PHY_MDI0_N*%
X86584000Y-69723000D03*
%TO.P,T1,4,D2+*%
%TO.N,/SOM240_1(1.5)/ethernet1/PHY_MDI1_P*%
X84044000Y-70993000D03*
%TO.P,T1,5,D2-*%
%TO.N,/SOM240_1(1.5)/ethernet1/PHY_MDI1_N*%
X86584000Y-72263000D03*
%TO.P,T1,6,D3+*%
%TO.N,/SOM240_1(1.5)/ethernet1/PHY_MDI2_P*%
X84044000Y-73533000D03*
%TO.P,T1,7,D3-*%
%TO.N,/SOM240_1(1.5)/ethernet1/PHY_MDI2_N*%
X86584000Y-74803000D03*
%TO.P,T1,8,D4+*%
%TO.N,/SOM240_1(1.5)/ethernet1/PHY_MDI3_P*%
X84044000Y-76073000D03*
%TO.P,T1,9,D4-*%
%TO.N,/SOM240_1(1.5)/ethernet1/PHY_MDI3_N*%
X86584000Y-77343000D03*
%TO.P,T1,10,GND*%
%TO.N,GND*%
X84044000Y-78613000D03*
D13*
%TO.P,T1,11*%
%TO.N,Net-(R74-Pad1)*%
X73614000Y-66268000D03*
%TO.P,T1,12*%
%TO.N,Net-(R114-Pad1)*%
X73614000Y-68808000D03*
%TO.P,T1,13*%
%TO.N,Net-(R76-Pad1)*%
X73614000Y-76988000D03*
%TO.P,T1,14*%
%TO.N,Net-(R115-Pad1)*%
X73614000Y-79528000D03*
D14*
%TO.P,T1,S1,SHIELD1*%
%TO.N,Net-(T1-SHIELD1)*%
X80744000Y-65153000D03*
%TO.P,T1,S2,SHIELD2*%
X80744000Y-80643000D03*
%TD*%
D10*
%TO.P,TP33,1,1*%
%TO.N,Net-(J10B-PWRGD_PL_M2C)*%
X174400000Y-107400000D03*
%TD*%
%TO.P,TP2,1,1*%
%TO.N,3V3_DUT*%
X192278000Y-142494000D03*
%TD*%
%TO.P,TP28,1,1*%
%TO.N,READBIAS2*%
X247800000Y-39900000D03*
%TD*%
D15*
%TO.P,J7,1,1*%
%TO.N,VDD_BUCK_5V*%
X162774899Y-72602400D03*
%TO.P,J7,2,2*%
%TO.N,GND*%
X162774899Y-80102400D03*
%TD*%
D10*
%TO.P,TP31,1,1*%
%TO.N,Net-(J10B-PWRGD_FPD_M2C)*%
X174400000Y-102200000D03*
%TD*%
%TO.P,TP32,1,1*%
%TO.N,Net-(J10B-PWRGD_LPD_M2C)*%
X174400000Y-104800000D03*
%TD*%
%TO.P,TP8,1,1*%
%TO.N,1V2_DUT*%
X228900000Y-164100000D03*
%TD*%
%TO.P,TP15,1,1*%
%TO.N,Net-(U15-SDO)*%
X179600000Y-118400000D03*
%TD*%
D16*
%TO.P,J12,1,1*%
%TO.N,GND*%
X68834000Y-48799999D03*
%TO.P,J12,2,2*%
%TO.N,1V8_Banks*%
X70834001Y-48799999D03*
%TO.P,J12,3,3*%
%TO.N,GND*%
X68834000Y-50800000D03*
%TO.P,J12,4,4*%
%TO.N,/SOM240_1(1.5)/JTAG_TMS*%
X70834001Y-50800000D03*
%TO.P,J12,5,5*%
%TO.N,GND*%
X68834000Y-52799999D03*
%TO.P,J12,6,6*%
%TO.N,/SOM240_1(1.5)/JTAG_CLK*%
X70834001Y-52799999D03*
%TO.P,J12,7,7*%
%TO.N,GND*%
X68834000Y-54800000D03*
%TO.P,J12,8,8*%
%TO.N,/SOM240_1(1.5)/JTAG_TDO*%
X70834001Y-54800000D03*
%TO.P,J12,9,9*%
%TO.N,GND*%
X68834000Y-56800001D03*
%TO.P,J12,10,10*%
%TO.N,/SOM240_1(1.5)/JTAG_TDI*%
X70834001Y-56800001D03*
%TO.P,J12,11,11*%
%TO.N,GND*%
X68834000Y-58799999D03*
%TO.P,J12,12,12*%
%TO.N,unconnected-(J12-Pad12)*%
X70834001Y-58799999D03*
%TO.P,J12,13,13*%
%TO.N,GND*%
X68834000Y-60800001D03*
%TO.P,J12,14,14*%
%TO.N,unconnected-(J12-Pad14)*%
X70834001Y-60800001D03*
%TD*%
D10*
%TO.P,TP4,1,1*%
%TO.N,2V5_DUT*%
X170688000Y-142494000D03*
%TD*%
%TO.P,TP17,1,1*%
%TO.N,VDD_BUCK_2V7*%
X255100000Y-152200000D03*
%TD*%
%TO.P,TP6,1,1*%
%TO.N,1V8_DUT*%
X216000000Y-164300000D03*
%TD*%
%TO.P,TP23,1,1*%
%TO.N,GND*%
X86106000Y-146664000D03*
%TD*%
%TO.P,TP13,1,1*%
%TO.N,GND*%
X212500000Y-164300000D03*
%TD*%
%TO.P,TP1,1,1*%
%TO.N,GND*%
X192278000Y-145034000D03*
%TD*%
%TO.P,TP16,1,1*%
%TO.N,VDD_BUCK_5V*%
X144300000Y-152600000D03*
%TD*%
%TO.P,TP7,1,1*%
%TO.N,GND*%
X237600000Y-163900000D03*
%TD*%
%TO.P,TP11,1,1*%
%TO.N,/SOM240_1(1.5)/SHUTDOWN*%
X147320000Y-105537000D03*
%TD*%
%TO.P,TP30,1,1*%
%TO.N,Net-(J10A-PWROFF_C2M_L)*%
X182000000Y-104700000D03*
%TD*%
%TO.P,TP19,1,1*%
%TO.N,Net-(U2-SDO)*%
X219202000Y-51054000D03*
%TD*%
%TO.P,TP27,1,1*%
%TO.N,READBIAS1*%
X245200000Y-39900000D03*
%TD*%
%TO.P,TP22,1,1*%
%TO.N,3V3_IO*%
X123190000Y-154432000D03*
%TD*%
%TO.P,TP10,1,1*%
%TO.N,1V8_ADC*%
X241500000Y-163900000D03*
%TD*%
%TO.P,TP20,1,1*%
%TO.N,Net-(U4-SDO)*%
X229500000Y-41000000D03*
%TD*%
%TO.P,TP14,1,1*%
%TO.N,1V8_Banks*%
X203500000Y-164100000D03*
%TD*%
%TO.P,TP29,1,1*%
%TO.N,Net-(J10A-PS_ERROR_STATUS_M2C)*%
X182000000Y-102100000D03*
%TD*%
%TO.P,TP25,1,1*%
%TO.N,DISCBIAS*%
X242700000Y-39900000D03*
%TD*%
%TO.P,TP5,1,1*%
%TO.N,GND*%
X224500000Y-164100000D03*
%TD*%
%TO.P,TP24,1,1*%
%TO.N,2V5_IO*%
X86106000Y-150114000D03*
%TD*%
%TO.P,TP18,1,1*%
%TO.N,Disc_Thresh1*%
X208200000Y-40200000D03*
%TD*%
%TO.P,TP9,1,1*%
%TO.N,GND*%
X250400000Y-163900000D03*
%TD*%
%TO.P,TP12,1,1*%
%TO.N,Net-(J10A-PS_ERROR_OUT_M2C)*%
X182000000Y-99500000D03*
%TD*%
D11*
%TO.P,U5,1,+VOUT*%
%TO.N,VDD_BUCK_5V*%
X133320000Y-159900000D03*
%TO.P,U5,2,TRIM*%
%TO.N,Net-(U5-TRIM)*%
X135860000Y-159900000D03*
%TO.P,U5,3,GND_COMMON*%
%TO.N,GND*%
X138400000Y-159900000D03*
%TO.P,U5,4,+VIN*%
%TO.N,/power2/power*%
X151100000Y-159900000D03*
%TO.P,U5,5,REMOTE_ON/OFF*%
%TO.N,unconnected-(U5-REMOTE_ON{slash}OFF-Pad5)*%
X153640000Y-159900000D03*
%TD*%
D10*
%TO.P,TP26,1,1*%
%TO.N,WBUFBIAS*%
X240200000Y-39900000D03*
%TD*%
D17*
%TO.P,J1,1,1*%
%TO.N,/power2/power*%
X162650000Y-157522500D03*
D18*
%TO.P,J1,2,2*%
%TO.N,GND*%
X170150000Y-157522500D03*
%TD*%
D10*
%TO.P,TP3,1,1*%
%TO.N,GND*%
X170688000Y-145034000D03*
%TD*%
D19*
%TO.P,C5,1*%
%TO.N,Net-(C5-Pad1)*%
X73114750Y-137884750D03*
%TO.P,C5,2*%
%TO.N,GND*%
X73114750Y-139434750D03*
%TD*%
D20*
%TO.P,R5,1*%
%TO.N,Net-(J10B-MIO64)*%
X112776000Y-73152000D03*
%TO.P,R5,2*%
%TO.N,/SOM240_1(1.5)/ETH_TXD0*%
X111126000Y-73152000D03*
%TD*%
%TO.P,R1,1*%
%TO.N,Net-(J10B-MIO52)*%
X116015000Y-77724000D03*
%TO.P,R1,2*%
%TO.N,/SOM240_1(1.5)/ETH_TX_CTRL*%
X114365000Y-77724000D03*
%TD*%
D21*
%TO.P,R84,1*%
%TO.N,GND*%
X90361000Y-76708000D03*
%TO.P,R84,2*%
%TO.N,Net-(U1-CONFIG)*%
X92011000Y-76708000D03*
%TD*%
D22*
%TO.P,C71,1*%
%TO.N,1V8_Banks*%
X141973000Y-60960000D03*
%TO.P,C71,2*%
%TO.N,GND*%
X143523000Y-60960000D03*
%TD*%
D23*
%TO.P,R75,1*%
%TO.N,GND*%
X125730000Y-53785000D03*
%TO.P,R75,2*%
%TO.N,/SOM240_1(1.5)/MODE0*%
X125730000Y-55435000D03*
%TD*%
D24*
%TO.P,C99,1*%
%TO.N,1V8_ADC*%
X230391000Y-77724000D03*
%TO.P,C99,2*%
%TO.N,GND*%
X228841000Y-77724000D03*
%TD*%
D22*
%TO.P,C117,1*%
%TO.N,Net-(ADC1-VREF)*%
X237223000Y-72009000D03*
%TO.P,C117,2*%
%TO.N,GND*%
X238773000Y-72009000D03*
%TD*%
D25*
%TO.P,C83,1*%
%TO.N,1V8_Banks*%
X113300000Y-122675000D03*
%TO.P,C83,2*%
%TO.N,GND*%
X113300000Y-121125000D03*
%TD*%
D26*
%TO.P,U8,1,VDD*%
%TO.N,3V3_IO*%
X250558300Y-48387000D03*
%TO.P,U8,2,GND*%
%TO.N,GND*%
X250558300Y-49657000D03*
%TO.P,U8,3,\u002ASHDN*%
%TO.N,3V3_IO*%
X250558300Y-50927000D03*
%TO.P,U8,4,GND*%
%TO.N,GND*%
X250558300Y-52197000D03*
%TO.P,U8,5,GND*%
X245249700Y-52197000D03*
%TO.P,U8,6,GND*%
X245249700Y-50927000D03*
%TO.P,U8,7,OUT*%
%TO.N,Net-(U4-REF)*%
X245249700Y-49657000D03*
%TO.P,U8,8,FEEDBACK*%
X245249700Y-48387000D03*
%TD*%
D19*
%TO.P,C60,1*%
%TO.N,2V5_IO*%
X91694000Y-59677000D03*
%TO.P,C60,2*%
%TO.N,GND*%
X91694000Y-61227000D03*
%TD*%
D24*
%TO.P,C32,1*%
%TO.N,Net-(U4-REF)*%
X242837000Y-48514000D03*
%TO.P,C32,2*%
%TO.N,GND*%
X241287000Y-48514000D03*
%TD*%
D20*
%TO.P,R7,1*%
%TO.N,Net-(J10B-MIO66)*%
X112776000Y-76708000D03*
%TO.P,R7,2*%
%TO.N,/SOM240_1(1.5)/ETH_TXD3*%
X111126000Y-76708000D03*
%TD*%
D24*
%TO.P,C101,1*%
%TO.N,1V8_ADC*%
X229375000Y-82804000D03*
%TO.P,C101,2*%
%TO.N,GND*%
X227825000Y-82804000D03*
%TD*%
D27*
%TO.P,U4,1,GND*%
%TO.N,GND*%
X239458500Y-52755800D03*
%TO.P,U4,2,VOUTA*%
%TO.N,DISCBIAS*%
X238823500Y-52755800D03*
%TO.P,U4,3,VOUTB*%
%TO.N,WBUFBIAS*%
X238188500Y-52755800D03*
%TO.P,U4,4,VOUTC*%
%TO.N,READBIAS1*%
X237553500Y-52755800D03*
%TO.P,U4,5,VOUTD*%
%TO.N,READBIAS2*%
X236918500Y-52755800D03*
%TO.P,U4,6,REF*%
%TO.N,Net-(U4-REF)*%
X236283500Y-52755800D03*
%TO.P,U4,7,\u002ACS/LD*%
%TO.N,/SOM240_1(1.5)/CS{slash}LD_DAC2\u002A*%
X235648500Y-52755800D03*
%TO.P,U4,8,SCK*%
%TO.N,/SOM240_1(1.5)/SCK_DAC2*%
X235013500Y-52755800D03*
%TO.P,U4,9,SDI*%
%TO.N,/SOM240_1(1.5)/SDI_DAC_BIAS*%
X235013500Y-47828200D03*
%TO.P,U4,10,SDO*%
%TO.N,Net-(U4-SDO)*%
X235648500Y-47828200D03*
%TO.P,U4,11,\u002ACLR*%
%TO.N,/SOM240_1(1.5)/CLR_DAC\u002A*%
X236283500Y-47828200D03*
%TO.P,U4,12,VOUTE*%
%TO.N,unconnected-(U4-VOUTE-Pad12)*%
X236918500Y-47828200D03*
%TO.P,U4,13,VOUTF*%
%TO.N,unconnected-(U4-VOUTF-Pad13)*%
X237553500Y-47828200D03*
%TO.P,U4,14,VOUTG*%
%TO.N,unconnected-(U4-VOUTG-Pad14)*%
X238188500Y-47828200D03*
%TO.P,U4,15,VOUTH*%
%TO.N,unconnected-(U4-VOUTH-Pad15)*%
X238823500Y-47828200D03*
%TO.P,U4,16,VCC*%
%TO.N,2V5_IO*%
X239458500Y-47828200D03*
%TD*%
D20*
%TO.P,R76,1*%
%TO.N,Net-(R76-Pad1)*%
X71437000Y-76962000D03*
%TO.P,R76,2*%
%TO.N,3V3_IO*%
X69787000Y-76962000D03*
%TD*%
D24*
%TO.P,C155,1*%
%TO.N,Net-(U1-REGCAP2)*%
X100089000Y-67056000D03*
%TO.P,C155,2*%
%TO.N,Net-(U1-REGCAP1)*%
X98539000Y-67056000D03*
%TD*%
D20*
%TO.P,R3,1*%
%TO.N,Net-(J10B-MIO53)*%
X116015000Y-75946000D03*
%TO.P,R3,2*%
%TO.N,/SOM240_1(1.5)/ETH_TXD2*%
X114365000Y-75946000D03*
%TD*%
D23*
%TO.P,R70,1*%
%TO.N,GND*%
X121158000Y-53785000D03*
%TO.P,R70,2*%
%TO.N,/SOM240_1(1.5)/MODE3*%
X121158000Y-55435000D03*
%TD*%
D24*
%TO.P,C53,1*%
%TO.N,/SOM240_1(1.5)/ethernet1/PHY_VCC*%
X86614000Y-65532000D03*
%TO.P,C53,2*%
%TO.N,GND*%
X85064000Y-65532000D03*
%TD*%
D25*
%TO.P,C105,1*%
%TO.N,2V5_IO*%
X219900000Y-115475000D03*
%TO.P,C105,2*%
%TO.N,GND*%
X219900000Y-113925000D03*
%TD*%
%TO.P,C38,1*%
%TO.N,Net-(ADC2-REFB)*%
X215138000Y-71641000D03*
%TO.P,C38,2*%
%TO.N,GND*%
X215138000Y-70091000D03*
%TD*%
D22*
%TO.P,C90,1*%
%TO.N,Net-(U2-REF)*%
X206489000Y-51816000D03*
%TO.P,C90,2*%
%TO.N,GND*%
X208039000Y-51816000D03*
%TD*%
%TO.P,C69,1*%
%TO.N,Net-(U10-CH2)*%
X72898000Y-97282000D03*
%TO.P,C69,2*%
%TO.N,GND*%
X74448000Y-97282000D03*
%TD*%
D19*
%TO.P,C114,1*%
%TO.N,1V8_ADC*%
X214630000Y-78219000D03*
%TO.P,C114,2*%
%TO.N,GND*%
X214630000Y-79769000D03*
%TD*%
D25*
%TO.P,C82,1*%
%TO.N,/SOM240_1(1.5)/SDcard1/SD_CARD_VCC_0*%
X74930000Y-111011000D03*
%TO.P,C82,2*%
%TO.N,GND*%
X74930000Y-109461000D03*
%TD*%
D21*
%TO.P,L5,1,1*%
%TO.N,/SOM240_1(1.5)/ethernet1/PHY_VCC*%
X88088000Y-65532000D03*
%TO.P,L5,2,2*%
%TO.N,3V3_IO*%
X89738000Y-65532000D03*
%TD*%
D22*
%TO.P,C116,1*%
%TO.N,Net-(ADC2-VREF)*%
X216662000Y-71628000D03*
%TO.P,C116,2*%
%TO.N,GND*%
X218212000Y-71628000D03*
%TD*%
D24*
%TO.P,C55,1*%
%TO.N,/SOM240_1(1.5)/ethernet1/PHY_VCC*%
X86614000Y-62484000D03*
%TO.P,C55,2*%
%TO.N,GND*%
X85064000Y-62484000D03*
%TD*%
%TO.P,C29,1*%
%TO.N,3V3_IO*%
X192532300Y-51054000D03*
%TO.P,C29,2*%
%TO.N,GND*%
X190982300Y-51054000D03*
%TD*%
D26*
%TO.P,U13,1,VDD*%
%TO.N,3V3_IO*%
X237254300Y-117295000D03*
%TO.P,U13,2,GND*%
%TO.N,GND*%
X237254300Y-118565000D03*
%TO.P,U13,3,\u002ASHDN*%
%TO.N,3V3_IO*%
X237254300Y-119835000D03*
%TO.P,U13,4,GND*%
%TO.N,GND*%
X237254300Y-121105000D03*
%TO.P,U13,5,GND*%
X231945700Y-121105000D03*
%TO.P,U13,6,GND*%
X231945700Y-119835000D03*
%TO.P,U13,7,OUT*%
%TO.N,Net-(U13-FEEDBACK)*%
X231945700Y-118565000D03*
%TO.P,U13,8,FEEDBACK*%
X231945700Y-117295000D03*
%TD*%
D28*
%TO.P,FB1,1*%
%TO.N,Net-(C5-Pad1)*%
X71082750Y-137959250D03*
%TO.P,FB1,2*%
%TO.N,3V3_IO*%
X71082750Y-140884250D03*
%TD*%
D22*
%TO.P,C78,1*%
%TO.N,Net-(ADC2-VREF)*%
X216662000Y-74676000D03*
%TO.P,C78,2*%
%TO.N,GND*%
X218212000Y-74676000D03*
%TD*%
%TO.P,C43,1*%
%TO.N,/SOM240_1(1.5)/SDcard1/SD_CARD_VCC_1*%
X69329000Y-128778000D03*
%TO.P,C43,2*%
%TO.N,GND*%
X70879000Y-128778000D03*
%TD*%
%TO.P,C30,1*%
%TO.N,Net-(U2-REF)*%
X206489000Y-53340000D03*
%TO.P,C30,2*%
%TO.N,GND*%
X208039000Y-53340000D03*
%TD*%
D29*
%TO.P,Q1,1,D*%
%TO.N,Net-(Q1-D)*%
X66867999Y-136652000D03*
%TO.P,Q1,2,G*%
%TO.N,Net-(Q1-G)*%
X68768001Y-136652000D03*
%TO.P,Q1,3,S*%
%TO.N,GND*%
X67818000Y-138684000D03*
%TD*%
D20*
%TO.P,R110,1*%
%TO.N,Net-(C5-Pad1)*%
X68897000Y-134874000D03*
%TO.P,R110,2*%
%TO.N,Net-(Q1-D)*%
X67247000Y-134874000D03*
%TD*%
D24*
%TO.P,C84,1*%
%TO.N,1V8_Banks*%
X116345000Y-125222000D03*
%TO.P,C84,2*%
%TO.N,GND*%
X114795000Y-125222000D03*
%TD*%
D25*
%TO.P,C37,1*%
%TO.N,Net-(ADC2-REFT)*%
X213614000Y-71641000D03*
%TO.P,C37,2*%
%TO.N,GND*%
X213614000Y-70091000D03*
%TD*%
D24*
%TO.P,C64,1*%
%TO.N,3V3_IO*%
X89688000Y-64008000D03*
%TO.P,C64,2*%
%TO.N,GND*%
X88138000Y-64008000D03*
%TD*%
D22*
%TO.P,C75,1*%
%TO.N,Net-(ADC1-VREF)*%
X237223000Y-73533000D03*
%TO.P,C75,2*%
%TO.N,GND*%
X238773000Y-73533000D03*
%TD*%
D24*
%TO.P,C89,1*%
%TO.N,Net-(U4-REF)*%
X242837000Y-50038000D03*
%TO.P,C89,2*%
%TO.N,GND*%
X241287000Y-50038000D03*
%TD*%
D22*
%TO.P,C36,1*%
%TO.N,Net-(ADC1-REFT)*%
X234175000Y-75057000D03*
%TO.P,C36,2*%
%TO.N,Net-(ADC1-REFB)*%
X235725000Y-75057000D03*
%TD*%
D20*
%TO.P,R112,1*%
%TO.N,/SOM240_1(1.5)/ethernet1/ETH_LED0*%
X92265000Y-79756000D03*
%TO.P,R112,2*%
%TO.N,Net-(Q8-G)*%
X90615000Y-79756000D03*
%TD*%
D22*
%TO.P,C107,1*%
%TO.N,Net-(U10-CH1)*%
X72898000Y-95758000D03*
%TO.P,C107,2*%
%TO.N,GND*%
X74448000Y-95758000D03*
%TD*%
D24*
%TO.P,C86,1*%
%TO.N,1V8_Banks*%
X113043000Y-125222000D03*
%TO.P,C86,2*%
%TO.N,GND*%
X111493000Y-125222000D03*
%TD*%
D20*
%TO.P,R85,1*%
%TO.N,1V8_Banks*%
X71945000Y-135636000D03*
%TO.P,R85,2*%
%TO.N,Net-(Q1-G)*%
X70295000Y-135636000D03*
%TD*%
D23*
%TO.P,R114,1*%
%TO.N,Net-(R114-Pad1)*%
X73660000Y-70803000D03*
%TO.P,R114,2*%
%TO.N,Net-(Q8-D)*%
X73660000Y-72453000D03*
%TD*%
D30*
%TO.P,U6,1,D*%
%TO.N,/SOM240_1(1.5)/SDcard1/SD_CARD_VCC_1*%
X68300600Y-131501007D03*
X68300600Y-132150993D03*
D31*
X69342000Y-131826000D03*
D30*
X70383400Y-131501007D03*
X70383400Y-132150993D03*
%TO.P,U6,3,G*%
%TO.N,Net-(Q1-D)*%
X68300600Y-132800979D03*
%TO.P,U6,4,S*%
%TO.N,Net-(C5-Pad1)*%
X70383400Y-132800979D03*
D32*
%TO.P,U6,7,S*%
X69342000Y-132814993D03*
%TD*%
D24*
%TO.P,C100,1*%
%TO.N,1V8_ADC*%
X230137000Y-80518000D03*
%TO.P,C100,2*%
%TO.N,GND*%
X228587000Y-80518000D03*
%TD*%
%TO.P,C112,1*%
%TO.N,1V8_ADC*%
X211087000Y-77978000D03*
%TO.P,C112,2*%
%TO.N,GND*%
X209537000Y-77978000D03*
%TD*%
D27*
%TO.P,U2,1,GND*%
%TO.N,GND*%
X210312000Y-47828200D03*
%TO.P,U2,2,VOUTA*%
%TO.N,Disc_Thresh1*%
X210947000Y-47828200D03*
%TO.P,U2,3,VOUTB*%
%TO.N,Disc_Thresh2*%
X211582000Y-47828200D03*
%TO.P,U2,4,VOUTC*%
%TO.N,Disc_Thresh3*%
X212217000Y-47828200D03*
%TO.P,U2,5,VOUTD*%
%TO.N,Disc_Thresh4*%
X212852000Y-47828200D03*
%TO.P,U2,6,REF*%
%TO.N,Net-(U2-REF)*%
X213487000Y-47828200D03*
%TO.P,U2,7,\u002ACS/LD*%
%TO.N,/SOM240_1(1.5)/CS{slash}LD_DAC1\u002A*%
X214122000Y-47828200D03*
%TO.P,U2,8,SCK*%
%TO.N,/SOM240_1(1.5)/SCK_DAC1*%
X214757000Y-47828200D03*
%TO.P,U2,9,SDI*%
%TO.N,/SOM240_1(1.5)/SDI_DAC_THRES*%
X214757000Y-52755800D03*
%TO.P,U2,10,SDO*%
%TO.N,Net-(U2-SDO)*%
X214122000Y-52755800D03*
%TO.P,U2,11,\u002ACLR*%
%TO.N,/SOM240_1(1.5)/CLR_DAC\u002A*%
X213487000Y-52755800D03*
%TO.P,U2,12,VOUTE*%
%TO.N,Disc_Thresh5*%
X212852000Y-52755800D03*
%TO.P,U2,13,VOUTF*%
%TO.N,Disc_Thresh6*%
X212217000Y-52755800D03*
%TO.P,U2,14,VOUTG*%
%TO.N,Disc_Thresh7*%
X211582000Y-52755800D03*
%TO.P,U2,15,VOUTH*%
%TO.N,Disc_Thresh8*%
X210947000Y-52755800D03*
%TO.P,U2,16,VCC*%
%TO.N,2V5_IO*%
X210312000Y-52755800D03*
%TD*%
D23*
%TO.P,R73,1*%
%TO.N,GND*%
X124206000Y-53785000D03*
%TO.P,R73,2*%
%TO.N,/SOM240_1(1.5)/MODE1*%
X124206000Y-55435000D03*
%TD*%
D24*
%TO.P,C56,1*%
%TO.N,/SOM240_1(1.5)/ethernet1/PHY_VCC*%
X86614000Y-60960000D03*
%TO.P,C56,2*%
%TO.N,GND*%
X85064000Y-60960000D03*
%TD*%
D22*
%TO.P,C57,1*%
%TO.N,Net-(T1-SHIELD1)*%
X80238000Y-71628000D03*
%TO.P,C57,2*%
%TO.N,GND*%
X81788000Y-71628000D03*
%TD*%
D19*
%TO.P,C41,1*%
%TO.N,1V8_ADC*%
X234696000Y-78727000D03*
%TO.P,C41,2*%
%TO.N,GND*%
X234696000Y-80277000D03*
%TD*%
D25*
%TO.P,C103,1*%
%TO.N,Net-(U13-FEEDBACK)*%
X230200000Y-117900000D03*
%TO.P,C103,2*%
%TO.N,GND*%
X230200000Y-116350000D03*
%TD*%
D22*
%TO.P,C35,1*%
%TO.N,Net-(ADC1-REFT)*%
X234175000Y-73533000D03*
%TO.P,C35,2*%
%TO.N,Net-(ADC1-REFB)*%
X235725000Y-73533000D03*
%TD*%
D24*
%TO.P,C85,1*%
%TO.N,2V5_IO*%
X102629000Y-125222000D03*
%TO.P,C85,2*%
%TO.N,GND*%
X101079000Y-125222000D03*
%TD*%
%TO.P,C102,1*%
%TO.N,3V3_IO*%
X241075000Y-121100000D03*
%TO.P,C102,2*%
%TO.N,GND*%
X239525000Y-121100000D03*
%TD*%
%TO.P,C87,1*%
%TO.N,1V8_Banks*%
X114821000Y-128270000D03*
%TO.P,C87,2*%
%TO.N,GND*%
X113271000Y-128270000D03*
%TD*%
D23*
%TO.P,R57,1*%
%TO.N,Net-(ADC1-RBIAS)*%
X237490000Y-78931000D03*
%TO.P,R57,2*%
%TO.N,GND*%
X237490000Y-80581000D03*
%TD*%
%TO.P,R115,1*%
%TO.N,Net-(R115-Pad1)*%
X73660000Y-81471000D03*
%TO.P,R115,2*%
%TO.N,Net-(Q6-D)*%
X73660000Y-83121000D03*
%TD*%
D24*
%TO.P,C88,1*%
%TO.N,1V8_Banks*%
X102375000Y-127508000D03*
%TO.P,C88,2*%
%TO.N,GND*%
X100825000Y-127508000D03*
%TD*%
D22*
%TO.P,C40,1*%
%TO.N,Net-(ADC2-REFT)*%
X213601000Y-74676000D03*
%TO.P,C40,2*%
%TO.N,Net-(ADC2-REFB)*%
X215151000Y-74676000D03*
%TD*%
D33*
%TO.P,R74,1*%
%TO.N,Net-(R74-Pad1)*%
X74676000Y-64325000D03*
%TO.P,R74,2*%
%TO.N,3V3_IO*%
X74676000Y-62675000D03*
%TD*%
D21*
%TO.P,R113,1*%
%TO.N,/SOM240_1(1.5)/ethernet1/ETH_LED1*%
X95187000Y-79756000D03*
%TO.P,R113,2*%
%TO.N,Net-(Q6-G)*%
X96837000Y-79756000D03*
%TD*%
D22*
%TO.P,C113,1*%
%TO.N,1V8_ADC*%
X221729000Y-78232000D03*
%TO.P,C113,2*%
%TO.N,GND*%
X223279000Y-78232000D03*
%TD*%
D24*
%TO.P,C70,1*%
%TO.N,2V5_IO*%
X133617000Y-56388000D03*
%TO.P,C70,2*%
%TO.N,GND*%
X132067000Y-56388000D03*
%TD*%
D25*
%TO.P,C104,1*%
%TO.N,Net-(U13-FEEDBACK)*%
X228700000Y-117900000D03*
%TO.P,C104,2*%
%TO.N,GND*%
X228700000Y-116350000D03*
%TD*%
D22*
%TO.P,C24,1*%
%TO.N,1V8_ADC*%
X241033000Y-79248000D03*
%TO.P,C24,2*%
%TO.N,GND*%
X242583000Y-79248000D03*
%TD*%
D23*
%TO.P,R111,1*%
%TO.N,Net-(Q1-D)*%
X66294000Y-139383000D03*
%TO.P,R111,2*%
%TO.N,GND*%
X66294000Y-141033000D03*
%TD*%
D34*
%TO.P,U10,1,CH1*%
%TO.N,Net-(U10-CH1)*%
X66196100Y-95999999D03*
%TO.P,U10,2,CH2*%
%TO.N,Net-(U10-CH2)*%
X66196100Y-96500001D03*
%TO.P,U10,3,GND*%
%TO.N,GND*%
X66196100Y-97000000D03*
%TO.P,U10,4,CH3*%
%TO.N,unconnected-(U10-CH3-Pad4)*%
X66196100Y-97499999D03*
%TO.P,U10,5,CH4*%
%TO.N,unconnected-(U10-CH4-Pad5)*%
X66196100Y-98000001D03*
%TO.P,U10,6,N.C.*%
%TO.N,unconnected-(U10-N.C.-Pad6)*%
X65205500Y-98000001D03*
%TO.P,U10,7,N.C.*%
%TO.N,unconnected-(U10-N.C.-Pad7)*%
X65205500Y-97499999D03*
%TO.P,U10,8,GND*%
%TO.N,GND*%
X65205500Y-97000000D03*
%TO.P,U10,9,N.C.*%
%TO.N,unconnected-(U10-N.C.-Pad9)*%
X65205500Y-96500001D03*
%TO.P,U10,10,N.C.*%
%TO.N,unconnected-(U10-N.C.-Pad10)*%
X65205500Y-95999999D03*
%TD*%
D22*
%TO.P,C79,1*%
%TO.N,Net-(ADC2-VREF)*%
X216662000Y-73152000D03*
%TO.P,C79,2*%
%TO.N,GND*%
X218212000Y-73152000D03*
%TD*%
%TO.P,C108,1*%
%TO.N,/SOM240_1(1.5)/SDcard1/SD_CARD_VCC_1*%
X69329000Y-127254000D03*
%TO.P,C108,2*%
%TO.N,GND*%
X70879000Y-127254000D03*
%TD*%
D23*
%TO.P,R56,1*%
%TO.N,Net-(ADC2-RBIAS)*%
X217424000Y-78423000D03*
%TO.P,R56,2*%
%TO.N,GND*%
X217424000Y-80073000D03*
%TD*%
D22*
%TO.P,C73,1*%
%TO.N,Net-(ADC1-VREF)*%
X237223000Y-75057000D03*
%TO.P,C73,2*%
%TO.N,GND*%
X238773000Y-75057000D03*
%TD*%
%TO.P,C91,1*%
%TO.N,2V5_IO*%
X240525000Y-45466000D03*
%TO.P,C91,2*%
%TO.N,GND*%
X242075000Y-45466000D03*
%TD*%
D20*
%TO.P,R6,1*%
%TO.N,Net-(J10B-MIO65)*%
X112776000Y-74930000D03*
%TO.P,R6,2*%
%TO.N,/SOM240_1(1.5)/ETH_TX_CLK*%
X111126000Y-74930000D03*
%TD*%
D25*
%TO.P,C33,1*%
%TO.N,Net-(ADC1-REFT)*%
X234188000Y-72022000D03*
%TO.P,C33,2*%
%TO.N,GND*%
X234188000Y-70472000D03*
%TD*%
D35*
%TO.P,U17,1,DAT2A*%
%TO.N,/SOM240_1(1.5)/SD_DAT2*%
X84348000Y-115398400D03*
%TO.P,U17,2,GND*%
%TO.N,GND*%
X84847999Y-115398400D03*
%TO.P,U17,3,DAT3A*%
%TO.N,/SOM240_1(1.5)/SD_DAT3*%
X85348000Y-115398400D03*
%TO.P,U17,4,CMDA*%
%TO.N,/SOM240_1(1.5)/SD_CMD*%
X85848000Y-115398400D03*
%TO.P,U17,5,VCCA*%
%TO.N,1V8_Banks*%
X86348001Y-115398400D03*
%TO.P,U17,6,DAT0A*%
%TO.N,/SOM240_1(1.5)/SD_DAT0*%
X86848000Y-115398400D03*
D36*
%TO.P,U17,7,DAT1A*%
%TO.N,/SOM240_1(1.5)/SD_DAT1*%
X87573000Y-116123085D03*
%TO.P,U17,8,DAT2B1*%
%TO.N,/SOM240_1(1.5)/SDcard1/DAT2B_1*%
X87573000Y-116623211D03*
%TO.P,U17,9,CLKA*%
%TO.N,/SOM240_1(1.5)/SD_CLK*%
X87573000Y-117123337D03*
%TO.P,U17,10,DAT3B1*%
%TO.N,/SOM240_1(1.5)/SDcard1/DAT3B_1*%
X87573000Y-117623463D03*
%TO.P,U17,11,GND*%
%TO.N,GND*%
X87573000Y-118123589D03*
%TO.P,U17,12,CMDB1*%
%TO.N,/SOM240_1(1.5)/SDcard1/CMDB_1*%
X87573000Y-118623715D03*
D35*
%TO.P,U17,13,CLKB1*%
%TO.N,/SOM240_1(1.5)/SDcard1/CLKB_1*%
X86848000Y-119348400D03*
%TO.P,U17,14,DAT0B1*%
%TO.N,/SOM240_1(1.5)/SDcard1/DAT0B_1*%
X86348001Y-119348400D03*
%TO.P,U17,15,DAT1B1*%
%TO.N,/SOM240_1(1.5)/SDcard1/DAT1B_1*%
X85848000Y-119348400D03*
%TO.P,U17,16,DATB0*%
%TO.N,/SOM240_1(1.5)/SDcard1/DAT1B_0*%
X85348000Y-119348400D03*
%TO.P,U17,17,VCCB1*%
%TO.N,3V3_IO*%
X84847999Y-119348400D03*
%TO.P,U17,18,DAT0B0*%
%TO.N,/SOM240_1(1.5)/SDcard1/DAT0B_0*%
X84348000Y-119348400D03*
D36*
%TO.P,U17,19,CLKB0*%
%TO.N,/SOM240_1(1.5)/SDcard1/CLKB_0*%
X83623000Y-118623715D03*
%TO.P,U17,20,CMDB0*%
%TO.N,/SOM240_1(1.5)/SDcard1/CMDB_0*%
X83623000Y-118123589D03*
%TO.P,U17,21,VCCB0*%
%TO.N,3V3_IO*%
X83623000Y-117623463D03*
%TO.P,U17,22,DAT3B0*%
%TO.N,/SOM240_1(1.5)/SDcard1/DAT3B_0*%
X83623000Y-117123337D03*
%TO.P,U17,23,DAT2B0*%
%TO.N,/SOM240_1(1.5)/SDcard1/DAT2B_0*%
X83623000Y-116623211D03*
%TO.P,U17,24,SEL*%
%TO.N,Net-(JP1-C)*%
X83623000Y-116123085D03*
D37*
%TO.P,U17,25,EPAD*%
%TO.N,GND*%
X85598000Y-117373400D03*
%TD*%
D25*
%TO.P,C95,1*%
%TO.N,/SOM240_1(1.5)/SDcard1/SD_CARD_VCC_0*%
X73406000Y-111011000D03*
%TO.P,C95,2*%
%TO.N,GND*%
X73406000Y-109461000D03*
%TD*%
D38*
%TO.P,U15,1,GND*%
%TO.N,GND*%
X226999800Y-115887500D03*
%TO.P,U15,2,VOUTA*%
%TO.N,V_ped1*%
X226999800Y-116522500D03*
%TO.P,U15,3,VOUTB*%
%TO.N,V_ped2*%
X226999800Y-117157500D03*
%TO.P,U15,4,VOUTC*%
%TO.N,V_ped3*%
X226999800Y-117792500D03*
%TO.P,U15,5,VOUTD*%
%TO.N,V_ped4*%
X226999800Y-118427500D03*
%TO.P,U15,6,REF*%
%TO.N,Net-(U13-FEEDBACK)*%
X226999800Y-119062500D03*
%TO.P,U15,7,\u002ACS/LD*%
%TO.N,/SOM240_2(1.5)/CS{slash}LD_DAC_ped\u002A*%
X226999800Y-119697500D03*
%TO.P,U15,8,SCK*%
%TO.N,/SOM240_2(1.5)/SCK_DAC_ped*%
X226999800Y-120332500D03*
%TO.P,U15,9,SDI*%
%TO.N,/SOM240_2(1.5)/SDI_DAC_ped*%
X222072200Y-120332500D03*
%TO.P,U15,10,SDO*%
%TO.N,Net-(U15-SDO)*%
X222072200Y-119697500D03*
%TO.P,U15,11,\u002ACLR*%
%TO.N,/SOM240_2(1.5)/CLR_DAC\u002A_ped*%
X222072200Y-119062500D03*
%TO.P,U15,12,VOUTE*%
%TO.N,V_ped5*%
X222072200Y-118427500D03*
%TO.P,U15,13,VOUTF*%
%TO.N,V_ped6*%
X222072200Y-117792500D03*
%TO.P,U15,14,VOUTG*%
%TO.N,V_ped7*%
X222072200Y-117157500D03*
%TO.P,U15,15,VOUTH*%
%TO.N,V_ped8*%
X222072200Y-116522500D03*
%TO.P,U15,16,VCC*%
%TO.N,2V5_IO*%
X222072200Y-115887500D03*
%TD*%
D34*
%TO.P,U3,1,CH1*%
%TO.N,/SOM240_1(1.5)/JTAG_TMS*%
X77965300Y-50561999D03*
%TO.P,U3,2,CH2*%
%TO.N,/SOM240_1(1.5)/JTAG_CLK*%
X77965300Y-51062001D03*
%TO.P,U3,3,GND*%
%TO.N,GND*%
X77965300Y-51562000D03*
%TO.P,U3,4,CH3*%
%TO.N,/SOM240_1(1.5)/JTAG_TDO*%
X77965300Y-52061999D03*
%TO.P,U3,5,CH4*%
%TO.N,/SOM240_1(1.5)/JTAG_TDI*%
X77965300Y-52562001D03*
%TO.P,U3,6,N.C.*%
%TO.N,unconnected-(U3-N.C.-Pad6)*%
X76974700Y-52562001D03*
%TO.P,U3,7,N.C.*%
%TO.N,unconnected-(U3-N.C.-Pad7)*%
X76974700Y-52061999D03*
%TO.P,U3,8,GND*%
%TO.N,GND*%
X76974700Y-51562000D03*
%TO.P,U3,9,N.C.*%
%TO.N,unconnected-(U3-N.C.-Pad9)*%
X76974700Y-51062001D03*
%TO.P,U3,10,N.C.*%
%TO.N,unconnected-(U3-N.C.-Pad10)*%
X76974700Y-50561999D03*
%TD*%
D20*
%TO.P,R4,1*%
%TO.N,Net-(J10B-MIO54)*%
X116015000Y-74168000D03*
%TO.P,R4,2*%
%TO.N,/SOM240_1(1.5)/ETH_TXD1*%
X114365000Y-74168000D03*
%TD*%
D25*
%TO.P,C34,1*%
%TO.N,Net-(ADC1-REFB)*%
X235712000Y-72035000D03*
%TO.P,C34,2*%
%TO.N,GND*%
X235712000Y-70485000D03*
%TD*%
%TO.P,R108,1*%
%TO.N,/SOM240_2(1.5)/CLR_DAC\u002A_ped*%
X216408000Y-116775000D03*
%TO.P,R108,2*%
%TO.N,2V5_IO*%
X216408000Y-115225000D03*
%TD*%
D24*
%TO.P,C54,1*%
%TO.N,/SOM240_1(1.5)/ethernet1/PHY_VCC*%
X86614000Y-64008000D03*
%TO.P,C54,2*%
%TO.N,GND*%
X85064000Y-64008000D03*
%TD*%
D26*
%TO.P,U7,1,VDD*%
%TO.N,3V3_IO*%
X198247000Y-52451000D03*
%TO.P,U7,2,GND*%
%TO.N,GND*%
X198247000Y-51181000D03*
%TO.P,U7,3,\u002ASHDN*%
%TO.N,3V3_IO*%
X198247000Y-49911000D03*
%TO.P,U7,4,GND*%
%TO.N,GND*%
X198247000Y-48641000D03*
%TO.P,U7,5,GND*%
X203555600Y-48641000D03*
%TO.P,U7,6,GND*%
X203555600Y-49911000D03*
%TO.P,U7,7,OUT*%
%TO.N,Net-(U2-REF)*%
X203555600Y-51181000D03*
%TO.P,U7,8,FEEDBACK*%
X203555600Y-52451000D03*
%TD*%
D39*
%TO.P,U14,1,D*%
%TO.N,/SOM240_1(1.5)/SDcard1/SD_CARD_VCC_0*%
X77328014Y-112039400D03*
X77978000Y-112039400D03*
D40*
X77653007Y-110998000D03*
D39*
X77328014Y-109956600D03*
X77978000Y-109956600D03*
%TO.P,U14,3,G*%
%TO.N,Net-(Q4-D)*%
X78627986Y-112039400D03*
%TO.P,U14,4,S*%
%TO.N,Net-(C94-Pad1)*%
X78627986Y-109956600D03*
D41*
%TO.P,U14,7,S*%
X78642000Y-110998000D03*
%TD*%
D42*
%TO.P,Y3,1,TRI-STATE*%
%TO.N,2V5_IO*%
X94200000Y-62167000D03*
%TO.P,Y3,2,GND/CASE*%
%TO.N,GND*%
X96300000Y-62167000D03*
%TO.P,Y3,3,OUTPUT*%
%TO.N,/SOM240_1(1.5)/ethernet1/OSC25_OUT*%
X96300000Y-63817000D03*
%TO.P,Y3,4,VDD*%
%TO.N,2V5_IO*%
X94200000Y-63817000D03*
%TD*%
D43*
%TO.P,U1,1,S_INP*%
%TO.N,unconnected-(U1-S_INP-Pad1)*%
X100786001Y-77304900D03*
%TO.P,U1,2,S_INN*%
%TO.N,unconnected-(U1-S_INN-Pad2)*%
X100286000Y-77304900D03*
%TO.P,U1,3,AVDD18*%
%TO.N,/SOM240_1(1.5)/ethernet1/AVDD18*%
X99786001Y-77304900D03*
%TO.P,U1,4,S_OUTP*%
%TO.N,unconnected-(U1-S_OUTP-Pad4)*%
X99285999Y-77304900D03*
%TO.P,U1,5,S_OUTN*%
%TO.N,unconnected-(U1-S_OUTN-Pad5)*%
X98786000Y-77304900D03*
%TO.P,U1,6,DVDD*%
%TO.N,/SOM240_1(1.5)/ethernet1/DVDD*%
X98286001Y-77304900D03*
%TO.P,U1,7,MDC*%
%TO.N,/SOM240_1(1.5)/ETH_MDC*%
X97786000Y-77304900D03*
%TO.P,U1,8,MDIO*%
%TO.N,/SOM240_1(1.5)/ETH_MDIO*%
X97286000Y-77304900D03*
%TO.P,U1,9,CLK125*%
%TO.N,unconnected-(U1-CLK125-Pad9)*%
X96785999Y-77304900D03*
%TO.P,U1,10,VDDO_SEL*%
%TO.N,3V3_IO*%
X96286000Y-77304900D03*
%TO.P,U1,11,VDDO*%
X95786001Y-77304900D03*
%TO.P,U1,12,LED[2]/INTn*%
%TO.N,unconnected-(U1-LED[2]{slash}INTn-Pad12)*%
X95285999Y-77304900D03*
%TO.P,U1,13,LED[1]*%
%TO.N,/SOM240_1(1.5)/ethernet1/ETH_LED1*%
X94786000Y-77304900D03*
%TO.P,U1,14,LED[0]*%
%TO.N,/SOM240_1(1.5)/ethernet1/ETH_LED0*%
X94285999Y-77304900D03*
D44*
%TO.P,U1,15,CONFIG*%
%TO.N,Net-(U1-CONFIG)*%
X93637100Y-76656001D03*
%TO.P,U1,16,RESETn*%
%TO.N,PS_POR*%
X93637100Y-76156000D03*
%TO.P,U1,17,MDIN[3]*%
%TO.N,/SOM240_1(1.5)/ethernet1/PHY_MDI3_P*%
X93637100Y-75656001D03*
%TO.P,U1,18,MDIP[3]*%
%TO.N,/SOM240_1(1.5)/ethernet1/PHY_MDI3_N*%
X93637100Y-75155999D03*
%TO.P,U1,19,AVDD18*%
%TO.N,/SOM240_1(1.5)/ethernet1/AVDD18*%
X93637100Y-74656000D03*
%TO.P,U1,20,AVDD33*%
%TO.N,/SOM240_1(1.5)/ethernet1/AVDD33*%
X93637100Y-74156001D03*
%TO.P,U1,21,MDIN[2]*%
%TO.N,/SOM240_1(1.5)/ethernet1/PHY_MDI2_P*%
X93637100Y-73656000D03*
%TO.P,U1,22,MDIP[2]*%
%TO.N,/SOM240_1(1.5)/ethernet1/PHY_MDI2_N*%
X93637100Y-73156000D03*
%TO.P,U1,23,MDIN[1]*%
%TO.N,/SOM240_1(1.5)/ethernet1/PHY_MDI1_P*%
X93637100Y-72655999D03*
%TO.P,U1,24,MDIP[1]*%
%TO.N,/SOM240_1(1.5)/ethernet1/PHY_MDI1_N*%
X93637100Y-72156000D03*
%TO.P,U1,25,AVDD33*%
%TO.N,/SOM240_1(1.5)/ethernet1/AVDD33*%
X93637100Y-71656001D03*
%TO.P,U1,26,AVDD18*%
%TO.N,/SOM240_1(1.5)/ethernet1/AVDD18*%
X93637100Y-71155999D03*
%TO.P,U1,27,MDIN[0]*%
%TO.N,/SOM240_1(1.5)/ethernet1/PHY_MDI0_P*%
X93637100Y-70656000D03*
%TO.P,U1,28,MDIP[0]*%
%TO.N,/SOM240_1(1.5)/ethernet1/PHY_MDI0_N*%
X93637100Y-70155999D03*
D43*
%TO.P,U1,29,TSTPT*%
%TO.N,unconnected-(U1-TSTPT-Pad29)*%
X94285999Y-69507100D03*
%TO.P,U1,30,RSET*%
%TO.N,Net-(U1-RSET)*%
X94786000Y-69507100D03*
%TO.P,U1,31,HSDACN*%
%TO.N,unconnected-(U1-HSDACN-Pad31)*%
X95285999Y-69507100D03*
%TO.P,U1,32,HSDACP*%
%TO.N,unconnected-(U1-HSDACP-Pad32)*%
X95786001Y-69507100D03*
%TO.P,U1,33,XTAL_OUT*%
%TO.N,unconnected-(U1-XTAL_OUT-Pad33)*%
X96286000Y-69507100D03*
%TO.P,U1,34,XTAL_IN*%
%TO.N,/SOM240_1(1.5)/ethernet1/OSC25_OUT*%
X96785999Y-69507100D03*
%TO.P,U1,35,AVDDC18*%
%TO.N,/SOM240_1(1.5)/ethernet1/AVDD18*%
X97286000Y-69507100D03*
%TO.P,U1,36,REG_IN*%
%TO.N,3V3_IO*%
X97786000Y-69507100D03*
%TO.P,U1,37,REGCAP1*%
%TO.N,Net-(U1-REGCAP1)*%
X98286001Y-69507100D03*
%TO.P,U1,38,AVDD18*%
%TO.N,/SOM240_1(1.5)/ethernet1/AVDD18*%
X98786000Y-69507100D03*
%TO.P,U1,39,AVDD18_OUT*%
X99285999Y-69507100D03*
%TO.P,U1,40,DVDD_OUT*%
%TO.N,/SOM240_1(1.5)/ethernet1/DVDD*%
X99786001Y-69507100D03*
%TO.P,U1,41,REGCAP2*%
%TO.N,Net-(U1-REGCAP2)*%
X100286000Y-69507100D03*
%TO.P,U1,42,DVDD*%
%TO.N,/SOM240_1(1.5)/ethernet1/DVDD*%
X100786001Y-69507100D03*
D44*
%TO.P,U1,43,RX_CTRL*%
%TO.N,Net-(U1-RX_CTRL)*%
X101434900Y-70155999D03*
%TO.P,U1,44,RXD[0]*%
%TO.N,Net-(U1-RXD[0])*%
X101434900Y-70656000D03*
%TO.P,U1,45,RXD[1]*%
%TO.N,Net-(U1-RXD[1])*%
X101434900Y-71155999D03*
%TO.P,U1,46,RX_CLK*%
%TO.N,Net-(U1-RX_CLK)*%
X101434900Y-71656001D03*
%TO.P,U1,47,RXD[2]*%
%TO.N,Net-(U1-RXD[2])*%
X101434900Y-72156000D03*
%TO.P,U1,48,RXD[3]*%
%TO.N,Net-(U1-RXD[3])*%
X101434900Y-72655999D03*
%TO.P,U1,49,VDDO*%
%TO.N,3V3_IO*%
X101434900Y-73156000D03*
%TO.P,U1,50,TXD[0]*%
%TO.N,/SOM240_1(1.5)/ETH_TXD0*%
X101434900Y-73656000D03*
%TO.P,U1,51,TXD[1]*%
%TO.N,/SOM240_1(1.5)/ETH_TXD1*%
X101434900Y-74156001D03*
%TO.P,U1,52,VDDO*%
%TO.N,3V3_IO*%
X101434900Y-74656000D03*
%TO.P,U1,53,TX_CLK*%
%TO.N,/SOM240_1(1.5)/ETH_TX_CLK*%
X101434900Y-75155999D03*
%TO.P,U1,54,TXD[2]*%
%TO.N,/SOM240_1(1.5)/ETH_TXD2*%
X101434900Y-75656001D03*
%TO.P,U1,55,TXD[3]*%
%TO.N,/SOM240_1(1.5)/ETH_TXD3*%
X101434900Y-76156000D03*
%TO.P,U1,56,TX_CTRL*%
%TO.N,/SOM240_1(1.5)/ETH_TX_CTRL*%
X101434900Y-76656001D03*
D45*
%TO.P,U1,57,VSS*%
%TO.N,GND*%
X97536000Y-73406000D03*
%TD*%
D22*
%TO.P,C39,1*%
%TO.N,Net-(ADC2-REFT)*%
X213601000Y-73152000D03*
%TO.P,C39,2*%
%TO.N,Net-(ADC2-REFB)*%
X215151000Y-73152000D03*
%TD*%
D23*
%TO.P,R71,1*%
%TO.N,GND*%
X122682000Y-53785000D03*
%TO.P,R71,2*%
%TO.N,/SOM240_1(1.5)/MODE2*%
X122682000Y-55435000D03*
%TD*%
D24*
%TO.P,C62,1*%
%TO.N,3V3_IO*%
X89688000Y-62484000D03*
%TO.P,C62,2*%
%TO.N,GND*%
X88138000Y-62484000D03*
%TD*%
D21*
%TO.P,R100,1*%
%TO.N,Net-(T1-SHIELD1)*%
X80188000Y-73152000D03*
%TO.P,R100,2*%
%TO.N,GND*%
X81838000Y-73152000D03*
%TD*%
D22*
%TO.P,C31,1*%
%TO.N,3V3_IO*%
X254241000Y-49784000D03*
%TO.P,C31,2*%
%TO.N,GND*%
X255791000Y-49784000D03*
%TD*%
D46*
%TO.N,/SOM240_1(1.5)/ethernet1/DVDD*%
X99806625Y-68823313D03*
X101600000Y-69088000D03*
D47*
%TO.N,3V3_IO*%
X241100000Y-118900000D03*
X111252000Y-162814000D03*
D46*
X91440000Y-88138000D03*
D47*
X83058000Y-88364301D03*
D46*
X97483466Y-70745000D03*
D47*
X89662000Y-61468000D03*
X91186000Y-65024000D03*
X252476000Y-48387000D03*
X103505000Y-74863000D03*
X89408000Y-66802000D03*
X83312000Y-99060000D03*
X194043300Y-49911000D03*
D46*
X82804000Y-117602712D03*
X101600000Y-68326000D03*
X85532301Y-132832301D03*
D48*
X100584000Y-73152000D03*
X96012000Y-78232000D03*
D47*
X194170300Y-52451000D03*
D48*
X103661998Y-44674002D03*
D46*
X105410000Y-43942000D03*
X84836000Y-120396000D03*
D47*
X115316000Y-162814000D03*
X74676000Y-61214000D03*
X90678000Y-64008000D03*
X124968000Y-156210000D03*
D46*
X99314000Y-45466000D03*
D47*
X71120000Y-139446000D03*
D48*
X98005811Y-78486000D03*
D47*
X252349000Y-50927000D03*
X113284000Y-162814000D03*
X69596000Y-78486000D03*
X90424000Y-110236000D03*
D46*
X107950000Y-48006000D03*
D47*
X238800000Y-117295000D03*
X116777000Y-160719000D03*
X240000000Y-119000000D03*
D49*
%TO.N,VDD_BUCK_5V*%
X103886000Y-54610000D03*
D47*
X156210000Y-148590000D03*
X88138000Y-159004000D03*
X183464200Y-150291800D03*
X92532200Y-160705800D03*
X113360200Y-159181800D03*
X183464200Y-148666200D03*
X92532200Y-159435800D03*
X113360200Y-157911800D03*
D49*
X102108000Y-58928000D03*
D47*
X108712000Y-159512000D03*
X161874200Y-150799800D03*
X113360200Y-160705800D03*
X161874200Y-147497800D03*
D49*
X101346000Y-62484000D03*
D47*
X183464200Y-147243800D03*
X161874200Y-149021800D03*
X92532200Y-158165800D03*
X179324000Y-148336000D03*
%TO.N,3V3_DUT*%
X186881000Y-149797000D03*
D49*
X211074000Y-121412000D03*
D47*
X188468000Y-152908000D03*
D49*
X211074000Y-125476000D03*
X211074000Y-127527002D03*
D47*
X194310000Y-142494000D03*
D49*
%TO.N,2V5_DUT*%
X215521845Y-127506057D03*
D47*
X172974000Y-142494000D03*
X165291000Y-149797000D03*
X162560000Y-152654000D03*
X215800000Y-121800000D03*
X214884000Y-121920000D03*
X164338000Y-152654000D03*
D49*
X215457558Y-125541311D03*
D47*
X160528000Y-152654000D03*
%TO.N,1V2_DUT*%
X231500000Y-148500000D03*
D46*
X230900000Y-164100000D03*
D47*
X232375000Y-142100000D03*
D49*
X209550000Y-127508000D03*
D47*
X231498200Y-143723200D03*
X231475000Y-142100000D03*
D49*
X209550000Y-121412000D03*
X209550000Y-125476000D03*
D47*
X231498200Y-146340500D03*
%TO.N,1V8_DUT*%
X218875000Y-142300000D03*
X218898200Y-143823200D03*
X218900000Y-148400000D03*
D46*
X217800000Y-164300000D03*
D49*
X214005499Y-125359499D03*
D47*
X218898200Y-146340500D03*
D49*
X213868000Y-127527002D03*
D47*
X213995000Y-122047000D03*
X219775000Y-142300000D03*
D48*
%TO.N,1V8_Banks*%
X225806000Y-81026000D03*
D46*
X140716000Y-60960000D03*
D47*
X206298200Y-146340500D03*
X79248000Y-115316000D03*
D48*
X73882001Y-48768000D03*
D47*
X206075000Y-142300000D03*
D46*
X113792000Y-125222000D03*
X113300000Y-122675000D03*
D47*
X75946000Y-119887978D03*
D46*
X114554000Y-127600000D03*
D47*
X88392000Y-91694000D03*
D46*
X201800000Y-164100000D03*
X86360000Y-114554000D03*
D47*
X72644000Y-136652000D03*
D48*
X245618000Y-83820000D03*
D46*
X245872000Y-80772000D03*
X115645000Y-125222000D03*
D47*
X76200000Y-136652000D03*
D48*
X225552000Y-82550000D03*
D47*
X206300000Y-148400000D03*
D46*
X103886000Y-127508000D03*
D47*
X206275000Y-143800000D03*
X207100000Y-142300000D03*
%TO.N,1V8_ADC*%
X244098200Y-143723200D03*
X211963000Y-77978000D03*
X210566000Y-82804000D03*
D46*
X243400000Y-163900000D03*
D47*
X244098200Y-146340500D03*
D48*
X241039400Y-80321500D03*
D47*
X211582000Y-80103500D03*
D48*
X214630000Y-76454000D03*
X221488000Y-82804000D03*
D46*
X230426001Y-82755999D03*
D47*
X234665512Y-76804512D03*
D48*
X241554010Y-83312000D03*
D47*
X217932000Y-75692000D03*
D46*
X231648000Y-77724000D03*
X231140000Y-80518000D03*
D47*
X244075000Y-142100000D03*
X244100000Y-148300000D03*
D46*
X237744000Y-76073000D03*
D47*
X244975000Y-142100000D03*
X220726000Y-77978000D03*
X221394012Y-79662012D03*
D48*
X240538000Y-77724000D03*
D47*
%TO.N,2V5_IO*%
X92710000Y-163068000D03*
D46*
X239458500Y-45466000D03*
X230700000Y-45100000D03*
D47*
X90932000Y-163068000D03*
D46*
X90500000Y-59600000D03*
D47*
X223500000Y-115900000D03*
D46*
X133080617Y-57432455D03*
X209804000Y-54864000D03*
X103632000Y-124968000D03*
D47*
X87884000Y-152146000D03*
X95949000Y-160973000D03*
D46*
X94200000Y-61000000D03*
D47*
X94488000Y-163068000D03*
D46*
X214900000Y-114900000D03*
X218300000Y-115600000D03*
X217932000Y-54102000D03*
D47*
X92265000Y-63817000D03*
%TO.N,Net-(U2-REF)*%
X206756000Y-50546000D03*
D46*
X213487000Y-46355000D03*
%TO.N,Net-(U4-REF)*%
X236220000Y-51308000D03*
X242042000Y-50833000D03*
%TO.N,Net-(ADC1-REFT)*%
X235331000Y-76200000D03*
%TO.N,Net-(ADC1-REFB)*%
X235876775Y-76679917D03*
%TO.N,/SOM240_1(1.5)/ethernet1/AVDD33*%
X94742000Y-72136000D03*
%TO.N,/SOM240_1(1.5)/FWUEN_B*%
X125717000Y-49784000D03*
X124206000Y-58928000D03*
%TO.N,/SOM240_1(1.5)/ethernet1/AVDD18*%
X94742000Y-71120000D03*
D48*
X99822000Y-76454000D03*
D47*
X98480000Y-70940000D03*
D46*
X99314000Y-68326000D03*
X97286000Y-68580000D03*
X94742000Y-74676000D03*
X98806000Y-68834000D03*
%TO.N,Net-(U10-CH2)*%
X67200000Y-96500000D03*
D48*
X77470000Y-96012000D03*
D46*
X71300000Y-97300000D03*
%TO.N,Net-(ADC1-VREF)*%
X236362275Y-76184725D03*
D47*
%TO.N,VDD_BUCK_2V7*%
X234925000Y-142100000D03*
D46*
X255270000Y-154432000D03*
D47*
X222300000Y-140900000D03*
X234900000Y-148500000D03*
X234901800Y-146340500D03*
X222275000Y-143900000D03*
X209800000Y-142100000D03*
X247500000Y-148400000D03*
X209700000Y-148400000D03*
X209750000Y-146292300D03*
X247525000Y-142100000D03*
X222300000Y-148300000D03*
X247501800Y-146340500D03*
X209750000Y-143600000D03*
X234875000Y-143700000D03*
X222325000Y-142300000D03*
X247501800Y-143726800D03*
X222301800Y-146340500D03*
X247600000Y-140800000D03*
X234900000Y-140700000D03*
X209800000Y-140700000D03*
D46*
%TO.N,Net-(U10-CH1)*%
X70800000Y-95800000D03*
X67200000Y-95800000D03*
%TO.N,/SOM240_1(1.5)/ADC1_SDIO{slash}ODM*%
X138938000Y-58327997D03*
X243078000Y-80264000D03*
%TO.N,/SOM240_1(1.5)/ADC1_SCLK{slash}DTP*%
X243840000Y-80264000D03*
X138303000Y-58293000D03*
%TO.N,/SOM240_1(1.5)/ADC2_SCLK{slash}DTP*%
X134298501Y-58373104D03*
D47*
X223304003Y-79756000D03*
D46*
%TO.N,/SOM240_1(1.5)/ADC2_SDIO{slash}ODM*%
X134931109Y-58484135D03*
D47*
X222504000Y-79756000D03*
D46*
%TO.N,Net-(ADC1-RBIAS)*%
X237064898Y-76242775D03*
%TO.N,PS_POR*%
X94488000Y-76200000D03*
X132334000Y-58953400D03*
D47*
X88646000Y-86868000D03*
%TO.N,PS_SRST*%
X106390791Y-49540545D03*
D46*
X131191000Y-59004200D03*
%TO.N,/SOM240_1(1.5)/MODE3*%
X122090858Y-56370155D03*
%TO.N,/SOM240_1(1.5)/MODE2*%
X122936000Y-56388000D03*
%TO.N,/SOM240_1(1.5)/MODE1*%
X123825000Y-56261000D03*
%TO.N,/SOM240_1(1.5)/MODE0*%
X124936000Y-56229000D03*
%TO.N,/SOM240_1(1.5)/SHUTDOWN*%
X121595183Y-58963068D03*
X120904000Y-70612000D03*
%TO.N,/SOM240_1(1.5)/USB-UART1/USB_RESET#*%
X91186000Y-95250000D03*
X85598000Y-99822000D03*
D47*
%TO.N,/SOM240_1(1.5)/CLR_DAC\u002A*%
X236200000Y-45500000D03*
D46*
X132080000Y-53340000D03*
X214122000Y-54356000D03*
%TO.N,/SOM240_1(1.5)/SCK_DAC1*%
X130581400Y-58420000D03*
X214757000Y-46355000D03*
%TO.N,/SOM240_1(1.5)/CS{slash}LD_DAC1\u002A*%
X131549296Y-58468156D03*
X214122000Y-46355000D03*
%TO.N,Disc_Thresh2*%
X211582000Y-45306000D03*
%TO.N,Net-(U2-SDO)*%
X214122000Y-51562000D03*
%TO.N,Disc_Thresh7*%
X211328000Y-55626000D03*
%TO.N,Disc_Thresh1*%
X210947000Y-44958000D03*
%TO.N,Disc_Thresh6*%
X212598000Y-55372000D03*
%TO.N,Disc_Thresh3*%
X212217000Y-45720000D03*
%TO.N,Disc_Thresh4*%
X212852000Y-45974000D03*
%TO.N,Disc_Thresh5*%
X213360000Y-55118000D03*
%TO.N,/SOM240_1(1.5)/SDI_DAC_THRES*%
X131450500Y-52964500D03*
%TO.N,Disc_Thresh8*%
X210566000Y-55118000D03*
%TO.N,/SOM240_1(1.5)/CS{slash}LD_DAC2\u002A*%
X129921000Y-49022000D03*
X129931644Y-58893216D03*
D47*
%TO.N,READBIAS2*%
X241860500Y-55880000D03*
%TO.N,READBIAS1*%
X241046000Y-55294500D03*
%TO.N,DISCBIAS*%
X240284000Y-54356000D03*
D46*
%TO.N,/SOM240_1(1.5)/SDI_DAC_BIAS*%
X129286000Y-58928000D03*
X129286000Y-47498000D03*
%TO.N,/SOM240_1(1.5)/SCK_DAC2*%
X130810000Y-52451000D03*
D47*
%TO.N,WBUFBIAS*%
X238539012Y-54709000D03*
D46*
%TO.N,/SOM240_1(1.5)/ADC_CLK1+*%
X138938000Y-58928000D03*
X225273810Y-87097810D03*
%TO.N,/SOM240_1(1.5)/ADC_CLK1-*%
X139538003Y-58928000D03*
X224814190Y-86638190D03*
%TO.N,/SOM240_1(1.5)/FrameClk1+*%
X236703810Y-90399810D03*
X136919677Y-58984091D03*
%TO.N,/SOM240_1(1.5)/FrameClk1-*%
X137561538Y-58949085D03*
X236244190Y-89940190D03*
%TO.N,/SOM240_1(1.5)/DataClk1-*%
X238022190Y-90194190D03*
X133741644Y-58893216D03*
%TO.N,/SOM240_1(1.5)/DataClk1+*%
X133096000Y-58928000D03*
X238481810Y-90653810D03*
%TO.N,/SOM240_1(1.5)/ADC_CLK2+*%
X199922190Y-77953810D03*
X135978199Y-59001693D03*
%TO.N,/SOM240_1(1.5)/ADC_CLK2-*%
X135393677Y-58866278D03*
X200381810Y-77494190D03*
%TO.N,SPIclk*%
X128657639Y-59030345D03*
X236474000Y-61214000D03*
%TO.N,Psec5RefClk*%
X131558632Y-62230000D03*
X195326000Y-63754000D03*
%TO.N,POCI*%
X128016000Y-63754000D03*
X234171374Y-64973277D03*
%TO.N,PICO*%
X128867301Y-63918699D03*
X233574543Y-64792500D03*
%TO.N,Psec5TriggerOut*%
X220472000Y-64770000D03*
X131064000Y-64008000D03*
%TO.N,P5_ReadClk*%
X127762000Y-58928000D03*
X195072000Y-68580000D03*
%TO.N,P5_rst*%
X131318000Y-63246000D03*
X236615810Y-61877176D03*
%TO.N,Psec5TriggerIn*%
X209159000Y-65415000D03*
X129794000Y-64008000D03*
%TO.N,OscClkOut*%
X176900000Y-114900000D03*
X110100000Y-125200000D03*
%TO.N,V_ped8*%
X218440000Y-116840000D03*
%TO.N,V_ped7*%
X218948000Y-117348000D03*
%TO.N,V_ped3*%
X224028000Y-117856000D03*
%TO.N,HPB00_CC_N*%
X126729810Y-130870190D03*
X240400000Y-133100000D03*
%TO.N,V_ped1*%
X225044000Y-116586000D03*
%TO.N,V_ped5*%
X220472000Y-118618000D03*
%TO.N,V_ped4*%
X223520000Y-118618000D03*
%TO.N,HPC09_P*%
X133870190Y-130229810D03*
D47*
X181900000Y-128025000D03*
D46*
%TO.N,DAC_V_IN*%
X178000000Y-114300000D03*
X109860500Y-118600000D03*
%TO.N,HPB01_P*%
X242066026Y-134066026D03*
X123970190Y-131129810D03*
%TO.N,V_ped6*%
X219964000Y-118110000D03*
%TO.N,V_ped2*%
X224536000Y-117348000D03*
%TO.N,HPB17_P*%
X130129810Y-130570190D03*
D47*
X188100000Y-129942598D03*
D46*
%TO.N,HPC02_P*%
X132200000Y-119825000D03*
D47*
X174600000Y-123425000D03*
D46*
%TO.N,HPB00_CC_P*%
X241052494Y-133252494D03*
X126270190Y-131329810D03*
D47*
%TO.N,HPC02_N*%
X174600000Y-122575000D03*
D46*
X132200000Y-119175000D03*
%TO.N,HPC00_CC_N*%
X133900000Y-120275000D03*
D47*
X177000000Y-124275000D03*
D46*
%TO.N,HPC04_P*%
X129429810Y-119629810D03*
D47*
X171600000Y-121825000D03*
%TO.N,/SOM240_1(1.5)/SDcard1/DAT1B_1*%
X72644000Y-122913000D03*
%TO.N,HPB04_N*%
X186300000Y-129425000D03*
D46*
X131575000Y-130000000D03*
%TO.N,HPB_CLK0_N*%
X239600000Y-132100000D03*
X128629810Y-130770190D03*
D47*
%TO.N,HPB04_P*%
X186300000Y-128575000D03*
D46*
X132225000Y-130000000D03*
%TO.N,HPC04_N*%
X128970190Y-119170190D03*
D47*
X171600000Y-120975000D03*
%TO.N,HPB17_N*%
X188100000Y-130792598D03*
D46*
X129670190Y-131029810D03*
%TO.N,HPC01_N*%
X135300000Y-121375000D03*
D47*
X178600000Y-125775000D03*
D46*
%TO.N,HPB01_N*%
X241500000Y-133800000D03*
X124429810Y-130670190D03*
%TO.N,HPC01_P*%
X135300000Y-122025000D03*
D47*
X178600000Y-126625000D03*
D46*
%TO.N,HPC09_N*%
X134329810Y-129770190D03*
D47*
X181900000Y-127175000D03*
D46*
%TO.N,HPB_CLK0_P*%
X240024266Y-132524266D03*
X128170190Y-131229810D03*
D47*
%TO.N,HPC00_CC_P*%
X177000000Y-125125000D03*
D46*
X133900000Y-120925000D03*
D47*
%TO.N,/SOM240_1(1.5)/SDcard1/CLKB_1*%
X72364999Y-126212999D03*
%TO.N,/SOM240_1(1.5)/SDcard1/DAT2B_1*%
X89408000Y-116537837D03*
%TO.N,/SOM240_1(1.5)/SDcard1/DAT3B_1*%
X72109000Y-129513000D03*
%TO.N,/SOM240_1(1.5)/SDcard1/CMDB_1*%
X72786999Y-128412999D03*
%TO.N,/SOM240_1(1.5)/SDcard1/DAT0B_1*%
X71820999Y-124013001D03*
D46*
%TO.N,/SOM240_1(1.5)/SD_DETECT_1*%
X74422000Y-133096000D03*
X112776000Y-81534000D03*
%TO.N,/SOM240_1(1.5)/SD_DAT0*%
X124460000Y-67564000D03*
%TO.N,/SOM240_1(1.5)/UART_RXD*%
X87109624Y-93980000D03*
X123571000Y-58420000D03*
X123952000Y-72771000D03*
X92964000Y-97282000D03*
%TO.N,Net-(J10A-PS_ERROR_OUT_M2C)*%
X126771400Y-58445400D03*
D48*
%TO.N,/SOM240_1(1.5)/JTAG_CLK*%
X80517990Y-51085999D03*
D46*
%TO.N,/SOM240_1(1.5)/SD_DAT2*%
X119050998Y-58978425D03*
%TO.N,/SOM240_1(1.5)/UART_TXD*%
X122806884Y-58395980D03*
X123190000Y-72771000D03*
%TO.N,/SOM240_1(1.5)/ETH_RXD0*%
X113284000Y-65229480D03*
X114168877Y-59042558D03*
%TO.N,/SOM240_1(1.5)/ETH_RXD2*%
X113792000Y-67564000D03*
X116614825Y-59050953D03*
%TO.N,/SOM240_1(1.5)/SD_DAT1*%
X125222000Y-66802000D03*
D48*
%TO.N,/SOM240_1(1.5)/JTAG_TMS*%
X81280000Y-50292000D03*
D46*
%TO.N,Net-(J10A-PWROFF_C2M_L)*%
X125492630Y-58530370D03*
%TO.N,/SOM240_1(1.5)/ETH_RX_CTRL*%
X112776000Y-64008000D03*
X113538000Y-59004200D03*
%TO.N,/SOM240_1(1.5)/ETH_RXD3*%
X117279500Y-59081325D03*
X114046000Y-68580000D03*
%TO.N,/SOM240_1(1.5)/ETH_RXD1*%
X114046000Y-65622248D03*
X114782600Y-59055000D03*
%TO.N,/SOM240_1(1.5)/SD_DAT3*%
X119656810Y-58973767D03*
%TO.N,/SOM240_1(1.5)/ETH_RX_CLK*%
X115993121Y-59064401D03*
X113792000Y-66548000D03*
D48*
%TO.N,/SOM240_1(1.5)/JTAG_TDO*%
X80264000Y-52085997D03*
D46*
X127005500Y-52583500D03*
%TO.N,Net-(J10A-PS_ERROR_STATUS_M2C)*%
X126136400Y-58496200D03*
%TO.N,/SOM240_1(1.5)/JTAG_TDI*%
X126238000Y-52578000D03*
D48*
X80264000Y-53086000D03*
D47*
%TO.N,Net-(Q6-D)*%
X97028000Y-82550000D03*
%TO.N,Net-(Q6-G)*%
X96012000Y-81026000D03*
D46*
%TO.N,Net-(U1-RXD[2])*%
X103632000Y-72644000D03*
%TO.N,Net-(U1-RX_CLK)*%
X102616000Y-71630999D03*
%TO.N,Net-(U1-RX_CTRL)*%
X102870000Y-68834000D03*
%TO.N,Net-(U1-RSET)*%
X94742000Y-68580000D03*
D48*
%TO.N,/SOM240_1(1.5)/ETH_MDIO*%
X97028000Y-78232000D03*
D50*
X111506000Y-62484000D03*
D46*
%TO.N,Net-(U1-RXD[1])*%
X103378000Y-70612000D03*
%TO.N,Net-(U1-RXD[0])*%
X102616000Y-70612000D03*
D50*
%TO.N,/SOM240_1(1.5)/ETH_MDC*%
X98425000Y-75565000D03*
X112014000Y-63246000D03*
D46*
%TO.N,Net-(U1-RXD[3])*%
X103210510Y-73071024D03*
%TO.N,/SOM240_1(1.5)/SD_CLK*%
X125730000Y-66294000D03*
%TO.N,/SOM240_2(1.5)/SCK_DAC_ped*%
X113583675Y-124107444D03*
%TO.N,/SOM240_1(1.5)/SD_CMD*%
X120291765Y-59014801D03*
%TO.N,/SOM240_1(1.5)/UART_RTS*%
X121539000Y-72771000D03*
X122174000Y-58674000D03*
%TO.N,/SOM240_1(1.5)/UART_CTS*%
X85598000Y-93853000D03*
X122726837Y-59125707D03*
X92964000Y-96278376D03*
X122301000Y-72771000D03*
%TO.N,Net-(J10B-MIO54)*%
X116840000Y-73406000D03*
%TO.N,/SOM240_2(1.5)/CS{slash}LD_DAC_ped\u002A*%
X113200000Y-119800000D03*
D50*
%TO.N,Net-(J10B-PWRGD_PL_M2C)*%
X127952500Y-69278500D03*
D46*
%TO.N,Net-(J10B-MIO64)*%
X116078000Y-73152000D03*
D50*
%TO.N,Net-(J10B-PWRGD_FPD_M2C)*%
X129540000Y-68834000D03*
D47*
%TO.N,Net-(C94-Pad1)*%
X78994000Y-108966000D03*
%TO.N,Net-(Q4-D)*%
X78994000Y-112776000D03*
D46*
%TO.N,Net-(ADC2-VREF)*%
X216345494Y-76071923D03*
%TO.N,Net-(ADC2-REFT)*%
X215212330Y-75790948D03*
%TO.N,Net-(J10B-MIO53)*%
X117602000Y-74930000D03*
D50*
%TO.N,Net-(J10B-PWRGD_LPD_M2C)*%
X129603500Y-69913500D03*
D46*
%TO.N,Net-(J10B-MIO66)*%
X113538000Y-76708000D03*
%TO.N,/SOM240_2(1.5)/SDI_DAC_ped*%
X112400000Y-119500000D03*
%TO.N,Net-(J10B-MIO65)*%
X115062000Y-75184000D03*
%TO.N,Net-(J10B-MIO52)*%
X117856000Y-75946000D03*
D47*
%TO.N,GND*%
X125735500Y-121896362D03*
D46*
X100838000Y-64770000D03*
D47*
X96520000Y-74168000D03*
X193400000Y-166900000D03*
X245600000Y-158500000D03*
D46*
X87376000Y-85852000D03*
D47*
X216900000Y-159000000D03*
D46*
X115330089Y-59900683D03*
D47*
X245700000Y-151200000D03*
X163322000Y-136652000D03*
X141860300Y-56388000D03*
X120020500Y-121920000D03*
X249000000Y-154300000D03*
X140718750Y-122938750D03*
X111506000Y-150876000D03*
X214630000Y-82550000D03*
D46*
X81788000Y-102616000D03*
X132720500Y-124140599D03*
D47*
X208026000Y-126492000D03*
X233200000Y-158400000D03*
X208100000Y-151100000D03*
D46*
X85598000Y-117373400D03*
X134199956Y-57492848D03*
D47*
X239205000Y-60452000D03*
D46*
X86868000Y-42926000D03*
D47*
X245800000Y-146200000D03*
D46*
X85852000Y-123952000D03*
X119651236Y-57437294D03*
D47*
X163576000Y-147066000D03*
X214300000Y-142000000D03*
D46*
X225806000Y-71374000D03*
X135636000Y-125476000D03*
X96012000Y-84836000D03*
D47*
X121290500Y-127883500D03*
X185166000Y-152908000D03*
D46*
X91694000Y-62484000D03*
D47*
X216306391Y-80768009D03*
X212845000Y-126532000D03*
D46*
X124202561Y-125469268D03*
D47*
X233200000Y-148500000D03*
X204200000Y-151100000D03*
D46*
X124897382Y-57342862D03*
D47*
X166878000Y-136652000D03*
X106426000Y-61468000D03*
D46*
X139350646Y-124050646D03*
X86360000Y-116586000D03*
X237490000Y-71120000D03*
D47*
X88900000Y-63246000D03*
X224085000Y-60452000D03*
D46*
X130175000Y-56134000D03*
D47*
X226800000Y-141500000D03*
X224300000Y-158500000D03*
D46*
X114795000Y-125222000D03*
D47*
X188722000Y-132588000D03*
X90678000Y-147574000D03*
D46*
X136161236Y-59977294D03*
D47*
X183922157Y-151180775D03*
X132720500Y-127883500D03*
D46*
X131822561Y-125469268D03*
D47*
X235966000Y-78994000D03*
D46*
X100265376Y-70880000D03*
D47*
X188722000Y-139954000D03*
X114300000Y-161798000D03*
X239205000Y-126532000D03*
D46*
X227584000Y-79756000D03*
X115570000Y-56261000D03*
X84328000Y-144886000D03*
D47*
X188722000Y-136652000D03*
D46*
X128524000Y-48260000D03*
D47*
X129545500Y-122600000D03*
X107950000Y-121920000D03*
D46*
X117604685Y-124104685D03*
X85598000Y-116586000D03*
D47*
X116210500Y-121920000D03*
X94234000Y-161798000D03*
D46*
X120396000Y-41402000D03*
X140700617Y-59915545D03*
X236474001Y-74295000D03*
D47*
X181610000Y-132588000D03*
X237744000Y-83058000D03*
X104140000Y-61468000D03*
X90678000Y-143510000D03*
X130810000Y-128016000D03*
X98552000Y-163068000D03*
X225000000Y-142300000D03*
X208000000Y-146340500D03*
D46*
X84709000Y-116586000D03*
X95250000Y-42672000D03*
D47*
X86288999Y-93035001D03*
X208000000Y-154773300D03*
X83566000Y-113538000D03*
D48*
X75692000Y-98552000D03*
D46*
X93218000Y-66040000D03*
D47*
X115062000Y-143510000D03*
X86360000Y-97282000D03*
X167894000Y-152146000D03*
D46*
X96266000Y-76200000D03*
D47*
X127640500Y-122500000D03*
X159766000Y-136652000D03*
X172847000Y-148717000D03*
X185166000Y-147066000D03*
D46*
X208026000Y-79502000D03*
X129794000Y-125476000D03*
X129540000Y-61214000D03*
D47*
X189725300Y-51054000D03*
D46*
X231394000Y-83235374D03*
D47*
X232855000Y-126532000D03*
X68834000Y-125095000D03*
D46*
X114000000Y-120200000D03*
X67300000Y-97800000D03*
X128900000Y-125000000D03*
D47*
X127000000Y-128016000D03*
D46*
X239776000Y-76200000D03*
D47*
X83566000Y-60960000D03*
X237744000Y-82042000D03*
D46*
X240792000Y-81026000D03*
D47*
X111506000Y-143510000D03*
X89916000Y-98552000D03*
X212845000Y-60452000D03*
X232855000Y-60452000D03*
D46*
X118381236Y-59910706D03*
D47*
X128910500Y-127883500D03*
D46*
X88138000Y-89014300D03*
D47*
X211600000Y-158900000D03*
X163068000Y-151130000D03*
D46*
X105029000Y-58801000D03*
D47*
X214630000Y-81280000D03*
D46*
X220599000Y-83002001D03*
D47*
X234188000Y-82804000D03*
D46*
X99822000Y-127508000D03*
X114527000Y-123979000D03*
D47*
X245800000Y-148200000D03*
D46*
X124968000Y-150114000D03*
D47*
X229600000Y-158700000D03*
X245836650Y-154736650D03*
X217500000Y-143500000D03*
X211600000Y-150900000D03*
X236800000Y-150700000D03*
X73406000Y-108458000D03*
D46*
X213868000Y-68834000D03*
D47*
X128270000Y-54356000D03*
X248800000Y-151300000D03*
X217100000Y-154800000D03*
D46*
X94742000Y-65024000D03*
X108839000Y-58547000D03*
X105664000Y-125476000D03*
X122075000Y-125575000D03*
X111125000Y-58420000D03*
X211582000Y-83002001D03*
X90678000Y-74295000D03*
D47*
X94234000Y-143510000D03*
D46*
X90170000Y-77470000D03*
D47*
X119888000Y-163068000D03*
D46*
X113100000Y-126400000D03*
X111989488Y-124089606D03*
X106299000Y-58547000D03*
D47*
X250100000Y-142100000D03*
X111506000Y-61468000D03*
X124460000Y-161798000D03*
X67564000Y-140970000D03*
X235712000Y-82804000D03*
X166878000Y-139954000D03*
D46*
X89535000Y-69088000D03*
D47*
X138178750Y-122938750D03*
D46*
X127250775Y-59997154D03*
X137872553Y-57497494D03*
X208534000Y-77724000D03*
D47*
X118618000Y-147574000D03*
D46*
X228600000Y-71501000D03*
X139827000Y-58293000D03*
D47*
X227965000Y-126532000D03*
X216154000Y-78740000D03*
D46*
X120523000Y-40386000D03*
D47*
X88138000Y-61214000D03*
D46*
X107696000Y-125424709D03*
X125984000Y-125476000D03*
D47*
X201600000Y-141900000D03*
D46*
X110448800Y-126367887D03*
D47*
X94234000Y-157734000D03*
X220600000Y-154800000D03*
D46*
X114114250Y-126585750D03*
X134721348Y-124121348D03*
D47*
X108966000Y-61976000D03*
D46*
X122191236Y-57437294D03*
D47*
X111760000Y-128016000D03*
X243840000Y-43942000D03*
D46*
X91000000Y-132800000D03*
D47*
X85852000Y-90932000D03*
D46*
X76708000Y-118618000D03*
D47*
X97790000Y-143510000D03*
D46*
X134132334Y-60024330D03*
D47*
X239500000Y-141500000D03*
X133355500Y-122999246D03*
X224085000Y-126532000D03*
X83566000Y-62484000D03*
X181610000Y-139954000D03*
X204200000Y-154900000D03*
X229600000Y-155000000D03*
X105415500Y-55123500D03*
X138600000Y-157300000D03*
D46*
X132351236Y-57437294D03*
D47*
X110490000Y-121920000D03*
X81280000Y-110236000D03*
X207955000Y-60452000D03*
D46*
X236847774Y-76802114D03*
X122018375Y-60960000D03*
X125100500Y-124140599D03*
D47*
X238800000Y-118565000D03*
X195906300Y-48641000D03*
X118618000Y-143510000D03*
D46*
X68834000Y-46990000D03*
D47*
X123830500Y-121920000D03*
D46*
X235204000Y-69850000D03*
X82804000Y-40640000D03*
X219710000Y-75692000D03*
D47*
X219195000Y-126532000D03*
X242800000Y-143500000D03*
X220600000Y-148300000D03*
X159766000Y-132588000D03*
X211700000Y-154900000D03*
X194564000Y-151130000D03*
X236900000Y-154800000D03*
D46*
X218300000Y-115000000D03*
X103124000Y-49022000D03*
D47*
X248900000Y-158500000D03*
X234442000Y-81534000D03*
D46*
X90551000Y-82931000D03*
D47*
X217932000Y-82804000D03*
X233200000Y-146340500D03*
X74130750Y-140437750D03*
X96520000Y-72644000D03*
X87122000Y-96266000D03*
D46*
X221234000Y-80772000D03*
X91948000Y-92202000D03*
D47*
X224500000Y-150800000D03*
D46*
X67200000Y-97100000D03*
D47*
X220600000Y-146400000D03*
X217932000Y-81534000D03*
D46*
X136830646Y-124030646D03*
X242062000Y-74422000D03*
X85598000Y-118237000D03*
X106426000Y-64770000D03*
D47*
X252476000Y-49657000D03*
X82550000Y-106426000D03*
D49*
X154559000Y-107188000D03*
D47*
X181610000Y-136652000D03*
D46*
X130570089Y-59900683D03*
D47*
X115062000Y-147574000D03*
D46*
X88646000Y-114554000D03*
D47*
X70866000Y-130098500D03*
D46*
X107680617Y-58801000D03*
X99060000Y-40386000D03*
D47*
X208000000Y-148200000D03*
X163322000Y-139954000D03*
D46*
X224282000Y-78232000D03*
X104140000Y-58420000D03*
D47*
X242500000Y-151400000D03*
X216154000Y-82804000D03*
D46*
X144780000Y-60706000D03*
X99314000Y-64770000D03*
D47*
X106680000Y-46495000D03*
D46*
X232410000Y-74422000D03*
X99822000Y-125222000D03*
D47*
X209804000Y-45847000D03*
X242824000Y-51562000D03*
X244095000Y-60452000D03*
X117480500Y-127883500D03*
X83566000Y-64008000D03*
X230266000Y-120490000D03*
D46*
X227076000Y-82042000D03*
X118364000Y-125476000D03*
X130916348Y-124116348D03*
D47*
X115062000Y-157988000D03*
D46*
X86360000Y-118237000D03*
D47*
X219195000Y-60452000D03*
D46*
X84709000Y-118237000D03*
X217678000Y-68580000D03*
X120392561Y-125469268D03*
X210566000Y-164338000D03*
D47*
X125100500Y-127883500D03*
D46*
X112776000Y-41402000D03*
D47*
X233200000Y-154773300D03*
X124460000Y-61468000D03*
X107696000Y-54864000D03*
X204800000Y-143500000D03*
D48*
X241300000Y-86614000D03*
D47*
X118110000Y-54356000D03*
X237500000Y-142100000D03*
D46*
X133604000Y-125476000D03*
D47*
X257047000Y-49784000D03*
D46*
X138176000Y-125476000D03*
X101600000Y-41656000D03*
X110236000Y-58801000D03*
D47*
X94234000Y-150876000D03*
X83566000Y-65532000D03*
X111506000Y-147574000D03*
D46*
X128541236Y-57370706D03*
X245618000Y-71628000D03*
D47*
X68326000Y-140208000D03*
X225400000Y-115900000D03*
X230200000Y-143500000D03*
D46*
X81788000Y-70104000D03*
X93980000Y-66294000D03*
X114427000Y-58420000D03*
X121290500Y-124140599D03*
D47*
X115062000Y-150876000D03*
D46*
X103378000Y-64770000D03*
X242062000Y-80264000D03*
D47*
X236800000Y-158400000D03*
X103378000Y-161798000D03*
X97790000Y-150876000D03*
X97790000Y-147574000D03*
X235915200Y-81229200D03*
D46*
X115646348Y-124146348D03*
X68834000Y-62738000D03*
D47*
X110236000Y-54864000D03*
X85852000Y-96266000D03*
X208000000Y-159100000D03*
X94234000Y-147574000D03*
D48*
X68580000Y-108966000D03*
D47*
X242500000Y-158100000D03*
X185166000Y-139954000D03*
D46*
X206502000Y-54610000D03*
D47*
X131450500Y-122723526D03*
X212500000Y-142100000D03*
D46*
X112014000Y-58801000D03*
D47*
X90678000Y-150876000D03*
X217400000Y-151300000D03*
D48*
X75438000Y-51562000D03*
D47*
X118618000Y-150876000D03*
D46*
X140716000Y-125476000D03*
D47*
X159766000Y-139954000D03*
D46*
X97790000Y-64770000D03*
D47*
X224400000Y-154700000D03*
D46*
X84709000Y-117348000D03*
D47*
X194310000Y-145034000D03*
X172974000Y-145034000D03*
X105410000Y-121920000D03*
X112776000Y-54864000D03*
X84979163Y-111296815D03*
D46*
X132517382Y-59882862D03*
X224790000Y-84836000D03*
D47*
X205473300Y-49276000D03*
D46*
X101346000Y-46736000D03*
D47*
X121925500Y-121920000D03*
D46*
X240538000Y-83256001D03*
D47*
X123190000Y-128016000D03*
X134620000Y-128016000D03*
D46*
X209296000Y-71120000D03*
X86360000Y-117348000D03*
D47*
X106680000Y-128016000D03*
X244095000Y-126532000D03*
X136906000Y-128016000D03*
X227965000Y-60452000D03*
X166878000Y-132588000D03*
D46*
X127271236Y-57437294D03*
D47*
X185166000Y-132588000D03*
D46*
X116691700Y-57481164D03*
X106751348Y-124151348D03*
D47*
X229300000Y-150700000D03*
X135638750Y-122938750D03*
D46*
X137999625Y-60044394D03*
D47*
X97536000Y-73406000D03*
D46*
X212344000Y-74168000D03*
X79756000Y-88900000D03*
D47*
X252349000Y-52197000D03*
D46*
X124731236Y-59977294D03*
D47*
X242400000Y-154900000D03*
D46*
X206756000Y-83566000D03*
X96266000Y-60960000D03*
X221996000Y-74422000D03*
D47*
X72390000Y-127254000D03*
D46*
X127111348Y-124111348D03*
X128012561Y-125469268D03*
D48*
X75692000Y-94742000D03*
D47*
X74930000Y-108458000D03*
D46*
X110590000Y-43080000D03*
X115666347Y-126666347D03*
D47*
X204200000Y-158900000D03*
X185166000Y-136652000D03*
D46*
X64100000Y-97000000D03*
X109321348Y-124121348D03*
D47*
X220500000Y-158500000D03*
X163322000Y-132588000D03*
X220800000Y-151000000D03*
X90424000Y-118872000D03*
D46*
X104902000Y-64770000D03*
D47*
X233000000Y-150600000D03*
D46*
X227838000Y-76962000D03*
X123444000Y-53086000D03*
X79121000Y-51562000D03*
X119451348Y-124151348D03*
X123306348Y-124106348D03*
X78994000Y-117602712D03*
D47*
X239500000Y-121900000D03*
X196202300Y-51181000D03*
X118115500Y-121920000D03*
D46*
X216902994Y-75850120D03*
D47*
X139446000Y-128016000D03*
X77724000Y-135128000D03*
D46*
X81788000Y-74930000D03*
D47*
X241300000Y-47244000D03*
D46*
X239522000Y-51308000D03*
D47*
X119380000Y-128016000D03*
D46*
X209042000Y-52578000D03*
%TO.N,/SOM240_2(1.5)/CLR_DAC\u002A_ped*%
X111200000Y-119700000D03*
%TO.N,Net-(ADC2-REFB)*%
X215741905Y-76073000D03*
%TO.N,Net-(ADC2-RBIAS)*%
X217454400Y-76282022D03*
%TO.N,/SOM240_1(1.5)/FrameClk2-*%
X155956000Y-54500000D03*
X136777541Y-58401167D03*
%TO.N,/SOM240_1(1.5)/DataClk2-*%
X154210099Y-55245000D03*
X140551565Y-58276894D03*
%TO.N,/SOM240_1(1.5)/FrameClk2+*%
X137377101Y-58378134D03*
X156083000Y-55337003D03*
%TO.N,/SOM240_1(1.5)/DataClk2+*%
X141274800Y-58267600D03*
X154227794Y-55981396D03*
D47*
%TO.N,/SOM240_1(1.5)/SDcard1/DAT3B_0*%
X74422000Y-113257000D03*
%TO.N,/SOM240_1(1.5)/SDcard1/DAT1B_0*%
X69596000Y-106657000D03*
%TO.N,/SOM240_1(1.5)/SDcard1/CLKB_0*%
X71628000Y-109956999D03*
D46*
%TO.N,/SOM240_1(1.5)/SD_DETECT_0*%
X71120000Y-116840000D03*
X112014000Y-80518000D03*
D47*
%TO.N,/SOM240_1(1.5)/SDcard1/DAT0B_0*%
X70866000Y-107757001D03*
%TO.N,/SOM240_1(1.5)/SDcard1/DAT2B_0*%
X76454000Y-114300000D03*
%TO.N,/SOM240_1(1.5)/SDcard1/CMDB_0*%
X72390000Y-112156999D03*
%TO.N,Net-(Q8-G)*%
X89662000Y-79248000D03*
%TO.N,Net-(Q8-D)*%
X75438000Y-74168000D03*
%TO.N,/SOM240_1(1.5)/SDcard1/SD_CARD_VCC_1*%
X68072000Y-127254000D03*
%TO.N,/SOM240_1(1.5)/SDcard1/SD_CARD_VCC_0*%
X72207375Y-110998000D03*
D46*
%TO.N,Net-(JP1-C)*%
X82550000Y-115570000D03*
%TD*%
D51*
%TO.N,/SOM240_1(1.5)/ethernet1/DVDD*%
X99786001Y-69507100D02*
X99786001Y-68843937D01*
X101180900Y-69507100D02*
X101600000Y-69088000D01*
X99786001Y-75346999D02*
X98286001Y-76846999D01*
X100786001Y-69507100D02*
X101180900Y-69507100D01*
X99786001Y-69507100D02*
X99786001Y-75346999D01*
X100786001Y-69507100D02*
X100749125Y-69543976D01*
X98286001Y-76846999D02*
X98286001Y-77304900D01*
X99786001Y-68843937D02*
X99806625Y-68823313D01*
D52*
%TO.N,3V3_IO*%
X89738000Y-64058000D02*
X89688000Y-64008000D01*
X89738000Y-66472000D02*
X89408000Y-66802000D01*
X89688000Y-64008000D02*
X90678000Y-64008000D01*
X83623000Y-117623463D02*
X82824751Y-117623463D01*
X89688000Y-64008000D02*
X89688000Y-62484000D01*
X89738000Y-65532000D02*
X89738000Y-64058000D01*
D53*
X241075000Y-118925000D02*
X241100000Y-118900000D01*
D54*
X252476000Y-48387000D02*
X250558300Y-48387000D01*
X192532300Y-51054000D02*
X192773300Y-51054000D01*
D53*
X97786000Y-69507100D02*
X97786000Y-70442466D01*
D54*
X252476000Y-48387000D02*
X253873000Y-49784000D01*
D52*
X69787000Y-76962000D02*
X69787000Y-78295000D01*
D54*
X192532300Y-51054000D02*
X193675300Y-49911000D01*
X254241000Y-49784000D02*
X253492000Y-49784000D01*
D51*
X95786001Y-78006001D02*
X95786001Y-77304900D01*
D52*
X74676000Y-62675000D02*
X74676000Y-61214000D01*
X89738000Y-65532000D02*
X89738000Y-66472000D01*
D54*
X101434900Y-74656000D02*
X102596000Y-74656000D01*
D51*
X96012000Y-78232000D02*
X95786001Y-78006001D01*
D52*
X89688000Y-61494000D02*
X89662000Y-61468000D01*
D54*
X194043300Y-49911000D02*
X198247000Y-49911000D01*
D52*
X89688000Y-62484000D02*
X89688000Y-61494000D01*
X82824751Y-117623463D02*
X82804000Y-117602712D01*
D54*
X192773300Y-51054000D02*
X194170300Y-52451000D01*
D51*
X101434900Y-73156000D02*
X100588000Y-73156000D01*
D52*
X84847999Y-119348400D02*
X84847999Y-120384001D01*
D54*
X198120000Y-50038000D02*
X198247000Y-49911000D01*
D53*
X239165000Y-119835000D02*
X237254300Y-119835000D01*
D54*
X252349000Y-50927000D02*
X250558300Y-50927000D01*
X253492000Y-49784000D02*
X252349000Y-50927000D01*
D52*
X84847999Y-120384001D02*
X84836000Y-120396000D01*
D53*
X240000000Y-119000000D02*
X239165000Y-119835000D01*
X97786000Y-70442466D02*
X97483466Y-70745000D01*
D51*
X123190000Y-154432000D02*
X124968000Y-156210000D01*
X100588000Y-73156000D02*
X100584000Y-73152000D01*
D53*
X241075000Y-121100000D02*
X241075000Y-118925000D01*
D54*
X103298000Y-74656000D02*
X102596000Y-74656000D01*
D52*
X69787000Y-78295000D02*
X69596000Y-78486000D01*
D51*
X96012000Y-78232000D02*
X96286000Y-77958000D01*
D54*
X253873000Y-49784000D02*
X254241000Y-49784000D01*
X193675300Y-49911000D02*
X194043300Y-49911000D01*
D52*
X71120000Y-139446000D02*
X71082750Y-139483250D01*
D54*
X103505000Y-74863000D02*
X103298000Y-74656000D01*
D52*
X71082750Y-139483250D02*
X71082750Y-140884250D01*
D53*
X238800000Y-117295000D02*
X237254300Y-117295000D01*
D51*
X96286000Y-77958000D02*
X96286000Y-77304900D01*
D54*
X194170300Y-52451000D02*
X198247000Y-52451000D01*
D51*
%TO.N,1V8_Banks*%
X114554000Y-128003000D02*
X114821000Y-128270000D01*
X115645000Y-125222000D02*
X116345000Y-125222000D01*
D52*
X86348001Y-115398400D02*
X86348001Y-114565999D01*
X71945000Y-135953000D02*
X72644000Y-136652000D01*
D51*
X103886000Y-127508000D02*
X102375000Y-127508000D01*
D52*
X71945000Y-135636000D02*
X71945000Y-135953000D01*
D51*
X140716000Y-60960000D02*
X141973000Y-60960000D01*
D52*
X86348001Y-114565999D02*
X86360000Y-114554000D01*
D51*
X113792000Y-125222000D02*
X113297000Y-125222000D01*
X114554000Y-127600000D02*
X114554000Y-128003000D01*
D52*
%TO.N,1V8_ADC*%
X234696000Y-78727000D02*
X234696000Y-76835000D01*
X221475000Y-77978000D02*
X221729000Y-78232000D01*
X211963000Y-77978000D02*
X211087000Y-77978000D01*
X241039400Y-80321500D02*
X241033000Y-80315100D01*
X220726000Y-77978000D02*
X221475000Y-77978000D01*
X240538000Y-77724000D02*
X241033000Y-78219000D01*
X230137000Y-80518000D02*
X231140000Y-80518000D01*
X231648000Y-77724000D02*
X230391000Y-77724000D01*
X241033000Y-80315100D02*
X241033000Y-79248000D01*
X230426001Y-82755999D02*
X230378000Y-82804000D01*
X234696000Y-76835000D02*
X234665512Y-76804512D01*
X221729000Y-79327024D02*
X221729000Y-78232000D01*
X221394012Y-79662012D02*
X221729000Y-79327024D01*
X230378000Y-82804000D02*
X229375000Y-82804000D01*
X241033000Y-78219000D02*
X241033000Y-79248000D01*
X214630000Y-76454000D02*
X214630000Y-78219000D01*
D53*
%TO.N,2V5_IO*%
X219900000Y-115475000D02*
X218425000Y-115475000D01*
X216408000Y-115225000D02*
X215225000Y-115225000D01*
X215225000Y-115225000D02*
X214900000Y-114900000D01*
D51*
X91694000Y-59677000D02*
X90577000Y-59677000D01*
D54*
X210312000Y-54356000D02*
X210312000Y-52755800D01*
D51*
X90577000Y-59677000D02*
X90500000Y-59600000D01*
X92202000Y-63754000D02*
X92265000Y-63817000D01*
X240525000Y-45466000D02*
X239458500Y-45466000D01*
X86106000Y-150114000D02*
X87884000Y-151892000D01*
X103378000Y-125222000D02*
X103632000Y-124968000D01*
D53*
X220312500Y-115887500D02*
X219900000Y-115475000D01*
X223487500Y-115887500D02*
X223500000Y-115900000D01*
D51*
X133080617Y-56924383D02*
X133617000Y-56388000D01*
D53*
X222072200Y-115887500D02*
X220312500Y-115887500D01*
X94200000Y-62167000D02*
X94200000Y-61000000D01*
X222072200Y-115887500D02*
X223487500Y-115887500D01*
X218425000Y-115475000D02*
X218300000Y-115600000D01*
D51*
X102629000Y-125222000D02*
X103378000Y-125222000D01*
X92017000Y-60000000D02*
X91694000Y-59677000D01*
D54*
X239458500Y-45466000D02*
X239458500Y-47828200D01*
D51*
X133080617Y-57432455D02*
X133080617Y-56924383D01*
X87884000Y-151892000D02*
X87884000Y-152146000D01*
X94200000Y-63817000D02*
X92265000Y-63817000D01*
D54*
X209804000Y-54864000D02*
X210312000Y-54356000D01*
D51*
%TO.N,Net-(U2-REF)*%
X206489000Y-51816000D02*
X206489000Y-53340000D01*
X206489000Y-50813000D02*
X206756000Y-50546000D01*
X205600000Y-52451000D02*
X206489000Y-53340000D01*
X205854000Y-51181000D02*
X206489000Y-51816000D01*
X213487000Y-47828200D02*
X213487000Y-46355000D01*
X206489000Y-51816000D02*
X206489000Y-50813000D01*
X203555600Y-52451000D02*
X205600000Y-52451000D01*
X203555600Y-51181000D02*
X205854000Y-51181000D01*
D54*
%TO.N,Net-(U4-REF)*%
X245249700Y-48387000D02*
X242964000Y-48387000D01*
D51*
X236283500Y-51371500D02*
X236220000Y-51308000D01*
X243980000Y-49657000D02*
X242837000Y-48514000D01*
D54*
X242837000Y-50038000D02*
X242042000Y-50833000D01*
X242837000Y-50038000D02*
X242837000Y-48514000D01*
X242964000Y-48387000D02*
X242837000Y-48514000D01*
D51*
X236283500Y-52755800D02*
X236283500Y-51371500D01*
X245249700Y-49657000D02*
X243980000Y-49657000D01*
D52*
%TO.N,Net-(ADC1-REFT)*%
X234175000Y-73533000D02*
X234175000Y-72035000D01*
X234175000Y-72035000D02*
X234188000Y-72022000D01*
X235331000Y-76200000D02*
X235318000Y-76200000D01*
X235318000Y-76200000D02*
X234175000Y-75057000D01*
X234175000Y-75057000D02*
X234175000Y-73533000D01*
%TO.N,Net-(ADC1-REFB)*%
X235876775Y-75208775D02*
X235725000Y-75057000D01*
X235876775Y-76679917D02*
X235876775Y-75208775D01*
X235712000Y-73520000D02*
X235725000Y-73533000D01*
X235725000Y-73533000D02*
X235725000Y-75057000D01*
X235712000Y-72035000D02*
X235712000Y-73520000D01*
D51*
%TO.N,/SOM240_1(1.5)/ethernet1/AVDD33*%
X94742000Y-72136000D02*
X94742000Y-73643250D01*
X94229249Y-74156001D02*
X93637100Y-74156001D01*
X94262001Y-71656001D02*
X94742000Y-72136000D01*
X94742000Y-73643250D02*
X94229249Y-74156001D01*
X93637100Y-71656001D02*
X94262001Y-71656001D01*
%TO.N,/SOM240_1(1.5)/ethernet1/AVDD18*%
X99822000Y-76454000D02*
X99822000Y-77268901D01*
X99285999Y-70668383D02*
X98952744Y-71001638D01*
X97286000Y-70099249D02*
X96265249Y-71120000D01*
X94706001Y-71155999D02*
X94742000Y-71120000D01*
X99285999Y-69507100D02*
X99285999Y-68354001D01*
X93637100Y-71155999D02*
X94706001Y-71155999D01*
X99285999Y-69507100D02*
X99285999Y-70668383D01*
X96265249Y-71120000D02*
X94742000Y-71120000D01*
X97286000Y-68580000D02*
X97286000Y-69507100D01*
X98786000Y-68854000D02*
X98806000Y-68834000D01*
X98786000Y-69507100D02*
X98786000Y-68854000D01*
X97286000Y-69507100D02*
X97286000Y-70099249D01*
X99822000Y-77268901D02*
X99786001Y-77304900D01*
X94742000Y-74676000D02*
X93657100Y-74676000D01*
X99285999Y-68354001D02*
X99314000Y-68326000D01*
D52*
%TO.N,/SOM240_1(1.5)/ethernet1/PHY_VCC*%
X86614000Y-62484000D02*
X86614000Y-60960000D01*
X88088000Y-66598000D02*
X88088000Y-65532000D01*
X86614000Y-64008000D02*
X86614000Y-62484000D01*
X86614000Y-65532000D02*
X86614000Y-64008000D01*
X86584000Y-67183000D02*
X87503000Y-67183000D01*
X86584000Y-65562000D02*
X86614000Y-65532000D01*
X86584000Y-67183000D02*
X86584000Y-65562000D01*
X87503000Y-67183000D02*
X88088000Y-66598000D01*
X88088000Y-65532000D02*
X86614000Y-65532000D01*
D51*
%TO.N,Net-(U10-CH2)*%
X77470000Y-96012000D02*
X76962000Y-96520000D01*
D53*
X71318000Y-97282000D02*
X72898000Y-97282000D01*
D51*
X73660000Y-96520000D02*
X72898000Y-97282000D01*
D53*
X66196100Y-96500001D02*
X67200000Y-96500000D01*
D51*
X76962000Y-96520000D02*
X73660000Y-96520000D01*
D53*
X71300000Y-97300000D02*
X71318000Y-97282000D01*
D51*
X72644000Y-97028000D02*
X72898000Y-97282000D01*
D52*
%TO.N,Net-(ADC1-VREF)*%
X237223000Y-75057000D02*
X237223000Y-73533000D01*
X236362275Y-76184725D02*
X236362275Y-75917725D01*
X237223000Y-72047601D02*
X237203699Y-72028300D01*
X236362275Y-75917725D02*
X237223000Y-75057000D01*
X237223000Y-73533000D02*
X237223000Y-72047601D01*
D53*
%TO.N,Net-(U10-CH1)*%
X70842000Y-95758000D02*
X70800000Y-95800000D01*
X67200000Y-95800000D02*
X67000001Y-95999999D01*
X67000001Y-95999999D02*
X66196100Y-95999999D01*
X72898000Y-95758000D02*
X70842000Y-95758000D01*
D51*
%TO.N,Net-(U1-REGCAP1)*%
X98286001Y-67308999D02*
X98539000Y-67056000D01*
X98286001Y-69507100D02*
X98286001Y-67308999D01*
%TO.N,Net-(U1-REGCAP2)*%
X100089000Y-67056000D02*
X100286000Y-67253000D01*
X100286000Y-67253000D02*
X100286000Y-69507100D01*
D52*
%TO.N,Net-(ADC1-RBIAS)*%
X237363000Y-78804000D02*
X237490000Y-78931000D01*
X237064898Y-76242775D02*
X237490000Y-76667877D01*
X237490000Y-76667877D02*
X237490000Y-78931000D01*
D51*
%TO.N,PS_POR*%
X93637100Y-76156000D02*
X94444000Y-76156000D01*
X94444000Y-76156000D02*
X94488000Y-76200000D01*
%TO.N,PS_SRST*%
X106390791Y-49540545D02*
X106390791Y-51399791D01*
X106390791Y-51399791D02*
X106718247Y-51727247D01*
X131069921Y-54488921D02*
X131069921Y-58883121D01*
X106718247Y-51727247D02*
X128308247Y-51727247D01*
X128308247Y-51727247D02*
X131069921Y-54488921D01*
X131069921Y-58883121D02*
X131191000Y-59004200D01*
%TO.N,/SOM240_1(1.5)/MODE3*%
X121158000Y-55437297D02*
X122090858Y-56370155D01*
X121158000Y-55435000D02*
X121158000Y-55437297D01*
%TO.N,/SOM240_1(1.5)/MODE2*%
X122682000Y-56134000D02*
X122936000Y-56388000D01*
X122682000Y-55435000D02*
X122682000Y-56134000D01*
%TO.N,/SOM240_1(1.5)/MODE1*%
X124206000Y-55880000D02*
X124206000Y-55435000D01*
X123825000Y-56261000D02*
X124206000Y-55880000D01*
%TO.N,/SOM240_1(1.5)/MODE0*%
X124936000Y-56229000D02*
X125730000Y-55435000D01*
%TO.N,/SOM240_1(1.5)/SHUTDOWN*%
X120904000Y-59654251D02*
X121595183Y-58963068D01*
X120904000Y-70612000D02*
X120904000Y-59654251D01*
%TO.N,/SOM240_1(1.5)/USB-UART1/USB_RESET#*%
X91186000Y-98552000D02*
X89916000Y-99822000D01*
X91186000Y-95250000D02*
X91186000Y-98552000D01*
X89916000Y-99822000D02*
X85598000Y-99822000D01*
D54*
%TO.N,/SOM240_1(1.5)/CLR_DAC\u002A*%
X213487000Y-52755800D02*
X213487000Y-53721000D01*
X213362000Y-51490200D02*
X211745688Y-51490200D01*
X204736488Y-44481000D02*
X134081000Y-44481000D01*
X213487000Y-52755800D02*
X213487000Y-51615200D01*
X236283500Y-45583500D02*
X236283500Y-47828200D01*
X213487000Y-53721000D02*
X214122000Y-54356000D01*
X213487000Y-51615200D02*
X213362000Y-51490200D01*
X236200000Y-45500000D02*
X236283500Y-45583500D01*
X211745688Y-51490200D02*
X204736488Y-44481000D01*
X132080000Y-46482000D02*
X132080000Y-53340000D01*
X134081000Y-44481000D02*
X132080000Y-46482000D01*
D51*
%TO.N,/SOM240_1(1.5)/SCK_DAC1*%
X214757000Y-47828200D02*
X214757000Y-46355000D01*
%TO.N,/SOM240_1(1.5)/CS{slash}LD_DAC1\u002A*%
X214122000Y-47828200D02*
X214122000Y-46355000D01*
D52*
%TO.N,Disc_Thresh2*%
X211582000Y-47828200D02*
X211582000Y-45306000D01*
D51*
%TO.N,Net-(U2-SDO)*%
X214122000Y-52755800D02*
X214122000Y-51562000D01*
D52*
%TO.N,Disc_Thresh7*%
X211582000Y-55372000D02*
X211582000Y-52755800D01*
X211328000Y-55626000D02*
X211582000Y-55372000D01*
%TO.N,Disc_Thresh1*%
X210947000Y-44958000D02*
X210947000Y-47828200D01*
%TO.N,Disc_Thresh6*%
X212598000Y-55372000D02*
X212217000Y-54991000D01*
X212217000Y-54991000D02*
X212217000Y-52755800D01*
%TO.N,Disc_Thresh3*%
X212217000Y-45720000D02*
X212217000Y-47828200D01*
%TO.N,Disc_Thresh4*%
X212852000Y-47828200D02*
X212852000Y-45974000D01*
%TO.N,Disc_Thresh5*%
X212852000Y-54610000D02*
X212852000Y-52755800D01*
X213360000Y-55118000D02*
X212852000Y-54610000D01*
%TO.N,/SOM240_1(1.5)/SDI_DAC_THRES*%
X214757000Y-52755800D02*
X214757000Y-51510399D01*
D51*
X204852275Y-44095625D02*
X209854825Y-49098175D01*
D52*
X214757000Y-51510399D02*
X214300601Y-51054000D01*
D51*
X131445000Y-45720000D02*
X133069375Y-44095625D01*
D52*
X211819312Y-51054000D02*
X209859156Y-49093844D01*
D51*
X133069375Y-44095625D02*
X204852275Y-44095625D01*
D52*
X214300601Y-51054000D02*
X211819312Y-51054000D01*
D51*
X131450500Y-52964500D02*
X131445000Y-52959000D01*
X131445000Y-52959000D02*
X131445000Y-45720000D01*
D52*
%TO.N,Disc_Thresh8*%
X210566000Y-55118000D02*
X210947000Y-54737000D01*
X210947000Y-54737000D02*
X210947000Y-52755800D01*
D51*
%TO.N,/SOM240_1(1.5)/CS{slash}LD_DAC2\u002A*%
X129921000Y-44831000D02*
X132707625Y-42044375D01*
X129921000Y-49022000D02*
X129921000Y-44831000D01*
X235196425Y-51154375D02*
X235648500Y-51606450D01*
X132707625Y-42044375D02*
X223915213Y-42044375D01*
X223915213Y-42044375D02*
X233025213Y-51154375D01*
X233025213Y-51154375D02*
X235196425Y-51154375D01*
X235648500Y-51606450D02*
X235648500Y-52755800D01*
D52*
%TO.N,READBIAS2*%
X236918500Y-54800500D02*
X236918500Y-52755800D01*
X237998000Y-55880000D02*
X236918500Y-54800500D01*
X241860500Y-55880000D02*
X237998000Y-55880000D01*
D53*
%TO.N,Net-(U4-SDO)*%
X235648500Y-45748945D02*
X230899555Y-41000000D01*
X235648500Y-47828200D02*
X235648500Y-45748945D01*
X230899555Y-41000000D02*
X229500000Y-41000000D01*
X235648500Y-47828200D02*
X235634000Y-47813700D01*
D52*
%TO.N,READBIAS1*%
X241046000Y-55294500D02*
X238174500Y-55294500D01*
X238174500Y-55294500D02*
X237553500Y-54673500D01*
X237553500Y-54673500D02*
X237553500Y-52755800D01*
%TO.N,DISCBIAS*%
X240284000Y-54356000D02*
X239262100Y-54356000D01*
X239262100Y-54356000D02*
X238823500Y-53917400D01*
X238823500Y-53917400D02*
X238823500Y-52755800D01*
D51*
%TO.N,/SOM240_1(1.5)/SDI_DAC_BIAS*%
X234892375Y-49333625D02*
X235013500Y-49212500D01*
X131628000Y-41600000D02*
X226004000Y-41600000D01*
X129286000Y-43942000D02*
X131628000Y-41600000D01*
X233737625Y-49333625D02*
X234892375Y-49333625D01*
X226004000Y-41600000D02*
X233737625Y-49333625D01*
X129286000Y-47498000D02*
X129286000Y-43942000D01*
X235013500Y-49212500D02*
X235013500Y-47828200D01*
D54*
%TO.N,/SOM240_1(1.5)/SCK_DAC2*%
X130810000Y-45085000D02*
X133350000Y-42545000D01*
X223914676Y-42545000D02*
X232931676Y-51562000D01*
X133350000Y-42545000D02*
X223914676Y-42545000D01*
X130810000Y-52451000D02*
X130810000Y-45085000D01*
X232931676Y-51562000D02*
X234950000Y-51562000D01*
X234950000Y-51562000D02*
X235013500Y-51625500D01*
X235013500Y-51625500D02*
X235013500Y-52755800D01*
D52*
%TO.N,WBUFBIAS*%
X238539012Y-54709000D02*
X238188500Y-54358488D01*
X238188500Y-54358488D02*
X238188500Y-52755800D01*
D55*
%TO.N,/SOM240_1(1.5)/ADC_CLK1+*%
X225273810Y-87126190D02*
X224291000Y-88109000D01*
X139013001Y-59003001D02*
X138938000Y-58928000D01*
X225273810Y-87097810D02*
X225273810Y-87126190D01*
X224291000Y-88109000D02*
X160434800Y-88109000D01*
X139013001Y-66687201D02*
X139013001Y-59003001D01*
X160434800Y-88109000D02*
X139013001Y-66687201D01*
%TO.N,/SOM240_1(1.5)/ADC_CLK1-*%
X224814190Y-86682710D02*
X223837900Y-87659000D01*
X139463002Y-66500802D02*
X139463002Y-59003001D01*
X160621200Y-87659000D02*
X139463002Y-66500802D01*
X223837900Y-87659000D02*
X160621200Y-87659000D01*
X224814190Y-86638190D02*
X224814190Y-86682710D01*
X139463002Y-59003001D02*
X139538003Y-58928000D01*
%TO.N,/SOM240_1(1.5)/FrameClk1+*%
X136998104Y-59062518D02*
X136919677Y-58984091D01*
X236703810Y-90399810D02*
X236631290Y-90399810D01*
X160942800Y-91157000D02*
X136998104Y-67212304D01*
X136998104Y-67212304D02*
X136998104Y-59062518D01*
X235874100Y-91157000D02*
X160942800Y-91157000D01*
X236631290Y-90399810D02*
X235874100Y-91157000D01*
%TO.N,/SOM240_1(1.5)/FrameClk1-*%
X236159810Y-89940190D02*
X235393000Y-90707000D01*
X137448105Y-67025905D02*
X137448105Y-59062518D01*
X235393000Y-90707000D02*
X161129200Y-90707000D01*
X137448105Y-59062518D02*
X137561538Y-58949085D01*
X236244190Y-89940190D02*
X236159810Y-89940190D01*
X161129200Y-90707000D02*
X137448105Y-67025905D01*
%TO.N,/SOM240_1(1.5)/DataClk1-*%
X235461000Y-92739000D02*
X161129200Y-92739000D01*
X133626431Y-65236231D02*
X133626431Y-59008429D01*
X161129200Y-92739000D02*
X133626431Y-65236231D01*
X238005810Y-90194190D02*
X235461000Y-92739000D01*
X238022190Y-90194190D02*
X238005810Y-90194190D01*
X133626431Y-59008429D02*
X133741644Y-58893216D01*
%TO.N,/SOM240_1(1.5)/DataClk1+*%
X238446190Y-90653810D02*
X235911000Y-93189000D01*
X235911000Y-93189000D02*
X160942800Y-93189000D01*
X238481810Y-90653810D02*
X238446190Y-90653810D01*
X133176429Y-59008429D02*
X133096000Y-58928000D01*
X133176429Y-65422629D02*
X133176429Y-59008429D01*
X160942800Y-93189000D02*
X133176429Y-65422629D01*
%TO.N,/SOM240_1(1.5)/ADC_CLK2+*%
X135978199Y-59001693D02*
X136144000Y-58835892D01*
X136144000Y-58835892D02*
X136144000Y-52388200D01*
X198788801Y-76679000D02*
X199922190Y-77812389D01*
X198788800Y-76679000D02*
X198788801Y-76679000D01*
X199922190Y-77812389D02*
X199922190Y-77953810D01*
X138269200Y-50263000D02*
X172372800Y-50263000D01*
X172372800Y-50263000D02*
X198788800Y-76679000D01*
X136144000Y-52388200D02*
X138269200Y-50263000D01*
%TO.N,/SOM240_1(1.5)/ADC_CLK2-*%
X198975199Y-76229000D02*
X200240389Y-77494190D01*
X198975199Y-76228999D02*
X198975199Y-76229000D01*
X135393677Y-58866278D02*
X135636000Y-58623955D01*
X200240389Y-77494190D02*
X200381810Y-77494190D01*
X138082800Y-49813000D02*
X172559200Y-49813000D01*
X172559200Y-49813000D02*
X198975199Y-76228999D01*
X135636000Y-58623955D02*
X135636000Y-52259800D01*
X135636000Y-52259800D02*
X138082800Y-49813000D01*
D53*
%TO.N,OscClkOut*%
X176900000Y-114900000D02*
X115000000Y-114900000D01*
X115000000Y-114900000D02*
X109900000Y-120000000D01*
X109900000Y-125000000D02*
X110100000Y-125200000D01*
X109900000Y-120000000D02*
X109900000Y-125000000D01*
%TO.N,V_ped8*%
X218757500Y-116522500D02*
X222072200Y-116522500D01*
X218440000Y-116840000D02*
X218757500Y-116522500D01*
%TO.N,V_ped7*%
X219138500Y-117157500D02*
X222072200Y-117157500D01*
X218948000Y-117348000D02*
X219138500Y-117157500D01*
%TO.N,V_ped3*%
X226999800Y-117792500D02*
X226936300Y-117856000D01*
X226936300Y-117856000D02*
X224028000Y-117856000D01*
%TO.N,HPB00_CC_N*%
X193821298Y-134210000D02*
X192621298Y-135410000D01*
X240400000Y-133100000D02*
X240400000Y-133367586D01*
X239557586Y-134210000D02*
X193821298Y-134210000D01*
X192621298Y-135410000D02*
X131078701Y-135410000D01*
X126729810Y-131061109D02*
X126729810Y-130870190D01*
X131078701Y-135410000D02*
X126729810Y-131061109D01*
X240400000Y-133367586D02*
X239557586Y-134210000D01*
%TO.N,V_ped1*%
X225107500Y-116522500D02*
X225044000Y-116586000D01*
X226999800Y-116522500D02*
X225107500Y-116522500D01*
%TO.N,V_ped5*%
X220662500Y-118427500D02*
X222072200Y-118427500D01*
X220472000Y-118618000D02*
X220662500Y-118427500D01*
%TO.N,V_ped4*%
X226999800Y-118427500D02*
X223710500Y-118427500D01*
X223710500Y-118427500D02*
X223520000Y-118618000D01*
%TO.N,HPC09_P*%
X134061109Y-130229810D02*
X133870190Y-130229810D01*
X156378702Y-127790000D02*
X152668702Y-131500000D01*
X181665000Y-127790000D02*
X156378702Y-127790000D01*
X181900000Y-128025000D02*
X181665000Y-127790000D01*
X135331299Y-131500000D02*
X134061109Y-130229810D01*
X152668702Y-131500000D02*
X135331299Y-131500000D01*
%TO.N,DAC_V_IN*%
X114100000Y-114300000D02*
X109860500Y-118539500D01*
X178000000Y-114300000D02*
X114100000Y-114300000D01*
X109860500Y-118539500D02*
X109860500Y-118600000D01*
%TO.N,HPB01_P*%
X131721299Y-138690000D02*
X124161109Y-131129810D01*
X196378702Y-135590000D02*
X193278702Y-138690000D01*
X193278702Y-138690000D02*
X131721299Y-138690000D01*
X124161109Y-131129810D02*
X123970190Y-131129810D01*
X240542052Y-135590000D02*
X196378702Y-135590000D01*
X242066026Y-134066026D02*
X240542052Y-135590000D01*
%TO.N,V_ped6*%
X220281500Y-117792500D02*
X222072200Y-117792500D01*
X219964000Y-118110000D02*
X220281500Y-117792500D01*
%TO.N,V_ped2*%
X224726500Y-117157500D02*
X224536000Y-117348000D01*
X226999800Y-117157500D02*
X224726500Y-117157500D01*
%TO.N,HPB17_P*%
X157153700Y-130177598D02*
X154021298Y-133310000D01*
X188100000Y-129942598D02*
X187865000Y-130177598D01*
X130129810Y-130761109D02*
X130129810Y-130570190D01*
X132678701Y-133310000D02*
X130129810Y-130761109D01*
X154021298Y-133310000D02*
X132678701Y-133310000D01*
X187865000Y-130177598D02*
X157153700Y-130177598D01*
%TO.N,HPC02_P*%
X132335000Y-119690000D02*
X132200000Y-119825000D01*
X174600000Y-123425000D02*
X174365000Y-123190000D01*
X156021298Y-123190000D02*
X152521298Y-119690000D01*
X174365000Y-123190000D02*
X156021298Y-123190000D01*
X152521298Y-119690000D02*
X132335000Y-119690000D01*
%TO.N,HPB00_CC_P*%
X192778702Y-135790000D02*
X130921299Y-135790000D01*
X130921299Y-135790000D02*
X126461109Y-131329810D01*
X239714988Y-134590000D02*
X193978702Y-134590000D01*
X193978702Y-134590000D02*
X192778702Y-135790000D01*
X241052494Y-133252494D02*
X239714988Y-134590000D01*
X126461109Y-131329810D02*
X126270190Y-131329810D01*
%TO.N,HPC02_N*%
X132335000Y-119310000D02*
X132200000Y-119175000D01*
X152678702Y-119310000D02*
X132335000Y-119310000D01*
X174600000Y-122575000D02*
X174365000Y-122810000D01*
X174365000Y-122810000D02*
X156178702Y-122810000D01*
X156178702Y-122810000D02*
X152678702Y-119310000D01*
%TO.N,HPC00_CC_N*%
X151678702Y-120410000D02*
X155778702Y-124510000D01*
X133900000Y-120275000D02*
X134035000Y-120410000D01*
X134035000Y-120410000D02*
X151678702Y-120410000D01*
X155778702Y-124510000D02*
X176765000Y-124510000D01*
X176765000Y-124510000D02*
X177000000Y-124275000D01*
%TO.N,HPC04_P*%
X129429810Y-119438891D02*
X129429810Y-119629810D01*
X130178701Y-118690000D02*
X129429810Y-119438891D01*
X153721298Y-118690000D02*
X130178701Y-118690000D01*
X156621298Y-121590000D02*
X153721298Y-118690000D01*
X171600000Y-121825000D02*
X171365000Y-121590000D01*
X171365000Y-121590000D02*
X156621298Y-121590000D01*
%TO.N,Net-(U13-FEEDBACK)*%
X230200000Y-117900000D02*
X228700000Y-117900000D01*
X230805000Y-117295000D02*
X230200000Y-117900000D01*
X230865000Y-118565000D02*
X230200000Y-117900000D01*
X231945700Y-118565000D02*
X230865000Y-118565000D01*
X228700000Y-118482900D02*
X228700000Y-117900000D01*
X228120400Y-119062500D02*
X228700000Y-118482900D01*
X231945700Y-117295000D02*
X230805000Y-117295000D01*
X226999800Y-119062500D02*
X228120400Y-119062500D01*
D52*
%TO.N,/SOM240_1(1.5)/SDcard1/DAT1B_1*%
X83843000Y-122913000D02*
X85848000Y-120908000D01*
X85848000Y-120908000D02*
X85848000Y-119348400D01*
X72644000Y-122913000D02*
X83843000Y-122913000D01*
D53*
%TO.N,HPB04_N*%
X186300000Y-129425000D02*
X186065000Y-129190000D01*
X131710000Y-131278702D02*
X131710000Y-130135000D01*
X133021298Y-132590000D02*
X131710000Y-131278702D01*
X153278702Y-132590000D02*
X133021298Y-132590000D01*
X156678702Y-129190000D02*
X153278702Y-132590000D01*
X131710000Y-130135000D02*
X131575000Y-130000000D01*
X186065000Y-129190000D02*
X156678702Y-129190000D01*
%TO.N,HPB_CLK0_N*%
X191121298Y-134310000D02*
X131978701Y-134310000D01*
X192421298Y-133010000D02*
X191121298Y-134310000D01*
X238845565Y-133010000D02*
X192421298Y-133010000D01*
X239600000Y-132255565D02*
X238845565Y-133010000D01*
X128629810Y-130961109D02*
X128629810Y-130770190D01*
X239600000Y-132100000D02*
X239600000Y-132255565D01*
X131978701Y-134310000D02*
X128629810Y-130961109D01*
%TO.N,HPB04_P*%
X186300000Y-128575000D02*
X186065000Y-128810000D01*
X153121298Y-132210000D02*
X133178702Y-132210000D01*
X186065000Y-128810000D02*
X156521298Y-128810000D01*
X133178702Y-132210000D02*
X132090000Y-131121298D01*
X132090000Y-130135000D02*
X132225000Y-130000000D01*
X156521298Y-128810000D02*
X153121298Y-132210000D01*
X132090000Y-131121298D02*
X132090000Y-130135000D01*
%TO.N,HPC04_N*%
X156778702Y-121210000D02*
X153878702Y-118310000D01*
X171600000Y-120975000D02*
X171365000Y-121210000D01*
X129161109Y-119170190D02*
X128970190Y-119170190D01*
X130021299Y-118310000D02*
X129161109Y-119170190D01*
X171365000Y-121210000D02*
X156778702Y-121210000D01*
X153878702Y-118310000D02*
X130021299Y-118310000D01*
%TO.N,HPB17_N*%
X132521299Y-133690000D02*
X129861109Y-131029810D01*
X129861109Y-131029810D02*
X129670190Y-131029810D01*
X157311104Y-130557598D02*
X154178702Y-133690000D01*
X154178702Y-133690000D02*
X132521299Y-133690000D01*
X188100000Y-130792598D02*
X187865000Y-130557598D01*
X187865000Y-130557598D02*
X157311104Y-130557598D01*
%TO.N,HPC01_N*%
X135435000Y-121510000D02*
X135300000Y-121375000D01*
X150778702Y-121510000D02*
X135435000Y-121510000D01*
X178365000Y-126010000D02*
X155278702Y-126010000D01*
X155278702Y-126010000D02*
X150778702Y-121510000D01*
X178600000Y-125775000D02*
X178365000Y-126010000D01*
%TO.N,HPB01_N*%
X241500000Y-133800000D02*
X241500000Y-134094650D01*
X196221298Y-135210000D02*
X193121298Y-138310000D01*
X131878701Y-138310000D02*
X124429810Y-130861109D01*
X193121298Y-138310000D02*
X131878701Y-138310000D01*
X124429810Y-130861109D02*
X124429810Y-130670190D01*
X240384650Y-135210000D02*
X196221298Y-135210000D01*
X241500000Y-134094650D02*
X240384650Y-135210000D01*
%TO.N,HPC01_P*%
X178600000Y-126625000D02*
X178365000Y-126390000D01*
X155121298Y-126390000D02*
X150621298Y-121890000D01*
X178365000Y-126390000D02*
X155121298Y-126390000D01*
X150621298Y-121890000D02*
X135435000Y-121890000D01*
X135435000Y-121890000D02*
X135300000Y-122025000D01*
%TO.N,HPC09_N*%
X181900000Y-127175000D02*
X181665000Y-127410000D01*
X156221298Y-127410000D02*
X152531298Y-131100000D01*
X134329810Y-129961109D02*
X134329810Y-129770190D01*
X135468701Y-131100000D02*
X134329810Y-129961109D01*
X181665000Y-127410000D02*
X156221298Y-127410000D01*
X152531298Y-131100000D02*
X135468701Y-131100000D01*
%TO.N,HPB_CLK0_P*%
X131821299Y-134690000D02*
X128361109Y-131229810D01*
X128361109Y-131229810D02*
X128170190Y-131229810D01*
X192578702Y-133390000D02*
X191278702Y-134690000D01*
X239002967Y-133390000D02*
X192578702Y-133390000D01*
X239868701Y-132524266D02*
X239002967Y-133390000D01*
X191278702Y-134690000D02*
X131821299Y-134690000D01*
X240024266Y-132524266D02*
X239868701Y-132524266D01*
%TO.N,HPC00_CC_P*%
X177000000Y-125125000D02*
X176765000Y-124890000D01*
X134035000Y-120790000D02*
X133900000Y-120925000D01*
X155621298Y-124890000D02*
X151521298Y-120790000D01*
X176765000Y-124890000D02*
X155621298Y-124890000D01*
X151521298Y-120790000D02*
X134035000Y-120790000D01*
D52*
%TO.N,/SOM240_1(1.5)/SDcard1/CLKB_1*%
X82575001Y-126212999D02*
X72364999Y-126212999D01*
X86848000Y-121940000D02*
X82575001Y-126212999D01*
X86848000Y-119348400D02*
X86848000Y-121940000D01*
%TO.N,/SOM240_1(1.5)/SDcard1/DAT2B_1*%
X87573000Y-116623211D02*
X89322626Y-116623211D01*
X89322626Y-116623211D02*
X89408000Y-116537837D01*
%TO.N,/SOM240_1(1.5)/SDcard1/DAT3B_1*%
X90699463Y-117623463D02*
X87573000Y-117623463D01*
X92202000Y-123190000D02*
X92202000Y-119126000D01*
X92202000Y-119126000D02*
X90699463Y-117623463D01*
X72109000Y-129513000D02*
X85879000Y-129513000D01*
X85879000Y-129513000D02*
X92202000Y-123190000D01*
%TO.N,/SOM240_1(1.5)/SDcard1/CMDB_1*%
X90170000Y-119888000D02*
X88905715Y-118623715D01*
X72786999Y-128412999D02*
X83931001Y-128412999D01*
X88905715Y-118623715D02*
X87573000Y-118623715D01*
X83931001Y-128412999D02*
X90170000Y-122174000D01*
X90170000Y-122174000D02*
X90170000Y-119888000D01*
%TO.N,/SOM240_1(1.5)/SDcard1/DAT0B_1*%
X71820999Y-124013001D02*
X83504999Y-124013001D01*
X86348001Y-121169999D02*
X86348001Y-119348400D01*
X83504999Y-124013001D02*
X86348001Y-121169999D01*
D51*
%TO.N,/SOM240_1(1.5)/SD_DAT0*%
X124460000Y-67564000D02*
X124968000Y-68072000D01*
X124968000Y-73446000D02*
X86848000Y-111566000D01*
X124968000Y-68072000D02*
X124968000Y-73446000D01*
X86848000Y-111566000D02*
X86848000Y-115398400D01*
%TO.N,/SOM240_1(1.5)/UART_RXD*%
X123952000Y-72771000D02*
X123952000Y-61779360D01*
X123952000Y-61779360D02*
X123571000Y-61398360D01*
X123571000Y-61398360D02*
X123571000Y-58420000D01*
D54*
%TO.N,Net-(J10A-PS_ERROR_OUT_M2C)*%
X176995389Y-99217000D02*
X177178389Y-99400000D01*
X126771400Y-63779400D02*
X162209000Y-99217000D01*
X181900000Y-99400000D02*
X182000000Y-99500000D01*
X177178389Y-99400000D02*
X181900000Y-99400000D01*
X162209000Y-99217000D02*
X176995389Y-99217000D01*
D51*
X126771400Y-58445400D02*
X126771400Y-63779400D01*
%TO.N,/SOM240_1(1.5)/JTAG_CLK*%
X77965300Y-51062001D02*
X80493992Y-51062001D01*
X80493992Y-51062001D02*
X80517990Y-51085999D01*
%TO.N,/SOM240_1(1.5)/SD_DAT2*%
X84348000Y-111693999D02*
X84348000Y-111108618D01*
X119050998Y-76405620D02*
X119050998Y-58978425D01*
X84348000Y-111108618D02*
X119050998Y-76405620D01*
D52*
X84348000Y-115398400D02*
X84348000Y-111693999D01*
D51*
%TO.N,/SOM240_1(1.5)/UART_TXD*%
X123206212Y-72754788D02*
X123190000Y-72771000D01*
X123206212Y-58795308D02*
X123206212Y-72754788D01*
X122806884Y-58395980D02*
X123206212Y-58795308D01*
%TO.N,/SOM240_1(1.5)/ETH_RXD0*%
X113284000Y-65229480D02*
X114168877Y-64344603D01*
X114168877Y-64344603D02*
X114168877Y-59042558D01*
D54*
%TO.N,/SOM240_1(1.5)/ETH_RXD2*%
X113792000Y-67564000D02*
X116614825Y-64741175D01*
X116614825Y-64741175D02*
X116614825Y-59050953D01*
D51*
%TO.N,/SOM240_1(1.5)/SD_DAT1*%
X125476000Y-73580583D02*
X125476000Y-68580000D01*
D52*
X88572103Y-116123085D02*
X89408000Y-115287188D01*
X87573000Y-116123085D02*
X88572103Y-116123085D01*
D51*
X125476000Y-67056000D02*
X125222000Y-66802000D01*
D52*
X89408000Y-115287188D02*
X89408000Y-109648582D01*
D51*
X125476000Y-68580000D02*
X125476000Y-67056000D01*
D52*
X89408000Y-109648582D02*
X90765291Y-108291291D01*
D51*
X90765291Y-108291291D02*
X125476000Y-73580583D01*
%TO.N,/SOM240_1(1.5)/JTAG_TMS*%
X79756000Y-50292000D02*
X79502000Y-50546000D01*
X77981299Y-50546000D02*
X77965300Y-50561999D01*
X81280000Y-50292000D02*
X79756000Y-50292000D01*
X79502000Y-50546000D02*
X77981299Y-50546000D01*
D54*
%TO.N,Net-(J10A-PWROFF_C2M_L)*%
X180966000Y-104700000D02*
X182000000Y-104700000D01*
X161544000Y-100076000D02*
X176342000Y-100076000D01*
X176342000Y-100076000D02*
X180966000Y-104700000D01*
D51*
X125492630Y-58530370D02*
X125492630Y-64024630D01*
X125492630Y-64024630D02*
X126148279Y-64680279D01*
D54*
X126148279Y-64680279D02*
X161544000Y-100076000D01*
%TO.N,/SOM240_1(1.5)/ETH_RX_CTRL*%
X112776000Y-64008000D02*
X113538000Y-63246000D01*
X113538000Y-63246000D02*
X113538000Y-59004200D01*
%TO.N,/SOM240_1(1.5)/ETH_RXD3*%
X114046000Y-68580000D02*
X117279500Y-65346500D01*
X117279500Y-65346500D02*
X117279500Y-59081325D01*
D51*
%TO.N,/SOM240_1(1.5)/ETH_RXD1*%
X114046000Y-65622248D02*
X114782600Y-64885648D01*
X114782600Y-64885648D02*
X114782600Y-59055000D01*
%TO.N,/SOM240_1(1.5)/SD_DAT3*%
X119656810Y-77457190D02*
X85348000Y-111766000D01*
X119656810Y-58973767D02*
X119656810Y-77457190D01*
X85348000Y-111766000D02*
X85348000Y-115398400D01*
D54*
%TO.N,/SOM240_1(1.5)/ETH_RX_CLK*%
X113792000Y-66548000D02*
X115993121Y-64346879D01*
X115993121Y-64346879D02*
X115993121Y-59064401D01*
D51*
%TO.N,/SOM240_1(1.5)/JTAG_TDO*%
X80264000Y-52085997D02*
X80240002Y-52061999D01*
X80264000Y-52085997D02*
X126507997Y-52085997D01*
X126507997Y-52085997D02*
X127005500Y-52583500D01*
X80240002Y-52061999D02*
X77965300Y-52061999D01*
D54*
%TO.N,Net-(J10A-PS_ERROR_STATUS_M2C)*%
X161811026Y-99568000D02*
X176850000Y-99568000D01*
D51*
X126136400Y-58496200D02*
X126136400Y-63893374D01*
X126136400Y-63893374D02*
X126498279Y-64255253D01*
D54*
X176850000Y-99568000D02*
X179382000Y-102100000D01*
X179382000Y-102100000D02*
X182000000Y-102100000D01*
X126498279Y-64255253D02*
X161811026Y-99568000D01*
D51*
%TO.N,/SOM240_1(1.5)/JTAG_TDI*%
X126225372Y-52565372D02*
X80784628Y-52565372D01*
X80784628Y-52565372D02*
X80264000Y-53086000D01*
X77965300Y-52562001D02*
X79740001Y-52562001D01*
X126238000Y-52578000D02*
X126225372Y-52565372D01*
X79740001Y-52562001D02*
X80264000Y-53086000D01*
D52*
%TO.N,/SOM240_1(1.5)/ethernet1/PHY_MDI3_P*%
X86155081Y-78378500D02*
X87229500Y-78378500D01*
X84044000Y-76073000D02*
X84044000Y-76267419D01*
X84044000Y-76267419D02*
X86155081Y-78378500D01*
X89951999Y-75656001D02*
X93637100Y-75656001D01*
X87229500Y-78378500D02*
X89951999Y-75656001D01*
%TO.N,/SOM240_1(1.5)/ethernet1/PHY_MDI2_P*%
X89195419Y-73656000D02*
X93637100Y-73656000D01*
X87012919Y-75838500D02*
X89195419Y-73656000D01*
X84044000Y-73533000D02*
X84044000Y-74593660D01*
X85288840Y-75838500D02*
X87012919Y-75838500D01*
X84044000Y-74593660D02*
X85288840Y-75838500D01*
%TO.N,/SOM240_1(1.5)/ethernet1/PHY_MDI3_N*%
X88771001Y-75155999D02*
X93637100Y-75155999D01*
X86584000Y-77343000D02*
X88771001Y-75155999D01*
%TO.N,/SOM240_1(1.5)/ethernet1/PHY_MDI0_P*%
X84044000Y-69513660D02*
X85288840Y-70758500D01*
X92945200Y-70758500D02*
X93047700Y-70656000D01*
X84044000Y-68453000D02*
X84044000Y-69513660D01*
X93047700Y-70656000D02*
X93637100Y-70656000D01*
X85288840Y-70758500D02*
X92945200Y-70758500D01*
%TO.N,Net-(Q6-D)*%
X96161500Y-83416500D02*
X97028000Y-82550000D01*
X73955500Y-83416500D02*
X96161500Y-83416500D01*
X73660000Y-83121000D02*
X73955500Y-83416500D01*
%TO.N,/SOM240_1(1.5)/ethernet1/PHY_MDI0_N*%
X93637100Y-70155999D02*
X87016999Y-70155999D01*
X87016999Y-70155999D02*
X86584000Y-69723000D01*
%TO.N,/SOM240_1(1.5)/ethernet1/PHY_MDI1_P*%
X87012919Y-73298500D02*
X87655420Y-72655999D01*
X87655420Y-72655999D02*
X93637100Y-72655999D01*
X85288840Y-73298500D02*
X87012919Y-73298500D01*
X84044000Y-70993000D02*
X84044000Y-72053660D01*
X84044000Y-72053660D02*
X85288840Y-73298500D01*
%TO.N,/SOM240_1(1.5)/ethernet1/PHY_MDI1_N*%
X86691000Y-72156000D02*
X86584000Y-72263000D01*
X93637100Y-72156000D02*
X86691000Y-72156000D01*
%TO.N,Net-(Q6-G)*%
X96012000Y-80581000D02*
X96837000Y-79756000D01*
X96012000Y-81026000D02*
X96012000Y-80581000D01*
%TO.N,/SOM240_1(1.5)/ethernet1/PHY_MDI2_N*%
X86584000Y-74803000D02*
X88231000Y-73156000D01*
X88231000Y-73156000D02*
X93637100Y-73156000D01*
D54*
%TO.N,/SOM240_1(1.5)/ETH_TXD3*%
X102316299Y-76454000D02*
X110872000Y-76454000D01*
X101434900Y-76156000D02*
X102018299Y-76156000D01*
X110872000Y-76454000D02*
X111126000Y-76708000D01*
X102018299Y-76156000D02*
X102316299Y-76454000D01*
D51*
%TO.N,/SOM240_1(1.5)/ethernet1/OSC25_OUT*%
X96785999Y-64302999D02*
X96785999Y-69507100D01*
X96300000Y-63817000D02*
X96785999Y-64302999D01*
D54*
%TO.N,Net-(U1-RXD[2])*%
X103144000Y-72156000D02*
X101434900Y-72156000D01*
X103632000Y-72644000D02*
X103144000Y-72156000D01*
%TO.N,Net-(U1-RX_CLK)*%
X102590998Y-71656001D02*
X102616000Y-71630999D01*
X101434900Y-71656001D02*
X102590998Y-71656001D01*
%TO.N,Net-(U1-RX_CTRL)*%
X101548001Y-70155999D02*
X101434900Y-70155999D01*
X102870000Y-68834000D02*
X101548001Y-70155999D01*
D51*
%TO.N,Net-(U1-CONFIG)*%
X93637100Y-76656001D02*
X92062999Y-76656001D01*
X92062999Y-76656001D02*
X92011000Y-76708000D01*
%TO.N,Net-(U1-RSET)*%
X94786000Y-69507100D02*
X94786000Y-68624000D01*
X94786000Y-68624000D02*
X94742000Y-68580000D01*
D54*
%TO.N,/SOM240_1(1.5)/ETH_TXD2*%
X101434900Y-75656001D02*
X101953301Y-75656001D01*
X102116300Y-75819000D02*
X114238000Y-75819000D01*
X101953301Y-75656001D02*
X102116300Y-75819000D01*
X114238000Y-75819000D02*
X114365000Y-75946000D01*
D51*
%TO.N,/SOM240_1(1.5)/ETH_MDIO*%
X97286000Y-77304900D02*
X97286000Y-77974000D01*
X97286000Y-77974000D02*
X97028000Y-78232000D01*
D54*
%TO.N,Net-(U1-RXD[1])*%
X102834001Y-71155999D02*
X103378000Y-70612000D01*
X101434900Y-71155999D02*
X102834001Y-71155999D01*
%TO.N,/SOM240_1(1.5)/ETH_TXD1*%
X101434900Y-74156001D02*
X114353001Y-74156001D01*
X114353001Y-74156001D02*
X114365000Y-74168000D01*
%TO.N,Net-(U1-RXD[0])*%
X101434900Y-70656000D02*
X102572000Y-70656000D01*
X102572000Y-70656000D02*
X102616000Y-70612000D01*
%TO.N,/SOM240_1(1.5)/ETH_TXD0*%
X110622000Y-73656000D02*
X111126000Y-73152000D01*
X101434900Y-73656000D02*
X110622000Y-73656000D01*
D51*
%TO.N,/SOM240_1(1.5)/ETH_MDC*%
X98425000Y-75565000D02*
X97786000Y-76204000D01*
X97786000Y-76204000D02*
X97786000Y-77304900D01*
D54*
%TO.N,/SOM240_1(1.5)/ETH_TX_CLK*%
X101948274Y-75155999D02*
X102230275Y-75438000D01*
X102230275Y-75438000D02*
X110618000Y-75438000D01*
X101434900Y-75155999D02*
X101948274Y-75155999D01*
X110618000Y-75438000D02*
X111126000Y-74930000D01*
%TO.N,Net-(U1-RXD[3])*%
X102795485Y-72655999D02*
X103210510Y-73071024D01*
X101434900Y-72655999D02*
X102795485Y-72655999D01*
%TO.N,/SOM240_1(1.5)/ETH_TX_CTRL*%
X102997000Y-77724000D02*
X114365000Y-77724000D01*
X101929001Y-76656001D02*
X102997000Y-77724000D01*
X101434900Y-76656001D02*
X101929001Y-76656001D01*
D52*
%TO.N,/SOM240_1(1.5)/SD_CLK*%
X87573000Y-117123337D02*
X96227531Y-117123337D01*
D51*
X126238000Y-66802000D02*
X125730000Y-66294000D01*
X126238000Y-73406000D02*
X126238000Y-66802000D01*
D52*
X96227531Y-117123337D02*
X126238000Y-87112868D01*
X126238000Y-87112868D02*
X126238000Y-73406000D01*
D53*
%TO.N,/SOM240_2(1.5)/SCK_DAC_ped*%
X114800000Y-122891119D02*
X113583675Y-124107444D01*
X222394000Y-123300000D02*
X179200000Y-123300000D01*
X173600000Y-117700000D02*
X117900000Y-117700000D01*
X225361500Y-120332500D02*
X222394000Y-123300000D01*
X117900000Y-117700000D02*
X114800000Y-120800000D01*
X179200000Y-123300000D02*
X173600000Y-117700000D01*
X226999800Y-120332500D02*
X225361500Y-120332500D01*
X114800000Y-120800000D02*
X114800000Y-122891119D01*
D51*
%TO.N,/SOM240_1(1.5)/SD_CMD*%
X85848000Y-111915998D02*
X85848000Y-115398400D01*
X120291765Y-77472233D02*
X85848000Y-111915998D01*
X120291765Y-59014801D02*
X120291765Y-77472233D01*
%TO.N,/SOM240_1(1.5)/UART_RTS*%
X121539000Y-60452000D02*
X122174000Y-59817000D01*
X121539000Y-72771000D02*
X121539000Y-60452000D01*
X122174000Y-59817000D02*
X122174000Y-58674000D01*
%TO.N,/SOM240_1(1.5)/UART_CTS*%
X122726837Y-59125707D02*
X122726837Y-63074163D01*
X122726837Y-63074163D02*
X122301000Y-63500000D01*
X122301000Y-63500000D02*
X122301000Y-72771000D01*
D54*
%TO.N,Net-(J10B-MIO54)*%
X116015000Y-74168000D02*
X116078000Y-74168000D01*
X116078000Y-74168000D02*
X116840000Y-73406000D01*
D53*
%TO.N,/SOM240_2(1.5)/CS{slash}LD_DAC_ped\u002A*%
X116100000Y-116900000D02*
X113200000Y-119800000D01*
X226999800Y-119697500D02*
X224980500Y-119697500D01*
X174200000Y-116900000D02*
X116100000Y-116900000D01*
X180000000Y-122700000D02*
X174200000Y-116900000D01*
X224980500Y-119697500D02*
X221978000Y-122700000D01*
X221978000Y-122700000D02*
X180000000Y-122700000D01*
D54*
%TO.N,Net-(J10B-PWRGD_PL_M2C)*%
X127952500Y-69278500D02*
X127952500Y-75652500D01*
X159700000Y-107400000D02*
X174400000Y-107400000D01*
X127952500Y-75652500D02*
X159700000Y-107400000D01*
%TO.N,Net-(J10B-MIO64)*%
X112776000Y-73152000D02*
X116078000Y-73152000D01*
%TO.N,Net-(J10B-PWRGD_FPD_M2C)*%
X169072000Y-101000000D02*
X170272000Y-102200000D01*
X161706000Y-101000000D02*
X169072000Y-101000000D01*
X170272000Y-102200000D02*
X174400000Y-102200000D01*
X129540000Y-68834000D02*
X161706000Y-101000000D01*
D52*
%TO.N,Net-(C94-Pad1)*%
X78627986Y-109956600D02*
X78627986Y-109332014D01*
X78627986Y-109332014D02*
X78994000Y-108966000D01*
X78642000Y-110998000D02*
X78642000Y-109970614D01*
X78642000Y-109970614D02*
X78627986Y-109956600D01*
%TO.N,Net-(Q4-D)*%
X78627986Y-112039400D02*
X78627986Y-112409986D01*
X78627986Y-112409986D02*
X78994000Y-112776000D01*
%TO.N,Net-(ADC2-VREF)*%
X216662000Y-74676000D02*
X216662000Y-73152000D01*
X216345494Y-76071923D02*
X216345494Y-74992506D01*
X216662000Y-73152000D02*
X216662000Y-71628000D01*
X216345494Y-74992506D02*
X216662000Y-74676000D01*
%TO.N,Net-(ADC2-REFT)*%
X214715948Y-75790948D02*
X213601000Y-74676000D01*
X213601000Y-74676000D02*
X213601000Y-73152000D01*
X213601000Y-71654000D02*
X213614000Y-71641000D01*
X213601000Y-73152000D02*
X213601000Y-71654000D01*
X215212330Y-75790948D02*
X214715948Y-75790948D01*
D54*
%TO.N,Net-(J10B-MIO53)*%
X116586000Y-75946000D02*
X117602000Y-74930000D01*
X116015000Y-75946000D02*
X116586000Y-75946000D01*
%TO.N,Net-(J10B-PWRGD_LPD_M2C)*%
X129603500Y-69913500D02*
X129603500Y-76203500D01*
X159200000Y-105800000D02*
X168266000Y-105800000D01*
X168266000Y-105800000D02*
X169266000Y-104800000D01*
X129603500Y-76203500D02*
X159200000Y-105800000D01*
X169266000Y-104800000D02*
X174400000Y-104800000D01*
%TO.N,Net-(J10B-MIO66)*%
X112776000Y-76708000D02*
X113538000Y-76708000D01*
D53*
%TO.N,/SOM240_2(1.5)/SDI_DAC_ped*%
X112400000Y-119500000D02*
X115700000Y-116200000D01*
X115700000Y-116200000D02*
X174300000Y-116200000D01*
X178432500Y-120332500D02*
X222072200Y-120332500D01*
X174300000Y-116200000D02*
X178432500Y-120332500D01*
D54*
%TO.N,Net-(J10B-MIO65)*%
X114808000Y-74930000D02*
X115062000Y-75184000D01*
X112776000Y-74930000D02*
X114808000Y-74930000D01*
%TO.N,Net-(J10B-MIO52)*%
X117856000Y-75946000D02*
X116078000Y-77724000D01*
X116078000Y-77724000D02*
X116015000Y-77724000D01*
D52*
%TO.N,GND*%
X227825000Y-82804000D02*
X227825000Y-82791000D01*
X215138000Y-70091000D02*
X215125000Y-70091000D01*
D53*
X66196100Y-97000000D02*
X67100000Y-97000000D01*
D52*
X85064000Y-62484000D02*
X85064000Y-64008000D01*
D53*
X239525000Y-121100000D02*
X239525000Y-121875000D01*
X230881000Y-121105000D02*
X230266000Y-120490000D01*
D56*
X113300000Y-120900000D02*
X114000000Y-120200000D01*
D52*
X218212000Y-74676000D02*
X218694000Y-74676000D01*
X213614000Y-70091000D02*
X213614000Y-69088000D01*
X85598000Y-117373400D02*
X85598000Y-117475000D01*
D51*
X242316000Y-45466000D02*
X243840000Y-43942000D01*
D52*
X234582000Y-70472000D02*
X235204000Y-69850000D01*
D51*
X124206000Y-53785000D02*
X124143000Y-53785000D01*
D53*
X66196100Y-97000000D02*
X65205500Y-97000000D01*
X226999800Y-115887500D02*
X225412500Y-115887500D01*
D51*
X74448000Y-97282000D02*
X74448000Y-97308000D01*
D52*
X238773000Y-72009000D02*
X238773000Y-73533000D01*
X85064000Y-65532000D02*
X83566000Y-65532000D01*
D54*
X239458500Y-52755800D02*
X239458500Y-51371500D01*
D52*
X73127750Y-139434750D02*
X74130750Y-140437750D01*
X85064000Y-64008000D02*
X83566000Y-64008000D01*
D51*
X121158000Y-53785000D02*
X122682000Y-53785000D01*
X77965300Y-51562000D02*
X79121000Y-51562000D01*
D52*
X228600000Y-77724000D02*
X227838000Y-76962000D01*
D53*
X230200000Y-116350000D02*
X228700000Y-116350000D01*
D52*
X85598000Y-117373400D02*
X85572600Y-117373400D01*
X242062000Y-79769000D02*
X242583000Y-79248000D01*
D53*
X237254300Y-121105000D02*
X239520000Y-121105000D01*
D52*
X86334600Y-117373400D02*
X86360000Y-117348000D01*
X213614000Y-69088000D02*
X213868000Y-68834000D01*
X214934000Y-80073000D02*
X214630000Y-79769000D01*
D51*
X143523000Y-60960000D02*
X144526000Y-60960000D01*
D52*
X89675589Y-118123589D02*
X90424000Y-118872000D01*
X88138000Y-64008000D02*
X88138000Y-62484000D01*
D51*
X122682000Y-53785000D02*
X122745000Y-53785000D01*
X209804000Y-45847000D02*
X210312000Y-46355000D01*
D52*
X228841000Y-77724000D02*
X228600000Y-77724000D01*
X85496400Y-117373400D02*
X84709000Y-116586000D01*
X81838000Y-73152000D02*
X81838000Y-74880000D01*
X73406000Y-109461000D02*
X74930000Y-109461000D01*
D54*
X241287000Y-47257000D02*
X241287000Y-48514000D01*
D51*
X122682000Y-53785000D02*
X124206000Y-53785000D01*
D52*
X81838000Y-74880000D02*
X81788000Y-74930000D01*
D51*
X76974700Y-51562000D02*
X75438000Y-51562000D01*
D52*
X84734400Y-117373400D02*
X84709000Y-117348000D01*
X215125000Y-70091000D02*
X213868000Y-68834000D01*
D51*
X101079000Y-125222000D02*
X99822000Y-125222000D01*
D53*
X67100000Y-97000000D02*
X67200000Y-97100000D01*
D51*
X77965300Y-51562000D02*
X76974700Y-51562000D01*
D52*
X209537000Y-77978000D02*
X208788000Y-77978000D01*
X218212000Y-71628000D02*
X218212000Y-69114000D01*
X67818000Y-139700000D02*
X68326000Y-140208000D01*
X73406000Y-109461000D02*
X73406000Y-108458000D01*
X242062000Y-80264000D02*
X242062000Y-79769000D01*
D54*
X243459000Y-52197000D02*
X242824000Y-51562000D01*
D52*
X238773000Y-75057000D02*
X238773000Y-75197000D01*
D51*
X97282000Y-73406000D02*
X96520000Y-74168000D01*
D52*
X70879000Y-128778000D02*
X70879000Y-130085500D01*
X70879000Y-127254000D02*
X72390000Y-127254000D01*
X228346000Y-80518000D02*
X227584000Y-79756000D01*
D51*
X144526000Y-60960000D02*
X144780000Y-60706000D01*
D52*
X218212000Y-71628000D02*
X218212000Y-73152000D01*
D51*
X97282000Y-73406000D02*
X96520000Y-72644000D01*
D53*
X228237500Y-115887500D02*
X226999800Y-115887500D01*
D52*
X227825000Y-82791000D02*
X227076000Y-82042000D01*
D53*
X239520000Y-121105000D02*
X239525000Y-121100000D01*
D51*
X100825000Y-127508000D02*
X99822000Y-127508000D01*
X123190000Y-151638000D02*
X124714000Y-150114000D01*
X96300000Y-60994000D02*
X96266000Y-60960000D01*
X74448000Y-95758000D02*
X74676000Y-95758000D01*
D52*
X84847999Y-111427979D02*
X84979163Y-111296815D01*
X236847774Y-78112226D02*
X235966000Y-78994000D01*
X218212000Y-69114000D02*
X217678000Y-68580000D01*
X85598000Y-117348000D02*
X86360000Y-116586000D01*
D54*
X241287000Y-50038000D02*
X241287000Y-48514000D01*
X252476000Y-49657000D02*
X250558300Y-49657000D01*
D51*
X91694000Y-61227000D02*
X91694000Y-62484000D01*
D52*
X70879000Y-130085500D02*
X70866000Y-130098500D01*
D51*
X96300000Y-62167000D02*
X96300000Y-60994000D01*
X112014000Y-128270000D02*
X111760000Y-128016000D01*
D52*
X234696000Y-80277000D02*
X234606374Y-80277000D01*
D51*
X132067000Y-56388000D02*
X132067000Y-57153058D01*
X113271000Y-128270000D02*
X112014000Y-128270000D01*
D52*
X85598000Y-117373400D02*
X84734400Y-117373400D01*
X218694000Y-74676000D02*
X219710000Y-75692000D01*
D51*
X210312000Y-46355000D02*
X210312000Y-47828200D01*
X124206000Y-53785000D02*
X125730000Y-53785000D01*
D52*
X85598000Y-117373400D02*
X85598000Y-116586000D01*
D54*
X245249700Y-50927000D02*
X243459000Y-50927000D01*
X190982300Y-51054000D02*
X189725300Y-51054000D01*
D52*
X238773000Y-73533000D02*
X238773000Y-75057000D01*
X235712000Y-70358000D02*
X235204000Y-69850000D01*
X74930000Y-109461000D02*
X74930000Y-108458000D01*
D53*
X238800000Y-118565000D02*
X237254300Y-118565000D01*
D56*
X113100000Y-126400000D02*
X112925000Y-126400000D01*
D52*
X81788000Y-71628000D02*
X81788000Y-70104000D01*
D53*
X219900000Y-113925000D02*
X219375000Y-113925000D01*
D51*
X124143000Y-53785000D02*
X123444000Y-53086000D01*
D52*
X235712000Y-70485000D02*
X235712000Y-70358000D01*
D53*
X237269300Y-121090000D02*
X237254300Y-121105000D01*
X219375000Y-113925000D02*
X218300000Y-115000000D01*
D54*
X243459000Y-50927000D02*
X242824000Y-51562000D01*
D52*
X67564000Y-140970000D02*
X67501000Y-141033000D01*
D53*
X231945700Y-121105000D02*
X230881000Y-121105000D01*
D54*
X204838300Y-48641000D02*
X205473300Y-49276000D01*
D51*
X209042000Y-52578000D02*
X208801000Y-52578000D01*
D53*
X231945700Y-119835000D02*
X230921000Y-119835000D01*
D52*
X85064000Y-64008000D02*
X85064000Y-65532000D01*
D56*
X113300000Y-121125000D02*
X113300000Y-120900000D01*
D52*
X70879000Y-128778000D02*
X70879000Y-127254000D01*
X238773000Y-75197000D02*
X239776000Y-76200000D01*
X85598000Y-117373400D02*
X85598000Y-118237000D01*
X73114750Y-139434750D02*
X73127750Y-139434750D01*
X67501000Y-141033000D02*
X66294000Y-141033000D01*
X217424000Y-80073000D02*
X220535000Y-80073000D01*
D54*
X203555600Y-49911000D02*
X204838300Y-49911000D01*
D52*
X236847774Y-76802114D02*
X236847774Y-78112226D01*
X234963000Y-80277000D02*
X235915200Y-81229200D01*
D51*
X90361000Y-76708000D02*
X90361000Y-77279000D01*
X132067000Y-57153058D02*
X132351236Y-57437294D01*
D52*
X220535000Y-80073000D02*
X221234000Y-80772000D01*
D51*
X122745000Y-53785000D02*
X123444000Y-53086000D01*
D52*
X234696000Y-80277000D02*
X234963000Y-80277000D01*
D54*
X196202300Y-51181000D02*
X198247000Y-51181000D01*
D52*
X85598000Y-117373400D02*
X86334600Y-117373400D01*
D54*
X204838300Y-49911000D02*
X205473300Y-49276000D01*
X255791000Y-49784000D02*
X257047000Y-49784000D01*
D51*
X90361000Y-77279000D02*
X90170000Y-77470000D01*
D53*
X230921000Y-119835000D02*
X230266000Y-120490000D01*
D52*
X223279000Y-78232000D02*
X224282000Y-78232000D01*
X85598000Y-117373400D02*
X85496400Y-117373400D01*
X237935000Y-81026000D02*
X240792000Y-81026000D01*
X67818000Y-138684000D02*
X67818000Y-139700000D01*
D51*
X124714000Y-150114000D02*
X124968000Y-150114000D01*
D52*
X217424000Y-80073000D02*
X214934000Y-80073000D01*
X214630000Y-79954001D02*
X211582000Y-83002001D01*
X208788000Y-77978000D02*
X208534000Y-77724000D01*
D56*
X112925000Y-126400000D02*
X111747000Y-125222000D01*
D52*
X85598000Y-117475000D02*
X86360000Y-118237000D01*
D53*
X239525000Y-121875000D02*
X239500000Y-121900000D01*
D51*
X97536000Y-73406000D02*
X97282000Y-73406000D01*
D52*
X85064000Y-62484000D02*
X85064000Y-60960000D01*
D51*
X242075000Y-45466000D02*
X242316000Y-45466000D01*
D53*
X65205500Y-97000000D02*
X64100000Y-97000000D01*
D52*
X234188000Y-70472000D02*
X234582000Y-70472000D01*
X218212000Y-73152000D02*
X218212000Y-74676000D01*
D51*
X84328000Y-144886000D02*
X86106000Y-146664000D01*
D54*
X203555600Y-48641000D02*
X204838300Y-48641000D01*
D53*
X228700000Y-116350000D02*
X228237500Y-115887500D01*
D52*
X88138000Y-64008000D02*
X88900000Y-63246000D01*
D54*
X252349000Y-52197000D02*
X250558300Y-52197000D01*
D51*
X74448000Y-97308000D02*
X75692000Y-98552000D01*
D54*
X241300000Y-47244000D02*
X241287000Y-47257000D01*
D52*
X237490000Y-80581000D02*
X237935000Y-81026000D01*
X88138000Y-62484000D02*
X88138000Y-61214000D01*
X85064000Y-62484000D02*
X83566000Y-62484000D01*
X84847999Y-115398400D02*
X84847999Y-111427979D01*
D51*
X208039000Y-51816000D02*
X208039000Y-53340000D01*
D54*
X195906300Y-48641000D02*
X198247000Y-48641000D01*
D52*
X85598000Y-117373400D02*
X85598000Y-117348000D01*
X214630000Y-79769000D02*
X214630000Y-79954001D01*
D51*
X74676000Y-95758000D02*
X75692000Y-94742000D01*
D52*
X228587000Y-80518000D02*
X228346000Y-80518000D01*
D54*
X245249700Y-52197000D02*
X243459000Y-52197000D01*
D52*
X85572600Y-117373400D02*
X84709000Y-118237000D01*
D54*
X239458500Y-51371500D02*
X239522000Y-51308000D01*
D51*
X208801000Y-52578000D02*
X208039000Y-53340000D01*
D52*
X85064000Y-60960000D02*
X83566000Y-60960000D01*
D53*
X225412500Y-115887500D02*
X225400000Y-115900000D01*
D52*
X87573000Y-118123589D02*
X89675589Y-118123589D01*
%TO.N,Net-(T1-SHIELD1)*%
X80188000Y-73152000D02*
X80188000Y-80087000D01*
X80238000Y-71628000D02*
X80238000Y-73102000D01*
X80238000Y-73102000D02*
X80188000Y-73152000D01*
X80238000Y-65659000D02*
X80744000Y-65153000D01*
X80238000Y-71628000D02*
X80238000Y-65659000D01*
X80188000Y-80087000D02*
X80744000Y-80643000D01*
D53*
%TO.N,/SOM240_2(1.5)/CLR_DAC\u002A_ped*%
X111200000Y-119700000D02*
X115300000Y-115600000D01*
X222072200Y-119062500D02*
X222050700Y-119084000D01*
X222072200Y-119062500D02*
X222008700Y-119126000D01*
X218484000Y-119084000D02*
X216408000Y-117008000D01*
X222050700Y-119084000D02*
X218484000Y-119084000D01*
X216408000Y-117008000D02*
X216408000Y-116775000D01*
X215233000Y-115600000D02*
X216408000Y-116775000D01*
X115300000Y-115600000D02*
X215233000Y-115600000D01*
D52*
%TO.N,Net-(ADC2-REFB)*%
X215151000Y-74676000D02*
X215151000Y-73152000D01*
X215151000Y-73152000D02*
X215151000Y-71654000D01*
X215741905Y-76073000D02*
X215741905Y-75266905D01*
X215151000Y-71654000D02*
X215138000Y-71641000D01*
X215741905Y-75266905D02*
X215151000Y-74676000D01*
%TO.N,Net-(ADC2-RBIAS)*%
X217424000Y-76312422D02*
X217424000Y-78423000D01*
X217454400Y-76282022D02*
X217424000Y-76312422D01*
D55*
%TO.N,/SOM240_1(1.5)/FrameClk2-*%
X155846000Y-54500000D02*
X153146000Y-51800000D01*
X139143800Y-51800000D02*
X136777541Y-54166259D01*
X153146000Y-51800000D02*
X139143800Y-51800000D01*
X136777541Y-54166259D02*
X136777541Y-58401167D01*
X155956000Y-54500000D02*
X155846000Y-54500000D01*
%TO.N,/SOM240_1(1.5)/DataClk2-*%
X143751785Y-52700000D02*
X140551565Y-55900220D01*
X154210099Y-55245000D02*
X151665099Y-52700000D01*
X151665099Y-52700000D02*
X143751785Y-52700000D01*
X140551565Y-55900220D02*
X140551565Y-58276894D01*
%TO.N,/SOM240_1(1.5)/FrameClk2+*%
X156083000Y-55337003D02*
X156048003Y-55337003D01*
X137385001Y-58370234D02*
X137377101Y-58378134D01*
X156048003Y-55337003D02*
X152882000Y-52171000D01*
X152882000Y-52171000D02*
X139409200Y-52171000D01*
X139409200Y-52171000D02*
X137385001Y-54195199D01*
X137385001Y-54195199D02*
X137385001Y-58370234D01*
%TO.N,/SOM240_1(1.5)/DataClk2+*%
X151317398Y-53071000D02*
X144033000Y-53071000D01*
X141274800Y-55829200D02*
X141274800Y-58267600D01*
X154227794Y-55981396D02*
X151317398Y-53071000D01*
X144033000Y-53071000D02*
X141274800Y-55829200D01*
D51*
%TO.N,/SOM240_1(1.5)/SDcard1/DAT3B_0*%
X74422000Y-113257000D02*
X78288337Y-117123337D01*
X78288337Y-117123337D02*
X83623000Y-117123337D01*
D52*
%TO.N,/SOM240_1(1.5)/SDcard1/DAT1B_0*%
X69596000Y-106657000D02*
X69596000Y-112268000D01*
X85348000Y-120646000D02*
X85348000Y-119348400D01*
X79248000Y-121920000D02*
X84074000Y-121920000D01*
X84074000Y-121920000D02*
X85348000Y-120646000D01*
X69596000Y-112268000D02*
X79248000Y-121920000D01*
D51*
%TO.N,/SOM240_1(1.5)/SDcard1/CLKB_0*%
X76873625Y-117767625D02*
X77060238Y-117767625D01*
X77916328Y-118623715D02*
X83623000Y-118623715D01*
X71628000Y-109956999D02*
X71628000Y-112522000D01*
X71628000Y-112522000D02*
X76873625Y-117767625D01*
X77060238Y-117767625D02*
X77916328Y-118623715D01*
D52*
%TO.N,/SOM240_1(1.5)/SDcard1/DAT0B_0*%
X80188601Y-121412000D02*
X83312000Y-121412000D01*
X76909101Y-118132500D02*
X80188601Y-121412000D01*
X70866000Y-107757001D02*
X70866000Y-112776000D01*
X70866000Y-112776000D02*
X76222500Y-118132500D01*
X84348000Y-120376000D02*
X84348000Y-119348400D01*
X83312000Y-121412000D02*
X84348000Y-120376000D01*
X76222500Y-118132500D02*
X76909101Y-118132500D01*
%TO.N,/SOM240_1(1.5)/SDcard1/DAT2B_0*%
X76454000Y-114300000D02*
X78777211Y-116623211D01*
X78777211Y-116623211D02*
X83623000Y-116623211D01*
D51*
%TO.N,/SOM240_1(1.5)/SDcard1/CMDB_0*%
X72390000Y-112156999D02*
X72390000Y-112268000D01*
X72390000Y-112268000D02*
X78245589Y-118123589D01*
X78245589Y-118123589D02*
X83623000Y-118123589D01*
D52*
%TO.N,Net-(Q8-G)*%
X89662000Y-79248000D02*
X90107000Y-79248000D01*
X90107000Y-79248000D02*
X90615000Y-79756000D01*
%TO.N,Net-(Q8-D)*%
X73660000Y-72453000D02*
X73723000Y-72453000D01*
X73723000Y-72453000D02*
X75438000Y-74168000D01*
D53*
%TO.N,Net-(U15-SDO)*%
X215205000Y-118400000D02*
X216502500Y-119697500D01*
X179600000Y-118400000D02*
X215205000Y-118400000D01*
X222072200Y-119697500D02*
X216502500Y-119697500D01*
D52*
%TO.N,Net-(C5-Pad1)*%
X69342000Y-132814993D02*
X70369386Y-132814993D01*
X73114750Y-137884750D02*
X71157250Y-137884750D01*
X70383400Y-133324600D02*
X69850000Y-133858000D01*
X68897000Y-134811000D02*
X69850000Y-133858000D01*
X71082750Y-135090750D02*
X71082750Y-137959250D01*
X69342000Y-132814993D02*
X69342000Y-133350000D01*
X69850000Y-133858000D02*
X71082750Y-135090750D01*
X70383400Y-132800979D02*
X70383400Y-133324600D01*
X70369386Y-132814993D02*
X70383400Y-132800979D01*
X68897000Y-134874000D02*
X68897000Y-134811000D01*
X71157250Y-137884750D02*
X71082750Y-137959250D01*
X69342000Y-133350000D02*
X69850000Y-133858000D01*
%TO.N,/SOM240_1(1.5)/SDcard1/SD_CARD_VCC_1*%
X70866000Y-131572000D02*
X69329000Y-130035000D01*
X70383400Y-132150993D02*
X70795007Y-132150993D01*
X68300600Y-132150993D02*
X67888993Y-132150993D01*
X69329000Y-128778000D02*
X69329000Y-131813000D01*
X67888993Y-131501007D02*
X69329000Y-130061000D01*
X69329000Y-130061000D02*
X69329000Y-128778000D01*
X68072000Y-127254000D02*
X69329000Y-127254000D01*
X67888993Y-131501007D02*
X68300600Y-131501007D01*
X67888993Y-132150993D02*
X67564000Y-131826000D01*
X70795007Y-132150993D02*
X71120000Y-131826000D01*
X71120000Y-131826000D02*
X70866000Y-131572000D01*
X70795007Y-131501007D02*
X70383400Y-131501007D01*
X69329000Y-130035000D02*
X69329000Y-128778000D01*
X69329000Y-131813000D02*
X69342000Y-131826000D01*
X69329000Y-127254000D02*
X69329000Y-128778000D01*
X67564000Y-131826000D02*
X67888993Y-131501007D01*
X70866000Y-131572000D02*
X70795007Y-131501007D01*
%TO.N,/SOM240_1(1.5)/SDcard1/SD_CARD_VCC_0*%
X77724000Y-112776000D02*
X77978000Y-112522000D01*
X77328014Y-109956600D02*
X77328014Y-109615986D01*
X73393000Y-110998000D02*
X73406000Y-111011000D01*
X77724000Y-109220000D02*
X75933000Y-111011000D01*
X73406000Y-111011000D02*
X74930000Y-111011000D01*
X77328014Y-112380014D02*
X77724000Y-112776000D01*
X75959000Y-111011000D02*
X75438000Y-111011000D01*
X77328014Y-112039400D02*
X77328014Y-112380014D01*
X75438000Y-111011000D02*
X74930000Y-111011000D01*
X72207375Y-110998000D02*
X73393000Y-110998000D01*
X77653007Y-110998000D02*
X75972000Y-110998000D01*
X75972000Y-110998000D02*
X75959000Y-111011000D01*
X77978000Y-112522000D02*
X77978000Y-112039400D01*
X77328014Y-109615986D02*
X77724000Y-109220000D01*
X77724000Y-112776000D02*
X75959000Y-111011000D01*
X77978000Y-109474000D02*
X77978000Y-109956600D01*
X77724000Y-109220000D02*
X77978000Y-109474000D01*
X75933000Y-111011000D02*
X75438000Y-111011000D01*
%TO.N,Net-(Q1-G)*%
X69088000Y-135636000D02*
X70295000Y-135636000D01*
X68768001Y-135955999D02*
X69088000Y-135636000D01*
X68768001Y-136652000D02*
X68768001Y-135955999D01*
%TO.N,Net-(Q1-D)*%
X66867999Y-136652000D02*
X66867999Y-135253001D01*
X68300600Y-133820400D02*
X67247000Y-134874000D01*
X68300600Y-132800979D02*
X68300600Y-133820400D01*
X66867999Y-136652000D02*
X66867999Y-138809001D01*
X66867999Y-138809001D02*
X66294000Y-139383000D01*
X66867999Y-135253001D02*
X67247000Y-134874000D01*
%TO.N,Net-(R74-Pad1)*%
X74676000Y-65206000D02*
X73614000Y-66268000D01*
X74676000Y-64325000D02*
X74676000Y-65206000D01*
%TO.N,Net-(R76-Pad1)*%
X71437000Y-76962000D02*
X73588000Y-76962000D01*
X73588000Y-76962000D02*
X73614000Y-76988000D01*
%TO.N,/SOM240_1(1.5)/ethernet1/ETH_LED0*%
X92265000Y-79756000D02*
X92710000Y-79756000D01*
X92710000Y-79756000D02*
X94285999Y-78180001D01*
X94285999Y-78180001D02*
X94285999Y-77304900D01*
%TO.N,/SOM240_1(1.5)/ethernet1/ETH_LED1*%
X95187000Y-79756000D02*
X94786000Y-79355000D01*
X94786000Y-79355000D02*
X94786000Y-77304900D01*
%TO.N,Net-(R114-Pad1)*%
X73660000Y-70803000D02*
X73660000Y-68854000D01*
X73660000Y-68854000D02*
X73614000Y-68808000D01*
%TO.N,Net-(R115-Pad1)*%
X73614000Y-81425000D02*
X73660000Y-81471000D01*
X73614000Y-79528000D02*
X73614000Y-81425000D01*
%TO.N,Net-(JP1-C)*%
X82550000Y-115570000D02*
X83103085Y-116123085D01*
X83103085Y-116123085D02*
X83623000Y-116123085D01*
D54*
%TO.N,unconnected-(U1-LED[2]{slash}INTn-Pad12)*%
X95344000Y-77362901D02*
X95285999Y-77304900D01*
%TD*%
M02*
