%TF.GenerationSoftware,KiCad,Pcbnew,9.0.2*%
%TF.CreationDate,2025-10-06T13:03:54-05:00*%
%TF.ProjectId,PSEC5_Ctrl_Board,50534543-355f-4437-9472-6c5f426f6172,rev?*%
%TF.SameCoordinates,Original*%
%TF.FileFunction,Paste,Top*%
%TF.FilePolarity,Positive*%
%FSLAX46Y46*%
G04 Gerber Fmt 4.6, Leading zero omitted, Abs format (unit mm)*
G04 Created by KiCad (PCBNEW 9.0.2) date 2025-10-06 13:03:54*
%MOMM*%
%LPD*%
G01*
G04 APERTURE LIST*
G04 Aperture macros list*
%AMRoundRect*
0 Rectangle with rounded corners*
0 $1 Rounding radius*
0 $2 $3 $4 $5 $6 $7 $8 $9 X,Y pos of 4 corners*
0 Add a 4 corners polygon primitive as box body*
4,1,4,$2,$3,$4,$5,$6,$7,$8,$9,$2,$3,0*
0 Add four circle primitives for the rounded corners*
1,1,$1+$1,$2,$3*
1,1,$1+$1,$4,$5*
1,1,$1+$1,$6,$7*
1,1,$1+$1,$8,$9*
0 Add four rect primitives between the rounded corners*
20,1,$1+$1,$2,$3,$4,$5,0*
20,1,$1+$1,$4,$5,$6,$7,0*
20,1,$1+$1,$6,$7,$8,$9,0*
20,1,$1+$1,$8,$9,$2,$3,0*%
G04 Aperture macros list end*
%ADD10C,0.000000*%
%ADD11RoundRect,0.200000X0.275000X-0.200000X0.275000X0.200000X-0.275000X0.200000X-0.275000X-0.200000X0*%
%ADD12RoundRect,0.200000X-0.275000X0.200000X-0.275000X-0.200000X0.275000X-0.200000X0.275000X0.200000X0*%
%ADD13R,2.500000X1.200000*%
%ADD14RoundRect,0.200000X0.200000X0.275000X-0.200000X0.275000X-0.200000X-0.275000X0.200000X-0.275000X0*%
%ADD15RoundRect,0.225000X-0.225000X-0.250000X0.225000X-0.250000X0.225000X0.250000X-0.225000X0.250000X0*%
%ADD16RoundRect,0.225000X-0.250000X0.225000X-0.250000X-0.225000X0.250000X-0.225000X0.250000X0.225000X0*%
%ADD17RoundRect,0.200000X-0.200000X-0.275000X0.200000X-0.275000X0.200000X0.275000X-0.200000X0.275000X0*%
%ADD18RoundRect,0.225000X0.250000X-0.225000X0.250000X0.225000X-0.250000X0.225000X-0.250000X-0.225000X0*%
%ADD19R,1.143000X0.812800*%
%ADD20R,1.041400X1.244600*%
%ADD21R,1.397000X1.600200*%
%ADD22R,1.854200X1.219200*%
%ADD23R,1.397000X1.955800*%
%ADD24RoundRect,0.225000X0.225000X0.250000X-0.225000X0.250000X-0.225000X-0.250000X0.225000X-0.250000X0*%
%ADD25R,1.016000X2.692400*%
%ADD26R,10.414000X10.464800*%
%ADD27R,0.812800X0.254000*%
%ADD28R,0.254000X0.812800*%
%ADD29R,5.638800X5.638800*%
%ADD30R,0.558800X1.320800*%
%ADD31RoundRect,0.250000X-0.312500X-0.625000X0.312500X-0.625000X0.312500X0.625000X-0.312500X0.625000X0*%
%ADD32R,0.304800X0.762000*%
%ADD33R,0.762000X0.304800*%
%ADD34R,2.489200X2.489200*%
%ADD35C,0.356000*%
%ADD36R,1.346200X0.406400*%
%ADD37O,0.850000X0.650000*%
%ADD38R,1.498600X0.812800*%
%ADD39RoundRect,0.250000X-0.475000X0.250000X-0.475000X-0.250000X0.475000X-0.250000X0.475000X0.250000X0*%
%ADD40R,0.280000X2.270000*%
%ADD41R,2.540000X0.430000*%
%ADD42R,4.700000X0.430000*%
%ADD43RoundRect,0.135000X0.135000X0.185000X-0.135000X0.185000X-0.135000X-0.185000X0.135000X-0.185000X0*%
G04 APERTURE END LIST*
D10*
%TO.C,ADC2*%
G36*
X214796700Y-79258300D02*
G01*
X213587000Y-79258300D01*
X213587000Y-78048600D01*
X214796700Y-78048600D01*
X214796700Y-79258300D01*
G37*
G36*
X214796700Y-80668000D02*
G01*
X213587000Y-80668000D01*
X213587000Y-79458300D01*
X214796700Y-79458300D01*
X214796700Y-80668000D01*
G37*
G36*
X214796700Y-82077700D02*
G01*
X213587000Y-82077700D01*
X213587000Y-80868000D01*
X214796700Y-80868000D01*
X214796700Y-82077700D01*
G37*
G36*
X214796700Y-83487400D02*
G01*
X213587000Y-83487400D01*
X213587000Y-82277700D01*
X214796700Y-82277700D01*
X214796700Y-83487400D01*
G37*
G36*
X216206400Y-79258300D02*
G01*
X214996700Y-79258300D01*
X214996700Y-78048600D01*
X216206400Y-78048600D01*
X216206400Y-79258300D01*
G37*
G36*
X216206400Y-80668000D02*
G01*
X214996700Y-80668000D01*
X214996700Y-79458300D01*
X216206400Y-79458300D01*
X216206400Y-80668000D01*
G37*
G36*
X216206400Y-82077700D02*
G01*
X214996700Y-82077700D01*
X214996700Y-80868000D01*
X216206400Y-80868000D01*
X216206400Y-82077700D01*
G37*
G36*
X216206400Y-83487400D02*
G01*
X214996700Y-83487400D01*
X214996700Y-82277700D01*
X216206400Y-82277700D01*
X216206400Y-83487400D01*
G37*
G36*
X217616100Y-79258300D02*
G01*
X216406400Y-79258300D01*
X216406400Y-78048600D01*
X217616100Y-78048600D01*
X217616100Y-79258300D01*
G37*
G36*
X217616100Y-80668000D02*
G01*
X216406400Y-80668000D01*
X216406400Y-79458300D01*
X217616100Y-79458300D01*
X217616100Y-80668000D01*
G37*
G36*
X217616100Y-82077700D02*
G01*
X216406400Y-82077700D01*
X216406400Y-80868000D01*
X217616100Y-80868000D01*
X217616100Y-82077700D01*
G37*
G36*
X217616100Y-83487400D02*
G01*
X216406400Y-83487400D01*
X216406400Y-82277700D01*
X217616100Y-82277700D01*
X217616100Y-83487400D01*
G37*
G36*
X219025800Y-79258300D02*
G01*
X217816100Y-79258300D01*
X217816100Y-78048600D01*
X219025800Y-78048600D01*
X219025800Y-79258300D01*
G37*
G36*
X219025800Y-80668000D02*
G01*
X217816100Y-80668000D01*
X217816100Y-79458300D01*
X219025800Y-79458300D01*
X219025800Y-80668000D01*
G37*
G36*
X219025800Y-82077700D02*
G01*
X217816100Y-82077700D01*
X217816100Y-80868000D01*
X219025800Y-80868000D01*
X219025800Y-82077700D01*
G37*
G36*
X219025800Y-83487400D02*
G01*
X217816100Y-83487400D01*
X217816100Y-82277700D01*
X219025800Y-82277700D01*
X219025800Y-83487400D01*
G37*
%TO.C,U12*%
G36*
X102486999Y-45977000D02*
G01*
X102236999Y-45977000D01*
X102236999Y-45326999D01*
X102486999Y-45326999D01*
X102486999Y-45977000D01*
G37*
G36*
X102486999Y-48077001D02*
G01*
X102236999Y-48077001D01*
X102236999Y-47427000D01*
X102486999Y-47427000D01*
X102486999Y-48077001D01*
G37*
G36*
X103137000Y-45977000D02*
G01*
X102886998Y-45977000D01*
X102886998Y-45326999D01*
X103137000Y-45326999D01*
X103137000Y-45977000D01*
G37*
G36*
X103137000Y-48077001D02*
G01*
X102886998Y-48077001D01*
X102886998Y-47427000D01*
X103137000Y-47427000D01*
X103137000Y-48077001D01*
G37*
G36*
X103786999Y-45977000D02*
G01*
X103536999Y-45977000D01*
X103536999Y-45326999D01*
X103786999Y-45326999D01*
X103786999Y-45977000D01*
G37*
G36*
X103786999Y-48077001D02*
G01*
X103536999Y-48077001D01*
X103536999Y-47427000D01*
X103786999Y-47427000D01*
X103786999Y-48077001D01*
G37*
G36*
X102518299Y-46460579D02*
G01*
X102376878Y-46602000D01*
X102286829Y-46602000D01*
X102286829Y-46268930D01*
X102518299Y-46268930D01*
X102518299Y-46460579D01*
G37*
G36*
X102518299Y-46943421D02*
G01*
X102518299Y-47135070D01*
X102286829Y-47135070D01*
X102286829Y-46802000D01*
X102376878Y-46802000D01*
X102518299Y-46943421D01*
G37*
G36*
X103737169Y-46602000D02*
G01*
X103647120Y-46602000D01*
X103505699Y-46460579D01*
X103505699Y-46268930D01*
X103737169Y-46268930D01*
X103737169Y-46602000D01*
G37*
G36*
X103737169Y-47135070D02*
G01*
X103505699Y-47135070D01*
X103505699Y-46943421D01*
X103647120Y-46802000D01*
X103737169Y-46802000D01*
X103737169Y-47135070D01*
G37*
G36*
X103305699Y-46460579D02*
G01*
X103164278Y-46602000D01*
X102859720Y-46602000D01*
X102718299Y-46460579D01*
X102718299Y-46268930D01*
X103305699Y-46268930D01*
X103305699Y-46460579D01*
G37*
G36*
X103305699Y-46943421D02*
G01*
X103305699Y-47135070D01*
X102718299Y-47135070D01*
X102718299Y-46943421D01*
X102859720Y-46802000D01*
X103164278Y-46802000D01*
X103305699Y-46943421D01*
G37*
%TO.C,U11*%
G36*
X85093000Y-88487001D02*
G01*
X84442999Y-88487001D01*
X84442999Y-88237001D01*
X85093000Y-88237001D01*
X85093000Y-88487001D01*
G37*
G36*
X85093000Y-89137002D02*
G01*
X84442999Y-89137002D01*
X84442999Y-88887000D01*
X85093000Y-88887000D01*
X85093000Y-89137002D01*
G37*
G36*
X85093000Y-89787001D02*
G01*
X84442999Y-89787001D01*
X84442999Y-89537001D01*
X85093000Y-89537001D01*
X85093000Y-89787001D01*
G37*
G36*
X87193001Y-88487001D02*
G01*
X86543000Y-88487001D01*
X86543000Y-88237001D01*
X87193001Y-88237001D01*
X87193001Y-88487001D01*
G37*
G36*
X87193001Y-89137002D02*
G01*
X86543000Y-89137002D01*
X86543000Y-88887000D01*
X87193001Y-88887000D01*
X87193001Y-89137002D01*
G37*
G36*
X87193001Y-89787001D02*
G01*
X86543000Y-89787001D01*
X86543000Y-89537001D01*
X87193001Y-89537001D01*
X87193001Y-89787001D01*
G37*
G36*
X85718000Y-88376880D02*
G01*
X85576579Y-88518301D01*
X85384930Y-88518301D01*
X85384930Y-88286831D01*
X85718000Y-88286831D01*
X85718000Y-88376880D01*
G37*
G36*
X85718000Y-89647122D02*
G01*
X85718000Y-89737171D01*
X85384930Y-89737171D01*
X85384930Y-89505701D01*
X85576579Y-89505701D01*
X85718000Y-89647122D01*
G37*
G36*
X86251070Y-88518301D02*
G01*
X86059421Y-88518301D01*
X85918000Y-88376880D01*
X85918000Y-88286831D01*
X86251070Y-88286831D01*
X86251070Y-88518301D01*
G37*
G36*
X86251070Y-89737171D02*
G01*
X85918000Y-89737171D01*
X85918000Y-89647122D01*
X86059421Y-89505701D01*
X86251070Y-89505701D01*
X86251070Y-89737171D01*
G37*
G36*
X85718000Y-88859722D02*
G01*
X85718000Y-89164280D01*
X85576579Y-89305701D01*
X85384930Y-89305701D01*
X85384930Y-88718301D01*
X85576579Y-88718301D01*
X85718000Y-88859722D01*
G37*
G36*
X86251070Y-89305701D02*
G01*
X86059421Y-89305701D01*
X85918000Y-89164280D01*
X85918000Y-88859722D01*
X86059421Y-88718301D01*
X86251070Y-88718301D01*
X86251070Y-89305701D01*
G37*
%TO.C,ADC1*%
G36*
X234608700Y-79516300D02*
G01*
X233399000Y-79516300D01*
X233399000Y-78306600D01*
X234608700Y-78306600D01*
X234608700Y-79516300D01*
G37*
G36*
X234608700Y-80926000D02*
G01*
X233399000Y-80926000D01*
X233399000Y-79716300D01*
X234608700Y-79716300D01*
X234608700Y-80926000D01*
G37*
G36*
X234608700Y-82335700D02*
G01*
X233399000Y-82335700D01*
X233399000Y-81126000D01*
X234608700Y-81126000D01*
X234608700Y-82335700D01*
G37*
G36*
X234608700Y-83745400D02*
G01*
X233399000Y-83745400D01*
X233399000Y-82535700D01*
X234608700Y-82535700D01*
X234608700Y-83745400D01*
G37*
G36*
X236018400Y-79516300D02*
G01*
X234808700Y-79516300D01*
X234808700Y-78306600D01*
X236018400Y-78306600D01*
X236018400Y-79516300D01*
G37*
G36*
X236018400Y-80926000D02*
G01*
X234808700Y-80926000D01*
X234808700Y-79716300D01*
X236018400Y-79716300D01*
X236018400Y-80926000D01*
G37*
G36*
X236018400Y-82335700D02*
G01*
X234808700Y-82335700D01*
X234808700Y-81126000D01*
X236018400Y-81126000D01*
X236018400Y-82335700D01*
G37*
G36*
X236018400Y-83745400D02*
G01*
X234808700Y-83745400D01*
X234808700Y-82535700D01*
X236018400Y-82535700D01*
X236018400Y-83745400D01*
G37*
G36*
X237428100Y-79516300D02*
G01*
X236218400Y-79516300D01*
X236218400Y-78306600D01*
X237428100Y-78306600D01*
X237428100Y-79516300D01*
G37*
G36*
X237428100Y-80926000D02*
G01*
X236218400Y-80926000D01*
X236218400Y-79716300D01*
X237428100Y-79716300D01*
X237428100Y-80926000D01*
G37*
G36*
X237428100Y-82335700D02*
G01*
X236218400Y-82335700D01*
X236218400Y-81126000D01*
X237428100Y-81126000D01*
X237428100Y-82335700D01*
G37*
G36*
X237428100Y-83745400D02*
G01*
X236218400Y-83745400D01*
X236218400Y-82535700D01*
X237428100Y-82535700D01*
X237428100Y-83745400D01*
G37*
G36*
X238837800Y-79516300D02*
G01*
X237628100Y-79516300D01*
X237628100Y-78306600D01*
X238837800Y-78306600D01*
X238837800Y-79516300D01*
G37*
G36*
X238837800Y-80926000D02*
G01*
X237628100Y-80926000D01*
X237628100Y-79716300D01*
X238837800Y-79716300D01*
X238837800Y-80926000D01*
G37*
G36*
X238837800Y-82335700D02*
G01*
X237628100Y-82335700D01*
X237628100Y-81126000D01*
X238837800Y-81126000D01*
X238837800Y-82335700D01*
G37*
G36*
X238837800Y-83745400D02*
G01*
X237628100Y-83745400D01*
X237628100Y-82535700D01*
X238837800Y-82535700D01*
X238837800Y-83745400D01*
G37*
%TD*%
D11*
%TO.C,R68*%
X80264000Y-115633000D03*
X80264000Y-113983000D03*
%TD*%
D12*
%TO.C,R62*%
X219075000Y-68517000D03*
X219075000Y-70167000D03*
%TD*%
D13*
%TO.C,SW2*%
X123090000Y-41402000D03*
X110590000Y-41402000D03*
X123090000Y-49022000D03*
X110590000Y-49022000D03*
%TD*%
D14*
%TO.C,R18*%
X244665000Y-81280000D03*
X243015000Y-81280000D03*
%TD*%
D15*
%TO.C,C27*%
X116827000Y-162306000D03*
X118377000Y-162306000D03*
%TD*%
D14*
%TO.C,R83*%
X74993000Y-118872000D03*
X73343000Y-118872000D03*
%TD*%
D16*
%TO.C,C7*%
X214122000Y-71615000D03*
X214122000Y-73165000D03*
%TD*%
D15*
%TO.C,C122*%
X86347000Y-113792000D03*
X87897000Y-113792000D03*
%TD*%
%TO.C,C18*%
X165341000Y-151384000D03*
X166891000Y-151384000D03*
%TD*%
D12*
%TO.C,R72*%
X210820000Y-65469000D03*
X210820000Y-67119000D03*
%TD*%
D17*
%TO.C,R26*%
X106871000Y-70612000D03*
X108521000Y-70612000D03*
%TD*%
D18*
%TO.C,C61*%
X97028000Y-76975000D03*
X97028000Y-75425000D03*
%TD*%
%TO.C,C94*%
X83820000Y-108979000D03*
X83820000Y-107429000D03*
%TD*%
D19*
%TO.C,J6*%
X66868500Y-114357000D03*
X66868500Y-113257000D03*
X66868500Y-112156999D03*
X66868500Y-111056999D03*
X66868500Y-109956999D03*
X66868500Y-108856998D03*
X66868500Y-107757001D03*
X66868500Y-106657000D03*
D20*
X73018500Y-116992001D03*
X76718500Y-116992001D03*
D21*
X66993501Y-116817000D03*
D22*
X67218499Y-105497000D03*
D23*
X77693500Y-107522010D03*
X77693500Y-113492011D03*
%TD*%
D24*
%TO.C,C22*%
X206075000Y-142300000D03*
X204525000Y-142300000D03*
%TD*%
D16*
%TO.C,C66*%
X84074000Y-100330000D03*
X84074000Y-101880000D03*
%TD*%
D24*
%TO.C,C4*%
X187211000Y-151638000D03*
X185661000Y-151638000D03*
%TD*%
D12*
%TO.C,R53*%
X214630000Y-65469000D03*
X214630000Y-67119000D03*
%TD*%
D17*
%TO.C,R28*%
X106871000Y-68834000D03*
X108521000Y-68834000D03*
%TD*%
D24*
%TO.C,C20*%
X218875000Y-142300000D03*
X217325000Y-142300000D03*
%TD*%
D12*
%TO.C,R15*%
X242062000Y-65723000D03*
X242062000Y-67373000D03*
%TD*%
D17*
%TO.C,R42*%
X231475000Y-143700000D03*
X233125000Y-143700000D03*
%TD*%
D12*
%TO.C,R98*%
X212598000Y-68517000D03*
X212598000Y-70167000D03*
%TD*%
%TO.C,R25*%
X236220000Y-65723000D03*
X236220000Y-67373000D03*
%TD*%
D16*
%TO.C,C74*%
X229362000Y-68821000D03*
X229362000Y-70371000D03*
%TD*%
D12*
%TO.C,R58*%
X82296000Y-108903000D03*
X82296000Y-110553000D03*
%TD*%
D15*
%TO.C,C12*%
X234925000Y-142100000D03*
X236475000Y-142100000D03*
%TD*%
D13*
%TO.C,SW1*%
X97182000Y-41402000D03*
X84682000Y-41402000D03*
X97182000Y-49022000D03*
X84682000Y-49022000D03*
%TD*%
D24*
%TO.C,C109*%
X209309000Y-82804000D03*
X207759000Y-82804000D03*
%TD*%
D25*
%TO.C,LDO4*%
X111658400Y-155854400D03*
X113360200Y-155854400D03*
X115062000Y-155854400D03*
X116763800Y-155854400D03*
X118465600Y-155854400D03*
D26*
X115062000Y-147421600D03*
%TD*%
D12*
%TO.C,R51*%
X217932000Y-65469000D03*
X217932000Y-67119000D03*
%TD*%
D17*
%TO.C,R14*%
X100775000Y-160782000D03*
X102425000Y-160782000D03*
%TD*%
D24*
%TO.C,C46*%
X92228000Y-72136000D03*
X90678000Y-72136000D03*
%TD*%
D18*
%TO.C,C21*%
X105664000Y-67082000D03*
X105664000Y-65532000D03*
%TD*%
D17*
%TO.C,R29*%
X194875000Y-166900000D03*
X196525000Y-166900000D03*
%TD*%
D15*
%TO.C,C3*%
X247525000Y-142100000D03*
X249075000Y-142100000D03*
%TD*%
D27*
%TO.C,ADC2*%
X212902800Y-78018000D03*
X212902800Y-78517999D03*
X212902800Y-79018001D03*
X212902800Y-79518000D03*
X212902800Y-80017999D03*
X212902800Y-80518000D03*
X212902800Y-81018000D03*
X212902800Y-81518001D03*
X212902800Y-82018000D03*
X212902800Y-82517999D03*
X212902800Y-83018001D03*
X212902800Y-83518000D03*
D28*
X213556400Y-84171600D03*
X214056399Y-84171600D03*
X214556401Y-84171600D03*
X215056400Y-84171600D03*
X215556399Y-84171600D03*
X216056400Y-84171600D03*
X216556400Y-84171600D03*
X217056401Y-84171600D03*
X217556400Y-84171600D03*
X218056399Y-84171600D03*
X218556401Y-84171600D03*
X219056400Y-84171600D03*
D27*
X219710000Y-83518000D03*
X219710000Y-83018001D03*
X219710000Y-82517999D03*
X219710000Y-82018000D03*
X219710000Y-81518001D03*
X219710000Y-81018000D03*
X219710000Y-80518000D03*
X219710000Y-80017999D03*
X219710000Y-79518000D03*
X219710000Y-79018001D03*
X219710000Y-78517999D03*
X219710000Y-78018000D03*
D28*
X219056400Y-77364400D03*
X218556401Y-77364400D03*
X218056399Y-77364400D03*
X217556400Y-77364400D03*
X217056401Y-77364400D03*
X216556400Y-77364400D03*
X216056400Y-77364400D03*
X215556399Y-77364400D03*
X215056400Y-77364400D03*
X214556401Y-77364400D03*
X214056399Y-77364400D03*
X213556400Y-77364400D03*
D29*
X216306400Y-80768000D03*
%TD*%
D17*
%TO.C,R38*%
X222275000Y-143900000D03*
X223925000Y-143900000D03*
%TD*%
D18*
%TO.C,C52*%
X100089000Y-67082000D03*
X100089000Y-65532000D03*
%TD*%
D12*
%TO.C,R96*%
X222758000Y-68771000D03*
X222758000Y-70421000D03*
%TD*%
D16*
%TO.C,C15*%
X94234000Y-158991000D03*
X94234000Y-160541000D03*
%TD*%
D15*
%TO.C,R86*%
X215379000Y-54864000D03*
X216929000Y-54864000D03*
%TD*%
D12*
%TO.C,R80*%
X242570000Y-68771000D03*
X242570000Y-70421000D03*
%TD*%
D30*
%TO.C,Q4*%
X83944501Y-112268000D03*
X82044499Y-112268000D03*
X82994500Y-114300000D03*
%TD*%
D12*
%TO.C,R54*%
X212598000Y-65469000D03*
X212598000Y-67119000D03*
%TD*%
D19*
%TO.C,J3*%
X66868500Y-130613000D03*
X66868500Y-129513000D03*
X66868500Y-128412999D03*
X66868500Y-127312999D03*
X66868500Y-126212999D03*
X66868500Y-125112998D03*
X66868500Y-124013001D03*
X66868500Y-122913000D03*
D20*
X73018500Y-133248001D03*
X76718500Y-133248001D03*
D21*
X66993501Y-133073000D03*
D22*
X67218499Y-121753000D03*
D23*
X77693500Y-123778010D03*
X77693500Y-129748011D03*
%TD*%
D16*
%TO.C,C111*%
X242570000Y-84315000D03*
X242570000Y-85865000D03*
%TD*%
D14*
%TO.C,R101*%
X245725000Y-140500000D03*
X244075000Y-140500000D03*
%TD*%
D17*
%TO.C,R13*%
X95949000Y-159258000D03*
X97599000Y-159258000D03*
%TD*%
D12*
%TO.C,R46*%
X232918000Y-65723000D03*
X232918000Y-67373000D03*
%TD*%
D17*
%TO.C,R12*%
X89091000Y-158242000D03*
X90741000Y-158242000D03*
%TD*%
D16*
%TO.C,C77*%
X233934000Y-71869000D03*
X233934000Y-73419000D03*
%TD*%
D17*
%TO.C,R103*%
X118555000Y-160782000D03*
X120205000Y-160782000D03*
%TD*%
D12*
%TO.C,R90*%
X239014000Y-69533000D03*
X239014000Y-71183000D03*
%TD*%
D31*
%TO.C,FB2*%
X85598000Y-109982000D03*
X88523000Y-109982000D03*
%TD*%
D32*
%TO.C,U9*%
X87588999Y-94856300D03*
X86939001Y-94856300D03*
X86288999Y-94856300D03*
X85639001Y-94856300D03*
D33*
X84696300Y-95799001D03*
X84696300Y-96448999D03*
X84696300Y-97099001D03*
X84696300Y-97748999D03*
D32*
X85639001Y-98691700D03*
X86288999Y-98691700D03*
X86939001Y-98691700D03*
X87588999Y-98691700D03*
D33*
X88531700Y-97748999D03*
X88531700Y-97099001D03*
X88531700Y-96448999D03*
X88531700Y-95799001D03*
D34*
X86614000Y-96774000D03*
%TD*%
D15*
%TO.C,C26*%
X95999000Y-162306000D03*
X97549000Y-162306000D03*
%TD*%
D17*
%TO.C,R33*%
X192024000Y-150114000D03*
X193674000Y-150114000D03*
%TD*%
D18*
%TO.C,C63*%
X95530000Y-76975000D03*
X95530000Y-75425000D03*
%TD*%
%TO.C,C49*%
X97028000Y-67069000D03*
X97028000Y-65519000D03*
%TD*%
D24*
%TO.C,C48*%
X92228000Y-70612000D03*
X90678000Y-70612000D03*
%TD*%
D16*
%TO.C,C25*%
X221996000Y-71869000D03*
X221996000Y-73419000D03*
%TD*%
D35*
%TO.C,J10*%
X140975500Y-56924000D03*
X140340500Y-56924000D03*
X139705500Y-56924000D03*
X139070500Y-56924000D03*
X138435500Y-56924000D03*
X137800500Y-56924000D03*
X137165500Y-56924000D03*
X136530500Y-56924000D03*
X135895500Y-56924000D03*
X135260500Y-56924000D03*
X134625500Y-56924000D03*
X133990500Y-56924000D03*
X133355500Y-56924000D03*
X132720500Y-56924000D03*
X132085500Y-56924000D03*
X131450500Y-56924000D03*
X130815500Y-56924000D03*
X130180500Y-56924000D03*
X129545500Y-56924000D03*
X128910500Y-56924000D03*
X128275500Y-56924000D03*
X127640500Y-56924000D03*
X127005500Y-56924000D03*
X126370500Y-56924000D03*
X125735500Y-56924000D03*
X125100500Y-56924000D03*
X124465500Y-56924000D03*
X123830500Y-56924000D03*
X123195500Y-56924000D03*
X122560500Y-56924000D03*
X121925500Y-56924000D03*
X121290500Y-56924000D03*
X120655500Y-56924000D03*
X120020500Y-56924000D03*
X119385500Y-56924000D03*
X118750500Y-56924000D03*
X118115500Y-56924000D03*
X117480500Y-56924000D03*
X116845500Y-56924000D03*
X116210500Y-56924000D03*
X115575500Y-56924000D03*
X114940500Y-56924000D03*
X114305500Y-56924000D03*
X113670500Y-56924000D03*
X113035500Y-56924000D03*
X112400500Y-56924000D03*
X111765500Y-56924000D03*
X111130500Y-56924000D03*
X110495500Y-56924000D03*
X109860500Y-56924000D03*
X109225500Y-56924000D03*
X108590500Y-56924000D03*
X107955500Y-56924000D03*
X107320500Y-56924000D03*
X106685500Y-56924000D03*
X106050500Y-56924000D03*
X105415500Y-56924000D03*
X104780500Y-56924000D03*
X104145500Y-56924000D03*
X103510500Y-56924000D03*
X140975500Y-57884000D03*
X140340500Y-57884000D03*
X139705500Y-57884000D03*
X139070500Y-57884000D03*
X138435500Y-57884000D03*
X137800500Y-57884000D03*
X137165500Y-57884000D03*
X136530500Y-57884000D03*
X135895500Y-57884000D03*
X135260500Y-57884000D03*
X134625500Y-57884000D03*
X133990500Y-57884000D03*
X133355500Y-57884000D03*
X132720500Y-57884000D03*
X132085500Y-57884000D03*
X131450500Y-57884000D03*
X130815500Y-57884000D03*
X130180500Y-57884000D03*
X129545500Y-57884000D03*
X128910500Y-57884000D03*
X128275500Y-57884000D03*
X127640500Y-57884000D03*
X127005500Y-57884000D03*
X126370500Y-57884000D03*
X125735500Y-57884000D03*
X125100500Y-57884000D03*
X124465500Y-57884000D03*
X123830500Y-57884000D03*
X123195500Y-57884000D03*
X122560500Y-57884000D03*
X121925500Y-57884000D03*
X121290500Y-57884000D03*
X120655500Y-57884000D03*
X120020500Y-57884000D03*
X119385500Y-57884000D03*
X118750500Y-57884000D03*
X118115500Y-57884000D03*
X117480500Y-57884000D03*
X116845500Y-57884000D03*
X116210500Y-57884000D03*
X115575500Y-57884000D03*
X114940500Y-57884000D03*
X114305500Y-57884000D03*
X113670500Y-57884000D03*
X113035500Y-57884000D03*
X112400500Y-57884000D03*
X111765500Y-57884000D03*
X111130500Y-57884000D03*
X110495500Y-57884000D03*
X109860500Y-57884000D03*
X109225500Y-57884000D03*
X108590500Y-57884000D03*
X107955500Y-57884000D03*
X107320500Y-57884000D03*
X106685500Y-57884000D03*
X106050500Y-57884000D03*
X105415500Y-57884000D03*
X104780500Y-57884000D03*
X104145500Y-57884000D03*
X103510500Y-57884000D03*
X140975500Y-59464000D03*
X140340500Y-59464000D03*
X139705500Y-59464000D03*
X139070500Y-59464000D03*
X138435500Y-59464000D03*
X137800500Y-59464000D03*
X137165500Y-59464000D03*
X136530500Y-59464000D03*
X135895500Y-59464000D03*
X135260500Y-59464000D03*
X134625500Y-59464000D03*
X133990500Y-59464000D03*
X133355500Y-59464000D03*
X132720500Y-59464000D03*
X132085500Y-59464000D03*
X131450500Y-59464000D03*
X130815500Y-59464000D03*
X130180500Y-59464000D03*
X129545500Y-59464000D03*
X128910500Y-59464000D03*
X128275500Y-59464000D03*
X127640500Y-59464000D03*
X127005500Y-59464000D03*
X126370500Y-59464000D03*
X125735500Y-59464000D03*
X125100500Y-59464000D03*
X124465500Y-59464000D03*
X123830500Y-59464000D03*
X123195500Y-59464000D03*
X122560500Y-59464000D03*
X121925500Y-59464000D03*
X121290500Y-59464000D03*
X120655500Y-59464000D03*
X120020500Y-59464000D03*
X119385500Y-59464000D03*
X118750500Y-59464000D03*
X118115500Y-59464000D03*
X117480500Y-59464000D03*
X116845500Y-59464000D03*
X116210500Y-59464000D03*
X115575500Y-59464000D03*
X114940500Y-59464000D03*
X114305500Y-59464000D03*
X113670500Y-59464000D03*
X113035500Y-59464000D03*
X112400500Y-59464000D03*
X111765500Y-59464000D03*
X111130500Y-59464000D03*
X110495500Y-59464000D03*
X109860500Y-59464000D03*
X109225500Y-59464000D03*
X108590500Y-59464000D03*
X107955500Y-59464000D03*
X107320500Y-59464000D03*
X106685500Y-59464000D03*
X106050500Y-59464000D03*
X105415500Y-59464000D03*
X104780500Y-59464000D03*
X104145500Y-59464000D03*
X103510500Y-59464000D03*
X140975500Y-60424000D03*
X140340500Y-60424000D03*
X139705500Y-60424000D03*
X139070500Y-60424000D03*
X138435500Y-60424000D03*
X137800500Y-60424000D03*
X137165500Y-60424000D03*
X136530500Y-60424000D03*
X135895500Y-60424000D03*
X135260500Y-60424000D03*
X134625500Y-60424000D03*
X133990500Y-60424000D03*
X133355500Y-60424000D03*
X132720500Y-60424000D03*
X132085500Y-60424000D03*
X131450500Y-60424000D03*
X130815500Y-60424000D03*
X130180500Y-60424000D03*
X129545500Y-60424000D03*
X128910500Y-60424000D03*
X128275500Y-60424000D03*
X127640500Y-60424000D03*
X127005500Y-60424000D03*
X126370500Y-60424000D03*
X125735500Y-60424000D03*
X125100500Y-60424000D03*
X124465500Y-60424000D03*
X123830500Y-60424000D03*
X123195500Y-60424000D03*
X122560500Y-60424000D03*
X121925500Y-60424000D03*
X121290500Y-60424000D03*
X120655500Y-60424000D03*
X120020500Y-60424000D03*
X119385500Y-60424000D03*
X118750500Y-60424000D03*
X118115500Y-60424000D03*
X117480500Y-60424000D03*
X116845500Y-60424000D03*
X116210500Y-60424000D03*
X115575500Y-60424000D03*
X114940500Y-60424000D03*
X114305500Y-60424000D03*
X113670500Y-60424000D03*
X113035500Y-60424000D03*
X112400500Y-60424000D03*
X111765500Y-60424000D03*
X111130500Y-60424000D03*
X110495500Y-60424000D03*
X109860500Y-60424000D03*
X109225500Y-60424000D03*
X108590500Y-60424000D03*
X107955500Y-60424000D03*
X107320500Y-60424000D03*
X106685500Y-60424000D03*
X106050500Y-60424000D03*
X105415500Y-60424000D03*
X104780500Y-60424000D03*
X104145500Y-60424000D03*
X103510500Y-60424000D03*
%TD*%
D17*
%TO.C,R36*%
X170117000Y-149860000D03*
X171767000Y-149860000D03*
%TD*%
D16*
%TO.C,C98*%
X245618000Y-68821000D03*
X245618000Y-70371000D03*
%TD*%
D12*
%TO.C,R99*%
X210820000Y-68517000D03*
X210820000Y-70167000D03*
%TD*%
D14*
%TO.C,R107*%
X220525000Y-140800000D03*
X218875000Y-140800000D03*
%TD*%
%TO.C,R87*%
X81089000Y-97536000D03*
X79439000Y-97536000D03*
%TD*%
D24*
%TO.C,C45*%
X82055000Y-89776300D03*
X80505000Y-89776300D03*
%TD*%
D35*
%TO.C,J5*%
X140975500Y-123536000D03*
X140340500Y-123536000D03*
X139705500Y-123536000D03*
X139070500Y-123536000D03*
X138435500Y-123536000D03*
X137800500Y-123536000D03*
X137165500Y-123536000D03*
X136530500Y-123536000D03*
X135895500Y-123536000D03*
X135260500Y-123536000D03*
X134625500Y-123536000D03*
X133990500Y-123536000D03*
X133355500Y-123536000D03*
X132720500Y-123536000D03*
X132085500Y-123536000D03*
X131450500Y-123536000D03*
X130815500Y-123536000D03*
X130180500Y-123536000D03*
X129545500Y-123536000D03*
X128910500Y-123536000D03*
X128275500Y-123536000D03*
X127640500Y-123536000D03*
X127005500Y-123536000D03*
X126370500Y-123536000D03*
X125735500Y-123536000D03*
X125100500Y-123536000D03*
X124465500Y-123536000D03*
X123830500Y-123536000D03*
X123195500Y-123536000D03*
X122560500Y-123536000D03*
X121925500Y-123536000D03*
X121290500Y-123536000D03*
X120655500Y-123536000D03*
X120020500Y-123536000D03*
X119385500Y-123536000D03*
X118750500Y-123536000D03*
X118115500Y-123536000D03*
X117480500Y-123536000D03*
X116845500Y-123536000D03*
X116210500Y-123536000D03*
X115575500Y-123536000D03*
X114940500Y-123536000D03*
X114305500Y-123536000D03*
X113670500Y-123536000D03*
X113035500Y-123536000D03*
X112400500Y-123536000D03*
X111765500Y-123536000D03*
X111130500Y-123536000D03*
X110495500Y-123536000D03*
X109860500Y-123536000D03*
X109225500Y-123536000D03*
X108590500Y-123536000D03*
X107955500Y-123536000D03*
X107320500Y-123536000D03*
X106685500Y-123536000D03*
X106050500Y-123536000D03*
X105415500Y-123536000D03*
X104780500Y-123536000D03*
X104145500Y-123536000D03*
X103510500Y-123536000D03*
X140975500Y-124496000D03*
X140340500Y-124496000D03*
X139705500Y-124496000D03*
X139070500Y-124496000D03*
X138435500Y-124496000D03*
X137800500Y-124496000D03*
X137165500Y-124496000D03*
X136530500Y-124496000D03*
X135895500Y-124496000D03*
X135260500Y-124496000D03*
X134625500Y-124496000D03*
X133990500Y-124496000D03*
X133355500Y-124496000D03*
X132720500Y-124496000D03*
X132085500Y-124496000D03*
X131450500Y-124496000D03*
X130815500Y-124496000D03*
X130180500Y-124496000D03*
X129545500Y-124496000D03*
X128910500Y-124496000D03*
X128275500Y-124496000D03*
X127640500Y-124496000D03*
X127005500Y-124496000D03*
X126370500Y-124496000D03*
X125735500Y-124496000D03*
X125100500Y-124496000D03*
X124465500Y-124496000D03*
X123830500Y-124496000D03*
X123195500Y-124496000D03*
X122560500Y-124496000D03*
X121925500Y-124496000D03*
X121290500Y-124496000D03*
X120655500Y-124496000D03*
X120020500Y-124496000D03*
X119385500Y-124496000D03*
X118750500Y-124496000D03*
X118115500Y-124496000D03*
X117480500Y-124496000D03*
X116845500Y-124496000D03*
X116210500Y-124496000D03*
X115575500Y-124496000D03*
X114940500Y-124496000D03*
X114305500Y-124496000D03*
X113670500Y-124496000D03*
X113035500Y-124496000D03*
X112400500Y-124496000D03*
X111765500Y-124496000D03*
X111130500Y-124496000D03*
X110495500Y-124496000D03*
X109860500Y-124496000D03*
X109225500Y-124496000D03*
X108590500Y-124496000D03*
X107955500Y-124496000D03*
X107320500Y-124496000D03*
X106685500Y-124496000D03*
X106050500Y-124496000D03*
X105415500Y-124496000D03*
X104780500Y-124496000D03*
X104145500Y-124496000D03*
X103510500Y-124496000D03*
X140975500Y-126076000D03*
X140340500Y-126076000D03*
X139705500Y-126076000D03*
X139070500Y-126076000D03*
X138435500Y-126076000D03*
X137800500Y-126076000D03*
X137165500Y-126076000D03*
X136530500Y-126076000D03*
X135895500Y-126076000D03*
X135260500Y-126076000D03*
X134625500Y-126076000D03*
X133990500Y-126076000D03*
X133355500Y-126076000D03*
X132720500Y-126076000D03*
X132085500Y-126076000D03*
X131450500Y-126076000D03*
X130815500Y-126076000D03*
X130180500Y-126076000D03*
X129545500Y-126076000D03*
X128910500Y-126076000D03*
X128275500Y-126076000D03*
X127640500Y-126076000D03*
X127005500Y-126076000D03*
X126370500Y-126076000D03*
X125735500Y-126076000D03*
X125100500Y-126076000D03*
X124465500Y-126076000D03*
X123830500Y-126076000D03*
X123195500Y-126076000D03*
X122560500Y-126076000D03*
X121925500Y-126076000D03*
X121290500Y-126076000D03*
X120655500Y-126076000D03*
X120020500Y-126076000D03*
X119385500Y-126076000D03*
X118750500Y-126076000D03*
X118115500Y-126076000D03*
X117480500Y-126076000D03*
X116845500Y-126076000D03*
X116210500Y-126076000D03*
X115575500Y-126076000D03*
X114940500Y-126076000D03*
X114305500Y-126076000D03*
X113670500Y-126076000D03*
X113035500Y-126076000D03*
X112400500Y-126076000D03*
X111765500Y-126076000D03*
X111130500Y-126076000D03*
X110495500Y-126076000D03*
X109860500Y-126076000D03*
X109225500Y-126076000D03*
X108590500Y-126076000D03*
X107955500Y-126076000D03*
X107320500Y-126076000D03*
X106685500Y-126076000D03*
X106050500Y-126076000D03*
X105415500Y-126076000D03*
X104780500Y-126076000D03*
X104145500Y-126076000D03*
X103510500Y-126076000D03*
X140975500Y-127036000D03*
X140340500Y-127036000D03*
X139705500Y-127036000D03*
X139070500Y-127036000D03*
X138435500Y-127036000D03*
X137800500Y-127036000D03*
X137165500Y-127036000D03*
X136530500Y-127036000D03*
X135895500Y-127036000D03*
X135260500Y-127036000D03*
X134625500Y-127036000D03*
X133990500Y-127036000D03*
X133355500Y-127036000D03*
X132720500Y-127036000D03*
X132085500Y-127036000D03*
X131450500Y-127036000D03*
X130815500Y-127036000D03*
X130180500Y-127036000D03*
X129545500Y-127036000D03*
X128910500Y-127036000D03*
X128275500Y-127036000D03*
X127640500Y-127036000D03*
X127005500Y-127036000D03*
X126370500Y-127036000D03*
X125735500Y-127036000D03*
X125100500Y-127036000D03*
X124465500Y-127036000D03*
X123830500Y-127036000D03*
X123195500Y-127036000D03*
X122560500Y-127036000D03*
X121925500Y-127036000D03*
X121290500Y-127036000D03*
X120655500Y-127036000D03*
X120020500Y-127036000D03*
X119385500Y-127036000D03*
X118750500Y-127036000D03*
X118115500Y-127036000D03*
X117480500Y-127036000D03*
X116845500Y-127036000D03*
X116210500Y-127036000D03*
X115575500Y-127036000D03*
X114940500Y-127036000D03*
X114305500Y-127036000D03*
X113670500Y-127036000D03*
X113035500Y-127036000D03*
X112400500Y-127036000D03*
X111765500Y-127036000D03*
X111130500Y-127036000D03*
X110495500Y-127036000D03*
X109860500Y-127036000D03*
X109225500Y-127036000D03*
X108590500Y-127036000D03*
X107955500Y-127036000D03*
X107320500Y-127036000D03*
X106685500Y-127036000D03*
X106050500Y-127036000D03*
X105415500Y-127036000D03*
X104780500Y-127036000D03*
X104145500Y-127036000D03*
X103510500Y-127036000D03*
%TD*%
D17*
%TO.C,R41*%
X234875000Y-143700000D03*
X236525000Y-143700000D03*
%TD*%
D14*
%TO.C,R20*%
X224154000Y-82550000D03*
X222504000Y-82550000D03*
%TD*%
D12*
%TO.C,R93*%
X230886000Y-69724000D03*
X230886000Y-71374000D03*
%TD*%
%TO.C,R92*%
X232410000Y-68771000D03*
X232410000Y-70421000D03*
%TD*%
D16*
%TO.C,C14*%
X115062000Y-159245000D03*
X115062000Y-160795000D03*
%TD*%
D18*
%TO.C,C119*%
X102616000Y-67082000D03*
X102616000Y-65532000D03*
%TD*%
D16*
%TO.C,C80*%
X236220000Y-71869000D03*
X236220000Y-73419000D03*
%TD*%
D11*
%TO.C,R66*%
X80264000Y-111315000D03*
X80264000Y-109665000D03*
%TD*%
D25*
%TO.C,LDO9*%
X236603600Y-146340500D03*
X234901800Y-146340500D03*
X233200000Y-146340500D03*
X231498200Y-146340500D03*
X229796400Y-146340500D03*
D26*
X233200000Y-154773300D03*
%TD*%
D11*
%TO.C,R22*%
X93980000Y-68643000D03*
X93980000Y-66993000D03*
%TD*%
D17*
%TO.C,R45*%
X244075000Y-143700000D03*
X245725000Y-143700000D03*
%TD*%
%TO.C,R39*%
X218875000Y-143800000D03*
X220525000Y-143800000D03*
%TD*%
D16*
%TO.C,C9*%
X216408000Y-71628000D03*
X216408000Y-73178000D03*
%TD*%
D25*
%TO.C,LDO8*%
X160172400Y-144970500D03*
X161874200Y-144970500D03*
X163576000Y-144970500D03*
X165277800Y-144970500D03*
X166979600Y-144970500D03*
D26*
X163576000Y-136537700D03*
%TD*%
D15*
%TO.C,C13*%
X222325000Y-142300000D03*
X223875000Y-142300000D03*
%TD*%
D16*
%TO.C,C72*%
X105410000Y-44945000D03*
X105410000Y-46495000D03*
%TD*%
D17*
%TO.C,R44*%
X247475000Y-143700000D03*
X249125000Y-143700000D03*
%TD*%
D16*
%TO.C,C93*%
X240538000Y-71882000D03*
X240538000Y-73432000D03*
%TD*%
D36*
%TO.C,J14*%
X68475001Y-95200000D03*
X68475001Y-95850001D03*
X68475001Y-96500000D03*
X68475001Y-97149999D03*
X68475001Y-97800000D03*
D37*
X68749321Y-94074998D03*
X68749321Y-98925002D03*
D38*
X65800000Y-92900000D03*
X65800000Y-100100000D03*
%TD*%
D17*
%TO.C,R59*%
X209750000Y-143600000D03*
X211400000Y-143600000D03*
%TD*%
D30*
%TO.C,Q8*%
X92390001Y-80264000D03*
X90489999Y-80264000D03*
X91440000Y-82296000D03*
%TD*%
D14*
%TO.C,R40*%
X215925000Y-140800000D03*
X214275000Y-140800000D03*
%TD*%
%TO.C,R55*%
X241125000Y-140500000D03*
X239475000Y-140500000D03*
%TD*%
D17*
%TO.C,R27*%
X103823000Y-69596000D03*
X105473000Y-69596000D03*
%TD*%
%TO.C,R34*%
X186881000Y-148590000D03*
X188531000Y-148590000D03*
%TD*%
%TO.C,R2*%
X109919000Y-158496000D03*
X111569000Y-158496000D03*
%TD*%
D12*
%TO.C,R97*%
X220599000Y-68517000D03*
X220599000Y-70167000D03*
%TD*%
D18*
%TO.C,C67*%
X102362000Y-44209000D03*
X102362000Y-42659000D03*
%TD*%
D12*
%TO.C,R16*%
X240030000Y-65723000D03*
X240030000Y-67373000D03*
%TD*%
D17*
%TO.C,R35*%
X158433000Y-147574000D03*
X160083000Y-147574000D03*
%TD*%
D14*
%TO.C,R8*%
X137425000Y-157200000D03*
X135775000Y-157200000D03*
%TD*%
D17*
%TO.C,R102*%
X97727000Y-160782000D03*
X99377000Y-160782000D03*
%TD*%
%TO.C,R104*%
X188913000Y-150114000D03*
X190563000Y-150114000D03*
%TD*%
D16*
%TO.C,C121*%
X84836000Y-121412000D03*
X84836000Y-122962000D03*
%TD*%
D12*
%TO.C,R63*%
X216408000Y-68580000D03*
X216408000Y-70230000D03*
%TD*%
D16*
%TO.C,C97*%
X242062000Y-71869000D03*
X242062000Y-73419000D03*
%TD*%
D14*
%TO.C,R82*%
X207850000Y-140800000D03*
X206200000Y-140800000D03*
%TD*%
D17*
%TO.C,R23*%
X103823000Y-73660000D03*
X105473000Y-73660000D03*
%TD*%
D16*
%TO.C,C8*%
X185166000Y-148577000D03*
X185166000Y-150127000D03*
%TD*%
D39*
%TO.C,C59*%
X99568000Y-69916000D03*
X99568000Y-71816000D03*
%TD*%
D15*
%TO.C,C2*%
X209800000Y-142100000D03*
X211350000Y-142100000D03*
%TD*%
D16*
%TO.C,C68*%
X82550000Y-100317000D03*
X82550000Y-101867000D03*
%TD*%
D15*
%TO.C,C42*%
X84823000Y-86868000D03*
X86373000Y-86868000D03*
%TD*%
D40*
%TO.C,J2*%
X243275000Y-57582000D03*
X243275000Y-63322000D03*
X242775000Y-57582000D03*
X242775000Y-63322000D03*
X241775000Y-57582000D03*
X241775000Y-63322000D03*
X241275000Y-57582000D03*
X241275000Y-63322000D03*
X240275000Y-57582000D03*
X240275000Y-63322000D03*
X239775000Y-57582000D03*
X239775000Y-63322000D03*
X238775000Y-57582000D03*
X238775000Y-63322000D03*
X238275000Y-57582000D03*
X238275000Y-63322000D03*
X237275000Y-57582000D03*
X237275000Y-63322000D03*
X236775000Y-57582000D03*
X236775000Y-63322000D03*
X235775000Y-57582000D03*
X235775000Y-63322000D03*
X235275000Y-57582000D03*
X235275000Y-63322000D03*
X234275000Y-57582000D03*
X234275000Y-63322000D03*
X233775000Y-57582000D03*
X233775000Y-63322000D03*
X232775000Y-57582000D03*
X232775000Y-63322000D03*
X232275000Y-57582000D03*
X232275000Y-63322000D03*
X231275000Y-57582000D03*
X231275000Y-63322000D03*
X230775000Y-57582000D03*
X230775000Y-63322000D03*
X229775000Y-57582000D03*
X229775000Y-63322000D03*
X229275000Y-57582000D03*
X229275000Y-63322000D03*
X223275000Y-57582000D03*
X223275000Y-63322000D03*
X222775000Y-57582000D03*
X222775000Y-63322000D03*
X221775000Y-57582000D03*
X221775000Y-63322000D03*
X221275000Y-57582000D03*
X221275000Y-63322000D03*
X220275000Y-57582000D03*
X220275000Y-63322000D03*
X219775000Y-57582000D03*
X219775000Y-63322000D03*
X218775000Y-57582000D03*
X218775000Y-63322000D03*
X218275000Y-57582000D03*
X218275000Y-63322000D03*
X217275000Y-57582000D03*
X217275000Y-63322000D03*
X216775000Y-57582000D03*
X216775000Y-63322000D03*
X215775000Y-57582000D03*
X215775000Y-63322000D03*
X215275000Y-57582000D03*
X215275000Y-63322000D03*
X214275000Y-57582000D03*
X214275000Y-63322000D03*
X213775000Y-57582000D03*
X213775000Y-63322000D03*
X212775000Y-57582000D03*
X212775000Y-63322000D03*
X212275000Y-57582000D03*
X212275000Y-63322000D03*
X211275000Y-57582000D03*
X211275000Y-63322000D03*
X210775000Y-57582000D03*
X210775000Y-63322000D03*
X209775000Y-57582000D03*
X209775000Y-63322000D03*
X209275000Y-57582000D03*
X209275000Y-63322000D03*
D41*
X244095000Y-60452000D03*
D42*
X239205000Y-60452000D03*
X232855000Y-60452000D03*
D41*
X227965000Y-60452000D03*
X224085000Y-60452000D03*
D42*
X219195000Y-60452000D03*
X212845000Y-60452000D03*
D41*
X207955000Y-60452000D03*
%TD*%
D24*
%TO.C,C120*%
X81801000Y-117602000D03*
X80251000Y-117602000D03*
%TD*%
D43*
%TO.C,L3*%
X91950000Y-67564000D03*
X90930000Y-67564000D03*
%TD*%
D24*
%TO.C,C92*%
X209055000Y-55372000D03*
X207505000Y-55372000D03*
%TD*%
D17*
%TO.C,R11*%
X121603000Y-160782000D03*
X123253000Y-160782000D03*
%TD*%
D12*
%TO.C,R49*%
X221488000Y-65469000D03*
X221488000Y-67119000D03*
%TD*%
D25*
%TO.C,LDO7*%
X181762400Y-144957800D03*
X183464200Y-144957800D03*
X185166000Y-144957800D03*
X186867800Y-144957800D03*
X188569600Y-144957800D03*
D26*
X185166000Y-136525000D03*
%TD*%
D16*
%TO.C,C76*%
X232410000Y-71869000D03*
X232410000Y-73419000D03*
%TD*%
%TO.C,C81*%
X237490000Y-68821000D03*
X237490000Y-70371000D03*
%TD*%
D12*
%TO.C,R77*%
X244094000Y-68771000D03*
X244094000Y-70421000D03*
%TD*%
D17*
%TO.C,R60*%
X206275000Y-143800000D03*
X207925000Y-143800000D03*
%TD*%
D25*
%TO.C,LDO10*%
X224003600Y-146340500D03*
X222301800Y-146340500D03*
X220600000Y-146340500D03*
X218898200Y-146340500D03*
X217196400Y-146340500D03*
D26*
X220600000Y-154773300D03*
%TD*%
D17*
%TO.C,R24*%
X106871000Y-72644000D03*
X108521000Y-72644000D03*
%TD*%
D14*
%TO.C,R31*%
X81089000Y-96012000D03*
X79439000Y-96012000D03*
%TD*%
D12*
%TO.C,R91*%
X234442000Y-68771000D03*
X234442000Y-70421000D03*
%TD*%
D14*
%TO.C,R65*%
X89979000Y-88138000D03*
X88329000Y-88138000D03*
%TD*%
D12*
%TO.C,R94*%
X224282000Y-68771000D03*
X224282000Y-70421000D03*
%TD*%
D15*
%TO.C,C47*%
X125717000Y-49022000D03*
X127267000Y-49022000D03*
%TD*%
%TO.C,C115*%
X222237000Y-84074000D03*
X223787000Y-84074000D03*
%TD*%
D25*
%TO.C,LDO1*%
X211403600Y-146340500D03*
X209701800Y-146340500D03*
X208000000Y-146340500D03*
X206298200Y-146340500D03*
X204596400Y-146340500D03*
D26*
X208000000Y-154773300D03*
%TD*%
D14*
%TO.C,R106*%
X233025000Y-140500000D03*
X231375000Y-140500000D03*
%TD*%
D17*
%TO.C,R78*%
X103823000Y-71628000D03*
X105473000Y-71628000D03*
%TD*%
D15*
%TO.C,C65*%
X89649000Y-92710000D03*
X91199000Y-92710000D03*
%TD*%
D12*
%TO.C,R69*%
X100076000Y-46419000D03*
X100076000Y-48069000D03*
%TD*%
D14*
%TO.C,R109*%
X74739000Y-135382000D03*
X73089000Y-135382000D03*
%TD*%
D16*
%TO.C,C28*%
X225806000Y-68821000D03*
X225806000Y-70371000D03*
%TD*%
%TO.C,C58*%
X97480000Y-70045000D03*
X97480000Y-71595000D03*
%TD*%
D14*
%TO.C,R21*%
X224154000Y-81026000D03*
X222504000Y-81026000D03*
%TD*%
D40*
%TO.C,J4*%
X243275000Y-123642000D03*
X243275000Y-129382000D03*
X242775000Y-123642000D03*
X242775000Y-129382000D03*
X241775000Y-123642000D03*
X241775000Y-129382000D03*
X241275000Y-123642000D03*
X241275000Y-129382000D03*
X240275000Y-123642000D03*
X240275000Y-129382000D03*
X239775000Y-123642000D03*
X239775000Y-129382000D03*
X238775000Y-123642000D03*
X238775000Y-129382000D03*
X238275000Y-123642000D03*
X238275000Y-129382000D03*
X237275000Y-123642000D03*
X237275000Y-129382000D03*
X236775000Y-123642000D03*
X236775000Y-129382000D03*
X235775000Y-123642000D03*
X235775000Y-129382000D03*
X235275000Y-123642000D03*
X235275000Y-129382000D03*
X234275000Y-123642000D03*
X234275000Y-129382000D03*
X233775000Y-123642000D03*
X233775000Y-129382000D03*
X232775000Y-123642000D03*
X232775000Y-129382000D03*
X232275000Y-123642000D03*
X232275000Y-129382000D03*
X231275000Y-123642000D03*
X231275000Y-129382000D03*
X230775000Y-123642000D03*
X230775000Y-129382000D03*
X229775000Y-123642000D03*
X229775000Y-129382000D03*
X229275000Y-123642000D03*
X229275000Y-129382000D03*
X223275000Y-123642000D03*
X223275000Y-129382000D03*
X222775000Y-123642000D03*
X222775000Y-129382000D03*
X221775000Y-123642000D03*
X221775000Y-129382000D03*
X221275000Y-123642000D03*
X221275000Y-129382000D03*
X220275000Y-123642000D03*
X220275000Y-129382000D03*
X219775000Y-123642000D03*
X219775000Y-129382000D03*
X218775000Y-123642000D03*
X218775000Y-129382000D03*
X218275000Y-123642000D03*
X218275000Y-129382000D03*
X217275000Y-123642000D03*
X217275000Y-129382000D03*
X216775000Y-123642000D03*
X216775000Y-129382000D03*
X215775000Y-123642000D03*
X215775000Y-129382000D03*
X215275000Y-123642000D03*
X215275000Y-129382000D03*
X214275000Y-123642000D03*
X214275000Y-129382000D03*
X213775000Y-123642000D03*
X213775000Y-129382000D03*
X212775000Y-123642000D03*
X212775000Y-129382000D03*
X212275000Y-123642000D03*
X212275000Y-129382000D03*
X211275000Y-123642000D03*
X211275000Y-129382000D03*
X210775000Y-123642000D03*
X210775000Y-129382000D03*
X209775000Y-123642000D03*
X209775000Y-129382000D03*
X209275000Y-123642000D03*
X209275000Y-129382000D03*
D41*
X244095000Y-126512000D03*
D42*
X239205000Y-126512000D03*
X232855000Y-126512000D03*
D41*
X227965000Y-126512000D03*
X224085000Y-126512000D03*
D42*
X219195000Y-126512000D03*
X212845000Y-126512000D03*
D41*
X207955000Y-126512000D03*
%TD*%
D17*
%TO.C,R105*%
X167069000Y-149860000D03*
X168719000Y-149860000D03*
%TD*%
D16*
%TO.C,C10*%
X163576000Y-148577000D03*
X163576000Y-150127000D03*
%TD*%
D12*
%TO.C,R95*%
X235966000Y-68771000D03*
X235966000Y-70421000D03*
%TD*%
D25*
%TO.C,LDO2*%
X249203600Y-146340500D03*
X247501800Y-146340500D03*
X245800000Y-146340500D03*
X244098200Y-146340500D03*
X242396400Y-146340500D03*
D26*
X245800000Y-154773300D03*
%TD*%
D24*
%TO.C,C110*%
X210579000Y-80010000D03*
X209029000Y-80010000D03*
%TD*%
D15*
%TO.C,C17*%
X90665000Y-66040000D03*
X92215000Y-66040000D03*
%TD*%
D16*
%TO.C,C11*%
X217932000Y-71615000D03*
X217932000Y-73165000D03*
%TD*%
D12*
%TO.C,R48*%
X223012000Y-65469000D03*
X223012000Y-67119000D03*
%TD*%
%TO.C,R9*%
X243586000Y-65723000D03*
X243586000Y-67373000D03*
%TD*%
%TO.C,R47*%
X231394000Y-65723000D03*
X231394000Y-67373000D03*
%TD*%
D14*
%TO.C,R61*%
X203225000Y-140800000D03*
X201575000Y-140800000D03*
%TD*%
D18*
%TO.C,C106*%
X95504000Y-67069000D03*
X95504000Y-65519000D03*
%TD*%
D25*
%TO.C,LDO5*%
X90830400Y-155892500D03*
X92532200Y-155892500D03*
X94234000Y-155892500D03*
X95935800Y-155892500D03*
X97637600Y-155892500D03*
D26*
X94234000Y-147459700D03*
%TD*%
D12*
%TO.C,R52*%
X216154000Y-65469000D03*
X216154000Y-67119000D03*
%TD*%
D16*
%TO.C,C1*%
X209296000Y-68567000D03*
X209296000Y-70117000D03*
%TD*%
D18*
%TO.C,C51*%
X98552000Y-67069000D03*
X98552000Y-65519000D03*
%TD*%
D14*
%TO.C,R67*%
X107251000Y-49022000D03*
X105601000Y-49022000D03*
%TD*%
D16*
%TO.C,C16*%
X220472000Y-71615000D03*
X220472000Y-73165000D03*
%TD*%
D12*
%TO.C,R89*%
X240538000Y-68771000D03*
X240538000Y-70421000D03*
%TD*%
D24*
%TO.C,C50*%
X92215000Y-69088000D03*
X90665000Y-69088000D03*
%TD*%
D16*
%TO.C,C6*%
X212344000Y-71628000D03*
X212344000Y-73178000D03*
%TD*%
D15*
%TO.C,C44*%
X89395000Y-89776300D03*
X90945000Y-89776300D03*
%TD*%
D12*
%TO.C,R64*%
X214884000Y-68580000D03*
X214884000Y-70230000D03*
%TD*%
%TO.C,R30*%
X234696000Y-65723000D03*
X234696000Y-67373000D03*
%TD*%
D24*
%TO.C,R88*%
X232275000Y-46200000D03*
X230725000Y-46200000D03*
%TD*%
D12*
%TO.C,R17*%
X238506000Y-65723000D03*
X238506000Y-67373000D03*
%TD*%
D17*
%TO.C,R10*%
X116777000Y-159258000D03*
X118427000Y-159258000D03*
%TD*%
D12*
%TO.C,R50*%
X219456000Y-65469000D03*
X219456000Y-67119000D03*
%TD*%
D24*
%TO.C,C19*%
X231475000Y-142100000D03*
X229925000Y-142100000D03*
%TD*%
D17*
%TO.C,R32*%
X180023000Y-147574000D03*
X181673000Y-147574000D03*
%TD*%
D27*
%TO.C,ADC1*%
X232714800Y-78276000D03*
X232714800Y-78775999D03*
X232714800Y-79276001D03*
X232714800Y-79776000D03*
X232714800Y-80275999D03*
X232714800Y-80776000D03*
X232714800Y-81276000D03*
X232714800Y-81776001D03*
X232714800Y-82276000D03*
X232714800Y-82775999D03*
X232714800Y-83276001D03*
X232714800Y-83776000D03*
D28*
X233368400Y-84429600D03*
X233868399Y-84429600D03*
X234368401Y-84429600D03*
X234868400Y-84429600D03*
X235368399Y-84429600D03*
X235868400Y-84429600D03*
X236368400Y-84429600D03*
X236868401Y-84429600D03*
X237368400Y-84429600D03*
X237868399Y-84429600D03*
X238368401Y-84429600D03*
X238868400Y-84429600D03*
D27*
X239522000Y-83776000D03*
X239522000Y-83276001D03*
X239522000Y-82775999D03*
X239522000Y-82276000D03*
X239522000Y-81776001D03*
X239522000Y-81276000D03*
X239522000Y-80776000D03*
X239522000Y-80275999D03*
X239522000Y-79776000D03*
X239522000Y-79276001D03*
X239522000Y-78775999D03*
X239522000Y-78276000D03*
D28*
X238868400Y-77622400D03*
X238368401Y-77622400D03*
X237868399Y-77622400D03*
X237368400Y-77622400D03*
X236868401Y-77622400D03*
X236368400Y-77622400D03*
X235868400Y-77622400D03*
X235368399Y-77622400D03*
X234868400Y-77622400D03*
X234368401Y-77622400D03*
X233868399Y-77622400D03*
X233368400Y-77622400D03*
D29*
X236118400Y-81026000D03*
%TD*%
D14*
%TO.C,R19*%
X244665000Y-82804000D03*
X243015000Y-82804000D03*
%TD*%
D11*
%TO.C,R79*%
X151638000Y-107251000D03*
X151638000Y-105601000D03*
%TD*%
D18*
%TO.C,C118*%
X104140000Y-67082000D03*
X104140000Y-65532000D03*
%TD*%
D14*
%TO.C,R81*%
X91249000Y-94234000D03*
X89599000Y-94234000D03*
%TD*%
D17*
%TO.C,R37*%
X165291000Y-148336000D03*
X166941000Y-148336000D03*
%TD*%
D30*
%TO.C,Q6*%
X97025001Y-81280000D03*
X95124999Y-81280000D03*
X96075000Y-83312000D03*
%TD*%
D14*
%TO.C,R43*%
X228425000Y-140500000D03*
X226775000Y-140500000D03*
%TD*%
D24*
%TO.C,C23*%
X244075000Y-142100000D03*
X242525000Y-142100000D03*
%TD*%
M02*
