%TF.GenerationSoftware,KiCad,Pcbnew,9.0.2*%
%TF.CreationDate,2025-10-06T13:03:54-05:00*%
%TF.ProjectId,PSEC5_Ctrl_Board,50534543-355f-4437-9472-6c5f426f6172,rev?*%
%TF.SameCoordinates,Original*%
%TF.FileFunction,Other,User*%
%FSLAX46Y46*%
G04 Gerber Fmt 4.6, Leading zero omitted, Abs format (unit mm)*
G04 Created by KiCad (PCBNEW 9.0.2) date 2025-10-06 13:03:54*
%MOMM*%
%LPD*%
G01*
G04 APERTURE LIST*
%ADD10C,0.050000*%
%ADD11C,0.152400*%
G04 APERTURE END LIST*
D10*
%TO.C,TP21*%
X121940000Y-150388000D02*
X121940000Y-152888000D01*
X121940000Y-150388000D02*
X124440000Y-150388000D01*
X124440000Y-152888000D02*
X121940000Y-152888000D01*
X124440000Y-152888000D02*
X124440000Y-150388000D01*
D11*
%TO.C,U16*%
X176962000Y-157936000D02*
X200838000Y-157936000D01*
X176962000Y-166064000D02*
X176962000Y-157936000D01*
X200838000Y-157936000D02*
X200838000Y-166064000D01*
X200838000Y-166064000D02*
X176962000Y-166064000D01*
D10*
%TO.C,R68*%
X79534000Y-113328000D02*
X80994000Y-113328000D01*
X79534000Y-116288000D02*
X79534000Y-113328000D01*
X80994000Y-113328000D02*
X80994000Y-116288000D01*
X80994000Y-116288000D02*
X79534000Y-116288000D01*
%TO.C,R62*%
X218345000Y-67862000D02*
X219805000Y-67862000D01*
X218345000Y-70822000D02*
X218345000Y-67862000D01*
X219805000Y-67862000D02*
X219805000Y-70822000D01*
X219805000Y-70822000D02*
X218345000Y-70822000D01*
%TO.C,SW2*%
X109040000Y-39912000D02*
X124640000Y-39912000D01*
X109040000Y-50512000D02*
X109040000Y-39912000D01*
X124640000Y-39912000D02*
X124640000Y-50512000D01*
X124640000Y-50512000D02*
X109040000Y-50512000D01*
%TO.C,T1*%
X66304000Y-63553000D02*
X89144000Y-63553000D01*
X66304000Y-82243000D02*
X66304000Y-63553000D01*
X89144000Y-63553000D02*
X89144000Y-82243000D01*
X89144000Y-82243000D02*
X66304000Y-82243000D01*
%TO.C,R18*%
X242360000Y-80550000D02*
X245320000Y-80550000D01*
X242360000Y-82010000D02*
X242360000Y-80550000D01*
X245320000Y-80550000D02*
X245320000Y-82010000D01*
X245320000Y-82010000D02*
X242360000Y-82010000D01*
%TO.C,C27*%
X116122000Y-161576000D02*
X119082000Y-161576000D01*
X116122000Y-163036000D02*
X116122000Y-161576000D01*
X119082000Y-161576000D02*
X119082000Y-163036000D01*
X119082000Y-163036000D02*
X116122000Y-163036000D01*
%TO.C,R83*%
X72688000Y-118142000D02*
X75648000Y-118142000D01*
X72688000Y-119602000D02*
X72688000Y-118142000D01*
X75648000Y-118142000D02*
X75648000Y-119602000D01*
X75648000Y-119602000D02*
X72688000Y-119602000D01*
%TO.C,C7*%
X213392000Y-70910000D02*
X214852000Y-70910000D01*
X213392000Y-73870000D02*
X213392000Y-70910000D01*
X214852000Y-70910000D02*
X214852000Y-73870000D01*
X214852000Y-73870000D02*
X213392000Y-73870000D01*
%TO.C,C122*%
X85642000Y-113062000D02*
X88602000Y-113062000D01*
X85642000Y-114522000D02*
X85642000Y-113062000D01*
X88602000Y-113062000D02*
X88602000Y-114522000D01*
X88602000Y-114522000D02*
X85642000Y-114522000D01*
%TO.C,C18*%
X164636000Y-150654000D02*
X167596000Y-150654000D01*
X164636000Y-152114000D02*
X164636000Y-150654000D01*
X167596000Y-150654000D02*
X167596000Y-152114000D01*
X167596000Y-152114000D02*
X164636000Y-152114000D01*
%TO.C,TP33*%
X173150000Y-106150000D02*
X173150000Y-108650000D01*
X173150000Y-106150000D02*
X175650000Y-106150000D01*
X175650000Y-108650000D02*
X173150000Y-108650000D01*
X175650000Y-108650000D02*
X175650000Y-106150000D01*
%TO.C,R72*%
X210090000Y-64814000D02*
X211550000Y-64814000D01*
X210090000Y-67774000D02*
X210090000Y-64814000D01*
X211550000Y-64814000D02*
X211550000Y-67774000D01*
X211550000Y-67774000D02*
X210090000Y-67774000D01*
%TO.C,R26*%
X106216000Y-69882000D02*
X109176000Y-69882000D01*
X106216000Y-71342000D02*
X106216000Y-69882000D01*
X109176000Y-69882000D02*
X109176000Y-71342000D01*
X109176000Y-71342000D02*
X106216000Y-71342000D01*
%TO.C,C61*%
X96298000Y-74720000D02*
X97758000Y-74720000D01*
X96298000Y-77680000D02*
X96298000Y-74720000D01*
X97758000Y-74720000D02*
X97758000Y-77680000D01*
X97758000Y-77680000D02*
X96298000Y-77680000D01*
%TO.C,C94*%
X83090000Y-106724000D02*
X84550000Y-106724000D01*
X83090000Y-109684000D02*
X83090000Y-106724000D01*
X84550000Y-106724000D02*
X84550000Y-109684000D01*
X84550000Y-109684000D02*
X83090000Y-109684000D01*
D11*
%TO.C,J6*%
X66037399Y-104633400D02*
X66037399Y-106360600D01*
X66037399Y-106360600D02*
X66043000Y-106360600D01*
X66041001Y-115762900D02*
X66041001Y-117871100D01*
X66041001Y-117871100D02*
X67946001Y-117871100D01*
X66043000Y-106360600D02*
X66043000Y-115017400D01*
X66043000Y-115017400D02*
X66357500Y-115017400D01*
X66357500Y-115017400D02*
X66357500Y-115762900D01*
X66357500Y-115762900D02*
X66041001Y-115762900D01*
X67946001Y-117551200D02*
X72243800Y-117551200D01*
X67946001Y-117871100D02*
X67946001Y-117551200D01*
X68399599Y-104633400D02*
X66037399Y-104633400D01*
X68399599Y-104952800D02*
X68399599Y-104633400D01*
X72243800Y-117551200D02*
X72243800Y-117868301D01*
X72243800Y-117868301D02*
X73793200Y-117868301D01*
X73793200Y-117551200D02*
X75943800Y-117551200D01*
X73793200Y-117868301D02*
X73793200Y-117551200D01*
X75943800Y-117551200D02*
X75943800Y-117868301D01*
X75943800Y-117868301D02*
X77493200Y-117868301D01*
X77493200Y-117551200D02*
X78422500Y-117551200D01*
X77493200Y-117868301D02*
X77493200Y-117551200D01*
X78422500Y-104952800D02*
X68399599Y-104952800D01*
X78422500Y-106290110D02*
X78422500Y-104952800D01*
X78422500Y-108753910D02*
X78646000Y-108753910D01*
X78422500Y-112260111D02*
X78422500Y-108753910D01*
X78422500Y-114723911D02*
X78646000Y-114723911D01*
X78422500Y-117551200D02*
X78422500Y-114723911D01*
X78646000Y-106290110D02*
X78422500Y-106290110D01*
X78646000Y-108753910D02*
X78646000Y-106290110D01*
X78646000Y-112260111D02*
X78422500Y-112260111D01*
X78646000Y-114723911D02*
X78646000Y-112260111D01*
D10*
%TO.C,TP2*%
X191028000Y-141244000D02*
X191028000Y-143744000D01*
X191028000Y-141244000D02*
X193528000Y-141244000D01*
X193528000Y-143744000D02*
X191028000Y-143744000D01*
X193528000Y-143744000D02*
X193528000Y-141244000D01*
%TO.C,TP28*%
X246550000Y-38650000D02*
X246550000Y-41150000D01*
X246550000Y-38650000D02*
X249050000Y-38650000D01*
X249050000Y-41150000D02*
X246550000Y-41150000D01*
X249050000Y-41150000D02*
X249050000Y-38650000D01*
%TO.C,H6*%
X152118000Y-56655000D02*
G75*
G02*
X146018000Y-56655000I-3050000J0D01*
G01*
X146018000Y-56655000D02*
G75*
G02*
X152118000Y-56655000I3050000J0D01*
G01*
D11*
%TO.C,J7*%
X158661100Y-68618100D02*
X158661100Y-84086700D01*
X158661100Y-84086700D02*
X167728900Y-84086700D01*
X167728900Y-68618100D02*
X158661100Y-68618100D01*
X167728900Y-84086700D02*
X167728900Y-68618100D01*
D10*
%TO.C,C22*%
X203820000Y-141570000D02*
X206780000Y-141570000D01*
X203820000Y-143030000D02*
X203820000Y-141570000D01*
X206780000Y-141570000D02*
X206780000Y-143030000D01*
X206780000Y-143030000D02*
X203820000Y-143030000D01*
%TO.C,C66*%
X83344000Y-99625000D02*
X84804000Y-99625000D01*
X83344000Y-102585000D02*
X83344000Y-99625000D01*
X84804000Y-99625000D02*
X84804000Y-102585000D01*
X84804000Y-102585000D02*
X83344000Y-102585000D01*
%TO.C,C4*%
X184956000Y-150908000D02*
X187916000Y-150908000D01*
X184956000Y-152368000D02*
X184956000Y-150908000D01*
X187916000Y-150908000D02*
X187916000Y-152368000D01*
X187916000Y-152368000D02*
X184956000Y-152368000D01*
%TO.C,TP31*%
X173150000Y-100950000D02*
X173150000Y-103450000D01*
X173150000Y-100950000D02*
X175650000Y-100950000D01*
X175650000Y-103450000D02*
X173150000Y-103450000D01*
X175650000Y-103450000D02*
X175650000Y-100950000D01*
%TO.C,R53*%
X213900000Y-64814000D02*
X215360000Y-64814000D01*
X213900000Y-67774000D02*
X213900000Y-64814000D01*
X215360000Y-64814000D02*
X215360000Y-67774000D01*
X215360000Y-67774000D02*
X213900000Y-67774000D01*
%TO.C,R28*%
X106216000Y-68104000D02*
X109176000Y-68104000D01*
X106216000Y-69564000D02*
X106216000Y-68104000D01*
X109176000Y-68104000D02*
X109176000Y-69564000D01*
X109176000Y-69564000D02*
X106216000Y-69564000D01*
%TO.C,C20*%
X216620000Y-141570000D02*
X219580000Y-141570000D01*
X216620000Y-143030000D02*
X216620000Y-141570000D01*
X219580000Y-141570000D02*
X219580000Y-143030000D01*
X219580000Y-143030000D02*
X216620000Y-143030000D01*
%TO.C,R15*%
X241332000Y-65068000D02*
X242792000Y-65068000D01*
X241332000Y-68028000D02*
X241332000Y-65068000D01*
X242792000Y-65068000D02*
X242792000Y-68028000D01*
X242792000Y-68028000D02*
X241332000Y-68028000D01*
%TO.C,R42*%
X230820000Y-142970000D02*
X233780000Y-142970000D01*
X230820000Y-144430000D02*
X230820000Y-142970000D01*
X233780000Y-142970000D02*
X233780000Y-144430000D01*
X233780000Y-144430000D02*
X230820000Y-144430000D01*
%TO.C,R98*%
X211868000Y-67862000D02*
X213328000Y-67862000D01*
X211868000Y-70822000D02*
X211868000Y-67862000D01*
X213328000Y-67862000D02*
X213328000Y-70822000D01*
X213328000Y-70822000D02*
X211868000Y-70822000D01*
%TO.C,R25*%
X235490000Y-65068000D02*
X236950000Y-65068000D01*
X235490000Y-68028000D02*
X235490000Y-65068000D01*
X236950000Y-65068000D02*
X236950000Y-68028000D01*
X236950000Y-68028000D02*
X235490000Y-68028000D01*
%TO.C,C74*%
X228632000Y-68116000D02*
X230092000Y-68116000D01*
X228632000Y-71076000D02*
X228632000Y-68116000D01*
X230092000Y-68116000D02*
X230092000Y-71076000D01*
X230092000Y-71076000D02*
X228632000Y-71076000D01*
%TO.C,R58*%
X81566000Y-108248000D02*
X83026000Y-108248000D01*
X81566000Y-111208000D02*
X81566000Y-108248000D01*
X83026000Y-108248000D02*
X83026000Y-111208000D01*
X83026000Y-111208000D02*
X81566000Y-111208000D01*
%TO.C,C12*%
X234220000Y-141370000D02*
X237180000Y-141370000D01*
X234220000Y-142830000D02*
X234220000Y-141370000D01*
X237180000Y-141370000D02*
X237180000Y-142830000D01*
X237180000Y-142830000D02*
X234220000Y-142830000D01*
%TO.C,SW1*%
X83132000Y-39912000D02*
X98732000Y-39912000D01*
X83132000Y-50512000D02*
X83132000Y-39912000D01*
X98732000Y-39912000D02*
X98732000Y-50512000D01*
X98732000Y-50512000D02*
X83132000Y-50512000D01*
%TO.C,C109*%
X207054000Y-82074000D02*
X210014000Y-82074000D01*
X207054000Y-83534000D02*
X207054000Y-82074000D01*
X210014000Y-82074000D02*
X210014000Y-83534000D01*
X210014000Y-83534000D02*
X207054000Y-83534000D01*
D11*
%TO.C,LDO4*%
X109601000Y-141935200D02*
X120523000Y-141935200D01*
X109601000Y-157454600D02*
X109601000Y-141935200D01*
X120523000Y-141935200D02*
X120523000Y-157454600D01*
X120523000Y-157454600D02*
X109601000Y-157454600D01*
D10*
%TO.C,R51*%
X217202000Y-64814000D02*
X218662000Y-64814000D01*
X217202000Y-67774000D02*
X217202000Y-64814000D01*
X218662000Y-64814000D02*
X218662000Y-67774000D01*
X218662000Y-67774000D02*
X217202000Y-67774000D01*
%TO.C,R14*%
X100120000Y-160052000D02*
X103080000Y-160052000D01*
X100120000Y-161512000D02*
X100120000Y-160052000D01*
X103080000Y-160052000D02*
X103080000Y-161512000D01*
X103080000Y-161512000D02*
X100120000Y-161512000D01*
%TO.C,C46*%
X89973000Y-71406000D02*
X92933000Y-71406000D01*
X89973000Y-72866000D02*
X89973000Y-71406000D01*
X92933000Y-71406000D02*
X92933000Y-72866000D01*
X92933000Y-72866000D02*
X89973000Y-72866000D01*
%TO.C,C21*%
X104934000Y-64827000D02*
X106394000Y-64827000D01*
X104934000Y-67787000D02*
X104934000Y-64827000D01*
X106394000Y-64827000D02*
X106394000Y-67787000D01*
X106394000Y-67787000D02*
X104934000Y-67787000D01*
%TO.C,R29*%
X194220000Y-166170000D02*
X197180000Y-166170000D01*
X194220000Y-167630000D02*
X194220000Y-166170000D01*
X197180000Y-166170000D02*
X197180000Y-167630000D01*
X197180000Y-167630000D02*
X194220000Y-167630000D01*
%TO.C,C3*%
X246820000Y-141370000D02*
X249780000Y-141370000D01*
X246820000Y-142830000D02*
X246820000Y-141370000D01*
X249780000Y-141370000D02*
X249780000Y-142830000D01*
X249780000Y-142830000D02*
X246820000Y-142830000D01*
D11*
%TO.C,ADC2*%
X212242400Y-77637000D02*
X212547200Y-77637000D01*
X212242400Y-83899000D02*
X212242400Y-77637000D01*
X212547200Y-77008800D02*
X213175400Y-77008800D01*
X212547200Y-77637000D02*
X212547200Y-77008800D01*
X212547200Y-83899000D02*
X212242400Y-83899000D01*
X212547200Y-84527200D02*
X212547200Y-83899000D01*
X213175400Y-76704000D02*
X219437400Y-76704000D01*
X213175400Y-77008800D02*
X213175400Y-76704000D01*
X213175400Y-84527200D02*
X212547200Y-84527200D01*
X213175400Y-84832000D02*
X213175400Y-84527200D01*
X219437400Y-76704000D02*
X219437400Y-77008800D01*
X219437400Y-77008800D02*
X220065600Y-77008800D01*
X219437400Y-84527200D02*
X219437400Y-84832000D01*
X219437400Y-84832000D02*
X213175400Y-84832000D01*
X220065600Y-77008800D02*
X220065600Y-77637000D01*
X220065600Y-77637000D02*
X220370400Y-77637000D01*
X220065600Y-83899000D02*
X220065600Y-84527200D01*
X220065600Y-84527200D02*
X219437400Y-84527200D01*
X220370400Y-77637000D02*
X220370400Y-83899000D01*
X220370400Y-83899000D02*
X220065600Y-83899000D01*
%TO.C,U12*%
X101703899Y-45048000D02*
X104320099Y-45048000D01*
X101703899Y-48356000D02*
X101703899Y-45048000D01*
X104320099Y-45048000D02*
X104320099Y-48356000D01*
X104320099Y-48356000D02*
X101703899Y-48356000D01*
D10*
%TO.C,R38*%
X221620000Y-143170000D02*
X224580000Y-143170000D01*
X221620000Y-144630000D02*
X221620000Y-143170000D01*
X224580000Y-143170000D02*
X224580000Y-144630000D01*
X224580000Y-144630000D02*
X221620000Y-144630000D01*
%TO.C,C52*%
X99359000Y-64827000D02*
X100819000Y-64827000D01*
X99359000Y-67787000D02*
X99359000Y-64827000D01*
X100819000Y-64827000D02*
X100819000Y-67787000D01*
X100819000Y-67787000D02*
X99359000Y-67787000D01*
%TO.C,R96*%
X222028000Y-68116000D02*
X223488000Y-68116000D01*
X222028000Y-71076000D02*
X222028000Y-68116000D01*
X223488000Y-68116000D02*
X223488000Y-71076000D01*
X223488000Y-71076000D02*
X222028000Y-71076000D01*
%TO.C,C15*%
X93504000Y-158286000D02*
X94964000Y-158286000D01*
X93504000Y-161246000D02*
X93504000Y-158286000D01*
X94964000Y-158286000D02*
X94964000Y-161246000D01*
X94964000Y-161246000D02*
X93504000Y-161246000D01*
%TO.C,TP32*%
X173150000Y-103550000D02*
X173150000Y-106050000D01*
X173150000Y-103550000D02*
X175650000Y-103550000D01*
X175650000Y-106050000D02*
X173150000Y-106050000D01*
X175650000Y-106050000D02*
X175650000Y-103550000D01*
%TO.C,R86*%
X214674000Y-54134000D02*
X217634000Y-54134000D01*
X214674000Y-55594000D02*
X214674000Y-54134000D01*
X217634000Y-54134000D02*
X217634000Y-55594000D01*
X217634000Y-55594000D02*
X214674000Y-55594000D01*
%TO.C,TP8*%
X227650000Y-162850000D02*
X227650000Y-165350000D01*
X227650000Y-162850000D02*
X230150000Y-162850000D01*
X230150000Y-165350000D02*
X227650000Y-165350000D01*
X230150000Y-165350000D02*
X230150000Y-162850000D01*
%TO.C,TP15*%
X178350000Y-117150000D02*
X178350000Y-119650000D01*
X178350000Y-117150000D02*
X180850000Y-117150000D01*
X180850000Y-119650000D02*
X178350000Y-119650000D01*
X180850000Y-119650000D02*
X180850000Y-117150000D01*
D11*
%TO.C,J12*%
X66430400Y-46214800D02*
X66430400Y-63385200D01*
X66430400Y-63385200D02*
X73237600Y-63385200D01*
X73237600Y-46214800D02*
X66430400Y-46214800D01*
X73237600Y-63385200D02*
X73237600Y-46214800D01*
D10*
%TO.C,R80*%
X241840000Y-68116000D02*
X243300000Y-68116000D01*
X241840000Y-71076000D02*
X241840000Y-68116000D01*
X243300000Y-68116000D02*
X243300000Y-71076000D01*
X243300000Y-71076000D02*
X241840000Y-71076000D01*
D11*
%TO.C,Q4*%
X81216500Y-112331500D02*
X81511100Y-112331500D01*
X81216500Y-114236500D02*
X81216500Y-112331500D01*
X81216500Y-114236500D02*
X82461100Y-114236500D01*
X81511100Y-112331500D02*
X81511100Y-111353600D01*
X82461100Y-114236500D02*
X82461100Y-115214400D01*
X83527900Y-114236500D02*
X83527900Y-115214400D01*
X83527900Y-115214400D02*
X82461100Y-115214400D01*
X84477900Y-111353600D02*
X81511100Y-111353600D01*
X84477900Y-112331500D02*
X84477900Y-111353600D01*
X84772500Y-112331500D02*
X84477900Y-112331500D01*
X84772500Y-112331500D02*
X84772500Y-114236500D01*
X84772500Y-114236500D02*
X83527900Y-114236500D01*
D10*
%TO.C,R54*%
X211868000Y-64814000D02*
X213328000Y-64814000D01*
X211868000Y-67774000D02*
X211868000Y-64814000D01*
X213328000Y-64814000D02*
X213328000Y-67774000D01*
X213328000Y-67774000D02*
X211868000Y-67774000D01*
D11*
%TO.C,J3*%
X66037399Y-120889400D02*
X66037399Y-122616600D01*
X66037399Y-122616600D02*
X66043000Y-122616600D01*
X66041001Y-132018900D02*
X66041001Y-134127100D01*
X66041001Y-134127100D02*
X67946001Y-134127100D01*
X66043000Y-122616600D02*
X66043000Y-131273400D01*
X66043000Y-131273400D02*
X66357500Y-131273400D01*
X66357500Y-131273400D02*
X66357500Y-132018900D01*
X66357500Y-132018900D02*
X66041001Y-132018900D01*
X67946001Y-133807200D02*
X72243800Y-133807200D01*
X67946001Y-134127100D02*
X67946001Y-133807200D01*
X68399599Y-120889400D02*
X66037399Y-120889400D01*
X68399599Y-121208800D02*
X68399599Y-120889400D01*
X72243800Y-133807200D02*
X72243800Y-134124301D01*
X72243800Y-134124301D02*
X73793200Y-134124301D01*
X73793200Y-133807200D02*
X75943800Y-133807200D01*
X73793200Y-134124301D02*
X73793200Y-133807200D01*
X75943800Y-133807200D02*
X75943800Y-134124301D01*
X75943800Y-134124301D02*
X77493200Y-134124301D01*
X77493200Y-133807200D02*
X78422500Y-133807200D01*
X77493200Y-134124301D02*
X77493200Y-133807200D01*
X78422500Y-121208800D02*
X68399599Y-121208800D01*
X78422500Y-122546110D02*
X78422500Y-121208800D01*
X78422500Y-125009910D02*
X78646000Y-125009910D01*
X78422500Y-128516111D02*
X78422500Y-125009910D01*
X78422500Y-130979911D02*
X78646000Y-130979911D01*
X78422500Y-133807200D02*
X78422500Y-130979911D01*
X78646000Y-122546110D02*
X78422500Y-122546110D01*
X78646000Y-125009910D02*
X78646000Y-122546110D01*
X78646000Y-128516111D02*
X78422500Y-128516111D01*
X78646000Y-130979911D02*
X78646000Y-128516111D01*
D10*
%TO.C,TP4*%
X169438000Y-141244000D02*
X169438000Y-143744000D01*
X169438000Y-141244000D02*
X171938000Y-141244000D01*
X171938000Y-143744000D02*
X169438000Y-143744000D01*
X171938000Y-143744000D02*
X171938000Y-141244000D01*
%TO.C,TP17*%
X253850000Y-150950000D02*
X253850000Y-153450000D01*
X253850000Y-150950000D02*
X256350000Y-150950000D01*
X256350000Y-153450000D02*
X253850000Y-153450000D01*
X256350000Y-153450000D02*
X256350000Y-150950000D01*
%TO.C,TP6*%
X214750000Y-163050000D02*
X214750000Y-165550000D01*
X214750000Y-163050000D02*
X217250000Y-163050000D01*
X217250000Y-165550000D02*
X214750000Y-165550000D01*
X217250000Y-165550000D02*
X217250000Y-163050000D01*
%TO.C,TP23*%
X84856000Y-145414000D02*
X84856000Y-147914000D01*
X84856000Y-145414000D02*
X87356000Y-145414000D01*
X87356000Y-147914000D02*
X84856000Y-147914000D01*
X87356000Y-147914000D02*
X87356000Y-145414000D01*
%TO.C,C111*%
X241840000Y-83610000D02*
X243300000Y-83610000D01*
X241840000Y-86570000D02*
X241840000Y-83610000D01*
X243300000Y-83610000D02*
X243300000Y-86570000D01*
X243300000Y-86570000D02*
X241840000Y-86570000D01*
%TO.C,R101*%
X243420000Y-139770000D02*
X246380000Y-139770000D01*
X243420000Y-141230000D02*
X243420000Y-139770000D01*
X246380000Y-139770000D02*
X246380000Y-141230000D01*
X246380000Y-141230000D02*
X243420000Y-141230000D01*
%TO.C,R13*%
X95294000Y-158528000D02*
X98254000Y-158528000D01*
X95294000Y-159988000D02*
X95294000Y-158528000D01*
X98254000Y-158528000D02*
X98254000Y-159988000D01*
X98254000Y-159988000D02*
X95294000Y-159988000D01*
%TO.C,H2*%
X259050000Y-42500000D02*
G75*
G02*
X252950000Y-42500000I-3050000J0D01*
G01*
X252950000Y-42500000D02*
G75*
G02*
X259050000Y-42500000I3050000J0D01*
G01*
%TO.C,R46*%
X232188000Y-65068000D02*
X233648000Y-65068000D01*
X232188000Y-68028000D02*
X232188000Y-65068000D01*
X233648000Y-65068000D02*
X233648000Y-68028000D01*
X233648000Y-68028000D02*
X232188000Y-68028000D01*
%TO.C,R12*%
X88436000Y-157512000D02*
X91396000Y-157512000D01*
X88436000Y-158972000D02*
X88436000Y-157512000D01*
X91396000Y-157512000D02*
X91396000Y-158972000D01*
X91396000Y-158972000D02*
X88436000Y-158972000D01*
%TO.C,C77*%
X233204000Y-71164000D02*
X234664000Y-71164000D01*
X233204000Y-74124000D02*
X233204000Y-71164000D01*
X234664000Y-71164000D02*
X234664000Y-74124000D01*
X234664000Y-74124000D02*
X233204000Y-74124000D01*
%TO.C,R103*%
X117900000Y-160052000D02*
X120860000Y-160052000D01*
X117900000Y-161512000D02*
X117900000Y-160052000D01*
X120860000Y-160052000D02*
X120860000Y-161512000D01*
X120860000Y-161512000D02*
X117900000Y-161512000D01*
%TO.C,R90*%
X238284000Y-68878000D02*
X239744000Y-68878000D01*
X238284000Y-71838000D02*
X238284000Y-68878000D01*
X239744000Y-68878000D02*
X239744000Y-71838000D01*
X239744000Y-71838000D02*
X238284000Y-71838000D01*
%TO.C,FB2*%
X84780500Y-108862000D02*
X89340500Y-108862000D01*
X84780500Y-111102000D02*
X84780500Y-108862000D01*
X89340500Y-108862000D02*
X89340500Y-111102000D01*
X89340500Y-111102000D02*
X84780500Y-111102000D01*
D11*
%TO.C,U9*%
X84061300Y-95392600D02*
X84366100Y-95392600D01*
X84061300Y-98155400D02*
X84061300Y-95392600D01*
X84366100Y-94526100D02*
X85232600Y-94526100D01*
X84366100Y-95392600D02*
X84366100Y-94526100D01*
X84366100Y-98155400D02*
X84061300Y-98155400D01*
X84366100Y-99021900D02*
X84366100Y-98155400D01*
X85232600Y-94221300D02*
X87995400Y-94221300D01*
X85232600Y-94526100D02*
X85232600Y-94221300D01*
X85232600Y-99021900D02*
X84366100Y-99021900D01*
X85232600Y-99326700D02*
X85232600Y-99021900D01*
X87995400Y-94221300D02*
X87995400Y-94526100D01*
X87995400Y-94526100D02*
X88861900Y-94526100D01*
X87995400Y-99021900D02*
X87995400Y-99326700D01*
X87995400Y-99326700D02*
X85232600Y-99326700D01*
X88861900Y-94526100D02*
X88861900Y-95392600D01*
X88861900Y-95392600D02*
X89166700Y-95392600D01*
X88861900Y-98155400D02*
X88861900Y-99021900D01*
X88861900Y-99021900D02*
X87995400Y-99021900D01*
X89166700Y-95392600D02*
X89166700Y-98155400D01*
X89166700Y-98155400D02*
X88861900Y-98155400D01*
D10*
%TO.C,C26*%
X95294000Y-161576000D02*
X98254000Y-161576000D01*
X95294000Y-163036000D02*
X95294000Y-161576000D01*
X98254000Y-161576000D02*
X98254000Y-163036000D01*
X98254000Y-163036000D02*
X95294000Y-163036000D01*
%TO.C,R33*%
X191369000Y-149384000D02*
X194329000Y-149384000D01*
X191369000Y-150844000D02*
X191369000Y-149384000D01*
X194329000Y-149384000D02*
X194329000Y-150844000D01*
X194329000Y-150844000D02*
X191369000Y-150844000D01*
%TO.C,C63*%
X94800000Y-74720000D02*
X96260000Y-74720000D01*
X94800000Y-77680000D02*
X94800000Y-74720000D01*
X96260000Y-74720000D02*
X96260000Y-77680000D01*
X96260000Y-77680000D02*
X94800000Y-77680000D01*
%TO.C,C49*%
X96298000Y-64814000D02*
X97758000Y-64814000D01*
X96298000Y-67774000D02*
X96298000Y-64814000D01*
X97758000Y-64814000D02*
X97758000Y-67774000D01*
X97758000Y-67774000D02*
X96298000Y-67774000D01*
%TO.C,C48*%
X89973000Y-69882000D02*
X92933000Y-69882000D01*
X89973000Y-71342000D02*
X89973000Y-69882000D01*
X92933000Y-69882000D02*
X92933000Y-71342000D01*
X92933000Y-71342000D02*
X89973000Y-71342000D01*
%TO.C,C25*%
X221266000Y-71164000D02*
X222726000Y-71164000D01*
X221266000Y-74124000D02*
X221266000Y-71164000D01*
X222726000Y-71164000D02*
X222726000Y-74124000D01*
X222726000Y-74124000D02*
X221266000Y-74124000D01*
%TO.C,J10*%
X100583000Y-56756000D02*
X101415000Y-55924000D01*
X100583000Y-61424000D02*
X100583000Y-56756000D01*
X101415000Y-55924000D02*
X143071000Y-55924000D01*
X143071000Y-55924000D02*
X143903000Y-56756000D01*
X143903000Y-56756000D02*
X143903000Y-61424000D01*
X143903000Y-61424000D02*
X100583000Y-61424000D01*
%TO.C,TP13*%
X211250000Y-163050000D02*
X211250000Y-165550000D01*
X211250000Y-163050000D02*
X213750000Y-163050000D01*
X213750000Y-165550000D02*
X211250000Y-165550000D01*
X213750000Y-165550000D02*
X213750000Y-163050000D01*
%TO.C,R36*%
X169462000Y-149130000D02*
X172422000Y-149130000D01*
X169462000Y-150590000D02*
X169462000Y-149130000D01*
X172422000Y-149130000D02*
X172422000Y-150590000D01*
X172422000Y-150590000D02*
X169462000Y-150590000D01*
%TO.C,C98*%
X244888000Y-68116000D02*
X246348000Y-68116000D01*
X244888000Y-71076000D02*
X244888000Y-68116000D01*
X246348000Y-68116000D02*
X246348000Y-71076000D01*
X246348000Y-71076000D02*
X244888000Y-71076000D01*
%TO.C,R99*%
X210090000Y-67862000D02*
X211550000Y-67862000D01*
X210090000Y-70822000D02*
X210090000Y-67862000D01*
X211550000Y-67862000D02*
X211550000Y-70822000D01*
X211550000Y-70822000D02*
X210090000Y-70822000D01*
%TO.C,H1*%
X70650000Y-42500000D02*
G75*
G02*
X64550000Y-42500000I-3050000J0D01*
G01*
X64550000Y-42500000D02*
G75*
G02*
X70650000Y-42500000I3050000J0D01*
G01*
%TO.C,TP1*%
X191028000Y-143784000D02*
X191028000Y-146284000D01*
X191028000Y-143784000D02*
X193528000Y-143784000D01*
X193528000Y-146284000D02*
X191028000Y-146284000D01*
X193528000Y-146284000D02*
X193528000Y-143784000D01*
%TO.C,R107*%
X218220000Y-140070000D02*
X221180000Y-140070000D01*
X218220000Y-141530000D02*
X218220000Y-140070000D01*
X221180000Y-140070000D02*
X221180000Y-141530000D01*
X221180000Y-141530000D02*
X218220000Y-141530000D01*
%TO.C,R87*%
X78784000Y-96806000D02*
X81744000Y-96806000D01*
X78784000Y-98266000D02*
X78784000Y-96806000D01*
X81744000Y-96806000D02*
X81744000Y-98266000D01*
X81744000Y-98266000D02*
X78784000Y-98266000D01*
%TO.C,TP16*%
X143050000Y-151350000D02*
X143050000Y-153850000D01*
X143050000Y-151350000D02*
X145550000Y-151350000D01*
X145550000Y-153850000D02*
X143050000Y-153850000D01*
X145550000Y-153850000D02*
X145550000Y-151350000D01*
%TO.C,C45*%
X79800000Y-89046300D02*
X82760000Y-89046300D01*
X79800000Y-90506300D02*
X79800000Y-89046300D01*
X82760000Y-89046300D02*
X82760000Y-90506300D01*
X82760000Y-90506300D02*
X79800000Y-90506300D01*
%TO.C,J5*%
X100583000Y-123368000D02*
X101415000Y-122536000D01*
X100583000Y-128036000D02*
X100583000Y-123368000D01*
X101415000Y-122536000D02*
X143071000Y-122536000D01*
X143071000Y-122536000D02*
X143903000Y-123368000D01*
X143903000Y-123368000D02*
X143903000Y-128036000D01*
X143903000Y-128036000D02*
X100583000Y-128036000D01*
%TO.C,R41*%
X234220000Y-142970000D02*
X237180000Y-142970000D01*
X234220000Y-144430000D02*
X234220000Y-142970000D01*
X237180000Y-142970000D02*
X237180000Y-144430000D01*
X237180000Y-144430000D02*
X234220000Y-144430000D01*
%TO.C,R20*%
X221849000Y-81820000D02*
X224809000Y-81820000D01*
X221849000Y-83280000D02*
X221849000Y-81820000D01*
X224809000Y-81820000D02*
X224809000Y-83280000D01*
X224809000Y-83280000D02*
X221849000Y-83280000D01*
%TO.C,R93*%
X230156000Y-69069000D02*
X231616000Y-69069000D01*
X230156000Y-72029000D02*
X230156000Y-69069000D01*
X231616000Y-69069000D02*
X231616000Y-72029000D01*
X231616000Y-72029000D02*
X230156000Y-72029000D01*
%TO.C,TP7*%
X236350000Y-162650000D02*
X236350000Y-165150000D01*
X236350000Y-162650000D02*
X238850000Y-162650000D01*
X238850000Y-165150000D02*
X236350000Y-165150000D01*
X238850000Y-165150000D02*
X238850000Y-162650000D01*
%TO.C,H4*%
X259050000Y-164900000D02*
G75*
G02*
X252950000Y-164900000I-3050000J0D01*
G01*
X252950000Y-164900000D02*
G75*
G02*
X259050000Y-164900000I3050000J0D01*
G01*
%TO.C,R92*%
X231680000Y-68116000D02*
X233140000Y-68116000D01*
X231680000Y-71076000D02*
X231680000Y-68116000D01*
X233140000Y-68116000D02*
X233140000Y-71076000D01*
X233140000Y-71076000D02*
X231680000Y-71076000D01*
%TO.C,H5*%
X98468000Y-56655000D02*
G75*
G02*
X92368000Y-56655000I-3050000J0D01*
G01*
X92368000Y-56655000D02*
G75*
G02*
X98468000Y-56655000I3050000J0D01*
G01*
%TO.C,C14*%
X114332000Y-158540000D02*
X115792000Y-158540000D01*
X114332000Y-161500000D02*
X114332000Y-158540000D01*
X115792000Y-158540000D02*
X115792000Y-161500000D01*
X115792000Y-161500000D02*
X114332000Y-161500000D01*
%TO.C,C119*%
X101886000Y-64827000D02*
X103346000Y-64827000D01*
X101886000Y-67787000D02*
X101886000Y-64827000D01*
X103346000Y-64827000D02*
X103346000Y-67787000D01*
X103346000Y-67787000D02*
X101886000Y-67787000D01*
%TO.C,C80*%
X235490000Y-71164000D02*
X236950000Y-71164000D01*
X235490000Y-74124000D02*
X235490000Y-71164000D01*
X236950000Y-71164000D02*
X236950000Y-74124000D01*
X236950000Y-74124000D02*
X235490000Y-74124000D01*
%TO.C,TP11*%
X146070000Y-104287000D02*
X146070000Y-106787000D01*
X146070000Y-104287000D02*
X148570000Y-104287000D01*
X148570000Y-106787000D02*
X146070000Y-106787000D01*
X148570000Y-106787000D02*
X148570000Y-104287000D01*
%TO.C,R66*%
X79534000Y-109010000D02*
X80994000Y-109010000D01*
X79534000Y-111970000D02*
X79534000Y-109010000D01*
X80994000Y-109010000D02*
X80994000Y-111970000D01*
X80994000Y-111970000D02*
X79534000Y-111970000D01*
D11*
%TO.C,LDO9*%
X227739000Y-144740300D02*
X238661000Y-144740300D01*
X227739000Y-160259700D02*
X227739000Y-144740300D01*
X238661000Y-144740300D02*
X238661000Y-160259700D01*
X238661000Y-160259700D02*
X227739000Y-160259700D01*
D10*
%TO.C,R22*%
X93250000Y-66338000D02*
X94710000Y-66338000D01*
X93250000Y-69298000D02*
X93250000Y-66338000D01*
X94710000Y-66338000D02*
X94710000Y-69298000D01*
X94710000Y-69298000D02*
X93250000Y-69298000D01*
%TO.C,JP1*%
X85700000Y-131550000D02*
X85700000Y-134050000D01*
X85700000Y-131550000D02*
X90300000Y-131550000D01*
X90300000Y-134050000D02*
X85700000Y-134050000D01*
X90300000Y-134050000D02*
X90300000Y-131550000D01*
%TO.C,R45*%
X243420000Y-142970000D02*
X246380000Y-142970000D01*
X243420000Y-144430000D02*
X243420000Y-142970000D01*
X246380000Y-142970000D02*
X246380000Y-144430000D01*
X246380000Y-144430000D02*
X243420000Y-144430000D01*
%TO.C,R39*%
X218220000Y-143070000D02*
X221180000Y-143070000D01*
X218220000Y-144530000D02*
X218220000Y-143070000D01*
X221180000Y-143070000D02*
X221180000Y-144530000D01*
X221180000Y-144530000D02*
X218220000Y-144530000D01*
%TO.C,C9*%
X215678000Y-70923000D02*
X217138000Y-70923000D01*
X215678000Y-73883000D02*
X215678000Y-70923000D01*
X217138000Y-70923000D02*
X217138000Y-73883000D01*
X217138000Y-73883000D02*
X215678000Y-73883000D01*
D11*
%TO.C,LDO8*%
X158115000Y-131051300D02*
X169037000Y-131051300D01*
X158115000Y-146570700D02*
X158115000Y-131051300D01*
X169037000Y-131051300D02*
X169037000Y-146570700D01*
X169037000Y-146570700D02*
X158115000Y-146570700D01*
D10*
%TO.C,C13*%
X221620000Y-141570000D02*
X224580000Y-141570000D01*
X221620000Y-143030000D02*
X221620000Y-141570000D01*
X224580000Y-141570000D02*
X224580000Y-143030000D01*
X224580000Y-143030000D02*
X221620000Y-143030000D01*
%TO.C,C72*%
X104680000Y-44240000D02*
X106140000Y-44240000D01*
X104680000Y-47200000D02*
X104680000Y-44240000D01*
X106140000Y-44240000D02*
X106140000Y-47200000D01*
X106140000Y-47200000D02*
X104680000Y-47200000D01*
%TO.C,R44*%
X246820000Y-142970000D02*
X249780000Y-142970000D01*
X246820000Y-144430000D02*
X246820000Y-142970000D01*
X249780000Y-142970000D02*
X249780000Y-144430000D01*
X249780000Y-144430000D02*
X246820000Y-144430000D01*
%TO.C,C93*%
X239808000Y-71177000D02*
X241268000Y-71177000D01*
X239808000Y-74137000D02*
X239808000Y-71177000D01*
X241268000Y-71177000D02*
X241268000Y-74137000D01*
X241268000Y-74137000D02*
X239808000Y-74137000D01*
D11*
%TO.C,J14*%
X62795903Y-91896700D02*
X62795903Y-101103300D01*
X62795903Y-101103300D02*
X69402101Y-101103300D01*
X69402101Y-91896700D02*
X62795903Y-91896700D01*
X69402101Y-101103300D02*
X69402101Y-91896700D01*
D10*
%TO.C,R59*%
X209095000Y-142870000D02*
X212055000Y-142870000D01*
X209095000Y-144330000D02*
X209095000Y-142870000D01*
X212055000Y-142870000D02*
X212055000Y-144330000D01*
X212055000Y-144330000D02*
X209095000Y-144330000D01*
%TO.C,H7*%
X98468000Y-127305000D02*
G75*
G02*
X92368000Y-127305000I-3050000J0D01*
G01*
X92368000Y-127305000D02*
G75*
G02*
X98468000Y-127305000I3050000J0D01*
G01*
D11*
%TO.C,Q8*%
X89662000Y-80327500D02*
X89956600Y-80327500D01*
X89662000Y-82232500D02*
X89662000Y-80327500D01*
X89662000Y-82232500D02*
X90906600Y-82232500D01*
X89956600Y-80327500D02*
X89956600Y-79349600D01*
X90906600Y-82232500D02*
X90906600Y-83210400D01*
X91973400Y-82232500D02*
X91973400Y-83210400D01*
X91973400Y-83210400D02*
X90906600Y-83210400D01*
X92923400Y-79349600D02*
X89956600Y-79349600D01*
X92923400Y-80327500D02*
X92923400Y-79349600D01*
X93218000Y-80327500D02*
X92923400Y-80327500D01*
X93218000Y-80327500D02*
X93218000Y-82232500D01*
X93218000Y-82232500D02*
X91973400Y-82232500D01*
D10*
%TO.C,TP30*%
X180750000Y-103450000D02*
X180750000Y-105950000D01*
X180750000Y-103450000D02*
X183250000Y-103450000D01*
X183250000Y-105950000D02*
X180750000Y-105950000D01*
X183250000Y-105950000D02*
X183250000Y-103450000D01*
%TO.C,R40*%
X213620000Y-140070000D02*
X216580000Y-140070000D01*
X213620000Y-141530000D02*
X213620000Y-140070000D01*
X216580000Y-140070000D02*
X216580000Y-141530000D01*
X216580000Y-141530000D02*
X213620000Y-141530000D01*
%TO.C,R55*%
X238820000Y-139770000D02*
X241780000Y-139770000D01*
X238820000Y-141230000D02*
X238820000Y-139770000D01*
X241780000Y-139770000D02*
X241780000Y-141230000D01*
X241780000Y-141230000D02*
X238820000Y-141230000D01*
%TO.C,R27*%
X103168000Y-68866000D02*
X106128000Y-68866000D01*
X103168000Y-70326000D02*
X103168000Y-68866000D01*
X106128000Y-68866000D02*
X106128000Y-70326000D01*
X106128000Y-70326000D02*
X103168000Y-70326000D01*
%TO.C,R34*%
X186226000Y-147860000D02*
X189186000Y-147860000D01*
X186226000Y-149320000D02*
X186226000Y-147860000D01*
X189186000Y-147860000D02*
X189186000Y-149320000D01*
X189186000Y-149320000D02*
X186226000Y-149320000D01*
%TO.C,R2*%
X109264000Y-157766000D02*
X112224000Y-157766000D01*
X109264000Y-159226000D02*
X109264000Y-157766000D01*
X112224000Y-157766000D02*
X112224000Y-159226000D01*
X112224000Y-159226000D02*
X109264000Y-159226000D01*
%TO.C,R97*%
X219869000Y-67862000D02*
X221329000Y-67862000D01*
X219869000Y-70822000D02*
X219869000Y-67862000D01*
X221329000Y-67862000D02*
X221329000Y-70822000D01*
X221329000Y-70822000D02*
X219869000Y-70822000D01*
%TO.C,TP19*%
X217952000Y-52304000D02*
X217952000Y-49804000D01*
X217952000Y-52304000D02*
X220452000Y-52304000D01*
X220452000Y-49804000D02*
X217952000Y-49804000D01*
X220452000Y-49804000D02*
X220452000Y-52304000D01*
%TO.C,H14*%
X163267000Y-103487000D02*
G75*
G02*
X158967000Y-103487000I-2150000J0D01*
G01*
X158967000Y-103487000D02*
G75*
G02*
X163267000Y-103487000I2150000J0D01*
G01*
%TO.C,C67*%
X101632000Y-41954000D02*
X103092000Y-41954000D01*
X101632000Y-44914000D02*
X101632000Y-41954000D01*
X103092000Y-41954000D02*
X103092000Y-44914000D01*
X103092000Y-44914000D02*
X101632000Y-44914000D01*
%TO.C,R16*%
X239300000Y-65068000D02*
X240760000Y-65068000D01*
X239300000Y-68028000D02*
X239300000Y-65068000D01*
X240760000Y-65068000D02*
X240760000Y-68028000D01*
X240760000Y-68028000D02*
X239300000Y-68028000D01*
%TO.C,TP27*%
X243950000Y-38650000D02*
X243950000Y-41150000D01*
X243950000Y-38650000D02*
X246450000Y-38650000D01*
X246450000Y-41150000D02*
X243950000Y-41150000D01*
X246450000Y-41150000D02*
X246450000Y-38650000D01*
%TO.C,R35*%
X157778000Y-146844000D02*
X160738000Y-146844000D01*
X157778000Y-148304000D02*
X157778000Y-146844000D01*
X160738000Y-146844000D02*
X160738000Y-148304000D01*
X160738000Y-148304000D02*
X157778000Y-148304000D01*
%TO.C,R8*%
X135120000Y-156470000D02*
X138080000Y-156470000D01*
X135120000Y-157930000D02*
X135120000Y-156470000D01*
X138080000Y-156470000D02*
X138080000Y-157930000D01*
X138080000Y-157930000D02*
X135120000Y-157930000D01*
%TO.C,R102*%
X97072000Y-160052000D02*
X100032000Y-160052000D01*
X97072000Y-161512000D02*
X97072000Y-160052000D01*
X100032000Y-160052000D02*
X100032000Y-161512000D01*
X100032000Y-161512000D02*
X97072000Y-161512000D01*
%TO.C,R104*%
X188258000Y-149384000D02*
X191218000Y-149384000D01*
X188258000Y-150844000D02*
X188258000Y-149384000D01*
X191218000Y-149384000D02*
X191218000Y-150844000D01*
X191218000Y-150844000D02*
X188258000Y-150844000D01*
%TO.C,C121*%
X84106000Y-120707000D02*
X85566000Y-120707000D01*
X84106000Y-123667000D02*
X84106000Y-120707000D01*
X85566000Y-120707000D02*
X85566000Y-123667000D01*
X85566000Y-123667000D02*
X84106000Y-123667000D01*
%TO.C,H3*%
X70650000Y-164900000D02*
G75*
G02*
X64550000Y-164900000I-3050000J0D01*
G01*
X64550000Y-164900000D02*
G75*
G02*
X70650000Y-164900000I3050000J0D01*
G01*
%TO.C,H8*%
X152118000Y-127305000D02*
G75*
G02*
X146018000Y-127305000I-3050000J0D01*
G01*
X146018000Y-127305000D02*
G75*
G02*
X152118000Y-127305000I3050000J0D01*
G01*
%TO.C,R63*%
X215678000Y-67925000D02*
X217138000Y-67925000D01*
X215678000Y-70885000D02*
X215678000Y-67925000D01*
X217138000Y-67925000D02*
X217138000Y-70885000D01*
X217138000Y-70885000D02*
X215678000Y-70885000D01*
%TO.C,C97*%
X241332000Y-71164000D02*
X242792000Y-71164000D01*
X241332000Y-74124000D02*
X241332000Y-71164000D01*
X242792000Y-71164000D02*
X242792000Y-74124000D01*
X242792000Y-74124000D02*
X241332000Y-74124000D01*
%TO.C,R82*%
X205545000Y-140070000D02*
X208505000Y-140070000D01*
X205545000Y-141530000D02*
X205545000Y-140070000D01*
X208505000Y-140070000D02*
X208505000Y-141530000D01*
X208505000Y-141530000D02*
X205545000Y-141530000D01*
D11*
%TO.C,U11*%
X84164000Y-87703901D02*
X87472000Y-87703901D01*
X84164000Y-90320101D02*
X84164000Y-87703901D01*
X87472000Y-87703901D02*
X87472000Y-90320101D01*
X87472000Y-90320101D02*
X84164000Y-90320101D01*
D10*
%TO.C,R23*%
X103168000Y-72930000D02*
X106128000Y-72930000D01*
X103168000Y-74390000D02*
X103168000Y-72930000D01*
X106128000Y-72930000D02*
X106128000Y-74390000D01*
X106128000Y-74390000D02*
X103168000Y-74390000D01*
%TO.C,TP22*%
X121940000Y-153182000D02*
X121940000Y-155682000D01*
X121940000Y-153182000D02*
X124440000Y-153182000D01*
X124440000Y-155682000D02*
X121940000Y-155682000D01*
X124440000Y-155682000D02*
X124440000Y-153182000D01*
%TO.C,C8*%
X184436000Y-147872000D02*
X185896000Y-147872000D01*
X184436000Y-150832000D02*
X184436000Y-147872000D01*
X185896000Y-147872000D02*
X185896000Y-150832000D01*
X185896000Y-150832000D02*
X184436000Y-150832000D01*
%TO.C,TP10*%
X240250000Y-162650000D02*
X240250000Y-165150000D01*
X240250000Y-162650000D02*
X242750000Y-162650000D01*
X242750000Y-165150000D02*
X240250000Y-165150000D01*
X242750000Y-165150000D02*
X242750000Y-162650000D01*
%TO.C,TP20*%
X228250000Y-39750000D02*
X228250000Y-42250000D01*
X228250000Y-39750000D02*
X230750000Y-39750000D01*
X230750000Y-42250000D02*
X228250000Y-42250000D01*
X230750000Y-42250000D02*
X230750000Y-39750000D01*
%TO.C,C59*%
X98588000Y-69166000D02*
X100548000Y-69166000D01*
X98588000Y-72566000D02*
X98588000Y-69166000D01*
X100548000Y-69166000D02*
X100548000Y-72566000D01*
X100548000Y-72566000D02*
X98588000Y-72566000D01*
%TO.C,TP14*%
X202250000Y-162850000D02*
X202250000Y-165350000D01*
X202250000Y-162850000D02*
X204750000Y-162850000D01*
X204750000Y-165350000D02*
X202250000Y-165350000D01*
X204750000Y-165350000D02*
X204750000Y-162850000D01*
%TO.C,C2*%
X209095000Y-141370000D02*
X212055000Y-141370000D01*
X209095000Y-142830000D02*
X209095000Y-141370000D01*
X212055000Y-141370000D02*
X212055000Y-142830000D01*
X212055000Y-142830000D02*
X209095000Y-142830000D01*
%TO.C,C68*%
X81820000Y-99612000D02*
X83280000Y-99612000D01*
X81820000Y-102572000D02*
X81820000Y-99612000D01*
X83280000Y-99612000D02*
X83280000Y-102572000D01*
X83280000Y-102572000D02*
X81820000Y-102572000D01*
%TO.C,C42*%
X84118000Y-86138000D02*
X87078000Y-86138000D01*
X84118000Y-87598000D02*
X84118000Y-86138000D01*
X87078000Y-86138000D02*
X87078000Y-87598000D01*
X87078000Y-87598000D02*
X84118000Y-87598000D01*
%TO.C,J2*%
X205135000Y-56197000D02*
X205135000Y-64707000D01*
X205135000Y-64707000D02*
X246915000Y-64707000D01*
X246915000Y-56197000D02*
X205135000Y-56197000D01*
X246915000Y-64707000D02*
X246915000Y-56197000D01*
%TO.C,C120*%
X79546000Y-116872000D02*
X82506000Y-116872000D01*
X79546000Y-118332000D02*
X79546000Y-116872000D01*
X82506000Y-116872000D02*
X82506000Y-118332000D01*
X82506000Y-118332000D02*
X79546000Y-118332000D01*
%TO.C,L3*%
X90510000Y-67094000D02*
X92370000Y-67094000D01*
X90510000Y-68034000D02*
X90510000Y-67094000D01*
X92370000Y-67094000D02*
X92370000Y-68034000D01*
X92370000Y-68034000D02*
X90510000Y-68034000D01*
%TO.C,C92*%
X206800000Y-54642000D02*
X209760000Y-54642000D01*
X206800000Y-56102000D02*
X206800000Y-54642000D01*
X209760000Y-54642000D02*
X209760000Y-56102000D01*
X209760000Y-56102000D02*
X206800000Y-56102000D01*
%TO.C,R11*%
X120948000Y-160052000D02*
X123908000Y-160052000D01*
X120948000Y-161512000D02*
X120948000Y-160052000D01*
X123908000Y-160052000D02*
X123908000Y-161512000D01*
X123908000Y-161512000D02*
X120948000Y-161512000D01*
%TO.C,TP29*%
X180750000Y-100850000D02*
X180750000Y-103350000D01*
X180750000Y-100850000D02*
X183250000Y-100850000D01*
X183250000Y-103350000D02*
X180750000Y-103350000D01*
X183250000Y-103350000D02*
X183250000Y-100850000D01*
%TO.C,R49*%
X220758000Y-64814000D02*
X222218000Y-64814000D01*
X220758000Y-67774000D02*
X220758000Y-64814000D01*
X222218000Y-64814000D02*
X222218000Y-67774000D01*
X222218000Y-67774000D02*
X220758000Y-67774000D01*
D11*
%TO.C,LDO7*%
X179705000Y-131038600D02*
X190627000Y-131038600D01*
X179705000Y-146558000D02*
X179705000Y-131038600D01*
X190627000Y-131038600D02*
X190627000Y-146558000D01*
X190627000Y-146558000D02*
X179705000Y-146558000D01*
D10*
%TO.C,TP25*%
X241450000Y-38650000D02*
X241450000Y-41150000D01*
X241450000Y-38650000D02*
X243950000Y-38650000D01*
X243950000Y-41150000D02*
X241450000Y-41150000D01*
X243950000Y-41150000D02*
X243950000Y-38650000D01*
%TO.C,C76*%
X231680000Y-71164000D02*
X233140000Y-71164000D01*
X231680000Y-74124000D02*
X231680000Y-71164000D01*
X233140000Y-71164000D02*
X233140000Y-74124000D01*
X233140000Y-74124000D02*
X231680000Y-74124000D01*
%TO.C,C81*%
X236760000Y-68116000D02*
X238220000Y-68116000D01*
X236760000Y-71076000D02*
X236760000Y-68116000D01*
X238220000Y-68116000D02*
X238220000Y-71076000D01*
X238220000Y-71076000D02*
X236760000Y-71076000D01*
%TO.C,R77*%
X243364000Y-68116000D02*
X244824000Y-68116000D01*
X243364000Y-71076000D02*
X243364000Y-68116000D01*
X244824000Y-68116000D02*
X244824000Y-71076000D01*
X244824000Y-71076000D02*
X243364000Y-71076000D01*
%TO.C,R60*%
X205620000Y-143070000D02*
X208580000Y-143070000D01*
X205620000Y-144530000D02*
X205620000Y-143070000D01*
X208580000Y-143070000D02*
X208580000Y-144530000D01*
X208580000Y-144530000D02*
X205620000Y-144530000D01*
D11*
%TO.C,LDO10*%
X215139000Y-144740300D02*
X226061000Y-144740300D01*
X215139000Y-160259700D02*
X215139000Y-144740300D01*
X226061000Y-144740300D02*
X226061000Y-160259700D01*
X226061000Y-160259700D02*
X215139000Y-160259700D01*
D10*
%TO.C,R24*%
X106216000Y-71914000D02*
X109176000Y-71914000D01*
X106216000Y-73374000D02*
X106216000Y-71914000D01*
X109176000Y-71914000D02*
X109176000Y-73374000D01*
X109176000Y-73374000D02*
X106216000Y-73374000D01*
%TO.C,TP5*%
X223250000Y-162850000D02*
X223250000Y-165350000D01*
X223250000Y-162850000D02*
X225750000Y-162850000D01*
X225750000Y-165350000D02*
X223250000Y-165350000D01*
X225750000Y-165350000D02*
X225750000Y-162850000D01*
%TO.C,R31*%
X78784000Y-95282000D02*
X81744000Y-95282000D01*
X78784000Y-96742000D02*
X78784000Y-95282000D01*
X81744000Y-95282000D02*
X81744000Y-96742000D01*
X81744000Y-96742000D02*
X78784000Y-96742000D01*
%TO.C,R91*%
X233712000Y-68116000D02*
X235172000Y-68116000D01*
X233712000Y-71076000D02*
X233712000Y-68116000D01*
X235172000Y-68116000D02*
X235172000Y-71076000D01*
X235172000Y-71076000D02*
X233712000Y-71076000D01*
%TO.C,R65*%
X87674000Y-87408000D02*
X90634000Y-87408000D01*
X87674000Y-88868000D02*
X87674000Y-87408000D01*
X90634000Y-87408000D02*
X90634000Y-88868000D01*
X90634000Y-88868000D02*
X87674000Y-88868000D01*
%TO.C,R94*%
X223552000Y-68116000D02*
X225012000Y-68116000D01*
X223552000Y-71076000D02*
X223552000Y-68116000D01*
X225012000Y-68116000D02*
X225012000Y-71076000D01*
X225012000Y-71076000D02*
X223552000Y-71076000D01*
%TO.C,H10*%
X250991600Y-57900000D02*
G75*
G02*
X246691600Y-57900000I-2150000J0D01*
G01*
X246691600Y-57900000D02*
G75*
G02*
X250991600Y-57900000I2150000J0D01*
G01*
%TO.C,C47*%
X125012000Y-48292000D02*
X127972000Y-48292000D01*
X125012000Y-49752000D02*
X125012000Y-48292000D01*
X127972000Y-48292000D02*
X127972000Y-49752000D01*
X127972000Y-49752000D02*
X125012000Y-49752000D01*
%TO.C,C115*%
X221532000Y-83344000D02*
X224492000Y-83344000D01*
X221532000Y-84804000D02*
X221532000Y-83344000D01*
X224492000Y-83344000D02*
X224492000Y-84804000D01*
X224492000Y-84804000D02*
X221532000Y-84804000D01*
%TO.C,H9*%
X205416000Y-57900000D02*
G75*
G02*
X201116000Y-57900000I-2150000J0D01*
G01*
X201116000Y-57900000D02*
G75*
G02*
X205416000Y-57900000I2150000J0D01*
G01*
D11*
%TO.C,LDO1*%
X202539000Y-144740300D02*
X213461000Y-144740300D01*
X202539000Y-160259700D02*
X202539000Y-144740300D01*
X213461000Y-144740300D02*
X213461000Y-160259700D01*
X213461000Y-160259700D02*
X202539000Y-160259700D01*
D10*
%TO.C,R106*%
X230720000Y-139770000D02*
X233680000Y-139770000D01*
X230720000Y-141230000D02*
X230720000Y-139770000D01*
X233680000Y-139770000D02*
X233680000Y-141230000D01*
X233680000Y-141230000D02*
X230720000Y-141230000D01*
%TO.C,R78*%
X103168000Y-70898000D02*
X106128000Y-70898000D01*
X103168000Y-72358000D02*
X103168000Y-70898000D01*
X106128000Y-70898000D02*
X106128000Y-72358000D01*
X106128000Y-72358000D02*
X103168000Y-72358000D01*
%TO.C,C65*%
X88944000Y-91980000D02*
X91904000Y-91980000D01*
X88944000Y-93440000D02*
X88944000Y-91980000D01*
X91904000Y-91980000D02*
X91904000Y-93440000D01*
X91904000Y-93440000D02*
X88944000Y-93440000D01*
%TO.C,R69*%
X99346000Y-45764000D02*
X100806000Y-45764000D01*
X99346000Y-48724000D02*
X99346000Y-45764000D01*
X100806000Y-45764000D02*
X100806000Y-48724000D01*
X100806000Y-48724000D02*
X99346000Y-48724000D01*
%TO.C,TP24*%
X84856000Y-148864000D02*
X84856000Y-151364000D01*
X84856000Y-148864000D02*
X87356000Y-148864000D01*
X87356000Y-151364000D02*
X84856000Y-151364000D01*
X87356000Y-151364000D02*
X87356000Y-148864000D01*
%TO.C,R109*%
X72434000Y-134652000D02*
X75394000Y-134652000D01*
X72434000Y-136112000D02*
X72434000Y-134652000D01*
X75394000Y-134652000D02*
X75394000Y-136112000D01*
X75394000Y-136112000D02*
X72434000Y-136112000D01*
%TO.C,C28*%
X225076000Y-68116000D02*
X226536000Y-68116000D01*
X225076000Y-71076000D02*
X225076000Y-68116000D01*
X226536000Y-68116000D02*
X226536000Y-71076000D01*
X226536000Y-71076000D02*
X225076000Y-71076000D01*
%TO.C,C58*%
X96750000Y-69340000D02*
X98210000Y-69340000D01*
X96750000Y-72300000D02*
X96750000Y-69340000D01*
X98210000Y-69340000D02*
X98210000Y-72300000D01*
X98210000Y-72300000D02*
X96750000Y-72300000D01*
%TO.C,R21*%
X221849000Y-80296000D02*
X224809000Y-80296000D01*
X221849000Y-81756000D02*
X221849000Y-80296000D01*
X224809000Y-80296000D02*
X224809000Y-81756000D01*
X224809000Y-81756000D02*
X221849000Y-81756000D01*
%TO.C,J4*%
X205135000Y-122257000D02*
X205135000Y-130767000D01*
X205135000Y-130767000D02*
X246915000Y-130767000D01*
X246915000Y-122257000D02*
X205135000Y-122257000D01*
X246915000Y-130767000D02*
X246915000Y-122257000D01*
%TO.C,TP18*%
X206950000Y-38950000D02*
X206950000Y-41450000D01*
X206950000Y-38950000D02*
X209450000Y-38950000D01*
X209450000Y-41450000D02*
X206950000Y-41450000D01*
X209450000Y-41450000D02*
X209450000Y-38950000D01*
%TO.C,R105*%
X166414000Y-149130000D02*
X169374000Y-149130000D01*
X166414000Y-150590000D02*
X166414000Y-149130000D01*
X169374000Y-149130000D02*
X169374000Y-150590000D01*
X169374000Y-150590000D02*
X166414000Y-150590000D01*
%TO.C,C10*%
X162846000Y-147872000D02*
X164306000Y-147872000D01*
X162846000Y-150832000D02*
X162846000Y-147872000D01*
X164306000Y-147872000D02*
X164306000Y-150832000D01*
X164306000Y-150832000D02*
X162846000Y-150832000D01*
%TO.C,R95*%
X235236000Y-68116000D02*
X236696000Y-68116000D01*
X235236000Y-71076000D02*
X235236000Y-68116000D01*
X236696000Y-68116000D02*
X236696000Y-71076000D01*
X236696000Y-71076000D02*
X235236000Y-71076000D01*
D11*
%TO.C,LDO2*%
X240339000Y-144740300D02*
X251261000Y-144740300D01*
X240339000Y-160259700D02*
X240339000Y-144740300D01*
X251261000Y-144740300D02*
X251261000Y-160259700D01*
X251261000Y-160259700D02*
X240339000Y-160259700D01*
D10*
%TO.C,C110*%
X208324000Y-79280000D02*
X211284000Y-79280000D01*
X208324000Y-80740000D02*
X208324000Y-79280000D01*
X211284000Y-79280000D02*
X211284000Y-80740000D01*
X211284000Y-80740000D02*
X208324000Y-80740000D01*
%TO.C,C17*%
X89960000Y-65310000D02*
X92920000Y-65310000D01*
X89960000Y-66770000D02*
X89960000Y-65310000D01*
X92920000Y-65310000D02*
X92920000Y-66770000D01*
X92920000Y-66770000D02*
X89960000Y-66770000D01*
%TO.C,C11*%
X217202000Y-70910000D02*
X218662000Y-70910000D01*
X217202000Y-73870000D02*
X217202000Y-70910000D01*
X218662000Y-70910000D02*
X218662000Y-73870000D01*
X218662000Y-73870000D02*
X217202000Y-73870000D01*
%TO.C,R48*%
X222282000Y-64814000D02*
X223742000Y-64814000D01*
X222282000Y-67774000D02*
X222282000Y-64814000D01*
X223742000Y-64814000D02*
X223742000Y-67774000D01*
X223742000Y-67774000D02*
X222282000Y-67774000D01*
%TO.C,R9*%
X242856000Y-65068000D02*
X244316000Y-65068000D01*
X242856000Y-68028000D02*
X242856000Y-65068000D01*
X244316000Y-65068000D02*
X244316000Y-68028000D01*
X244316000Y-68028000D02*
X242856000Y-68028000D01*
%TO.C,TP9*%
X249150000Y-162650000D02*
X249150000Y-165150000D01*
X249150000Y-162650000D02*
X251650000Y-162650000D01*
X251650000Y-165150000D02*
X249150000Y-165150000D01*
X251650000Y-165150000D02*
X251650000Y-162650000D01*
%TO.C,R47*%
X230664000Y-65068000D02*
X232124000Y-65068000D01*
X230664000Y-68028000D02*
X230664000Y-65068000D01*
X232124000Y-65068000D02*
X232124000Y-68028000D01*
X232124000Y-68028000D02*
X230664000Y-68028000D01*
%TO.C,R61*%
X200920000Y-140070000D02*
X203880000Y-140070000D01*
X200920000Y-141530000D02*
X200920000Y-140070000D01*
X203880000Y-140070000D02*
X203880000Y-141530000D01*
X203880000Y-141530000D02*
X200920000Y-141530000D01*
%TO.C,C106*%
X94774000Y-64814000D02*
X96234000Y-64814000D01*
X94774000Y-67774000D02*
X94774000Y-64814000D01*
X96234000Y-64814000D02*
X96234000Y-67774000D01*
X96234000Y-67774000D02*
X94774000Y-67774000D01*
D11*
%TO.C,LDO5*%
X88773000Y-141973300D02*
X99695000Y-141973300D01*
X88773000Y-157492700D02*
X88773000Y-141973300D01*
X99695000Y-141973300D02*
X99695000Y-157492700D01*
X99695000Y-157492700D02*
X88773000Y-157492700D01*
D10*
%TO.C,R52*%
X215424000Y-64814000D02*
X216884000Y-64814000D01*
X215424000Y-67774000D02*
X215424000Y-64814000D01*
X216884000Y-64814000D02*
X216884000Y-67774000D01*
X216884000Y-67774000D02*
X215424000Y-67774000D01*
%TO.C,C1*%
X208566000Y-67862000D02*
X210026000Y-67862000D01*
X208566000Y-70822000D02*
X208566000Y-67862000D01*
X210026000Y-67862000D02*
X210026000Y-70822000D01*
X210026000Y-70822000D02*
X208566000Y-70822000D01*
%TO.C,C51*%
X97822000Y-64814000D02*
X99282000Y-64814000D01*
X97822000Y-67774000D02*
X97822000Y-64814000D01*
X99282000Y-64814000D02*
X99282000Y-67774000D01*
X99282000Y-67774000D02*
X97822000Y-67774000D01*
%TO.C,TP12*%
X180750000Y-98250000D02*
X180750000Y-100750000D01*
X180750000Y-98250000D02*
X183250000Y-98250000D01*
X183250000Y-100750000D02*
X180750000Y-100750000D01*
X183250000Y-100750000D02*
X183250000Y-98250000D01*
%TO.C,R67*%
X104946000Y-48292000D02*
X107906000Y-48292000D01*
X104946000Y-49752000D02*
X104946000Y-48292000D01*
X107906000Y-48292000D02*
X107906000Y-49752000D01*
X107906000Y-49752000D02*
X104946000Y-49752000D01*
%TO.C,C16*%
X219742000Y-70910000D02*
X221202000Y-70910000D01*
X219742000Y-73870000D02*
X219742000Y-70910000D01*
X221202000Y-70910000D02*
X221202000Y-73870000D01*
X221202000Y-73870000D02*
X219742000Y-73870000D01*
%TO.C,H12*%
X250991600Y-128870500D02*
G75*
G02*
X246691600Y-128870500I-2150000J0D01*
G01*
X246691600Y-128870500D02*
G75*
G02*
X250991600Y-128870500I2150000J0D01*
G01*
%TO.C,R89*%
X239808000Y-68116000D02*
X241268000Y-68116000D01*
X239808000Y-71076000D02*
X239808000Y-68116000D01*
X241268000Y-68116000D02*
X241268000Y-71076000D01*
X241268000Y-71076000D02*
X239808000Y-71076000D01*
%TO.C,C50*%
X89960000Y-68358000D02*
X92920000Y-68358000D01*
X89960000Y-69818000D02*
X89960000Y-68358000D01*
X92920000Y-68358000D02*
X92920000Y-69818000D01*
X92920000Y-69818000D02*
X89960000Y-69818000D01*
%TO.C,C6*%
X211614000Y-70923000D02*
X213074000Y-70923000D01*
X211614000Y-73883000D02*
X211614000Y-70923000D01*
X213074000Y-70923000D02*
X213074000Y-73883000D01*
X213074000Y-73883000D02*
X211614000Y-73883000D01*
%TO.C,C44*%
X88690000Y-89046300D02*
X91650000Y-89046300D01*
X88690000Y-90506300D02*
X88690000Y-89046300D01*
X91650000Y-89046300D02*
X91650000Y-90506300D01*
X91650000Y-90506300D02*
X88690000Y-90506300D01*
%TO.C,R64*%
X214154000Y-67925000D02*
X215614000Y-67925000D01*
X214154000Y-70885000D02*
X214154000Y-67925000D01*
X215614000Y-67925000D02*
X215614000Y-70885000D01*
X215614000Y-70885000D02*
X214154000Y-70885000D01*
%TO.C,R30*%
X233966000Y-65068000D02*
X235426000Y-65068000D01*
X233966000Y-68028000D02*
X233966000Y-65068000D01*
X235426000Y-65068000D02*
X235426000Y-68028000D01*
X235426000Y-68028000D02*
X233966000Y-68028000D01*
D11*
%TO.C,U5*%
X131542000Y-158122000D02*
X155418000Y-158122000D01*
X131542000Y-166250000D02*
X131542000Y-158122000D01*
X155418000Y-158122000D02*
X155418000Y-166250000D01*
X155418000Y-166250000D02*
X131542000Y-166250000D01*
D10*
%TO.C,TP26*%
X238950000Y-38650000D02*
X238950000Y-41150000D01*
X238950000Y-38650000D02*
X241450000Y-38650000D01*
X241450000Y-41150000D02*
X238950000Y-41150000D01*
X241450000Y-41150000D02*
X241450000Y-38650000D01*
%TO.C,R88*%
X230020000Y-45470000D02*
X232980000Y-45470000D01*
X230020000Y-46930000D02*
X230020000Y-45470000D01*
X232980000Y-45470000D02*
X232980000Y-46930000D01*
X232980000Y-46930000D02*
X230020000Y-46930000D01*
%TO.C,R17*%
X237776000Y-65068000D02*
X239236000Y-65068000D01*
X237776000Y-68028000D02*
X237776000Y-65068000D01*
X239236000Y-65068000D02*
X239236000Y-68028000D01*
X239236000Y-68028000D02*
X237776000Y-68028000D01*
%TO.C,R10*%
X116122000Y-158528000D02*
X119082000Y-158528000D01*
X116122000Y-159988000D02*
X116122000Y-158528000D01*
X119082000Y-158528000D02*
X119082000Y-159988000D01*
X119082000Y-159988000D02*
X116122000Y-159988000D01*
%TO.C,R50*%
X218726000Y-64814000D02*
X220186000Y-64814000D01*
X218726000Y-67774000D02*
X218726000Y-64814000D01*
X220186000Y-64814000D02*
X220186000Y-67774000D01*
X220186000Y-67774000D02*
X218726000Y-67774000D01*
%TO.C,J1*%
X158400000Y-155022500D02*
X158400000Y-168022500D01*
X158400000Y-168022500D02*
X174400000Y-168022500D01*
X174400000Y-155022500D02*
X158400000Y-155022500D01*
X174400000Y-168022500D02*
X174400000Y-155022500D01*
%TO.C,C19*%
X229220000Y-141370000D02*
X232180000Y-141370000D01*
X229220000Y-142830000D02*
X229220000Y-141370000D01*
X232180000Y-141370000D02*
X232180000Y-142830000D01*
X232180000Y-142830000D02*
X229220000Y-142830000D01*
%TO.C,R32*%
X179368000Y-146844000D02*
X182328000Y-146844000D01*
X179368000Y-148304000D02*
X179368000Y-146844000D01*
X182328000Y-146844000D02*
X182328000Y-148304000D01*
X182328000Y-148304000D02*
X179368000Y-148304000D01*
D11*
%TO.C,ADC1*%
X232054400Y-77895000D02*
X232359200Y-77895000D01*
X232054400Y-84157000D02*
X232054400Y-77895000D01*
X232359200Y-77266800D02*
X232987400Y-77266800D01*
X232359200Y-77895000D02*
X232359200Y-77266800D01*
X232359200Y-84157000D02*
X232054400Y-84157000D01*
X232359200Y-84785200D02*
X232359200Y-84157000D01*
X232987400Y-76962000D02*
X239249400Y-76962000D01*
X232987400Y-77266800D02*
X232987400Y-76962000D01*
X232987400Y-84785200D02*
X232359200Y-84785200D01*
X232987400Y-85090000D02*
X232987400Y-84785200D01*
X239249400Y-76962000D02*
X239249400Y-77266800D01*
X239249400Y-77266800D02*
X239877600Y-77266800D01*
X239249400Y-84785200D02*
X239249400Y-85090000D01*
X239249400Y-85090000D02*
X232987400Y-85090000D01*
X239877600Y-77266800D02*
X239877600Y-77895000D01*
X239877600Y-77895000D02*
X240182400Y-77895000D01*
X239877600Y-84157000D02*
X239877600Y-84785200D01*
X239877600Y-84785200D02*
X239249400Y-84785200D01*
X240182400Y-77895000D02*
X240182400Y-84157000D01*
X240182400Y-84157000D02*
X239877600Y-84157000D01*
D10*
%TO.C,R19*%
X242360000Y-82074000D02*
X245320000Y-82074000D01*
X242360000Y-83534000D02*
X242360000Y-82074000D01*
X245320000Y-82074000D02*
X245320000Y-83534000D01*
X245320000Y-83534000D02*
X242360000Y-83534000D01*
%TO.C,R79*%
X150908000Y-104946000D02*
X152368000Y-104946000D01*
X150908000Y-107906000D02*
X150908000Y-104946000D01*
X152368000Y-104946000D02*
X152368000Y-107906000D01*
X152368000Y-107906000D02*
X150908000Y-107906000D01*
%TO.C,H11*%
X205416600Y-128870500D02*
G75*
G02*
X201116600Y-128870500I-2150000J0D01*
G01*
X201116600Y-128870500D02*
G75*
G02*
X205416600Y-128870500I2150000J0D01*
G01*
%TO.C,C118*%
X103410000Y-64827000D02*
X104870000Y-64827000D01*
X103410000Y-67787000D02*
X103410000Y-64827000D01*
X104870000Y-64827000D02*
X104870000Y-67787000D01*
X104870000Y-67787000D02*
X103410000Y-67787000D01*
%TO.C,R81*%
X88944000Y-93504000D02*
X91904000Y-93504000D01*
X88944000Y-94964000D02*
X88944000Y-93504000D01*
X91904000Y-93504000D02*
X91904000Y-94964000D01*
X91904000Y-94964000D02*
X88944000Y-94964000D01*
%TO.C,R37*%
X164636000Y-147606000D02*
X167596000Y-147606000D01*
X164636000Y-149066000D02*
X164636000Y-147606000D01*
X167596000Y-147606000D02*
X167596000Y-149066000D01*
X167596000Y-149066000D02*
X164636000Y-149066000D01*
D11*
%TO.C,Q6*%
X94297000Y-81343500D02*
X94591600Y-81343500D01*
X94297000Y-83248500D02*
X94297000Y-81343500D01*
X94297000Y-83248500D02*
X95541600Y-83248500D01*
X94591600Y-81343500D02*
X94591600Y-80365600D01*
X95541600Y-83248500D02*
X95541600Y-84226400D01*
X96608400Y-83248500D02*
X96608400Y-84226400D01*
X96608400Y-84226400D02*
X95541600Y-84226400D01*
X97558400Y-80365600D02*
X94591600Y-80365600D01*
X97558400Y-81343500D02*
X97558400Y-80365600D01*
X97853000Y-81343500D02*
X97558400Y-81343500D01*
X97853000Y-81343500D02*
X97853000Y-83248500D01*
X97853000Y-83248500D02*
X96608400Y-83248500D01*
D10*
%TO.C,TP3*%
X169438000Y-143784000D02*
X169438000Y-146284000D01*
X169438000Y-143784000D02*
X171938000Y-143784000D01*
X171938000Y-146284000D02*
X169438000Y-146284000D01*
X171938000Y-146284000D02*
X171938000Y-143784000D01*
%TO.C,R43*%
X226120000Y-139770000D02*
X229080000Y-139770000D01*
X226120000Y-141230000D02*
X226120000Y-139770000D01*
X229080000Y-139770000D02*
X229080000Y-141230000D01*
X229080000Y-141230000D02*
X226120000Y-141230000D01*
%TO.C,C23*%
X241820000Y-141370000D02*
X244780000Y-141370000D01*
X241820000Y-142830000D02*
X241820000Y-141370000D01*
X244780000Y-141370000D02*
X244780000Y-142830000D01*
X244780000Y-142830000D02*
X241820000Y-142830000D01*
%TD*%
M02*
