%TF.GenerationSoftware,KiCad,Pcbnew,8.0.5*%
%TF.CreationDate,2025-04-11T15:09:43-05:00*%
%TF.ProjectId,PSEC5_Ctrl_Board,50534543-355f-4437-9472-6c5f426f6172,rev?*%
%TF.SameCoordinates,Original*%
%TF.FileFunction,Soldermask,Bot*%
%TF.FilePolarity,Negative*%
%FSLAX46Y46*%
G04 Gerber Fmt 4.6, Leading zero omitted, Abs format (unit mm)*
G04 Created by KiCad (PCBNEW 8.0.5) date 2025-04-11 15:09:43*
%MOMM*%
%LPD*%
G01*
G04 APERTURE LIST*
G04 Aperture macros list*
%AMRoundRect*
0 Rectangle with rounded corners*
0 $1 Rounding radius*
0 $2 $3 $4 $5 $6 $7 $8 $9 X,Y pos of 4 corners*
0 Add a 4 corners polygon primitive as box body*
4,1,4,$2,$3,$4,$5,$6,$7,$8,$9,$2,$3,0*
0 Add four circle primitives for the rounded corners*
1,1,$1+$1,$2,$3*
1,1,$1+$1,$4,$5*
1,1,$1+$1,$6,$7*
1,1,$1+$1,$8,$9*
0 Add four rect primitives between the rounded corners*
20,1,$1+$1,$2,$3,$4,$5,0*
20,1,$1+$1,$4,$5,$6,$7,0*
20,1,$1+$1,$6,$7,$8,$9,0*
20,1,$1+$1,$8,$9,$2,$3,0*%
G04 Aperture macros list end*
%ADD10R,1.500000X1.500000*%
%ADD11C,1.955800*%
%ADD12C,3.250000*%
%ADD13C,1.500000*%
%ADD14C,1.600000*%
%ADD15C,2.200000*%
%ADD16C,1.549400*%
%ADD17C,0.950000*%
%ADD18C,1.020000*%
%ADD19RoundRect,0.250000X-0.750000X-1.550000X0.750000X-1.550000X0.750000X1.550000X-0.750000X1.550000X0*%
%ADD20O,2.000000X3.600000*%
%ADD21RoundRect,0.200000X0.200000X0.275000X-0.200000X0.275000X-0.200000X-0.275000X0.200000X-0.275000X0*%
%ADD22RoundRect,0.200000X-0.200000X-0.275000X0.200000X-0.275000X0.200000X0.275000X-0.200000X0.275000X0*%
%ADD23RoundRect,0.225000X-0.225000X-0.250000X0.225000X-0.250000X0.225000X0.250000X-0.225000X0.250000X0*%
%ADD24RoundRect,0.225000X-0.250000X0.225000X-0.250000X-0.225000X0.250000X-0.225000X0.250000X0.225000X0*%
%ADD25RoundRect,0.200000X-0.275000X0.200000X-0.275000X-0.200000X0.275000X-0.200000X0.275000X0.200000X0*%
%ADD26RoundRect,0.225000X0.225000X0.250000X-0.225000X0.250000X-0.225000X-0.250000X0.225000X-0.250000X0*%
%ADD27R,1.397000X0.558800*%
%ADD28RoundRect,0.102000X0.177800X-0.990600X0.177800X0.990600X-0.177800X0.990600X-0.177800X-0.990600X0*%
%ADD29RoundRect,0.225000X0.250000X-0.225000X0.250000X0.225000X-0.250000X0.225000X-0.250000X-0.225000X0*%
%ADD30R,0.558800X1.320800*%
%ADD31RoundRect,0.250000X-0.312500X-0.625000X0.312500X-0.625000X0.312500X0.625000X-0.312500X0.625000X0*%
%ADD32RoundRect,0.102000X-0.177800X0.990600X-0.177800X-0.990600X0.177800X-0.990600X0.177800X0.990600X0*%
%ADD33R,0.711200X0.203200*%
%ADD34R,0.203200X0.685800*%
%ADD35R,0.853186X1.397000*%
%ADD36R,0.228600X0.863600*%
%ADD37RoundRect,0.102000X-0.600000X0.500000X-0.600000X-0.500000X0.600000X-0.500000X0.600000X0.500000X0*%
%ADD38R,0.254000X0.812800*%
%ADD39R,0.812800X0.254000*%
%ADD40R,3.098800X3.098800*%
%ADD41O,1.699999X0.349999*%
G04 APERTURE END LIST*
D10*
%TO.C,TP21*%
X123190000Y-151638000D03*
%TD*%
D11*
%TO.C,U16*%
X212852000Y-163322000D03*
X210312000Y-163322000D03*
X207772000Y-163322000D03*
X195072000Y-163322000D03*
X192532000Y-163322000D03*
%TD*%
D12*
%TO.C,T1*%
X77978000Y-79248000D03*
X77978000Y-67818000D03*
D10*
X69088000Y-79248000D03*
D13*
X71628000Y-77978000D03*
X69088000Y-76708000D03*
X71628000Y-75438000D03*
X69088000Y-74168000D03*
X71628000Y-72898000D03*
X69088000Y-71628000D03*
X71628000Y-70358000D03*
X69088000Y-69088000D03*
X71628000Y-67818000D03*
D14*
X82058000Y-80163000D03*
X82058000Y-77623000D03*
X82058000Y-69443000D03*
X82058000Y-66903000D03*
D15*
X74928000Y-81278000D03*
X74928000Y-65788000D03*
%TD*%
D10*
%TO.C,TP33*%
X169672000Y-107188000D03*
%TD*%
%TO.C,TP2*%
X186436000Y-129032000D03*
%TD*%
%TO.C,TP31*%
X169672000Y-101600000D03*
%TD*%
%TO.C,TP32*%
X169672000Y-104394000D03*
%TD*%
%TO.C,TP8*%
X249428000Y-141986000D03*
%TD*%
D16*
%TO.C,J12*%
X68834000Y-48799999D03*
X70834001Y-48799999D03*
X68834000Y-50800000D03*
X70834001Y-50800000D03*
X68834000Y-52799999D03*
X70834001Y-52799999D03*
X68834000Y-54800000D03*
X70834001Y-54800000D03*
X68834000Y-56800001D03*
X70834001Y-56800001D03*
X68834000Y-58799999D03*
X70834001Y-58799999D03*
X68834000Y-60800001D03*
X70834001Y-60800001D03*
%TD*%
D10*
%TO.C,TP4*%
X164338000Y-129540000D03*
%TD*%
%TO.C,TP6*%
X236474000Y-141986000D03*
%TD*%
%TO.C,TP23*%
X86106000Y-146664000D03*
%TD*%
D17*
%TO.C,J10*%
X102108000Y-57404000D03*
X142378000Y-58674000D03*
%TD*%
D10*
%TO.C,TP13*%
X220980000Y-142240000D03*
%TD*%
%TO.C,TP1*%
X183642000Y-129032000D03*
%TD*%
D17*
%TO.C,J5*%
X102108000Y-123924000D03*
X142378000Y-125194000D03*
%TD*%
D10*
%TO.C,TP7*%
X246634000Y-141986000D03*
%TD*%
%TO.C,TP11*%
X147320000Y-105537000D03*
%TD*%
%TO.C,TP30*%
X176276000Y-107188000D03*
%TD*%
%TO.C,TP19*%
X219202000Y-51054000D03*
%TD*%
%TO.C,TP22*%
X123190000Y-154432000D03*
%TD*%
%TO.C,TP10*%
X256413000Y-87122000D03*
%TD*%
%TO.C,TP20*%
X222885000Y-51181000D03*
%TD*%
%TO.C,TP14*%
X223520000Y-142240000D03*
%TD*%
D18*
%TO.C,J2*%
X246093000Y-63122000D03*
X205957000Y-63122000D03*
%TD*%
D10*
%TO.C,TP29*%
X176276000Y-104394000D03*
%TD*%
%TO.C,TP5*%
X233680000Y-141986000D03*
%TD*%
%TO.C,TP24*%
X86106000Y-150114000D03*
%TD*%
D18*
%TO.C,J4*%
X246093000Y-129202000D03*
X205957000Y-129202000D03*
%TD*%
D10*
%TO.C,TP9*%
X256413000Y-89789000D03*
%TD*%
%TO.C,TP12*%
X176276000Y-101600000D03*
%TD*%
D11*
%TO.C,U5*%
X141224000Y-158750000D03*
X143764000Y-158750000D03*
X146304000Y-158750000D03*
X159004000Y-158750000D03*
X161544000Y-158750000D03*
%TD*%
D19*
%TO.C,J1*%
X173034000Y-154718500D03*
D20*
X180534000Y-154718500D03*
%TD*%
D10*
%TO.C,TP3*%
X161544000Y-129540000D03*
%TD*%
D21*
%TO.C,R5*%
X112776000Y-73152000D03*
X111126000Y-73152000D03*
%TD*%
%TO.C,R1*%
X116015000Y-77724000D03*
X114365000Y-77724000D03*
%TD*%
D22*
%TO.C,R84*%
X90361000Y-76708000D03*
X92011000Y-76708000D03*
%TD*%
D23*
%TO.C,C71*%
X141973000Y-60960000D03*
X143523000Y-60960000D03*
%TD*%
D24*
%TO.C,C94*%
X76454000Y-125717000D03*
X76454000Y-127267000D03*
%TD*%
D25*
%TO.C,R75*%
X125730000Y-53785000D03*
X125730000Y-55435000D03*
%TD*%
D26*
%TO.C,C99*%
X230391000Y-77724000D03*
X228841000Y-77724000D03*
%TD*%
D23*
%TO.C,C117*%
X237223000Y-72009000D03*
X238773000Y-72009000D03*
%TD*%
%TO.C,C83*%
X113525000Y-121920000D03*
X115075000Y-121920000D03*
%TD*%
D27*
%TO.C,U8*%
X250558300Y-48387000D03*
X250558300Y-49657000D03*
X250558300Y-50927000D03*
X250558300Y-52197000D03*
X245249700Y-52197000D03*
X245249700Y-50927000D03*
X245249700Y-49657000D03*
X245249700Y-48387000D03*
%TD*%
D24*
%TO.C,C60*%
X91694000Y-59677000D03*
X91694000Y-61227000D03*
%TD*%
D26*
%TO.C,C32*%
X242837000Y-48514000D03*
X241287000Y-48514000D03*
%TD*%
D21*
%TO.C,R7*%
X112776000Y-76708000D03*
X111126000Y-76708000D03*
%TD*%
D26*
%TO.C,C101*%
X229375000Y-82804000D03*
X227825000Y-82804000D03*
%TD*%
D28*
%TO.C,U4*%
X239458500Y-52755800D03*
X238823500Y-52755800D03*
X238188500Y-52755800D03*
X237553500Y-52755800D03*
X236918500Y-52755800D03*
X236283500Y-52755800D03*
X235648500Y-52755800D03*
X235013500Y-52755800D03*
X235013500Y-47828200D03*
X235648500Y-47828200D03*
X236283500Y-47828200D03*
X236918500Y-47828200D03*
X237553500Y-47828200D03*
X238188500Y-47828200D03*
X238823500Y-47828200D03*
X239458500Y-47828200D03*
%TD*%
D26*
%TO.C,C155*%
X100089000Y-67056000D03*
X98539000Y-67056000D03*
%TD*%
D21*
%TO.C,R3*%
X116015000Y-75946000D03*
X114365000Y-75946000D03*
%TD*%
D25*
%TO.C,R70*%
X121158000Y-53785000D03*
X121158000Y-55435000D03*
%TD*%
%TO.C,R58*%
X73152000Y-123635000D03*
X73152000Y-125285000D03*
%TD*%
D26*
%TO.C,C53*%
X69863000Y-85344000D03*
X68313000Y-85344000D03*
%TD*%
D29*
%TO.C,C38*%
X215138000Y-71641000D03*
X215138000Y-70091000D03*
%TD*%
D23*
%TO.C,C90*%
X206489000Y-51816000D03*
X208039000Y-51816000D03*
%TD*%
%TO.C,C69*%
X72898000Y-97282000D03*
X74448000Y-97282000D03*
%TD*%
D30*
%TO.C,Q4*%
X67121999Y-126746000D03*
X69022001Y-126746000D03*
X68072000Y-128778000D03*
%TD*%
D24*
%TO.C,C114*%
X214630000Y-78219000D03*
X214630000Y-79769000D03*
%TD*%
%TO.C,C82*%
X68072000Y-121158000D03*
X68072000Y-122708000D03*
%TD*%
D25*
%TO.C,L5*%
X74168000Y-84265000D03*
X74168000Y-85915000D03*
%TD*%
D23*
%TO.C,C116*%
X216662000Y-71628000D03*
X218212000Y-71628000D03*
%TD*%
D31*
%TO.C,FB2*%
X76515500Y-123698000D03*
X79440500Y-123698000D03*
%TD*%
D26*
%TO.C,C55*%
X69863000Y-82296000D03*
X68313000Y-82296000D03*
%TD*%
%TO.C,C29*%
X192532300Y-51054000D03*
X190982300Y-51054000D03*
%TD*%
D23*
%TO.C,C78*%
X216662000Y-74676000D03*
X218212000Y-74676000D03*
%TD*%
D25*
%TO.C,R66*%
X71374000Y-124905000D03*
X71374000Y-126555000D03*
%TD*%
D23*
%TO.C,C30*%
X206489000Y-53340000D03*
X208039000Y-53340000D03*
%TD*%
D26*
%TO.C,C84*%
X116345000Y-125222000D03*
X114795000Y-125222000D03*
%TD*%
D29*
%TO.C,C37*%
X213614000Y-71641000D03*
X213614000Y-70091000D03*
%TD*%
%TO.C,C64*%
X75692000Y-85865000D03*
X75692000Y-84315000D03*
%TD*%
D23*
%TO.C,C75*%
X237223000Y-73533000D03*
X238773000Y-73533000D03*
%TD*%
D26*
%TO.C,C89*%
X242837000Y-50038000D03*
X241287000Y-50038000D03*
%TD*%
D23*
%TO.C,C36*%
X234175000Y-75057000D03*
X235725000Y-75057000D03*
%TD*%
%TO.C,C107*%
X72898000Y-95758000D03*
X74448000Y-95758000D03*
%TD*%
D26*
%TO.C,C86*%
X113297000Y-125222000D03*
X111747000Y-125222000D03*
%TD*%
%TO.C,C100*%
X230137000Y-80518000D03*
X228587000Y-80518000D03*
%TD*%
%TO.C,C112*%
X211087000Y-77978000D03*
X209537000Y-77978000D03*
%TD*%
D32*
%TO.C,U2*%
X210312000Y-47828200D03*
X210947000Y-47828200D03*
X211582000Y-47828200D03*
X212217000Y-47828200D03*
X212852000Y-47828200D03*
X213487000Y-47828200D03*
X214122000Y-47828200D03*
X214757000Y-47828200D03*
X214757000Y-52755800D03*
X214122000Y-52755800D03*
X213487000Y-52755800D03*
X212852000Y-52755800D03*
X212217000Y-52755800D03*
X211582000Y-52755800D03*
X210947000Y-52755800D03*
X210312000Y-52755800D03*
%TD*%
D25*
%TO.C,R73*%
X124206000Y-53785000D03*
X124206000Y-55435000D03*
%TD*%
D26*
%TO.C,C56*%
X69863000Y-80772000D03*
X68313000Y-80772000D03*
%TD*%
D23*
%TO.C,C57*%
X74396000Y-72136000D03*
X75946000Y-72136000D03*
%TD*%
D24*
%TO.C,C41*%
X234696000Y-78727000D03*
X234696000Y-80277000D03*
%TD*%
D23*
%TO.C,C35*%
X234175000Y-73533000D03*
X235725000Y-73533000D03*
%TD*%
D26*
%TO.C,C85*%
X102629000Y-125222000D03*
X101079000Y-125222000D03*
%TD*%
%TO.C,C87*%
X114821000Y-128270000D03*
X113271000Y-128270000D03*
%TD*%
D25*
%TO.C,R57*%
X237490000Y-78931000D03*
X237490000Y-80581000D03*
%TD*%
D26*
%TO.C,C88*%
X102375000Y-127508000D03*
X100825000Y-127508000D03*
%TD*%
D23*
%TO.C,C40*%
X213601000Y-74676000D03*
X215151000Y-74676000D03*
%TD*%
%TO.C,C113*%
X221729000Y-78232000D03*
X223279000Y-78232000D03*
%TD*%
D26*
%TO.C,C70*%
X133617000Y-56388000D03*
X132067000Y-56388000D03*
%TD*%
D23*
%TO.C,C24*%
X241033000Y-79248000D03*
X242583000Y-79248000D03*
%TD*%
D33*
%TO.C,U10*%
X68567300Y-96281999D03*
X68567300Y-96782001D03*
X68567300Y-97282000D03*
X68567300Y-97781999D03*
X68567300Y-98282001D03*
X67576700Y-98282001D03*
X67576700Y-97781999D03*
X67576700Y-97282000D03*
X67576700Y-96782001D03*
X67576700Y-96281999D03*
%TD*%
D23*
%TO.C,C79*%
X216662000Y-73152000D03*
X218212000Y-73152000D03*
%TD*%
D25*
%TO.C,R56*%
X217424000Y-78423000D03*
X217424000Y-80073000D03*
%TD*%
D23*
%TO.C,C73*%
X237223000Y-75057000D03*
X238773000Y-75057000D03*
%TD*%
%TO.C,C91*%
X240525000Y-45466000D03*
X242075000Y-45466000D03*
%TD*%
D21*
%TO.C,R6*%
X112776000Y-74930000D03*
X111126000Y-74930000D03*
%TD*%
D29*
%TO.C,C33*%
X234188000Y-72022000D03*
X234188000Y-70472000D03*
%TD*%
D24*
%TO.C,C95*%
X66548000Y-121145000D03*
X66548000Y-122695000D03*
%TD*%
D33*
%TO.C,U3*%
X77965300Y-50561999D03*
X77965300Y-51062001D03*
X77965300Y-51562000D03*
X77965300Y-52061999D03*
X77965300Y-52562001D03*
X76974700Y-52562001D03*
X76974700Y-52061999D03*
X76974700Y-51562000D03*
X76974700Y-51062001D03*
X76974700Y-50561999D03*
%TD*%
D24*
%TO.C,C43*%
X81534000Y-104889000D03*
X81534000Y-106439000D03*
%TD*%
D21*
%TO.C,R4*%
X116015000Y-74168000D03*
X114365000Y-74168000D03*
%TD*%
D29*
%TO.C,C34*%
X235712000Y-72035000D03*
X235712000Y-70485000D03*
%TD*%
D26*
%TO.C,C54*%
X69863000Y-83820000D03*
X68313000Y-83820000D03*
%TD*%
D27*
%TO.C,U7*%
X198247000Y-52451000D03*
X198247000Y-51181000D03*
X198247000Y-49911000D03*
X198247000Y-48641000D03*
X203555600Y-48641000D03*
X203555600Y-49911000D03*
X203555600Y-51181000D03*
X203555600Y-52451000D03*
%TD*%
D34*
%TO.C,U14*%
X70104000Y-122986800D03*
X70753986Y-122986800D03*
D35*
X70428993Y-121945400D03*
D34*
X70104000Y-120904000D03*
X70753986Y-120904000D03*
X71403972Y-122986800D03*
X71403972Y-120904000D03*
D36*
X71417986Y-121945400D03*
%TD*%
D37*
%TO.C,Y3*%
X94200000Y-62167000D03*
X96300000Y-62167000D03*
X96300000Y-63817000D03*
X94200000Y-63817000D03*
%TD*%
D38*
%TO.C,U1*%
X100786001Y-77304900D03*
X100286000Y-77304900D03*
X99786001Y-77304900D03*
X99285999Y-77304900D03*
X98786000Y-77304900D03*
X98286001Y-77304900D03*
X97786000Y-77304900D03*
X97286000Y-77304900D03*
X96785999Y-77304900D03*
X96286000Y-77304900D03*
X95786001Y-77304900D03*
X95285999Y-77304900D03*
X94786000Y-77304900D03*
X94285999Y-77304900D03*
D39*
X93637100Y-76656001D03*
X93637100Y-76156000D03*
X93637100Y-75656001D03*
X93637100Y-75155999D03*
X93637100Y-74656000D03*
X93637100Y-74156001D03*
X93637100Y-73656000D03*
X93637100Y-73156000D03*
X93637100Y-72655999D03*
X93637100Y-72156000D03*
X93637100Y-71656001D03*
X93637100Y-71155999D03*
X93637100Y-70656000D03*
X93637100Y-70155999D03*
D38*
X94285999Y-69507100D03*
X94786000Y-69507100D03*
X95285999Y-69507100D03*
X95786001Y-69507100D03*
X96286000Y-69507100D03*
X96785999Y-69507100D03*
X97286000Y-69507100D03*
X97786000Y-69507100D03*
X98286001Y-69507100D03*
X98786000Y-69507100D03*
X99285999Y-69507100D03*
X99786001Y-69507100D03*
X100286000Y-69507100D03*
X100786001Y-69507100D03*
D39*
X101434900Y-70155999D03*
X101434900Y-70656000D03*
X101434900Y-71155999D03*
X101434900Y-71656001D03*
X101434900Y-72156000D03*
X101434900Y-72655999D03*
X101434900Y-73156000D03*
X101434900Y-73656000D03*
X101434900Y-74156001D03*
X101434900Y-74656000D03*
X101434900Y-75155999D03*
X101434900Y-75656001D03*
X101434900Y-76156000D03*
X101434900Y-76656001D03*
D40*
X97536000Y-73406000D03*
%TD*%
D41*
%TO.C,U6*%
X86669999Y-107819000D03*
X86669999Y-108469001D03*
X86669999Y-109118999D03*
X86669999Y-109769001D03*
X86669999Y-110418999D03*
X86669999Y-111069001D03*
X86669999Y-111718999D03*
X86669999Y-112369001D03*
X86669999Y-113018999D03*
X86669999Y-113669000D03*
X80970001Y-113669000D03*
X80970001Y-113018999D03*
X80970001Y-112369001D03*
X80970001Y-111718999D03*
X80970001Y-111069001D03*
X80970001Y-110418999D03*
X80970001Y-109769001D03*
X80970001Y-109118999D03*
X80970001Y-108469001D03*
X80970001Y-107819000D03*
%TD*%
D23*
%TO.C,C39*%
X213601000Y-73152000D03*
X215151000Y-73152000D03*
%TD*%
D25*
%TO.C,R71*%
X122682000Y-53785000D03*
X122682000Y-55435000D03*
%TD*%
D29*
%TO.C,C62*%
X77216000Y-85865000D03*
X77216000Y-84315000D03*
%TD*%
D22*
%TO.C,R100*%
X74346000Y-73660000D03*
X75996000Y-73660000D03*
%TD*%
D23*
%TO.C,C31*%
X254241000Y-49784000D03*
X255791000Y-49784000D03*
%TD*%
M02*
