%TF.GenerationSoftware,KiCad,Pcbnew,8.0.5*%
%TF.CreationDate,2025-04-11T15:09:43-05:00*%
%TF.ProjectId,PSEC5_Ctrl_Board,50534543-355f-4437-9472-6c5f426f6172,rev?*%
%TF.SameCoordinates,Original*%
%TF.FileFunction,Copper,L10,Bot*%
%TF.FilePolarity,Positive*%
%FSLAX46Y46*%
G04 Gerber Fmt 4.6, Leading zero omitted, Abs format (unit mm)*
G04 Created by KiCad (PCBNEW 8.0.5) date 2025-04-11 15:09:43*
%MOMM*%
%LPD*%
G01*
G04 APERTURE LIST*
G04 Aperture macros list*
%AMRoundRect*
0 Rectangle with rounded corners*
0 $1 Rounding radius*
0 $2 $3 $4 $5 $6 $7 $8 $9 X,Y pos of 4 corners*
0 Add a 4 corners polygon primitive as box body*
4,1,4,$2,$3,$4,$5,$6,$7,$8,$9,$2,$3,0*
0 Add four circle primitives for the rounded corners*
1,1,$1+$1,$2,$3*
1,1,$1+$1,$4,$5*
1,1,$1+$1,$6,$7*
1,1,$1+$1,$8,$9*
0 Add four rect primitives between the rounded corners*
20,1,$1+$1,$2,$3,$4,$5,0*
20,1,$1+$1,$4,$5,$6,$7,0*
20,1,$1+$1,$6,$7,$8,$9,0*
20,1,$1+$1,$8,$9,$2,$3,0*%
G04 Aperture macros list end*
%TA.AperFunction,ComponentPad*%
%ADD10R,1.500000X1.500000*%
%TD*%
%TA.AperFunction,ComponentPad*%
%ADD11C,1.955800*%
%TD*%
%TA.AperFunction,ComponentPad*%
%ADD12C,1.500000*%
%TD*%
%TA.AperFunction,ComponentPad*%
%ADD13C,1.600000*%
%TD*%
%TA.AperFunction,ComponentPad*%
%ADD14C,2.200000*%
%TD*%
%TA.AperFunction,ComponentPad*%
%ADD15C,1.549400*%
%TD*%
%TA.AperFunction,ComponentPad*%
%ADD16RoundRect,0.250000X-0.750000X-1.550000X0.750000X-1.550000X0.750000X1.550000X-0.750000X1.550000X0*%
%TD*%
%TA.AperFunction,ComponentPad*%
%ADD17O,2.000000X3.600000*%
%TD*%
%TA.AperFunction,SMDPad,CuDef*%
%ADD18RoundRect,0.200000X0.200000X0.275000X-0.200000X0.275000X-0.200000X-0.275000X0.200000X-0.275000X0*%
%TD*%
%TA.AperFunction,SMDPad,CuDef*%
%ADD19RoundRect,0.200000X-0.200000X-0.275000X0.200000X-0.275000X0.200000X0.275000X-0.200000X0.275000X0*%
%TD*%
%TA.AperFunction,SMDPad,CuDef*%
%ADD20RoundRect,0.225000X-0.225000X-0.250000X0.225000X-0.250000X0.225000X0.250000X-0.225000X0.250000X0*%
%TD*%
%TA.AperFunction,SMDPad,CuDef*%
%ADD21RoundRect,0.225000X-0.250000X0.225000X-0.250000X-0.225000X0.250000X-0.225000X0.250000X0.225000X0*%
%TD*%
%TA.AperFunction,SMDPad,CuDef*%
%ADD22RoundRect,0.200000X-0.275000X0.200000X-0.275000X-0.200000X0.275000X-0.200000X0.275000X0.200000X0*%
%TD*%
%TA.AperFunction,SMDPad,CuDef*%
%ADD23RoundRect,0.225000X0.225000X0.250000X-0.225000X0.250000X-0.225000X-0.250000X0.225000X-0.250000X0*%
%TD*%
%TA.AperFunction,SMDPad,CuDef*%
%ADD24R,1.397000X0.558800*%
%TD*%
%TA.AperFunction,SMDPad,CuDef*%
%ADD25R,0.355600X1.981200*%
%TD*%
%TA.AperFunction,SMDPad,CuDef*%
%ADD26RoundRect,0.225000X0.250000X-0.225000X0.250000X0.225000X-0.250000X0.225000X-0.250000X-0.225000X0*%
%TD*%
%TA.AperFunction,SMDPad,CuDef*%
%ADD27R,0.558800X1.320800*%
%TD*%
%TA.AperFunction,SMDPad,CuDef*%
%ADD28RoundRect,0.250000X-0.312500X-0.625000X0.312500X-0.625000X0.312500X0.625000X-0.312500X0.625000X0*%
%TD*%
%TA.AperFunction,SMDPad,CuDef*%
%ADD29R,0.711200X0.203200*%
%TD*%
%TA.AperFunction,SMDPad,CuDef*%
%ADD30R,0.203200X0.685800*%
%TD*%
%TA.AperFunction,SMDPad,CuDef*%
%ADD31R,0.853186X1.397000*%
%TD*%
%TA.AperFunction,SMDPad,CuDef*%
%ADD32R,0.228600X0.863600*%
%TD*%
%TA.AperFunction,SMDPad,CuDef*%
%ADD33R,1.200000X1.000000*%
%TD*%
%TA.AperFunction,SMDPad,CuDef*%
%ADD34R,0.254000X0.812800*%
%TD*%
%TA.AperFunction,SMDPad,CuDef*%
%ADD35R,0.812800X0.254000*%
%TD*%
%TA.AperFunction,SMDPad,CuDef*%
%ADD36R,3.098800X3.098800*%
%TD*%
%TA.AperFunction,SMDPad,CuDef*%
%ADD37O,1.699999X0.349999*%
%TD*%
%TA.AperFunction,ViaPad*%
%ADD38C,0.400000*%
%TD*%
%TA.AperFunction,ViaPad*%
%ADD39C,0.600000*%
%TD*%
%TA.AperFunction,ViaPad*%
%ADD40C,0.520000*%
%TD*%
%TA.AperFunction,ViaPad*%
%ADD41C,1.200000*%
%TD*%
%TA.AperFunction,ViaPad*%
%ADD42C,0.500000*%
%TD*%
%TA.AperFunction,Conductor*%
%ADD43C,0.158750*%
%TD*%
%TA.AperFunction,Conductor*%
%ADD44C,0.150000*%
%TD*%
%TA.AperFunction,Conductor*%
%ADD45C,0.200000*%
%TD*%
%TA.AperFunction,Conductor*%
%ADD46C,0.171000*%
%TD*%
%TA.AperFunction,Conductor*%
%ADD47C,0.317500*%
%TD*%
G04 APERTURE END LIST*
D10*
%TO.P,TP21,1,1*%
%TO.N,GND*%
X123190000Y-151638000D03*
%TD*%
D11*
%TO.P,U16,1,+VOUT*%
%TO.N,VDD_BUCK_2V5*%
X212852000Y-163322000D03*
%TO.P,U16,2,TRIM*%
%TO.N,Net-(U16-TRIM)*%
X210312000Y-163322000D03*
%TO.P,U16,3,GND_COMMON*%
%TO.N,GND*%
X207772000Y-163322000D03*
%TO.P,U16,4,+VIN*%
%TO.N,Net-(U16-+VIN)*%
X195072000Y-163322000D03*
%TO.P,U16,5,REMOTE_ON/OFF*%
%TO.N,unconnected-(U16-REMOTE_ON{slash}OFF-Pad5)*%
X192532000Y-163322000D03*
%TD*%
D10*
%TO.P,T1,1,VCC*%
%TO.N,/SOM240_1(1.5)/ethernet1/PHY_VCC*%
X69088000Y-79248000D03*
D12*
%TO.P,T1,2,D1+*%
%TO.N,/SOM240_1(1.5)/ethernet1/PHY_MDI0_P*%
X71628000Y-77978000D03*
%TO.P,T1,3,D1-*%
%TO.N,/SOM240_1(1.5)/ethernet1/PHY_MDI0_N*%
X69088000Y-76708000D03*
%TO.P,T1,4,D2+*%
%TO.N,/SOM240_1(1.5)/ethernet1/PHY_MDI1_P*%
X71628000Y-75438000D03*
%TO.P,T1,5,D2-*%
%TO.N,/SOM240_1(1.5)/ethernet1/PHY_MDI1_N*%
X69088000Y-74168000D03*
%TO.P,T1,6,D3+*%
%TO.N,/SOM240_1(1.5)/ethernet1/PHY_MDI2_P*%
X71628000Y-72898000D03*
%TO.P,T1,7,D3-*%
%TO.N,/SOM240_1(1.5)/ethernet1/PHY_MDI2_N*%
X69088000Y-71628000D03*
%TO.P,T1,8,D4+*%
%TO.N,/SOM240_1(1.5)/ethernet1/PHY_MDI3_P*%
X71628000Y-70358000D03*
%TO.P,T1,9,D4-*%
%TO.N,/SOM240_1(1.5)/ethernet1/PHY_MDI3_N*%
X69088000Y-69088000D03*
%TO.P,T1,10,GND*%
%TO.N,GND*%
X71628000Y-67818000D03*
D13*
%TO.P,T1,11*%
%TO.N,/SOM240_1(1.5)/ethernet1/LED_11*%
X82058000Y-80163000D03*
%TO.P,T1,12*%
%TO.N,/SOM240_1(1.5)/ethernet1/LED_12*%
X82058000Y-77623000D03*
%TO.P,T1,13*%
%TO.N,/SOM240_1(1.5)/ethernet1/LED_13*%
X82058000Y-69443000D03*
%TO.P,T1,14*%
%TO.N,/SOM240_1(1.5)/ethernet1/LED_14*%
X82058000Y-66903000D03*
D14*
%TO.P,T1,S1,SHIELD1*%
%TO.N,Net-(T1-SHIELD1)*%
X74928000Y-81278000D03*
%TO.P,T1,S2,SHIELD2*%
X74928000Y-65788000D03*
%TD*%
D10*
%TO.P,TP33,1,1*%
%TO.N,Net-(J10B-PWRGD_PL_M2C)*%
X169672000Y-107188000D03*
%TD*%
%TO.P,TP2,1,1*%
%TO.N,3V3_DUT*%
X186436000Y-129032000D03*
%TD*%
%TO.P,TP31,1,1*%
%TO.N,Net-(J10B-PWRGD_FPD_M2C)*%
X169672000Y-101600000D03*
%TD*%
%TO.P,TP32,1,1*%
%TO.N,Net-(J10B-PWRGD_LPD_M2C)*%
X169672000Y-104394000D03*
%TD*%
%TO.P,TP8,1,1*%
%TO.N,1V2_DUT*%
X249428000Y-141986000D03*
%TD*%
D15*
%TO.P,J12,1,1*%
%TO.N,GND*%
X68834000Y-48799999D03*
%TO.P,J12,2,2*%
%TO.N,1V8_Banks*%
X70834001Y-48799999D03*
%TO.P,J12,3,3*%
%TO.N,GND*%
X68834000Y-50800000D03*
%TO.P,J12,4,4*%
%TO.N,/SOM240_1(1.5)/JTAG_TMS*%
X70834001Y-50800000D03*
%TO.P,J12,5,5*%
%TO.N,GND*%
X68834000Y-52799999D03*
%TO.P,J12,6,6*%
%TO.N,/SOM240_1(1.5)/JTAG_CLK*%
X70834001Y-52799999D03*
%TO.P,J12,7,7*%
%TO.N,GND*%
X68834000Y-54800000D03*
%TO.P,J12,8,8*%
%TO.N,/SOM240_1(1.5)/JTAG_TDO*%
X70834001Y-54800000D03*
%TO.P,J12,9,9*%
%TO.N,GND*%
X68834000Y-56800001D03*
%TO.P,J12,10,10*%
%TO.N,/SOM240_1(1.5)/JTAG_TDI*%
X70834001Y-56800001D03*
%TO.P,J12,11,11*%
%TO.N,GND*%
X68834000Y-58799999D03*
%TO.P,J12,12,12*%
%TO.N,unconnected-(J12-Pad12)*%
X70834001Y-58799999D03*
%TO.P,J12,13,13*%
%TO.N,GND*%
X68834000Y-60800001D03*
%TO.P,J12,14,14*%
%TO.N,unconnected-(J12-Pad14)*%
X70834001Y-60800001D03*
%TD*%
D10*
%TO.P,TP4,1,1*%
%TO.N,2V5_DUT*%
X164338000Y-129540000D03*
%TD*%
%TO.P,TP6,1,1*%
%TO.N,1V8_DUT*%
X236474000Y-141986000D03*
%TD*%
%TO.P,TP23,1,1*%
%TO.N,GND*%
X86106000Y-146664000D03*
%TD*%
%TO.P,TP13,1,1*%
%TO.N,GND*%
X220980000Y-142240000D03*
%TD*%
%TO.P,TP1,1,1*%
%TO.N,GND*%
X183642000Y-129032000D03*
%TD*%
%TO.P,TP7,1,1*%
%TO.N,GND*%
X246634000Y-141986000D03*
%TD*%
%TO.P,TP11,1,1*%
%TO.N,/SOM240_1(1.5)/SHUTDOWN*%
X147320000Y-105537000D03*
%TD*%
%TO.P,TP30,1,1*%
%TO.N,Net-(J10A-PWROFF_C2M_L)*%
X176276000Y-107188000D03*
%TD*%
%TO.P,TP19,1,1*%
%TO.N,Net-(U2-SDO)*%
X219202000Y-51054000D03*
%TD*%
%TO.P,TP22,1,1*%
%TO.N,3V3_IO*%
X123190000Y-154432000D03*
%TD*%
%TO.P,TP10,1,1*%
%TO.N,1V8_ADC*%
X256413000Y-87122000D03*
%TD*%
%TO.P,TP20,1,1*%
%TO.N,Net-(U4-SDO)*%
X222885000Y-51181000D03*
%TD*%
%TO.P,TP14,1,1*%
%TO.N,1V8_Banks*%
X223520000Y-142240000D03*
%TD*%
%TO.P,TP29,1,1*%
%TO.N,Net-(J10A-PS_ERROR_STATUS_M2C)*%
X176276000Y-104394000D03*
%TD*%
%TO.P,TP5,1,1*%
%TO.N,GND*%
X233680000Y-141986000D03*
%TD*%
%TO.P,TP24,1,1*%
%TO.N,2V5_IO*%
X86106000Y-150114000D03*
%TD*%
%TO.P,TP9,1,1*%
%TO.N,GND*%
X256413000Y-89789000D03*
%TD*%
%TO.P,TP12,1,1*%
%TO.N,Net-(J10A-PS_ERROR_OUT_M2C)*%
X176276000Y-101600000D03*
%TD*%
D11*
%TO.P,U5,1,+VOUT*%
%TO.N,VDD_BUCK_5V*%
X141224000Y-158750000D03*
%TO.P,U5,2,TRIM*%
%TO.N,Net-(U5-TRIM)*%
X143764000Y-158750000D03*
%TO.P,U5,3,GND_COMMON*%
%TO.N,GND*%
X146304000Y-158750000D03*
%TO.P,U5,4,+VIN*%
%TO.N,Net-(U5-+VIN)*%
X159004000Y-158750000D03*
%TO.P,U5,5,REMOTE_ON/OFF*%
%TO.N,unconnected-(U5-REMOTE_ON{slash}OFF-Pad5)*%
X161544000Y-158750000D03*
%TD*%
D16*
%TO.P,J1,1,1*%
%TO.N,Net-(U5-+VIN)*%
X173034000Y-154718500D03*
D17*
%TO.P,J1,2,2*%
%TO.N,Net-(U16-+VIN)*%
X180534000Y-154718500D03*
%TD*%
D10*
%TO.P,TP3,1,1*%
%TO.N,GND*%
X161544000Y-129540000D03*
%TD*%
D18*
%TO.P,R5,1*%
%TO.N,Net-(J10B-MIO64)*%
X112776000Y-73152000D03*
%TO.P,R5,2*%
%TO.N,/SOM240_1(1.5)/ETH_TXD0*%
X111126000Y-73152000D03*
%TD*%
%TO.P,R1,1*%
%TO.N,Net-(J10B-MIO52)*%
X116015000Y-77724000D03*
%TO.P,R1,2*%
%TO.N,/SOM240_1(1.5)/ETH_TX_CTRL*%
X114365000Y-77724000D03*
%TD*%
D19*
%TO.P,R84,1*%
%TO.N,GND*%
X90361000Y-76708000D03*
%TO.P,R84,2*%
%TO.N,Net-(U1-CONFIG)*%
X92011000Y-76708000D03*
%TD*%
D20*
%TO.P,C71,1*%
%TO.N,1V8_Banks*%
X141973000Y-60960000D03*
%TO.P,C71,2*%
%TO.N,GND*%
X143523000Y-60960000D03*
%TD*%
D21*
%TO.P,C94,1*%
%TO.N,Net-(C94-Pad1)*%
X76454000Y-125717000D03*
%TO.P,C94,2*%
%TO.N,GND*%
X76454000Y-127267000D03*
%TD*%
D22*
%TO.P,R75,1*%
%TO.N,GND*%
X125730000Y-53785000D03*
%TO.P,R75,2*%
%TO.N,/SOM240_1(1.5)/MODE0*%
X125730000Y-55435000D03*
%TD*%
D23*
%TO.P,C99,1*%
%TO.N,1V8_ADC*%
X230391000Y-77724000D03*
%TO.P,C99,2*%
%TO.N,GND*%
X228841000Y-77724000D03*
%TD*%
D20*
%TO.P,C117,1*%
%TO.N,Net-(ADC1-VREF)*%
X237223000Y-72009000D03*
%TO.P,C117,2*%
%TO.N,GND*%
X238773000Y-72009000D03*
%TD*%
%TO.P,C83,1*%
%TO.N,1V8_Banks*%
X113525000Y-121920000D03*
%TO.P,C83,2*%
%TO.N,GND*%
X115075000Y-121920000D03*
%TD*%
D24*
%TO.P,U8,1,VDD*%
%TO.N,3V3_IO*%
X250558300Y-48387000D03*
%TO.P,U8,2,GND*%
%TO.N,GND*%
X250558300Y-49657000D03*
%TO.P,U8,3,\u002ASHDN*%
%TO.N,3V3_IO*%
X250558300Y-50927000D03*
%TO.P,U8,4,GND*%
%TO.N,GND*%
X250558300Y-52197000D03*
%TO.P,U8,5,GND*%
X245249700Y-52197000D03*
%TO.P,U8,6,GND*%
X245249700Y-50927000D03*
%TO.P,U8,7,OUT*%
%TO.N,Net-(U4-REF)*%
X245249700Y-49657000D03*
%TO.P,U8,8,FEEDBACK*%
X245249700Y-48387000D03*
%TD*%
D21*
%TO.P,C60,1*%
%TO.N,2V5_IO*%
X91694000Y-59677000D03*
%TO.P,C60,2*%
%TO.N,GND*%
X91694000Y-61227000D03*
%TD*%
D23*
%TO.P,C32,1*%
%TO.N,Net-(U4-REF)*%
X242837000Y-48514000D03*
%TO.P,C32,2*%
%TO.N,GND*%
X241287000Y-48514000D03*
%TD*%
D18*
%TO.P,R7,1*%
%TO.N,Net-(J10B-MIO66)*%
X112776000Y-76708000D03*
%TO.P,R7,2*%
%TO.N,/SOM240_1(1.5)/ETH_TXD3*%
X111126000Y-76708000D03*
%TD*%
D23*
%TO.P,C101,1*%
%TO.N,1V8_ADC*%
X229375000Y-82804000D03*
%TO.P,C101,2*%
%TO.N,GND*%
X227825000Y-82804000D03*
%TD*%
D25*
%TO.P,U4,1,GND*%
%TO.N,GND*%
X239458500Y-52755800D03*
%TO.P,U4,2,VOUTA*%
%TO.N,DISCBIAS*%
X238823500Y-52755800D03*
%TO.P,U4,3,VOUTB*%
%TO.N,WBUFBIAS*%
X238188500Y-52755800D03*
%TO.P,U4,4,VOUTC*%
%TO.N,READBIAS1*%
X237553500Y-52755800D03*
%TO.P,U4,5,VOUTD*%
%TO.N,READBIAS2*%
X236918500Y-52755800D03*
%TO.P,U4,6,REF*%
%TO.N,Net-(U4-REF)*%
X236283500Y-52755800D03*
%TO.P,U4,7,\u002ACS/LD*%
%TO.N,/SOM240_1(1.5)/CS{slash}LD_DAC2\u002A*%
X235648500Y-52755800D03*
%TO.P,U4,8,SCK*%
%TO.N,/SOM240_1(1.5)/SCK_DAC2*%
X235013500Y-52755800D03*
%TO.P,U4,9,SDI*%
%TO.N,/SOM240_1(1.5)/SDI_DAC_BIAS*%
X235013500Y-47828200D03*
%TO.P,U4,10,SDO*%
%TO.N,Net-(U4-SDO)*%
X235648500Y-47828200D03*
%TO.P,U4,11,\u002ACLR*%
%TO.N,/SOM240_1(1.5)/CLR_DAC\u002A*%
X236283500Y-47828200D03*
%TO.P,U4,12,VOUTE*%
%TO.N,unconnected-(U4-VOUTE-Pad12)*%
X236918500Y-47828200D03*
%TO.P,U4,13,VOUTF*%
%TO.N,unconnected-(U4-VOUTF-Pad13)*%
X237553500Y-47828200D03*
%TO.P,U4,14,VOUTG*%
%TO.N,unconnected-(U4-VOUTG-Pad14)*%
X238188500Y-47828200D03*
%TO.P,U4,15,VOUTH*%
%TO.N,unconnected-(U4-VOUTH-Pad15)*%
X238823500Y-47828200D03*
%TO.P,U4,16,VCC*%
%TO.N,2V5_IO*%
X239458500Y-47828200D03*
%TD*%
D23*
%TO.P,C155,1*%
%TO.N,Net-(U1-REGCAP2)*%
X100089000Y-67056000D03*
%TO.P,C155,2*%
%TO.N,Net-(U1-REGCAP1)*%
X98539000Y-67056000D03*
%TD*%
D18*
%TO.P,R3,1*%
%TO.N,Net-(J10B-MIO53)*%
X116015000Y-75946000D03*
%TO.P,R3,2*%
%TO.N,/SOM240_1(1.5)/ETH_TXD2*%
X114365000Y-75946000D03*
%TD*%
D22*
%TO.P,R70,1*%
%TO.N,GND*%
X121158000Y-53785000D03*
%TO.P,R70,2*%
%TO.N,/SOM240_1(1.5)/MODE3*%
X121158000Y-55435000D03*
%TD*%
%TO.P,R58,1*%
%TO.N,Net-(C94-Pad1)*%
X73152000Y-123635000D03*
%TO.P,R58,2*%
%TO.N,Net-(Q4-D)*%
X73152000Y-125285000D03*
%TD*%
D23*
%TO.P,C53,1*%
%TO.N,/SOM240_1(1.5)/ethernet1/PHY_VCC*%
X69863000Y-85344000D03*
%TO.P,C53,2*%
%TO.N,GND*%
X68313000Y-85344000D03*
%TD*%
D26*
%TO.P,C38,1*%
%TO.N,Net-(ADC2-REFB)*%
X215138000Y-71641000D03*
%TO.P,C38,2*%
%TO.N,GND*%
X215138000Y-70091000D03*
%TD*%
D20*
%TO.P,C90,1*%
%TO.N,Net-(U2-REF)*%
X206489000Y-51816000D03*
%TO.P,C90,2*%
%TO.N,GND*%
X208039000Y-51816000D03*
%TD*%
%TO.P,C69,1*%
%TO.N,Net-(U10-CH2)*%
X72898000Y-97282000D03*
%TO.P,C69,2*%
%TO.N,GND*%
X74448000Y-97282000D03*
%TD*%
D27*
%TO.P,Q4,1,D*%
%TO.N,Net-(Q4-D)*%
X67121999Y-126746000D03*
%TO.P,Q4,2,G*%
%TO.N,Net-(Q4-G)*%
X69022001Y-126746000D03*
%TO.P,Q4,3,S*%
%TO.N,GND*%
X68072000Y-128778000D03*
%TD*%
D21*
%TO.P,C114,1*%
%TO.N,1V8_ADC*%
X214630000Y-78219000D03*
%TO.P,C114,2*%
%TO.N,GND*%
X214630000Y-79769000D03*
%TD*%
%TO.P,C82,1*%
%TO.N,/SOM240_1(1.5)/SDcard1/SD_CARD_VCC*%
X68072000Y-121158000D03*
%TO.P,C82,2*%
%TO.N,GND*%
X68072000Y-122708000D03*
%TD*%
D22*
%TO.P,L5,1,1*%
%TO.N,/SOM240_1(1.5)/ethernet1/PHY_VCC*%
X74168000Y-84265000D03*
%TO.P,L5,2,2*%
%TO.N,3V3_IO*%
X74168000Y-85915000D03*
%TD*%
D20*
%TO.P,C116,1*%
%TO.N,Net-(ADC2-VREF)*%
X216662000Y-71628000D03*
%TO.P,C116,2*%
%TO.N,GND*%
X218212000Y-71628000D03*
%TD*%
D28*
%TO.P,FB2,1*%
%TO.N,Net-(C94-Pad1)*%
X76515500Y-123698000D03*
%TO.P,FB2,2*%
%TO.N,3V3_IO*%
X79440500Y-123698000D03*
%TD*%
D23*
%TO.P,C55,1*%
%TO.N,/SOM240_1(1.5)/ethernet1/PHY_VCC*%
X69863000Y-82296000D03*
%TO.P,C55,2*%
%TO.N,GND*%
X68313000Y-82296000D03*
%TD*%
%TO.P,C29,1*%
%TO.N,3V3_IO*%
X192532300Y-51054000D03*
%TO.P,C29,2*%
%TO.N,GND*%
X190982300Y-51054000D03*
%TD*%
D20*
%TO.P,C78,1*%
%TO.N,Net-(ADC2-VREF)*%
X216662000Y-74676000D03*
%TO.P,C78,2*%
%TO.N,GND*%
X218212000Y-74676000D03*
%TD*%
D22*
%TO.P,R66,1*%
%TO.N,Net-(Q4-D)*%
X71374000Y-124905000D03*
%TO.P,R66,2*%
%TO.N,GND*%
X71374000Y-126555000D03*
%TD*%
D20*
%TO.P,C30,1*%
%TO.N,Net-(U2-REF)*%
X206489000Y-53340000D03*
%TO.P,C30,2*%
%TO.N,GND*%
X208039000Y-53340000D03*
%TD*%
D23*
%TO.P,C84,1*%
%TO.N,1V8_Banks*%
X116345000Y-125222000D03*
%TO.P,C84,2*%
%TO.N,GND*%
X114795000Y-125222000D03*
%TD*%
D26*
%TO.P,C37,1*%
%TO.N,Net-(ADC2-REFT)*%
X213614000Y-71641000D03*
%TO.P,C37,2*%
%TO.N,GND*%
X213614000Y-70091000D03*
%TD*%
%TO.P,C64,1*%
%TO.N,3V3_IO*%
X75692000Y-85865000D03*
%TO.P,C64,2*%
%TO.N,GND*%
X75692000Y-84315000D03*
%TD*%
D20*
%TO.P,C75,1*%
%TO.N,Net-(ADC1-VREF)*%
X237223000Y-73533000D03*
%TO.P,C75,2*%
%TO.N,GND*%
X238773000Y-73533000D03*
%TD*%
D23*
%TO.P,C89,1*%
%TO.N,Net-(U4-REF)*%
X242837000Y-50038000D03*
%TO.P,C89,2*%
%TO.N,GND*%
X241287000Y-50038000D03*
%TD*%
D20*
%TO.P,C36,1*%
%TO.N,Net-(ADC1-REFT)*%
X234175000Y-75057000D03*
%TO.P,C36,2*%
%TO.N,Net-(ADC1-REFB)*%
X235725000Y-75057000D03*
%TD*%
%TO.P,C107,1*%
%TO.N,Net-(U10-CH1)*%
X72898000Y-95758000D03*
%TO.P,C107,2*%
%TO.N,GND*%
X74448000Y-95758000D03*
%TD*%
D23*
%TO.P,C86,1*%
%TO.N,1V8_Banks*%
X113297000Y-125222000D03*
%TO.P,C86,2*%
%TO.N,GND*%
X111747000Y-125222000D03*
%TD*%
%TO.P,C100,1*%
%TO.N,1V8_ADC*%
X230137000Y-80518000D03*
%TO.P,C100,2*%
%TO.N,GND*%
X228587000Y-80518000D03*
%TD*%
%TO.P,C112,1*%
%TO.N,1V8_ADC*%
X211087000Y-77978000D03*
%TO.P,C112,2*%
%TO.N,GND*%
X209537000Y-77978000D03*
%TD*%
D25*
%TO.P,U2,1,GND*%
%TO.N,GND*%
X210312000Y-47828200D03*
%TO.P,U2,2,VOUTA*%
%TO.N,Disc_Thresh1*%
X210947000Y-47828200D03*
%TO.P,U2,3,VOUTB*%
%TO.N,Disc_Thresh2*%
X211582000Y-47828200D03*
%TO.P,U2,4,VOUTC*%
%TO.N,Disc_Thresh3*%
X212217000Y-47828200D03*
%TO.P,U2,5,VOUTD*%
%TO.N,Disc_Thresh4*%
X212852000Y-47828200D03*
%TO.P,U2,6,REF*%
%TO.N,Net-(U2-REF)*%
X213487000Y-47828200D03*
%TO.P,U2,7,\u002ACS/LD*%
%TO.N,/SOM240_1(1.5)/CS{slash}LD_DAC1\u002A*%
X214122000Y-47828200D03*
%TO.P,U2,8,SCK*%
%TO.N,/SOM240_1(1.5)/SCK_DAC1*%
X214757000Y-47828200D03*
%TO.P,U2,9,SDI*%
%TO.N,/SOM240_1(1.5)/SDI_DAC_THRES*%
X214757000Y-52755800D03*
%TO.P,U2,10,SDO*%
%TO.N,Net-(U2-SDO)*%
X214122000Y-52755800D03*
%TO.P,U2,11,\u002ACLR*%
%TO.N,/SOM240_1(1.5)/CLR_DAC\u002A*%
X213487000Y-52755800D03*
%TO.P,U2,12,VOUTE*%
%TO.N,Disc_Thresh5*%
X212852000Y-52755800D03*
%TO.P,U2,13,VOUTF*%
%TO.N,Disc_Thresh6*%
X212217000Y-52755800D03*
%TO.P,U2,14,VOUTG*%
%TO.N,Disc_Thresh7*%
X211582000Y-52755800D03*
%TO.P,U2,15,VOUTH*%
%TO.N,Disc_Thresh8*%
X210947000Y-52755800D03*
%TO.P,U2,16,VCC*%
%TO.N,2V5_IO*%
X210312000Y-52755800D03*
%TD*%
D22*
%TO.P,R73,1*%
%TO.N,GND*%
X124206000Y-53785000D03*
%TO.P,R73,2*%
%TO.N,/SOM240_1(1.5)/MODE1*%
X124206000Y-55435000D03*
%TD*%
D23*
%TO.P,C56,1*%
%TO.N,/SOM240_1(1.5)/ethernet1/PHY_VCC*%
X69863000Y-80772000D03*
%TO.P,C56,2*%
%TO.N,GND*%
X68313000Y-80772000D03*
%TD*%
D20*
%TO.P,C57,1*%
%TO.N,Net-(T1-SHIELD1)*%
X74396000Y-72136000D03*
%TO.P,C57,2*%
%TO.N,GND*%
X75946000Y-72136000D03*
%TD*%
D21*
%TO.P,C41,1*%
%TO.N,1V8_ADC*%
X234696000Y-78727000D03*
%TO.P,C41,2*%
%TO.N,GND*%
X234696000Y-80277000D03*
%TD*%
D20*
%TO.P,C35,1*%
%TO.N,Net-(ADC1-REFT)*%
X234175000Y-73533000D03*
%TO.P,C35,2*%
%TO.N,Net-(ADC1-REFB)*%
X235725000Y-73533000D03*
%TD*%
D23*
%TO.P,C85,1*%
%TO.N,2V5_IO*%
X102629000Y-125222000D03*
%TO.P,C85,2*%
%TO.N,GND*%
X101079000Y-125222000D03*
%TD*%
%TO.P,C87,1*%
%TO.N,1V8_Banks*%
X114821000Y-128270000D03*
%TO.P,C87,2*%
%TO.N,GND*%
X113271000Y-128270000D03*
%TD*%
D22*
%TO.P,R57,1*%
%TO.N,Net-(ADC1-RBIAS)*%
X237490000Y-78931000D03*
%TO.P,R57,2*%
%TO.N,GND*%
X237490000Y-80581000D03*
%TD*%
D23*
%TO.P,C88,1*%
%TO.N,2V5_IO*%
X102375000Y-127508000D03*
%TO.P,C88,2*%
%TO.N,GND*%
X100825000Y-127508000D03*
%TD*%
D20*
%TO.P,C40,1*%
%TO.N,Net-(ADC2-REFT)*%
X213601000Y-74676000D03*
%TO.P,C40,2*%
%TO.N,Net-(ADC2-REFB)*%
X215151000Y-74676000D03*
%TD*%
%TO.P,C113,1*%
%TO.N,1V8_ADC*%
X221729000Y-78232000D03*
%TO.P,C113,2*%
%TO.N,GND*%
X223279000Y-78232000D03*
%TD*%
D23*
%TO.P,C70,1*%
%TO.N,1V8_Banks*%
X133617000Y-56388000D03*
%TO.P,C70,2*%
%TO.N,GND*%
X132067000Y-56388000D03*
%TD*%
D20*
%TO.P,C24,1*%
%TO.N,1V8_ADC*%
X241033000Y-79248000D03*
%TO.P,C24,2*%
%TO.N,GND*%
X242583000Y-79248000D03*
%TD*%
D29*
%TO.P,U10,1,CH1*%
%TO.N,Net-(U10-CH1)*%
X68567300Y-96281999D03*
%TO.P,U10,2,CH2*%
%TO.N,Net-(U10-CH2)*%
X68567300Y-96782001D03*
%TO.P,U10,3,GND*%
%TO.N,GND*%
X68567300Y-97282000D03*
%TO.P,U10,4,CH3*%
%TO.N,unconnected-(U10-CH3-Pad4)*%
X68567300Y-97781999D03*
%TO.P,U10,5,CH4*%
%TO.N,unconnected-(U10-CH4-Pad5)*%
X68567300Y-98282001D03*
%TO.P,U10,6,N.C.*%
%TO.N,unconnected-(U10-N.C.-Pad6)*%
X67576700Y-98282001D03*
%TO.P,U10,7,N.C.*%
%TO.N,unconnected-(U10-N.C.-Pad7)*%
X67576700Y-97781999D03*
%TO.P,U10,8,GND*%
%TO.N,GND*%
X67576700Y-97282000D03*
%TO.P,U10,9,N.C.*%
%TO.N,unconnected-(U10-N.C.-Pad9)*%
X67576700Y-96782001D03*
%TO.P,U10,10,N.C.*%
%TO.N,unconnected-(U10-N.C.-Pad10)*%
X67576700Y-96281999D03*
%TD*%
D20*
%TO.P,C79,1*%
%TO.N,Net-(ADC2-VREF)*%
X216662000Y-73152000D03*
%TO.P,C79,2*%
%TO.N,GND*%
X218212000Y-73152000D03*
%TD*%
D22*
%TO.P,R56,1*%
%TO.N,Net-(ADC2-RBIAS)*%
X217424000Y-78423000D03*
%TO.P,R56,2*%
%TO.N,GND*%
X217424000Y-80073000D03*
%TD*%
D20*
%TO.P,C73,1*%
%TO.N,Net-(ADC1-VREF)*%
X237223000Y-75057000D03*
%TO.P,C73,2*%
%TO.N,GND*%
X238773000Y-75057000D03*
%TD*%
%TO.P,C91,1*%
%TO.N,2V5_IO*%
X240525000Y-45466000D03*
%TO.P,C91,2*%
%TO.N,GND*%
X242075000Y-45466000D03*
%TD*%
D18*
%TO.P,R6,1*%
%TO.N,Net-(J10B-MIO65)*%
X112776000Y-74930000D03*
%TO.P,R6,2*%
%TO.N,/SOM240_1(1.5)/ETH_TX_CLK*%
X111126000Y-74930000D03*
%TD*%
D26*
%TO.P,C33,1*%
%TO.N,Net-(ADC1-REFT)*%
X234188000Y-72022000D03*
%TO.P,C33,2*%
%TO.N,GND*%
X234188000Y-70472000D03*
%TD*%
D21*
%TO.P,C95,1*%
%TO.N,/SOM240_1(1.5)/SDcard1/SD_CARD_VCC*%
X66548000Y-121145000D03*
%TO.P,C95,2*%
%TO.N,GND*%
X66548000Y-122695000D03*
%TD*%
D29*
%TO.P,U3,1,CH1*%
%TO.N,/SOM240_1(1.5)/JTAG_TMS*%
X77965300Y-50561999D03*
%TO.P,U3,2,CH2*%
%TO.N,/SOM240_1(1.5)/JTAG_CLK*%
X77965300Y-51062001D03*
%TO.P,U3,3,GND*%
%TO.N,GND*%
X77965300Y-51562000D03*
%TO.P,U3,4,CH3*%
%TO.N,/SOM240_1(1.5)/JTAG_TDO*%
X77965300Y-52061999D03*
%TO.P,U3,5,CH4*%
%TO.N,/SOM240_1(1.5)/JTAG_TDI*%
X77965300Y-52562001D03*
%TO.P,U3,6,N.C.*%
%TO.N,unconnected-(U3-N.C.-Pad6)*%
X76974700Y-52562001D03*
%TO.P,U3,7,N.C.*%
%TO.N,unconnected-(U3-N.C.-Pad7)*%
X76974700Y-52061999D03*
%TO.P,U3,8,GND*%
%TO.N,GND*%
X76974700Y-51562000D03*
%TO.P,U3,9,N.C.*%
%TO.N,unconnected-(U3-N.C.-Pad9)*%
X76974700Y-51062001D03*
%TO.P,U3,10,N.C.*%
%TO.N,unconnected-(U3-N.C.-Pad10)*%
X76974700Y-50561999D03*
%TD*%
D21*
%TO.P,C43,1*%
%TO.N,3V3_IO*%
X81534000Y-104889000D03*
%TO.P,C43,2*%
%TO.N,GND*%
X81534000Y-106439000D03*
%TD*%
D18*
%TO.P,R4,1*%
%TO.N,Net-(J10B-MIO54)*%
X116015000Y-74168000D03*
%TO.P,R4,2*%
%TO.N,/SOM240_1(1.5)/ETH_TXD1*%
X114365000Y-74168000D03*
%TD*%
D26*
%TO.P,C34,1*%
%TO.N,Net-(ADC1-REFB)*%
X235712000Y-72035000D03*
%TO.P,C34,2*%
%TO.N,GND*%
X235712000Y-70485000D03*
%TD*%
D23*
%TO.P,C54,1*%
%TO.N,/SOM240_1(1.5)/ethernet1/PHY_VCC*%
X69863000Y-83820000D03*
%TO.P,C54,2*%
%TO.N,GND*%
X68313000Y-83820000D03*
%TD*%
D24*
%TO.P,U7,1,VDD*%
%TO.N,3V3_IO*%
X198247000Y-52451000D03*
%TO.P,U7,2,GND*%
%TO.N,GND*%
X198247000Y-51181000D03*
%TO.P,U7,3,\u002ASHDN*%
%TO.N,3V3_IO*%
X198247000Y-49911000D03*
%TO.P,U7,4,GND*%
%TO.N,GND*%
X198247000Y-48641000D03*
%TO.P,U7,5,GND*%
X203555600Y-48641000D03*
%TO.P,U7,6,GND*%
X203555600Y-49911000D03*
%TO.P,U7,7,OUT*%
%TO.N,Net-(U2-REF)*%
X203555600Y-51181000D03*
%TO.P,U7,8,FEEDBACK*%
X203555600Y-52451000D03*
%TD*%
D30*
%TO.P,U14,1,D*%
%TO.N,/SOM240_1(1.5)/SDcard1/SD_CARD_VCC*%
X70104000Y-122986800D03*
X70753986Y-122986800D03*
D31*
X70428993Y-121945400D03*
D30*
X70104000Y-120904000D03*
X70753986Y-120904000D03*
%TO.P,U14,3,G*%
%TO.N,Net-(Q4-D)*%
X71403972Y-122986800D03*
%TO.P,U14,4,S*%
%TO.N,Net-(C94-Pad1)*%
X71403972Y-120904000D03*
D32*
%TO.P,U14,7,S*%
X71417986Y-121945400D03*
%TD*%
D33*
%TO.P,Y3,1,TRI-STATE*%
%TO.N,2V5_IO*%
X94200000Y-62167000D03*
%TO.P,Y3,2,GND/CASE*%
%TO.N,GND*%
X96300000Y-62167000D03*
%TO.P,Y3,3,OUTPUT*%
%TO.N,/SOM240_1(1.5)/ethernet1/OSC25_OUT*%
X96300000Y-63817000D03*
%TO.P,Y3,4,VDD*%
%TO.N,2V5_IO*%
X94200000Y-63817000D03*
%TD*%
D34*
%TO.P,U1,1,S_INP*%
%TO.N,unconnected-(U1-S_INP-Pad1)*%
X100786001Y-77304900D03*
%TO.P,U1,2,S_INN*%
%TO.N,unconnected-(U1-S_INN-Pad2)*%
X100286000Y-77304900D03*
%TO.P,U1,3,AVDD18*%
%TO.N,/SOM240_1(1.5)/ethernet1/AVDD18*%
X99786001Y-77304900D03*
%TO.P,U1,4,S_OUTP*%
%TO.N,unconnected-(U1-S_OUTP-Pad4)*%
X99285999Y-77304900D03*
%TO.P,U1,5,S_OUTN*%
%TO.N,unconnected-(U1-S_OUTN-Pad5)*%
X98786000Y-77304900D03*
%TO.P,U1,6,DVDD*%
%TO.N,/SOM240_1(1.5)/ethernet1/DVDD*%
X98286001Y-77304900D03*
%TO.P,U1,7,MDC*%
%TO.N,/SOM240_1(1.5)/ETH_MDC*%
X97786000Y-77304900D03*
%TO.P,U1,8,MDIO*%
%TO.N,/SOM240_1(1.5)/ETH_MDIO*%
X97286000Y-77304900D03*
%TO.P,U1,9,CLK125*%
%TO.N,unconnected-(U1-CLK125-Pad9)*%
X96785999Y-77304900D03*
%TO.P,U1,10,VDDO_SEL*%
%TO.N,3V3_IO*%
X96286000Y-77304900D03*
%TO.P,U1,11,VDDO*%
X95786001Y-77304900D03*
%TO.P,U1,12,LED[2]/INTn*%
%TO.N,/SOM240_1(1.5)/ethernet1/LED_12*%
X95285999Y-77304900D03*
%TO.P,U1,13,LED[1]*%
%TO.N,/SOM240_1(1.5)/ethernet1/LED_13*%
X94786000Y-77304900D03*
%TO.P,U1,14,LED[0]*%
%TO.N,/SOM240_1(1.5)/ethernet1/LED_14*%
X94285999Y-77304900D03*
D35*
%TO.P,U1,15,CONFIG*%
%TO.N,Net-(U1-CONFIG)*%
X93637100Y-76656001D03*
%TO.P,U1,16,RESETn*%
%TO.N,PS_POR*%
X93637100Y-76156000D03*
%TO.P,U1,17,MDIN[3]*%
%TO.N,/SOM240_1(1.5)/ethernet1/PHY_MDI3_P*%
X93637100Y-75656001D03*
%TO.P,U1,18,MDIP[3]*%
%TO.N,/SOM240_1(1.5)/ethernet1/PHY_MDI3_N*%
X93637100Y-75155999D03*
%TO.P,U1,19,AVDD18*%
%TO.N,/SOM240_1(1.5)/ethernet1/AVDD18*%
X93637100Y-74656000D03*
%TO.P,U1,20,AVDD33*%
%TO.N,/SOM240_1(1.5)/ethernet1/AVDD33*%
X93637100Y-74156001D03*
%TO.P,U1,21,MDIN[2]*%
%TO.N,/SOM240_1(1.5)/ethernet1/PHY_MDI2_P*%
X93637100Y-73656000D03*
%TO.P,U1,22,MDIP[2]*%
%TO.N,/SOM240_1(1.5)/ethernet1/PHY_MDI2_N*%
X93637100Y-73156000D03*
%TO.P,U1,23,MDIN[1]*%
%TO.N,/SOM240_1(1.5)/ethernet1/PHY_MDI1_P*%
X93637100Y-72655999D03*
%TO.P,U1,24,MDIP[1]*%
%TO.N,/SOM240_1(1.5)/ethernet1/PHY_MDI1_N*%
X93637100Y-72156000D03*
%TO.P,U1,25,AVDD33*%
%TO.N,/SOM240_1(1.5)/ethernet1/AVDD33*%
X93637100Y-71656001D03*
%TO.P,U1,26,AVDD18*%
%TO.N,/SOM240_1(1.5)/ethernet1/AVDD18*%
X93637100Y-71155999D03*
%TO.P,U1,27,MDIN[0]*%
%TO.N,/SOM240_1(1.5)/ethernet1/PHY_MDI0_P*%
X93637100Y-70656000D03*
%TO.P,U1,28,MDIP[0]*%
%TO.N,/SOM240_1(1.5)/ethernet1/PHY_MDI0_N*%
X93637100Y-70155999D03*
D34*
%TO.P,U1,29,TSTPT*%
%TO.N,unconnected-(U1-TSTPT-Pad29)*%
X94285999Y-69507100D03*
%TO.P,U1,30,RSET*%
%TO.N,Net-(U1-RSET)*%
X94786000Y-69507100D03*
%TO.P,U1,31,HSDACN*%
%TO.N,unconnected-(U1-HSDACN-Pad31)*%
X95285999Y-69507100D03*
%TO.P,U1,32,HSDACP*%
%TO.N,unconnected-(U1-HSDACP-Pad32)*%
X95786001Y-69507100D03*
%TO.P,U1,33,XTAL_OUT*%
%TO.N,unconnected-(U1-XTAL_OUT-Pad33)*%
X96286000Y-69507100D03*
%TO.P,U1,34,XTAL_IN*%
%TO.N,/SOM240_1(1.5)/ethernet1/OSC25_OUT*%
X96785999Y-69507100D03*
%TO.P,U1,35,AVDDC18*%
%TO.N,/SOM240_1(1.5)/ethernet1/AVDD18*%
X97286000Y-69507100D03*
%TO.P,U1,36,REG_IN*%
%TO.N,3V3_IO*%
X97786000Y-69507100D03*
%TO.P,U1,37,REGCAP1*%
%TO.N,Net-(U1-REGCAP1)*%
X98286001Y-69507100D03*
%TO.P,U1,38,AVDD18*%
%TO.N,/SOM240_1(1.5)/ethernet1/AVDD18*%
X98786000Y-69507100D03*
%TO.P,U1,39,AVDD18_OUT*%
X99285999Y-69507100D03*
%TO.P,U1,40,DVDD_OUT*%
%TO.N,/SOM240_1(1.5)/ethernet1/DVDD*%
X99786001Y-69507100D03*
%TO.P,U1,41,REGCAP2*%
%TO.N,Net-(U1-REGCAP2)*%
X100286000Y-69507100D03*
%TO.P,U1,42,DVDD*%
%TO.N,/SOM240_1(1.5)/ethernet1/DVDD*%
X100786001Y-69507100D03*
D35*
%TO.P,U1,43,RX_CTRL*%
%TO.N,Net-(U1-RX_CTRL)*%
X101434900Y-70155999D03*
%TO.P,U1,44,RXD[0]*%
%TO.N,Net-(U1-RXD[0])*%
X101434900Y-70656000D03*
%TO.P,U1,45,RXD[1]*%
%TO.N,Net-(U1-RXD[1])*%
X101434900Y-71155999D03*
%TO.P,U1,46,RX_CLK*%
%TO.N,Net-(U1-RX_CLK)*%
X101434900Y-71656001D03*
%TO.P,U1,47,RXD[2]*%
%TO.N,Net-(U1-RXD[2])*%
X101434900Y-72156000D03*
%TO.P,U1,48,RXD[3]*%
%TO.N,Net-(U1-RXD[3])*%
X101434900Y-72655999D03*
%TO.P,U1,49,VDDO*%
%TO.N,3V3_IO*%
X101434900Y-73156000D03*
%TO.P,U1,50,TXD[0]*%
%TO.N,/SOM240_1(1.5)/ETH_TXD0*%
X101434900Y-73656000D03*
%TO.P,U1,51,TXD[1]*%
%TO.N,/SOM240_1(1.5)/ETH_TXD1*%
X101434900Y-74156001D03*
%TO.P,U1,52,VDDO*%
%TO.N,3V3_IO*%
X101434900Y-74656000D03*
%TO.P,U1,53,TX_CLK*%
%TO.N,/SOM240_1(1.5)/ETH_TX_CLK*%
X101434900Y-75155999D03*
%TO.P,U1,54,TXD[2]*%
%TO.N,/SOM240_1(1.5)/ETH_TXD2*%
X101434900Y-75656001D03*
%TO.P,U1,55,TXD[3]*%
%TO.N,/SOM240_1(1.5)/ETH_TXD3*%
X101434900Y-76156000D03*
%TO.P,U1,56,TX_CTRL*%
%TO.N,/SOM240_1(1.5)/ETH_TX_CTRL*%
X101434900Y-76656001D03*
D36*
%TO.P,U1,57,VSS*%
%TO.N,GND*%
X97536000Y-73406000D03*
%TD*%
D37*
%TO.P,U6,1,GND*%
%TO.N,GND*%
X86669999Y-107819000D03*
%TO.P,U6,2,VREF_A*%
%TO.N,1V8_Banks*%
X86669999Y-108469001D03*
%TO.P,U6,3,DAT1A*%
%TO.N,/SOM240_1(1.5)/SD_DAT1*%
X86669999Y-109118999D03*
%TO.P,U6,4,DAT0A*%
%TO.N,/SOM240_1(1.5)/SD_DAT0*%
X86669999Y-109769001D03*
%TO.P,U6,5,CLKA*%
%TO.N,/SOM240_1(1.5)/SD_CLK*%
X86669999Y-110418999D03*
%TO.P,U6,6,CMDA*%
%TO.N,/SOM240_1(1.5)/SD_CMD*%
X86669999Y-111069001D03*
%TO.P,U6,7,DAT3A*%
%TO.N,/SOM240_1(1.5)/SD_DAT3*%
X86669999Y-111718999D03*
%TO.P,U6,8,DAT2A*%
%TO.N,/SOM240_1(1.5)/SD_DAT2*%
X86669999Y-112369001D03*
%TO.P,U6,9,A7*%
%TO.N,unconnected-(U6-A7-Pad9)*%
X86669999Y-113018999D03*
%TO.P,U6,10,A8*%
%TO.N,unconnected-(U6-A8-Pad10)*%
X86669999Y-113669000D03*
%TO.P,U6,11,B8*%
%TO.N,unconnected-(U6-B8-Pad11)*%
X80970001Y-113669000D03*
%TO.P,U6,12,B7*%
%TO.N,unconnected-(U6-B7-Pad12)*%
X80970001Y-113018999D03*
%TO.P,U6,13,DAT2B*%
%TO.N,/SOM240_1(1.5)/SDcard1/DAT2B*%
X80970001Y-112369001D03*
%TO.P,U6,14,DAT3B*%
%TO.N,/SOM240_1(1.5)/SDcard1/DAT3B*%
X80970001Y-111718999D03*
%TO.P,U6,15,CMDB*%
%TO.N,/SOM240_1(1.5)/SDcard1/CMDB*%
X80970001Y-111069001D03*
%TO.P,U6,16,CLKB*%
%TO.N,/SOM240_1(1.5)/SDcard1/CLKB*%
X80970001Y-110418999D03*
%TO.P,U6,17,DAT0B*%
%TO.N,/SOM240_1(1.5)/SDcard1/DAT0B*%
X80970001Y-109769001D03*
%TO.P,U6,18,DAT1B*%
%TO.N,/SOM240_1(1.5)/SDcard1/DAT1B*%
X80970001Y-109118999D03*
%TO.P,U6,19,VREF_B*%
%TO.N,Net-(U6-EN)*%
X80970001Y-108469001D03*
%TO.P,U6,20,EN*%
X80970001Y-107819000D03*
%TD*%
D20*
%TO.P,C39,1*%
%TO.N,Net-(ADC2-REFT)*%
X213601000Y-73152000D03*
%TO.P,C39,2*%
%TO.N,Net-(ADC2-REFB)*%
X215151000Y-73152000D03*
%TD*%
D22*
%TO.P,R71,1*%
%TO.N,GND*%
X122682000Y-53785000D03*
%TO.P,R71,2*%
%TO.N,/SOM240_1(1.5)/MODE2*%
X122682000Y-55435000D03*
%TD*%
D26*
%TO.P,C62,1*%
%TO.N,3V3_IO*%
X77216000Y-85865000D03*
%TO.P,C62,2*%
%TO.N,GND*%
X77216000Y-84315000D03*
%TD*%
D19*
%TO.P,R100,1*%
%TO.N,Net-(T1-SHIELD1)*%
X74346000Y-73660000D03*
%TO.P,R100,2*%
%TO.N,GND*%
X75996000Y-73660000D03*
%TD*%
D20*
%TO.P,C31,1*%
%TO.N,3V3_IO*%
X254241000Y-49784000D03*
%TO.P,C31,2*%
%TO.N,GND*%
X255791000Y-49784000D03*
%TD*%
D38*
%TO.N,/SOM240_1(1.5)/ethernet1/DVDD*%
X99806625Y-68823313D03*
X101600000Y-69088000D03*
D39*
%TO.N,3V3_IO*%
X111252000Y-162814000D03*
D38*
X91440000Y-88138000D03*
D39*
X83058000Y-88364301D03*
X90424000Y-65024000D03*
X252476000Y-48387000D03*
X103505000Y-74863000D03*
D40*
X90295001Y-85661000D03*
D39*
X83312000Y-99060000D03*
X194043300Y-49911000D03*
D38*
X101600000Y-68326000D03*
D40*
X100584000Y-73152000D03*
X96012000Y-78232000D03*
D38*
X80264000Y-104394000D03*
D39*
X194170300Y-52451000D03*
D40*
X104902000Y-43434000D03*
D39*
X115316000Y-162814000D03*
X124968000Y-156210000D03*
D38*
X99314000Y-45466000D03*
X97282000Y-70866000D03*
D40*
X98005811Y-78486000D03*
D39*
X252349000Y-50927000D03*
X113284000Y-162814000D03*
D38*
X107950000Y-48006000D03*
D40*
X100076000Y-79502000D03*
D39*
X78486000Y-85852000D03*
X116777000Y-160719000D03*
X81026000Y-125476000D03*
D41*
%TO.N,VDD_BUCK_5V*%
X103886000Y-54610000D03*
D39*
X156210000Y-148590000D03*
X88138000Y-159004000D03*
X183464200Y-150291800D03*
X141224000Y-156210000D03*
X92532200Y-160705800D03*
X113360200Y-159181800D03*
X135382000Y-158750000D03*
X183464200Y-148666200D03*
X92532200Y-159435800D03*
X141224000Y-160782000D03*
X113360200Y-157911800D03*
D41*
X102108000Y-58928000D03*
D39*
X108712000Y-159512000D03*
X161874200Y-150799800D03*
X113360200Y-160705800D03*
X161874200Y-147497800D03*
D41*
X101346000Y-62484000D03*
D39*
X183464200Y-147243800D03*
X161874200Y-149021800D03*
X92532200Y-158165800D03*
X137922000Y-158750000D03*
X179324000Y-148336000D03*
%TO.N,3V3_DUT*%
X186881000Y-149797000D03*
X241046000Y-131318000D03*
X188468000Y-152908000D03*
D40*
X188722000Y-130302000D03*
D39*
X242062000Y-131318000D03*
%TO.N,2V5_DUT*%
X237695625Y-131318000D03*
X165291000Y-149797000D03*
X162560000Y-152654000D03*
X236474000Y-131318000D03*
D38*
X166370000Y-130556000D03*
D39*
X164338000Y-152654000D03*
X160528000Y-152654000D03*
%TO.N,1V2_DUT*%
X243840000Y-132080000D03*
X242316000Y-132080000D03*
X249873000Y-161735000D03*
X246126000Y-163830000D03*
X249732800Y-159461200D03*
X251460000Y-143002000D03*
X248412000Y-163830000D03*
%TO.N,1V8_DUT*%
X237998000Y-132080000D03*
X233680000Y-163830000D03*
X236919000Y-161989000D03*
X235458000Y-163830000D03*
X239268000Y-132080000D03*
X238252000Y-143256000D03*
%TO.N,1V8_Banks*%
X224205800Y-159435800D03*
D40*
X225806000Y-81026000D03*
D38*
X140716000Y-60960000D03*
D40*
X73882001Y-48768000D03*
D38*
X113792000Y-122936000D03*
X112597000Y-125222000D03*
D39*
X75184000Y-119887978D03*
D38*
X114554000Y-127508000D03*
D39*
X88392000Y-91694000D03*
X221234000Y-163576000D03*
D38*
X133080617Y-57432455D03*
D39*
X219710000Y-163576000D03*
D40*
X245618000Y-83820000D03*
D38*
X85090000Y-108966000D03*
X245872000Y-80772000D03*
D39*
X225298000Y-143256000D03*
D38*
X115645000Y-125222000D03*
D39*
X71374008Y-130047992D03*
X223520000Y-163576000D03*
D40*
X225552000Y-82550000D03*
D39*
X224219000Y-161989000D03*
%TO.N,1V8_ADC*%
X211963000Y-77978000D03*
X210566000Y-82804000D03*
D40*
X256413000Y-84836000D03*
D39*
X248920000Y-114693700D03*
X251397000Y-111836700D03*
D40*
X241039400Y-80321500D03*
D39*
X211582000Y-80103500D03*
D40*
X214630000Y-76454000D03*
X221488000Y-82804000D03*
D39*
X237744000Y-76073000D03*
X251383800Y-109283500D03*
D38*
X230426001Y-82755999D03*
D39*
X234665512Y-76804512D03*
D40*
X241554010Y-83312000D03*
D39*
X217932000Y-75692000D03*
D38*
X231648000Y-77724000D03*
X231140000Y-80518000D03*
D39*
X250698000Y-114693700D03*
X246888000Y-114693700D03*
X220726000Y-77978000D03*
X221394012Y-79662012D03*
D40*
X240538000Y-77724000D03*
D39*
%TO.N,2V5_IO*%
X94234000Y-59690000D03*
X92710000Y-163068000D03*
D38*
X239458500Y-45466000D03*
D39*
X90932000Y-163068000D03*
D38*
X210312000Y-54356000D03*
X103632000Y-124968000D03*
D39*
X87884000Y-152146000D03*
D38*
X232410000Y-43434000D03*
D39*
X95949000Y-160973000D03*
X94488000Y-163068000D03*
D38*
X103886000Y-127508000D03*
X217932000Y-54102000D03*
D39*
X92265000Y-63817000D03*
%TO.N,Net-(U2-REF)*%
X206756000Y-50546000D03*
D38*
X213487000Y-46355000D03*
%TO.N,Net-(U4-REF)*%
X236220000Y-51308000D03*
X242042000Y-50833000D03*
%TO.N,Net-(ADC1-REFT)*%
X235331000Y-76200000D03*
%TO.N,Net-(ADC1-REFB)*%
X235876775Y-76679917D03*
%TO.N,/SOM240_1(1.5)/ethernet1/AVDD33*%
X94742000Y-72136000D03*
%TO.N,/SOM240_1(1.5)/FWUEN_B*%
X125717000Y-49784000D03*
X124206000Y-58928000D03*
%TO.N,/SOM240_1(1.5)/ethernet1/AVDD18*%
X94742000Y-71120000D03*
D40*
X99822000Y-76454000D03*
D39*
X98796067Y-70844961D03*
D38*
X99314000Y-68326000D03*
X97286000Y-68580000D03*
X94742000Y-74676000D03*
X98806000Y-68834000D03*
%TO.N,Net-(U10-CH2)*%
X69850000Y-96774000D03*
X72136000Y-97028000D03*
D40*
X77470000Y-96012000D03*
D38*
%TO.N,Net-(ADC1-VREF)*%
X236362275Y-76184725D03*
D39*
%TO.N,/SOM240_1(1.5)/SDcard1/SD_CARD_VCC*%
X67817986Y-111252000D03*
%TO.N,VDD_BUCK_2V5*%
X247980200Y-111061500D03*
X216916000Y-164338000D03*
X246329200Y-159969200D03*
X229108000Y-161036000D03*
X233502200Y-161036000D03*
X246888000Y-112903000D03*
X247980200Y-112331500D03*
X220802200Y-159689800D03*
X216662000Y-161036000D03*
X215138000Y-163322000D03*
X212852000Y-161544000D03*
X233502200Y-162052000D03*
X233502200Y-159943800D03*
X246380000Y-161036000D03*
X220802200Y-160782000D03*
X242061942Y-160020000D03*
X247980200Y-109791500D03*
D38*
%TO.N,Net-(U10-CH1)*%
X72136000Y-96012000D03*
X69850000Y-96173997D03*
D40*
%TO.N,/SOM240_1(1.5)/ADC1_SDIO{slash}ODM*%
X246380000Y-82296000D03*
D38*
X118516400Y-58318400D03*
D40*
%TO.N,/SOM240_1(1.5)/ADC1_SCLK{slash}DTP*%
X246507000Y-85852000D03*
D38*
X117899429Y-58282228D03*
D42*
%TO.N,/SOM240_1(1.5)/ADC2_SCLK{slash}DTP*%
X139573000Y-75565000D03*
D40*
X223294000Y-82483123D03*
%TO.N,/SOM240_1(1.5)/ADC2_SDIO{slash}ODM*%
X223266000Y-81026000D03*
D42*
X138557000Y-74231500D03*
D38*
%TO.N,Net-(ADC1-RBIAS)*%
X237064898Y-76242775D03*
%TO.N,PS_POR*%
X94488000Y-76200000D03*
X132334000Y-58953400D03*
D39*
X88646000Y-86868000D03*
%TO.N,PS_SRST*%
X104648000Y-49657000D03*
D38*
X131191000Y-59004200D03*
D39*
%TO.N,Net-(Q4-G)*%
X69723009Y-125603009D03*
D38*
%TO.N,/SOM240_1(1.5)/MODE3*%
X122090858Y-56370155D03*
%TO.N,/SOM240_1(1.5)/MODE2*%
X122936000Y-56388000D03*
%TO.N,/SOM240_1(1.5)/MODE1*%
X123825000Y-56261000D03*
%TO.N,/SOM240_1(1.5)/MODE0*%
X124936000Y-56229000D03*
%TO.N,/SOM240_1(1.5)/ethernet1/LED_13*%
X94869000Y-78105000D03*
X86233000Y-69469000D03*
%TO.N,/SOM240_1(1.5)/SHUTDOWN*%
X121595183Y-58963068D03*
X120904000Y-71628000D03*
%TO.N,/SOM240_1(1.5)/USB-UART1/USB_RESET#*%
X91186000Y-95250000D03*
X85598000Y-99822000D03*
%TO.N,/SOM240_1(1.5)/CLR_DAC\u002A*%
X213487000Y-51181000D03*
D39*
X231394000Y-45399000D03*
D38*
X214122000Y-54356000D03*
X119380000Y-51152375D03*
%TO.N,/SOM240_1(1.5)/SCK_DAC1*%
X130581400Y-58420000D03*
X214757000Y-46355000D03*
%TO.N,/SOM240_1(1.5)/CS{slash}LD_DAC1\u002A*%
X131549296Y-58468156D03*
X214122000Y-46355000D03*
%TO.N,Disc_Thresh2*%
X120995261Y-58380912D03*
X215519000Y-43561000D03*
%TO.N,Net-(U2-SDO)*%
X214122000Y-51054000D03*
%TO.N,Disc_Thresh7*%
X211582000Y-54356000D03*
X131572000Y-53430248D03*
%TO.N,Disc_Thresh1*%
X214884000Y-42926000D03*
X120370600Y-58420000D03*
%TO.N,Disc_Thresh6*%
X212217000Y-54356000D03*
X130975500Y-53354996D03*
%TO.N,Disc_Thresh3*%
X121602170Y-58363108D03*
X216408000Y-44450000D03*
%TO.N,Disc_Thresh4*%
X214757000Y-45085000D03*
X129981397Y-58420000D03*
%TO.N,Disc_Thresh5*%
X229616000Y-55626000D03*
X119980003Y-51152375D03*
%TO.N,/SOM240_1(1.5)/SDI_DAC_THRES*%
X118618000Y-51152375D03*
%TO.N,Disc_Thresh8*%
X132334000Y-53340000D03*
X210947000Y-54356000D03*
%TO.N,/SOM240_1(1.5)/CS{slash}LD_DAC2\u002A*%
X117348000Y-51152375D03*
%TO.N,READBIAS2*%
X241046000Y-55372000D03*
X116747997Y-51152375D03*
D39*
%TO.N,Net-(U4-SDO)*%
X234442000Y-45974000D03*
D38*
%TO.N,READBIAS1*%
X116147994Y-51152375D03*
X116026416Y-58301389D03*
X239759500Y-54897000D03*
%TO.N,DISCBIAS*%
X114795139Y-58290455D03*
X114681000Y-51152375D03*
X238778907Y-54389000D03*
%TO.N,/SOM240_1(1.5)/SDI_DAC_BIAS*%
X113670500Y-51152375D03*
%TO.N,/SOM240_1(1.5)/SCK_DAC2*%
X118017997Y-51152375D03*
%TO.N,WBUFBIAS*%
X115394426Y-58319750D03*
X115470751Y-51152375D03*
X238252000Y-54102000D03*
D40*
%TO.N,/SOM240_1(1.5)/ADC_CLK1+*%
X226822000Y-85662187D03*
D38*
X138853730Y-59065038D03*
D40*
%TO.N,/SOM240_1(1.5)/ADC_CLK1-*%
X225044000Y-85552635D03*
D38*
X139573000Y-59055000D03*
%TO.N,/SOM240_1(1.5)/FrameClk1+*%
X136982200Y-58978800D03*
X237571454Y-89228195D03*
%TO.N,/SOM240_1(1.5)/FrameClk1-*%
X137617200Y-58928000D03*
X237006190Y-89027000D03*
%TO.N,/SOM240_1(1.5)/DataClk1-*%
X133676866Y-58863703D03*
X236270070Y-91692310D03*
%TO.N,/SOM240_1(1.5)/DataClk1+*%
X235839000Y-92218190D03*
X133019800Y-58928000D03*
%TO.N,/SOM240_1(1.5)/ADC_CLK2+*%
X134797800Y-58724800D03*
X205510190Y-81001810D03*
%TO.N,/SOM240_1(1.5)/ADC_CLK2-*%
X205969810Y-80542190D03*
X135559800Y-58674000D03*
D39*
%TO.N,SPIclk*%
X188722000Y-60198000D03*
X183642000Y-60198000D03*
D40*
X237236000Y-61214000D03*
D38*
X128905000Y-59055000D03*
%TO.N,Psec5RefClk*%
X131445000Y-63274625D03*
D39*
X184531000Y-59563000D03*
D38*
%TO.N,POCI*%
X129540000Y-65786000D03*
X234275000Y-61976000D03*
%TO.N,PICO*%
X231267000Y-61683376D03*
X130048000Y-65278000D03*
%TO.N,Psec5TriggerOut*%
X130556000Y-64008000D03*
X219338999Y-61204001D03*
%TO.N,P5_ReadClk*%
X127889000Y-58521600D03*
D39*
X183089502Y-61550502D03*
D38*
%TO.N,P5_rst*%
X130828947Y-63473676D03*
D40*
X235665002Y-60452000D03*
D38*
%TO.N,Psec5TriggerIn*%
X131064000Y-64770000D03*
D39*
X186817000Y-62103000D03*
D40*
%TO.N,HPB15_CC_P*%
X195197855Y-118565999D03*
D38*
X135128000Y-121412000D03*
D39*
%TO.N,OscClkOut*%
X114300000Y-130556000D03*
X146304000Y-140208000D03*
D40*
%TO.N,HPB15_CC_N*%
X194564000Y-118020500D03*
D38*
X134112000Y-121412000D03*
D40*
%TO.N,HPC08_P*%
X186690000Y-112103500D03*
D38*
X123444000Y-120396000D03*
%TO.N,HPB12_P*%
X131064000Y-120396000D03*
D40*
X192532000Y-116332000D03*
%TO.N,HPB00_CC_N*%
X131445000Y-130937000D03*
X226695000Y-105153982D03*
%TO.N,HPB12_N*%
X191770000Y-115786500D03*
D38*
X130302000Y-120396000D03*
%TO.N,HPC14_P*%
X119634000Y-120396000D03*
D40*
X181991000Y-109944500D03*
%TO.N,HPC08_N*%
X185674000Y-111526753D03*
D38*
X122682000Y-120396000D03*
%TO.N,HPB16_P*%
X127254000Y-120396000D03*
D40*
X190119000Y-114262500D03*
D38*
%TO.N,HPB16_N*%
X126492000Y-120396000D03*
D40*
X189230000Y-113754500D03*
%TO.N,HPC09_P*%
X124460000Y-130048000D03*
X226695000Y-110232973D03*
%TO.N,HPB01_P*%
X226695000Y-102993973D03*
X133985000Y-129921000D03*
%TO.N,HPC14_N*%
X181102000Y-109436500D03*
D38*
X118872000Y-120396000D03*
%TO.N,ADC_SCLK*%
X110490000Y-120142000D03*
X110744000Y-124968000D03*
D40*
%TO.N,HPB17_P*%
X126365000Y-130048000D03*
X226695000Y-108753997D03*
%TO.N,HPC02_P*%
X118745000Y-130302000D03*
X226695000Y-114552991D03*
%TO.N,HPC19_P*%
X184277000Y-110998000D03*
D38*
X121666000Y-120396000D03*
D40*
%TO.N,HPB00_CC_P*%
X132080000Y-129921000D03*
X226695000Y-104433979D03*
%TO.N,HPC02_N*%
X226695000Y-115272994D03*
X118110000Y-130937000D03*
D38*
%TO.N,HPC19_N*%
X120904000Y-120396000D03*
D40*
X183007000Y-110452500D03*
%TO.N,HPC00_CC_N*%
X120015000Y-130937000D03*
X226695000Y-113832988D03*
%TO.N,HPC04_P*%
X226695000Y-115992997D03*
X116840000Y-129921000D03*
%TO.N,HPB04_N*%
X127635000Y-131064000D03*
X226695000Y-108033994D03*
%TO.N,HPB_CLK0_N*%
X226695000Y-106593988D03*
X129540000Y-130937000D03*
%TO.N,HPB04_P*%
X128270000Y-129921000D03*
X226695000Y-107313991D03*
%TO.N,HPC04_N*%
X116205000Y-130429000D03*
X226695000Y-116713000D03*
%TO.N,HPB17_N*%
X226695000Y-109474000D03*
X125730000Y-130937000D03*
%TO.N,HPC01_N*%
X226695000Y-112392982D03*
X121920000Y-130937000D03*
%TO.N,HPB01_N*%
X226695000Y-103713976D03*
X133350000Y-130937000D03*
%TO.N,HPC15_CC_N*%
X179959000Y-108293500D03*
D38*
X116840000Y-120396000D03*
%TO.N,HPB19_P*%
X125476000Y-120396000D03*
D40*
X188341000Y-113246500D03*
%TO.N,HPC01_P*%
X226695000Y-111672979D03*
X122555000Y-130302000D03*
%TO.N,HPC09_N*%
X226695000Y-110952976D03*
X123825000Y-130937000D03*
D38*
%TO.N,HPB08_N*%
X132588000Y-120142000D03*
D40*
X193167000Y-116929500D03*
D38*
%TO.N,HPB06_P*%
X129032000Y-120396000D03*
D40*
X191139464Y-115278500D03*
%TO.N,HPC15_CC_P*%
X180467000Y-108876500D03*
D38*
X117602000Y-120396000D03*
D40*
%TO.N,HPB06_N*%
X190629232Y-114770500D03*
D38*
X128270000Y-120396000D03*
%TO.N,HPB19_N*%
X124714000Y-120396000D03*
D40*
X187452000Y-112649000D03*
%TO.N,HPB_CLK0_P*%
X226695000Y-105873985D03*
X130175000Y-129921000D03*
D38*
%TO.N,HPB08_P*%
X133096000Y-120650000D03*
D40*
X193821350Y-117475000D03*
%TO.N,HPC00_CC_P*%
X226695000Y-113112985D03*
X120650000Y-130302000D03*
D38*
%TO.N,/SOM240_1(1.5)/SDcard1/DAT2B*%
X72136000Y-113030000D03*
%TO.N,/SOM240_1(1.5)/SDcard1/DAT1B*%
X71882000Y-108712000D03*
%TO.N,/SOM240_1(1.5)/SDcard1/DAT0B*%
X71374000Y-109474000D03*
%TO.N,/SOM240_1(1.5)/SDcard1/DAT3B*%
X71628000Y-112268000D03*
%TO.N,/SOM240_1(1.5)/SDcard1/CMDB*%
X71120000Y-111506000D03*
%TO.N,/SOM240_1(1.5)/SD_DAT0*%
X119656810Y-58973767D03*
%TO.N,/SOM240_1(1.5)/UART_RXD*%
X87109624Y-93980000D03*
X123571000Y-58420000D03*
X123952000Y-72771000D03*
X92964000Y-97282000D03*
%TO.N,Net-(J10A-PS_ERROR_OUT_M2C)*%
X126771400Y-58445400D03*
D40*
%TO.N,/SOM240_1(1.5)/JTAG_CLK*%
X80517990Y-51085999D03*
D38*
%TO.N,/SOM240_1(1.5)/SD_DAT2*%
X125730000Y-66294000D03*
%TO.N,/SOM240_1(1.5)/UART_TXD*%
X122806884Y-58395980D03*
X123190000Y-72771000D03*
%TO.N,/SOM240_1(1.5)/ETH_RXD0*%
X113284000Y-65229480D03*
X114168877Y-59042558D03*
%TO.N,/SOM240_1(1.5)/ETH_RXD2*%
X113792000Y-67564000D03*
X116614825Y-59050953D03*
%TO.N,/SOM240_1(1.5)/SD_DAT1*%
X119050998Y-58978425D03*
D40*
%TO.N,/SOM240_1(1.5)/JTAG_TMS*%
X81280000Y-50292000D03*
D38*
%TO.N,Net-(J10A-PWROFF_C2M_L)*%
X125492630Y-58530370D03*
%TO.N,/SOM240_1(1.5)/ETH_RX_CTRL*%
X112776000Y-64008000D03*
X113538000Y-59004200D03*
%TO.N,/SOM240_1(1.5)/ETH_RXD3*%
X117279500Y-59081325D03*
X114046000Y-68580000D03*
%TO.N,/SOM240_1(1.5)/ETH_RXD1*%
X114046000Y-65622248D03*
X114782600Y-59055000D03*
%TO.N,/SOM240_1(1.5)/SD_DAT3*%
X125222000Y-66802000D03*
%TO.N,/SOM240_1(1.5)/ETH_RX_CLK*%
X115993121Y-59064401D03*
X113792000Y-66548000D03*
D40*
%TO.N,/SOM240_1(1.5)/JTAG_TDO*%
X80264000Y-52085997D03*
D38*
X127005500Y-52583500D03*
%TO.N,Net-(J10A-PS_ERROR_STATUS_M2C)*%
X126136400Y-58496200D03*
%TO.N,/SOM240_1(1.5)/JTAG_TDI*%
X126238000Y-52578000D03*
D40*
X80264000Y-53086000D03*
D38*
%TO.N,/SOM240_1(1.5)/ethernet1/PHY_MDI3_P*%
X87122000Y-75656001D03*
%TO.N,/SOM240_1(1.5)/ethernet1/PHY_MDI2_P*%
X83058000Y-73660000D03*
%TO.N,/SOM240_1(1.5)/ethernet1/PHY_MDI3_N*%
X88928001Y-75155999D03*
%TO.N,/SOM240_1(1.5)/ethernet1/PHY_MDI0_P*%
X75538254Y-77978000D03*
%TO.N,/SOM240_1(1.5)/ethernet1/LED_14*%
X94234000Y-78486000D03*
%TO.N,/SOM240_1(1.5)/ethernet1/PHY_MDI0_N*%
X75946000Y-76708000D03*
%TO.N,/SOM240_1(1.5)/ethernet1/PHY_MDI1_P*%
X80264000Y-75438000D03*
%TO.N,/SOM240_1(1.5)/ethernet1/PHY_MDI1_N*%
X81026000Y-74168000D03*
%TO.N,/SOM240_1(1.5)/ethernet1/LED_12*%
X90424000Y-79248000D03*
%TO.N,/SOM240_1(1.5)/ethernet1/PHY_MDI2_N*%
X84074000Y-73152000D03*
%TO.N,Net-(U1-RXD[2])*%
X103632000Y-72644000D03*
%TO.N,Net-(U1-RX_CLK)*%
X102616000Y-71630999D03*
%TO.N,Net-(U1-RX_CTRL)*%
X102870000Y-68834000D03*
%TO.N,Net-(U1-RSET)*%
X94742000Y-68580000D03*
D40*
%TO.N,/SOM240_1(1.5)/ETH_MDIO*%
X97028000Y-78232000D03*
D42*
X111506000Y-62484000D03*
D38*
%TO.N,Net-(U1-RXD[1])*%
X103378000Y-70612000D03*
%TO.N,Net-(U1-RXD[0])*%
X102616000Y-70612000D03*
D42*
%TO.N,/SOM240_1(1.5)/ETH_MDC*%
X98425000Y-75565000D03*
X112014000Y-63246000D03*
D38*
%TO.N,Net-(U1-RXD[3])*%
X103210510Y-73071024D03*
%TO.N,/SOM240_1(1.5)/SD_CLK*%
X120291765Y-59014801D03*
%TO.N,/SOM240_1(1.5)/SDcard1/CLKB*%
X70612000Y-110236000D03*
%TO.N,/SOM240_1(1.5)/SD_CMD*%
X124460000Y-67564000D03*
%TO.N,/SOM240_1(1.5)/UART_RTS*%
X121539000Y-72771000D03*
X122174000Y-58674000D03*
%TO.N,/SOM240_1(1.5)/UART_CTS*%
X85598000Y-93853000D03*
X122726837Y-59125707D03*
X92964000Y-96278376D03*
X122301000Y-72771000D03*
%TO.N,Net-(J10B-MIO54)*%
X116840000Y-73406000D03*
D42*
%TO.N,Net-(J10B-PWRGD_PL_M2C)*%
X127952500Y-69278500D03*
D38*
%TO.N,Net-(J10B-MIO64)*%
X116078000Y-73152000D03*
D42*
%TO.N,Net-(J10B-PWRGD_FPD_M2C)*%
X129540000Y-68834000D03*
D38*
%TO.N,Net-(ADC2-VREF)*%
X216345494Y-76071923D03*
%TO.N,Net-(ADC2-REFT)*%
X215212330Y-75790948D03*
%TO.N,Net-(J10B-MIO53)*%
X117602000Y-74930000D03*
D42*
%TO.N,Net-(J10B-PWRGD_LPD_M2C)*%
X129603500Y-69913500D03*
D38*
%TO.N,Net-(J10B-MIO66)*%
X113538000Y-76708000D03*
%TO.N,Net-(J10B-MIO65)*%
X115062000Y-75184000D03*
%TO.N,Net-(J10B-MIO52)*%
X118110000Y-76454000D03*
D39*
%TO.N,GND*%
X125730000Y-122174000D03*
D38*
X100838000Y-64770000D03*
D39*
X96520000Y-74168000D03*
D38*
X85852000Y-106680000D03*
X87376000Y-85852000D03*
X88392000Y-107188000D03*
X98823280Y-71598472D03*
X115330089Y-59900683D03*
D39*
X163322000Y-136652000D03*
X141986000Y-55880000D03*
X120020500Y-122306500D03*
D38*
X89916000Y-71131000D03*
X219202000Y-143256000D03*
D39*
X140716000Y-121920000D03*
X111506000Y-150876000D03*
X214630000Y-82550000D03*
D38*
X81788000Y-102616000D03*
X132854951Y-124006148D03*
X134199956Y-57492848D03*
D39*
X239205000Y-60452000D03*
D38*
X86868000Y-42926000D03*
D39*
X246634000Y-162560000D03*
D38*
X66802000Y-82296000D03*
X119651236Y-57437294D03*
D40*
X256413000Y-92329000D03*
D39*
X163576000Y-147066000D03*
D38*
X225806000Y-71374000D03*
X135636000Y-125476000D03*
D39*
X253238000Y-102501700D03*
D38*
X96012000Y-84836000D03*
D39*
X121290500Y-127883500D03*
X185166000Y-152908000D03*
D38*
X91694000Y-62484000D03*
D39*
X216306391Y-80768009D03*
D38*
X215646000Y-126492000D03*
X124202561Y-125469268D03*
X244348000Y-143002000D03*
D39*
X252730000Y-163830000D03*
D38*
X124897382Y-57342862D03*
D39*
X166878000Y-136652000D03*
X106426000Y-61468000D03*
D38*
X139442561Y-123958732D03*
X237490000Y-71120000D03*
D39*
X224085000Y-60452000D03*
X231648000Y-149352000D03*
X188722000Y-132588000D03*
X90678000Y-147574000D03*
X222504000Y-149352000D03*
X240030000Y-163576000D03*
D38*
X136161236Y-59977294D03*
D39*
X183922157Y-151180775D03*
D38*
X66802000Y-83820000D03*
D39*
X132720500Y-127883500D03*
X244348000Y-145288000D03*
D38*
X131822561Y-125469268D03*
D39*
X235966000Y-78994000D03*
X188722000Y-139954000D03*
X114300000Y-161798000D03*
D38*
X236474000Y-126492000D03*
X227584000Y-79756000D03*
X84328000Y-144886000D03*
D39*
X188722000Y-136652000D03*
D38*
X128524000Y-48260000D03*
D39*
X129545491Y-122179491D03*
X107950000Y-121920000D03*
D38*
X117655983Y-124053386D03*
D39*
X249682000Y-98945700D03*
X116210500Y-121920000D03*
X94234000Y-161798000D03*
D38*
X120396000Y-41402000D03*
X140700617Y-59915545D03*
X236474001Y-74295000D03*
D39*
X181610000Y-132588000D03*
X237744000Y-83058000D03*
X104140000Y-61468000D03*
X90678000Y-143510000D03*
X130810000Y-128016000D03*
X98552000Y-163068000D03*
X253238000Y-98945700D03*
D38*
X95250000Y-42672000D03*
D39*
X86288999Y-93035001D03*
X252984000Y-114947700D03*
D38*
X112019484Y-123963211D03*
D40*
X75692000Y-98552000D03*
D38*
X93218000Y-66040000D03*
D39*
X115062000Y-143510000D03*
X86360000Y-97282000D03*
X167894000Y-152146000D03*
D38*
X96266000Y-76200000D03*
D39*
X127640500Y-122306500D03*
X159766000Y-136652000D03*
X172847000Y-148717000D03*
X185166000Y-147066000D03*
D38*
X208026000Y-79502000D03*
X129794000Y-125476000D03*
D39*
X189725300Y-51054000D03*
D38*
X231394000Y-83235374D03*
X230124000Y-126492000D03*
X231902000Y-143002000D03*
X129044951Y-124006148D03*
D39*
X127000000Y-128016000D03*
X222504000Y-145288000D03*
D38*
X239776000Y-76200000D03*
D39*
X237744000Y-82042000D03*
D38*
X240792000Y-81026000D03*
D39*
X111506000Y-143510000D03*
X89916000Y-98552000D03*
X248031000Y-159639000D03*
X212845000Y-60452000D03*
X232855000Y-60452000D03*
D38*
X118381236Y-59910706D03*
D39*
X128910500Y-127883500D03*
D38*
X88138000Y-89014300D03*
D39*
X251460000Y-145288000D03*
X220980000Y-162306000D03*
X163068000Y-151130000D03*
D38*
X105029000Y-58801000D03*
D39*
X214630000Y-81280000D03*
D38*
X220599000Y-83002001D03*
D39*
X234188000Y-82804000D03*
D38*
X99822000Y-127508000D03*
X114554000Y-123952000D03*
X124968000Y-150114000D03*
D39*
X218948000Y-145288000D03*
D38*
X66802000Y-80772000D03*
X213868000Y-68834000D03*
D39*
X246380000Y-98945700D03*
X128270000Y-54356000D03*
X255016000Y-163322000D03*
D38*
X94742000Y-65024000D03*
X108839000Y-58547000D03*
X105664000Y-125476000D03*
X122174000Y-125476000D03*
X111125000Y-58420000D03*
X211582000Y-83002001D03*
D39*
X94234000Y-143510000D03*
D38*
X90170000Y-77470000D03*
D39*
X119888000Y-163068000D03*
D38*
X112879258Y-126307847D03*
X106299000Y-58547000D03*
X242062000Y-126492000D03*
D39*
X111506000Y-61468000D03*
X124460000Y-161798000D03*
D38*
X66548000Y-97282000D03*
D39*
X244348000Y-149352000D03*
X235712000Y-82804000D03*
X166878000Y-139954000D03*
X238760000Y-149352000D03*
X138176000Y-121920000D03*
D38*
X127273997Y-59975855D03*
X137942334Y-57484330D03*
X208534000Y-77724000D03*
D39*
X118618000Y-147574000D03*
D38*
X228600000Y-71501000D03*
X235712000Y-126492000D03*
X226314000Y-126492000D03*
X65786000Y-123444000D03*
D39*
X216154000Y-78740000D03*
X238760000Y-145288000D03*
D38*
X120523000Y-40386000D03*
X108444622Y-125424709D03*
X77470000Y-72390000D03*
X125984000Y-125476000D03*
X110109919Y-125462581D03*
D39*
X94234000Y-157734000D03*
D38*
X113992502Y-126464002D03*
X72390000Y-98552000D03*
X134879484Y-123963211D03*
D39*
X235204000Y-159766000D03*
X108966000Y-61976000D03*
D38*
X122191236Y-57437294D03*
D39*
X111760000Y-128016000D03*
X243840000Y-43942000D03*
D38*
X76200000Y-118618000D03*
D39*
X226060000Y-145288000D03*
X97790000Y-143510000D03*
D38*
X134132334Y-60024330D03*
D39*
X133350000Y-121920000D03*
D38*
X225806000Y-126492000D03*
D39*
X235204000Y-145288000D03*
X181610000Y-139954000D03*
X105415500Y-55123500D03*
X233104592Y-162969556D03*
X218948000Y-149352000D03*
D38*
X132351236Y-57437294D03*
X89916000Y-69680999D03*
D39*
X110490000Y-121920000D03*
X207955000Y-60452000D03*
D38*
X236847774Y-76802114D03*
X122018375Y-60960000D03*
X125234951Y-124006148D03*
D39*
X248539000Y-113538000D03*
X195906300Y-48641000D03*
X118618000Y-143510000D03*
D38*
X68834000Y-46990000D03*
D39*
X123830500Y-122306500D03*
D38*
X235204000Y-69850000D03*
X82804000Y-40640000D03*
X219710000Y-75692000D03*
X221996000Y-126492000D03*
D39*
X231648000Y-152654000D03*
D38*
X245618000Y-126492000D03*
D39*
X159766000Y-132588000D03*
X194564000Y-151130000D03*
D38*
X103124000Y-49022000D03*
D39*
X234442000Y-81534000D03*
D38*
X90358001Y-82550000D03*
D39*
X217932000Y-82804000D03*
X96520000Y-72644000D03*
X87122000Y-96266000D03*
D38*
X221234000Y-80772000D03*
X91948000Y-92202000D03*
D39*
X217932000Y-81534000D03*
D38*
X136902561Y-123958732D03*
X242062000Y-74422000D03*
X106426000Y-64770000D03*
D39*
X252476000Y-49657000D03*
X226060000Y-149352000D03*
D41*
X154559000Y-107188000D03*
D39*
X181610000Y-136652000D03*
D38*
X130570089Y-59900683D03*
D39*
X115062000Y-147574000D03*
D38*
X82550000Y-105918000D03*
X107680617Y-58801000D03*
X99060000Y-40386000D03*
D39*
X163322000Y-139954000D03*
D38*
X224282000Y-78232000D03*
X104140000Y-58420000D03*
D39*
X255778000Y-113919000D03*
X216154000Y-82804000D03*
D38*
X144780000Y-60706000D03*
X99314000Y-64770000D03*
D39*
X249682000Y-109613700D03*
D38*
X216408000Y-126492000D03*
D39*
X106680000Y-46495000D03*
D38*
X232410000Y-74422000D03*
X99822000Y-125222000D03*
D39*
X209804000Y-45847000D03*
X242824000Y-51562000D03*
X244095000Y-60452000D03*
X117480500Y-127883500D03*
D38*
X227076000Y-82042000D03*
X118364000Y-125476000D03*
X131069484Y-123963211D03*
D39*
X115062000Y-157988000D03*
X219195000Y-60452000D03*
D38*
X217678000Y-68580000D03*
D39*
X129545500Y-61087000D03*
D38*
X66802000Y-85344000D03*
X120392561Y-125469268D03*
D39*
X125100500Y-127883500D03*
X249682000Y-95643700D03*
D38*
X67310000Y-123698000D03*
X89916000Y-71628000D03*
X112776000Y-41402000D03*
D39*
X251460000Y-152654000D03*
X124460000Y-61468000D03*
X231648000Y-145288000D03*
X107696000Y-54864000D03*
D40*
X241300000Y-86614000D03*
D39*
X76454000Y-83566000D03*
X118110000Y-54356000D03*
D38*
X133604000Y-125476000D03*
D39*
X235204000Y-149352000D03*
X257047000Y-49784000D03*
D38*
X129284718Y-57439829D03*
X159512000Y-130302000D03*
D39*
X222504000Y-152654000D03*
D38*
X138176000Y-125476000D03*
X101600000Y-41656000D03*
X110236000Y-58801000D03*
D39*
X94234000Y-150876000D03*
X111506000Y-147574000D03*
D38*
X245618000Y-71628000D03*
D39*
X251460000Y-149352000D03*
X230124000Y-163068000D03*
D38*
X93980000Y-66294000D03*
X209550000Y-126492000D03*
X121424951Y-124006148D03*
D39*
X115062000Y-150876000D03*
D38*
X103378000Y-64770000D03*
X243586000Y-78232000D03*
D39*
X226060000Y-152654000D03*
X247904000Y-145288000D03*
X103378000Y-161798000D03*
X97790000Y-150876000D03*
X218948000Y-152654000D03*
X97790000Y-147574000D03*
X235915200Y-81229200D03*
D38*
X115829484Y-123963211D03*
X68834000Y-62738000D03*
D39*
X110236000Y-54864000D03*
X85852000Y-96266000D03*
X94234000Y-147574000D03*
D40*
X68072000Y-108966000D03*
D39*
X185166000Y-139954000D03*
D38*
X206502000Y-54610000D03*
X210058000Y-126492000D03*
D39*
X131450500Y-122052500D03*
X246380000Y-95897700D03*
D38*
X112014000Y-58801000D03*
D39*
X130180500Y-54488500D03*
X90678000Y-150876000D03*
D38*
X136161237Y-57437294D03*
D40*
X75438000Y-51562000D03*
D39*
X118618000Y-150876000D03*
X227076000Y-163830000D03*
D38*
X140716000Y-125476000D03*
D39*
X159766000Y-139954000D03*
D38*
X97790000Y-64770000D03*
D39*
X253238000Y-95643700D03*
X78981000Y-127267000D03*
X222504000Y-159512000D03*
X105410000Y-121920000D03*
X112776000Y-54864000D03*
D38*
X132517382Y-59882862D03*
X113301236Y-57370706D03*
X224790000Y-84836000D03*
D39*
X205473300Y-49276000D03*
D38*
X101346000Y-46736000D03*
D39*
X121920000Y-122174000D03*
D38*
X240538000Y-83256001D03*
D39*
X123190000Y-128016000D03*
X134620000Y-128016000D03*
D38*
X209296000Y-71120000D03*
D39*
X106680000Y-128016000D03*
D38*
X242570000Y-126492000D03*
D39*
X136906000Y-128016000D03*
X244348000Y-152654000D03*
X227965000Y-60452000D03*
X166878000Y-132588000D03*
D38*
X127271236Y-57437294D03*
D39*
X185166000Y-132588000D03*
D38*
X116691700Y-57481164D03*
D39*
X247904000Y-152654000D03*
D38*
X106939484Y-123963211D03*
D39*
X246380000Y-101993700D03*
X249682000Y-102247700D03*
X135636000Y-121920000D03*
D38*
X137999625Y-60044394D03*
D39*
X97536000Y-73406000D03*
D38*
X212344000Y-74168000D03*
D39*
X238760000Y-152654000D03*
D38*
X79756000Y-88900000D03*
D39*
X252349000Y-52197000D03*
D38*
X124731236Y-59977294D03*
D39*
X235204000Y-152654000D03*
X242570000Y-163068000D03*
D38*
X206756000Y-83566000D03*
X96266000Y-60960000D03*
X221996000Y-74422000D03*
X127259484Y-123963211D03*
X128012561Y-125469268D03*
D40*
X75692000Y-94742000D03*
D39*
X109220000Y-128016000D03*
D38*
X110590000Y-43080000D03*
X115829484Y-126503211D03*
X82550000Y-110490000D03*
D39*
X185166000Y-136652000D03*
D38*
X206248000Y-126492000D03*
X109479484Y-123963211D03*
D40*
X181356000Y-130302000D03*
D38*
X68072000Y-130556000D03*
D39*
X163322000Y-132588000D03*
D38*
X229616000Y-126492000D03*
X222504000Y-126492000D03*
D39*
X247904000Y-149352000D03*
D38*
X104902000Y-64770000D03*
X227838000Y-76962000D03*
X123444000Y-53086000D03*
X79121000Y-51562000D03*
X119639484Y-123963211D03*
X123449484Y-123963211D03*
D39*
X196202300Y-51181000D03*
X118110000Y-121920000D03*
D38*
X216902994Y-75850120D03*
D39*
X139446000Y-128016000D03*
D40*
X73215000Y-126555000D03*
D39*
X241300000Y-47244000D03*
D38*
X239522000Y-51308000D03*
D39*
X119380000Y-128016000D03*
D38*
X71628000Y-66294000D03*
X209042000Y-52578000D03*
%TO.N,Net-(ADC2-REFB)*%
X215741905Y-76073000D03*
%TO.N,Net-(ADC2-RBIAS)*%
X217454400Y-76282022D03*
%TO.N,/SOM240_1(1.5)/FrameClk2-*%
X155995310Y-57237690D03*
X136777541Y-58401167D03*
%TO.N,/SOM240_1(1.5)/DataClk2-*%
X154210099Y-57879901D03*
X140551565Y-58276894D03*
%TO.N,/SOM240_1(1.5)/FrameClk2+*%
X137377101Y-58378134D03*
X155980190Y-58141810D03*
%TO.N,/SOM240_1(1.5)/DataClk2+*%
X141274800Y-58267600D03*
X154329190Y-58776810D03*
%TO.N,Net-(U6-EN)*%
X79502000Y-107950000D03*
X82419000Y-107819000D03*
%TD*%
D43*
%TO.N,/SOM240_1(1.5)/ethernet1/DVDD*%
X99786001Y-69507100D02*
X99786001Y-68843937D01*
X101180900Y-69507100D02*
X101600000Y-69088000D01*
X99786001Y-75346999D02*
X98286001Y-76846999D01*
X100786001Y-69507100D02*
X101180900Y-69507100D01*
X99786001Y-69507100D02*
X99786001Y-75346999D01*
X100786001Y-69507100D02*
X100749125Y-69543976D01*
X98286001Y-76846999D02*
X98286001Y-77304900D01*
X99786001Y-68843937D02*
X99806625Y-68823313D01*
D44*
%TO.N,3V3_IO*%
X81534000Y-104889000D02*
X80759000Y-104889000D01*
D43*
X97786000Y-70362000D02*
X97282000Y-70866000D01*
D44*
X252476000Y-48387000D02*
X250558300Y-48387000D01*
X192532300Y-51054000D02*
X192773300Y-51054000D01*
X252476000Y-48387000D02*
X253873000Y-49784000D01*
X192532300Y-51054000D02*
X193675300Y-49911000D01*
X254241000Y-49784000D02*
X253492000Y-49784000D01*
D43*
X95786001Y-78006001D02*
X95786001Y-77304900D01*
X97786000Y-69507100D02*
X97786000Y-70362000D01*
D44*
X101434900Y-74656000D02*
X102596000Y-74656000D01*
X79440500Y-123698000D02*
X81026000Y-125283500D01*
D43*
X96012000Y-78232000D02*
X95786001Y-78006001D01*
D44*
X194043300Y-49911000D02*
X198247000Y-49911000D01*
D43*
X78473000Y-85865000D02*
X78486000Y-85852000D01*
D44*
X192773300Y-51054000D02*
X194170300Y-52451000D01*
D43*
X101434900Y-73156000D02*
X100588000Y-73156000D01*
X77216000Y-85865000D02*
X75692000Y-85865000D01*
D44*
X198120000Y-50038000D02*
X198247000Y-49911000D01*
D43*
X75692000Y-85865000D02*
X74218000Y-85865000D01*
D44*
X252349000Y-50927000D02*
X250558300Y-50927000D01*
X253492000Y-49784000D02*
X252349000Y-50927000D01*
X81026000Y-125283500D02*
X81026000Y-125476000D01*
D43*
X123190000Y-154432000D02*
X124968000Y-156210000D01*
X100588000Y-73156000D02*
X100584000Y-73152000D01*
X74218000Y-85865000D02*
X74168000Y-85915000D01*
D44*
X103298000Y-74656000D02*
X102596000Y-74656000D01*
D43*
X96012000Y-78232000D02*
X96286000Y-77958000D01*
D44*
X253873000Y-49784000D02*
X254241000Y-49784000D01*
X193675300Y-49911000D02*
X194043300Y-49911000D01*
X103505000Y-74863000D02*
X103298000Y-74656000D01*
D43*
X96286000Y-77958000D02*
X96286000Y-77304900D01*
D44*
X194170300Y-52451000D02*
X198247000Y-52451000D01*
D43*
X77216000Y-85865000D02*
X78473000Y-85865000D01*
D44*
X80759000Y-104889000D02*
X80264000Y-104394000D01*
D43*
%TO.N,3V3_DUT*%
X186436000Y-129032000D02*
X187452000Y-129032000D01*
X187452000Y-129032000D02*
X188722000Y-130302000D01*
%TO.N,2V5_DUT*%
X164338000Y-129540000D02*
X165354000Y-129540000D01*
X165354000Y-129540000D02*
X166370000Y-130556000D01*
D45*
%TO.N,1V2_DUT*%
X250444000Y-141986000D02*
X251460000Y-143002000D01*
X249428000Y-141986000D02*
X250444000Y-141986000D01*
D43*
%TO.N,1V8_DUT*%
X236982000Y-141986000D02*
X238252000Y-143256000D01*
X236474000Y-141986000D02*
X236982000Y-141986000D01*
%TO.N,1V8_Banks*%
X113792000Y-122187000D02*
X113525000Y-121920000D01*
D44*
X85090000Y-108966000D02*
X85586999Y-108469001D01*
D43*
X115645000Y-125222000D02*
X116345000Y-125222000D01*
X112597000Y-125222000D02*
X113297000Y-125222000D01*
X224536000Y-143256000D02*
X225298000Y-143256000D01*
D44*
X85586999Y-108469001D02*
X86669999Y-108469001D01*
D43*
X133080617Y-56924383D02*
X133617000Y-56388000D01*
X140716000Y-60960000D02*
X141973000Y-60960000D01*
X114554000Y-128003000D02*
X114821000Y-128270000D01*
X223520000Y-142240000D02*
X224536000Y-143256000D01*
X114554000Y-127508000D02*
X114554000Y-128003000D01*
X133080617Y-57432455D02*
X133080617Y-56924383D01*
X113792000Y-122936000D02*
X113792000Y-122187000D01*
D46*
%TO.N,1V8_ADC*%
X234696000Y-78727000D02*
X234696000Y-76835000D01*
X221475000Y-77978000D02*
X221729000Y-78232000D01*
X211963000Y-77978000D02*
X211087000Y-77978000D01*
X241039400Y-80321500D02*
X241033000Y-80315100D01*
X220726000Y-77978000D02*
X221475000Y-77978000D01*
X240538000Y-77724000D02*
X241033000Y-78219000D01*
X230137000Y-80518000D02*
X231140000Y-80518000D01*
X231648000Y-77724000D02*
X230391000Y-77724000D01*
X241033000Y-80315100D02*
X241033000Y-79248000D01*
X230426001Y-82755999D02*
X230378000Y-82804000D01*
X234696000Y-76835000D02*
X234665512Y-76804512D01*
X221729000Y-79327024D02*
X221729000Y-78232000D01*
X221394012Y-79662012D02*
X221729000Y-79327024D01*
X230378000Y-82804000D02*
X229375000Y-82804000D01*
X241033000Y-78219000D02*
X241033000Y-79248000D01*
X214630000Y-76454000D02*
X214630000Y-78219000D01*
D43*
%TO.N,2V5_IO*%
X94200000Y-62167000D02*
X94200000Y-59724000D01*
X92202000Y-63754000D02*
X92265000Y-63817000D01*
X240525000Y-45466000D02*
X239458500Y-45466000D01*
X86106000Y-150114000D02*
X87884000Y-151892000D01*
X103378000Y-125222000D02*
X103632000Y-124968000D01*
X94234000Y-59690000D02*
X94221000Y-59677000D01*
D44*
X210312000Y-54356000D02*
X210312000Y-52755800D01*
D43*
X103886000Y-127508000D02*
X102375000Y-127508000D01*
X94200000Y-59724000D02*
X94234000Y-59690000D01*
X94221000Y-59677000D02*
X91694000Y-59677000D01*
X102629000Y-125222000D02*
X103378000Y-125222000D01*
D44*
X239458500Y-45466000D02*
X239458500Y-47828200D01*
D43*
X87884000Y-151892000D02*
X87884000Y-152146000D01*
X94200000Y-63817000D02*
X92265000Y-63817000D01*
%TO.N,Net-(U2-REF)*%
X206489000Y-51816000D02*
X206489000Y-53340000D01*
X206489000Y-50813000D02*
X206756000Y-50546000D01*
X205600000Y-52451000D02*
X206489000Y-53340000D01*
X205854000Y-51181000D02*
X206489000Y-51816000D01*
X213487000Y-47828200D02*
X213487000Y-46355000D01*
X206489000Y-51816000D02*
X206489000Y-50813000D01*
X203555600Y-52451000D02*
X205600000Y-52451000D01*
X203555600Y-51181000D02*
X205854000Y-51181000D01*
D44*
%TO.N,Net-(U4-REF)*%
X245249700Y-48387000D02*
X242964000Y-48387000D01*
D43*
X236283500Y-51371500D02*
X236220000Y-51308000D01*
X243980000Y-49657000D02*
X242837000Y-48514000D01*
D44*
X242837000Y-50038000D02*
X242042000Y-50833000D01*
X242837000Y-50038000D02*
X242837000Y-48514000D01*
X242964000Y-48387000D02*
X242837000Y-48514000D01*
D43*
X236283500Y-52755800D02*
X236283500Y-51371500D01*
X245249700Y-49657000D02*
X243980000Y-49657000D01*
D46*
%TO.N,Net-(ADC1-REFT)*%
X234175000Y-73533000D02*
X234175000Y-72035000D01*
X234175000Y-72035000D02*
X234188000Y-72022000D01*
X235331000Y-76200000D02*
X235318000Y-76200000D01*
X235318000Y-76200000D02*
X234175000Y-75057000D01*
X234175000Y-75057000D02*
X234175000Y-73533000D01*
%TO.N,Net-(ADC1-REFB)*%
X235876775Y-75208775D02*
X235725000Y-75057000D01*
X235876775Y-76679917D02*
X235876775Y-75208775D01*
X235712000Y-73520000D02*
X235725000Y-73533000D01*
X235725000Y-73533000D02*
X235725000Y-75057000D01*
X235712000Y-72035000D02*
X235712000Y-73520000D01*
D43*
%TO.N,/SOM240_1(1.5)/ethernet1/AVDD33*%
X94742000Y-72136000D02*
X94742000Y-73643250D01*
X94229249Y-74156001D02*
X93637100Y-74156001D01*
X94262001Y-71656001D02*
X94742000Y-72136000D01*
X94742000Y-73643250D02*
X94229249Y-74156001D01*
X93637100Y-71656001D02*
X94262001Y-71656001D01*
%TO.N,/SOM240_1(1.5)/ethernet1/AVDD18*%
X99822000Y-76454000D02*
X99822000Y-77268901D01*
X99285999Y-70668383D02*
X98952744Y-71001638D01*
X97286000Y-70099249D02*
X96265249Y-71120000D01*
X94706001Y-71155999D02*
X94742000Y-71120000D01*
X99285999Y-69507100D02*
X99285999Y-68354001D01*
X93637100Y-71155999D02*
X94706001Y-71155999D01*
X99285999Y-69507100D02*
X99285999Y-70668383D01*
X96265249Y-71120000D02*
X94742000Y-71120000D01*
X97286000Y-68580000D02*
X97286000Y-69507100D01*
X98786000Y-68854000D02*
X98806000Y-68834000D01*
X98786000Y-69507100D02*
X98786000Y-68854000D01*
X97286000Y-69507100D02*
X97286000Y-70099249D01*
X99822000Y-77268901D02*
X99786001Y-77304900D01*
X94742000Y-74676000D02*
X93657100Y-74676000D01*
X99285999Y-68354001D02*
X99314000Y-68326000D01*
D47*
%TO.N,/SOM240_1(1.5)/ethernet1/PHY_VCC*%
X69088000Y-79248000D02*
X69088000Y-79997000D01*
X69088000Y-79997000D02*
X69863000Y-80772000D01*
X69863000Y-82296000D02*
X69863000Y-83820000D01*
X69863000Y-85344000D02*
X73089000Y-85344000D01*
X73089000Y-85344000D02*
X74168000Y-84265000D01*
X69863000Y-80772000D02*
X69863000Y-82296000D01*
X69863000Y-83820000D02*
X69863000Y-85344000D01*
D43*
%TO.N,Net-(U10-CH2)*%
X77470000Y-96012000D02*
X76962000Y-96520000D01*
X69841999Y-96782001D02*
X69850000Y-96774000D01*
X73660000Y-96520000D02*
X72898000Y-97282000D01*
X76962000Y-96520000D02*
X73660000Y-96520000D01*
X68567300Y-96782001D02*
X69841999Y-96782001D01*
X72644000Y-97028000D02*
X72898000Y-97282000D01*
X72136000Y-97028000D02*
X72644000Y-97028000D01*
D46*
%TO.N,Net-(ADC1-VREF)*%
X237223000Y-75057000D02*
X237223000Y-73533000D01*
X236362275Y-76184725D02*
X236362275Y-75917725D01*
X237223000Y-72047601D02*
X237203699Y-72028300D01*
X236362275Y-75917725D02*
X237223000Y-75057000D01*
X237223000Y-73533000D02*
X237223000Y-72047601D01*
%TO.N,/SOM240_1(1.5)/SDcard1/SD_CARD_VCC*%
X70753986Y-123429014D02*
X70358000Y-123825000D01*
X69342000Y-123825000D02*
X69088000Y-123571000D01*
D43*
X68072000Y-111506014D02*
X67817986Y-111252000D01*
D46*
X70104000Y-120269000D02*
X70358000Y-120015000D01*
X70104000Y-122986800D02*
X70104000Y-123571000D01*
D43*
X68072000Y-121158000D02*
X66561000Y-121158000D01*
D46*
X70104000Y-120904000D02*
X70104000Y-120269000D01*
X70753986Y-120904000D02*
X70753986Y-120410986D01*
X70358000Y-123825000D02*
X69342000Y-123825000D01*
X69469000Y-120015000D02*
X70358000Y-120015000D01*
X69088000Y-123571000D02*
X69088000Y-120396000D01*
X70104000Y-123571000D02*
X70358000Y-123825000D01*
D43*
X68326000Y-121158000D02*
X69088000Y-120396000D01*
D46*
X69088000Y-120396000D02*
X69469000Y-120015000D01*
D43*
X68072000Y-121158000D02*
X68326000Y-121158000D01*
D46*
X70753986Y-120410986D02*
X70358000Y-120015000D01*
D43*
X66561000Y-121158000D02*
X66548000Y-121145000D01*
D46*
X70753986Y-122986800D02*
X70753986Y-123429014D01*
D43*
X68072000Y-121158000D02*
X68072000Y-111506014D01*
%TO.N,Net-(U10-CH1)*%
X68567300Y-96281999D02*
X69741998Y-96281999D01*
X69741998Y-96281999D02*
X69850000Y-96173997D01*
X72136000Y-96012000D02*
X72644000Y-96012000D01*
X72644000Y-96012000D02*
X72898000Y-95758000D01*
%TO.N,Net-(U1-REGCAP1)*%
X98286001Y-67308999D02*
X98539000Y-67056000D01*
X98286001Y-69507100D02*
X98286001Y-67308999D01*
%TO.N,Net-(U1-REGCAP2)*%
X100089000Y-67056000D02*
X100286000Y-67253000D01*
X100286000Y-67253000D02*
X100286000Y-69507100D01*
D46*
%TO.N,Net-(ADC1-RBIAS)*%
X237363000Y-78804000D02*
X237490000Y-78931000D01*
X237064898Y-76242775D02*
X237490000Y-76667877D01*
X237490000Y-76667877D02*
X237490000Y-78931000D01*
D43*
%TO.N,PS_POR*%
X93637100Y-76156000D02*
X94444000Y-76156000D01*
X94444000Y-76156000D02*
X94488000Y-76200000D01*
%TO.N,PS_SRST*%
X131069921Y-54488921D02*
X131069921Y-58883121D01*
X104648000Y-49657000D02*
X106718247Y-51727247D01*
X106718247Y-51727247D02*
X128308247Y-51727247D01*
X131069921Y-58883121D02*
X131191000Y-59004200D01*
X128308247Y-51727247D02*
X131069921Y-54488921D01*
D44*
%TO.N,Net-(Q4-G)*%
X69022001Y-126304017D02*
X69723009Y-125603009D01*
X69022001Y-126746000D02*
X69022001Y-126304017D01*
D43*
%TO.N,/SOM240_1(1.5)/MODE3*%
X121158000Y-55437297D02*
X122090858Y-56370155D01*
X121158000Y-55435000D02*
X121158000Y-55437297D01*
%TO.N,/SOM240_1(1.5)/MODE2*%
X122682000Y-56134000D02*
X122936000Y-56388000D01*
X122682000Y-55435000D02*
X122682000Y-56134000D01*
%TO.N,/SOM240_1(1.5)/MODE1*%
X124206000Y-55880000D02*
X124206000Y-55435000D01*
X123825000Y-56261000D02*
X124206000Y-55880000D01*
%TO.N,/SOM240_1(1.5)/MODE0*%
X124936000Y-56229000D02*
X125730000Y-55435000D01*
D44*
%TO.N,/SOM240_1(1.5)/ethernet1/LED_13*%
X86233000Y-69469000D02*
X86207000Y-69443000D01*
X94786000Y-77304900D02*
X94786000Y-78022000D01*
X86207000Y-69443000D02*
X82058000Y-69443000D01*
X94786000Y-78022000D02*
X94869000Y-78105000D01*
D43*
%TO.N,/SOM240_1(1.5)/SHUTDOWN*%
X120904000Y-71628000D02*
X120904000Y-59654251D01*
X120904000Y-59654251D02*
X121595183Y-58963068D01*
%TO.N,/SOM240_1(1.5)/USB-UART1/USB_RESET#*%
X91186000Y-98552000D02*
X89916000Y-99822000D01*
X91186000Y-95250000D02*
X91186000Y-98552000D01*
X89916000Y-99822000D02*
X85598000Y-99822000D01*
D44*
%TO.N,/SOM240_1(1.5)/CLR_DAC\u002A*%
X213487000Y-51181000D02*
X213487000Y-52755800D01*
X213487000Y-52755800D02*
X213487000Y-53721000D01*
X209912488Y-49657000D02*
X211963000Y-49657000D01*
X234937700Y-45399000D02*
X236283500Y-46744800D01*
X119380000Y-51152375D02*
X119380000Y-50051025D01*
X213487000Y-53721000D02*
X214122000Y-54356000D01*
X236283500Y-46744800D02*
X236283500Y-47828200D01*
X211963000Y-49657000D02*
X213487000Y-51181000D01*
X124950025Y-44481000D02*
X204736488Y-44481000D01*
X231394000Y-45399000D02*
X234937700Y-45399000D01*
X119380000Y-50051025D02*
X124950025Y-44481000D01*
X204736488Y-44481000D02*
X209912488Y-49657000D01*
D43*
%TO.N,/SOM240_1(1.5)/SCK_DAC1*%
X214757000Y-47828200D02*
X214757000Y-46355000D01*
%TO.N,/SOM240_1(1.5)/CS{slash}LD_DAC1\u002A*%
X214122000Y-47828200D02*
X214122000Y-46355000D01*
D44*
%TO.N,Disc_Thresh2*%
X211582000Y-45593000D02*
X211582000Y-47828200D01*
X213614000Y-43561000D02*
X211582000Y-45593000D01*
X215519000Y-43561000D02*
X213614000Y-43561000D01*
D43*
%TO.N,Net-(U2-SDO)*%
X214122000Y-52755800D02*
X214122000Y-51054000D01*
D44*
%TO.N,Disc_Thresh7*%
X203747076Y-45593000D02*
X209081076Y-50927000D01*
X209081076Y-50927000D02*
X210893800Y-50927000D01*
X211582000Y-54356000D02*
X211582000Y-52755800D01*
X211582000Y-51615200D02*
X211582000Y-52755800D01*
X131572000Y-53430248D02*
X139409248Y-45593000D01*
X210893800Y-50927000D02*
X211582000Y-51615200D01*
X139409248Y-45593000D02*
X203747076Y-45593000D01*
%TO.N,Disc_Thresh1*%
X213487000Y-42926000D02*
X210947000Y-45466000D01*
X214884000Y-42926000D02*
X213487000Y-42926000D01*
X210947000Y-45466000D02*
X210947000Y-47828200D01*
%TO.N,Disc_Thresh6*%
X212217000Y-51615200D02*
X212217000Y-52755800D01*
X130975500Y-53354996D02*
X139118496Y-45212000D01*
X209195050Y-50546000D02*
X211147800Y-50546000D01*
X212217000Y-54356000D02*
X212217000Y-52755800D01*
X211147800Y-50546000D02*
X212217000Y-51615200D01*
X203861050Y-45212000D02*
X209195050Y-50546000D01*
X139118496Y-45212000D02*
X203861050Y-45212000D01*
%TO.N,Disc_Thresh3*%
X212217000Y-45593000D02*
X212217000Y-47828200D01*
X213360000Y-44450000D02*
X212217000Y-45593000D01*
X216408000Y-44450000D02*
X213360000Y-44450000D01*
%TO.N,Disc_Thresh4*%
X212852000Y-45974000D02*
X212852000Y-47828200D01*
X213741000Y-45085000D02*
X212852000Y-45974000D01*
X214757000Y-45085000D02*
X213741000Y-45085000D01*
%TO.N,Disc_Thresh5*%
X119980003Y-49945997D02*
X125095000Y-44831000D01*
X229616000Y-55626000D02*
X229362000Y-55372000D01*
X229362000Y-55372000D02*
X214327600Y-55372000D01*
X209309025Y-50165000D02*
X211401800Y-50165000D01*
X212852000Y-53896400D02*
X212852000Y-52755800D01*
X214327600Y-55372000D02*
X212852000Y-53896400D01*
X212852000Y-51615200D02*
X212852000Y-52755800D01*
X119980003Y-51152375D02*
X119980003Y-49945997D01*
X125095000Y-44831000D02*
X203975025Y-44831000D01*
X203975025Y-44831000D02*
X209309025Y-50165000D01*
X211401800Y-50165000D02*
X212852000Y-51615200D01*
D43*
%TO.N,/SOM240_1(1.5)/SDI_DAC_THRES*%
X214757000Y-50546000D02*
X214757000Y-52755800D01*
X118618000Y-50298838D02*
X124821213Y-44095625D01*
X209854825Y-49098175D02*
X213309175Y-49098175D01*
X118618000Y-51152375D02*
X118618000Y-50298838D01*
X204852275Y-44095625D02*
X209854825Y-49098175D01*
X124821213Y-44095625D02*
X204852275Y-44095625D01*
X213309175Y-49098175D02*
X214757000Y-50546000D01*
D44*
%TO.N,Disc_Thresh8*%
X139731000Y-45943000D02*
X143225000Y-45943000D01*
X143256000Y-45974000D02*
X203454000Y-45974000D01*
X208788000Y-51308000D02*
X210639800Y-51308000D01*
X143225000Y-45943000D02*
X143256000Y-45974000D01*
X210947000Y-54356000D02*
X210947000Y-52755800D01*
X203454000Y-45974000D02*
X208788000Y-51308000D01*
X132334000Y-53340000D02*
X139731000Y-45943000D01*
X210639800Y-51308000D02*
X210947000Y-51615200D01*
X210947000Y-51615200D02*
X210947000Y-52755800D01*
D43*
%TO.N,/SOM240_1(1.5)/CS{slash}LD_DAC2\u002A*%
X117348000Y-50566514D02*
X125870139Y-42044375D01*
X235196425Y-51154375D02*
X235648500Y-51606450D01*
X223915213Y-42044375D02*
X233025213Y-51154375D01*
X117348000Y-51152375D02*
X117348000Y-50566514D01*
X233025213Y-51154375D02*
X235196425Y-51154375D01*
X235648500Y-51606450D02*
X235648500Y-52755800D01*
X125870139Y-42044375D02*
X223915213Y-42044375D01*
D44*
%TO.N,READBIAS2*%
X241046000Y-55372000D02*
X237744000Y-55372000D01*
X233172000Y-50800000D02*
X236383752Y-50800000D01*
X236918500Y-51334748D02*
X236918500Y-52755800D01*
X125723352Y-41690000D02*
X224062000Y-41690000D01*
X116747997Y-50665355D02*
X125723352Y-41690000D01*
X236383752Y-50800000D02*
X236918500Y-51334748D01*
X116747997Y-51152375D02*
X116747997Y-50665355D01*
X224062000Y-41690000D02*
X233172000Y-50800000D01*
X237744000Y-55372000D02*
X236918500Y-54546500D01*
X236918500Y-54546500D02*
X236918500Y-52755800D01*
%TO.N,Net-(U4-SDO)*%
X235648500Y-46744800D02*
X235648500Y-47828200D01*
X234877700Y-45974000D02*
X235648500Y-46744800D01*
X234442000Y-45974000D02*
X234877700Y-45974000D01*
%TO.N,READBIAS1*%
X237553500Y-54419500D02*
X237553500Y-52755800D01*
X224233026Y-41340000D02*
X233343026Y-50450000D01*
X236528727Y-50450000D02*
X237553500Y-51474773D01*
X116147994Y-50770383D02*
X125578377Y-41340000D01*
X239726500Y-54864000D02*
X237998000Y-54864000D01*
X237553500Y-51474773D02*
X237553500Y-52755800D01*
X239759500Y-54897000D02*
X239726500Y-54864000D01*
X116147994Y-51152375D02*
X116147994Y-50770383D01*
X233343026Y-50450000D02*
X236528727Y-50450000D01*
X125578377Y-41340000D02*
X224233026Y-41340000D01*
X237998000Y-54864000D02*
X237553500Y-54419500D01*
%TO.N,DISCBIAS*%
X238778907Y-54389000D02*
X238778907Y-52800393D01*
X224536000Y-40640000D02*
X226187000Y-42291000D01*
X238778907Y-52800393D02*
X238823500Y-52755800D01*
X233584000Y-49688000D02*
X226314000Y-42418000D01*
X114681000Y-50673000D02*
X124714000Y-40640000D01*
X114681000Y-51152375D02*
X114681000Y-50673000D01*
X236896300Y-49688000D02*
X233584000Y-49688000D01*
X226314000Y-42418000D02*
X226187000Y-42291000D01*
X124714000Y-40640000D02*
X224536000Y-40640000D01*
X238823500Y-51615200D02*
X236896300Y-49688000D01*
X238823500Y-52755800D02*
X238823500Y-51615200D01*
D43*
%TO.N,/SOM240_1(1.5)/SDI_DAC_BIAS*%
X224790000Y-40386000D02*
X224689625Y-40285625D01*
X234188000Y-49333625D02*
X233737625Y-49333625D01*
X113670500Y-51152375D02*
X113670500Y-51048500D01*
X235013500Y-47828200D02*
X235013500Y-49212500D01*
X124433375Y-40285625D02*
X141986000Y-40285625D01*
X235013500Y-49212500D02*
X234950000Y-49276000D01*
X234950000Y-49276000D02*
X234892375Y-49333625D01*
X113670500Y-51048500D02*
X124433375Y-40285625D01*
X224689625Y-40285625D02*
X141986000Y-40285625D01*
X234892375Y-49333625D02*
X234188000Y-49333625D01*
X233737625Y-49333625D02*
X224790000Y-40386000D01*
D44*
%TO.N,/SOM240_1(1.5)/SCK_DAC2*%
X223787676Y-42418000D02*
X232931676Y-51562000D01*
X118017997Y-50397679D02*
X125997676Y-42418000D01*
X232931676Y-51562000D02*
X234950000Y-51562000D01*
X118017997Y-51152375D02*
X118017997Y-50397679D01*
X235013500Y-51625500D02*
X235013500Y-52755800D01*
X125997676Y-42418000D02*
X223787676Y-42418000D01*
X234950000Y-51562000D02*
X235013500Y-51625500D01*
%TO.N,WBUFBIAS*%
X238252000Y-52819300D02*
X238188500Y-52755800D01*
X238188500Y-51614798D02*
X238188500Y-52755800D01*
X236611702Y-50038000D02*
X238188500Y-51614798D01*
X224378000Y-40990000D02*
X233426000Y-50038000D01*
X233426000Y-50038000D02*
X236611702Y-50038000D01*
X115470751Y-50952652D02*
X125433403Y-40990000D01*
X115470751Y-51152375D02*
X115470751Y-50952652D01*
X125433403Y-40990000D02*
X224378000Y-40990000D01*
X238252000Y-54102000D02*
X238252000Y-52819300D01*
D43*
%TO.N,SPIclk*%
X128905000Y-61265860D02*
X128905000Y-59055000D01*
X183642000Y-60198000D02*
X183584646Y-60198000D01*
X190500000Y-59690000D02*
X189992000Y-60198000D01*
X235458000Y-61214000D02*
X233934000Y-59690000D01*
X233934000Y-59690000D02*
X190500000Y-59690000D01*
X189992000Y-60198000D02*
X188722000Y-60198000D01*
X183584646Y-60198000D02*
X181552646Y-62230000D01*
X129869140Y-62230000D02*
X128905000Y-61265860D01*
X181552646Y-62230000D02*
X129869140Y-62230000D01*
X237236000Y-61214000D02*
X235458000Y-61214000D01*
%TO.N,Psec5RefClk*%
X182597375Y-63274625D02*
X131445000Y-63274625D01*
X184531000Y-61341000D02*
X182597375Y-63274625D01*
X184531000Y-59563000D02*
X184531000Y-61341000D01*
%TO.N,POCI*%
X190500000Y-62230000D02*
X186944000Y-65786000D01*
X234021000Y-62230000D02*
X190500000Y-62230000D01*
X186944000Y-65786000D02*
X129540000Y-65786000D01*
X234275000Y-61976000D02*
X234021000Y-62230000D01*
%TO.N,PICO*%
X231267000Y-61683376D02*
X219140435Y-61683376D01*
X218925059Y-61468000D02*
X189484000Y-61468000D01*
X185674000Y-65278000D02*
X130048000Y-65278000D01*
X219140435Y-61683376D02*
X218925059Y-61468000D01*
X189484000Y-61468000D02*
X185674000Y-65278000D01*
%TO.N,Psec5TriggerOut*%
X219338999Y-61204001D02*
X219221998Y-61087000D01*
X130810000Y-64262000D02*
X130556000Y-64008000D01*
X183388000Y-64262000D02*
X130810000Y-64262000D01*
X186563000Y-61087000D02*
X183388000Y-64262000D01*
X219221998Y-61087000D02*
X186563000Y-61087000D01*
%TO.N,P5_ReadClk*%
X182051254Y-62588750D02*
X129136750Y-62588750D01*
X183089502Y-61550502D02*
X182051254Y-62588750D01*
X127889000Y-61341000D02*
X127889000Y-58521600D01*
X129136750Y-62588750D02*
X127889000Y-61341000D01*
%TO.N,P5_rst*%
X234395002Y-59182000D02*
X187706000Y-59182000D01*
X235665002Y-60452000D02*
X234395002Y-59182000D01*
X183134000Y-63754000D02*
X131109271Y-63754000D01*
X187706000Y-59182000D02*
X183134000Y-63754000D01*
X131109271Y-63754000D02*
X130828947Y-63473676D01*
%TO.N,Psec5TriggerIn*%
X186817000Y-62103000D02*
X184150000Y-64770000D01*
X184150000Y-64770000D02*
X131064000Y-64770000D01*
D46*
%TO.N,HPB15_CC_P*%
X137795000Y-118745000D02*
X135128000Y-121412000D01*
X195197855Y-118565999D02*
X195018854Y-118745000D01*
X195018854Y-118745000D02*
X137795000Y-118745000D01*
D43*
%TO.N,OscClkOut*%
X146304000Y-140208000D02*
X123952000Y-140208000D01*
X123952000Y-140208000D02*
X114300000Y-130556000D01*
D46*
%TO.N,HPB15_CC_N*%
X194564000Y-118020500D02*
X194474500Y-118110000D01*
X194474500Y-118110000D02*
X137414000Y-118110000D01*
X137414000Y-118110000D02*
X134112000Y-121412000D01*
%TO.N,HPC08_P*%
X186690000Y-112103500D02*
X186652500Y-112141000D01*
X131699000Y-112141000D02*
X123444000Y-120396000D01*
X186652500Y-112141000D02*
X131699000Y-112141000D01*
%TO.N,HPB12_P*%
X135128000Y-116332000D02*
X131064000Y-120396000D01*
X192532000Y-116332000D02*
X135128000Y-116332000D01*
%TO.N,HPB00_CC_N*%
X226695000Y-105153982D02*
X226694999Y-105153982D01*
X194785250Y-121465500D02*
X155494728Y-121465500D01*
X133022808Y-133193500D02*
X132566154Y-132736846D01*
X226545498Y-105004481D02*
X211246269Y-105004481D01*
X211246269Y-105004481D02*
X194785250Y-121465500D01*
X226694999Y-105153982D02*
X226545498Y-105004481D01*
X131445000Y-131615692D02*
X131445000Y-130937000D01*
X155494728Y-121465500D02*
X143766728Y-133193500D01*
X143766728Y-133193500D02*
X133022808Y-133193500D01*
X132566154Y-132736846D02*
X131445000Y-131615692D01*
%TO.N,HPB12_N*%
X134874000Y-115824000D02*
X130302000Y-120396000D01*
X191732500Y-115824000D02*
X134874000Y-115824000D01*
X191770000Y-115786500D02*
X191732500Y-115824000D01*
%TO.N,HPC14_P*%
X181991000Y-109944500D02*
X181953500Y-109982000D01*
X181953500Y-109982000D02*
X130048000Y-109982000D01*
X130048000Y-109982000D02*
X119634000Y-120396000D01*
%TO.N,HPC08_N*%
X185567753Y-111633000D02*
X131445000Y-111633000D01*
X185674000Y-111526753D02*
X185567753Y-111633000D01*
X131445000Y-111633000D02*
X122682000Y-120396000D01*
%TO.N,HPB16_P*%
X190119000Y-114262500D02*
X190081500Y-114300000D01*
X190081500Y-114300000D02*
X133350000Y-114300000D01*
X133350000Y-114300000D02*
X127254000Y-120396000D01*
%TO.N,HPB16_N*%
X189192500Y-113792000D02*
X133096000Y-113792000D01*
X133096000Y-113792000D02*
X126492000Y-120396000D01*
X189230000Y-113754500D02*
X189192500Y-113792000D01*
%TO.N,HPC09_P*%
X124460000Y-134264134D02*
X124460000Y-132461000D01*
X195879098Y-124256500D02*
X156588576Y-124256500D01*
X144904576Y-135940500D02*
X126136366Y-135940500D01*
X226695000Y-110232973D02*
X226545498Y-110382475D01*
X209753123Y-110382475D02*
X195879098Y-124256500D01*
X156588576Y-124256500D02*
X144904576Y-135940500D01*
X125082433Y-134886567D02*
X124460000Y-134264134D01*
X124460000Y-132461000D02*
X124460000Y-130048000D01*
X126136366Y-135940500D02*
X125082433Y-134886567D01*
X226545498Y-110382475D02*
X209753123Y-110382475D01*
%TO.N,HPB01_P*%
X226695000Y-102993973D02*
X226545498Y-103143475D01*
X133985000Y-131191000D02*
X133985000Y-129921000D01*
X134620000Y-131826000D02*
X133985000Y-131191000D01*
X211391833Y-103143475D02*
X194282808Y-120252500D01*
X143264286Y-131980500D02*
X134774500Y-131980500D01*
X154992286Y-120252500D02*
X143264286Y-131980500D01*
X194282808Y-120252500D02*
X154992286Y-120252500D01*
X226545498Y-103143475D02*
X211391833Y-103143475D01*
X134774500Y-131980500D02*
X134620000Y-131826000D01*
%TO.N,HPC14_N*%
X181064500Y-109474000D02*
X129794000Y-109474000D01*
X181102000Y-109436500D02*
X181064500Y-109474000D01*
X129794000Y-109474000D02*
X118872000Y-120396000D01*
D43*
%TO.N,ADC_SCLK*%
X111069375Y-124642625D02*
X110744000Y-124968000D01*
X111069375Y-120721375D02*
X111069375Y-124642625D01*
X110490000Y-120142000D02*
X111069375Y-120721375D01*
D46*
%TO.N,HPB17_P*%
X156260518Y-123464500D02*
X144576518Y-135148500D01*
X126365000Y-133560308D02*
X126365000Y-132969000D01*
X126365000Y-132969000D02*
X126365000Y-130048000D01*
X127953192Y-135148500D02*
X127148846Y-134344154D01*
X210112041Y-108903499D02*
X195551040Y-123464500D01*
X195551040Y-123464500D02*
X156260518Y-123464500D01*
X226545498Y-108903499D02*
X210112041Y-108903499D01*
X226695000Y-108753997D02*
X226545498Y-108903499D01*
X127148846Y-134344154D02*
X126365000Y-133560308D01*
X144576518Y-135148500D02*
X127953192Y-135148500D01*
%TO.N,HPC02_P*%
X125152192Y-138316500D02*
X120417846Y-133582154D01*
X197046808Y-126632500D02*
X157572750Y-126632500D01*
X226545498Y-114702493D02*
X208976815Y-114702493D01*
X208976815Y-114702493D02*
X197046808Y-126632500D01*
X226695000Y-114552991D02*
X226545498Y-114702493D01*
X118745000Y-131909308D02*
X118745000Y-130302000D01*
X120417846Y-133582154D02*
X118745000Y-131909308D01*
X157572750Y-126632500D02*
X145888750Y-138316500D01*
X145888750Y-138316500D02*
X125152192Y-138316500D01*
%TO.N,HPC19_P*%
X131064000Y-110998000D02*
X121666000Y-120396000D01*
X184277000Y-110998000D02*
X131064000Y-110998000D01*
%TO.N,HPB00_CC_P*%
X132080000Y-131572000D02*
X132080000Y-129921000D01*
X211071885Y-104583481D02*
X194610866Y-121044500D01*
X143592344Y-132772500D02*
X133197192Y-132772500D01*
X133197192Y-132772500D02*
X132863846Y-132439154D01*
X226695000Y-104433979D02*
X226545498Y-104583481D01*
X226545498Y-104583481D02*
X211071885Y-104583481D01*
X132863846Y-132439154D02*
X132080000Y-131655308D01*
X155320344Y-121044500D02*
X143592344Y-132772500D01*
X194610866Y-121044500D02*
X155320344Y-121044500D01*
X132080000Y-131655308D02*
X132080000Y-131572000D01*
%TO.N,HPC02_N*%
X209151199Y-115123493D02*
X197221192Y-127053500D01*
X118110000Y-131869692D02*
X118110000Y-130937000D01*
X124977808Y-138737500D02*
X120120154Y-133879846D01*
X226545498Y-115123493D02*
X209151199Y-115123493D01*
X197221192Y-127053500D02*
X157747134Y-127053500D01*
X226694999Y-115272994D02*
X226545498Y-115123493D01*
X226695000Y-115272994D02*
X226694999Y-115272994D01*
X157747134Y-127053500D02*
X146063134Y-138737500D01*
X146063134Y-138737500D02*
X124977808Y-138737500D01*
X120120154Y-133879846D02*
X118110000Y-131869692D01*
%TO.N,HPC19_N*%
X130810000Y-110490000D02*
X120904000Y-120396000D01*
X182969500Y-110490000D02*
X130810000Y-110490000D01*
X183007000Y-110452500D02*
X182969500Y-110490000D01*
%TO.N,HPC00_CC_N*%
X196709598Y-126261500D02*
X157419076Y-126261500D01*
X157419076Y-126261500D02*
X145735076Y-137945500D01*
X209287611Y-113683487D02*
X196709598Y-126261500D01*
X226694999Y-113832988D02*
X226545498Y-113683487D01*
X145735076Y-137945500D02*
X125305866Y-137945500D01*
X125305866Y-137945500D02*
X121442183Y-134081817D01*
X226545498Y-113683487D02*
X209287611Y-113683487D01*
X121442183Y-134081817D02*
X120015000Y-132654634D01*
X226695000Y-113832988D02*
X226694999Y-113832988D01*
X120015000Y-132654634D02*
X120015000Y-130937000D01*
%TO.N,HPC04_P*%
X116840000Y-129921000D02*
X116840000Y-131147308D01*
X197374866Y-127424500D02*
X208656867Y-116142499D01*
X226545498Y-116142499D02*
X226695000Y-115992997D01*
X124801192Y-139108500D02*
X146216808Y-139108500D01*
X157900808Y-127424500D02*
X197374866Y-127424500D01*
X146216808Y-139108500D02*
X157900808Y-127424500D01*
X208656867Y-116142499D02*
X226545498Y-116142499D01*
X116840000Y-131147308D02*
X124801192Y-139108500D01*
%TO.N,HPB04_N*%
X129526808Y-134777500D02*
X144422844Y-134777500D01*
X127635000Y-131064000D02*
X127635000Y-132885692D01*
X156106844Y-123093500D02*
X195397366Y-123093500D01*
X195397366Y-123093500D02*
X210606373Y-107884493D01*
X144422844Y-134777500D02*
X156106844Y-123093500D01*
X226694999Y-108033994D02*
X226695000Y-108033994D01*
X226545498Y-107884493D02*
X226694999Y-108033994D01*
X127635000Y-132885692D02*
X129526808Y-134777500D01*
X210606373Y-107884493D02*
X226545498Y-107884493D01*
%TO.N,HPB_CLK0_N*%
X210926321Y-106444487D02*
X226545498Y-106444487D01*
X144094786Y-133985500D02*
X155822786Y-122257500D01*
X226694999Y-106593988D02*
X226695000Y-106593988D01*
X129540000Y-130937000D02*
X129540000Y-131615692D01*
X226545498Y-106444487D02*
X226694999Y-106593988D01*
X131909808Y-133985500D02*
X144094786Y-133985500D01*
X195113308Y-122257500D02*
X210926321Y-106444487D01*
X129540000Y-131615692D02*
X131909808Y-133985500D01*
X155822786Y-122257500D02*
X195113308Y-122257500D01*
%TO.N,HPB04_P*%
X128270000Y-132969000D02*
X128270000Y-132715000D01*
X226545498Y-107463493D02*
X210431989Y-107463493D01*
X155932460Y-122672500D02*
X144248460Y-134356500D01*
X128270000Y-132715000D02*
X128270000Y-129921000D01*
X195222982Y-122672500D02*
X155932460Y-122672500D01*
X226695000Y-107313991D02*
X226545498Y-107463493D01*
X144248460Y-134356500D02*
X129657500Y-134356500D01*
X210431989Y-107463493D02*
X195222982Y-122672500D01*
X129159000Y-133858000D02*
X128270000Y-132969000D01*
X129657500Y-134356500D02*
X129159000Y-133858000D01*
%TO.N,HPC04_N*%
X226545498Y-116563499D02*
X226694999Y-116713000D01*
X226694999Y-116713000D02*
X226695000Y-116713000D01*
X208831251Y-116563499D02*
X226545498Y-116563499D01*
X158075192Y-127845500D02*
X197549250Y-127845500D01*
X116205000Y-130429000D02*
X116205000Y-131107692D01*
X146391192Y-139529500D02*
X158075192Y-127845500D01*
X116205000Y-131107692D02*
X124626808Y-139529500D01*
X124626808Y-139529500D02*
X146391192Y-139529500D01*
X197549250Y-127845500D02*
X208831251Y-116563499D01*
%TO.N,HPB17_N*%
X126851154Y-134641846D02*
X125730000Y-133520692D01*
X226695000Y-109474000D02*
X226694999Y-109474000D01*
X226545498Y-109324499D02*
X210286425Y-109324499D01*
X144750902Y-135569500D02*
X127778808Y-135569500D01*
X226694999Y-109474000D02*
X226545498Y-109324499D01*
X210286425Y-109324499D02*
X195725424Y-123885500D01*
X125730000Y-133520692D02*
X125730000Y-130937000D01*
X156434902Y-123885500D02*
X144750902Y-135569500D01*
X195725424Y-123885500D02*
X156434902Y-123885500D01*
X127778808Y-135569500D02*
X126851154Y-134641846D01*
%TO.N,HPC01_N*%
X157091018Y-125469500D02*
X145407018Y-137153500D01*
X226545498Y-112243481D02*
X209607559Y-112243481D01*
X122827712Y-134347288D02*
X121920000Y-133439576D01*
X121920000Y-133439576D02*
X121920000Y-130937000D01*
X209607559Y-112243481D02*
X196381540Y-125469500D01*
X125633924Y-137153500D02*
X122827712Y-134347288D01*
X196381540Y-125469500D02*
X157091018Y-125469500D01*
X226694999Y-112392982D02*
X226545498Y-112243481D01*
X226695000Y-112392982D02*
X226694999Y-112392982D01*
X145407018Y-137153500D02*
X125633924Y-137153500D01*
%TO.N,HPB01_N*%
X226545498Y-103564475D02*
X211566217Y-103564475D01*
X143438670Y-132401500D02*
X134643808Y-132401500D01*
X211566217Y-103564475D02*
X194457192Y-120673500D01*
X226694999Y-103713976D02*
X226545498Y-103564475D01*
X134643808Y-132401500D02*
X134344154Y-132101846D01*
X155166670Y-120673500D02*
X143438670Y-132401500D01*
X133350000Y-131107692D02*
X133350000Y-130937000D01*
X134344154Y-132101846D02*
X133350000Y-131107692D01*
X194457192Y-120673500D02*
X155166670Y-120673500D01*
X226695000Y-103713976D02*
X226694999Y-103713976D01*
%TO.N,HPC15_CC_N*%
X129012500Y-108223500D02*
X116840000Y-120396000D01*
X179959000Y-108293500D02*
X179889000Y-108223500D01*
X179889000Y-108223500D02*
X129012500Y-108223500D01*
%TO.N,HPB19_P*%
X188303500Y-113284000D02*
X132588000Y-113284000D01*
X188341000Y-113246500D02*
X188303500Y-113284000D01*
X132588000Y-113284000D02*
X125476000Y-120396000D01*
%TO.N,HPC01_P*%
X123252404Y-134176596D02*
X122555000Y-133479192D01*
X196207156Y-125048500D02*
X156916634Y-125048500D01*
X122555000Y-133479192D02*
X122555000Y-130302000D01*
X125808308Y-136732500D02*
X123252404Y-134176596D01*
X145232634Y-136732500D02*
X125808308Y-136732500D01*
X226545498Y-111822481D02*
X209433175Y-111822481D01*
X209433175Y-111822481D02*
X196207156Y-125048500D01*
X226695000Y-111672979D02*
X226545498Y-111822481D01*
X156916634Y-125048500D02*
X145232634Y-136732500D01*
%TO.N,HPC09_N*%
X123825000Y-134224518D02*
X123825000Y-130937000D01*
X226694999Y-110952976D02*
X226545498Y-110803475D01*
X124784741Y-135184259D02*
X123825000Y-134224518D01*
X226545498Y-110803475D02*
X209927507Y-110803475D01*
X226695000Y-110952976D02*
X226694999Y-110952976D01*
X209927507Y-110803475D02*
X196053482Y-124677500D01*
X145078960Y-136361500D02*
X125961982Y-136361500D01*
X156762960Y-124677500D02*
X145078960Y-136361500D01*
X196053482Y-124677500D02*
X156762960Y-124677500D01*
X125961982Y-136361500D02*
X124784741Y-135184259D01*
%TO.N,HPB08_N*%
X193167000Y-116929500D02*
X193129500Y-116967000D01*
X193129500Y-116967000D02*
X135763000Y-116967000D01*
X135763000Y-116967000D02*
X132588000Y-120142000D01*
%TO.N,HPB06_P*%
X191101964Y-115316000D02*
X134112000Y-115316000D01*
X191139464Y-115278500D02*
X191101964Y-115316000D01*
X134112000Y-115316000D02*
X129032000Y-120396000D01*
%TO.N,HPC15_CC_P*%
X180429500Y-108839000D02*
X129159000Y-108839000D01*
X129159000Y-108839000D02*
X117602000Y-120396000D01*
X180467000Y-108876500D02*
X180429500Y-108839000D01*
%TO.N,HPB06_N*%
X190629232Y-114770500D02*
X190591732Y-114808000D01*
X133858000Y-114808000D02*
X128270000Y-120396000D01*
X190591732Y-114808000D02*
X133858000Y-114808000D01*
%TO.N,HPB19_N*%
X132461000Y-112649000D02*
X124714000Y-120396000D01*
X187452000Y-112649000D02*
X132461000Y-112649000D01*
%TO.N,HPB_CLK0_P*%
X226695000Y-105873985D02*
X226545498Y-106023487D01*
X143920402Y-133564500D02*
X132084192Y-133564500D01*
X130212500Y-131692808D02*
X130212500Y-131191000D01*
X130212500Y-129958500D02*
X130175000Y-129921000D01*
X210751937Y-106023487D02*
X194938924Y-121836500D01*
X194938924Y-121836500D02*
X155648402Y-121836500D01*
X130212500Y-131191000D02*
X130212500Y-129958500D01*
X131212846Y-132693154D02*
X130212500Y-131692808D01*
X226545498Y-106023487D02*
X210751937Y-106023487D01*
X155648402Y-121836500D02*
X143920402Y-133564500D01*
X132084192Y-133564500D02*
X131212846Y-132693154D01*
%TO.N,HPB08_P*%
X193821350Y-117475000D02*
X136271000Y-117475000D01*
X136271000Y-117475000D02*
X133096000Y-120650000D01*
%TO.N,HPC00_CC_P*%
X226695000Y-113112985D02*
X226545498Y-113262487D01*
X121739875Y-133784125D02*
X120650000Y-132694250D01*
X145560692Y-137524500D02*
X125480250Y-137524500D01*
X209113227Y-113262487D02*
X196535214Y-125840500D01*
X157244692Y-125840500D02*
X145560692Y-137524500D01*
X196535214Y-125840500D02*
X157244692Y-125840500D01*
X120650000Y-132694250D02*
X120650000Y-130302000D01*
X226545498Y-113262487D02*
X209113227Y-113262487D01*
X125480250Y-137524500D02*
X121739875Y-133784125D01*
D43*
%TO.N,/SOM240_1(1.5)/SDcard1/DAT2B*%
X80970001Y-112369001D02*
X72796999Y-112369001D01*
X72796999Y-112369001D02*
X72136000Y-113030000D01*
%TO.N,/SOM240_1(1.5)/SDcard1/DAT1B*%
X71882000Y-108712000D02*
X72288999Y-109118999D01*
X72288999Y-109118999D02*
X80970001Y-109118999D01*
%TO.N,/SOM240_1(1.5)/SDcard1/DAT0B*%
X71669001Y-109769001D02*
X80970001Y-109769001D01*
X71374000Y-109474000D02*
X71669001Y-109769001D01*
%TO.N,/SOM240_1(1.5)/SDcard1/DAT3B*%
X80970001Y-111718999D02*
X72177001Y-111718999D01*
X72177001Y-111718999D02*
X71628000Y-112268000D01*
%TO.N,/SOM240_1(1.5)/SDcard1/CMDB*%
X71120000Y-111506000D02*
X71556999Y-111069001D01*
X71556999Y-111069001D02*
X80970001Y-111069001D01*
%TO.N,/SOM240_1(1.5)/SD_DAT0*%
X119656810Y-77457190D02*
X87344999Y-109769001D01*
X119656810Y-58973767D02*
X119656810Y-77457190D01*
X87344999Y-109769001D02*
X86669999Y-109769001D01*
%TO.N,/SOM240_1(1.5)/UART_RXD*%
X123952000Y-72771000D02*
X123952000Y-61779360D01*
X123952000Y-61779360D02*
X123571000Y-61398360D01*
X123571000Y-61398360D02*
X123571000Y-58420000D01*
D44*
%TO.N,Net-(J10A-PS_ERROR_OUT_M2C)*%
X171608000Y-99218000D02*
X173990000Y-101600000D01*
X173990000Y-101600000D02*
X176276000Y-101600000D01*
X126771400Y-63779400D02*
X162210000Y-99218000D01*
X162210000Y-99218000D02*
X171608000Y-99218000D01*
D43*
X126771400Y-58445400D02*
X126771400Y-63779400D01*
%TO.N,/SOM240_1(1.5)/JTAG_CLK*%
X77965300Y-51062001D02*
X80493992Y-51062001D01*
X80493992Y-51062001D02*
X80517990Y-51085999D01*
%TO.N,/SOM240_1(1.5)/SD_DAT2*%
X87344999Y-112369001D02*
X126238000Y-73476000D01*
X86669999Y-112369001D02*
X87344999Y-112369001D01*
X126238000Y-73476000D02*
X126238000Y-68580000D01*
X126238000Y-66802000D02*
X125730000Y-66294000D01*
X126238000Y-68580000D02*
X126238000Y-66802000D01*
%TO.N,/SOM240_1(1.5)/UART_TXD*%
X123206212Y-72754788D02*
X123190000Y-72771000D01*
X123206212Y-58795308D02*
X123206212Y-72754788D01*
X122806884Y-58395980D02*
X123206212Y-58795308D01*
%TO.N,/SOM240_1(1.5)/ETH_RXD0*%
X113284000Y-65229480D02*
X114168877Y-64344603D01*
X114168877Y-64344603D02*
X114168877Y-59042558D01*
D44*
%TO.N,/SOM240_1(1.5)/ETH_RXD2*%
X113792000Y-67564000D02*
X116614825Y-64741175D01*
X116614825Y-64741175D02*
X116614825Y-59050953D01*
D43*
%TO.N,/SOM240_1(1.5)/SD_DAT1*%
X87344999Y-109118999D02*
X86669999Y-109118999D01*
X119050998Y-77413000D02*
X87344999Y-109118999D01*
X119050998Y-58978425D02*
X119050998Y-77413000D01*
%TO.N,/SOM240_1(1.5)/JTAG_TMS*%
X79756000Y-50292000D02*
X79502000Y-50546000D01*
X77981299Y-50546000D02*
X77965300Y-50561999D01*
X81280000Y-50292000D02*
X79756000Y-50292000D01*
X79502000Y-50546000D02*
X77981299Y-50546000D01*
D44*
%TO.N,Net-(J10A-PWROFF_C2M_L)*%
X173228000Y-107188000D02*
X176276000Y-107188000D01*
X126148279Y-64680279D02*
X161544000Y-100076000D01*
X161544000Y-100076000D02*
X170942000Y-100076000D01*
X170942000Y-100076000D02*
X171958000Y-101092000D01*
X171958000Y-105918000D02*
X173228000Y-107188000D01*
X171958000Y-101092000D02*
X171958000Y-105918000D01*
D43*
X125492630Y-58530370D02*
X125492630Y-64024630D01*
X125492630Y-64024630D02*
X126148279Y-64680279D01*
D44*
%TO.N,/SOM240_1(1.5)/ETH_RX_CTRL*%
X112776000Y-64008000D02*
X113538000Y-63246000D01*
X113538000Y-63246000D02*
X113538000Y-59004200D01*
%TO.N,/SOM240_1(1.5)/ETH_RXD3*%
X114046000Y-68580000D02*
X117279500Y-65346500D01*
X117279500Y-65346500D02*
X117279500Y-59081325D01*
D43*
%TO.N,/SOM240_1(1.5)/ETH_RXD1*%
X114046000Y-65622248D02*
X114782600Y-64885648D01*
X114782600Y-64885648D02*
X114782600Y-59055000D01*
%TO.N,/SOM240_1(1.5)/SD_DAT3*%
X125476000Y-73580583D02*
X125476000Y-68580000D01*
X86669999Y-111718999D02*
X87337584Y-111718999D01*
X125476000Y-67056000D02*
X125222000Y-66802000D01*
X87337584Y-111718999D02*
X125476000Y-73580583D01*
X125476000Y-68580000D02*
X125476000Y-67056000D01*
D44*
%TO.N,/SOM240_1(1.5)/ETH_RX_CLK*%
X113792000Y-66548000D02*
X115993121Y-64346879D01*
X115993121Y-64346879D02*
X115993121Y-59064401D01*
D43*
%TO.N,/SOM240_1(1.5)/JTAG_TDO*%
X80264000Y-52085997D02*
X80240002Y-52061999D01*
X80264000Y-52085997D02*
X126507997Y-52085997D01*
X126507997Y-52085997D02*
X127005500Y-52583500D01*
X80240002Y-52061999D02*
X77965300Y-52061999D01*
D44*
%TO.N,Net-(J10A-PS_ERROR_STATUS_M2C)*%
X171450000Y-99568000D02*
X161811026Y-99568000D01*
D43*
X126136400Y-58496200D02*
X126136400Y-63893374D01*
X126136400Y-63893374D02*
X126498279Y-64255253D01*
D44*
X161811026Y-99568000D02*
X126498279Y-64255253D01*
X176276000Y-104394000D02*
X171450000Y-99568000D01*
D43*
%TO.N,/SOM240_1(1.5)/JTAG_TDI*%
X126225372Y-52565372D02*
X80784628Y-52565372D01*
X80784628Y-52565372D02*
X80264000Y-53086000D01*
X77965300Y-52562001D02*
X79740001Y-52562001D01*
X126238000Y-52578000D02*
X126225372Y-52565372D01*
X79740001Y-52562001D02*
X80264000Y-53086000D01*
D44*
%TO.N,/SOM240_1(1.5)/ethernet1/PHY_MDI3_P*%
X87122000Y-75656001D02*
X93637100Y-75656001D01*
%TO.N,/SOM240_1(1.5)/ethernet1/PHY_MDI2_P*%
X83058000Y-73660000D02*
X83062000Y-73656000D01*
X83062000Y-73656000D02*
X93637100Y-73656000D01*
%TO.N,/SOM240_1(1.5)/ethernet1/PHY_MDI3_N*%
X88900000Y-75184000D02*
X88928001Y-75155999D01*
X93637100Y-75155999D02*
X88928001Y-75155999D01*
%TO.N,/SOM240_1(1.5)/ethernet1/PHY_MDI0_P*%
X75946000Y-77978000D02*
X75538254Y-77978000D01*
X93637100Y-70656000D02*
X83268000Y-70656000D01*
X83268000Y-70656000D02*
X75946000Y-77978000D01*
%TO.N,/SOM240_1(1.5)/ethernet1/LED_14*%
X94234000Y-78486000D02*
X94234000Y-77356899D01*
X94234000Y-77356899D02*
X94285999Y-77304900D01*
%TO.N,/SOM240_1(1.5)/ethernet1/PHY_MDI0_N*%
X76637640Y-76708000D02*
X83189641Y-70155999D01*
X75946000Y-76708000D02*
X76637640Y-76708000D01*
X83189641Y-70155999D02*
X93637100Y-70155999D01*
%TO.N,/SOM240_1(1.5)/ethernet1/PHY_MDI1_P*%
X83209753Y-72655999D02*
X93637100Y-72655999D01*
X80264000Y-75438000D02*
X80427752Y-75438000D01*
X80427752Y-75438000D02*
X83209753Y-72655999D01*
%TO.N,/SOM240_1(1.5)/ethernet1/PHY_MDI1_N*%
X81026000Y-74168000D02*
X83038000Y-72156000D01*
X83038000Y-72156000D02*
X93637100Y-72156000D01*
%TO.N,/SOM240_1(1.5)/ethernet1/LED_12*%
X90424000Y-79248000D02*
X94397752Y-79248000D01*
X95344000Y-77362901D02*
X95285999Y-77304900D01*
X94397752Y-79248000D02*
X95344000Y-78301752D01*
X95344000Y-78301752D02*
X95344000Y-77362901D01*
%TO.N,/SOM240_1(1.5)/ethernet1/PHY_MDI2_N*%
X93637100Y-73156000D02*
X84078000Y-73156000D01*
X84078000Y-73156000D02*
X84074000Y-73152000D01*
%TO.N,/SOM240_1(1.5)/ETH_TXD3*%
X102316299Y-76454000D02*
X110872000Y-76454000D01*
X101434900Y-76156000D02*
X102018299Y-76156000D01*
X110872000Y-76454000D02*
X111126000Y-76708000D01*
X102018299Y-76156000D02*
X102316299Y-76454000D01*
D43*
%TO.N,/SOM240_1(1.5)/ethernet1/OSC25_OUT*%
X96785999Y-64302999D02*
X96785999Y-69507100D01*
X96300000Y-63817000D02*
X96785999Y-64302999D01*
D44*
%TO.N,Net-(U1-RXD[2])*%
X103144000Y-72156000D02*
X101434900Y-72156000D01*
X103632000Y-72644000D02*
X103144000Y-72156000D01*
%TO.N,Net-(U1-RX_CLK)*%
X102590998Y-71656001D02*
X102616000Y-71630999D01*
X101434900Y-71656001D02*
X102590998Y-71656001D01*
%TO.N,Net-(U1-RX_CTRL)*%
X101548001Y-70155999D02*
X101434900Y-70155999D01*
X102870000Y-68834000D02*
X101548001Y-70155999D01*
D43*
%TO.N,Net-(U1-CONFIG)*%
X93637100Y-76656001D02*
X92062999Y-76656001D01*
X92062999Y-76656001D02*
X92011000Y-76708000D01*
%TO.N,Net-(U1-RSET)*%
X94786000Y-69507100D02*
X94786000Y-68624000D01*
X94786000Y-68624000D02*
X94742000Y-68580000D01*
D44*
%TO.N,/SOM240_1(1.5)/ETH_TXD2*%
X101434900Y-75656001D02*
X101953301Y-75656001D01*
X102116300Y-75819000D02*
X114238000Y-75819000D01*
X101953301Y-75656001D02*
X102116300Y-75819000D01*
X114238000Y-75819000D02*
X114365000Y-75946000D01*
D43*
%TO.N,/SOM240_1(1.5)/ETH_MDIO*%
X97286000Y-77304900D02*
X97286000Y-77974000D01*
X97286000Y-77974000D02*
X97028000Y-78232000D01*
D44*
%TO.N,Net-(U1-RXD[1])*%
X102834001Y-71155999D02*
X103378000Y-70612000D01*
X101434900Y-71155999D02*
X102834001Y-71155999D01*
%TO.N,/SOM240_1(1.5)/ETH_TXD1*%
X101434900Y-74156001D02*
X114353001Y-74156001D01*
X114353001Y-74156001D02*
X114365000Y-74168000D01*
%TO.N,Net-(U1-RXD[0])*%
X101434900Y-70656000D02*
X102572000Y-70656000D01*
X102572000Y-70656000D02*
X102616000Y-70612000D01*
%TO.N,/SOM240_1(1.5)/ETH_TXD0*%
X110622000Y-73656000D02*
X111126000Y-73152000D01*
X101434900Y-73656000D02*
X110622000Y-73656000D01*
D43*
%TO.N,/SOM240_1(1.5)/ETH_MDC*%
X98425000Y-75565000D02*
X97786000Y-76204000D01*
X97786000Y-76204000D02*
X97786000Y-77304900D01*
D44*
%TO.N,/SOM240_1(1.5)/ETH_TX_CLK*%
X101948274Y-75155999D02*
X102230275Y-75438000D01*
X102230275Y-75438000D02*
X110618000Y-75438000D01*
X101434900Y-75155999D02*
X101948274Y-75155999D01*
X110618000Y-75438000D02*
X111126000Y-74930000D01*
%TO.N,Net-(U1-RXD[3])*%
X102795485Y-72655999D02*
X103210510Y-73071024D01*
X101434900Y-72655999D02*
X102795485Y-72655999D01*
%TO.N,/SOM240_1(1.5)/ETH_TX_CTRL*%
X102997000Y-77724000D02*
X114365000Y-77724000D01*
X101929001Y-76656001D02*
X102997000Y-77724000D01*
X101434900Y-76656001D02*
X101929001Y-76656001D01*
D43*
%TO.N,/SOM240_1(1.5)/SD_CLK*%
X120291765Y-59014801D02*
X120291765Y-77472233D01*
X120291765Y-77472233D02*
X120281499Y-77482499D01*
X120281499Y-77482499D02*
X87344999Y-110418999D01*
X87344999Y-110418999D02*
X86669999Y-110418999D01*
%TO.N,/SOM240_1(1.5)/SDcard1/CLKB*%
X70612000Y-110236000D02*
X70794999Y-110418999D01*
X70794999Y-110418999D02*
X80970001Y-110418999D01*
%TO.N,/SOM240_1(1.5)/SD_CMD*%
X87344999Y-111069001D02*
X124968000Y-73446000D01*
X124968000Y-68072000D02*
X124460000Y-67564000D01*
X124968000Y-73446000D02*
X124968000Y-68072000D01*
X86669999Y-111069001D02*
X87344999Y-111069001D01*
%TO.N,/SOM240_1(1.5)/UART_RTS*%
X121539000Y-60452000D02*
X122174000Y-59817000D01*
X121539000Y-72771000D02*
X121539000Y-60452000D01*
X122174000Y-59817000D02*
X122174000Y-58674000D01*
%TO.N,/SOM240_1(1.5)/UART_CTS*%
X122726837Y-59125707D02*
X122726837Y-63074163D01*
X122726837Y-63074163D02*
X122301000Y-63500000D01*
X122301000Y-63500000D02*
X122301000Y-72771000D01*
D44*
%TO.N,Net-(J10B-MIO54)*%
X116015000Y-74168000D02*
X116078000Y-74168000D01*
X116078000Y-74168000D02*
X116840000Y-73406000D01*
%TO.N,Net-(J10B-PWRGD_PL_M2C)*%
X127952500Y-69278500D02*
X165862000Y-107188000D01*
X165862000Y-107188000D02*
X169672000Y-107188000D01*
%TO.N,Net-(J10B-MIO64)*%
X112776000Y-73152000D02*
X116078000Y-73152000D01*
%TO.N,Net-(J10B-PWRGD_FPD_M2C)*%
X169672000Y-101600000D02*
X162306000Y-101600000D01*
X162306000Y-101600000D02*
X129540000Y-68834000D01*
%TO.N,Net-(C94-Pad1)*%
X71403972Y-120904000D02*
X72136000Y-120904000D01*
X76454000Y-123759500D02*
X76515500Y-123698000D01*
X73152000Y-123635000D02*
X76452500Y-123635000D01*
X76452500Y-123635000D02*
X76515500Y-123698000D01*
X72136000Y-120904000D02*
X72644000Y-121412000D01*
X71417986Y-121945400D02*
X72110600Y-121945400D01*
X72110600Y-121945400D02*
X72644000Y-121412000D01*
X73152000Y-121920000D02*
X73152000Y-123635000D01*
X72644000Y-121412000D02*
X73152000Y-121920000D01*
X76454000Y-125717000D02*
X76454000Y-123759500D01*
%TO.N,Net-(Q4-D)*%
X71374000Y-124905000D02*
X67373000Y-124905000D01*
X71403972Y-122986800D02*
X71403972Y-124875028D01*
X67373000Y-124905000D02*
X67121999Y-125156001D01*
X71403972Y-124875028D02*
X71374000Y-124905000D01*
X72772000Y-124905000D02*
X73152000Y-125285000D01*
X71374000Y-124905000D02*
X72772000Y-124905000D01*
X67121999Y-125156001D02*
X67121999Y-126746000D01*
D46*
%TO.N,Net-(ADC2-VREF)*%
X216662000Y-74676000D02*
X216662000Y-73152000D01*
X216345494Y-76071923D02*
X216345494Y-74992506D01*
X216662000Y-73152000D02*
X216662000Y-71628000D01*
X216345494Y-74992506D02*
X216662000Y-74676000D01*
%TO.N,Net-(ADC2-REFT)*%
X214715948Y-75790948D02*
X213601000Y-74676000D01*
X213601000Y-74676000D02*
X213601000Y-73152000D01*
X213601000Y-71654000D02*
X213614000Y-71641000D01*
X213601000Y-73152000D02*
X213601000Y-71654000D01*
X215212330Y-75790948D02*
X214715948Y-75790948D01*
D44*
%TO.N,Net-(J10B-MIO53)*%
X116586000Y-75946000D02*
X117602000Y-74930000D01*
X116015000Y-75946000D02*
X116586000Y-75946000D01*
%TO.N,Net-(J10B-PWRGD_LPD_M2C)*%
X164084000Y-104394000D02*
X169672000Y-104394000D01*
X129603500Y-69913500D02*
X164084000Y-104394000D01*
%TO.N,Net-(J10B-MIO66)*%
X112776000Y-76708000D02*
X113538000Y-76708000D01*
%TO.N,Net-(J10B-MIO65)*%
X114808000Y-74930000D02*
X115062000Y-75184000D01*
X112776000Y-74930000D02*
X114808000Y-74930000D01*
%TO.N,Net-(J10B-MIO52)*%
X116015000Y-77724000D02*
X116840000Y-77724000D01*
X116840000Y-77724000D02*
X118110000Y-76454000D01*
D46*
%TO.N,GND*%
X227825000Y-82804000D02*
X227825000Y-82791000D01*
D44*
X73152000Y-126555000D02*
X71374000Y-126555000D01*
D46*
X215138000Y-70091000D02*
X215125000Y-70091000D01*
D44*
X78994000Y-127254000D02*
X78981000Y-127267000D01*
D46*
X218212000Y-74676000D02*
X218694000Y-74676000D01*
X213614000Y-70091000D02*
X213614000Y-69088000D01*
D43*
X242316000Y-45466000D02*
X243840000Y-43942000D01*
D46*
X234582000Y-70472000D02*
X235204000Y-69850000D01*
D43*
X124206000Y-53785000D02*
X124143000Y-53785000D01*
D45*
X112879258Y-126307847D02*
X112832847Y-126307847D01*
D43*
X114795000Y-125222000D02*
X114795000Y-124193000D01*
D47*
X68313000Y-80772000D02*
X68313000Y-82296000D01*
D43*
X74448000Y-97282000D02*
X74448000Y-97308000D01*
D46*
X238773000Y-72009000D02*
X238773000Y-73533000D01*
D44*
X239458500Y-52755800D02*
X239458500Y-51371500D01*
D43*
X121158000Y-53785000D02*
X122682000Y-53785000D01*
X77965300Y-51562000D02*
X79121000Y-51562000D01*
D46*
X228600000Y-77724000D02*
X227838000Y-76962000D01*
X213614000Y-69088000D02*
X213868000Y-68834000D01*
D43*
X75692000Y-84315000D02*
X75705000Y-84315000D01*
D46*
X214934000Y-80073000D02*
X214630000Y-79769000D01*
D43*
X143523000Y-60960000D02*
X144526000Y-60960000D01*
X75705000Y-84315000D02*
X76454000Y-83566000D01*
X68072000Y-122708000D02*
X68072000Y-122936000D01*
X122682000Y-53785000D02*
X122745000Y-53785000D01*
D45*
X112832847Y-126307847D02*
X111747000Y-125222000D01*
D43*
X181610000Y-130302000D02*
X181356000Y-130302000D01*
X209804000Y-45847000D02*
X210312000Y-46355000D01*
D46*
X228841000Y-77724000D02*
X228600000Y-77724000D01*
D43*
X233680000Y-141986000D02*
X232664000Y-143002000D01*
D45*
X245364000Y-141986000D02*
X244348000Y-143002000D01*
D44*
X241287000Y-47257000D02*
X241287000Y-48514000D01*
D43*
X122682000Y-53785000D02*
X124206000Y-53785000D01*
D47*
X68313000Y-80772000D02*
X66802000Y-80772000D01*
D43*
X76974700Y-51562000D02*
X75438000Y-51562000D01*
D46*
X215125000Y-70091000D02*
X213868000Y-68834000D01*
D43*
X101079000Y-125222000D02*
X99822000Y-125222000D01*
X77965300Y-51562000D02*
X76974700Y-51562000D01*
D46*
X209537000Y-77978000D02*
X208788000Y-77978000D01*
X218212000Y-71628000D02*
X218212000Y-69114000D01*
D43*
X75946000Y-72136000D02*
X77216000Y-72136000D01*
D44*
X243459000Y-52197000D02*
X242824000Y-51562000D01*
D46*
X238773000Y-75057000D02*
X238773000Y-75197000D01*
D43*
X161544000Y-129540000D02*
X160274000Y-129540000D01*
X97282000Y-73406000D02*
X96520000Y-74168000D01*
X77203000Y-84315000D02*
X76454000Y-83566000D01*
D46*
X228346000Y-80518000D02*
X227584000Y-79756000D01*
D43*
X144526000Y-60960000D02*
X144780000Y-60706000D01*
D46*
X218212000Y-71628000D02*
X218212000Y-73152000D01*
D43*
X97282000Y-73406000D02*
X96520000Y-72644000D01*
D46*
X227825000Y-82791000D02*
X227076000Y-82042000D01*
D43*
X100825000Y-127508000D02*
X99822000Y-127508000D01*
D47*
X68313000Y-82296000D02*
X68313000Y-83820000D01*
D43*
X123190000Y-151638000D02*
X124714000Y-150114000D01*
X96300000Y-60994000D02*
X96266000Y-60960000D01*
X74448000Y-95758000D02*
X74676000Y-95758000D01*
D46*
X236847774Y-78112226D02*
X235966000Y-78994000D01*
X218212000Y-69114000D02*
X217678000Y-68580000D01*
D44*
X241287000Y-50038000D02*
X241287000Y-48514000D01*
X252476000Y-49657000D02*
X250558300Y-49657000D01*
D43*
X91694000Y-61227000D02*
X91694000Y-62484000D01*
D47*
X68313000Y-85344000D02*
X66802000Y-85344000D01*
D43*
X96300000Y-62167000D02*
X96300000Y-60994000D01*
X112014000Y-128270000D02*
X111760000Y-128016000D01*
X220980000Y-142240000D02*
X219964000Y-143256000D01*
D46*
X234696000Y-80277000D02*
X234606374Y-80277000D01*
D43*
X132067000Y-56388000D02*
X132067000Y-57153058D01*
X113271000Y-128270000D02*
X112014000Y-128270000D01*
D46*
X218694000Y-74676000D02*
X219710000Y-75692000D01*
D43*
X210312000Y-46355000D02*
X210312000Y-47828200D01*
X124206000Y-53785000D02*
X125730000Y-53785000D01*
D44*
X245249700Y-50927000D02*
X243459000Y-50927000D01*
X190982300Y-51054000D02*
X189725300Y-51054000D01*
D46*
X238773000Y-73533000D02*
X238773000Y-75057000D01*
X235712000Y-70358000D02*
X235204000Y-69850000D01*
D45*
X246634000Y-141986000D02*
X245364000Y-141986000D01*
D47*
X68313000Y-83820000D02*
X68313000Y-85344000D01*
D43*
X67576700Y-97282000D02*
X66548000Y-97282000D01*
X124143000Y-53785000D02*
X123444000Y-53086000D01*
D46*
X235712000Y-70485000D02*
X235712000Y-70358000D01*
D44*
X243459000Y-50927000D02*
X242824000Y-51562000D01*
D43*
X67576700Y-97282000D02*
X68567300Y-97282000D01*
D44*
X204838300Y-48641000D02*
X205473300Y-49276000D01*
D43*
X209042000Y-52578000D02*
X208801000Y-52578000D01*
X86669999Y-107819000D02*
X87761000Y-107819000D01*
X232664000Y-143002000D02*
X231902000Y-143002000D01*
D46*
X238773000Y-75197000D02*
X239776000Y-76200000D01*
D43*
X76200000Y-73660000D02*
X77470000Y-72390000D01*
X160274000Y-129540000D02*
X159512000Y-130302000D01*
D46*
X217424000Y-80073000D02*
X220535000Y-80073000D01*
D44*
X203555600Y-49911000D02*
X204838300Y-49911000D01*
D46*
X236847774Y-76802114D02*
X236847774Y-78112226D01*
D43*
X182372000Y-130302000D02*
X181610000Y-130302000D01*
D46*
X234963000Y-80277000D02*
X235915200Y-81229200D01*
D43*
X90361000Y-76708000D02*
X90361000Y-77279000D01*
X132067000Y-57153058D02*
X132351236Y-57437294D01*
D46*
X220535000Y-80073000D02*
X221234000Y-80772000D01*
D43*
X122745000Y-53785000D02*
X123444000Y-53086000D01*
D47*
X68313000Y-83820000D02*
X66802000Y-83820000D01*
D46*
X234696000Y-80277000D02*
X234963000Y-80277000D01*
D44*
X196202300Y-51181000D02*
X198247000Y-51181000D01*
X204838300Y-49911000D02*
X205473300Y-49276000D01*
D43*
X75996000Y-73660000D02*
X76200000Y-73660000D01*
D44*
X255791000Y-49784000D02*
X257047000Y-49784000D01*
D43*
X90361000Y-77279000D02*
X90170000Y-77470000D01*
D46*
X223279000Y-78232000D02*
X224282000Y-78232000D01*
X237935000Y-81026000D02*
X240792000Y-81026000D01*
D43*
X114795000Y-124193000D02*
X114554000Y-123952000D01*
X124714000Y-150114000D02*
X124968000Y-150114000D01*
D46*
X217424000Y-80073000D02*
X214934000Y-80073000D01*
D43*
X87761000Y-107819000D02*
X88392000Y-107188000D01*
D46*
X214630000Y-79954001D02*
X211582000Y-83002001D01*
X208788000Y-77978000D02*
X208534000Y-77724000D01*
D43*
X97536000Y-73406000D02*
X97282000Y-73406000D01*
X242075000Y-45466000D02*
X242316000Y-45466000D01*
D46*
X234188000Y-70472000D02*
X234582000Y-70472000D01*
D44*
X82029000Y-106439000D02*
X82550000Y-105918000D01*
D46*
X218212000Y-73152000D02*
X218212000Y-74676000D01*
D44*
X76454000Y-127267000D02*
X78981000Y-127267000D01*
D43*
X84328000Y-144886000D02*
X86106000Y-146664000D01*
D44*
X203555600Y-48641000D02*
X204838300Y-48641000D01*
X81534000Y-106439000D02*
X82029000Y-106439000D01*
D43*
X66535000Y-122695000D02*
X65786000Y-123444000D01*
D44*
X252349000Y-52197000D02*
X250558300Y-52197000D01*
X68072000Y-128778000D02*
X68072000Y-130556000D01*
D43*
X74448000Y-97308000D02*
X75692000Y-98552000D01*
X219964000Y-143256000D02*
X219202000Y-143256000D01*
D46*
X242583000Y-79235000D02*
X243586000Y-78232000D01*
D43*
X115075000Y-121920000D02*
X116210500Y-121920000D01*
X77216000Y-84315000D02*
X77203000Y-84315000D01*
D44*
X241300000Y-47244000D02*
X241287000Y-47257000D01*
D47*
X68313000Y-82296000D02*
X66802000Y-82296000D01*
D43*
X68072000Y-122936000D02*
X67310000Y-123698000D01*
D46*
X237490000Y-80581000D02*
X237935000Y-81026000D01*
D44*
X73215000Y-126555000D02*
X73152000Y-126555000D01*
D43*
X208039000Y-51816000D02*
X208039000Y-53340000D01*
D44*
X195906300Y-48641000D02*
X198247000Y-48641000D01*
D46*
X214630000Y-79769000D02*
X214630000Y-79954001D01*
D43*
X74676000Y-95758000D02*
X75692000Y-94742000D01*
X66548000Y-122695000D02*
X66535000Y-122695000D01*
D46*
X228587000Y-80518000D02*
X228346000Y-80518000D01*
D44*
X245249700Y-52197000D02*
X243459000Y-52197000D01*
X239458500Y-51371500D02*
X239522000Y-51308000D01*
D46*
X242583000Y-79248000D02*
X242583000Y-79235000D01*
D43*
X208801000Y-52578000D02*
X208039000Y-53340000D01*
X183642000Y-129032000D02*
X182372000Y-130302000D01*
X77216000Y-72136000D02*
X77470000Y-72390000D01*
%TO.N,Net-(T1-SHIELD1)*%
X74346000Y-80696000D02*
X74928000Y-81278000D01*
D47*
X74409000Y-66307000D02*
X74928000Y-65788000D01*
D43*
X74396000Y-72136000D02*
X74396000Y-66320000D01*
X74396000Y-66320000D02*
X74928000Y-65788000D01*
X74396000Y-72136000D02*
X74396000Y-73610000D01*
X74346000Y-73660000D02*
X74346000Y-80696000D01*
D47*
X74409000Y-80759000D02*
X74928000Y-81278000D01*
D43*
X74396000Y-73610000D02*
X74346000Y-73660000D01*
D46*
%TO.N,Net-(ADC2-REFB)*%
X215151000Y-74676000D02*
X215151000Y-73152000D01*
X215151000Y-73152000D02*
X215151000Y-71654000D01*
X215741905Y-76073000D02*
X215741905Y-75266905D01*
X215151000Y-71654000D02*
X215138000Y-71641000D01*
X215741905Y-75266905D02*
X215151000Y-74676000D01*
%TO.N,Net-(ADC2-RBIAS)*%
X217424000Y-76312422D02*
X217424000Y-78423000D01*
X217454400Y-76282022D02*
X217424000Y-76312422D01*
%TO.N,/SOM240_1(1.5)/FrameClk2-*%
X155995310Y-57237690D02*
X151618620Y-52861000D01*
X151618620Y-52861000D02*
X138082800Y-52861000D01*
X136777541Y-54166259D02*
X136777541Y-58401167D01*
X138082800Y-52861000D02*
X136777541Y-54166259D01*
%TO.N,/SOM240_1(1.5)/DataClk2-*%
X142574785Y-53877000D02*
X140551565Y-55900220D01*
X154210099Y-57879901D02*
X154210099Y-57879900D01*
X154210099Y-57879900D02*
X150207199Y-53877000D01*
X150207199Y-53877000D02*
X142574785Y-53877000D01*
X140551565Y-55900220D02*
X140551565Y-58276894D01*
%TO.N,/SOM240_1(1.5)/FrameClk2+*%
X155980190Y-58000389D02*
X155980190Y-58141810D01*
X137377101Y-58378134D02*
X137385001Y-58370234D01*
X137385001Y-58370234D02*
X137385001Y-54195199D01*
X138269200Y-53311000D02*
X151290801Y-53311000D01*
X137385001Y-54195199D02*
X138269200Y-53311000D01*
X151290801Y-53311000D02*
X155980190Y-58000389D01*
%TO.N,/SOM240_1(1.5)/DataClk2+*%
X142690471Y-54327000D02*
X141274800Y-55742671D01*
X149879380Y-54327000D02*
X142690471Y-54327000D01*
X141274800Y-55742671D02*
X141274800Y-58267600D01*
X154329190Y-58776810D02*
X149879380Y-54327000D01*
D43*
%TO.N,Net-(U6-EN)*%
X81768999Y-108469001D02*
X82419000Y-107819000D01*
X80970001Y-108469001D02*
X81768999Y-108469001D01*
X79502000Y-108204000D02*
X79767001Y-108469001D01*
X79502000Y-107950000D02*
X79502000Y-108204000D01*
X82419000Y-107819000D02*
X80970001Y-107819000D01*
X79767001Y-108469001D02*
X80970001Y-108469001D01*
%TD*%
M02*
