%TF.GenerationSoftware,KiCad,Pcbnew,8.0.5*%
%TF.CreationDate,2025-04-11T15:09:43-05:00*%
%TF.ProjectId,PSEC5_Ctrl_Board,50534543-355f-4437-9472-6c5f426f6172,rev?*%
%TF.SameCoordinates,Original*%
%TF.FileFunction,Legend,Bot*%
%TF.FilePolarity,Positive*%
%FSLAX46Y46*%
G04 Gerber Fmt 4.6, Leading zero omitted, Abs format (unit mm)*
G04 Created by KiCad (PCBNEW 8.0.5) date 2025-04-11 15:09:43*
%MOMM*%
%LPD*%
G01*
G04 APERTURE LIST*
%ADD10C,0.150000*%
%ADD11C,0.508000*%
%ADD12C,0.120000*%
%ADD13C,0.152400*%
%ADD14C,0.025400*%
%ADD15C,0.127000*%
%ADD16C,0.200000*%
%ADD17C,0.000000*%
G04 APERTURE END LIST*
D10*
X109640666Y-73733819D02*
X109973999Y-73257628D01*
X110212094Y-73733819D02*
X110212094Y-72733819D01*
X110212094Y-72733819D02*
X109831142Y-72733819D01*
X109831142Y-72733819D02*
X109735904Y-72781438D01*
X109735904Y-72781438D02*
X109688285Y-72829057D01*
X109688285Y-72829057D02*
X109640666Y-72924295D01*
X109640666Y-72924295D02*
X109640666Y-73067152D01*
X109640666Y-73067152D02*
X109688285Y-73162390D01*
X109688285Y-73162390D02*
X109735904Y-73210009D01*
X109735904Y-73210009D02*
X109831142Y-73257628D01*
X109831142Y-73257628D02*
X110212094Y-73257628D01*
X108735904Y-72733819D02*
X109212094Y-72733819D01*
X109212094Y-72733819D02*
X109259713Y-73210009D01*
X109259713Y-73210009D02*
X109212094Y-73162390D01*
X109212094Y-73162390D02*
X109116856Y-73114771D01*
X109116856Y-73114771D02*
X108878761Y-73114771D01*
X108878761Y-73114771D02*
X108783523Y-73162390D01*
X108783523Y-73162390D02*
X108735904Y-73210009D01*
X108735904Y-73210009D02*
X108688285Y-73305247D01*
X108688285Y-73305247D02*
X108688285Y-73543342D01*
X108688285Y-73543342D02*
X108735904Y-73638580D01*
X108735904Y-73638580D02*
X108783523Y-73686200D01*
X108783523Y-73686200D02*
X108878761Y-73733819D01*
X108878761Y-73733819D02*
X109116856Y-73733819D01*
X109116856Y-73733819D02*
X109212094Y-73686200D01*
X109212094Y-73686200D02*
X109259713Y-73638580D01*
X117768666Y-78051819D02*
X118101999Y-77575628D01*
X118340094Y-78051819D02*
X118340094Y-77051819D01*
X118340094Y-77051819D02*
X117959142Y-77051819D01*
X117959142Y-77051819D02*
X117863904Y-77099438D01*
X117863904Y-77099438D02*
X117816285Y-77147057D01*
X117816285Y-77147057D02*
X117768666Y-77242295D01*
X117768666Y-77242295D02*
X117768666Y-77385152D01*
X117768666Y-77385152D02*
X117816285Y-77480390D01*
X117816285Y-77480390D02*
X117863904Y-77528009D01*
X117863904Y-77528009D02*
X117959142Y-77575628D01*
X117959142Y-77575628D02*
X118340094Y-77575628D01*
X116816285Y-78051819D02*
X117387713Y-78051819D01*
X117101999Y-78051819D02*
X117101999Y-77051819D01*
X117101999Y-77051819D02*
X117197237Y-77194676D01*
X117197237Y-77194676D02*
X117292475Y-77289914D01*
X117292475Y-77289914D02*
X117387713Y-77337533D01*
X91828857Y-78686819D02*
X92162190Y-78210628D01*
X92400285Y-78686819D02*
X92400285Y-77686819D01*
X92400285Y-77686819D02*
X92019333Y-77686819D01*
X92019333Y-77686819D02*
X91924095Y-77734438D01*
X91924095Y-77734438D02*
X91876476Y-77782057D01*
X91876476Y-77782057D02*
X91828857Y-77877295D01*
X91828857Y-77877295D02*
X91828857Y-78020152D01*
X91828857Y-78020152D02*
X91876476Y-78115390D01*
X91876476Y-78115390D02*
X91924095Y-78163009D01*
X91924095Y-78163009D02*
X92019333Y-78210628D01*
X92019333Y-78210628D02*
X92400285Y-78210628D01*
X91257428Y-78115390D02*
X91352666Y-78067771D01*
X91352666Y-78067771D02*
X91400285Y-78020152D01*
X91400285Y-78020152D02*
X91447904Y-77924914D01*
X91447904Y-77924914D02*
X91447904Y-77877295D01*
X91447904Y-77877295D02*
X91400285Y-77782057D01*
X91400285Y-77782057D02*
X91352666Y-77734438D01*
X91352666Y-77734438D02*
X91257428Y-77686819D01*
X91257428Y-77686819D02*
X91066952Y-77686819D01*
X91066952Y-77686819D02*
X90971714Y-77734438D01*
X90971714Y-77734438D02*
X90924095Y-77782057D01*
X90924095Y-77782057D02*
X90876476Y-77877295D01*
X90876476Y-77877295D02*
X90876476Y-77924914D01*
X90876476Y-77924914D02*
X90924095Y-78020152D01*
X90924095Y-78020152D02*
X90971714Y-78067771D01*
X90971714Y-78067771D02*
X91066952Y-78115390D01*
X91066952Y-78115390D02*
X91257428Y-78115390D01*
X91257428Y-78115390D02*
X91352666Y-78163009D01*
X91352666Y-78163009D02*
X91400285Y-78210628D01*
X91400285Y-78210628D02*
X91447904Y-78305866D01*
X91447904Y-78305866D02*
X91447904Y-78496342D01*
X91447904Y-78496342D02*
X91400285Y-78591580D01*
X91400285Y-78591580D02*
X91352666Y-78639200D01*
X91352666Y-78639200D02*
X91257428Y-78686819D01*
X91257428Y-78686819D02*
X91066952Y-78686819D01*
X91066952Y-78686819D02*
X90971714Y-78639200D01*
X90971714Y-78639200D02*
X90924095Y-78591580D01*
X90924095Y-78591580D02*
X90876476Y-78496342D01*
X90876476Y-78496342D02*
X90876476Y-78305866D01*
X90876476Y-78305866D02*
X90924095Y-78210628D01*
X90924095Y-78210628D02*
X90971714Y-78163009D01*
X90971714Y-78163009D02*
X91066952Y-78115390D01*
X90019333Y-78020152D02*
X90019333Y-78686819D01*
X90257428Y-77639200D02*
X90495523Y-78353485D01*
X90495523Y-78353485D02*
X89876476Y-78353485D01*
X146946857Y-61319580D02*
X146994476Y-61367200D01*
X146994476Y-61367200D02*
X147137333Y-61414819D01*
X147137333Y-61414819D02*
X147232571Y-61414819D01*
X147232571Y-61414819D02*
X147375428Y-61367200D01*
X147375428Y-61367200D02*
X147470666Y-61271961D01*
X147470666Y-61271961D02*
X147518285Y-61176723D01*
X147518285Y-61176723D02*
X147565904Y-60986247D01*
X147565904Y-60986247D02*
X147565904Y-60843390D01*
X147565904Y-60843390D02*
X147518285Y-60652914D01*
X147518285Y-60652914D02*
X147470666Y-60557676D01*
X147470666Y-60557676D02*
X147375428Y-60462438D01*
X147375428Y-60462438D02*
X147232571Y-60414819D01*
X147232571Y-60414819D02*
X147137333Y-60414819D01*
X147137333Y-60414819D02*
X146994476Y-60462438D01*
X146994476Y-60462438D02*
X146946857Y-60510057D01*
X146613523Y-60414819D02*
X145946857Y-60414819D01*
X145946857Y-60414819D02*
X146375428Y-61414819D01*
X145042095Y-61414819D02*
X145613523Y-61414819D01*
X145327809Y-61414819D02*
X145327809Y-60414819D01*
X145327809Y-60414819D02*
X145423047Y-60557676D01*
X145423047Y-60557676D02*
X145518285Y-60652914D01*
X145518285Y-60652914D02*
X145613523Y-60700533D01*
X78337580Y-125849142D02*
X78385200Y-125801523D01*
X78385200Y-125801523D02*
X78432819Y-125658666D01*
X78432819Y-125658666D02*
X78432819Y-125563428D01*
X78432819Y-125563428D02*
X78385200Y-125420571D01*
X78385200Y-125420571D02*
X78289961Y-125325333D01*
X78289961Y-125325333D02*
X78194723Y-125277714D01*
X78194723Y-125277714D02*
X78004247Y-125230095D01*
X78004247Y-125230095D02*
X77861390Y-125230095D01*
X77861390Y-125230095D02*
X77670914Y-125277714D01*
X77670914Y-125277714D02*
X77575676Y-125325333D01*
X77575676Y-125325333D02*
X77480438Y-125420571D01*
X77480438Y-125420571D02*
X77432819Y-125563428D01*
X77432819Y-125563428D02*
X77432819Y-125658666D01*
X77432819Y-125658666D02*
X77480438Y-125801523D01*
X77480438Y-125801523D02*
X77528057Y-125849142D01*
X78432819Y-126325333D02*
X78432819Y-126515809D01*
X78432819Y-126515809D02*
X78385200Y-126611047D01*
X78385200Y-126611047D02*
X78337580Y-126658666D01*
X78337580Y-126658666D02*
X78194723Y-126753904D01*
X78194723Y-126753904D02*
X78004247Y-126801523D01*
X78004247Y-126801523D02*
X77623295Y-126801523D01*
X77623295Y-126801523D02*
X77528057Y-126753904D01*
X77528057Y-126753904D02*
X77480438Y-126706285D01*
X77480438Y-126706285D02*
X77432819Y-126611047D01*
X77432819Y-126611047D02*
X77432819Y-126420571D01*
X77432819Y-126420571D02*
X77480438Y-126325333D01*
X77480438Y-126325333D02*
X77528057Y-126277714D01*
X77528057Y-126277714D02*
X77623295Y-126230095D01*
X77623295Y-126230095D02*
X77861390Y-126230095D01*
X77861390Y-126230095D02*
X77956628Y-126277714D01*
X77956628Y-126277714D02*
X78004247Y-126325333D01*
X78004247Y-126325333D02*
X78051866Y-126420571D01*
X78051866Y-126420571D02*
X78051866Y-126611047D01*
X78051866Y-126611047D02*
X78004247Y-126706285D01*
X78004247Y-126706285D02*
X77956628Y-126753904D01*
X77956628Y-126753904D02*
X77861390Y-126801523D01*
X77766152Y-127658666D02*
X78432819Y-127658666D01*
X77385200Y-127420571D02*
X78099485Y-127182476D01*
X78099485Y-127182476D02*
X78099485Y-127801523D01*
X126092295Y-51428714D02*
X125711342Y-51162047D01*
X126092295Y-50971571D02*
X125292295Y-50971571D01*
X125292295Y-50971571D02*
X125292295Y-51276333D01*
X125292295Y-51276333D02*
X125330390Y-51352523D01*
X125330390Y-51352523D02*
X125368485Y-51390618D01*
X125368485Y-51390618D02*
X125444676Y-51428714D01*
X125444676Y-51428714D02*
X125558961Y-51428714D01*
X125558961Y-51428714D02*
X125635152Y-51390618D01*
X125635152Y-51390618D02*
X125673247Y-51352523D01*
X125673247Y-51352523D02*
X125711342Y-51276333D01*
X125711342Y-51276333D02*
X125711342Y-50971571D01*
X125292295Y-51695380D02*
X125292295Y-52228714D01*
X125292295Y-52228714D02*
X126092295Y-51885856D01*
X125292295Y-52914428D02*
X125292295Y-52533476D01*
X125292295Y-52533476D02*
X125673247Y-52495380D01*
X125673247Y-52495380D02*
X125635152Y-52533476D01*
X125635152Y-52533476D02*
X125597057Y-52609666D01*
X125597057Y-52609666D02*
X125597057Y-52800142D01*
X125597057Y-52800142D02*
X125635152Y-52876333D01*
X125635152Y-52876333D02*
X125673247Y-52914428D01*
X125673247Y-52914428D02*
X125749438Y-52952523D01*
X125749438Y-52952523D02*
X125939914Y-52952523D01*
X125939914Y-52952523D02*
X126016104Y-52914428D01*
X126016104Y-52914428D02*
X126054200Y-52876333D01*
X126054200Y-52876333D02*
X126092295Y-52800142D01*
X126092295Y-52800142D02*
X126092295Y-52609666D01*
X126092295Y-52609666D02*
X126054200Y-52533476D01*
X126054200Y-52533476D02*
X126016104Y-52495380D01*
X230131857Y-76686580D02*
X230179476Y-76734200D01*
X230179476Y-76734200D02*
X230322333Y-76781819D01*
X230322333Y-76781819D02*
X230417571Y-76781819D01*
X230417571Y-76781819D02*
X230560428Y-76734200D01*
X230560428Y-76734200D02*
X230655666Y-76638961D01*
X230655666Y-76638961D02*
X230703285Y-76543723D01*
X230703285Y-76543723D02*
X230750904Y-76353247D01*
X230750904Y-76353247D02*
X230750904Y-76210390D01*
X230750904Y-76210390D02*
X230703285Y-76019914D01*
X230703285Y-76019914D02*
X230655666Y-75924676D01*
X230655666Y-75924676D02*
X230560428Y-75829438D01*
X230560428Y-75829438D02*
X230417571Y-75781819D01*
X230417571Y-75781819D02*
X230322333Y-75781819D01*
X230322333Y-75781819D02*
X230179476Y-75829438D01*
X230179476Y-75829438D02*
X230131857Y-75877057D01*
X229655666Y-76781819D02*
X229465190Y-76781819D01*
X229465190Y-76781819D02*
X229369952Y-76734200D01*
X229369952Y-76734200D02*
X229322333Y-76686580D01*
X229322333Y-76686580D02*
X229227095Y-76543723D01*
X229227095Y-76543723D02*
X229179476Y-76353247D01*
X229179476Y-76353247D02*
X229179476Y-75972295D01*
X229179476Y-75972295D02*
X229227095Y-75877057D01*
X229227095Y-75877057D02*
X229274714Y-75829438D01*
X229274714Y-75829438D02*
X229369952Y-75781819D01*
X229369952Y-75781819D02*
X229560428Y-75781819D01*
X229560428Y-75781819D02*
X229655666Y-75829438D01*
X229655666Y-75829438D02*
X229703285Y-75877057D01*
X229703285Y-75877057D02*
X229750904Y-75972295D01*
X229750904Y-75972295D02*
X229750904Y-76210390D01*
X229750904Y-76210390D02*
X229703285Y-76305628D01*
X229703285Y-76305628D02*
X229655666Y-76353247D01*
X229655666Y-76353247D02*
X229560428Y-76400866D01*
X229560428Y-76400866D02*
X229369952Y-76400866D01*
X229369952Y-76400866D02*
X229274714Y-76353247D01*
X229274714Y-76353247D02*
X229227095Y-76305628D01*
X229227095Y-76305628D02*
X229179476Y-76210390D01*
X228703285Y-76781819D02*
X228512809Y-76781819D01*
X228512809Y-76781819D02*
X228417571Y-76734200D01*
X228417571Y-76734200D02*
X228369952Y-76686580D01*
X228369952Y-76686580D02*
X228274714Y-76543723D01*
X228274714Y-76543723D02*
X228227095Y-76353247D01*
X228227095Y-76353247D02*
X228227095Y-75972295D01*
X228227095Y-75972295D02*
X228274714Y-75877057D01*
X228274714Y-75877057D02*
X228322333Y-75829438D01*
X228322333Y-75829438D02*
X228417571Y-75781819D01*
X228417571Y-75781819D02*
X228608047Y-75781819D01*
X228608047Y-75781819D02*
X228703285Y-75829438D01*
X228703285Y-75829438D02*
X228750904Y-75877057D01*
X228750904Y-75877057D02*
X228798523Y-75972295D01*
X228798523Y-75972295D02*
X228798523Y-76210390D01*
X228798523Y-76210390D02*
X228750904Y-76305628D01*
X228750904Y-76305628D02*
X228703285Y-76353247D01*
X228703285Y-76353247D02*
X228608047Y-76400866D01*
X228608047Y-76400866D02*
X228417571Y-76400866D01*
X228417571Y-76400866D02*
X228322333Y-76353247D01*
X228322333Y-76353247D02*
X228274714Y-76305628D01*
X228274714Y-76305628D02*
X228227095Y-76210390D01*
X242673047Y-72368580D02*
X242720666Y-72416200D01*
X242720666Y-72416200D02*
X242863523Y-72463819D01*
X242863523Y-72463819D02*
X242958761Y-72463819D01*
X242958761Y-72463819D02*
X243101618Y-72416200D01*
X243101618Y-72416200D02*
X243196856Y-72320961D01*
X243196856Y-72320961D02*
X243244475Y-72225723D01*
X243244475Y-72225723D02*
X243292094Y-72035247D01*
X243292094Y-72035247D02*
X243292094Y-71892390D01*
X243292094Y-71892390D02*
X243244475Y-71701914D01*
X243244475Y-71701914D02*
X243196856Y-71606676D01*
X243196856Y-71606676D02*
X243101618Y-71511438D01*
X243101618Y-71511438D02*
X242958761Y-71463819D01*
X242958761Y-71463819D02*
X242863523Y-71463819D01*
X242863523Y-71463819D02*
X242720666Y-71511438D01*
X242720666Y-71511438D02*
X242673047Y-71559057D01*
X241720666Y-72463819D02*
X242292094Y-72463819D01*
X242006380Y-72463819D02*
X242006380Y-71463819D01*
X242006380Y-71463819D02*
X242101618Y-71606676D01*
X242101618Y-71606676D02*
X242196856Y-71701914D01*
X242196856Y-71701914D02*
X242292094Y-71749533D01*
X240768285Y-72463819D02*
X241339713Y-72463819D01*
X241053999Y-72463819D02*
X241053999Y-71463819D01*
X241053999Y-71463819D02*
X241149237Y-71606676D01*
X241149237Y-71606676D02*
X241244475Y-71701914D01*
X241244475Y-71701914D02*
X241339713Y-71749533D01*
X240434951Y-71463819D02*
X239768285Y-71463819D01*
X239768285Y-71463819D02*
X240196856Y-72463819D01*
X114942857Y-121009580D02*
X114990476Y-121057200D01*
X114990476Y-121057200D02*
X115133333Y-121104819D01*
X115133333Y-121104819D02*
X115228571Y-121104819D01*
X115228571Y-121104819D02*
X115371428Y-121057200D01*
X115371428Y-121057200D02*
X115466666Y-120961961D01*
X115466666Y-120961961D02*
X115514285Y-120866723D01*
X115514285Y-120866723D02*
X115561904Y-120676247D01*
X115561904Y-120676247D02*
X115561904Y-120533390D01*
X115561904Y-120533390D02*
X115514285Y-120342914D01*
X115514285Y-120342914D02*
X115466666Y-120247676D01*
X115466666Y-120247676D02*
X115371428Y-120152438D01*
X115371428Y-120152438D02*
X115228571Y-120104819D01*
X115228571Y-120104819D02*
X115133333Y-120104819D01*
X115133333Y-120104819D02*
X114990476Y-120152438D01*
X114990476Y-120152438D02*
X114942857Y-120200057D01*
X114371428Y-120533390D02*
X114466666Y-120485771D01*
X114466666Y-120485771D02*
X114514285Y-120438152D01*
X114514285Y-120438152D02*
X114561904Y-120342914D01*
X114561904Y-120342914D02*
X114561904Y-120295295D01*
X114561904Y-120295295D02*
X114514285Y-120200057D01*
X114514285Y-120200057D02*
X114466666Y-120152438D01*
X114466666Y-120152438D02*
X114371428Y-120104819D01*
X114371428Y-120104819D02*
X114180952Y-120104819D01*
X114180952Y-120104819D02*
X114085714Y-120152438D01*
X114085714Y-120152438D02*
X114038095Y-120200057D01*
X114038095Y-120200057D02*
X113990476Y-120295295D01*
X113990476Y-120295295D02*
X113990476Y-120342914D01*
X113990476Y-120342914D02*
X114038095Y-120438152D01*
X114038095Y-120438152D02*
X114085714Y-120485771D01*
X114085714Y-120485771D02*
X114180952Y-120533390D01*
X114180952Y-120533390D02*
X114371428Y-120533390D01*
X114371428Y-120533390D02*
X114466666Y-120581009D01*
X114466666Y-120581009D02*
X114514285Y-120628628D01*
X114514285Y-120628628D02*
X114561904Y-120723866D01*
X114561904Y-120723866D02*
X114561904Y-120914342D01*
X114561904Y-120914342D02*
X114514285Y-121009580D01*
X114514285Y-121009580D02*
X114466666Y-121057200D01*
X114466666Y-121057200D02*
X114371428Y-121104819D01*
X114371428Y-121104819D02*
X114180952Y-121104819D01*
X114180952Y-121104819D02*
X114085714Y-121057200D01*
X114085714Y-121057200D02*
X114038095Y-121009580D01*
X114038095Y-121009580D02*
X113990476Y-120914342D01*
X113990476Y-120914342D02*
X113990476Y-120723866D01*
X113990476Y-120723866D02*
X114038095Y-120628628D01*
X114038095Y-120628628D02*
X114085714Y-120581009D01*
X114085714Y-120581009D02*
X114180952Y-120533390D01*
X113657142Y-120104819D02*
X113038095Y-120104819D01*
X113038095Y-120104819D02*
X113371428Y-120485771D01*
X113371428Y-120485771D02*
X113228571Y-120485771D01*
X113228571Y-120485771D02*
X113133333Y-120533390D01*
X113133333Y-120533390D02*
X113085714Y-120581009D01*
X113085714Y-120581009D02*
X113038095Y-120676247D01*
X113038095Y-120676247D02*
X113038095Y-120914342D01*
X113038095Y-120914342D02*
X113085714Y-121009580D01*
X113085714Y-121009580D02*
X113133333Y-121057200D01*
X113133333Y-121057200D02*
X113228571Y-121104819D01*
X113228571Y-121104819D02*
X113514285Y-121104819D01*
X113514285Y-121104819D02*
X113609523Y-121057200D01*
X113609523Y-121057200D02*
X113657142Y-121009580D01*
X248665904Y-46190819D02*
X248665904Y-47000342D01*
X248665904Y-47000342D02*
X248618285Y-47095580D01*
X248618285Y-47095580D02*
X248570666Y-47143200D01*
X248570666Y-47143200D02*
X248475428Y-47190819D01*
X248475428Y-47190819D02*
X248284952Y-47190819D01*
X248284952Y-47190819D02*
X248189714Y-47143200D01*
X248189714Y-47143200D02*
X248142095Y-47095580D01*
X248142095Y-47095580D02*
X248094476Y-47000342D01*
X248094476Y-47000342D02*
X248094476Y-46190819D01*
X247475428Y-46619390D02*
X247570666Y-46571771D01*
X247570666Y-46571771D02*
X247618285Y-46524152D01*
X247618285Y-46524152D02*
X247665904Y-46428914D01*
X247665904Y-46428914D02*
X247665904Y-46381295D01*
X247665904Y-46381295D02*
X247618285Y-46286057D01*
X247618285Y-46286057D02*
X247570666Y-46238438D01*
X247570666Y-46238438D02*
X247475428Y-46190819D01*
X247475428Y-46190819D02*
X247284952Y-46190819D01*
X247284952Y-46190819D02*
X247189714Y-46238438D01*
X247189714Y-46238438D02*
X247142095Y-46286057D01*
X247142095Y-46286057D02*
X247094476Y-46381295D01*
X247094476Y-46381295D02*
X247094476Y-46428914D01*
X247094476Y-46428914D02*
X247142095Y-46524152D01*
X247142095Y-46524152D02*
X247189714Y-46571771D01*
X247189714Y-46571771D02*
X247284952Y-46619390D01*
X247284952Y-46619390D02*
X247475428Y-46619390D01*
X247475428Y-46619390D02*
X247570666Y-46667009D01*
X247570666Y-46667009D02*
X247618285Y-46714628D01*
X247618285Y-46714628D02*
X247665904Y-46809866D01*
X247665904Y-46809866D02*
X247665904Y-47000342D01*
X247665904Y-47000342D02*
X247618285Y-47095580D01*
X247618285Y-47095580D02*
X247570666Y-47143200D01*
X247570666Y-47143200D02*
X247475428Y-47190819D01*
X247475428Y-47190819D02*
X247284952Y-47190819D01*
X247284952Y-47190819D02*
X247189714Y-47143200D01*
X247189714Y-47143200D02*
X247142095Y-47095580D01*
X247142095Y-47095580D02*
X247094476Y-47000342D01*
X247094476Y-47000342D02*
X247094476Y-46809866D01*
X247094476Y-46809866D02*
X247142095Y-46714628D01*
X247142095Y-46714628D02*
X247189714Y-46667009D01*
X247189714Y-46667009D02*
X247284952Y-46619390D01*
X250812299Y-46140019D02*
X250812299Y-46378114D01*
X251050394Y-46282876D02*
X250812299Y-46378114D01*
X250812299Y-46378114D02*
X250574204Y-46282876D01*
X250955156Y-46568590D02*
X250812299Y-46378114D01*
X250812299Y-46378114D02*
X250669442Y-46568590D01*
X250812299Y-46140019D02*
X250812299Y-46378114D01*
X251050394Y-46282876D02*
X250812299Y-46378114D01*
X250812299Y-46378114D02*
X250574204Y-46282876D01*
X250955156Y-46568590D02*
X250812299Y-46378114D01*
X250812299Y-46378114D02*
X250669442Y-46568590D01*
X90623580Y-59809142D02*
X90671200Y-59761523D01*
X90671200Y-59761523D02*
X90718819Y-59618666D01*
X90718819Y-59618666D02*
X90718819Y-59523428D01*
X90718819Y-59523428D02*
X90671200Y-59380571D01*
X90671200Y-59380571D02*
X90575961Y-59285333D01*
X90575961Y-59285333D02*
X90480723Y-59237714D01*
X90480723Y-59237714D02*
X90290247Y-59190095D01*
X90290247Y-59190095D02*
X90147390Y-59190095D01*
X90147390Y-59190095D02*
X89956914Y-59237714D01*
X89956914Y-59237714D02*
X89861676Y-59285333D01*
X89861676Y-59285333D02*
X89766438Y-59380571D01*
X89766438Y-59380571D02*
X89718819Y-59523428D01*
X89718819Y-59523428D02*
X89718819Y-59618666D01*
X89718819Y-59618666D02*
X89766438Y-59761523D01*
X89766438Y-59761523D02*
X89814057Y-59809142D01*
X89718819Y-60666285D02*
X89718819Y-60475809D01*
X89718819Y-60475809D02*
X89766438Y-60380571D01*
X89766438Y-60380571D02*
X89814057Y-60332952D01*
X89814057Y-60332952D02*
X89956914Y-60237714D01*
X89956914Y-60237714D02*
X90147390Y-60190095D01*
X90147390Y-60190095D02*
X90528342Y-60190095D01*
X90528342Y-60190095D02*
X90623580Y-60237714D01*
X90623580Y-60237714D02*
X90671200Y-60285333D01*
X90671200Y-60285333D02*
X90718819Y-60380571D01*
X90718819Y-60380571D02*
X90718819Y-60571047D01*
X90718819Y-60571047D02*
X90671200Y-60666285D01*
X90671200Y-60666285D02*
X90623580Y-60713904D01*
X90623580Y-60713904D02*
X90528342Y-60761523D01*
X90528342Y-60761523D02*
X90290247Y-60761523D01*
X90290247Y-60761523D02*
X90195009Y-60713904D01*
X90195009Y-60713904D02*
X90147390Y-60666285D01*
X90147390Y-60666285D02*
X90099771Y-60571047D01*
X90099771Y-60571047D02*
X90099771Y-60380571D01*
X90099771Y-60380571D02*
X90147390Y-60285333D01*
X90147390Y-60285333D02*
X90195009Y-60237714D01*
X90195009Y-60237714D02*
X90290247Y-60190095D01*
X89718819Y-61380571D02*
X89718819Y-61475809D01*
X89718819Y-61475809D02*
X89766438Y-61571047D01*
X89766438Y-61571047D02*
X89814057Y-61618666D01*
X89814057Y-61618666D02*
X89909295Y-61666285D01*
X89909295Y-61666285D02*
X90099771Y-61713904D01*
X90099771Y-61713904D02*
X90337866Y-61713904D01*
X90337866Y-61713904D02*
X90528342Y-61666285D01*
X90528342Y-61666285D02*
X90623580Y-61618666D01*
X90623580Y-61618666D02*
X90671200Y-61571047D01*
X90671200Y-61571047D02*
X90718819Y-61475809D01*
X90718819Y-61475809D02*
X90718819Y-61380571D01*
X90718819Y-61380571D02*
X90671200Y-61285333D01*
X90671200Y-61285333D02*
X90623580Y-61237714D01*
X90623580Y-61237714D02*
X90528342Y-61190095D01*
X90528342Y-61190095D02*
X90337866Y-61142476D01*
X90337866Y-61142476D02*
X90099771Y-61142476D01*
X90099771Y-61142476D02*
X89909295Y-61190095D01*
X89909295Y-61190095D02*
X89814057Y-61237714D01*
X89814057Y-61237714D02*
X89766438Y-61285333D01*
X89766438Y-61285333D02*
X89718819Y-61380571D01*
X242704857Y-47349580D02*
X242752476Y-47397200D01*
X242752476Y-47397200D02*
X242895333Y-47444819D01*
X242895333Y-47444819D02*
X242990571Y-47444819D01*
X242990571Y-47444819D02*
X243133428Y-47397200D01*
X243133428Y-47397200D02*
X243228666Y-47301961D01*
X243228666Y-47301961D02*
X243276285Y-47206723D01*
X243276285Y-47206723D02*
X243323904Y-47016247D01*
X243323904Y-47016247D02*
X243323904Y-46873390D01*
X243323904Y-46873390D02*
X243276285Y-46682914D01*
X243276285Y-46682914D02*
X243228666Y-46587676D01*
X243228666Y-46587676D02*
X243133428Y-46492438D01*
X243133428Y-46492438D02*
X242990571Y-46444819D01*
X242990571Y-46444819D02*
X242895333Y-46444819D01*
X242895333Y-46444819D02*
X242752476Y-46492438D01*
X242752476Y-46492438D02*
X242704857Y-46540057D01*
X242371523Y-46444819D02*
X241752476Y-46444819D01*
X241752476Y-46444819D02*
X242085809Y-46825771D01*
X242085809Y-46825771D02*
X241942952Y-46825771D01*
X241942952Y-46825771D02*
X241847714Y-46873390D01*
X241847714Y-46873390D02*
X241800095Y-46921009D01*
X241800095Y-46921009D02*
X241752476Y-47016247D01*
X241752476Y-47016247D02*
X241752476Y-47254342D01*
X241752476Y-47254342D02*
X241800095Y-47349580D01*
X241800095Y-47349580D02*
X241847714Y-47397200D01*
X241847714Y-47397200D02*
X241942952Y-47444819D01*
X241942952Y-47444819D02*
X242228666Y-47444819D01*
X242228666Y-47444819D02*
X242323904Y-47397200D01*
X242323904Y-47397200D02*
X242371523Y-47349580D01*
X241371523Y-46540057D02*
X241323904Y-46492438D01*
X241323904Y-46492438D02*
X241228666Y-46444819D01*
X241228666Y-46444819D02*
X240990571Y-46444819D01*
X240990571Y-46444819D02*
X240895333Y-46492438D01*
X240895333Y-46492438D02*
X240847714Y-46540057D01*
X240847714Y-46540057D02*
X240800095Y-46635295D01*
X240800095Y-46635295D02*
X240800095Y-46730533D01*
X240800095Y-46730533D02*
X240847714Y-46873390D01*
X240847714Y-46873390D02*
X241419142Y-47444819D01*
X241419142Y-47444819D02*
X240800095Y-47444819D01*
X109513666Y-77162819D02*
X109846999Y-76686628D01*
X110085094Y-77162819D02*
X110085094Y-76162819D01*
X110085094Y-76162819D02*
X109704142Y-76162819D01*
X109704142Y-76162819D02*
X109608904Y-76210438D01*
X109608904Y-76210438D02*
X109561285Y-76258057D01*
X109561285Y-76258057D02*
X109513666Y-76353295D01*
X109513666Y-76353295D02*
X109513666Y-76496152D01*
X109513666Y-76496152D02*
X109561285Y-76591390D01*
X109561285Y-76591390D02*
X109608904Y-76639009D01*
X109608904Y-76639009D02*
X109704142Y-76686628D01*
X109704142Y-76686628D02*
X110085094Y-76686628D01*
X109180332Y-76162819D02*
X108513666Y-76162819D01*
X108513666Y-76162819D02*
X108942237Y-77162819D01*
X229846047Y-84687580D02*
X229893666Y-84735200D01*
X229893666Y-84735200D02*
X230036523Y-84782819D01*
X230036523Y-84782819D02*
X230131761Y-84782819D01*
X230131761Y-84782819D02*
X230274618Y-84735200D01*
X230274618Y-84735200D02*
X230369856Y-84639961D01*
X230369856Y-84639961D02*
X230417475Y-84544723D01*
X230417475Y-84544723D02*
X230465094Y-84354247D01*
X230465094Y-84354247D02*
X230465094Y-84211390D01*
X230465094Y-84211390D02*
X230417475Y-84020914D01*
X230417475Y-84020914D02*
X230369856Y-83925676D01*
X230369856Y-83925676D02*
X230274618Y-83830438D01*
X230274618Y-83830438D02*
X230131761Y-83782819D01*
X230131761Y-83782819D02*
X230036523Y-83782819D01*
X230036523Y-83782819D02*
X229893666Y-83830438D01*
X229893666Y-83830438D02*
X229846047Y-83878057D01*
X228893666Y-84782819D02*
X229465094Y-84782819D01*
X229179380Y-84782819D02*
X229179380Y-83782819D01*
X229179380Y-83782819D02*
X229274618Y-83925676D01*
X229274618Y-83925676D02*
X229369856Y-84020914D01*
X229369856Y-84020914D02*
X229465094Y-84068533D01*
X228274618Y-83782819D02*
X228179380Y-83782819D01*
X228179380Y-83782819D02*
X228084142Y-83830438D01*
X228084142Y-83830438D02*
X228036523Y-83878057D01*
X228036523Y-83878057D02*
X227988904Y-83973295D01*
X227988904Y-83973295D02*
X227941285Y-84163771D01*
X227941285Y-84163771D02*
X227941285Y-84401866D01*
X227941285Y-84401866D02*
X227988904Y-84592342D01*
X227988904Y-84592342D02*
X228036523Y-84687580D01*
X228036523Y-84687580D02*
X228084142Y-84735200D01*
X228084142Y-84735200D02*
X228179380Y-84782819D01*
X228179380Y-84782819D02*
X228274618Y-84782819D01*
X228274618Y-84782819D02*
X228369856Y-84735200D01*
X228369856Y-84735200D02*
X228417475Y-84687580D01*
X228417475Y-84687580D02*
X228465094Y-84592342D01*
X228465094Y-84592342D02*
X228512713Y-84401866D01*
X228512713Y-84401866D02*
X228512713Y-84163771D01*
X228512713Y-84163771D02*
X228465094Y-83973295D01*
X228465094Y-83973295D02*
X228417475Y-83878057D01*
X228417475Y-83878057D02*
X228369856Y-83830438D01*
X228369856Y-83830438D02*
X228274618Y-83782819D01*
X226988904Y-84782819D02*
X227560332Y-84782819D01*
X227274618Y-84782819D02*
X227274618Y-83782819D01*
X227274618Y-83782819D02*
X227369856Y-83925676D01*
X227369856Y-83925676D02*
X227465094Y-84020914D01*
X227465094Y-84020914D02*
X227560332Y-84068533D01*
X238329065Y-49438074D02*
X238966486Y-49438074D01*
X238966486Y-49438074D02*
X239041476Y-49475570D01*
X239041476Y-49475570D02*
X239078972Y-49513065D01*
X239078972Y-49513065D02*
X239116467Y-49588056D01*
X239116467Y-49588056D02*
X239116467Y-49738037D01*
X239116467Y-49738037D02*
X239078972Y-49813028D01*
X239078972Y-49813028D02*
X239041476Y-49850523D01*
X239041476Y-49850523D02*
X238966486Y-49888018D01*
X238966486Y-49888018D02*
X238329065Y-49888018D01*
X238591532Y-50600429D02*
X239116467Y-50600429D01*
X238291570Y-50412953D02*
X238854000Y-50225476D01*
X238854000Y-50225476D02*
X238854000Y-50712915D01*
X239129219Y-53594000D02*
X239367314Y-53594000D01*
X239272076Y-53355905D02*
X239367314Y-53594000D01*
X239367314Y-53594000D02*
X239272076Y-53832095D01*
X239557790Y-53451143D02*
X239367314Y-53594000D01*
X239367314Y-53594000D02*
X239557790Y-53736857D01*
X100433047Y-65985580D02*
X100480666Y-66033200D01*
X100480666Y-66033200D02*
X100623523Y-66080819D01*
X100623523Y-66080819D02*
X100718761Y-66080819D01*
X100718761Y-66080819D02*
X100861618Y-66033200D01*
X100861618Y-66033200D02*
X100956856Y-65937961D01*
X100956856Y-65937961D02*
X101004475Y-65842723D01*
X101004475Y-65842723D02*
X101052094Y-65652247D01*
X101052094Y-65652247D02*
X101052094Y-65509390D01*
X101052094Y-65509390D02*
X101004475Y-65318914D01*
X101004475Y-65318914D02*
X100956856Y-65223676D01*
X100956856Y-65223676D02*
X100861618Y-65128438D01*
X100861618Y-65128438D02*
X100718761Y-65080819D01*
X100718761Y-65080819D02*
X100623523Y-65080819D01*
X100623523Y-65080819D02*
X100480666Y-65128438D01*
X100480666Y-65128438D02*
X100433047Y-65176057D01*
X99480666Y-66080819D02*
X100052094Y-66080819D01*
X99766380Y-66080819D02*
X99766380Y-65080819D01*
X99766380Y-65080819D02*
X99861618Y-65223676D01*
X99861618Y-65223676D02*
X99956856Y-65318914D01*
X99956856Y-65318914D02*
X100052094Y-65366533D01*
X98575904Y-65080819D02*
X99052094Y-65080819D01*
X99052094Y-65080819D02*
X99099713Y-65557009D01*
X99099713Y-65557009D02*
X99052094Y-65509390D01*
X99052094Y-65509390D02*
X98956856Y-65461771D01*
X98956856Y-65461771D02*
X98718761Y-65461771D01*
X98718761Y-65461771D02*
X98623523Y-65509390D01*
X98623523Y-65509390D02*
X98575904Y-65557009D01*
X98575904Y-65557009D02*
X98528285Y-65652247D01*
X98528285Y-65652247D02*
X98528285Y-65890342D01*
X98528285Y-65890342D02*
X98575904Y-65985580D01*
X98575904Y-65985580D02*
X98623523Y-66033200D01*
X98623523Y-66033200D02*
X98718761Y-66080819D01*
X98718761Y-66080819D02*
X98956856Y-66080819D01*
X98956856Y-66080819D02*
X99052094Y-66033200D01*
X99052094Y-66033200D02*
X99099713Y-65985580D01*
X97623523Y-65080819D02*
X98099713Y-65080819D01*
X98099713Y-65080819D02*
X98147332Y-65557009D01*
X98147332Y-65557009D02*
X98099713Y-65509390D01*
X98099713Y-65509390D02*
X98004475Y-65461771D01*
X98004475Y-65461771D02*
X97766380Y-65461771D01*
X97766380Y-65461771D02*
X97671142Y-65509390D01*
X97671142Y-65509390D02*
X97623523Y-65557009D01*
X97623523Y-65557009D02*
X97575904Y-65652247D01*
X97575904Y-65652247D02*
X97575904Y-65890342D01*
X97575904Y-65890342D02*
X97623523Y-65985580D01*
X97623523Y-65985580D02*
X97671142Y-66033200D01*
X97671142Y-66033200D02*
X97766380Y-66080819D01*
X97766380Y-66080819D02*
X98004475Y-66080819D01*
X98004475Y-66080819D02*
X98099713Y-66033200D01*
X98099713Y-66033200D02*
X98147332Y-65985580D01*
X117895666Y-76400819D02*
X118228999Y-75924628D01*
X118467094Y-76400819D02*
X118467094Y-75400819D01*
X118467094Y-75400819D02*
X118086142Y-75400819D01*
X118086142Y-75400819D02*
X117990904Y-75448438D01*
X117990904Y-75448438D02*
X117943285Y-75496057D01*
X117943285Y-75496057D02*
X117895666Y-75591295D01*
X117895666Y-75591295D02*
X117895666Y-75734152D01*
X117895666Y-75734152D02*
X117943285Y-75829390D01*
X117943285Y-75829390D02*
X117990904Y-75877009D01*
X117990904Y-75877009D02*
X118086142Y-75924628D01*
X118086142Y-75924628D02*
X118467094Y-75924628D01*
X117562332Y-75400819D02*
X116943285Y-75400819D01*
X116943285Y-75400819D02*
X117276618Y-75781771D01*
X117276618Y-75781771D02*
X117133761Y-75781771D01*
X117133761Y-75781771D02*
X117038523Y-75829390D01*
X117038523Y-75829390D02*
X116990904Y-75877009D01*
X116990904Y-75877009D02*
X116943285Y-75972247D01*
X116943285Y-75972247D02*
X116943285Y-76210342D01*
X116943285Y-76210342D02*
X116990904Y-76305580D01*
X116990904Y-76305580D02*
X117038523Y-76353200D01*
X117038523Y-76353200D02*
X117133761Y-76400819D01*
X117133761Y-76400819D02*
X117419475Y-76400819D01*
X117419475Y-76400819D02*
X117514713Y-76353200D01*
X117514713Y-76353200D02*
X117562332Y-76305580D01*
X121520295Y-51428714D02*
X121139342Y-51162047D01*
X121520295Y-50971571D02*
X120720295Y-50971571D01*
X120720295Y-50971571D02*
X120720295Y-51276333D01*
X120720295Y-51276333D02*
X120758390Y-51352523D01*
X120758390Y-51352523D02*
X120796485Y-51390618D01*
X120796485Y-51390618D02*
X120872676Y-51428714D01*
X120872676Y-51428714D02*
X120986961Y-51428714D01*
X120986961Y-51428714D02*
X121063152Y-51390618D01*
X121063152Y-51390618D02*
X121101247Y-51352523D01*
X121101247Y-51352523D02*
X121139342Y-51276333D01*
X121139342Y-51276333D02*
X121139342Y-50971571D01*
X120720295Y-51695380D02*
X120720295Y-52228714D01*
X120720295Y-52228714D02*
X121520295Y-51885856D01*
X120720295Y-52685857D02*
X120720295Y-52762047D01*
X120720295Y-52762047D02*
X120758390Y-52838238D01*
X120758390Y-52838238D02*
X120796485Y-52876333D01*
X120796485Y-52876333D02*
X120872676Y-52914428D01*
X120872676Y-52914428D02*
X121025057Y-52952523D01*
X121025057Y-52952523D02*
X121215533Y-52952523D01*
X121215533Y-52952523D02*
X121367914Y-52914428D01*
X121367914Y-52914428D02*
X121444104Y-52876333D01*
X121444104Y-52876333D02*
X121482200Y-52838238D01*
X121482200Y-52838238D02*
X121520295Y-52762047D01*
X121520295Y-52762047D02*
X121520295Y-52685857D01*
X121520295Y-52685857D02*
X121482200Y-52609666D01*
X121482200Y-52609666D02*
X121444104Y-52571571D01*
X121444104Y-52571571D02*
X121367914Y-52533476D01*
X121367914Y-52533476D02*
X121215533Y-52495380D01*
X121215533Y-52495380D02*
X121025057Y-52495380D01*
X121025057Y-52495380D02*
X120872676Y-52533476D01*
X120872676Y-52533476D02*
X120796485Y-52571571D01*
X120796485Y-52571571D02*
X120758390Y-52609666D01*
X120758390Y-52609666D02*
X120720295Y-52685857D01*
X75130819Y-123817142D02*
X74654628Y-123483809D01*
X75130819Y-123245714D02*
X74130819Y-123245714D01*
X74130819Y-123245714D02*
X74130819Y-123626666D01*
X74130819Y-123626666D02*
X74178438Y-123721904D01*
X74178438Y-123721904D02*
X74226057Y-123769523D01*
X74226057Y-123769523D02*
X74321295Y-123817142D01*
X74321295Y-123817142D02*
X74464152Y-123817142D01*
X74464152Y-123817142D02*
X74559390Y-123769523D01*
X74559390Y-123769523D02*
X74607009Y-123721904D01*
X74607009Y-123721904D02*
X74654628Y-123626666D01*
X74654628Y-123626666D02*
X74654628Y-123245714D01*
X74130819Y-124721904D02*
X74130819Y-124245714D01*
X74130819Y-124245714D02*
X74607009Y-124198095D01*
X74607009Y-124198095D02*
X74559390Y-124245714D01*
X74559390Y-124245714D02*
X74511771Y-124340952D01*
X74511771Y-124340952D02*
X74511771Y-124579047D01*
X74511771Y-124579047D02*
X74559390Y-124674285D01*
X74559390Y-124674285D02*
X74607009Y-124721904D01*
X74607009Y-124721904D02*
X74702247Y-124769523D01*
X74702247Y-124769523D02*
X74940342Y-124769523D01*
X74940342Y-124769523D02*
X75035580Y-124721904D01*
X75035580Y-124721904D02*
X75083200Y-124674285D01*
X75083200Y-124674285D02*
X75130819Y-124579047D01*
X75130819Y-124579047D02*
X75130819Y-124340952D01*
X75130819Y-124340952D02*
X75083200Y-124245714D01*
X75083200Y-124245714D02*
X75035580Y-124198095D01*
X74559390Y-125340952D02*
X74511771Y-125245714D01*
X74511771Y-125245714D02*
X74464152Y-125198095D01*
X74464152Y-125198095D02*
X74368914Y-125150476D01*
X74368914Y-125150476D02*
X74321295Y-125150476D01*
X74321295Y-125150476D02*
X74226057Y-125198095D01*
X74226057Y-125198095D02*
X74178438Y-125245714D01*
X74178438Y-125245714D02*
X74130819Y-125340952D01*
X74130819Y-125340952D02*
X74130819Y-125531428D01*
X74130819Y-125531428D02*
X74178438Y-125626666D01*
X74178438Y-125626666D02*
X74226057Y-125674285D01*
X74226057Y-125674285D02*
X74321295Y-125721904D01*
X74321295Y-125721904D02*
X74368914Y-125721904D01*
X74368914Y-125721904D02*
X74464152Y-125674285D01*
X74464152Y-125674285D02*
X74511771Y-125626666D01*
X74511771Y-125626666D02*
X74559390Y-125531428D01*
X74559390Y-125531428D02*
X74559390Y-125340952D01*
X74559390Y-125340952D02*
X74607009Y-125245714D01*
X74607009Y-125245714D02*
X74654628Y-125198095D01*
X74654628Y-125198095D02*
X74749866Y-125150476D01*
X74749866Y-125150476D02*
X74940342Y-125150476D01*
X74940342Y-125150476D02*
X75035580Y-125198095D01*
X75035580Y-125198095D02*
X75083200Y-125245714D01*
X75083200Y-125245714D02*
X75130819Y-125340952D01*
X75130819Y-125340952D02*
X75130819Y-125531428D01*
X75130819Y-125531428D02*
X75083200Y-125626666D01*
X75083200Y-125626666D02*
X75035580Y-125674285D01*
X75035580Y-125674285D02*
X74940342Y-125721904D01*
X74940342Y-125721904D02*
X74749866Y-125721904D01*
X74749866Y-125721904D02*
X74654628Y-125674285D01*
X74654628Y-125674285D02*
X74607009Y-125626666D01*
X74607009Y-125626666D02*
X74559390Y-125531428D01*
X72269285Y-85630104D02*
X72307381Y-85668200D01*
X72307381Y-85668200D02*
X72421666Y-85706295D01*
X72421666Y-85706295D02*
X72497857Y-85706295D01*
X72497857Y-85706295D02*
X72612143Y-85668200D01*
X72612143Y-85668200D02*
X72688333Y-85592009D01*
X72688333Y-85592009D02*
X72726428Y-85515819D01*
X72726428Y-85515819D02*
X72764524Y-85363438D01*
X72764524Y-85363438D02*
X72764524Y-85249152D01*
X72764524Y-85249152D02*
X72726428Y-85096771D01*
X72726428Y-85096771D02*
X72688333Y-85020580D01*
X72688333Y-85020580D02*
X72612143Y-84944390D01*
X72612143Y-84944390D02*
X72497857Y-84906295D01*
X72497857Y-84906295D02*
X72421666Y-84906295D01*
X72421666Y-84906295D02*
X72307381Y-84944390D01*
X72307381Y-84944390D02*
X72269285Y-84982485D01*
X71545476Y-84906295D02*
X71926428Y-84906295D01*
X71926428Y-84906295D02*
X71964524Y-85287247D01*
X71964524Y-85287247D02*
X71926428Y-85249152D01*
X71926428Y-85249152D02*
X71850238Y-85211057D01*
X71850238Y-85211057D02*
X71659762Y-85211057D01*
X71659762Y-85211057D02*
X71583571Y-85249152D01*
X71583571Y-85249152D02*
X71545476Y-85287247D01*
X71545476Y-85287247D02*
X71507381Y-85363438D01*
X71507381Y-85363438D02*
X71507381Y-85553914D01*
X71507381Y-85553914D02*
X71545476Y-85630104D01*
X71545476Y-85630104D02*
X71583571Y-85668200D01*
X71583571Y-85668200D02*
X71659762Y-85706295D01*
X71659762Y-85706295D02*
X71850238Y-85706295D01*
X71850238Y-85706295D02*
X71926428Y-85668200D01*
X71926428Y-85668200D02*
X71964524Y-85630104D01*
X71240714Y-84906295D02*
X70745476Y-84906295D01*
X70745476Y-84906295D02*
X71012142Y-85211057D01*
X71012142Y-85211057D02*
X70897857Y-85211057D01*
X70897857Y-85211057D02*
X70821666Y-85249152D01*
X70821666Y-85249152D02*
X70783571Y-85287247D01*
X70783571Y-85287247D02*
X70745476Y-85363438D01*
X70745476Y-85363438D02*
X70745476Y-85553914D01*
X70745476Y-85553914D02*
X70783571Y-85630104D01*
X70783571Y-85630104D02*
X70821666Y-85668200D01*
X70821666Y-85668200D02*
X70897857Y-85706295D01*
X70897857Y-85706295D02*
X71126428Y-85706295D01*
X71126428Y-85706295D02*
X71202619Y-85668200D01*
X71202619Y-85668200D02*
X71240714Y-85630104D01*
X215497580Y-67175142D02*
X215545200Y-67127523D01*
X215545200Y-67127523D02*
X215592819Y-66984666D01*
X215592819Y-66984666D02*
X215592819Y-66889428D01*
X215592819Y-66889428D02*
X215545200Y-66746571D01*
X215545200Y-66746571D02*
X215449961Y-66651333D01*
X215449961Y-66651333D02*
X215354723Y-66603714D01*
X215354723Y-66603714D02*
X215164247Y-66556095D01*
X215164247Y-66556095D02*
X215021390Y-66556095D01*
X215021390Y-66556095D02*
X214830914Y-66603714D01*
X214830914Y-66603714D02*
X214735676Y-66651333D01*
X214735676Y-66651333D02*
X214640438Y-66746571D01*
X214640438Y-66746571D02*
X214592819Y-66889428D01*
X214592819Y-66889428D02*
X214592819Y-66984666D01*
X214592819Y-66984666D02*
X214640438Y-67127523D01*
X214640438Y-67127523D02*
X214688057Y-67175142D01*
X214592819Y-67508476D02*
X214592819Y-68127523D01*
X214592819Y-68127523D02*
X214973771Y-67794190D01*
X214973771Y-67794190D02*
X214973771Y-67937047D01*
X214973771Y-67937047D02*
X215021390Y-68032285D01*
X215021390Y-68032285D02*
X215069009Y-68079904D01*
X215069009Y-68079904D02*
X215164247Y-68127523D01*
X215164247Y-68127523D02*
X215402342Y-68127523D01*
X215402342Y-68127523D02*
X215497580Y-68079904D01*
X215497580Y-68079904D02*
X215545200Y-68032285D01*
X215545200Y-68032285D02*
X215592819Y-67937047D01*
X215592819Y-67937047D02*
X215592819Y-67651333D01*
X215592819Y-67651333D02*
X215545200Y-67556095D01*
X215545200Y-67556095D02*
X215497580Y-67508476D01*
X215021390Y-68698952D02*
X214973771Y-68603714D01*
X214973771Y-68603714D02*
X214926152Y-68556095D01*
X214926152Y-68556095D02*
X214830914Y-68508476D01*
X214830914Y-68508476D02*
X214783295Y-68508476D01*
X214783295Y-68508476D02*
X214688057Y-68556095D01*
X214688057Y-68556095D02*
X214640438Y-68603714D01*
X214640438Y-68603714D02*
X214592819Y-68698952D01*
X214592819Y-68698952D02*
X214592819Y-68889428D01*
X214592819Y-68889428D02*
X214640438Y-68984666D01*
X214640438Y-68984666D02*
X214688057Y-69032285D01*
X214688057Y-69032285D02*
X214783295Y-69079904D01*
X214783295Y-69079904D02*
X214830914Y-69079904D01*
X214830914Y-69079904D02*
X214926152Y-69032285D01*
X214926152Y-69032285D02*
X214973771Y-68984666D01*
X214973771Y-68984666D02*
X215021390Y-68889428D01*
X215021390Y-68889428D02*
X215021390Y-68698952D01*
X215021390Y-68698952D02*
X215069009Y-68603714D01*
X215069009Y-68603714D02*
X215116628Y-68556095D01*
X215116628Y-68556095D02*
X215211866Y-68508476D01*
X215211866Y-68508476D02*
X215402342Y-68508476D01*
X215402342Y-68508476D02*
X215497580Y-68556095D01*
X215497580Y-68556095D02*
X215545200Y-68603714D01*
X215545200Y-68603714D02*
X215592819Y-68698952D01*
X215592819Y-68698952D02*
X215592819Y-68889428D01*
X215592819Y-68889428D02*
X215545200Y-68984666D01*
X215545200Y-68984666D02*
X215497580Y-69032285D01*
X215497580Y-69032285D02*
X215402342Y-69079904D01*
X215402342Y-69079904D02*
X215211866Y-69079904D01*
X215211866Y-69079904D02*
X215116628Y-69032285D01*
X215116628Y-69032285D02*
X215069009Y-68984666D01*
X215069009Y-68984666D02*
X215021390Y-68889428D01*
X207906857Y-50651580D02*
X207954476Y-50699200D01*
X207954476Y-50699200D02*
X208097333Y-50746819D01*
X208097333Y-50746819D02*
X208192571Y-50746819D01*
X208192571Y-50746819D02*
X208335428Y-50699200D01*
X208335428Y-50699200D02*
X208430666Y-50603961D01*
X208430666Y-50603961D02*
X208478285Y-50508723D01*
X208478285Y-50508723D02*
X208525904Y-50318247D01*
X208525904Y-50318247D02*
X208525904Y-50175390D01*
X208525904Y-50175390D02*
X208478285Y-49984914D01*
X208478285Y-49984914D02*
X208430666Y-49889676D01*
X208430666Y-49889676D02*
X208335428Y-49794438D01*
X208335428Y-49794438D02*
X208192571Y-49746819D01*
X208192571Y-49746819D02*
X208097333Y-49746819D01*
X208097333Y-49746819D02*
X207954476Y-49794438D01*
X207954476Y-49794438D02*
X207906857Y-49842057D01*
X207430666Y-50746819D02*
X207240190Y-50746819D01*
X207240190Y-50746819D02*
X207144952Y-50699200D01*
X207144952Y-50699200D02*
X207097333Y-50651580D01*
X207097333Y-50651580D02*
X207002095Y-50508723D01*
X207002095Y-50508723D02*
X206954476Y-50318247D01*
X206954476Y-50318247D02*
X206954476Y-49937295D01*
X206954476Y-49937295D02*
X207002095Y-49842057D01*
X207002095Y-49842057D02*
X207049714Y-49794438D01*
X207049714Y-49794438D02*
X207144952Y-49746819D01*
X207144952Y-49746819D02*
X207335428Y-49746819D01*
X207335428Y-49746819D02*
X207430666Y-49794438D01*
X207430666Y-49794438D02*
X207478285Y-49842057D01*
X207478285Y-49842057D02*
X207525904Y-49937295D01*
X207525904Y-49937295D02*
X207525904Y-50175390D01*
X207525904Y-50175390D02*
X207478285Y-50270628D01*
X207478285Y-50270628D02*
X207430666Y-50318247D01*
X207430666Y-50318247D02*
X207335428Y-50365866D01*
X207335428Y-50365866D02*
X207144952Y-50365866D01*
X207144952Y-50365866D02*
X207049714Y-50318247D01*
X207049714Y-50318247D02*
X207002095Y-50270628D01*
X207002095Y-50270628D02*
X206954476Y-50175390D01*
X206335428Y-49746819D02*
X206240190Y-49746819D01*
X206240190Y-49746819D02*
X206144952Y-49794438D01*
X206144952Y-49794438D02*
X206097333Y-49842057D01*
X206097333Y-49842057D02*
X206049714Y-49937295D01*
X206049714Y-49937295D02*
X206002095Y-50127771D01*
X206002095Y-50127771D02*
X206002095Y-50365866D01*
X206002095Y-50365866D02*
X206049714Y-50556342D01*
X206049714Y-50556342D02*
X206097333Y-50651580D01*
X206097333Y-50651580D02*
X206144952Y-50699200D01*
X206144952Y-50699200D02*
X206240190Y-50746819D01*
X206240190Y-50746819D02*
X206335428Y-50746819D01*
X206335428Y-50746819D02*
X206430666Y-50699200D01*
X206430666Y-50699200D02*
X206478285Y-50651580D01*
X206478285Y-50651580D02*
X206525904Y-50556342D01*
X206525904Y-50556342D02*
X206573523Y-50365866D01*
X206573523Y-50365866D02*
X206573523Y-50127771D01*
X206573523Y-50127771D02*
X206525904Y-49937295D01*
X206525904Y-49937295D02*
X206478285Y-49842057D01*
X206478285Y-49842057D02*
X206430666Y-49794438D01*
X206430666Y-49794438D02*
X206335428Y-49746819D01*
X74429857Y-99292580D02*
X74477476Y-99340200D01*
X74477476Y-99340200D02*
X74620333Y-99387819D01*
X74620333Y-99387819D02*
X74715571Y-99387819D01*
X74715571Y-99387819D02*
X74858428Y-99340200D01*
X74858428Y-99340200D02*
X74953666Y-99244961D01*
X74953666Y-99244961D02*
X75001285Y-99149723D01*
X75001285Y-99149723D02*
X75048904Y-98959247D01*
X75048904Y-98959247D02*
X75048904Y-98816390D01*
X75048904Y-98816390D02*
X75001285Y-98625914D01*
X75001285Y-98625914D02*
X74953666Y-98530676D01*
X74953666Y-98530676D02*
X74858428Y-98435438D01*
X74858428Y-98435438D02*
X74715571Y-98387819D01*
X74715571Y-98387819D02*
X74620333Y-98387819D01*
X74620333Y-98387819D02*
X74477476Y-98435438D01*
X74477476Y-98435438D02*
X74429857Y-98483057D01*
X73572714Y-98387819D02*
X73763190Y-98387819D01*
X73763190Y-98387819D02*
X73858428Y-98435438D01*
X73858428Y-98435438D02*
X73906047Y-98483057D01*
X73906047Y-98483057D02*
X74001285Y-98625914D01*
X74001285Y-98625914D02*
X74048904Y-98816390D01*
X74048904Y-98816390D02*
X74048904Y-99197342D01*
X74048904Y-99197342D02*
X74001285Y-99292580D01*
X74001285Y-99292580D02*
X73953666Y-99340200D01*
X73953666Y-99340200D02*
X73858428Y-99387819D01*
X73858428Y-99387819D02*
X73667952Y-99387819D01*
X73667952Y-99387819D02*
X73572714Y-99340200D01*
X73572714Y-99340200D02*
X73525095Y-99292580D01*
X73525095Y-99292580D02*
X73477476Y-99197342D01*
X73477476Y-99197342D02*
X73477476Y-98959247D01*
X73477476Y-98959247D02*
X73525095Y-98864009D01*
X73525095Y-98864009D02*
X73572714Y-98816390D01*
X73572714Y-98816390D02*
X73667952Y-98768771D01*
X73667952Y-98768771D02*
X73858428Y-98768771D01*
X73858428Y-98768771D02*
X73953666Y-98816390D01*
X73953666Y-98816390D02*
X74001285Y-98864009D01*
X74001285Y-98864009D02*
X74048904Y-98959247D01*
X73001285Y-99387819D02*
X72810809Y-99387819D01*
X72810809Y-99387819D02*
X72715571Y-99340200D01*
X72715571Y-99340200D02*
X72667952Y-99292580D01*
X72667952Y-99292580D02*
X72572714Y-99149723D01*
X72572714Y-99149723D02*
X72525095Y-98959247D01*
X72525095Y-98959247D02*
X72525095Y-98578295D01*
X72525095Y-98578295D02*
X72572714Y-98483057D01*
X72572714Y-98483057D02*
X72620333Y-98435438D01*
X72620333Y-98435438D02*
X72715571Y-98387819D01*
X72715571Y-98387819D02*
X72906047Y-98387819D01*
X72906047Y-98387819D02*
X73001285Y-98435438D01*
X73001285Y-98435438D02*
X73048904Y-98483057D01*
X73048904Y-98483057D02*
X73096523Y-98578295D01*
X73096523Y-98578295D02*
X73096523Y-98816390D01*
X73096523Y-98816390D02*
X73048904Y-98911628D01*
X73048904Y-98911628D02*
X73001285Y-98959247D01*
X73001285Y-98959247D02*
X72906047Y-99006866D01*
X72906047Y-99006866D02*
X72715571Y-99006866D01*
X72715571Y-99006866D02*
X72620333Y-98959247D01*
X72620333Y-98959247D02*
X72572714Y-98911628D01*
X72572714Y-98911628D02*
X72525095Y-98816390D01*
X66198761Y-129243942D02*
X66103523Y-129291561D01*
X66103523Y-129291561D02*
X66008285Y-129386800D01*
X66008285Y-129386800D02*
X65865428Y-129529657D01*
X65865428Y-129529657D02*
X65770190Y-129577276D01*
X65770190Y-129577276D02*
X65674952Y-129577276D01*
X65722571Y-129339180D02*
X65627333Y-129386800D01*
X65627333Y-129386800D02*
X65532095Y-129482038D01*
X65532095Y-129482038D02*
X65484476Y-129672514D01*
X65484476Y-129672514D02*
X65484476Y-130005847D01*
X65484476Y-130005847D02*
X65532095Y-130196323D01*
X65532095Y-130196323D02*
X65627333Y-130291561D01*
X65627333Y-130291561D02*
X65722571Y-130339180D01*
X65722571Y-130339180D02*
X65913047Y-130339180D01*
X65913047Y-130339180D02*
X66008285Y-130291561D01*
X66008285Y-130291561D02*
X66103523Y-130196323D01*
X66103523Y-130196323D02*
X66151142Y-130005847D01*
X66151142Y-130005847D02*
X66151142Y-129672514D01*
X66151142Y-129672514D02*
X66103523Y-129482038D01*
X66103523Y-129482038D02*
X66008285Y-129386800D01*
X66008285Y-129386800D02*
X65913047Y-129339180D01*
X65913047Y-129339180D02*
X65722571Y-129339180D01*
X67008285Y-130005847D02*
X67008285Y-129339180D01*
X66770190Y-130386800D02*
X66532095Y-129672514D01*
X66532095Y-129672514D02*
X67151142Y-129672514D01*
X214989580Y-81430952D02*
X215037200Y-81383333D01*
X215037200Y-81383333D02*
X215084819Y-81240476D01*
X215084819Y-81240476D02*
X215084819Y-81145238D01*
X215084819Y-81145238D02*
X215037200Y-81002381D01*
X215037200Y-81002381D02*
X214941961Y-80907143D01*
X214941961Y-80907143D02*
X214846723Y-80859524D01*
X214846723Y-80859524D02*
X214656247Y-80811905D01*
X214656247Y-80811905D02*
X214513390Y-80811905D01*
X214513390Y-80811905D02*
X214322914Y-80859524D01*
X214322914Y-80859524D02*
X214227676Y-80907143D01*
X214227676Y-80907143D02*
X214132438Y-81002381D01*
X214132438Y-81002381D02*
X214084819Y-81145238D01*
X214084819Y-81145238D02*
X214084819Y-81240476D01*
X214084819Y-81240476D02*
X214132438Y-81383333D01*
X214132438Y-81383333D02*
X214180057Y-81430952D01*
X215084819Y-82383333D02*
X215084819Y-81811905D01*
X215084819Y-82097619D02*
X214084819Y-82097619D01*
X214084819Y-82097619D02*
X214227676Y-82002381D01*
X214227676Y-82002381D02*
X214322914Y-81907143D01*
X214322914Y-81907143D02*
X214370533Y-81811905D01*
X215084819Y-83335714D02*
X215084819Y-82764286D01*
X215084819Y-83050000D02*
X214084819Y-83050000D01*
X214084819Y-83050000D02*
X214227676Y-82954762D01*
X214227676Y-82954762D02*
X214322914Y-82859524D01*
X214322914Y-82859524D02*
X214370533Y-82764286D01*
X214418152Y-84192857D02*
X215084819Y-84192857D01*
X214037200Y-83954762D02*
X214751485Y-83716667D01*
X214751485Y-83716667D02*
X214751485Y-84335714D01*
X68358104Y-118738714D02*
X68396200Y-118700618D01*
X68396200Y-118700618D02*
X68434295Y-118586333D01*
X68434295Y-118586333D02*
X68434295Y-118510142D01*
X68434295Y-118510142D02*
X68396200Y-118395856D01*
X68396200Y-118395856D02*
X68320009Y-118319666D01*
X68320009Y-118319666D02*
X68243819Y-118281571D01*
X68243819Y-118281571D02*
X68091438Y-118243475D01*
X68091438Y-118243475D02*
X67977152Y-118243475D01*
X67977152Y-118243475D02*
X67824771Y-118281571D01*
X67824771Y-118281571D02*
X67748580Y-118319666D01*
X67748580Y-118319666D02*
X67672390Y-118395856D01*
X67672390Y-118395856D02*
X67634295Y-118510142D01*
X67634295Y-118510142D02*
X67634295Y-118586333D01*
X67634295Y-118586333D02*
X67672390Y-118700618D01*
X67672390Y-118700618D02*
X67710485Y-118738714D01*
X67977152Y-119195856D02*
X67939057Y-119119666D01*
X67939057Y-119119666D02*
X67900961Y-119081571D01*
X67900961Y-119081571D02*
X67824771Y-119043475D01*
X67824771Y-119043475D02*
X67786676Y-119043475D01*
X67786676Y-119043475D02*
X67710485Y-119081571D01*
X67710485Y-119081571D02*
X67672390Y-119119666D01*
X67672390Y-119119666D02*
X67634295Y-119195856D01*
X67634295Y-119195856D02*
X67634295Y-119348237D01*
X67634295Y-119348237D02*
X67672390Y-119424428D01*
X67672390Y-119424428D02*
X67710485Y-119462523D01*
X67710485Y-119462523D02*
X67786676Y-119500618D01*
X67786676Y-119500618D02*
X67824771Y-119500618D01*
X67824771Y-119500618D02*
X67900961Y-119462523D01*
X67900961Y-119462523D02*
X67939057Y-119424428D01*
X67939057Y-119424428D02*
X67977152Y-119348237D01*
X67977152Y-119348237D02*
X67977152Y-119195856D01*
X67977152Y-119195856D02*
X68015247Y-119119666D01*
X68015247Y-119119666D02*
X68053342Y-119081571D01*
X68053342Y-119081571D02*
X68129533Y-119043475D01*
X68129533Y-119043475D02*
X68281914Y-119043475D01*
X68281914Y-119043475D02*
X68358104Y-119081571D01*
X68358104Y-119081571D02*
X68396200Y-119119666D01*
X68396200Y-119119666D02*
X68434295Y-119195856D01*
X68434295Y-119195856D02*
X68434295Y-119348237D01*
X68434295Y-119348237D02*
X68396200Y-119424428D01*
X68396200Y-119424428D02*
X68358104Y-119462523D01*
X68358104Y-119462523D02*
X68281914Y-119500618D01*
X68281914Y-119500618D02*
X68129533Y-119500618D01*
X68129533Y-119500618D02*
X68053342Y-119462523D01*
X68053342Y-119462523D02*
X68015247Y-119424428D01*
X68015247Y-119424428D02*
X67977152Y-119348237D01*
X67710485Y-119805380D02*
X67672390Y-119843476D01*
X67672390Y-119843476D02*
X67634295Y-119919666D01*
X67634295Y-119919666D02*
X67634295Y-120110142D01*
X67634295Y-120110142D02*
X67672390Y-120186333D01*
X67672390Y-120186333D02*
X67710485Y-120224428D01*
X67710485Y-120224428D02*
X67786676Y-120262523D01*
X67786676Y-120262523D02*
X67862866Y-120262523D01*
X67862866Y-120262523D02*
X67977152Y-120224428D01*
X67977152Y-120224428D02*
X68434295Y-119767285D01*
X68434295Y-119767285D02*
X68434295Y-120262523D01*
X74685819Y-87463333D02*
X74685819Y-86987143D01*
X74685819Y-86987143D02*
X73685819Y-86987143D01*
X73685819Y-88272857D02*
X73685819Y-87796667D01*
X73685819Y-87796667D02*
X74162009Y-87749048D01*
X74162009Y-87749048D02*
X74114390Y-87796667D01*
X74114390Y-87796667D02*
X74066771Y-87891905D01*
X74066771Y-87891905D02*
X74066771Y-88130000D01*
X74066771Y-88130000D02*
X74114390Y-88225238D01*
X74114390Y-88225238D02*
X74162009Y-88272857D01*
X74162009Y-88272857D02*
X74257247Y-88320476D01*
X74257247Y-88320476D02*
X74495342Y-88320476D01*
X74495342Y-88320476D02*
X74590580Y-88272857D01*
X74590580Y-88272857D02*
X74638200Y-88225238D01*
X74638200Y-88225238D02*
X74685819Y-88130000D01*
X74685819Y-88130000D02*
X74685819Y-87891905D01*
X74685819Y-87891905D02*
X74638200Y-87796667D01*
X74638200Y-87796667D02*
X74590580Y-87749048D01*
X222099047Y-71987580D02*
X222146666Y-72035200D01*
X222146666Y-72035200D02*
X222289523Y-72082819D01*
X222289523Y-72082819D02*
X222384761Y-72082819D01*
X222384761Y-72082819D02*
X222527618Y-72035200D01*
X222527618Y-72035200D02*
X222622856Y-71939961D01*
X222622856Y-71939961D02*
X222670475Y-71844723D01*
X222670475Y-71844723D02*
X222718094Y-71654247D01*
X222718094Y-71654247D02*
X222718094Y-71511390D01*
X222718094Y-71511390D02*
X222670475Y-71320914D01*
X222670475Y-71320914D02*
X222622856Y-71225676D01*
X222622856Y-71225676D02*
X222527618Y-71130438D01*
X222527618Y-71130438D02*
X222384761Y-71082819D01*
X222384761Y-71082819D02*
X222289523Y-71082819D01*
X222289523Y-71082819D02*
X222146666Y-71130438D01*
X222146666Y-71130438D02*
X222099047Y-71178057D01*
X221146666Y-72082819D02*
X221718094Y-72082819D01*
X221432380Y-72082819D02*
X221432380Y-71082819D01*
X221432380Y-71082819D02*
X221527618Y-71225676D01*
X221527618Y-71225676D02*
X221622856Y-71320914D01*
X221622856Y-71320914D02*
X221718094Y-71368533D01*
X220194285Y-72082819D02*
X220765713Y-72082819D01*
X220479999Y-72082819D02*
X220479999Y-71082819D01*
X220479999Y-71082819D02*
X220575237Y-71225676D01*
X220575237Y-71225676D02*
X220670475Y-71320914D01*
X220670475Y-71320914D02*
X220765713Y-71368533D01*
X219337142Y-71082819D02*
X219527618Y-71082819D01*
X219527618Y-71082819D02*
X219622856Y-71130438D01*
X219622856Y-71130438D02*
X219670475Y-71178057D01*
X219670475Y-71178057D02*
X219765713Y-71320914D01*
X219765713Y-71320914D02*
X219813332Y-71511390D01*
X219813332Y-71511390D02*
X219813332Y-71892342D01*
X219813332Y-71892342D02*
X219765713Y-71987580D01*
X219765713Y-71987580D02*
X219718094Y-72035200D01*
X219718094Y-72035200D02*
X219622856Y-72082819D01*
X219622856Y-72082819D02*
X219432380Y-72082819D01*
X219432380Y-72082819D02*
X219337142Y-72035200D01*
X219337142Y-72035200D02*
X219289523Y-71987580D01*
X219289523Y-71987580D02*
X219241904Y-71892342D01*
X219241904Y-71892342D02*
X219241904Y-71654247D01*
X219241904Y-71654247D02*
X219289523Y-71559009D01*
X219289523Y-71559009D02*
X219337142Y-71511390D01*
X219337142Y-71511390D02*
X219432380Y-71463771D01*
X219432380Y-71463771D02*
X219622856Y-71463771D01*
X219622856Y-71463771D02*
X219718094Y-71511390D01*
X219718094Y-71511390D02*
X219765713Y-71559009D01*
X219765713Y-71559009D02*
X219813332Y-71654247D01*
X78684333Y-121851009D02*
X79017666Y-121851009D01*
X79017666Y-122374819D02*
X79017666Y-121374819D01*
X79017666Y-121374819D02*
X78541476Y-121374819D01*
X77827190Y-121851009D02*
X77684333Y-121898628D01*
X77684333Y-121898628D02*
X77636714Y-121946247D01*
X77636714Y-121946247D02*
X77589095Y-122041485D01*
X77589095Y-122041485D02*
X77589095Y-122184342D01*
X77589095Y-122184342D02*
X77636714Y-122279580D01*
X77636714Y-122279580D02*
X77684333Y-122327200D01*
X77684333Y-122327200D02*
X77779571Y-122374819D01*
X77779571Y-122374819D02*
X78160523Y-122374819D01*
X78160523Y-122374819D02*
X78160523Y-121374819D01*
X78160523Y-121374819D02*
X77827190Y-121374819D01*
X77827190Y-121374819D02*
X77731952Y-121422438D01*
X77731952Y-121422438D02*
X77684333Y-121470057D01*
X77684333Y-121470057D02*
X77636714Y-121565295D01*
X77636714Y-121565295D02*
X77636714Y-121660533D01*
X77636714Y-121660533D02*
X77684333Y-121755771D01*
X77684333Y-121755771D02*
X77731952Y-121803390D01*
X77731952Y-121803390D02*
X77827190Y-121851009D01*
X77827190Y-121851009D02*
X78160523Y-121851009D01*
X77208142Y-121470057D02*
X77160523Y-121422438D01*
X77160523Y-121422438D02*
X77065285Y-121374819D01*
X77065285Y-121374819D02*
X76827190Y-121374819D01*
X76827190Y-121374819D02*
X76731952Y-121422438D01*
X76731952Y-121422438D02*
X76684333Y-121470057D01*
X76684333Y-121470057D02*
X76636714Y-121565295D01*
X76636714Y-121565295D02*
X76636714Y-121660533D01*
X76636714Y-121660533D02*
X76684333Y-121803390D01*
X76684333Y-121803390D02*
X77255761Y-122374819D01*
X77255761Y-122374819D02*
X76636714Y-122374819D01*
X72396285Y-82582104D02*
X72434381Y-82620200D01*
X72434381Y-82620200D02*
X72548666Y-82658295D01*
X72548666Y-82658295D02*
X72624857Y-82658295D01*
X72624857Y-82658295D02*
X72739143Y-82620200D01*
X72739143Y-82620200D02*
X72815333Y-82544009D01*
X72815333Y-82544009D02*
X72853428Y-82467819D01*
X72853428Y-82467819D02*
X72891524Y-82315438D01*
X72891524Y-82315438D02*
X72891524Y-82201152D01*
X72891524Y-82201152D02*
X72853428Y-82048771D01*
X72853428Y-82048771D02*
X72815333Y-81972580D01*
X72815333Y-81972580D02*
X72739143Y-81896390D01*
X72739143Y-81896390D02*
X72624857Y-81858295D01*
X72624857Y-81858295D02*
X72548666Y-81858295D01*
X72548666Y-81858295D02*
X72434381Y-81896390D01*
X72434381Y-81896390D02*
X72396285Y-81934485D01*
X71672476Y-81858295D02*
X72053428Y-81858295D01*
X72053428Y-81858295D02*
X72091524Y-82239247D01*
X72091524Y-82239247D02*
X72053428Y-82201152D01*
X72053428Y-82201152D02*
X71977238Y-82163057D01*
X71977238Y-82163057D02*
X71786762Y-82163057D01*
X71786762Y-82163057D02*
X71710571Y-82201152D01*
X71710571Y-82201152D02*
X71672476Y-82239247D01*
X71672476Y-82239247D02*
X71634381Y-82315438D01*
X71634381Y-82315438D02*
X71634381Y-82505914D01*
X71634381Y-82505914D02*
X71672476Y-82582104D01*
X71672476Y-82582104D02*
X71710571Y-82620200D01*
X71710571Y-82620200D02*
X71786762Y-82658295D01*
X71786762Y-82658295D02*
X71977238Y-82658295D01*
X71977238Y-82658295D02*
X72053428Y-82620200D01*
X72053428Y-82620200D02*
X72091524Y-82582104D01*
X70910571Y-81858295D02*
X71291523Y-81858295D01*
X71291523Y-81858295D02*
X71329619Y-82239247D01*
X71329619Y-82239247D02*
X71291523Y-82201152D01*
X71291523Y-82201152D02*
X71215333Y-82163057D01*
X71215333Y-82163057D02*
X71024857Y-82163057D01*
X71024857Y-82163057D02*
X70948666Y-82201152D01*
X70948666Y-82201152D02*
X70910571Y-82239247D01*
X70910571Y-82239247D02*
X70872476Y-82315438D01*
X70872476Y-82315438D02*
X70872476Y-82505914D01*
X70872476Y-82505914D02*
X70910571Y-82582104D01*
X70910571Y-82582104D02*
X70948666Y-82620200D01*
X70948666Y-82620200D02*
X71024857Y-82658295D01*
X71024857Y-82658295D02*
X71215333Y-82658295D01*
X71215333Y-82658295D02*
X71291523Y-82620200D01*
X71291523Y-82620200D02*
X71329619Y-82582104D01*
X192412857Y-53064580D02*
X192460476Y-53112200D01*
X192460476Y-53112200D02*
X192603333Y-53159819D01*
X192603333Y-53159819D02*
X192698571Y-53159819D01*
X192698571Y-53159819D02*
X192841428Y-53112200D01*
X192841428Y-53112200D02*
X192936666Y-53016961D01*
X192936666Y-53016961D02*
X192984285Y-52921723D01*
X192984285Y-52921723D02*
X193031904Y-52731247D01*
X193031904Y-52731247D02*
X193031904Y-52588390D01*
X193031904Y-52588390D02*
X192984285Y-52397914D01*
X192984285Y-52397914D02*
X192936666Y-52302676D01*
X192936666Y-52302676D02*
X192841428Y-52207438D01*
X192841428Y-52207438D02*
X192698571Y-52159819D01*
X192698571Y-52159819D02*
X192603333Y-52159819D01*
X192603333Y-52159819D02*
X192460476Y-52207438D01*
X192460476Y-52207438D02*
X192412857Y-52255057D01*
X192031904Y-52255057D02*
X191984285Y-52207438D01*
X191984285Y-52207438D02*
X191889047Y-52159819D01*
X191889047Y-52159819D02*
X191650952Y-52159819D01*
X191650952Y-52159819D02*
X191555714Y-52207438D01*
X191555714Y-52207438D02*
X191508095Y-52255057D01*
X191508095Y-52255057D02*
X191460476Y-52350295D01*
X191460476Y-52350295D02*
X191460476Y-52445533D01*
X191460476Y-52445533D02*
X191508095Y-52588390D01*
X191508095Y-52588390D02*
X192079523Y-53159819D01*
X192079523Y-53159819D02*
X191460476Y-53159819D01*
X190984285Y-53159819D02*
X190793809Y-53159819D01*
X190793809Y-53159819D02*
X190698571Y-53112200D01*
X190698571Y-53112200D02*
X190650952Y-53064580D01*
X190650952Y-53064580D02*
X190555714Y-52921723D01*
X190555714Y-52921723D02*
X190508095Y-52731247D01*
X190508095Y-52731247D02*
X190508095Y-52350295D01*
X190508095Y-52350295D02*
X190555714Y-52255057D01*
X190555714Y-52255057D02*
X190603333Y-52207438D01*
X190603333Y-52207438D02*
X190698571Y-52159819D01*
X190698571Y-52159819D02*
X190889047Y-52159819D01*
X190889047Y-52159819D02*
X190984285Y-52207438D01*
X190984285Y-52207438D02*
X191031904Y-52255057D01*
X191031904Y-52255057D02*
X191079523Y-52350295D01*
X191079523Y-52350295D02*
X191079523Y-52588390D01*
X191079523Y-52588390D02*
X191031904Y-52683628D01*
X191031904Y-52683628D02*
X190984285Y-52731247D01*
X190984285Y-52731247D02*
X190889047Y-52778866D01*
X190889047Y-52778866D02*
X190698571Y-52778866D01*
X190698571Y-52778866D02*
X190603333Y-52731247D01*
X190603333Y-52731247D02*
X190555714Y-52683628D01*
X190555714Y-52683628D02*
X190508095Y-52588390D01*
X221241857Y-75035580D02*
X221289476Y-75083200D01*
X221289476Y-75083200D02*
X221432333Y-75130819D01*
X221432333Y-75130819D02*
X221527571Y-75130819D01*
X221527571Y-75130819D02*
X221670428Y-75083200D01*
X221670428Y-75083200D02*
X221765666Y-74987961D01*
X221765666Y-74987961D02*
X221813285Y-74892723D01*
X221813285Y-74892723D02*
X221860904Y-74702247D01*
X221860904Y-74702247D02*
X221860904Y-74559390D01*
X221860904Y-74559390D02*
X221813285Y-74368914D01*
X221813285Y-74368914D02*
X221765666Y-74273676D01*
X221765666Y-74273676D02*
X221670428Y-74178438D01*
X221670428Y-74178438D02*
X221527571Y-74130819D01*
X221527571Y-74130819D02*
X221432333Y-74130819D01*
X221432333Y-74130819D02*
X221289476Y-74178438D01*
X221289476Y-74178438D02*
X221241857Y-74226057D01*
X220908523Y-74130819D02*
X220241857Y-74130819D01*
X220241857Y-74130819D02*
X220670428Y-75130819D01*
X219718047Y-74559390D02*
X219813285Y-74511771D01*
X219813285Y-74511771D02*
X219860904Y-74464152D01*
X219860904Y-74464152D02*
X219908523Y-74368914D01*
X219908523Y-74368914D02*
X219908523Y-74321295D01*
X219908523Y-74321295D02*
X219860904Y-74226057D01*
X219860904Y-74226057D02*
X219813285Y-74178438D01*
X219813285Y-74178438D02*
X219718047Y-74130819D01*
X219718047Y-74130819D02*
X219527571Y-74130819D01*
X219527571Y-74130819D02*
X219432333Y-74178438D01*
X219432333Y-74178438D02*
X219384714Y-74226057D01*
X219384714Y-74226057D02*
X219337095Y-74321295D01*
X219337095Y-74321295D02*
X219337095Y-74368914D01*
X219337095Y-74368914D02*
X219384714Y-74464152D01*
X219384714Y-74464152D02*
X219432333Y-74511771D01*
X219432333Y-74511771D02*
X219527571Y-74559390D01*
X219527571Y-74559390D02*
X219718047Y-74559390D01*
X219718047Y-74559390D02*
X219813285Y-74607009D01*
X219813285Y-74607009D02*
X219860904Y-74654628D01*
X219860904Y-74654628D02*
X219908523Y-74749866D01*
X219908523Y-74749866D02*
X219908523Y-74940342D01*
X219908523Y-74940342D02*
X219860904Y-75035580D01*
X219860904Y-75035580D02*
X219813285Y-75083200D01*
X219813285Y-75083200D02*
X219718047Y-75130819D01*
X219718047Y-75130819D02*
X219527571Y-75130819D01*
X219527571Y-75130819D02*
X219432333Y-75083200D01*
X219432333Y-75083200D02*
X219384714Y-75035580D01*
X219384714Y-75035580D02*
X219337095Y-74940342D01*
X219337095Y-74940342D02*
X219337095Y-74749866D01*
X219337095Y-74749866D02*
X219384714Y-74654628D01*
X219384714Y-74654628D02*
X219432333Y-74607009D01*
X219432333Y-74607009D02*
X219527571Y-74559390D01*
X71736295Y-127882714D02*
X71355342Y-127616047D01*
X71736295Y-127425571D02*
X70936295Y-127425571D01*
X70936295Y-127425571D02*
X70936295Y-127730333D01*
X70936295Y-127730333D02*
X70974390Y-127806523D01*
X70974390Y-127806523D02*
X71012485Y-127844618D01*
X71012485Y-127844618D02*
X71088676Y-127882714D01*
X71088676Y-127882714D02*
X71202961Y-127882714D01*
X71202961Y-127882714D02*
X71279152Y-127844618D01*
X71279152Y-127844618D02*
X71317247Y-127806523D01*
X71317247Y-127806523D02*
X71355342Y-127730333D01*
X71355342Y-127730333D02*
X71355342Y-127425571D01*
X70936295Y-128568428D02*
X70936295Y-128416047D01*
X70936295Y-128416047D02*
X70974390Y-128339856D01*
X70974390Y-128339856D02*
X71012485Y-128301761D01*
X71012485Y-128301761D02*
X71126771Y-128225571D01*
X71126771Y-128225571D02*
X71279152Y-128187475D01*
X71279152Y-128187475D02*
X71583914Y-128187475D01*
X71583914Y-128187475D02*
X71660104Y-128225571D01*
X71660104Y-128225571D02*
X71698200Y-128263666D01*
X71698200Y-128263666D02*
X71736295Y-128339856D01*
X71736295Y-128339856D02*
X71736295Y-128492237D01*
X71736295Y-128492237D02*
X71698200Y-128568428D01*
X71698200Y-128568428D02*
X71660104Y-128606523D01*
X71660104Y-128606523D02*
X71583914Y-128644618D01*
X71583914Y-128644618D02*
X71393438Y-128644618D01*
X71393438Y-128644618D02*
X71317247Y-128606523D01*
X71317247Y-128606523D02*
X71279152Y-128568428D01*
X71279152Y-128568428D02*
X71241057Y-128492237D01*
X71241057Y-128492237D02*
X71241057Y-128339856D01*
X71241057Y-128339856D02*
X71279152Y-128263666D01*
X71279152Y-128263666D02*
X71317247Y-128225571D01*
X71317247Y-128225571D02*
X71393438Y-128187475D01*
X70936295Y-129330333D02*
X70936295Y-129177952D01*
X70936295Y-129177952D02*
X70974390Y-129101761D01*
X70974390Y-129101761D02*
X71012485Y-129063666D01*
X71012485Y-129063666D02*
X71126771Y-128987476D01*
X71126771Y-128987476D02*
X71279152Y-128949380D01*
X71279152Y-128949380D02*
X71583914Y-128949380D01*
X71583914Y-128949380D02*
X71660104Y-128987476D01*
X71660104Y-128987476D02*
X71698200Y-129025571D01*
X71698200Y-129025571D02*
X71736295Y-129101761D01*
X71736295Y-129101761D02*
X71736295Y-129254142D01*
X71736295Y-129254142D02*
X71698200Y-129330333D01*
X71698200Y-129330333D02*
X71660104Y-129368428D01*
X71660104Y-129368428D02*
X71583914Y-129406523D01*
X71583914Y-129406523D02*
X71393438Y-129406523D01*
X71393438Y-129406523D02*
X71317247Y-129368428D01*
X71317247Y-129368428D02*
X71279152Y-129330333D01*
X71279152Y-129330333D02*
X71241057Y-129254142D01*
X71241057Y-129254142D02*
X71241057Y-129101761D01*
X71241057Y-129101761D02*
X71279152Y-129025571D01*
X71279152Y-129025571D02*
X71317247Y-128987476D01*
X71317247Y-128987476D02*
X71393438Y-128949380D01*
X208033857Y-55350580D02*
X208081476Y-55398200D01*
X208081476Y-55398200D02*
X208224333Y-55445819D01*
X208224333Y-55445819D02*
X208319571Y-55445819D01*
X208319571Y-55445819D02*
X208462428Y-55398200D01*
X208462428Y-55398200D02*
X208557666Y-55302961D01*
X208557666Y-55302961D02*
X208605285Y-55207723D01*
X208605285Y-55207723D02*
X208652904Y-55017247D01*
X208652904Y-55017247D02*
X208652904Y-54874390D01*
X208652904Y-54874390D02*
X208605285Y-54683914D01*
X208605285Y-54683914D02*
X208557666Y-54588676D01*
X208557666Y-54588676D02*
X208462428Y-54493438D01*
X208462428Y-54493438D02*
X208319571Y-54445819D01*
X208319571Y-54445819D02*
X208224333Y-54445819D01*
X208224333Y-54445819D02*
X208081476Y-54493438D01*
X208081476Y-54493438D02*
X208033857Y-54541057D01*
X207700523Y-54445819D02*
X207081476Y-54445819D01*
X207081476Y-54445819D02*
X207414809Y-54826771D01*
X207414809Y-54826771D02*
X207271952Y-54826771D01*
X207271952Y-54826771D02*
X207176714Y-54874390D01*
X207176714Y-54874390D02*
X207129095Y-54922009D01*
X207129095Y-54922009D02*
X207081476Y-55017247D01*
X207081476Y-55017247D02*
X207081476Y-55255342D01*
X207081476Y-55255342D02*
X207129095Y-55350580D01*
X207129095Y-55350580D02*
X207176714Y-55398200D01*
X207176714Y-55398200D02*
X207271952Y-55445819D01*
X207271952Y-55445819D02*
X207557666Y-55445819D01*
X207557666Y-55445819D02*
X207652904Y-55398200D01*
X207652904Y-55398200D02*
X207700523Y-55350580D01*
X206462428Y-54445819D02*
X206367190Y-54445819D01*
X206367190Y-54445819D02*
X206271952Y-54493438D01*
X206271952Y-54493438D02*
X206224333Y-54541057D01*
X206224333Y-54541057D02*
X206176714Y-54636295D01*
X206176714Y-54636295D02*
X206129095Y-54826771D01*
X206129095Y-54826771D02*
X206129095Y-55064866D01*
X206129095Y-55064866D02*
X206176714Y-55255342D01*
X206176714Y-55255342D02*
X206224333Y-55350580D01*
X206224333Y-55350580D02*
X206271952Y-55398200D01*
X206271952Y-55398200D02*
X206367190Y-55445819D01*
X206367190Y-55445819D02*
X206462428Y-55445819D01*
X206462428Y-55445819D02*
X206557666Y-55398200D01*
X206557666Y-55398200D02*
X206605285Y-55350580D01*
X206605285Y-55350580D02*
X206652904Y-55255342D01*
X206652904Y-55255342D02*
X206700523Y-55064866D01*
X206700523Y-55064866D02*
X206700523Y-54826771D01*
X206700523Y-54826771D02*
X206652904Y-54636295D01*
X206652904Y-54636295D02*
X206605285Y-54541057D01*
X206605285Y-54541057D02*
X206557666Y-54493438D01*
X206557666Y-54493438D02*
X206462428Y-54445819D01*
X116212857Y-124151580D02*
X116260476Y-124199200D01*
X116260476Y-124199200D02*
X116403333Y-124246819D01*
X116403333Y-124246819D02*
X116498571Y-124246819D01*
X116498571Y-124246819D02*
X116641428Y-124199200D01*
X116641428Y-124199200D02*
X116736666Y-124103961D01*
X116736666Y-124103961D02*
X116784285Y-124008723D01*
X116784285Y-124008723D02*
X116831904Y-123818247D01*
X116831904Y-123818247D02*
X116831904Y-123675390D01*
X116831904Y-123675390D02*
X116784285Y-123484914D01*
X116784285Y-123484914D02*
X116736666Y-123389676D01*
X116736666Y-123389676D02*
X116641428Y-123294438D01*
X116641428Y-123294438D02*
X116498571Y-123246819D01*
X116498571Y-123246819D02*
X116403333Y-123246819D01*
X116403333Y-123246819D02*
X116260476Y-123294438D01*
X116260476Y-123294438D02*
X116212857Y-123342057D01*
X115641428Y-123675390D02*
X115736666Y-123627771D01*
X115736666Y-123627771D02*
X115784285Y-123580152D01*
X115784285Y-123580152D02*
X115831904Y-123484914D01*
X115831904Y-123484914D02*
X115831904Y-123437295D01*
X115831904Y-123437295D02*
X115784285Y-123342057D01*
X115784285Y-123342057D02*
X115736666Y-123294438D01*
X115736666Y-123294438D02*
X115641428Y-123246819D01*
X115641428Y-123246819D02*
X115450952Y-123246819D01*
X115450952Y-123246819D02*
X115355714Y-123294438D01*
X115355714Y-123294438D02*
X115308095Y-123342057D01*
X115308095Y-123342057D02*
X115260476Y-123437295D01*
X115260476Y-123437295D02*
X115260476Y-123484914D01*
X115260476Y-123484914D02*
X115308095Y-123580152D01*
X115308095Y-123580152D02*
X115355714Y-123627771D01*
X115355714Y-123627771D02*
X115450952Y-123675390D01*
X115450952Y-123675390D02*
X115641428Y-123675390D01*
X115641428Y-123675390D02*
X115736666Y-123723009D01*
X115736666Y-123723009D02*
X115784285Y-123770628D01*
X115784285Y-123770628D02*
X115831904Y-123865866D01*
X115831904Y-123865866D02*
X115831904Y-124056342D01*
X115831904Y-124056342D02*
X115784285Y-124151580D01*
X115784285Y-124151580D02*
X115736666Y-124199200D01*
X115736666Y-124199200D02*
X115641428Y-124246819D01*
X115641428Y-124246819D02*
X115450952Y-124246819D01*
X115450952Y-124246819D02*
X115355714Y-124199200D01*
X115355714Y-124199200D02*
X115308095Y-124151580D01*
X115308095Y-124151580D02*
X115260476Y-124056342D01*
X115260476Y-124056342D02*
X115260476Y-123865866D01*
X115260476Y-123865866D02*
X115308095Y-123770628D01*
X115308095Y-123770628D02*
X115355714Y-123723009D01*
X115355714Y-123723009D02*
X115450952Y-123675390D01*
X114403333Y-123580152D02*
X114403333Y-124246819D01*
X114641428Y-123199200D02*
X114879523Y-123913485D01*
X114879523Y-123913485D02*
X114260476Y-123913485D01*
X213973580Y-67175142D02*
X214021200Y-67127523D01*
X214021200Y-67127523D02*
X214068819Y-66984666D01*
X214068819Y-66984666D02*
X214068819Y-66889428D01*
X214068819Y-66889428D02*
X214021200Y-66746571D01*
X214021200Y-66746571D02*
X213925961Y-66651333D01*
X213925961Y-66651333D02*
X213830723Y-66603714D01*
X213830723Y-66603714D02*
X213640247Y-66556095D01*
X213640247Y-66556095D02*
X213497390Y-66556095D01*
X213497390Y-66556095D02*
X213306914Y-66603714D01*
X213306914Y-66603714D02*
X213211676Y-66651333D01*
X213211676Y-66651333D02*
X213116438Y-66746571D01*
X213116438Y-66746571D02*
X213068819Y-66889428D01*
X213068819Y-66889428D02*
X213068819Y-66984666D01*
X213068819Y-66984666D02*
X213116438Y-67127523D01*
X213116438Y-67127523D02*
X213164057Y-67175142D01*
X213068819Y-67508476D02*
X213068819Y-68127523D01*
X213068819Y-68127523D02*
X213449771Y-67794190D01*
X213449771Y-67794190D02*
X213449771Y-67937047D01*
X213449771Y-67937047D02*
X213497390Y-68032285D01*
X213497390Y-68032285D02*
X213545009Y-68079904D01*
X213545009Y-68079904D02*
X213640247Y-68127523D01*
X213640247Y-68127523D02*
X213878342Y-68127523D01*
X213878342Y-68127523D02*
X213973580Y-68079904D01*
X213973580Y-68079904D02*
X214021200Y-68032285D01*
X214021200Y-68032285D02*
X214068819Y-67937047D01*
X214068819Y-67937047D02*
X214068819Y-67651333D01*
X214068819Y-67651333D02*
X214021200Y-67556095D01*
X214021200Y-67556095D02*
X213973580Y-67508476D01*
X213068819Y-68460857D02*
X213068819Y-69127523D01*
X213068819Y-69127523D02*
X214068819Y-68698952D01*
X76051580Y-87495142D02*
X76099200Y-87447523D01*
X76099200Y-87447523D02*
X76146819Y-87304666D01*
X76146819Y-87304666D02*
X76146819Y-87209428D01*
X76146819Y-87209428D02*
X76099200Y-87066571D01*
X76099200Y-87066571D02*
X76003961Y-86971333D01*
X76003961Y-86971333D02*
X75908723Y-86923714D01*
X75908723Y-86923714D02*
X75718247Y-86876095D01*
X75718247Y-86876095D02*
X75575390Y-86876095D01*
X75575390Y-86876095D02*
X75384914Y-86923714D01*
X75384914Y-86923714D02*
X75289676Y-86971333D01*
X75289676Y-86971333D02*
X75194438Y-87066571D01*
X75194438Y-87066571D02*
X75146819Y-87209428D01*
X75146819Y-87209428D02*
X75146819Y-87304666D01*
X75146819Y-87304666D02*
X75194438Y-87447523D01*
X75194438Y-87447523D02*
X75242057Y-87495142D01*
X75146819Y-88352285D02*
X75146819Y-88161809D01*
X75146819Y-88161809D02*
X75194438Y-88066571D01*
X75194438Y-88066571D02*
X75242057Y-88018952D01*
X75242057Y-88018952D02*
X75384914Y-87923714D01*
X75384914Y-87923714D02*
X75575390Y-87876095D01*
X75575390Y-87876095D02*
X75956342Y-87876095D01*
X75956342Y-87876095D02*
X76051580Y-87923714D01*
X76051580Y-87923714D02*
X76099200Y-87971333D01*
X76099200Y-87971333D02*
X76146819Y-88066571D01*
X76146819Y-88066571D02*
X76146819Y-88257047D01*
X76146819Y-88257047D02*
X76099200Y-88352285D01*
X76099200Y-88352285D02*
X76051580Y-88399904D01*
X76051580Y-88399904D02*
X75956342Y-88447523D01*
X75956342Y-88447523D02*
X75718247Y-88447523D01*
X75718247Y-88447523D02*
X75623009Y-88399904D01*
X75623009Y-88399904D02*
X75575390Y-88352285D01*
X75575390Y-88352285D02*
X75527771Y-88257047D01*
X75527771Y-88257047D02*
X75527771Y-88066571D01*
X75527771Y-88066571D02*
X75575390Y-87971333D01*
X75575390Y-87971333D02*
X75623009Y-87923714D01*
X75623009Y-87923714D02*
X75718247Y-87876095D01*
X75480152Y-89304666D02*
X76146819Y-89304666D01*
X75099200Y-89066571D02*
X75813485Y-88828476D01*
X75813485Y-88828476D02*
X75813485Y-89447523D01*
X241306285Y-73819104D02*
X241344381Y-73857200D01*
X241344381Y-73857200D02*
X241458666Y-73895295D01*
X241458666Y-73895295D02*
X241534857Y-73895295D01*
X241534857Y-73895295D02*
X241649143Y-73857200D01*
X241649143Y-73857200D02*
X241725333Y-73781009D01*
X241725333Y-73781009D02*
X241763428Y-73704819D01*
X241763428Y-73704819D02*
X241801524Y-73552438D01*
X241801524Y-73552438D02*
X241801524Y-73438152D01*
X241801524Y-73438152D02*
X241763428Y-73285771D01*
X241763428Y-73285771D02*
X241725333Y-73209580D01*
X241725333Y-73209580D02*
X241649143Y-73133390D01*
X241649143Y-73133390D02*
X241534857Y-73095295D01*
X241534857Y-73095295D02*
X241458666Y-73095295D01*
X241458666Y-73095295D02*
X241344381Y-73133390D01*
X241344381Y-73133390D02*
X241306285Y-73171485D01*
X241039619Y-73095295D02*
X240506285Y-73095295D01*
X240506285Y-73095295D02*
X240849143Y-73895295D01*
X239820571Y-73095295D02*
X240201523Y-73095295D01*
X240201523Y-73095295D02*
X240239619Y-73476247D01*
X240239619Y-73476247D02*
X240201523Y-73438152D01*
X240201523Y-73438152D02*
X240125333Y-73400057D01*
X240125333Y-73400057D02*
X239934857Y-73400057D01*
X239934857Y-73400057D02*
X239858666Y-73438152D01*
X239858666Y-73438152D02*
X239820571Y-73476247D01*
X239820571Y-73476247D02*
X239782476Y-73552438D01*
X239782476Y-73552438D02*
X239782476Y-73742914D01*
X239782476Y-73742914D02*
X239820571Y-73819104D01*
X239820571Y-73819104D02*
X239858666Y-73857200D01*
X239858666Y-73857200D02*
X239934857Y-73895295D01*
X239934857Y-73895295D02*
X240125333Y-73895295D01*
X240125333Y-73895295D02*
X240201523Y-73857200D01*
X240201523Y-73857200D02*
X240239619Y-73819104D01*
X242704857Y-51921580D02*
X242752476Y-51969200D01*
X242752476Y-51969200D02*
X242895333Y-52016819D01*
X242895333Y-52016819D02*
X242990571Y-52016819D01*
X242990571Y-52016819D02*
X243133428Y-51969200D01*
X243133428Y-51969200D02*
X243228666Y-51873961D01*
X243228666Y-51873961D02*
X243276285Y-51778723D01*
X243276285Y-51778723D02*
X243323904Y-51588247D01*
X243323904Y-51588247D02*
X243323904Y-51445390D01*
X243323904Y-51445390D02*
X243276285Y-51254914D01*
X243276285Y-51254914D02*
X243228666Y-51159676D01*
X243228666Y-51159676D02*
X243133428Y-51064438D01*
X243133428Y-51064438D02*
X242990571Y-51016819D01*
X242990571Y-51016819D02*
X242895333Y-51016819D01*
X242895333Y-51016819D02*
X242752476Y-51064438D01*
X242752476Y-51064438D02*
X242704857Y-51112057D01*
X242133428Y-51445390D02*
X242228666Y-51397771D01*
X242228666Y-51397771D02*
X242276285Y-51350152D01*
X242276285Y-51350152D02*
X242323904Y-51254914D01*
X242323904Y-51254914D02*
X242323904Y-51207295D01*
X242323904Y-51207295D02*
X242276285Y-51112057D01*
X242276285Y-51112057D02*
X242228666Y-51064438D01*
X242228666Y-51064438D02*
X242133428Y-51016819D01*
X242133428Y-51016819D02*
X241942952Y-51016819D01*
X241942952Y-51016819D02*
X241847714Y-51064438D01*
X241847714Y-51064438D02*
X241800095Y-51112057D01*
X241800095Y-51112057D02*
X241752476Y-51207295D01*
X241752476Y-51207295D02*
X241752476Y-51254914D01*
X241752476Y-51254914D02*
X241800095Y-51350152D01*
X241800095Y-51350152D02*
X241847714Y-51397771D01*
X241847714Y-51397771D02*
X241942952Y-51445390D01*
X241942952Y-51445390D02*
X242133428Y-51445390D01*
X242133428Y-51445390D02*
X242228666Y-51493009D01*
X242228666Y-51493009D02*
X242276285Y-51540628D01*
X242276285Y-51540628D02*
X242323904Y-51635866D01*
X242323904Y-51635866D02*
X242323904Y-51826342D01*
X242323904Y-51826342D02*
X242276285Y-51921580D01*
X242276285Y-51921580D02*
X242228666Y-51969200D01*
X242228666Y-51969200D02*
X242133428Y-52016819D01*
X242133428Y-52016819D02*
X241942952Y-52016819D01*
X241942952Y-52016819D02*
X241847714Y-51969200D01*
X241847714Y-51969200D02*
X241800095Y-51921580D01*
X241800095Y-51921580D02*
X241752476Y-51826342D01*
X241752476Y-51826342D02*
X241752476Y-51635866D01*
X241752476Y-51635866D02*
X241800095Y-51540628D01*
X241800095Y-51540628D02*
X241847714Y-51493009D01*
X241847714Y-51493009D02*
X241942952Y-51445390D01*
X241276285Y-52016819D02*
X241085809Y-52016819D01*
X241085809Y-52016819D02*
X240990571Y-51969200D01*
X240990571Y-51969200D02*
X240942952Y-51921580D01*
X240942952Y-51921580D02*
X240847714Y-51778723D01*
X240847714Y-51778723D02*
X240800095Y-51588247D01*
X240800095Y-51588247D02*
X240800095Y-51207295D01*
X240800095Y-51207295D02*
X240847714Y-51112057D01*
X240847714Y-51112057D02*
X240895333Y-51064438D01*
X240895333Y-51064438D02*
X240990571Y-51016819D01*
X240990571Y-51016819D02*
X241181047Y-51016819D01*
X241181047Y-51016819D02*
X241276285Y-51064438D01*
X241276285Y-51064438D02*
X241323904Y-51112057D01*
X241323904Y-51112057D02*
X241371523Y-51207295D01*
X241371523Y-51207295D02*
X241371523Y-51445390D01*
X241371523Y-51445390D02*
X241323904Y-51540628D01*
X241323904Y-51540628D02*
X241276285Y-51588247D01*
X241276285Y-51588247D02*
X241181047Y-51635866D01*
X241181047Y-51635866D02*
X240990571Y-51635866D01*
X240990571Y-51635866D02*
X240895333Y-51588247D01*
X240895333Y-51588247D02*
X240847714Y-51540628D01*
X240847714Y-51540628D02*
X240800095Y-51445390D01*
X232671857Y-75416580D02*
X232719476Y-75464200D01*
X232719476Y-75464200D02*
X232862333Y-75511819D01*
X232862333Y-75511819D02*
X232957571Y-75511819D01*
X232957571Y-75511819D02*
X233100428Y-75464200D01*
X233100428Y-75464200D02*
X233195666Y-75368961D01*
X233195666Y-75368961D02*
X233243285Y-75273723D01*
X233243285Y-75273723D02*
X233290904Y-75083247D01*
X233290904Y-75083247D02*
X233290904Y-74940390D01*
X233290904Y-74940390D02*
X233243285Y-74749914D01*
X233243285Y-74749914D02*
X233195666Y-74654676D01*
X233195666Y-74654676D02*
X233100428Y-74559438D01*
X233100428Y-74559438D02*
X232957571Y-74511819D01*
X232957571Y-74511819D02*
X232862333Y-74511819D01*
X232862333Y-74511819D02*
X232719476Y-74559438D01*
X232719476Y-74559438D02*
X232671857Y-74607057D01*
X232338523Y-74511819D02*
X231719476Y-74511819D01*
X231719476Y-74511819D02*
X232052809Y-74892771D01*
X232052809Y-74892771D02*
X231909952Y-74892771D01*
X231909952Y-74892771D02*
X231814714Y-74940390D01*
X231814714Y-74940390D02*
X231767095Y-74988009D01*
X231767095Y-74988009D02*
X231719476Y-75083247D01*
X231719476Y-75083247D02*
X231719476Y-75321342D01*
X231719476Y-75321342D02*
X231767095Y-75416580D01*
X231767095Y-75416580D02*
X231814714Y-75464200D01*
X231814714Y-75464200D02*
X231909952Y-75511819D01*
X231909952Y-75511819D02*
X232195666Y-75511819D01*
X232195666Y-75511819D02*
X232290904Y-75464200D01*
X232290904Y-75464200D02*
X232338523Y-75416580D01*
X230862333Y-74511819D02*
X231052809Y-74511819D01*
X231052809Y-74511819D02*
X231148047Y-74559438D01*
X231148047Y-74559438D02*
X231195666Y-74607057D01*
X231195666Y-74607057D02*
X231290904Y-74749914D01*
X231290904Y-74749914D02*
X231338523Y-74940390D01*
X231338523Y-74940390D02*
X231338523Y-75321342D01*
X231338523Y-75321342D02*
X231290904Y-75416580D01*
X231290904Y-75416580D02*
X231243285Y-75464200D01*
X231243285Y-75464200D02*
X231148047Y-75511819D01*
X231148047Y-75511819D02*
X230957571Y-75511819D01*
X230957571Y-75511819D02*
X230862333Y-75464200D01*
X230862333Y-75464200D02*
X230814714Y-75416580D01*
X230814714Y-75416580D02*
X230767095Y-75321342D01*
X230767095Y-75321342D02*
X230767095Y-75083247D01*
X230767095Y-75083247D02*
X230814714Y-74988009D01*
X230814714Y-74988009D02*
X230862333Y-74940390D01*
X230862333Y-74940390D02*
X230957571Y-74892771D01*
X230957571Y-74892771D02*
X231148047Y-74892771D01*
X231148047Y-74892771D02*
X231243285Y-74940390D01*
X231243285Y-74940390D02*
X231290904Y-74988009D01*
X231290904Y-74988009D02*
X231338523Y-75083247D01*
X74906047Y-94593580D02*
X74953666Y-94641200D01*
X74953666Y-94641200D02*
X75096523Y-94688819D01*
X75096523Y-94688819D02*
X75191761Y-94688819D01*
X75191761Y-94688819D02*
X75334618Y-94641200D01*
X75334618Y-94641200D02*
X75429856Y-94545961D01*
X75429856Y-94545961D02*
X75477475Y-94450723D01*
X75477475Y-94450723D02*
X75525094Y-94260247D01*
X75525094Y-94260247D02*
X75525094Y-94117390D01*
X75525094Y-94117390D02*
X75477475Y-93926914D01*
X75477475Y-93926914D02*
X75429856Y-93831676D01*
X75429856Y-93831676D02*
X75334618Y-93736438D01*
X75334618Y-93736438D02*
X75191761Y-93688819D01*
X75191761Y-93688819D02*
X75096523Y-93688819D01*
X75096523Y-93688819D02*
X74953666Y-93736438D01*
X74953666Y-93736438D02*
X74906047Y-93784057D01*
X73953666Y-94688819D02*
X74525094Y-94688819D01*
X74239380Y-94688819D02*
X74239380Y-93688819D01*
X74239380Y-93688819D02*
X74334618Y-93831676D01*
X74334618Y-93831676D02*
X74429856Y-93926914D01*
X74429856Y-93926914D02*
X74525094Y-93974533D01*
X73334618Y-93688819D02*
X73239380Y-93688819D01*
X73239380Y-93688819D02*
X73144142Y-93736438D01*
X73144142Y-93736438D02*
X73096523Y-93784057D01*
X73096523Y-93784057D02*
X73048904Y-93879295D01*
X73048904Y-93879295D02*
X73001285Y-94069771D01*
X73001285Y-94069771D02*
X73001285Y-94307866D01*
X73001285Y-94307866D02*
X73048904Y-94498342D01*
X73048904Y-94498342D02*
X73096523Y-94593580D01*
X73096523Y-94593580D02*
X73144142Y-94641200D01*
X73144142Y-94641200D02*
X73239380Y-94688819D01*
X73239380Y-94688819D02*
X73334618Y-94688819D01*
X73334618Y-94688819D02*
X73429856Y-94641200D01*
X73429856Y-94641200D02*
X73477475Y-94593580D01*
X73477475Y-94593580D02*
X73525094Y-94498342D01*
X73525094Y-94498342D02*
X73572713Y-94307866D01*
X73572713Y-94307866D02*
X73572713Y-94069771D01*
X73572713Y-94069771D02*
X73525094Y-93879295D01*
X73525094Y-93879295D02*
X73477475Y-93784057D01*
X73477475Y-93784057D02*
X73429856Y-93736438D01*
X73429856Y-93736438D02*
X73334618Y-93688819D01*
X72667951Y-93688819D02*
X72001285Y-93688819D01*
X72001285Y-93688819D02*
X72429856Y-94688819D01*
X113164857Y-124151580D02*
X113212476Y-124199200D01*
X113212476Y-124199200D02*
X113355333Y-124246819D01*
X113355333Y-124246819D02*
X113450571Y-124246819D01*
X113450571Y-124246819D02*
X113593428Y-124199200D01*
X113593428Y-124199200D02*
X113688666Y-124103961D01*
X113688666Y-124103961D02*
X113736285Y-124008723D01*
X113736285Y-124008723D02*
X113783904Y-123818247D01*
X113783904Y-123818247D02*
X113783904Y-123675390D01*
X113783904Y-123675390D02*
X113736285Y-123484914D01*
X113736285Y-123484914D02*
X113688666Y-123389676D01*
X113688666Y-123389676D02*
X113593428Y-123294438D01*
X113593428Y-123294438D02*
X113450571Y-123246819D01*
X113450571Y-123246819D02*
X113355333Y-123246819D01*
X113355333Y-123246819D02*
X113212476Y-123294438D01*
X113212476Y-123294438D02*
X113164857Y-123342057D01*
X112593428Y-123675390D02*
X112688666Y-123627771D01*
X112688666Y-123627771D02*
X112736285Y-123580152D01*
X112736285Y-123580152D02*
X112783904Y-123484914D01*
X112783904Y-123484914D02*
X112783904Y-123437295D01*
X112783904Y-123437295D02*
X112736285Y-123342057D01*
X112736285Y-123342057D02*
X112688666Y-123294438D01*
X112688666Y-123294438D02*
X112593428Y-123246819D01*
X112593428Y-123246819D02*
X112402952Y-123246819D01*
X112402952Y-123246819D02*
X112307714Y-123294438D01*
X112307714Y-123294438D02*
X112260095Y-123342057D01*
X112260095Y-123342057D02*
X112212476Y-123437295D01*
X112212476Y-123437295D02*
X112212476Y-123484914D01*
X112212476Y-123484914D02*
X112260095Y-123580152D01*
X112260095Y-123580152D02*
X112307714Y-123627771D01*
X112307714Y-123627771D02*
X112402952Y-123675390D01*
X112402952Y-123675390D02*
X112593428Y-123675390D01*
X112593428Y-123675390D02*
X112688666Y-123723009D01*
X112688666Y-123723009D02*
X112736285Y-123770628D01*
X112736285Y-123770628D02*
X112783904Y-123865866D01*
X112783904Y-123865866D02*
X112783904Y-124056342D01*
X112783904Y-124056342D02*
X112736285Y-124151580D01*
X112736285Y-124151580D02*
X112688666Y-124199200D01*
X112688666Y-124199200D02*
X112593428Y-124246819D01*
X112593428Y-124246819D02*
X112402952Y-124246819D01*
X112402952Y-124246819D02*
X112307714Y-124199200D01*
X112307714Y-124199200D02*
X112260095Y-124151580D01*
X112260095Y-124151580D02*
X112212476Y-124056342D01*
X112212476Y-124056342D02*
X112212476Y-123865866D01*
X112212476Y-123865866D02*
X112260095Y-123770628D01*
X112260095Y-123770628D02*
X112307714Y-123723009D01*
X112307714Y-123723009D02*
X112402952Y-123675390D01*
X111355333Y-123246819D02*
X111545809Y-123246819D01*
X111545809Y-123246819D02*
X111641047Y-123294438D01*
X111641047Y-123294438D02*
X111688666Y-123342057D01*
X111688666Y-123342057D02*
X111783904Y-123484914D01*
X111783904Y-123484914D02*
X111831523Y-123675390D01*
X111831523Y-123675390D02*
X111831523Y-124056342D01*
X111831523Y-124056342D02*
X111783904Y-124151580D01*
X111783904Y-124151580D02*
X111736285Y-124199200D01*
X111736285Y-124199200D02*
X111641047Y-124246819D01*
X111641047Y-124246819D02*
X111450571Y-124246819D01*
X111450571Y-124246819D02*
X111355333Y-124199200D01*
X111355333Y-124199200D02*
X111307714Y-124151580D01*
X111307714Y-124151580D02*
X111260095Y-124056342D01*
X111260095Y-124056342D02*
X111260095Y-123818247D01*
X111260095Y-123818247D02*
X111307714Y-123723009D01*
X111307714Y-123723009D02*
X111355333Y-123675390D01*
X111355333Y-123675390D02*
X111450571Y-123627771D01*
X111450571Y-123627771D02*
X111641047Y-123627771D01*
X111641047Y-123627771D02*
X111736285Y-123675390D01*
X111736285Y-123675390D02*
X111783904Y-123723009D01*
X111783904Y-123723009D02*
X111831523Y-123818247D01*
X230257237Y-79534104D02*
X230295333Y-79572200D01*
X230295333Y-79572200D02*
X230409618Y-79610295D01*
X230409618Y-79610295D02*
X230485809Y-79610295D01*
X230485809Y-79610295D02*
X230600095Y-79572200D01*
X230600095Y-79572200D02*
X230676285Y-79496009D01*
X230676285Y-79496009D02*
X230714380Y-79419819D01*
X230714380Y-79419819D02*
X230752476Y-79267438D01*
X230752476Y-79267438D02*
X230752476Y-79153152D01*
X230752476Y-79153152D02*
X230714380Y-79000771D01*
X230714380Y-79000771D02*
X230676285Y-78924580D01*
X230676285Y-78924580D02*
X230600095Y-78848390D01*
X230600095Y-78848390D02*
X230485809Y-78810295D01*
X230485809Y-78810295D02*
X230409618Y-78810295D01*
X230409618Y-78810295D02*
X230295333Y-78848390D01*
X230295333Y-78848390D02*
X230257237Y-78886485D01*
X229495333Y-79610295D02*
X229952476Y-79610295D01*
X229723904Y-79610295D02*
X229723904Y-78810295D01*
X229723904Y-78810295D02*
X229800095Y-78924580D01*
X229800095Y-78924580D02*
X229876285Y-79000771D01*
X229876285Y-79000771D02*
X229952476Y-79038866D01*
X229000094Y-78810295D02*
X228923904Y-78810295D01*
X228923904Y-78810295D02*
X228847713Y-78848390D01*
X228847713Y-78848390D02*
X228809618Y-78886485D01*
X228809618Y-78886485D02*
X228771523Y-78962676D01*
X228771523Y-78962676D02*
X228733428Y-79115057D01*
X228733428Y-79115057D02*
X228733428Y-79305533D01*
X228733428Y-79305533D02*
X228771523Y-79457914D01*
X228771523Y-79457914D02*
X228809618Y-79534104D01*
X228809618Y-79534104D02*
X228847713Y-79572200D01*
X228847713Y-79572200D02*
X228923904Y-79610295D01*
X228923904Y-79610295D02*
X229000094Y-79610295D01*
X229000094Y-79610295D02*
X229076285Y-79572200D01*
X229076285Y-79572200D02*
X229114380Y-79534104D01*
X229114380Y-79534104D02*
X229152475Y-79457914D01*
X229152475Y-79457914D02*
X229190571Y-79305533D01*
X229190571Y-79305533D02*
X229190571Y-79115057D01*
X229190571Y-79115057D02*
X229152475Y-78962676D01*
X229152475Y-78962676D02*
X229114380Y-78886485D01*
X229114380Y-78886485D02*
X229076285Y-78848390D01*
X229076285Y-78848390D02*
X229000094Y-78810295D01*
X228238189Y-78810295D02*
X228161999Y-78810295D01*
X228161999Y-78810295D02*
X228085808Y-78848390D01*
X228085808Y-78848390D02*
X228047713Y-78886485D01*
X228047713Y-78886485D02*
X228009618Y-78962676D01*
X228009618Y-78962676D02*
X227971523Y-79115057D01*
X227971523Y-79115057D02*
X227971523Y-79305533D01*
X227971523Y-79305533D02*
X228009618Y-79457914D01*
X228009618Y-79457914D02*
X228047713Y-79534104D01*
X228047713Y-79534104D02*
X228085808Y-79572200D01*
X228085808Y-79572200D02*
X228161999Y-79610295D01*
X228161999Y-79610295D02*
X228238189Y-79610295D01*
X228238189Y-79610295D02*
X228314380Y-79572200D01*
X228314380Y-79572200D02*
X228352475Y-79534104D01*
X228352475Y-79534104D02*
X228390570Y-79457914D01*
X228390570Y-79457914D02*
X228428666Y-79305533D01*
X228428666Y-79305533D02*
X228428666Y-79115057D01*
X228428666Y-79115057D02*
X228390570Y-78962676D01*
X228390570Y-78962676D02*
X228352475Y-78886485D01*
X228352475Y-78886485D02*
X228314380Y-78848390D01*
X228314380Y-78848390D02*
X228238189Y-78810295D01*
X207748047Y-78337580D02*
X207795666Y-78385200D01*
X207795666Y-78385200D02*
X207938523Y-78432819D01*
X207938523Y-78432819D02*
X208033761Y-78432819D01*
X208033761Y-78432819D02*
X208176618Y-78385200D01*
X208176618Y-78385200D02*
X208271856Y-78289961D01*
X208271856Y-78289961D02*
X208319475Y-78194723D01*
X208319475Y-78194723D02*
X208367094Y-78004247D01*
X208367094Y-78004247D02*
X208367094Y-77861390D01*
X208367094Y-77861390D02*
X208319475Y-77670914D01*
X208319475Y-77670914D02*
X208271856Y-77575676D01*
X208271856Y-77575676D02*
X208176618Y-77480438D01*
X208176618Y-77480438D02*
X208033761Y-77432819D01*
X208033761Y-77432819D02*
X207938523Y-77432819D01*
X207938523Y-77432819D02*
X207795666Y-77480438D01*
X207795666Y-77480438D02*
X207748047Y-77528057D01*
X206795666Y-78432819D02*
X207367094Y-78432819D01*
X207081380Y-78432819D02*
X207081380Y-77432819D01*
X207081380Y-77432819D02*
X207176618Y-77575676D01*
X207176618Y-77575676D02*
X207271856Y-77670914D01*
X207271856Y-77670914D02*
X207367094Y-77718533D01*
X205843285Y-78432819D02*
X206414713Y-78432819D01*
X206128999Y-78432819D02*
X206128999Y-77432819D01*
X206128999Y-77432819D02*
X206224237Y-77575676D01*
X206224237Y-77575676D02*
X206319475Y-77670914D01*
X206319475Y-77670914D02*
X206414713Y-77718533D01*
X205462332Y-77528057D02*
X205414713Y-77480438D01*
X205414713Y-77480438D02*
X205319475Y-77432819D01*
X205319475Y-77432819D02*
X205081380Y-77432819D01*
X205081380Y-77432819D02*
X204986142Y-77480438D01*
X204986142Y-77480438D02*
X204938523Y-77528057D01*
X204938523Y-77528057D02*
X204890904Y-77623295D01*
X204890904Y-77623295D02*
X204890904Y-77718533D01*
X204890904Y-77718533D02*
X204938523Y-77861390D01*
X204938523Y-77861390D02*
X205509951Y-78432819D01*
X205509951Y-78432819D02*
X204890904Y-78432819D01*
X215469065Y-49565074D02*
X216106486Y-49565074D01*
X216106486Y-49565074D02*
X216181476Y-49602570D01*
X216181476Y-49602570D02*
X216218972Y-49640065D01*
X216218972Y-49640065D02*
X216256467Y-49715056D01*
X216256467Y-49715056D02*
X216256467Y-49865037D01*
X216256467Y-49865037D02*
X216218972Y-49940028D01*
X216218972Y-49940028D02*
X216181476Y-49977523D01*
X216181476Y-49977523D02*
X216106486Y-50015018D01*
X216106486Y-50015018D02*
X215469065Y-50015018D01*
X215544056Y-50352476D02*
X215506560Y-50389971D01*
X215506560Y-50389971D02*
X215469065Y-50464962D01*
X215469065Y-50464962D02*
X215469065Y-50652439D01*
X215469065Y-50652439D02*
X215506560Y-50727429D01*
X215506560Y-50727429D02*
X215544056Y-50764925D01*
X215544056Y-50764925D02*
X215619046Y-50802420D01*
X215619046Y-50802420D02*
X215694037Y-50802420D01*
X215694037Y-50802420D02*
X215806523Y-50764925D01*
X215806523Y-50764925D02*
X216256467Y-50314981D01*
X216256467Y-50314981D02*
X216256467Y-50802420D01*
X209550919Y-46990000D02*
X209789014Y-46990000D01*
X209693776Y-46751905D02*
X209789014Y-46990000D01*
X209789014Y-46990000D02*
X209693776Y-47228095D01*
X209979490Y-46847143D02*
X209789014Y-46990000D01*
X209789014Y-46990000D02*
X209979490Y-47132857D01*
X124568295Y-51428714D02*
X124187342Y-51162047D01*
X124568295Y-50971571D02*
X123768295Y-50971571D01*
X123768295Y-50971571D02*
X123768295Y-51276333D01*
X123768295Y-51276333D02*
X123806390Y-51352523D01*
X123806390Y-51352523D02*
X123844485Y-51390618D01*
X123844485Y-51390618D02*
X123920676Y-51428714D01*
X123920676Y-51428714D02*
X124034961Y-51428714D01*
X124034961Y-51428714D02*
X124111152Y-51390618D01*
X124111152Y-51390618D02*
X124149247Y-51352523D01*
X124149247Y-51352523D02*
X124187342Y-51276333D01*
X124187342Y-51276333D02*
X124187342Y-50971571D01*
X123768295Y-51695380D02*
X123768295Y-52228714D01*
X123768295Y-52228714D02*
X124568295Y-51885856D01*
X123768295Y-52457285D02*
X123768295Y-52952523D01*
X123768295Y-52952523D02*
X124073057Y-52685857D01*
X124073057Y-52685857D02*
X124073057Y-52800142D01*
X124073057Y-52800142D02*
X124111152Y-52876333D01*
X124111152Y-52876333D02*
X124149247Y-52914428D01*
X124149247Y-52914428D02*
X124225438Y-52952523D01*
X124225438Y-52952523D02*
X124415914Y-52952523D01*
X124415914Y-52952523D02*
X124492104Y-52914428D01*
X124492104Y-52914428D02*
X124530200Y-52876333D01*
X124530200Y-52876333D02*
X124568295Y-52800142D01*
X124568295Y-52800142D02*
X124568295Y-52571571D01*
X124568295Y-52571571D02*
X124530200Y-52495380D01*
X124530200Y-52495380D02*
X124492104Y-52457285D01*
X72396285Y-81058104D02*
X72434381Y-81096200D01*
X72434381Y-81096200D02*
X72548666Y-81134295D01*
X72548666Y-81134295D02*
X72624857Y-81134295D01*
X72624857Y-81134295D02*
X72739143Y-81096200D01*
X72739143Y-81096200D02*
X72815333Y-81020009D01*
X72815333Y-81020009D02*
X72853428Y-80943819D01*
X72853428Y-80943819D02*
X72891524Y-80791438D01*
X72891524Y-80791438D02*
X72891524Y-80677152D01*
X72891524Y-80677152D02*
X72853428Y-80524771D01*
X72853428Y-80524771D02*
X72815333Y-80448580D01*
X72815333Y-80448580D02*
X72739143Y-80372390D01*
X72739143Y-80372390D02*
X72624857Y-80334295D01*
X72624857Y-80334295D02*
X72548666Y-80334295D01*
X72548666Y-80334295D02*
X72434381Y-80372390D01*
X72434381Y-80372390D02*
X72396285Y-80410485D01*
X71672476Y-80334295D02*
X72053428Y-80334295D01*
X72053428Y-80334295D02*
X72091524Y-80715247D01*
X72091524Y-80715247D02*
X72053428Y-80677152D01*
X72053428Y-80677152D02*
X71977238Y-80639057D01*
X71977238Y-80639057D02*
X71786762Y-80639057D01*
X71786762Y-80639057D02*
X71710571Y-80677152D01*
X71710571Y-80677152D02*
X71672476Y-80715247D01*
X71672476Y-80715247D02*
X71634381Y-80791438D01*
X71634381Y-80791438D02*
X71634381Y-80981914D01*
X71634381Y-80981914D02*
X71672476Y-81058104D01*
X71672476Y-81058104D02*
X71710571Y-81096200D01*
X71710571Y-81096200D02*
X71786762Y-81134295D01*
X71786762Y-81134295D02*
X71977238Y-81134295D01*
X71977238Y-81134295D02*
X72053428Y-81096200D01*
X72053428Y-81096200D02*
X72091524Y-81058104D01*
X70948666Y-80334295D02*
X71101047Y-80334295D01*
X71101047Y-80334295D02*
X71177238Y-80372390D01*
X71177238Y-80372390D02*
X71215333Y-80410485D01*
X71215333Y-80410485D02*
X71291523Y-80524771D01*
X71291523Y-80524771D02*
X71329619Y-80677152D01*
X71329619Y-80677152D02*
X71329619Y-80981914D01*
X71329619Y-80981914D02*
X71291523Y-81058104D01*
X71291523Y-81058104D02*
X71253428Y-81096200D01*
X71253428Y-81096200D02*
X71177238Y-81134295D01*
X71177238Y-81134295D02*
X71024857Y-81134295D01*
X71024857Y-81134295D02*
X70948666Y-81096200D01*
X70948666Y-81096200D02*
X70910571Y-81058104D01*
X70910571Y-81058104D02*
X70872476Y-80981914D01*
X70872476Y-80981914D02*
X70872476Y-80791438D01*
X70872476Y-80791438D02*
X70910571Y-80715247D01*
X70910571Y-80715247D02*
X70948666Y-80677152D01*
X70948666Y-80677152D02*
X71024857Y-80639057D01*
X71024857Y-80639057D02*
X71177238Y-80639057D01*
X71177238Y-80639057D02*
X71253428Y-80677152D01*
X71253428Y-80677152D02*
X71291523Y-80715247D01*
X71291523Y-80715247D02*
X71329619Y-80791438D01*
X75825285Y-71025104D02*
X75863381Y-71063200D01*
X75863381Y-71063200D02*
X75977666Y-71101295D01*
X75977666Y-71101295D02*
X76053857Y-71101295D01*
X76053857Y-71101295D02*
X76168143Y-71063200D01*
X76168143Y-71063200D02*
X76244333Y-70987009D01*
X76244333Y-70987009D02*
X76282428Y-70910819D01*
X76282428Y-70910819D02*
X76320524Y-70758438D01*
X76320524Y-70758438D02*
X76320524Y-70644152D01*
X76320524Y-70644152D02*
X76282428Y-70491771D01*
X76282428Y-70491771D02*
X76244333Y-70415580D01*
X76244333Y-70415580D02*
X76168143Y-70339390D01*
X76168143Y-70339390D02*
X76053857Y-70301295D01*
X76053857Y-70301295D02*
X75977666Y-70301295D01*
X75977666Y-70301295D02*
X75863381Y-70339390D01*
X75863381Y-70339390D02*
X75825285Y-70377485D01*
X75101476Y-70301295D02*
X75482428Y-70301295D01*
X75482428Y-70301295D02*
X75520524Y-70682247D01*
X75520524Y-70682247D02*
X75482428Y-70644152D01*
X75482428Y-70644152D02*
X75406238Y-70606057D01*
X75406238Y-70606057D02*
X75215762Y-70606057D01*
X75215762Y-70606057D02*
X75139571Y-70644152D01*
X75139571Y-70644152D02*
X75101476Y-70682247D01*
X75101476Y-70682247D02*
X75063381Y-70758438D01*
X75063381Y-70758438D02*
X75063381Y-70948914D01*
X75063381Y-70948914D02*
X75101476Y-71025104D01*
X75101476Y-71025104D02*
X75139571Y-71063200D01*
X75139571Y-71063200D02*
X75215762Y-71101295D01*
X75215762Y-71101295D02*
X75406238Y-71101295D01*
X75406238Y-71101295D02*
X75482428Y-71063200D01*
X75482428Y-71063200D02*
X75520524Y-71025104D01*
X74796714Y-70301295D02*
X74263380Y-70301295D01*
X74263380Y-70301295D02*
X74606238Y-71101295D01*
X235055580Y-82161142D02*
X235103200Y-82113523D01*
X235103200Y-82113523D02*
X235150819Y-81970666D01*
X235150819Y-81970666D02*
X235150819Y-81875428D01*
X235150819Y-81875428D02*
X235103200Y-81732571D01*
X235103200Y-81732571D02*
X235007961Y-81637333D01*
X235007961Y-81637333D02*
X234912723Y-81589714D01*
X234912723Y-81589714D02*
X234722247Y-81542095D01*
X234722247Y-81542095D02*
X234579390Y-81542095D01*
X234579390Y-81542095D02*
X234388914Y-81589714D01*
X234388914Y-81589714D02*
X234293676Y-81637333D01*
X234293676Y-81637333D02*
X234198438Y-81732571D01*
X234198438Y-81732571D02*
X234150819Y-81875428D01*
X234150819Y-81875428D02*
X234150819Y-81970666D01*
X234150819Y-81970666D02*
X234198438Y-82113523D01*
X234198438Y-82113523D02*
X234246057Y-82161142D01*
X234484152Y-83018285D02*
X235150819Y-83018285D01*
X234103200Y-82780190D02*
X234817485Y-82542095D01*
X234817485Y-82542095D02*
X234817485Y-83161142D01*
X235150819Y-84065904D02*
X235150819Y-83494476D01*
X235150819Y-83780190D02*
X234150819Y-83780190D01*
X234150819Y-83780190D02*
X234293676Y-83684952D01*
X234293676Y-83684952D02*
X234388914Y-83589714D01*
X234388914Y-83589714D02*
X234436533Y-83494476D01*
X232544857Y-73892580D02*
X232592476Y-73940200D01*
X232592476Y-73940200D02*
X232735333Y-73987819D01*
X232735333Y-73987819D02*
X232830571Y-73987819D01*
X232830571Y-73987819D02*
X232973428Y-73940200D01*
X232973428Y-73940200D02*
X233068666Y-73844961D01*
X233068666Y-73844961D02*
X233116285Y-73749723D01*
X233116285Y-73749723D02*
X233163904Y-73559247D01*
X233163904Y-73559247D02*
X233163904Y-73416390D01*
X233163904Y-73416390D02*
X233116285Y-73225914D01*
X233116285Y-73225914D02*
X233068666Y-73130676D01*
X233068666Y-73130676D02*
X232973428Y-73035438D01*
X232973428Y-73035438D02*
X232830571Y-72987819D01*
X232830571Y-72987819D02*
X232735333Y-72987819D01*
X232735333Y-72987819D02*
X232592476Y-73035438D01*
X232592476Y-73035438D02*
X232544857Y-73083057D01*
X232211523Y-72987819D02*
X231592476Y-72987819D01*
X231592476Y-72987819D02*
X231925809Y-73368771D01*
X231925809Y-73368771D02*
X231782952Y-73368771D01*
X231782952Y-73368771D02*
X231687714Y-73416390D01*
X231687714Y-73416390D02*
X231640095Y-73464009D01*
X231640095Y-73464009D02*
X231592476Y-73559247D01*
X231592476Y-73559247D02*
X231592476Y-73797342D01*
X231592476Y-73797342D02*
X231640095Y-73892580D01*
X231640095Y-73892580D02*
X231687714Y-73940200D01*
X231687714Y-73940200D02*
X231782952Y-73987819D01*
X231782952Y-73987819D02*
X232068666Y-73987819D01*
X232068666Y-73987819D02*
X232163904Y-73940200D01*
X232163904Y-73940200D02*
X232211523Y-73892580D01*
X230687714Y-72987819D02*
X231163904Y-72987819D01*
X231163904Y-72987819D02*
X231211523Y-73464009D01*
X231211523Y-73464009D02*
X231163904Y-73416390D01*
X231163904Y-73416390D02*
X231068666Y-73368771D01*
X231068666Y-73368771D02*
X230830571Y-73368771D01*
X230830571Y-73368771D02*
X230735333Y-73416390D01*
X230735333Y-73416390D02*
X230687714Y-73464009D01*
X230687714Y-73464009D02*
X230640095Y-73559247D01*
X230640095Y-73559247D02*
X230640095Y-73797342D01*
X230640095Y-73797342D02*
X230687714Y-73892580D01*
X230687714Y-73892580D02*
X230735333Y-73940200D01*
X230735333Y-73940200D02*
X230830571Y-73987819D01*
X230830571Y-73987819D02*
X231068666Y-73987819D01*
X231068666Y-73987819D02*
X231163904Y-73940200D01*
X231163904Y-73940200D02*
X231211523Y-73892580D01*
X99448857Y-125581580D02*
X99496476Y-125629200D01*
X99496476Y-125629200D02*
X99639333Y-125676819D01*
X99639333Y-125676819D02*
X99734571Y-125676819D01*
X99734571Y-125676819D02*
X99877428Y-125629200D01*
X99877428Y-125629200D02*
X99972666Y-125533961D01*
X99972666Y-125533961D02*
X100020285Y-125438723D01*
X100020285Y-125438723D02*
X100067904Y-125248247D01*
X100067904Y-125248247D02*
X100067904Y-125105390D01*
X100067904Y-125105390D02*
X100020285Y-124914914D01*
X100020285Y-124914914D02*
X99972666Y-124819676D01*
X99972666Y-124819676D02*
X99877428Y-124724438D01*
X99877428Y-124724438D02*
X99734571Y-124676819D01*
X99734571Y-124676819D02*
X99639333Y-124676819D01*
X99639333Y-124676819D02*
X99496476Y-124724438D01*
X99496476Y-124724438D02*
X99448857Y-124772057D01*
X98877428Y-125105390D02*
X98972666Y-125057771D01*
X98972666Y-125057771D02*
X99020285Y-125010152D01*
X99020285Y-125010152D02*
X99067904Y-124914914D01*
X99067904Y-124914914D02*
X99067904Y-124867295D01*
X99067904Y-124867295D02*
X99020285Y-124772057D01*
X99020285Y-124772057D02*
X98972666Y-124724438D01*
X98972666Y-124724438D02*
X98877428Y-124676819D01*
X98877428Y-124676819D02*
X98686952Y-124676819D01*
X98686952Y-124676819D02*
X98591714Y-124724438D01*
X98591714Y-124724438D02*
X98544095Y-124772057D01*
X98544095Y-124772057D02*
X98496476Y-124867295D01*
X98496476Y-124867295D02*
X98496476Y-124914914D01*
X98496476Y-124914914D02*
X98544095Y-125010152D01*
X98544095Y-125010152D02*
X98591714Y-125057771D01*
X98591714Y-125057771D02*
X98686952Y-125105390D01*
X98686952Y-125105390D02*
X98877428Y-125105390D01*
X98877428Y-125105390D02*
X98972666Y-125153009D01*
X98972666Y-125153009D02*
X99020285Y-125200628D01*
X99020285Y-125200628D02*
X99067904Y-125295866D01*
X99067904Y-125295866D02*
X99067904Y-125486342D01*
X99067904Y-125486342D02*
X99020285Y-125581580D01*
X99020285Y-125581580D02*
X98972666Y-125629200D01*
X98972666Y-125629200D02*
X98877428Y-125676819D01*
X98877428Y-125676819D02*
X98686952Y-125676819D01*
X98686952Y-125676819D02*
X98591714Y-125629200D01*
X98591714Y-125629200D02*
X98544095Y-125581580D01*
X98544095Y-125581580D02*
X98496476Y-125486342D01*
X98496476Y-125486342D02*
X98496476Y-125295866D01*
X98496476Y-125295866D02*
X98544095Y-125200628D01*
X98544095Y-125200628D02*
X98591714Y-125153009D01*
X98591714Y-125153009D02*
X98686952Y-125105390D01*
X97591714Y-124676819D02*
X98067904Y-124676819D01*
X98067904Y-124676819D02*
X98115523Y-125153009D01*
X98115523Y-125153009D02*
X98067904Y-125105390D01*
X98067904Y-125105390D02*
X97972666Y-125057771D01*
X97972666Y-125057771D02*
X97734571Y-125057771D01*
X97734571Y-125057771D02*
X97639333Y-125105390D01*
X97639333Y-125105390D02*
X97591714Y-125153009D01*
X97591714Y-125153009D02*
X97544095Y-125248247D01*
X97544095Y-125248247D02*
X97544095Y-125486342D01*
X97544095Y-125486342D02*
X97591714Y-125581580D01*
X97591714Y-125581580D02*
X97639333Y-125629200D01*
X97639333Y-125629200D02*
X97734571Y-125676819D01*
X97734571Y-125676819D02*
X97972666Y-125676819D01*
X97972666Y-125676819D02*
X98067904Y-125629200D01*
X98067904Y-125629200D02*
X98115523Y-125581580D01*
X114688857Y-130153580D02*
X114736476Y-130201200D01*
X114736476Y-130201200D02*
X114879333Y-130248819D01*
X114879333Y-130248819D02*
X114974571Y-130248819D01*
X114974571Y-130248819D02*
X115117428Y-130201200D01*
X115117428Y-130201200D02*
X115212666Y-130105961D01*
X115212666Y-130105961D02*
X115260285Y-130010723D01*
X115260285Y-130010723D02*
X115307904Y-129820247D01*
X115307904Y-129820247D02*
X115307904Y-129677390D01*
X115307904Y-129677390D02*
X115260285Y-129486914D01*
X115260285Y-129486914D02*
X115212666Y-129391676D01*
X115212666Y-129391676D02*
X115117428Y-129296438D01*
X115117428Y-129296438D02*
X114974571Y-129248819D01*
X114974571Y-129248819D02*
X114879333Y-129248819D01*
X114879333Y-129248819D02*
X114736476Y-129296438D01*
X114736476Y-129296438D02*
X114688857Y-129344057D01*
X114117428Y-129677390D02*
X114212666Y-129629771D01*
X114212666Y-129629771D02*
X114260285Y-129582152D01*
X114260285Y-129582152D02*
X114307904Y-129486914D01*
X114307904Y-129486914D02*
X114307904Y-129439295D01*
X114307904Y-129439295D02*
X114260285Y-129344057D01*
X114260285Y-129344057D02*
X114212666Y-129296438D01*
X114212666Y-129296438D02*
X114117428Y-129248819D01*
X114117428Y-129248819D02*
X113926952Y-129248819D01*
X113926952Y-129248819D02*
X113831714Y-129296438D01*
X113831714Y-129296438D02*
X113784095Y-129344057D01*
X113784095Y-129344057D02*
X113736476Y-129439295D01*
X113736476Y-129439295D02*
X113736476Y-129486914D01*
X113736476Y-129486914D02*
X113784095Y-129582152D01*
X113784095Y-129582152D02*
X113831714Y-129629771D01*
X113831714Y-129629771D02*
X113926952Y-129677390D01*
X113926952Y-129677390D02*
X114117428Y-129677390D01*
X114117428Y-129677390D02*
X114212666Y-129725009D01*
X114212666Y-129725009D02*
X114260285Y-129772628D01*
X114260285Y-129772628D02*
X114307904Y-129867866D01*
X114307904Y-129867866D02*
X114307904Y-130058342D01*
X114307904Y-130058342D02*
X114260285Y-130153580D01*
X114260285Y-130153580D02*
X114212666Y-130201200D01*
X114212666Y-130201200D02*
X114117428Y-130248819D01*
X114117428Y-130248819D02*
X113926952Y-130248819D01*
X113926952Y-130248819D02*
X113831714Y-130201200D01*
X113831714Y-130201200D02*
X113784095Y-130153580D01*
X113784095Y-130153580D02*
X113736476Y-130058342D01*
X113736476Y-130058342D02*
X113736476Y-129867866D01*
X113736476Y-129867866D02*
X113784095Y-129772628D01*
X113784095Y-129772628D02*
X113831714Y-129725009D01*
X113831714Y-129725009D02*
X113926952Y-129677390D01*
X113403142Y-129248819D02*
X112736476Y-129248819D01*
X112736476Y-129248819D02*
X113165047Y-130248819D01*
X238198819Y-82161142D02*
X237722628Y-81827809D01*
X238198819Y-81589714D02*
X237198819Y-81589714D01*
X237198819Y-81589714D02*
X237198819Y-81970666D01*
X237198819Y-81970666D02*
X237246438Y-82065904D01*
X237246438Y-82065904D02*
X237294057Y-82113523D01*
X237294057Y-82113523D02*
X237389295Y-82161142D01*
X237389295Y-82161142D02*
X237532152Y-82161142D01*
X237532152Y-82161142D02*
X237627390Y-82113523D01*
X237627390Y-82113523D02*
X237675009Y-82065904D01*
X237675009Y-82065904D02*
X237722628Y-81970666D01*
X237722628Y-81970666D02*
X237722628Y-81589714D01*
X237198819Y-83065904D02*
X237198819Y-82589714D01*
X237198819Y-82589714D02*
X237675009Y-82542095D01*
X237675009Y-82542095D02*
X237627390Y-82589714D01*
X237627390Y-82589714D02*
X237579771Y-82684952D01*
X237579771Y-82684952D02*
X237579771Y-82923047D01*
X237579771Y-82923047D02*
X237627390Y-83018285D01*
X237627390Y-83018285D02*
X237675009Y-83065904D01*
X237675009Y-83065904D02*
X237770247Y-83113523D01*
X237770247Y-83113523D02*
X238008342Y-83113523D01*
X238008342Y-83113523D02*
X238103580Y-83065904D01*
X238103580Y-83065904D02*
X238151200Y-83018285D01*
X238151200Y-83018285D02*
X238198819Y-82923047D01*
X238198819Y-82923047D02*
X238198819Y-82684952D01*
X238198819Y-82684952D02*
X238151200Y-82589714D01*
X238151200Y-82589714D02*
X238103580Y-82542095D01*
X237198819Y-83446857D02*
X237198819Y-84113523D01*
X237198819Y-84113523D02*
X238198819Y-83684952D01*
X99194857Y-127867580D02*
X99242476Y-127915200D01*
X99242476Y-127915200D02*
X99385333Y-127962819D01*
X99385333Y-127962819D02*
X99480571Y-127962819D01*
X99480571Y-127962819D02*
X99623428Y-127915200D01*
X99623428Y-127915200D02*
X99718666Y-127819961D01*
X99718666Y-127819961D02*
X99766285Y-127724723D01*
X99766285Y-127724723D02*
X99813904Y-127534247D01*
X99813904Y-127534247D02*
X99813904Y-127391390D01*
X99813904Y-127391390D02*
X99766285Y-127200914D01*
X99766285Y-127200914D02*
X99718666Y-127105676D01*
X99718666Y-127105676D02*
X99623428Y-127010438D01*
X99623428Y-127010438D02*
X99480571Y-126962819D01*
X99480571Y-126962819D02*
X99385333Y-126962819D01*
X99385333Y-126962819D02*
X99242476Y-127010438D01*
X99242476Y-127010438D02*
X99194857Y-127058057D01*
X98623428Y-127391390D02*
X98718666Y-127343771D01*
X98718666Y-127343771D02*
X98766285Y-127296152D01*
X98766285Y-127296152D02*
X98813904Y-127200914D01*
X98813904Y-127200914D02*
X98813904Y-127153295D01*
X98813904Y-127153295D02*
X98766285Y-127058057D01*
X98766285Y-127058057D02*
X98718666Y-127010438D01*
X98718666Y-127010438D02*
X98623428Y-126962819D01*
X98623428Y-126962819D02*
X98432952Y-126962819D01*
X98432952Y-126962819D02*
X98337714Y-127010438D01*
X98337714Y-127010438D02*
X98290095Y-127058057D01*
X98290095Y-127058057D02*
X98242476Y-127153295D01*
X98242476Y-127153295D02*
X98242476Y-127200914D01*
X98242476Y-127200914D02*
X98290095Y-127296152D01*
X98290095Y-127296152D02*
X98337714Y-127343771D01*
X98337714Y-127343771D02*
X98432952Y-127391390D01*
X98432952Y-127391390D02*
X98623428Y-127391390D01*
X98623428Y-127391390D02*
X98718666Y-127439009D01*
X98718666Y-127439009D02*
X98766285Y-127486628D01*
X98766285Y-127486628D02*
X98813904Y-127581866D01*
X98813904Y-127581866D02*
X98813904Y-127772342D01*
X98813904Y-127772342D02*
X98766285Y-127867580D01*
X98766285Y-127867580D02*
X98718666Y-127915200D01*
X98718666Y-127915200D02*
X98623428Y-127962819D01*
X98623428Y-127962819D02*
X98432952Y-127962819D01*
X98432952Y-127962819D02*
X98337714Y-127915200D01*
X98337714Y-127915200D02*
X98290095Y-127867580D01*
X98290095Y-127867580D02*
X98242476Y-127772342D01*
X98242476Y-127772342D02*
X98242476Y-127581866D01*
X98242476Y-127581866D02*
X98290095Y-127486628D01*
X98290095Y-127486628D02*
X98337714Y-127439009D01*
X98337714Y-127439009D02*
X98432952Y-127391390D01*
X97671047Y-127391390D02*
X97766285Y-127343771D01*
X97766285Y-127343771D02*
X97813904Y-127296152D01*
X97813904Y-127296152D02*
X97861523Y-127200914D01*
X97861523Y-127200914D02*
X97861523Y-127153295D01*
X97861523Y-127153295D02*
X97813904Y-127058057D01*
X97813904Y-127058057D02*
X97766285Y-127010438D01*
X97766285Y-127010438D02*
X97671047Y-126962819D01*
X97671047Y-126962819D02*
X97480571Y-126962819D01*
X97480571Y-126962819D02*
X97385333Y-127010438D01*
X97385333Y-127010438D02*
X97337714Y-127058057D01*
X97337714Y-127058057D02*
X97290095Y-127153295D01*
X97290095Y-127153295D02*
X97290095Y-127200914D01*
X97290095Y-127200914D02*
X97337714Y-127296152D01*
X97337714Y-127296152D02*
X97385333Y-127343771D01*
X97385333Y-127343771D02*
X97480571Y-127391390D01*
X97480571Y-127391390D02*
X97671047Y-127391390D01*
X97671047Y-127391390D02*
X97766285Y-127439009D01*
X97766285Y-127439009D02*
X97813904Y-127486628D01*
X97813904Y-127486628D02*
X97861523Y-127581866D01*
X97861523Y-127581866D02*
X97861523Y-127772342D01*
X97861523Y-127772342D02*
X97813904Y-127867580D01*
X97813904Y-127867580D02*
X97766285Y-127915200D01*
X97766285Y-127915200D02*
X97671047Y-127962819D01*
X97671047Y-127962819D02*
X97480571Y-127962819D01*
X97480571Y-127962819D02*
X97385333Y-127915200D01*
X97385333Y-127915200D02*
X97337714Y-127867580D01*
X97337714Y-127867580D02*
X97290095Y-127772342D01*
X97290095Y-127772342D02*
X97290095Y-127581866D01*
X97290095Y-127581866D02*
X97337714Y-127486628D01*
X97337714Y-127486628D02*
X97385333Y-127439009D01*
X97385333Y-127439009D02*
X97480571Y-127391390D01*
X212097857Y-75035580D02*
X212145476Y-75083200D01*
X212145476Y-75083200D02*
X212288333Y-75130819D01*
X212288333Y-75130819D02*
X212383571Y-75130819D01*
X212383571Y-75130819D02*
X212526428Y-75083200D01*
X212526428Y-75083200D02*
X212621666Y-74987961D01*
X212621666Y-74987961D02*
X212669285Y-74892723D01*
X212669285Y-74892723D02*
X212716904Y-74702247D01*
X212716904Y-74702247D02*
X212716904Y-74559390D01*
X212716904Y-74559390D02*
X212669285Y-74368914D01*
X212669285Y-74368914D02*
X212621666Y-74273676D01*
X212621666Y-74273676D02*
X212526428Y-74178438D01*
X212526428Y-74178438D02*
X212383571Y-74130819D01*
X212383571Y-74130819D02*
X212288333Y-74130819D01*
X212288333Y-74130819D02*
X212145476Y-74178438D01*
X212145476Y-74178438D02*
X212097857Y-74226057D01*
X211240714Y-74464152D02*
X211240714Y-75130819D01*
X211478809Y-74083200D02*
X211716904Y-74797485D01*
X211716904Y-74797485D02*
X211097857Y-74797485D01*
X210526428Y-74130819D02*
X210431190Y-74130819D01*
X210431190Y-74130819D02*
X210335952Y-74178438D01*
X210335952Y-74178438D02*
X210288333Y-74226057D01*
X210288333Y-74226057D02*
X210240714Y-74321295D01*
X210240714Y-74321295D02*
X210193095Y-74511771D01*
X210193095Y-74511771D02*
X210193095Y-74749866D01*
X210193095Y-74749866D02*
X210240714Y-74940342D01*
X210240714Y-74940342D02*
X210288333Y-75035580D01*
X210288333Y-75035580D02*
X210335952Y-75083200D01*
X210335952Y-75083200D02*
X210431190Y-75130819D01*
X210431190Y-75130819D02*
X210526428Y-75130819D01*
X210526428Y-75130819D02*
X210621666Y-75083200D01*
X210621666Y-75083200D02*
X210669285Y-75035580D01*
X210669285Y-75035580D02*
X210716904Y-74940342D01*
X210716904Y-74940342D02*
X210764523Y-74749866D01*
X210764523Y-74749866D02*
X210764523Y-74511771D01*
X210764523Y-74511771D02*
X210716904Y-74321295D01*
X210716904Y-74321295D02*
X210669285Y-74226057D01*
X210669285Y-74226057D02*
X210621666Y-74178438D01*
X210621666Y-74178438D02*
X210526428Y-74130819D01*
X223750047Y-80242580D02*
X223797666Y-80290200D01*
X223797666Y-80290200D02*
X223940523Y-80337819D01*
X223940523Y-80337819D02*
X224035761Y-80337819D01*
X224035761Y-80337819D02*
X224178618Y-80290200D01*
X224178618Y-80290200D02*
X224273856Y-80194961D01*
X224273856Y-80194961D02*
X224321475Y-80099723D01*
X224321475Y-80099723D02*
X224369094Y-79909247D01*
X224369094Y-79909247D02*
X224369094Y-79766390D01*
X224369094Y-79766390D02*
X224321475Y-79575914D01*
X224321475Y-79575914D02*
X224273856Y-79480676D01*
X224273856Y-79480676D02*
X224178618Y-79385438D01*
X224178618Y-79385438D02*
X224035761Y-79337819D01*
X224035761Y-79337819D02*
X223940523Y-79337819D01*
X223940523Y-79337819D02*
X223797666Y-79385438D01*
X223797666Y-79385438D02*
X223750047Y-79433057D01*
X222797666Y-80337819D02*
X223369094Y-80337819D01*
X223083380Y-80337819D02*
X223083380Y-79337819D01*
X223083380Y-79337819D02*
X223178618Y-79480676D01*
X223178618Y-79480676D02*
X223273856Y-79575914D01*
X223273856Y-79575914D02*
X223369094Y-79623533D01*
X221845285Y-80337819D02*
X222416713Y-80337819D01*
X222130999Y-80337819D02*
X222130999Y-79337819D01*
X222130999Y-79337819D02*
X222226237Y-79480676D01*
X222226237Y-79480676D02*
X222321475Y-79575914D01*
X222321475Y-79575914D02*
X222416713Y-79623533D01*
X221511951Y-79337819D02*
X220892904Y-79337819D01*
X220892904Y-79337819D02*
X221226237Y-79718771D01*
X221226237Y-79718771D02*
X221083380Y-79718771D01*
X221083380Y-79718771D02*
X220988142Y-79766390D01*
X220988142Y-79766390D02*
X220940523Y-79814009D01*
X220940523Y-79814009D02*
X220892904Y-79909247D01*
X220892904Y-79909247D02*
X220892904Y-80147342D01*
X220892904Y-80147342D02*
X220940523Y-80242580D01*
X220940523Y-80242580D02*
X220988142Y-80290200D01*
X220988142Y-80290200D02*
X221083380Y-80337819D01*
X221083380Y-80337819D02*
X221369094Y-80337819D01*
X221369094Y-80337819D02*
X221464332Y-80290200D01*
X221464332Y-80290200D02*
X221511951Y-80242580D01*
X133484857Y-55223580D02*
X133532476Y-55271200D01*
X133532476Y-55271200D02*
X133675333Y-55318819D01*
X133675333Y-55318819D02*
X133770571Y-55318819D01*
X133770571Y-55318819D02*
X133913428Y-55271200D01*
X133913428Y-55271200D02*
X134008666Y-55175961D01*
X134008666Y-55175961D02*
X134056285Y-55080723D01*
X134056285Y-55080723D02*
X134103904Y-54890247D01*
X134103904Y-54890247D02*
X134103904Y-54747390D01*
X134103904Y-54747390D02*
X134056285Y-54556914D01*
X134056285Y-54556914D02*
X134008666Y-54461676D01*
X134008666Y-54461676D02*
X133913428Y-54366438D01*
X133913428Y-54366438D02*
X133770571Y-54318819D01*
X133770571Y-54318819D02*
X133675333Y-54318819D01*
X133675333Y-54318819D02*
X133532476Y-54366438D01*
X133532476Y-54366438D02*
X133484857Y-54414057D01*
X133151523Y-54318819D02*
X132484857Y-54318819D01*
X132484857Y-54318819D02*
X132913428Y-55318819D01*
X131913428Y-54318819D02*
X131818190Y-54318819D01*
X131818190Y-54318819D02*
X131722952Y-54366438D01*
X131722952Y-54366438D02*
X131675333Y-54414057D01*
X131675333Y-54414057D02*
X131627714Y-54509295D01*
X131627714Y-54509295D02*
X131580095Y-54699771D01*
X131580095Y-54699771D02*
X131580095Y-54937866D01*
X131580095Y-54937866D02*
X131627714Y-55128342D01*
X131627714Y-55128342D02*
X131675333Y-55223580D01*
X131675333Y-55223580D02*
X131722952Y-55271200D01*
X131722952Y-55271200D02*
X131818190Y-55318819D01*
X131818190Y-55318819D02*
X131913428Y-55318819D01*
X131913428Y-55318819D02*
X132008666Y-55271200D01*
X132008666Y-55271200D02*
X132056285Y-55223580D01*
X132056285Y-55223580D02*
X132103904Y-55128342D01*
X132103904Y-55128342D02*
X132151523Y-54937866D01*
X132151523Y-54937866D02*
X132151523Y-54699771D01*
X132151523Y-54699771D02*
X132103904Y-54509295D01*
X132103904Y-54509295D02*
X132056285Y-54414057D01*
X132056285Y-54414057D02*
X132008666Y-54366438D01*
X132008666Y-54366438D02*
X131913428Y-54318819D01*
X242577857Y-81131580D02*
X242625476Y-81179200D01*
X242625476Y-81179200D02*
X242768333Y-81226819D01*
X242768333Y-81226819D02*
X242863571Y-81226819D01*
X242863571Y-81226819D02*
X243006428Y-81179200D01*
X243006428Y-81179200D02*
X243101666Y-81083961D01*
X243101666Y-81083961D02*
X243149285Y-80988723D01*
X243149285Y-80988723D02*
X243196904Y-80798247D01*
X243196904Y-80798247D02*
X243196904Y-80655390D01*
X243196904Y-80655390D02*
X243149285Y-80464914D01*
X243149285Y-80464914D02*
X243101666Y-80369676D01*
X243101666Y-80369676D02*
X243006428Y-80274438D01*
X243006428Y-80274438D02*
X242863571Y-80226819D01*
X242863571Y-80226819D02*
X242768333Y-80226819D01*
X242768333Y-80226819D02*
X242625476Y-80274438D01*
X242625476Y-80274438D02*
X242577857Y-80322057D01*
X242196904Y-80322057D02*
X242149285Y-80274438D01*
X242149285Y-80274438D02*
X242054047Y-80226819D01*
X242054047Y-80226819D02*
X241815952Y-80226819D01*
X241815952Y-80226819D02*
X241720714Y-80274438D01*
X241720714Y-80274438D02*
X241673095Y-80322057D01*
X241673095Y-80322057D02*
X241625476Y-80417295D01*
X241625476Y-80417295D02*
X241625476Y-80512533D01*
X241625476Y-80512533D02*
X241673095Y-80655390D01*
X241673095Y-80655390D02*
X242244523Y-81226819D01*
X242244523Y-81226819D02*
X241625476Y-81226819D01*
X240768333Y-80560152D02*
X240768333Y-81226819D01*
X241006428Y-80179200D02*
X241244523Y-80893485D01*
X241244523Y-80893485D02*
X240625476Y-80893485D01*
X69310094Y-99149819D02*
X69310094Y-99959342D01*
X69310094Y-99959342D02*
X69262475Y-100054580D01*
X69262475Y-100054580D02*
X69214856Y-100102200D01*
X69214856Y-100102200D02*
X69119618Y-100149819D01*
X69119618Y-100149819D02*
X68929142Y-100149819D01*
X68929142Y-100149819D02*
X68833904Y-100102200D01*
X68833904Y-100102200D02*
X68786285Y-100054580D01*
X68786285Y-100054580D02*
X68738666Y-99959342D01*
X68738666Y-99959342D02*
X68738666Y-99149819D01*
X67738666Y-100149819D02*
X68310094Y-100149819D01*
X68024380Y-100149819D02*
X68024380Y-99149819D01*
X68024380Y-99149819D02*
X68119618Y-99292676D01*
X68119618Y-99292676D02*
X68214856Y-99387914D01*
X68214856Y-99387914D02*
X68310094Y-99435533D01*
X67119618Y-99149819D02*
X67024380Y-99149819D01*
X67024380Y-99149819D02*
X66929142Y-99197438D01*
X66929142Y-99197438D02*
X66881523Y-99245057D01*
X66881523Y-99245057D02*
X66833904Y-99340295D01*
X66833904Y-99340295D02*
X66786285Y-99530771D01*
X66786285Y-99530771D02*
X66786285Y-99768866D01*
X66786285Y-99768866D02*
X66833904Y-99959342D01*
X66833904Y-99959342D02*
X66881523Y-100054580D01*
X66881523Y-100054580D02*
X66929142Y-100102200D01*
X66929142Y-100102200D02*
X67024380Y-100149819D01*
X67024380Y-100149819D02*
X67119618Y-100149819D01*
X67119618Y-100149819D02*
X67214856Y-100102200D01*
X67214856Y-100102200D02*
X67262475Y-100054580D01*
X67262475Y-100054580D02*
X67310094Y-99959342D01*
X67310094Y-99959342D02*
X67357713Y-99768866D01*
X67357713Y-99768866D02*
X67357713Y-99530771D01*
X67357713Y-99530771D02*
X67310094Y-99340295D01*
X67310094Y-99340295D02*
X67262475Y-99245057D01*
X67262475Y-99245057D02*
X67214856Y-99197438D01*
X67214856Y-99197438D02*
X67119618Y-99149819D01*
X221114857Y-73511580D02*
X221162476Y-73559200D01*
X221162476Y-73559200D02*
X221305333Y-73606819D01*
X221305333Y-73606819D02*
X221400571Y-73606819D01*
X221400571Y-73606819D02*
X221543428Y-73559200D01*
X221543428Y-73559200D02*
X221638666Y-73463961D01*
X221638666Y-73463961D02*
X221686285Y-73368723D01*
X221686285Y-73368723D02*
X221733904Y-73178247D01*
X221733904Y-73178247D02*
X221733904Y-73035390D01*
X221733904Y-73035390D02*
X221686285Y-72844914D01*
X221686285Y-72844914D02*
X221638666Y-72749676D01*
X221638666Y-72749676D02*
X221543428Y-72654438D01*
X221543428Y-72654438D02*
X221400571Y-72606819D01*
X221400571Y-72606819D02*
X221305333Y-72606819D01*
X221305333Y-72606819D02*
X221162476Y-72654438D01*
X221162476Y-72654438D02*
X221114857Y-72702057D01*
X220781523Y-72606819D02*
X220114857Y-72606819D01*
X220114857Y-72606819D02*
X220543428Y-73606819D01*
X219686285Y-73606819D02*
X219495809Y-73606819D01*
X219495809Y-73606819D02*
X219400571Y-73559200D01*
X219400571Y-73559200D02*
X219352952Y-73511580D01*
X219352952Y-73511580D02*
X219257714Y-73368723D01*
X219257714Y-73368723D02*
X219210095Y-73178247D01*
X219210095Y-73178247D02*
X219210095Y-72797295D01*
X219210095Y-72797295D02*
X219257714Y-72702057D01*
X219257714Y-72702057D02*
X219305333Y-72654438D01*
X219305333Y-72654438D02*
X219400571Y-72606819D01*
X219400571Y-72606819D02*
X219591047Y-72606819D01*
X219591047Y-72606819D02*
X219686285Y-72654438D01*
X219686285Y-72654438D02*
X219733904Y-72702057D01*
X219733904Y-72702057D02*
X219781523Y-72797295D01*
X219781523Y-72797295D02*
X219781523Y-73035390D01*
X219781523Y-73035390D02*
X219733904Y-73130628D01*
X219733904Y-73130628D02*
X219686285Y-73178247D01*
X219686285Y-73178247D02*
X219591047Y-73225866D01*
X219591047Y-73225866D02*
X219400571Y-73225866D01*
X219400571Y-73225866D02*
X219305333Y-73178247D01*
X219305333Y-73178247D02*
X219257714Y-73130628D01*
X219257714Y-73130628D02*
X219210095Y-73035390D01*
X217878819Y-81653142D02*
X217402628Y-81319809D01*
X217878819Y-81081714D02*
X216878819Y-81081714D01*
X216878819Y-81081714D02*
X216878819Y-81462666D01*
X216878819Y-81462666D02*
X216926438Y-81557904D01*
X216926438Y-81557904D02*
X216974057Y-81605523D01*
X216974057Y-81605523D02*
X217069295Y-81653142D01*
X217069295Y-81653142D02*
X217212152Y-81653142D01*
X217212152Y-81653142D02*
X217307390Y-81605523D01*
X217307390Y-81605523D02*
X217355009Y-81557904D01*
X217355009Y-81557904D02*
X217402628Y-81462666D01*
X217402628Y-81462666D02*
X217402628Y-81081714D01*
X216878819Y-82557904D02*
X216878819Y-82081714D01*
X216878819Y-82081714D02*
X217355009Y-82034095D01*
X217355009Y-82034095D02*
X217307390Y-82081714D01*
X217307390Y-82081714D02*
X217259771Y-82176952D01*
X217259771Y-82176952D02*
X217259771Y-82415047D01*
X217259771Y-82415047D02*
X217307390Y-82510285D01*
X217307390Y-82510285D02*
X217355009Y-82557904D01*
X217355009Y-82557904D02*
X217450247Y-82605523D01*
X217450247Y-82605523D02*
X217688342Y-82605523D01*
X217688342Y-82605523D02*
X217783580Y-82557904D01*
X217783580Y-82557904D02*
X217831200Y-82510285D01*
X217831200Y-82510285D02*
X217878819Y-82415047D01*
X217878819Y-82415047D02*
X217878819Y-82176952D01*
X217878819Y-82176952D02*
X217831200Y-82081714D01*
X217831200Y-82081714D02*
X217783580Y-82034095D01*
X216878819Y-83462666D02*
X216878819Y-83272190D01*
X216878819Y-83272190D02*
X216926438Y-83176952D01*
X216926438Y-83176952D02*
X216974057Y-83129333D01*
X216974057Y-83129333D02*
X217116914Y-83034095D01*
X217116914Y-83034095D02*
X217307390Y-82986476D01*
X217307390Y-82986476D02*
X217688342Y-82986476D01*
X217688342Y-82986476D02*
X217783580Y-83034095D01*
X217783580Y-83034095D02*
X217831200Y-83081714D01*
X217831200Y-83081714D02*
X217878819Y-83176952D01*
X217878819Y-83176952D02*
X217878819Y-83367428D01*
X217878819Y-83367428D02*
X217831200Y-83462666D01*
X217831200Y-83462666D02*
X217783580Y-83510285D01*
X217783580Y-83510285D02*
X217688342Y-83557904D01*
X217688342Y-83557904D02*
X217450247Y-83557904D01*
X217450247Y-83557904D02*
X217355009Y-83510285D01*
X217355009Y-83510285D02*
X217307390Y-83462666D01*
X217307390Y-83462666D02*
X217259771Y-83367428D01*
X217259771Y-83367428D02*
X217259771Y-83176952D01*
X217259771Y-83176952D02*
X217307390Y-83081714D01*
X217307390Y-83081714D02*
X217355009Y-83034095D01*
X217355009Y-83034095D02*
X217450247Y-82986476D01*
X241688857Y-75416580D02*
X241736476Y-75464200D01*
X241736476Y-75464200D02*
X241879333Y-75511819D01*
X241879333Y-75511819D02*
X241974571Y-75511819D01*
X241974571Y-75511819D02*
X242117428Y-75464200D01*
X242117428Y-75464200D02*
X242212666Y-75368961D01*
X242212666Y-75368961D02*
X242260285Y-75273723D01*
X242260285Y-75273723D02*
X242307904Y-75083247D01*
X242307904Y-75083247D02*
X242307904Y-74940390D01*
X242307904Y-74940390D02*
X242260285Y-74749914D01*
X242260285Y-74749914D02*
X242212666Y-74654676D01*
X242212666Y-74654676D02*
X242117428Y-74559438D01*
X242117428Y-74559438D02*
X241974571Y-74511819D01*
X241974571Y-74511819D02*
X241879333Y-74511819D01*
X241879333Y-74511819D02*
X241736476Y-74559438D01*
X241736476Y-74559438D02*
X241688857Y-74607057D01*
X241355523Y-74511819D02*
X240688857Y-74511819D01*
X240688857Y-74511819D02*
X241117428Y-75511819D01*
X240403142Y-74511819D02*
X239784095Y-74511819D01*
X239784095Y-74511819D02*
X240117428Y-74892771D01*
X240117428Y-74892771D02*
X239974571Y-74892771D01*
X239974571Y-74892771D02*
X239879333Y-74940390D01*
X239879333Y-74940390D02*
X239831714Y-74988009D01*
X239831714Y-74988009D02*
X239784095Y-75083247D01*
X239784095Y-75083247D02*
X239784095Y-75321342D01*
X239784095Y-75321342D02*
X239831714Y-75416580D01*
X239831714Y-75416580D02*
X239879333Y-75464200D01*
X239879333Y-75464200D02*
X239974571Y-75511819D01*
X239974571Y-75511819D02*
X240260285Y-75511819D01*
X240260285Y-75511819D02*
X240355523Y-75464200D01*
X240355523Y-75464200D02*
X240403142Y-75416580D01*
X241815857Y-44301580D02*
X241863476Y-44349200D01*
X241863476Y-44349200D02*
X242006333Y-44396819D01*
X242006333Y-44396819D02*
X242101571Y-44396819D01*
X242101571Y-44396819D02*
X242244428Y-44349200D01*
X242244428Y-44349200D02*
X242339666Y-44253961D01*
X242339666Y-44253961D02*
X242387285Y-44158723D01*
X242387285Y-44158723D02*
X242434904Y-43968247D01*
X242434904Y-43968247D02*
X242434904Y-43825390D01*
X242434904Y-43825390D02*
X242387285Y-43634914D01*
X242387285Y-43634914D02*
X242339666Y-43539676D01*
X242339666Y-43539676D02*
X242244428Y-43444438D01*
X242244428Y-43444438D02*
X242101571Y-43396819D01*
X242101571Y-43396819D02*
X242006333Y-43396819D01*
X242006333Y-43396819D02*
X241863476Y-43444438D01*
X241863476Y-43444438D02*
X241815857Y-43492057D01*
X241339666Y-44396819D02*
X241149190Y-44396819D01*
X241149190Y-44396819D02*
X241053952Y-44349200D01*
X241053952Y-44349200D02*
X241006333Y-44301580D01*
X241006333Y-44301580D02*
X240911095Y-44158723D01*
X240911095Y-44158723D02*
X240863476Y-43968247D01*
X240863476Y-43968247D02*
X240863476Y-43587295D01*
X240863476Y-43587295D02*
X240911095Y-43492057D01*
X240911095Y-43492057D02*
X240958714Y-43444438D01*
X240958714Y-43444438D02*
X241053952Y-43396819D01*
X241053952Y-43396819D02*
X241244428Y-43396819D01*
X241244428Y-43396819D02*
X241339666Y-43444438D01*
X241339666Y-43444438D02*
X241387285Y-43492057D01*
X241387285Y-43492057D02*
X241434904Y-43587295D01*
X241434904Y-43587295D02*
X241434904Y-43825390D01*
X241434904Y-43825390D02*
X241387285Y-43920628D01*
X241387285Y-43920628D02*
X241339666Y-43968247D01*
X241339666Y-43968247D02*
X241244428Y-44015866D01*
X241244428Y-44015866D02*
X241053952Y-44015866D01*
X241053952Y-44015866D02*
X240958714Y-43968247D01*
X240958714Y-43968247D02*
X240911095Y-43920628D01*
X240911095Y-43920628D02*
X240863476Y-43825390D01*
X239911095Y-44396819D02*
X240482523Y-44396819D01*
X240196809Y-44396819D02*
X240196809Y-43396819D01*
X240196809Y-43396819D02*
X240292047Y-43539676D01*
X240292047Y-43539676D02*
X240387285Y-43634914D01*
X240387285Y-43634914D02*
X240482523Y-43682533D01*
X109640666Y-75384819D02*
X109973999Y-74908628D01*
X110212094Y-75384819D02*
X110212094Y-74384819D01*
X110212094Y-74384819D02*
X109831142Y-74384819D01*
X109831142Y-74384819D02*
X109735904Y-74432438D01*
X109735904Y-74432438D02*
X109688285Y-74480057D01*
X109688285Y-74480057D02*
X109640666Y-74575295D01*
X109640666Y-74575295D02*
X109640666Y-74718152D01*
X109640666Y-74718152D02*
X109688285Y-74813390D01*
X109688285Y-74813390D02*
X109735904Y-74861009D01*
X109735904Y-74861009D02*
X109831142Y-74908628D01*
X109831142Y-74908628D02*
X110212094Y-74908628D01*
X108783523Y-74384819D02*
X108973999Y-74384819D01*
X108973999Y-74384819D02*
X109069237Y-74432438D01*
X109069237Y-74432438D02*
X109116856Y-74480057D01*
X109116856Y-74480057D02*
X109212094Y-74622914D01*
X109212094Y-74622914D02*
X109259713Y-74813390D01*
X109259713Y-74813390D02*
X109259713Y-75194342D01*
X109259713Y-75194342D02*
X109212094Y-75289580D01*
X109212094Y-75289580D02*
X109164475Y-75337200D01*
X109164475Y-75337200D02*
X109069237Y-75384819D01*
X109069237Y-75384819D02*
X108878761Y-75384819D01*
X108878761Y-75384819D02*
X108783523Y-75337200D01*
X108783523Y-75337200D02*
X108735904Y-75289580D01*
X108735904Y-75289580D02*
X108688285Y-75194342D01*
X108688285Y-75194342D02*
X108688285Y-74956247D01*
X108688285Y-74956247D02*
X108735904Y-74861009D01*
X108735904Y-74861009D02*
X108783523Y-74813390D01*
X108783523Y-74813390D02*
X108878761Y-74765771D01*
X108878761Y-74765771D02*
X109069237Y-74765771D01*
X109069237Y-74765771D02*
X109164475Y-74813390D01*
X109164475Y-74813390D02*
X109212094Y-74861009D01*
X109212094Y-74861009D02*
X109259713Y-74956247D01*
X234547580Y-67683142D02*
X234595200Y-67635523D01*
X234595200Y-67635523D02*
X234642819Y-67492666D01*
X234642819Y-67492666D02*
X234642819Y-67397428D01*
X234642819Y-67397428D02*
X234595200Y-67254571D01*
X234595200Y-67254571D02*
X234499961Y-67159333D01*
X234499961Y-67159333D02*
X234404723Y-67111714D01*
X234404723Y-67111714D02*
X234214247Y-67064095D01*
X234214247Y-67064095D02*
X234071390Y-67064095D01*
X234071390Y-67064095D02*
X233880914Y-67111714D01*
X233880914Y-67111714D02*
X233785676Y-67159333D01*
X233785676Y-67159333D02*
X233690438Y-67254571D01*
X233690438Y-67254571D02*
X233642819Y-67397428D01*
X233642819Y-67397428D02*
X233642819Y-67492666D01*
X233642819Y-67492666D02*
X233690438Y-67635523D01*
X233690438Y-67635523D02*
X233738057Y-67683142D01*
X233642819Y-68016476D02*
X233642819Y-68635523D01*
X233642819Y-68635523D02*
X234023771Y-68302190D01*
X234023771Y-68302190D02*
X234023771Y-68445047D01*
X234023771Y-68445047D02*
X234071390Y-68540285D01*
X234071390Y-68540285D02*
X234119009Y-68587904D01*
X234119009Y-68587904D02*
X234214247Y-68635523D01*
X234214247Y-68635523D02*
X234452342Y-68635523D01*
X234452342Y-68635523D02*
X234547580Y-68587904D01*
X234547580Y-68587904D02*
X234595200Y-68540285D01*
X234595200Y-68540285D02*
X234642819Y-68445047D01*
X234642819Y-68445047D02*
X234642819Y-68159333D01*
X234642819Y-68159333D02*
X234595200Y-68064095D01*
X234595200Y-68064095D02*
X234547580Y-68016476D01*
X233642819Y-68968857D02*
X233642819Y-69587904D01*
X233642819Y-69587904D02*
X234023771Y-69254571D01*
X234023771Y-69254571D02*
X234023771Y-69397428D01*
X234023771Y-69397428D02*
X234071390Y-69492666D01*
X234071390Y-69492666D02*
X234119009Y-69540285D01*
X234119009Y-69540285D02*
X234214247Y-69587904D01*
X234214247Y-69587904D02*
X234452342Y-69587904D01*
X234452342Y-69587904D02*
X234547580Y-69540285D01*
X234547580Y-69540285D02*
X234595200Y-69492666D01*
X234595200Y-69492666D02*
X234642819Y-69397428D01*
X234642819Y-69397428D02*
X234642819Y-69111714D01*
X234642819Y-69111714D02*
X234595200Y-69016476D01*
X234595200Y-69016476D02*
X234547580Y-68968857D01*
X66834104Y-118738714D02*
X66872200Y-118700618D01*
X66872200Y-118700618D02*
X66910295Y-118586333D01*
X66910295Y-118586333D02*
X66910295Y-118510142D01*
X66910295Y-118510142D02*
X66872200Y-118395856D01*
X66872200Y-118395856D02*
X66796009Y-118319666D01*
X66796009Y-118319666D02*
X66719819Y-118281571D01*
X66719819Y-118281571D02*
X66567438Y-118243475D01*
X66567438Y-118243475D02*
X66453152Y-118243475D01*
X66453152Y-118243475D02*
X66300771Y-118281571D01*
X66300771Y-118281571D02*
X66224580Y-118319666D01*
X66224580Y-118319666D02*
X66148390Y-118395856D01*
X66148390Y-118395856D02*
X66110295Y-118510142D01*
X66110295Y-118510142D02*
X66110295Y-118586333D01*
X66110295Y-118586333D02*
X66148390Y-118700618D01*
X66148390Y-118700618D02*
X66186485Y-118738714D01*
X66910295Y-119119666D02*
X66910295Y-119272047D01*
X66910295Y-119272047D02*
X66872200Y-119348237D01*
X66872200Y-119348237D02*
X66834104Y-119386333D01*
X66834104Y-119386333D02*
X66719819Y-119462523D01*
X66719819Y-119462523D02*
X66567438Y-119500618D01*
X66567438Y-119500618D02*
X66262676Y-119500618D01*
X66262676Y-119500618D02*
X66186485Y-119462523D01*
X66186485Y-119462523D02*
X66148390Y-119424428D01*
X66148390Y-119424428D02*
X66110295Y-119348237D01*
X66110295Y-119348237D02*
X66110295Y-119195856D01*
X66110295Y-119195856D02*
X66148390Y-119119666D01*
X66148390Y-119119666D02*
X66186485Y-119081571D01*
X66186485Y-119081571D02*
X66262676Y-119043475D01*
X66262676Y-119043475D02*
X66453152Y-119043475D01*
X66453152Y-119043475D02*
X66529342Y-119081571D01*
X66529342Y-119081571D02*
X66567438Y-119119666D01*
X66567438Y-119119666D02*
X66605533Y-119195856D01*
X66605533Y-119195856D02*
X66605533Y-119348237D01*
X66605533Y-119348237D02*
X66567438Y-119424428D01*
X66567438Y-119424428D02*
X66529342Y-119462523D01*
X66529342Y-119462523D02*
X66453152Y-119500618D01*
X66110295Y-120224428D02*
X66110295Y-119843476D01*
X66110295Y-119843476D02*
X66491247Y-119805380D01*
X66491247Y-119805380D02*
X66453152Y-119843476D01*
X66453152Y-119843476D02*
X66415057Y-119919666D01*
X66415057Y-119919666D02*
X66415057Y-120110142D01*
X66415057Y-120110142D02*
X66453152Y-120186333D01*
X66453152Y-120186333D02*
X66491247Y-120224428D01*
X66491247Y-120224428D02*
X66567438Y-120262523D01*
X66567438Y-120262523D02*
X66757914Y-120262523D01*
X66757914Y-120262523D02*
X66834104Y-120224428D01*
X66834104Y-120224428D02*
X66872200Y-120186333D01*
X66872200Y-120186333D02*
X66910295Y-120110142D01*
X66910295Y-120110142D02*
X66910295Y-119919666D01*
X66910295Y-119919666D02*
X66872200Y-119843476D01*
X66872200Y-119843476D02*
X66834104Y-119805380D01*
X78231904Y-48730819D02*
X78231904Y-49540342D01*
X78231904Y-49540342D02*
X78184285Y-49635580D01*
X78184285Y-49635580D02*
X78136666Y-49683200D01*
X78136666Y-49683200D02*
X78041428Y-49730819D01*
X78041428Y-49730819D02*
X77850952Y-49730819D01*
X77850952Y-49730819D02*
X77755714Y-49683200D01*
X77755714Y-49683200D02*
X77708095Y-49635580D01*
X77708095Y-49635580D02*
X77660476Y-49540342D01*
X77660476Y-49540342D02*
X77660476Y-48730819D01*
X77279523Y-48730819D02*
X76660476Y-48730819D01*
X76660476Y-48730819D02*
X76993809Y-49111771D01*
X76993809Y-49111771D02*
X76850952Y-49111771D01*
X76850952Y-49111771D02*
X76755714Y-49159390D01*
X76755714Y-49159390D02*
X76708095Y-49207009D01*
X76708095Y-49207009D02*
X76660476Y-49302247D01*
X76660476Y-49302247D02*
X76660476Y-49540342D01*
X76660476Y-49540342D02*
X76708095Y-49635580D01*
X76708095Y-49635580D02*
X76755714Y-49683200D01*
X76755714Y-49683200D02*
X76850952Y-49730819D01*
X76850952Y-49730819D02*
X77136666Y-49730819D01*
X77136666Y-49730819D02*
X77231904Y-49683200D01*
X77231904Y-49683200D02*
X77279523Y-49635580D01*
X83544580Y-104894142D02*
X83592200Y-104846523D01*
X83592200Y-104846523D02*
X83639819Y-104703666D01*
X83639819Y-104703666D02*
X83639819Y-104608428D01*
X83639819Y-104608428D02*
X83592200Y-104465571D01*
X83592200Y-104465571D02*
X83496961Y-104370333D01*
X83496961Y-104370333D02*
X83401723Y-104322714D01*
X83401723Y-104322714D02*
X83211247Y-104275095D01*
X83211247Y-104275095D02*
X83068390Y-104275095D01*
X83068390Y-104275095D02*
X82877914Y-104322714D01*
X82877914Y-104322714D02*
X82782676Y-104370333D01*
X82782676Y-104370333D02*
X82687438Y-104465571D01*
X82687438Y-104465571D02*
X82639819Y-104608428D01*
X82639819Y-104608428D02*
X82639819Y-104703666D01*
X82639819Y-104703666D02*
X82687438Y-104846523D01*
X82687438Y-104846523D02*
X82735057Y-104894142D01*
X82973152Y-105751285D02*
X83639819Y-105751285D01*
X82592200Y-105513190D02*
X83306485Y-105275095D01*
X83306485Y-105275095D02*
X83306485Y-105894142D01*
X82639819Y-106179857D02*
X82639819Y-106798904D01*
X82639819Y-106798904D02*
X83020771Y-106465571D01*
X83020771Y-106465571D02*
X83020771Y-106608428D01*
X83020771Y-106608428D02*
X83068390Y-106703666D01*
X83068390Y-106703666D02*
X83116009Y-106751285D01*
X83116009Y-106751285D02*
X83211247Y-106798904D01*
X83211247Y-106798904D02*
X83449342Y-106798904D01*
X83449342Y-106798904D02*
X83544580Y-106751285D01*
X83544580Y-106751285D02*
X83592200Y-106703666D01*
X83592200Y-106703666D02*
X83639819Y-106608428D01*
X83639819Y-106608428D02*
X83639819Y-106322714D01*
X83639819Y-106322714D02*
X83592200Y-106227476D01*
X83592200Y-106227476D02*
X83544580Y-106179857D01*
X117768666Y-74749819D02*
X118101999Y-74273628D01*
X118340094Y-74749819D02*
X118340094Y-73749819D01*
X118340094Y-73749819D02*
X117959142Y-73749819D01*
X117959142Y-73749819D02*
X117863904Y-73797438D01*
X117863904Y-73797438D02*
X117816285Y-73845057D01*
X117816285Y-73845057D02*
X117768666Y-73940295D01*
X117768666Y-73940295D02*
X117768666Y-74083152D01*
X117768666Y-74083152D02*
X117816285Y-74178390D01*
X117816285Y-74178390D02*
X117863904Y-74226009D01*
X117863904Y-74226009D02*
X117959142Y-74273628D01*
X117959142Y-74273628D02*
X118340094Y-74273628D01*
X116911523Y-74083152D02*
X116911523Y-74749819D01*
X117149618Y-73702200D02*
X117387713Y-74416485D01*
X117387713Y-74416485D02*
X116768666Y-74416485D01*
X236071580Y-67683142D02*
X236119200Y-67635523D01*
X236119200Y-67635523D02*
X236166819Y-67492666D01*
X236166819Y-67492666D02*
X236166819Y-67397428D01*
X236166819Y-67397428D02*
X236119200Y-67254571D01*
X236119200Y-67254571D02*
X236023961Y-67159333D01*
X236023961Y-67159333D02*
X235928723Y-67111714D01*
X235928723Y-67111714D02*
X235738247Y-67064095D01*
X235738247Y-67064095D02*
X235595390Y-67064095D01*
X235595390Y-67064095D02*
X235404914Y-67111714D01*
X235404914Y-67111714D02*
X235309676Y-67159333D01*
X235309676Y-67159333D02*
X235214438Y-67254571D01*
X235214438Y-67254571D02*
X235166819Y-67397428D01*
X235166819Y-67397428D02*
X235166819Y-67492666D01*
X235166819Y-67492666D02*
X235214438Y-67635523D01*
X235214438Y-67635523D02*
X235262057Y-67683142D01*
X235166819Y-68016476D02*
X235166819Y-68635523D01*
X235166819Y-68635523D02*
X235547771Y-68302190D01*
X235547771Y-68302190D02*
X235547771Y-68445047D01*
X235547771Y-68445047D02*
X235595390Y-68540285D01*
X235595390Y-68540285D02*
X235643009Y-68587904D01*
X235643009Y-68587904D02*
X235738247Y-68635523D01*
X235738247Y-68635523D02*
X235976342Y-68635523D01*
X235976342Y-68635523D02*
X236071580Y-68587904D01*
X236071580Y-68587904D02*
X236119200Y-68540285D01*
X236119200Y-68540285D02*
X236166819Y-68445047D01*
X236166819Y-68445047D02*
X236166819Y-68159333D01*
X236166819Y-68159333D02*
X236119200Y-68064095D01*
X236119200Y-68064095D02*
X236071580Y-68016476D01*
X235500152Y-69492666D02*
X236166819Y-69492666D01*
X235119200Y-69254571D02*
X235833485Y-69016476D01*
X235833485Y-69016476D02*
X235833485Y-69635523D01*
X72396285Y-83852104D02*
X72434381Y-83890200D01*
X72434381Y-83890200D02*
X72548666Y-83928295D01*
X72548666Y-83928295D02*
X72624857Y-83928295D01*
X72624857Y-83928295D02*
X72739143Y-83890200D01*
X72739143Y-83890200D02*
X72815333Y-83814009D01*
X72815333Y-83814009D02*
X72853428Y-83737819D01*
X72853428Y-83737819D02*
X72891524Y-83585438D01*
X72891524Y-83585438D02*
X72891524Y-83471152D01*
X72891524Y-83471152D02*
X72853428Y-83318771D01*
X72853428Y-83318771D02*
X72815333Y-83242580D01*
X72815333Y-83242580D02*
X72739143Y-83166390D01*
X72739143Y-83166390D02*
X72624857Y-83128295D01*
X72624857Y-83128295D02*
X72548666Y-83128295D01*
X72548666Y-83128295D02*
X72434381Y-83166390D01*
X72434381Y-83166390D02*
X72396285Y-83204485D01*
X71672476Y-83128295D02*
X72053428Y-83128295D01*
X72053428Y-83128295D02*
X72091524Y-83509247D01*
X72091524Y-83509247D02*
X72053428Y-83471152D01*
X72053428Y-83471152D02*
X71977238Y-83433057D01*
X71977238Y-83433057D02*
X71786762Y-83433057D01*
X71786762Y-83433057D02*
X71710571Y-83471152D01*
X71710571Y-83471152D02*
X71672476Y-83509247D01*
X71672476Y-83509247D02*
X71634381Y-83585438D01*
X71634381Y-83585438D02*
X71634381Y-83775914D01*
X71634381Y-83775914D02*
X71672476Y-83852104D01*
X71672476Y-83852104D02*
X71710571Y-83890200D01*
X71710571Y-83890200D02*
X71786762Y-83928295D01*
X71786762Y-83928295D02*
X71977238Y-83928295D01*
X71977238Y-83928295D02*
X72053428Y-83890200D01*
X72053428Y-83890200D02*
X72091524Y-83852104D01*
X70948666Y-83394961D02*
X70948666Y-83928295D01*
X71139142Y-83090200D02*
X71329619Y-83661628D01*
X71329619Y-83661628D02*
X70834380Y-83661628D01*
X200139395Y-51091180D02*
X200139395Y-50281657D01*
X200139395Y-50281657D02*
X200187014Y-50186419D01*
X200187014Y-50186419D02*
X200234633Y-50138800D01*
X200234633Y-50138800D02*
X200329871Y-50091180D01*
X200329871Y-50091180D02*
X200520347Y-50091180D01*
X200520347Y-50091180D02*
X200615585Y-50138800D01*
X200615585Y-50138800D02*
X200663204Y-50186419D01*
X200663204Y-50186419D02*
X200710823Y-50281657D01*
X200710823Y-50281657D02*
X200710823Y-51091180D01*
X201091776Y-51091180D02*
X201758442Y-51091180D01*
X201758442Y-51091180D02*
X201329871Y-50091180D01*
X197992999Y-53607619D02*
X197992999Y-53845714D01*
X198231094Y-53750476D02*
X197992999Y-53845714D01*
X197992999Y-53845714D02*
X197754904Y-53750476D01*
X198135856Y-54036190D02*
X197992999Y-53845714D01*
X197992999Y-53845714D02*
X197850142Y-54036190D01*
X197993000Y-54697980D02*
X197993000Y-54459885D01*
X197754905Y-54555123D02*
X197993000Y-54459885D01*
X197993000Y-54459885D02*
X198231095Y-54555123D01*
X197850143Y-54269409D02*
X197993000Y-54459885D01*
X197993000Y-54459885D02*
X198135857Y-54269409D01*
X71157180Y-119602094D02*
X70347657Y-119602094D01*
X70347657Y-119602094D02*
X70252419Y-119554475D01*
X70252419Y-119554475D02*
X70204800Y-119506856D01*
X70204800Y-119506856D02*
X70157180Y-119411618D01*
X70157180Y-119411618D02*
X70157180Y-119221142D01*
X70157180Y-119221142D02*
X70204800Y-119125904D01*
X70204800Y-119125904D02*
X70252419Y-119078285D01*
X70252419Y-119078285D02*
X70347657Y-119030666D01*
X70347657Y-119030666D02*
X71157180Y-119030666D01*
X70157180Y-118030666D02*
X70157180Y-118602094D01*
X70157180Y-118316380D02*
X71157180Y-118316380D01*
X71157180Y-118316380D02*
X71014323Y-118411618D01*
X71014323Y-118411618D02*
X70919085Y-118506856D01*
X70919085Y-118506856D02*
X70871466Y-118602094D01*
X70823847Y-117173523D02*
X70157180Y-117173523D01*
X71204800Y-117411618D02*
X70490514Y-117649713D01*
X70490514Y-117649713D02*
X70490514Y-117030666D01*
X98022628Y-62515809D02*
X98498819Y-62515809D01*
X97498819Y-62182476D02*
X98022628Y-62515809D01*
X98022628Y-62515809D02*
X97498819Y-62849142D01*
X97498819Y-63087238D02*
X97498819Y-63706285D01*
X97498819Y-63706285D02*
X97879771Y-63372952D01*
X97879771Y-63372952D02*
X97879771Y-63515809D01*
X97879771Y-63515809D02*
X97927390Y-63611047D01*
X97927390Y-63611047D02*
X97975009Y-63658666D01*
X97975009Y-63658666D02*
X98070247Y-63706285D01*
X98070247Y-63706285D02*
X98308342Y-63706285D01*
X98308342Y-63706285D02*
X98403580Y-63658666D01*
X98403580Y-63658666D02*
X98451200Y-63611047D01*
X98451200Y-63611047D02*
X98498819Y-63515809D01*
X98498819Y-63515809D02*
X98498819Y-63230095D01*
X98498819Y-63230095D02*
X98451200Y-63134857D01*
X98451200Y-63134857D02*
X98403580Y-63087238D01*
X98081180Y-74167904D02*
X97271657Y-74167904D01*
X97271657Y-74167904D02*
X97176419Y-74120285D01*
X97176419Y-74120285D02*
X97128800Y-74072666D01*
X97128800Y-74072666D02*
X97081180Y-73977428D01*
X97081180Y-73977428D02*
X97081180Y-73786952D01*
X97081180Y-73786952D02*
X97128800Y-73691714D01*
X97128800Y-73691714D02*
X97176419Y-73644095D01*
X97176419Y-73644095D02*
X97271657Y-73596476D01*
X97271657Y-73596476D02*
X98081180Y-73596476D01*
X97081180Y-72596476D02*
X97081180Y-73167904D01*
X97081180Y-72882190D02*
X98081180Y-72882190D01*
X98081180Y-72882190D02*
X97938323Y-72977428D01*
X97938323Y-72977428D02*
X97843085Y-73072666D01*
X97843085Y-73072666D02*
X97795466Y-73167904D01*
X100490819Y-78346300D02*
X100728914Y-78346300D01*
X100633676Y-78108205D02*
X100728914Y-78346300D01*
X100728914Y-78346300D02*
X100633676Y-78584395D01*
X100919390Y-78203443D02*
X100728914Y-78346300D01*
X100728914Y-78346300D02*
X100919390Y-78489157D01*
X101581180Y-78346299D02*
X101343085Y-78346299D01*
X101438323Y-78584394D02*
X101343085Y-78346299D01*
X101343085Y-78346299D02*
X101438323Y-78108204D01*
X101152609Y-78489156D02*
X101343085Y-78346299D01*
X101343085Y-78346299D02*
X101152609Y-78203442D01*
X84835904Y-110960819D02*
X84835904Y-111770342D01*
X84835904Y-111770342D02*
X84788285Y-111865580D01*
X84788285Y-111865580D02*
X84740666Y-111913200D01*
X84740666Y-111913200D02*
X84645428Y-111960819D01*
X84645428Y-111960819D02*
X84454952Y-111960819D01*
X84454952Y-111960819D02*
X84359714Y-111913200D01*
X84359714Y-111913200D02*
X84312095Y-111865580D01*
X84312095Y-111865580D02*
X84264476Y-111770342D01*
X84264476Y-111770342D02*
X84264476Y-110960819D01*
X83359714Y-110960819D02*
X83550190Y-110960819D01*
X83550190Y-110960819D02*
X83645428Y-111008438D01*
X83645428Y-111008438D02*
X83693047Y-111056057D01*
X83693047Y-111056057D02*
X83788285Y-111198914D01*
X83788285Y-111198914D02*
X83835904Y-111389390D01*
X83835904Y-111389390D02*
X83835904Y-111770342D01*
X83835904Y-111770342D02*
X83788285Y-111865580D01*
X83788285Y-111865580D02*
X83740666Y-111913200D01*
X83740666Y-111913200D02*
X83645428Y-111960819D01*
X83645428Y-111960819D02*
X83454952Y-111960819D01*
X83454952Y-111960819D02*
X83359714Y-111913200D01*
X83359714Y-111913200D02*
X83312095Y-111865580D01*
X83312095Y-111865580D02*
X83264476Y-111770342D01*
X83264476Y-111770342D02*
X83264476Y-111532247D01*
X83264476Y-111532247D02*
X83312095Y-111437009D01*
X83312095Y-111437009D02*
X83359714Y-111389390D01*
X83359714Y-111389390D02*
X83454952Y-111341771D01*
X83454952Y-111341771D02*
X83645428Y-111341771D01*
X83645428Y-111341771D02*
X83740666Y-111389390D01*
X83740666Y-111389390D02*
X83788285Y-111437009D01*
X83788285Y-111437009D02*
X83835904Y-111532247D01*
X211970857Y-73511580D02*
X212018476Y-73559200D01*
X212018476Y-73559200D02*
X212161333Y-73606819D01*
X212161333Y-73606819D02*
X212256571Y-73606819D01*
X212256571Y-73606819D02*
X212399428Y-73559200D01*
X212399428Y-73559200D02*
X212494666Y-73463961D01*
X212494666Y-73463961D02*
X212542285Y-73368723D01*
X212542285Y-73368723D02*
X212589904Y-73178247D01*
X212589904Y-73178247D02*
X212589904Y-73035390D01*
X212589904Y-73035390D02*
X212542285Y-72844914D01*
X212542285Y-72844914D02*
X212494666Y-72749676D01*
X212494666Y-72749676D02*
X212399428Y-72654438D01*
X212399428Y-72654438D02*
X212256571Y-72606819D01*
X212256571Y-72606819D02*
X212161333Y-72606819D01*
X212161333Y-72606819D02*
X212018476Y-72654438D01*
X212018476Y-72654438D02*
X211970857Y-72702057D01*
X211637523Y-72606819D02*
X211018476Y-72606819D01*
X211018476Y-72606819D02*
X211351809Y-72987771D01*
X211351809Y-72987771D02*
X211208952Y-72987771D01*
X211208952Y-72987771D02*
X211113714Y-73035390D01*
X211113714Y-73035390D02*
X211066095Y-73083009D01*
X211066095Y-73083009D02*
X211018476Y-73178247D01*
X211018476Y-73178247D02*
X211018476Y-73416342D01*
X211018476Y-73416342D02*
X211066095Y-73511580D01*
X211066095Y-73511580D02*
X211113714Y-73559200D01*
X211113714Y-73559200D02*
X211208952Y-73606819D01*
X211208952Y-73606819D02*
X211494666Y-73606819D01*
X211494666Y-73606819D02*
X211589904Y-73559200D01*
X211589904Y-73559200D02*
X211637523Y-73511580D01*
X210542285Y-73606819D02*
X210351809Y-73606819D01*
X210351809Y-73606819D02*
X210256571Y-73559200D01*
X210256571Y-73559200D02*
X210208952Y-73511580D01*
X210208952Y-73511580D02*
X210113714Y-73368723D01*
X210113714Y-73368723D02*
X210066095Y-73178247D01*
X210066095Y-73178247D02*
X210066095Y-72797295D01*
X210066095Y-72797295D02*
X210113714Y-72702057D01*
X210113714Y-72702057D02*
X210161333Y-72654438D01*
X210161333Y-72654438D02*
X210256571Y-72606819D01*
X210256571Y-72606819D02*
X210447047Y-72606819D01*
X210447047Y-72606819D02*
X210542285Y-72654438D01*
X210542285Y-72654438D02*
X210589904Y-72702057D01*
X210589904Y-72702057D02*
X210637523Y-72797295D01*
X210637523Y-72797295D02*
X210637523Y-73035390D01*
X210637523Y-73035390D02*
X210589904Y-73130628D01*
X210589904Y-73130628D02*
X210542285Y-73178247D01*
X210542285Y-73178247D02*
X210447047Y-73225866D01*
X210447047Y-73225866D02*
X210256571Y-73225866D01*
X210256571Y-73225866D02*
X210161333Y-73178247D01*
X210161333Y-73178247D02*
X210113714Y-73130628D01*
X210113714Y-73130628D02*
X210066095Y-73035390D01*
X123044295Y-51555714D02*
X122663342Y-51289047D01*
X123044295Y-51098571D02*
X122244295Y-51098571D01*
X122244295Y-51098571D02*
X122244295Y-51403333D01*
X122244295Y-51403333D02*
X122282390Y-51479523D01*
X122282390Y-51479523D02*
X122320485Y-51517618D01*
X122320485Y-51517618D02*
X122396676Y-51555714D01*
X122396676Y-51555714D02*
X122510961Y-51555714D01*
X122510961Y-51555714D02*
X122587152Y-51517618D01*
X122587152Y-51517618D02*
X122625247Y-51479523D01*
X122625247Y-51479523D02*
X122663342Y-51403333D01*
X122663342Y-51403333D02*
X122663342Y-51098571D01*
X122244295Y-51822380D02*
X122244295Y-52355714D01*
X122244295Y-52355714D02*
X123044295Y-52012856D01*
X123044295Y-53079523D02*
X123044295Y-52622380D01*
X123044295Y-52850952D02*
X122244295Y-52850952D01*
X122244295Y-52850952D02*
X122358580Y-52774761D01*
X122358580Y-52774761D02*
X122434771Y-52698571D01*
X122434771Y-52698571D02*
X122472866Y-52622380D01*
X77575580Y-87495142D02*
X77623200Y-87447523D01*
X77623200Y-87447523D02*
X77670819Y-87304666D01*
X77670819Y-87304666D02*
X77670819Y-87209428D01*
X77670819Y-87209428D02*
X77623200Y-87066571D01*
X77623200Y-87066571D02*
X77527961Y-86971333D01*
X77527961Y-86971333D02*
X77432723Y-86923714D01*
X77432723Y-86923714D02*
X77242247Y-86876095D01*
X77242247Y-86876095D02*
X77099390Y-86876095D01*
X77099390Y-86876095D02*
X76908914Y-86923714D01*
X76908914Y-86923714D02*
X76813676Y-86971333D01*
X76813676Y-86971333D02*
X76718438Y-87066571D01*
X76718438Y-87066571D02*
X76670819Y-87209428D01*
X76670819Y-87209428D02*
X76670819Y-87304666D01*
X76670819Y-87304666D02*
X76718438Y-87447523D01*
X76718438Y-87447523D02*
X76766057Y-87495142D01*
X76670819Y-88352285D02*
X76670819Y-88161809D01*
X76670819Y-88161809D02*
X76718438Y-88066571D01*
X76718438Y-88066571D02*
X76766057Y-88018952D01*
X76766057Y-88018952D02*
X76908914Y-87923714D01*
X76908914Y-87923714D02*
X77099390Y-87876095D01*
X77099390Y-87876095D02*
X77480342Y-87876095D01*
X77480342Y-87876095D02*
X77575580Y-87923714D01*
X77575580Y-87923714D02*
X77623200Y-87971333D01*
X77623200Y-87971333D02*
X77670819Y-88066571D01*
X77670819Y-88066571D02*
X77670819Y-88257047D01*
X77670819Y-88257047D02*
X77623200Y-88352285D01*
X77623200Y-88352285D02*
X77575580Y-88399904D01*
X77575580Y-88399904D02*
X77480342Y-88447523D01*
X77480342Y-88447523D02*
X77242247Y-88447523D01*
X77242247Y-88447523D02*
X77147009Y-88399904D01*
X77147009Y-88399904D02*
X77099390Y-88352285D01*
X77099390Y-88352285D02*
X77051771Y-88257047D01*
X77051771Y-88257047D02*
X77051771Y-88066571D01*
X77051771Y-88066571D02*
X77099390Y-87971333D01*
X77099390Y-87971333D02*
X77147009Y-87923714D01*
X77147009Y-87923714D02*
X77242247Y-87876095D01*
X76766057Y-88828476D02*
X76718438Y-88876095D01*
X76718438Y-88876095D02*
X76670819Y-88971333D01*
X76670819Y-88971333D02*
X76670819Y-89209428D01*
X76670819Y-89209428D02*
X76718438Y-89304666D01*
X76718438Y-89304666D02*
X76766057Y-89352285D01*
X76766057Y-89352285D02*
X76861295Y-89399904D01*
X76861295Y-89399904D02*
X76956533Y-89399904D01*
X76956533Y-89399904D02*
X77099390Y-89352285D01*
X77099390Y-89352285D02*
X77670819Y-88780857D01*
X77670819Y-88780857D02*
X77670819Y-89399904D01*
X75952237Y-75546295D02*
X76218904Y-75165342D01*
X76409380Y-75546295D02*
X76409380Y-74746295D01*
X76409380Y-74746295D02*
X76104618Y-74746295D01*
X76104618Y-74746295D02*
X76028428Y-74784390D01*
X76028428Y-74784390D02*
X75990333Y-74822485D01*
X75990333Y-74822485D02*
X75952237Y-74898676D01*
X75952237Y-74898676D02*
X75952237Y-75012961D01*
X75952237Y-75012961D02*
X75990333Y-75089152D01*
X75990333Y-75089152D02*
X76028428Y-75127247D01*
X76028428Y-75127247D02*
X76104618Y-75165342D01*
X76104618Y-75165342D02*
X76409380Y-75165342D01*
X75190333Y-75546295D02*
X75647476Y-75546295D01*
X75418904Y-75546295D02*
X75418904Y-74746295D01*
X75418904Y-74746295D02*
X75495095Y-74860580D01*
X75495095Y-74860580D02*
X75571285Y-74936771D01*
X75571285Y-74936771D02*
X75647476Y-74974866D01*
X74695094Y-74746295D02*
X74618904Y-74746295D01*
X74618904Y-74746295D02*
X74542713Y-74784390D01*
X74542713Y-74784390D02*
X74504618Y-74822485D01*
X74504618Y-74822485D02*
X74466523Y-74898676D01*
X74466523Y-74898676D02*
X74428428Y-75051057D01*
X74428428Y-75051057D02*
X74428428Y-75241533D01*
X74428428Y-75241533D02*
X74466523Y-75393914D01*
X74466523Y-75393914D02*
X74504618Y-75470104D01*
X74504618Y-75470104D02*
X74542713Y-75508200D01*
X74542713Y-75508200D02*
X74618904Y-75546295D01*
X74618904Y-75546295D02*
X74695094Y-75546295D01*
X74695094Y-75546295D02*
X74771285Y-75508200D01*
X74771285Y-75508200D02*
X74809380Y-75470104D01*
X74809380Y-75470104D02*
X74847475Y-75393914D01*
X74847475Y-75393914D02*
X74885571Y-75241533D01*
X74885571Y-75241533D02*
X74885571Y-75051057D01*
X74885571Y-75051057D02*
X74847475Y-74898676D01*
X74847475Y-74898676D02*
X74809380Y-74822485D01*
X74809380Y-74822485D02*
X74771285Y-74784390D01*
X74771285Y-74784390D02*
X74695094Y-74746295D01*
X73933189Y-74746295D02*
X73856999Y-74746295D01*
X73856999Y-74746295D02*
X73780808Y-74784390D01*
X73780808Y-74784390D02*
X73742713Y-74822485D01*
X73742713Y-74822485D02*
X73704618Y-74898676D01*
X73704618Y-74898676D02*
X73666523Y-75051057D01*
X73666523Y-75051057D02*
X73666523Y-75241533D01*
X73666523Y-75241533D02*
X73704618Y-75393914D01*
X73704618Y-75393914D02*
X73742713Y-75470104D01*
X73742713Y-75470104D02*
X73780808Y-75508200D01*
X73780808Y-75508200D02*
X73856999Y-75546295D01*
X73856999Y-75546295D02*
X73933189Y-75546295D01*
X73933189Y-75546295D02*
X74009380Y-75508200D01*
X74009380Y-75508200D02*
X74047475Y-75470104D01*
X74047475Y-75470104D02*
X74085570Y-75393914D01*
X74085570Y-75393914D02*
X74123666Y-75241533D01*
X74123666Y-75241533D02*
X74123666Y-75051057D01*
X74123666Y-75051057D02*
X74085570Y-74898676D01*
X74085570Y-74898676D02*
X74047475Y-74822485D01*
X74047475Y-74822485D02*
X74009380Y-74784390D01*
X74009380Y-74784390D02*
X73933189Y-74746295D01*
X255658857Y-48619580D02*
X255706476Y-48667200D01*
X255706476Y-48667200D02*
X255849333Y-48714819D01*
X255849333Y-48714819D02*
X255944571Y-48714819D01*
X255944571Y-48714819D02*
X256087428Y-48667200D01*
X256087428Y-48667200D02*
X256182666Y-48571961D01*
X256182666Y-48571961D02*
X256230285Y-48476723D01*
X256230285Y-48476723D02*
X256277904Y-48286247D01*
X256277904Y-48286247D02*
X256277904Y-48143390D01*
X256277904Y-48143390D02*
X256230285Y-47952914D01*
X256230285Y-47952914D02*
X256182666Y-47857676D01*
X256182666Y-47857676D02*
X256087428Y-47762438D01*
X256087428Y-47762438D02*
X255944571Y-47714819D01*
X255944571Y-47714819D02*
X255849333Y-47714819D01*
X255849333Y-47714819D02*
X255706476Y-47762438D01*
X255706476Y-47762438D02*
X255658857Y-47810057D01*
X255325523Y-47714819D02*
X254706476Y-47714819D01*
X254706476Y-47714819D02*
X255039809Y-48095771D01*
X255039809Y-48095771D02*
X254896952Y-48095771D01*
X254896952Y-48095771D02*
X254801714Y-48143390D01*
X254801714Y-48143390D02*
X254754095Y-48191009D01*
X254754095Y-48191009D02*
X254706476Y-48286247D01*
X254706476Y-48286247D02*
X254706476Y-48524342D01*
X254706476Y-48524342D02*
X254754095Y-48619580D01*
X254754095Y-48619580D02*
X254801714Y-48667200D01*
X254801714Y-48667200D02*
X254896952Y-48714819D01*
X254896952Y-48714819D02*
X255182666Y-48714819D01*
X255182666Y-48714819D02*
X255277904Y-48667200D01*
X255277904Y-48667200D02*
X255325523Y-48619580D01*
X253754095Y-48714819D02*
X254325523Y-48714819D01*
X254039809Y-48714819D02*
X254039809Y-47714819D01*
X254039809Y-47714819D02*
X254135047Y-47857676D01*
X254135047Y-47857676D02*
X254230285Y-47952914D01*
X254230285Y-47952914D02*
X254325523Y-48000533D01*
D11*
%TO.C,J12*%
X69215000Y-45706800D02*
G75*
G02*
X68453000Y-45706800I-381000J0D01*
G01*
X68453000Y-45706800D02*
G75*
G02*
X69215000Y-45706800I381000J0D01*
G01*
%TO.C,J14*%
X71486097Y-91119000D02*
G75*
G02*
X70724097Y-91119000I-381000J0D01*
G01*
X70724097Y-91119000D02*
G75*
G02*
X71486097Y-91119000I381000J0D01*
G01*
D12*
%TO.C,R5*%
X111713742Y-72629500D02*
X112188258Y-72629500D01*
X111713742Y-73674500D02*
X112188258Y-73674500D01*
%TO.C,R1*%
X114952742Y-77201500D02*
X115427258Y-77201500D01*
X114952742Y-78246500D02*
X115427258Y-78246500D01*
%TO.C,R84*%
X91423258Y-76185500D02*
X90948742Y-76185500D01*
X91423258Y-77230500D02*
X90948742Y-77230500D01*
%TO.C,C71*%
X142888580Y-60450000D02*
X142607420Y-60450000D01*
X142888580Y-61470000D02*
X142607420Y-61470000D01*
%TO.C,C94*%
X75944000Y-126632580D02*
X75944000Y-126351420D01*
X76964000Y-126632580D02*
X76964000Y-126351420D01*
%TO.C,R75*%
X125207500Y-54847258D02*
X125207500Y-54372742D01*
X126252500Y-54847258D02*
X126252500Y-54372742D01*
%TO.C,C99*%
X229475420Y-77214000D02*
X229756580Y-77214000D01*
X229475420Y-78234000D02*
X229756580Y-78234000D01*
%TO.C,C117*%
X238138580Y-71499000D02*
X237857420Y-71499000D01*
X238138580Y-72519000D02*
X237857420Y-72519000D01*
%TO.C,C83*%
X114440580Y-121410000D02*
X114159420Y-121410000D01*
X114440580Y-122430000D02*
X114159420Y-122430000D01*
D13*
%TO.C,U8*%
X245821200Y-52870100D02*
X249986800Y-52870100D01*
X249986800Y-47713900D02*
X245821200Y-47713900D01*
D12*
%TO.C,C60*%
X91184000Y-60592580D02*
X91184000Y-60311420D01*
X92204000Y-60592580D02*
X92204000Y-60311420D01*
%TO.C,C32*%
X241921420Y-48004000D02*
X242202580Y-48004000D01*
X241921420Y-49024000D02*
X242202580Y-49024000D01*
%TO.C,R7*%
X111713742Y-76185500D02*
X112188258Y-76185500D01*
X111713742Y-77230500D02*
X112188258Y-77230500D01*
%TO.C,C101*%
X228459420Y-82294000D02*
X228740580Y-82294000D01*
X228459420Y-83314000D02*
X228740580Y-83314000D01*
D13*
%TO.C,U4*%
X234619800Y-49072800D02*
X234619800Y-51511200D01*
X239852200Y-51511200D02*
X239852200Y-49072800D01*
D14*
X235839000Y-46583600D02*
X235458000Y-46583600D01*
X235458000Y-46329600D01*
X235839000Y-46329600D01*
X235839000Y-46583600D01*
G36*
X235839000Y-46583600D02*
G01*
X235458000Y-46583600D01*
X235458000Y-46329600D01*
X235839000Y-46329600D01*
X235839000Y-46583600D01*
G37*
D12*
%TO.C,C155*%
X99173420Y-66546000D02*
X99454580Y-66546000D01*
X99173420Y-67566000D02*
X99454580Y-67566000D01*
%TO.C,R3*%
X114952742Y-75423500D02*
X115427258Y-75423500D01*
X114952742Y-76468500D02*
X115427258Y-76468500D01*
%TO.C,R70*%
X120635500Y-54847258D02*
X120635500Y-54372742D01*
X121680500Y-54847258D02*
X121680500Y-54372742D01*
%TO.C,R58*%
X72629500Y-124697258D02*
X72629500Y-124222742D01*
X73674500Y-124697258D02*
X73674500Y-124222742D01*
%TO.C,C53*%
X68947420Y-84834000D02*
X69228580Y-84834000D01*
X68947420Y-85854000D02*
X69228580Y-85854000D01*
%TO.C,C38*%
X214628000Y-70725420D02*
X214628000Y-71006580D01*
X215648000Y-70725420D02*
X215648000Y-71006580D01*
%TO.C,C90*%
X207404580Y-51306000D02*
X207123420Y-51306000D01*
X207404580Y-52326000D02*
X207123420Y-52326000D01*
%TO.C,C69*%
X73813580Y-96772000D02*
X73532420Y-96772000D01*
X73813580Y-97792000D02*
X73532420Y-97792000D01*
D13*
%TO.C,Q4*%
X66421000Y-126936500D02*
X66421000Y-128587500D01*
X66421000Y-128587500D02*
X67459860Y-128587500D01*
X68409861Y-126936500D02*
X67734139Y-126936500D01*
X68684140Y-128587500D02*
X69723000Y-128587500D01*
X69723000Y-128587500D02*
X69723000Y-126936500D01*
X65405000Y-126441200D02*
G75*
G02*
X65151000Y-126441200I-127000J0D01*
G01*
X65151000Y-126441200D02*
G75*
G02*
X65405000Y-126441200I127000J0D01*
G01*
D12*
%TO.C,C114*%
X214120000Y-79134580D02*
X214120000Y-78853420D01*
X215140000Y-79134580D02*
X215140000Y-78853420D01*
%TO.C,C82*%
X67562000Y-122073580D02*
X67562000Y-121792420D01*
X68582000Y-122073580D02*
X68582000Y-121792420D01*
%TO.C,L5*%
X73645500Y-85327258D02*
X73645500Y-84852742D01*
X74690500Y-85327258D02*
X74690500Y-84852742D01*
%TO.C,C116*%
X217577580Y-71118000D02*
X217296420Y-71118000D01*
X217577580Y-72138000D02*
X217296420Y-72138000D01*
%TO.C,FB2*%
X78705064Y-122788000D02*
X77250936Y-122788000D01*
X78705064Y-124608000D02*
X77250936Y-124608000D01*
%TO.C,C55*%
X68947420Y-81786000D02*
X69228580Y-81786000D01*
X68947420Y-82806000D02*
X69228580Y-82806000D01*
%TO.C,C29*%
X191616720Y-50544000D02*
X191897880Y-50544000D01*
X191616720Y-51564000D02*
X191897880Y-51564000D01*
%TO.C,C78*%
X217577580Y-74166000D02*
X217296420Y-74166000D01*
X217577580Y-75186000D02*
X217296420Y-75186000D01*
%TO.C,R66*%
X70851500Y-125967258D02*
X70851500Y-125492742D01*
X71896500Y-125967258D02*
X71896500Y-125492742D01*
%TO.C,C30*%
X207404580Y-52830000D02*
X207123420Y-52830000D01*
X207404580Y-53850000D02*
X207123420Y-53850000D01*
%TO.C,C84*%
X115429420Y-124712000D02*
X115710580Y-124712000D01*
X115429420Y-125732000D02*
X115710580Y-125732000D01*
%TO.C,C37*%
X213104000Y-70725420D02*
X213104000Y-71006580D01*
X214124000Y-70725420D02*
X214124000Y-71006580D01*
%TO.C,C64*%
X75182000Y-84949420D02*
X75182000Y-85230580D01*
X76202000Y-84949420D02*
X76202000Y-85230580D01*
%TO.C,C75*%
X238138580Y-73023000D02*
X237857420Y-73023000D01*
X238138580Y-74043000D02*
X237857420Y-74043000D01*
%TO.C,C89*%
X241921420Y-49528000D02*
X242202580Y-49528000D01*
X241921420Y-50548000D02*
X242202580Y-50548000D01*
%TO.C,C36*%
X235090580Y-74547000D02*
X234809420Y-74547000D01*
X235090580Y-75567000D02*
X234809420Y-75567000D01*
%TO.C,C107*%
X73813580Y-95248000D02*
X73532420Y-95248000D01*
X73813580Y-96268000D02*
X73532420Y-96268000D01*
%TO.C,C86*%
X112381420Y-124712000D02*
X112662580Y-124712000D01*
X112381420Y-125732000D02*
X112662580Y-125732000D01*
%TO.C,C100*%
X229221420Y-80008000D02*
X229502580Y-80008000D01*
X229221420Y-81028000D02*
X229502580Y-81028000D01*
%TO.C,C112*%
X210171420Y-77468000D02*
X210452580Y-77468000D01*
X210171420Y-78488000D02*
X210452580Y-78488000D01*
D13*
%TO.C,U2*%
X209918300Y-49072800D02*
X209918300Y-51511200D01*
X215150700Y-51511200D02*
X215150700Y-49072800D01*
D14*
X214312500Y-54254400D02*
X213931500Y-54254400D01*
X213931500Y-54000400D01*
X214312500Y-54000400D01*
X214312500Y-54254400D01*
G36*
X214312500Y-54254400D02*
G01*
X213931500Y-54254400D01*
X213931500Y-54000400D01*
X214312500Y-54000400D01*
X214312500Y-54254400D01*
G37*
D12*
%TO.C,R73*%
X123683500Y-54847258D02*
X123683500Y-54372742D01*
X124728500Y-54847258D02*
X124728500Y-54372742D01*
%TO.C,C56*%
X68947420Y-80262000D02*
X69228580Y-80262000D01*
X68947420Y-81282000D02*
X69228580Y-81282000D01*
%TO.C,C57*%
X75311580Y-71626000D02*
X75030420Y-71626000D01*
X75311580Y-72646000D02*
X75030420Y-72646000D01*
%TO.C,C41*%
X234186000Y-79642580D02*
X234186000Y-79361420D01*
X235206000Y-79642580D02*
X235206000Y-79361420D01*
%TO.C,C35*%
X235090580Y-73023000D02*
X234809420Y-73023000D01*
X235090580Y-74043000D02*
X234809420Y-74043000D01*
%TO.C,C85*%
X101713420Y-124712000D02*
X101994580Y-124712000D01*
X101713420Y-125732000D02*
X101994580Y-125732000D01*
%TO.C,C87*%
X113905420Y-127760000D02*
X114186580Y-127760000D01*
X113905420Y-128780000D02*
X114186580Y-128780000D01*
%TO.C,R57*%
X236967500Y-79993258D02*
X236967500Y-79518742D01*
X238012500Y-79993258D02*
X238012500Y-79518742D01*
%TO.C,C88*%
X101459420Y-126998000D02*
X101740580Y-126998000D01*
X101459420Y-128018000D02*
X101740580Y-128018000D01*
%TO.C,C40*%
X214516580Y-74166000D02*
X214235420Y-74166000D01*
X214516580Y-75186000D02*
X214235420Y-75186000D01*
%TO.C,C113*%
X222644580Y-77722000D02*
X222363420Y-77722000D01*
X222644580Y-78742000D02*
X222363420Y-78742000D01*
%TO.C,C70*%
X132701420Y-55878000D02*
X132982580Y-55878000D01*
X132701420Y-56898000D02*
X132982580Y-56898000D01*
%TO.C,C24*%
X241948580Y-78738000D02*
X241667420Y-78738000D01*
X241948580Y-79758000D02*
X241667420Y-79758000D01*
D13*
%TO.C,U10*%
X69575300Y-96282000D02*
G75*
G02*
X69372100Y-96282000I-101600J0D01*
G01*
X69372100Y-96282000D02*
G75*
G02*
X69575300Y-96282000I101600J0D01*
G01*
D12*
%TO.C,C79*%
X217577580Y-72642000D02*
X217296420Y-72642000D01*
X217577580Y-73662000D02*
X217296420Y-73662000D01*
%TO.C,R56*%
X216901500Y-79485258D02*
X216901500Y-79010742D01*
X217946500Y-79485258D02*
X217946500Y-79010742D01*
%TO.C,C73*%
X238138580Y-74547000D02*
X237857420Y-74547000D01*
X238138580Y-75567000D02*
X237857420Y-75567000D01*
%TO.C,C91*%
X241440580Y-44956000D02*
X241159420Y-44956000D01*
X241440580Y-45976000D02*
X241159420Y-45976000D01*
%TO.C,R6*%
X111713742Y-74407500D02*
X112188258Y-74407500D01*
X111713742Y-75452500D02*
X112188258Y-75452500D01*
%TO.C,C33*%
X233678000Y-71106420D02*
X233678000Y-71387580D01*
X234698000Y-71106420D02*
X234698000Y-71387580D01*
%TO.C,C95*%
X66038000Y-122060580D02*
X66038000Y-121779420D01*
X67058000Y-122060580D02*
X67058000Y-121779420D01*
D13*
%TO.C,U3*%
X78973300Y-50562000D02*
G75*
G02*
X78770100Y-50562000I-101600J0D01*
G01*
X78770100Y-50562000D02*
G75*
G02*
X78973300Y-50562000I101600J0D01*
G01*
D12*
%TO.C,C43*%
X81024000Y-105804580D02*
X81024000Y-105523420D01*
X82044000Y-105804580D02*
X82044000Y-105523420D01*
%TO.C,R4*%
X114952742Y-73645500D02*
X115427258Y-73645500D01*
X114952742Y-74690500D02*
X115427258Y-74690500D01*
%TO.C,C34*%
X235202000Y-71119420D02*
X235202000Y-71400580D01*
X236222000Y-71119420D02*
X236222000Y-71400580D01*
%TO.C,C54*%
X68947420Y-83310000D02*
X69228580Y-83310000D01*
X68947420Y-84330000D02*
X69228580Y-84330000D01*
D13*
%TO.C,U7*%
X198818500Y-53124100D02*
X202984100Y-53124100D01*
X202984100Y-47967900D02*
X198818500Y-47967900D01*
%TO.C,U14*%
X69547486Y-120738900D02*
X69547486Y-123151900D01*
X71960486Y-123151900D02*
X71960486Y-120738900D01*
X71480172Y-123756293D02*
G75*
G02*
X71327772Y-123756293I-76200J0D01*
G01*
X71327772Y-123756293D02*
G75*
G02*
X71480172Y-123756293I76200J0D01*
G01*
D15*
%TO.C,Y3*%
X95120000Y-64242000D02*
X95380000Y-64242000D01*
X95380000Y-61742000D02*
X95120000Y-61742000D01*
D16*
X94300000Y-60992000D02*
G75*
G02*
X94100000Y-60992000I-100000J0D01*
G01*
X94100000Y-60992000D02*
G75*
G02*
X94300000Y-60992000I100000J0D01*
G01*
D13*
%TO.C,U1*%
X93408500Y-69278500D02*
X93408500Y-69696259D01*
X93408500Y-77115741D02*
X93408500Y-77533500D01*
X93408500Y-77533500D02*
X93826259Y-77533500D01*
X93826259Y-69278500D02*
X93408500Y-69278500D01*
X101245741Y-77533500D02*
X101663500Y-77533500D01*
X101663500Y-69278500D02*
X101245741Y-69278500D01*
X101663500Y-69696259D02*
X101663500Y-69278500D01*
X101663500Y-77533500D02*
X101663500Y-77115741D01*
D17*
G36*
X92976700Y-74346501D02*
G01*
X92722700Y-74346501D01*
X92722700Y-73965501D01*
X92976700Y-73965501D01*
X92976700Y-74346501D01*
G37*
G36*
X94976500Y-68846700D02*
G01*
X94595500Y-68846700D01*
X94595500Y-68592700D01*
X94976500Y-68592700D01*
X94976500Y-68846700D01*
G37*
G36*
X96476500Y-78219300D02*
G01*
X96095500Y-78219300D01*
X96095500Y-77965300D01*
X96476500Y-77965300D01*
X96476500Y-78219300D01*
G37*
G36*
X99976501Y-68846700D02*
G01*
X99595501Y-68846700D01*
X99595501Y-68592700D01*
X99976501Y-68592700D01*
X99976501Y-68846700D01*
G37*
G36*
X102349300Y-73846500D02*
G01*
X102095300Y-73846500D01*
X102095300Y-73465499D01*
X102349300Y-73465499D01*
X102349300Y-73846500D01*
G37*
D16*
%TO.C,U6*%
X82219998Y-107443999D02*
X82219998Y-114043998D01*
X82219998Y-107443999D02*
X83944998Y-107443999D01*
X82219998Y-114043998D02*
X85419999Y-114043998D01*
X83944998Y-107443999D02*
X85419999Y-108919000D01*
X85419999Y-108919000D02*
X85419999Y-114043998D01*
D12*
%TO.C,C39*%
X214516580Y-72642000D02*
X214235420Y-72642000D01*
X214516580Y-73662000D02*
X214235420Y-73662000D01*
%TO.C,R71*%
X122159500Y-54847258D02*
X122159500Y-54372742D01*
X123204500Y-54847258D02*
X123204500Y-54372742D01*
%TO.C,C62*%
X76706000Y-84949420D02*
X76706000Y-85230580D01*
X77726000Y-84949420D02*
X77726000Y-85230580D01*
%TO.C,R100*%
X75408258Y-73137500D02*
X74933742Y-73137500D01*
X75408258Y-74182500D02*
X74933742Y-74182500D01*
%TO.C,C31*%
X255156580Y-49274000D02*
X254875420Y-49274000D01*
X255156580Y-50294000D02*
X254875420Y-50294000D01*
%TD*%
M02*
