%TF.GenerationSoftware,KiCad,Pcbnew,8.0.5*%
%TF.CreationDate,2025-04-03T13:44:50-05:00*%
%TF.ProjectId,PSEC5_Board,50534543-355f-4426-9f61-72642e6b6963,rev?*%
%TF.SameCoordinates,Original*%
%TF.FileFunction,Copper,L1,Top*%
%TF.FilePolarity,Positive*%
%FSLAX46Y46*%
G04 Gerber Fmt 4.6, Leading zero omitted, Abs format (unit mm)*
G04 Created by KiCad (PCBNEW 8.0.5) date 2025-04-03 13:44:50*
%MOMM*%
%LPD*%
G01*
G04 APERTURE LIST*
G04 Aperture macros list*
%AMRoundRect*
0 Rectangle with rounded corners*
0 $1 Rounding radius*
0 $2 $3 $4 $5 $6 $7 $8 $9 X,Y pos of 4 corners*
0 Add a 4 corners polygon primitive as box body*
4,1,4,$2,$3,$4,$5,$6,$7,$8,$9,$2,$3,0*
0 Add four circle primitives for the rounded corners*
1,1,$1+$1,$2,$3*
1,1,$1+$1,$4,$5*
1,1,$1+$1,$6,$7*
1,1,$1+$1,$8,$9*
0 Add four rect primitives between the rounded corners*
20,1,$1+$1,$2,$3,$4,$5,0*
20,1,$1+$1,$4,$5,$6,$7,0*
20,1,$1+$1,$6,$7,$8,$9,0*
20,1,$1+$1,$8,$9,$2,$3,0*%
G04 Aperture macros list end*
%TA.AperFunction,SMDPad,CuDef*%
%ADD10RoundRect,0.225000X-0.250000X0.225000X-0.250000X-0.225000X0.250000X-0.225000X0.250000X0.225000X0*%
%TD*%
%TA.AperFunction,SMDPad,CuDef*%
%ADD11RoundRect,0.225000X-0.225000X-0.250000X0.225000X-0.250000X0.225000X0.250000X-0.225000X0.250000X0*%
%TD*%
%TA.AperFunction,ComponentPad*%
%ADD12R,1.000000X1.000000*%
%TD*%
%TA.AperFunction,SMDPad,CuDef*%
%ADD13RoundRect,0.225000X0.225000X0.250000X-0.225000X0.250000X-0.225000X-0.250000X0.225000X-0.250000X0*%
%TD*%
%TA.AperFunction,SMDPad,CuDef*%
%ADD14RoundRect,0.200000X-0.275000X0.200000X-0.275000X-0.200000X0.275000X-0.200000X0.275000X0.200000X0*%
%TD*%
%TA.AperFunction,SMDPad,CuDef*%
%ADD15RoundRect,0.200000X-0.200000X-0.275000X0.200000X-0.275000X0.200000X0.275000X-0.200000X0.275000X0*%
%TD*%
%TA.AperFunction,SMDPad,CuDef*%
%ADD16RoundRect,0.200000X0.275000X-0.200000X0.275000X0.200000X-0.275000X0.200000X-0.275000X-0.200000X0*%
%TD*%
%TA.AperFunction,SMDPad,CuDef*%
%ADD17RoundRect,0.200000X0.200000X0.275000X-0.200000X0.275000X-0.200000X-0.275000X0.200000X-0.275000X0*%
%TD*%
%TA.AperFunction,SMDPad,CuDef*%
%ADD18R,1.805236X0.612132*%
%TD*%
%TA.AperFunction,SMDPad,CuDef*%
%ADD19R,0.300000X1.009300*%
%TD*%
%TA.AperFunction,SMDPad,CuDef*%
%ADD20R,0.299974X1.004824*%
%TD*%
%TA.AperFunction,SMDPad,CuDef*%
%ADD21R,0.914400X0.304800*%
%TD*%
%TA.AperFunction,SMDPad,CuDef*%
%ADD22R,0.349758X0.999998*%
%TD*%
%TA.AperFunction,ComponentPad*%
%ADD23C,1.440000*%
%TD*%
%TA.AperFunction,ComponentPad*%
%ADD24C,2.250000*%
%TD*%
%TA.AperFunction,SMDPad,CuDef*%
%ADD25RoundRect,0.237500X-0.237500X0.287500X-0.237500X-0.287500X0.237500X-0.287500X0.237500X0.287500X0*%
%TD*%
%TA.AperFunction,SMDPad,CuDef*%
%ADD26R,1.009300X0.300000*%
%TD*%
%TA.AperFunction,SMDPad,CuDef*%
%ADD27R,1.004824X0.299974*%
%TD*%
%TA.AperFunction,SMDPad,CuDef*%
%ADD28R,0.304800X0.914400*%
%TD*%
%TA.AperFunction,SMDPad,CuDef*%
%ADD29R,0.999998X0.349758*%
%TD*%
%TA.AperFunction,SMDPad,CuDef*%
%ADD30RoundRect,0.225000X0.250000X-0.225000X0.250000X0.225000X-0.250000X0.225000X-0.250000X-0.225000X0*%
%TD*%
%TA.AperFunction,SMDPad,CuDef*%
%ADD31R,1.000000X1.200000*%
%TD*%
%TA.AperFunction,SMDPad,CuDef*%
%ADD32R,0.500000X0.300000*%
%TD*%
%TA.AperFunction,SMDPad,CuDef*%
%ADD33R,0.300000X0.500000*%
%TD*%
%TA.AperFunction,SMDPad,CuDef*%
%ADD34RoundRect,0.150000X0.825000X0.150000X-0.825000X0.150000X-0.825000X-0.150000X0.825000X-0.150000X0*%
%TD*%
%TA.AperFunction,SMDPad,CuDef*%
%ADD35R,0.812800X0.254000*%
%TD*%
%TA.AperFunction,SMDPad,CuDef*%
%ADD36R,1.752600X2.489200*%
%TD*%
%TA.AperFunction,ViaPad*%
%ADD37C,0.500000*%
%TD*%
%TA.AperFunction,Conductor*%
%ADD38C,0.100000*%
%TD*%
%TA.AperFunction,Conductor*%
%ADD39C,0.231978*%
%TD*%
%TA.AperFunction,Conductor*%
%ADD40C,0.231902*%
%TD*%
%TA.AperFunction,Conductor*%
%ADD41C,0.200000*%
%TD*%
G04 APERTURE END LIST*
D10*
%TO.P,C116,1*%
%TO.N,Net-(IC9-+IN)*%
X132964300Y-82225000D03*
%TO.P,C116,2*%
%TO.N,ADC8_Out+*%
X132964300Y-83775000D03*
%TD*%
D11*
%TO.P,C121,1*%
%TO.N,GND*%
X127714300Y-85475000D03*
%TO.P,C121,2*%
%TO.N,VDD33*%
X129264300Y-85475000D03*
%TD*%
D12*
%TO.P,READCLK,1,1*%
%TO.N,ReadClk*%
X133350000Y-60925000D03*
%TD*%
D13*
%TO.P,C35,1*%
%TO.N,GND*%
X166675000Y-104150000D03*
%TO.P,C35,2*%
%TO.N,VDD25*%
X165125000Y-104150000D03*
%TD*%
D14*
%TO.P,R33,1*%
%TO.N,Net-(IC3-VOCM)*%
X164950000Y-67675000D03*
%TO.P,R33,2*%
%TO.N,GND*%
X164950000Y-69325000D03*
%TD*%
D10*
%TO.P,C90,1*%
%TO.N,Net-(C90-Pad1)*%
X150752071Y-88427071D03*
%TO.P,C90,2*%
%TO.N,GND*%
X150752071Y-89977071D03*
%TD*%
D15*
%TO.P,R24,1*%
%TO.N,Net-(IC2--IN)*%
X159800000Y-82700000D03*
%TO.P,R24,2*%
%TO.N,ADC1_Out-*%
X161450000Y-82700000D03*
%TD*%
D16*
%TO.P,R57,1*%
%TO.N,Net-(C92-Pad1)*%
X147400000Y-86950000D03*
%TO.P,R57,2*%
%TO.N,/Pedestals/SIGNAL4*%
X147400000Y-85300000D03*
%TD*%
D17*
%TO.P,R30,1*%
%TO.N,ADC1_Out+*%
X161550000Y-76900000D03*
%TO.P,R30,2*%
%TO.N,Net-(IC2-+IN)*%
X159900000Y-76900000D03*
%TD*%
D18*
%TO.P,U4,1,OUT*%
%TO.N,/Phase_detection/OP_AMP_OUT*%
X167150000Y-102350001D03*
%TO.P,U4,2,VS-*%
%TO.N,GND*%
X167150000Y-101400000D03*
%TO.P,U4,3,IN+*%
%TO.N,Net-(U4-IN+)*%
X167150000Y-100449999D03*
%TO.P,U4,4,IN-*%
%TO.N,Net-(U4-IN-)*%
X164849034Y-100449999D03*
%TO.P,U4,5,VS+*%
%TO.N,VDD25*%
X164849034Y-102350001D03*
%TD*%
D17*
%TO.P,R26,1*%
%TO.N,Net-(IC2-+IN)*%
X155550000Y-75550000D03*
%TO.P,R26,2*%
%TO.N,/ADC_Buffer/ADC1_In*%
X153900000Y-75550000D03*
%TD*%
D13*
%TO.P,C94,1*%
%TO.N,/Pedestals/SIGNAL6*%
X127175000Y-102200000D03*
%TO.P,C94,2*%
%TO.N,Net-(J8-In)*%
X125625000Y-102200000D03*
%TD*%
D17*
%TO.P,R36,1*%
%TO.N,Net-(IC4--IN)*%
X156325000Y-62810700D03*
%TO.P,R36,2*%
%TO.N,ADC3_Out-*%
X154675000Y-62810700D03*
%TD*%
D19*
%TO.P,IC4,1,-OUT*%
%TO.N,ADC3_Out+*%
X154975000Y-67039650D03*
D20*
%TO.P,IC4,2,+IN*%
%TO.N,Net-(IC4-+IN)*%
X155774999Y-67041812D03*
D21*
%TO.P,IC4,3,~{SHDN}*%
%TO.N,VDD33*%
X156251300Y-66224999D03*
%TO.P,IC4,4,V+_1*%
X156251300Y-65725000D03*
%TO.P,IC4,5,VOCM*%
%TO.N,Net-(IC4-VOCM)*%
X156251300Y-65225001D03*
D20*
%TO.P,IC4,6,-IN*%
%TO.N,Net-(IC4--IN)*%
X155774999Y-64408188D03*
%TO.P,IC4,7,+OUT*%
%TO.N,ADC3_Out-*%
X154975001Y-64408188D03*
D21*
%TO.P,IC4,8,V-_1*%
%TO.N,GND*%
X154498700Y-65225001D03*
%TO.P,IC4,9,V+_2*%
%TO.N,VDD33*%
X154498700Y-65725000D03*
%TO.P,IC4,10,V-_2*%
%TO.N,GND*%
X154498700Y-66224999D03*
D22*
%TO.P,IC4,11,EP_(V-)*%
X155350000Y-65725000D03*
%TD*%
D14*
%TO.P,R45,1*%
%TO.N,Net-(IC6-+IN)*%
X145050000Y-69350000D03*
%TO.P,R45,2*%
%TO.N,/ADC_Buffer2/ADC5_In*%
X145050000Y-71000000D03*
%TD*%
D23*
%TO.P,J10,1,In*%
%TO.N,Net-(J10-In)*%
X119975000Y-74950000D03*
D24*
%TO.P,J10,2,Ext*%
%TO.N,GND*%
X122515000Y-72410000D03*
X117435000Y-72410000D03*
X122515000Y-77490000D03*
X117435000Y-77490000D03*
%TD*%
D12*
%TO.P,DAC_V_OUT,1,1*%
%TO.N,DAC_V_OUT*%
X156125000Y-94600000D03*
%TD*%
D10*
%TO.P,C92,1*%
%TO.N,Net-(C92-Pad1)*%
X147400000Y-88425000D03*
%TO.P,C92,2*%
%TO.N,GND*%
X147400000Y-89975000D03*
%TD*%
D23*
%TO.P,J3,1,In*%
%TO.N,Net-(J3-In)*%
X179700000Y-74950000D03*
D24*
%TO.P,J3,2,Ext*%
%TO.N,GND*%
X177160000Y-77490000D03*
X182240000Y-77490000D03*
X177160000Y-72410000D03*
X182240000Y-72410000D03*
%TD*%
D16*
%TO.P,R69,1*%
%TO.N,ADC7_Out+*%
X133084444Y-76774999D03*
%TO.P,R69,2*%
%TO.N,Net-(IC8-+IN)*%
X133084444Y-75124999D03*
%TD*%
D10*
%TO.P,C89,1*%
%TO.N,Net-(C89-Pad1)*%
X152625000Y-88475000D03*
%TO.P,C89,2*%
%TO.N,GND*%
X152625000Y-90025000D03*
%TD*%
D12*
%TO.P,ADC_SDO1,1,1*%
%TO.N,ADC_SDO*%
X156550000Y-114100000D03*
%TD*%
D15*
%TO.P,R12,1*%
%TO.N,/Biases\u002CThresh/discthresh1_postrc*%
X152875000Y-81600000D03*
%TO.P,R12,2*%
%TO.N,Disc_Thresh1*%
X154525000Y-81600000D03*
%TD*%
D11*
%TO.P,C52,1*%
%TO.N,Net-(IC2-+IN)*%
X159950000Y-75400000D03*
%TO.P,C52,2*%
%TO.N,ADC1_Out+*%
X161500000Y-75400000D03*
%TD*%
D12*
%TO.P,PED1,1,1*%
%TO.N,Net-(C89-Pad1)*%
X161275000Y-91550000D03*
%TD*%
D16*
%TO.P,R56,1*%
%TO.N,Net-(C91-Pad1)*%
X148950000Y-86925000D03*
%TO.P,R56,2*%
%TO.N,/Pedestals/SIGNAL3*%
X148950000Y-85275000D03*
%TD*%
D12*
%TO.P,ADC_SDI1,1,1*%
%TO.N,ADC_SDI*%
X161500000Y-109950000D03*
%TD*%
D16*
%TO.P,R60,1*%
%TO.N,Net-(C98-Pad1)*%
X141625000Y-87000000D03*
%TO.P,R60,2*%
%TO.N,/Pedestals/SIGNAL7*%
X141625000Y-85350000D03*
%TD*%
D25*
%TO.P,L4,1,1*%
%TO.N,Net-(C92-Pad1)*%
X147400000Y-91550000D03*
%TO.P,L4,2,2*%
%TO.N,V_ped4*%
X147400000Y-93300000D03*
%TD*%
D17*
%TO.P,R28,1*%
%TO.N,Net-(IC2--IN)*%
X158450000Y-84200000D03*
%TO.P,R28,2*%
%TO.N,GND*%
X156800000Y-84200000D03*
%TD*%
%TO.P,R42,1*%
%TO.N,Net-(IC5--IN)*%
X148825000Y-59808188D03*
%TO.P,R42,2*%
%TO.N,ADC4_Out-*%
X147175000Y-59808188D03*
%TD*%
D16*
%TO.P,R68,1*%
%TO.N,ADC6_Out+*%
X140458189Y-70801301D03*
%TO.P,R68,2*%
%TO.N,Net-(IC7-+IN)*%
X140458189Y-69151301D03*
%TD*%
D10*
%TO.P,C55,1*%
%TO.N,Net-(IC3-VOCM)*%
X164950000Y-64700000D03*
%TO.P,C55,2*%
%TO.N,GND*%
X164950000Y-66250000D03*
%TD*%
D26*
%TO.P,IC8,1,-OUT*%
%TO.N,ADC7_Out+*%
X131513394Y-76474999D03*
D27*
%TO.P,IC8,2,+IN*%
%TO.N,Net-(IC8-+IN)*%
X131515556Y-75675000D03*
D28*
%TO.P,IC8,3,~{SHDN}*%
%TO.N,VDD33*%
X130698743Y-75198699D03*
%TO.P,IC8,4,V+_1*%
X130198744Y-75198699D03*
%TO.P,IC8,5,VOCM*%
%TO.N,Net-(IC8-VOCM)*%
X129698745Y-75198699D03*
D27*
%TO.P,IC8,6,-IN*%
%TO.N,Net-(IC8--IN)*%
X128881932Y-75675000D03*
%TO.P,IC8,7,+OUT*%
%TO.N,ADC7_Out-*%
X128881932Y-76474998D03*
D28*
%TO.P,IC8,8,V-_1*%
%TO.N,GND*%
X129698745Y-76951299D03*
%TO.P,IC8,9,V+_2*%
%TO.N,VDD33*%
X130198744Y-76951299D03*
%TO.P,IC8,10,V-_2*%
%TO.N,GND*%
X130698743Y-76951299D03*
D29*
%TO.P,IC8,11,EP_(V-)*%
X130198744Y-76099999D03*
%TD*%
D10*
%TO.P,C97,1*%
%TO.N,Net-(C97-Pad1)*%
X143425000Y-88400000D03*
%TO.P,C97,2*%
%TO.N,GND*%
X143425000Y-89950000D03*
%TD*%
D13*
%TO.P,C53,1*%
%TO.N,Net-(IC3-+IN)*%
X163348699Y-72525000D03*
%TO.P,C53,2*%
%TO.N,ADC2_Out+*%
X161798699Y-72525000D03*
%TD*%
D11*
%TO.P,C87,1*%
%TO.N,/Pedestals/SIGNAL3*%
X172175000Y-96525000D03*
%TO.P,C87,2*%
%TO.N,Net-(J5-In)*%
X173725000Y-96525000D03*
%TD*%
D19*
%TO.P,IC2,1,-OUT*%
%TO.N,ADC1_Out+*%
X161100000Y-78485350D03*
D20*
%TO.P,IC2,2,+IN*%
%TO.N,Net-(IC2-+IN)*%
X160300001Y-78483188D03*
D21*
%TO.P,IC2,3,~{SHDN}*%
%TO.N,VDD33*%
X159823700Y-79300001D03*
%TO.P,IC2,4,V+_1*%
X159823700Y-79800000D03*
%TO.P,IC2,5,VOCM*%
%TO.N,Net-(IC2-VOCM)*%
X159823700Y-80299999D03*
D20*
%TO.P,IC2,6,-IN*%
%TO.N,Net-(IC2--IN)*%
X160300001Y-81116812D03*
%TO.P,IC2,7,+OUT*%
%TO.N,ADC1_Out-*%
X161099999Y-81116812D03*
D21*
%TO.P,IC2,8,V-_1*%
%TO.N,GND*%
X161576300Y-80299999D03*
%TO.P,IC2,9,V+_2*%
%TO.N,VDD33*%
X161576300Y-79800000D03*
%TO.P,IC2,10,V-_2*%
%TO.N,GND*%
X161576300Y-79300001D03*
D22*
%TO.P,IC2,11,EP_(V-)*%
X160725000Y-79800000D03*
%TD*%
D12*
%TO.P,THRESH1,1,1*%
%TO.N,/Biases\u002CThresh/discthresh1_postrc*%
X166700000Y-83825000D03*
%TD*%
D25*
%TO.P,L8,1,1*%
%TO.N,Net-(C100-Pad1)*%
X139825000Y-91525000D03*
%TO.P,L8,2,2*%
%TO.N,V_ped8*%
X139825000Y-93275000D03*
%TD*%
D11*
%TO.P,C37,1*%
%TO.N,GND*%
X147704400Y-106975000D03*
%TO.P,C37,2*%
%TO.N,VDD25*%
X149254400Y-106975000D03*
%TD*%
D13*
%TO.P,C106,1*%
%TO.N,Net-(IC8-VOCM)*%
X129059444Y-73549999D03*
%TO.P,C106,2*%
%TO.N,GND*%
X127509444Y-73549999D03*
%TD*%
%TO.P,C108,1*%
%TO.N,GND*%
X138458189Y-72501301D03*
%TO.P,C108,2*%
%TO.N,VDD33*%
X136908189Y-72501301D03*
%TD*%
D12*
%TO.P,ADC_SCK,1,1*%
%TO.N,ADC_SCK*%
X160425000Y-113725000D03*
%TD*%
D13*
%TO.P,C99,1*%
%TO.N,/Pedestals/SIGNAL8*%
X127150000Y-88425000D03*
%TO.P,C99,2*%
%TO.N,Net-(J10-In)*%
X125600000Y-88425000D03*
%TD*%
D23*
%TO.P,J4,1,In*%
%TO.N,Net-(J4-In)*%
X179700000Y-86600000D03*
D24*
%TO.P,J4,2,Ext*%
%TO.N,GND*%
X177160000Y-89140000D03*
X182240000Y-89140000D03*
X177160000Y-84060000D03*
X182240000Y-84060000D03*
%TD*%
D15*
%TO.P,R31,1*%
%TO.N,ADC2_Out+*%
X161748699Y-70850000D03*
%TO.P,R31,2*%
%TO.N,Net-(IC3-+IN)*%
X163398699Y-70850000D03*
%TD*%
D14*
%TO.P,R51,1*%
%TO.N,Net-(IC6-VOCM)*%
X142900001Y-63583188D03*
%TO.P,R51,2*%
%TO.N,GND*%
X142900001Y-65233188D03*
%TD*%
D23*
%TO.P,J8,1,In*%
%TO.N,Net-(J8-In)*%
X119975000Y-98690000D03*
D24*
%TO.P,J8,2,Ext*%
%TO.N,GND*%
X122515000Y-96150000D03*
X117435000Y-96150000D03*
X122515000Y-101230000D03*
X117435000Y-101230000D03*
%TD*%
D13*
%TO.P,C33,1*%
%TO.N,GND*%
X158875000Y-100225000D03*
%TO.P,C33,2*%
%TO.N,Net-(C33-Pad2)*%
X157325000Y-100225000D03*
%TD*%
D15*
%TO.P,R8,1*%
%TO.N,Net-(C33-Pad2)*%
X157225000Y-98550000D03*
%TO.P,R8,2*%
%TO.N,Net-(U4-IN+)*%
X158875000Y-98550000D03*
%TD*%
D16*
%TO.P,R55,1*%
%TO.N,Net-(C90-Pad1)*%
X150752071Y-86977071D03*
%TO.P,R55,2*%
%TO.N,/Pedestals/SIGNAL2*%
X150752071Y-85327071D03*
%TD*%
D30*
%TO.P,C76,1*%
%TO.N,Net-(IC6-VOCM)*%
X142900001Y-62133188D03*
%TO.P,C76,2*%
%TO.N,GND*%
X142900001Y-60583188D03*
%TD*%
D31*
%TO.P,Y1,1,TRI-STATE*%
%TO.N,VDD25*%
X152554400Y-106925000D03*
%TO.P,Y1,2,GND/CASE*%
%TO.N,GND*%
X152554400Y-104825000D03*
%TO.P,Y1,3,OUTPUT*%
%TO.N,CLK_OUT*%
X150904400Y-104825000D03*
%TO.P,Y1,4,VDD*%
%TO.N,VDD25*%
X150904400Y-106925000D03*
%TD*%
D11*
%TO.P,C85,1*%
%TO.N,/Pedestals/SIGNAL1*%
X172125000Y-78800000D03*
%TO.P,C85,2*%
%TO.N,Net-(J3-In)*%
X173675000Y-78800000D03*
%TD*%
D17*
%TO.P,R27,1*%
%TO.N,Net-(IC3-+IN)*%
X155505000Y-73675000D03*
%TO.P,R27,2*%
%TO.N,/ADC_Buffer/ADC2_In*%
X153855000Y-73675000D03*
%TD*%
D16*
%TO.P,R77,1*%
%TO.N,ADC8_Out+*%
X134489300Y-83825000D03*
%TO.P,R77,2*%
%TO.N,Net-(IC9-+IN)*%
X134489300Y-82175000D03*
%TD*%
D14*
%TO.P,R32,1*%
%TO.N,Net-(IC2-VOCM)*%
X158225000Y-80575000D03*
%TO.P,R32,2*%
%TO.N,GND*%
X158225000Y-82225000D03*
%TD*%
D11*
%TO.P,C64,1*%
%TO.N,ADC3_Out-*%
X154725000Y-61260700D03*
%TO.P,C64,2*%
%TO.N,Net-(IC4--IN)*%
X156275000Y-61260700D03*
%TD*%
D10*
%TO.P,C54,1*%
%TO.N,Net-(IC2-VOCM)*%
X156425000Y-80625000D03*
%TO.P,C54,2*%
%TO.N,GND*%
X156425000Y-82175000D03*
%TD*%
%TO.P,C91,1*%
%TO.N,Net-(C91-Pad1)*%
X148950000Y-88425000D03*
%TO.P,C91,2*%
%TO.N,GND*%
X148950000Y-89975000D03*
%TD*%
D15*
%TO.P,R2,1*%
%TO.N,GND*%
X153475000Y-98500000D03*
%TO.P,R2,2*%
%TO.N,Net-(IC1-~{U})*%
X155125000Y-98500000D03*
%TD*%
D12*
%TO.P,INTEGRATOR,1,1*%
%TO.N,/Phase_detection/OP_AMP_OUT*%
X169350000Y-105125000D03*
%TD*%
D13*
%TO.P,C75,1*%
%TO.N,Net-(IC6-+IN)*%
X141375001Y-65858188D03*
%TO.P,C75,2*%
%TO.N,ADC5_Out+*%
X139825001Y-65858188D03*
%TD*%
D10*
%TO.P,C58,1*%
%TO.N,GND*%
X159498699Y-69725000D03*
%TO.P,C58,2*%
%TO.N,VDD33*%
X159498699Y-71275000D03*
%TD*%
D13*
%TO.P,C117,1*%
%TO.N,Net-(IC9-VOCM)*%
X129289300Y-80650000D03*
%TO.P,C117,2*%
%TO.N,GND*%
X127739300Y-80650000D03*
%TD*%
D14*
%TO.P,R40,1*%
%TO.N,Net-(IC4-VOCM)*%
X157875000Y-66485700D03*
%TO.P,R40,2*%
%TO.N,GND*%
X157875000Y-68135700D03*
%TD*%
D15*
%TO.P,R7,1*%
%TO.N,Net-(U4-IN+)*%
X160950000Y-100225000D03*
%TO.P,R7,2*%
%TO.N,Net-(C32-Pad1)*%
X162600000Y-100225000D03*
%TD*%
%TO.P,R75,1*%
%TO.N,Net-(IC9-+IN)*%
X137125000Y-75925000D03*
%TO.P,R75,2*%
%TO.N,/ADC_Buffer3/ADC8_In*%
X138775000Y-75925000D03*
%TD*%
D14*
%TO.P,R44,1*%
%TO.N,Net-(IC5-+IN)*%
X148350000Y-69325000D03*
%TO.P,R44,2*%
%TO.N,/ADC_Buffer2/ADC4_In*%
X148350000Y-70975000D03*
%TD*%
D15*
%TO.P,R48,1*%
%TO.N,ADC4_Out+*%
X147150000Y-65558188D03*
%TO.P,R48,2*%
%TO.N,Net-(IC5-+IN)*%
X148800000Y-65558188D03*
%TD*%
D10*
%TO.P,C96,1*%
%TO.N,Net-(C96-Pad1)*%
X145600000Y-88425000D03*
%TO.P,C96,2*%
%TO.N,GND*%
X145600000Y-89975000D03*
%TD*%
D13*
%TO.P,C50,1*%
%TO.N,ADC1_Out-*%
X161400000Y-84200000D03*
%TO.P,C50,2*%
%TO.N,Net-(IC2--IN)*%
X159850000Y-84200000D03*
%TD*%
D12*
%TO.P,CLK_OUT,1,1*%
%TO.N,CLK_OUT*%
X136900000Y-107025000D03*
%TD*%
D13*
%TO.P,C93,1*%
%TO.N,/Pedestals/SIGNAL5*%
X127500000Y-108550000D03*
%TO.P,C93,2*%
%TO.N,Net-(J7-In)*%
X125950000Y-108550000D03*
%TD*%
D25*
%TO.P,L1,1,1*%
%TO.N,Net-(C89-Pad1)*%
X152650000Y-91550000D03*
%TO.P,L1,2,2*%
%TO.N,V_ped1*%
X152650000Y-93300000D03*
%TD*%
D11*
%TO.P,C31,1*%
%TO.N,GND*%
X157375000Y-101925000D03*
%TO.P,C31,2*%
%TO.N,Net-(C31-Pad2)*%
X158925000Y-101925000D03*
%TD*%
D14*
%TO.P,R64,1*%
%TO.N,Net-(IC7-+IN)*%
X143500000Y-69350000D03*
%TO.P,R64,2*%
%TO.N,/ADC_Buffer3/ADC6_In*%
X143500000Y-71000000D03*
%TD*%
D10*
%TO.P,C105,1*%
%TO.N,Net-(IC8-+IN)*%
X134609444Y-75174999D03*
%TO.P,C105,2*%
%TO.N,ADC7_Out+*%
X134609444Y-76724999D03*
%TD*%
D11*
%TO.P,C51,1*%
%TO.N,ADC2_Out-*%
X161698699Y-63600000D03*
%TO.P,C51,2*%
%TO.N,Net-(IC3--IN)*%
X163248699Y-63600000D03*
%TD*%
%TO.P,C114,1*%
%TO.N,GND*%
X127909444Y-78574999D03*
%TO.P,C114,2*%
%TO.N,VDD33*%
X129459444Y-78574999D03*
%TD*%
D30*
%TO.P,C101,1*%
%TO.N,ADC6_Out-*%
X133133189Y-70576301D03*
%TO.P,C101,2*%
%TO.N,Net-(IC7--IN)*%
X133133189Y-69026301D03*
%TD*%
D10*
%TO.P,C78,1*%
%TO.N,GND*%
X145400000Y-63408188D03*
%TO.P,C78,2*%
%TO.N,VDD33*%
X145400000Y-64958188D03*
%TD*%
D15*
%TO.P,R4,1*%
%TO.N,Net-(C31-Pad2)*%
X153450000Y-100275000D03*
%TO.P,R4,2*%
%TO.N,Net-(IC1-~{U})*%
X155100000Y-100275000D03*
%TD*%
D12*
%TO.P,TRIGGERIN,1,1*%
%TO.N,TRIGGERIN*%
X125500000Y-63350000D03*
%TD*%
D25*
%TO.P,L3,1,1*%
%TO.N,Net-(C91-Pad1)*%
X149000000Y-91550000D03*
%TO.P,L3,2,2*%
%TO.N,V_ped3*%
X149000000Y-93300000D03*
%TD*%
D13*
%TO.P,C65,1*%
%TO.N,Net-(IC4-+IN)*%
X156250000Y-70210700D03*
%TO.P,C65,2*%
%TO.N,ADC3_Out+*%
X154700000Y-70210700D03*
%TD*%
D30*
%TO.P,C81,1*%
%TO.N,GND*%
X138050001Y-65333188D03*
%TO.P,C81,2*%
%TO.N,VDD33*%
X138050001Y-63783188D03*
%TD*%
D13*
%TO.P,C95,1*%
%TO.N,/Pedestals/SIGNAL7*%
X127250000Y-93650000D03*
%TO.P,C95,2*%
%TO.N,Net-(J9-In)*%
X125700000Y-93650000D03*
%TD*%
D25*
%TO.P,L6,1,1*%
%TO.N,Net-(C97-Pad1)*%
X143425000Y-91500000D03*
%TO.P,L6,2,2*%
%TO.N,V_ped6*%
X143425000Y-93250000D03*
%TD*%
D13*
%TO.P,C73,1*%
%TO.N,Net-(IC5-+IN)*%
X148750000Y-67083188D03*
%TO.P,C73,2*%
%TO.N,ADC4_Out+*%
X147200000Y-67083188D03*
%TD*%
D25*
%TO.P,L2,1,1*%
%TO.N,Net-(C90-Pad1)*%
X150752071Y-91552071D03*
%TO.P,L2,2,2*%
%TO.N,V_ped2*%
X150752071Y-93302071D03*
%TD*%
D14*
%TO.P,R50,1*%
%TO.N,Net-(IC5-VOCM)*%
X150475000Y-64083188D03*
%TO.P,R50,2*%
%TO.N,GND*%
X150475000Y-65733188D03*
%TD*%
D15*
%TO.P,R9,1*%
%TO.N,Net-(C34-Pad2)*%
X160950000Y-101875000D03*
%TO.P,R9,2*%
%TO.N,Net-(U4-IN-)*%
X162600000Y-101875000D03*
%TD*%
D23*
%TO.P,J7,1,In*%
%TO.N,Net-(J7-In)*%
X119975000Y-110275000D03*
D24*
%TO.P,J7,2,Ext*%
%TO.N,GND*%
X122515000Y-112815000D03*
X122515000Y-107735000D03*
X117435000Y-112815000D03*
X117435000Y-107735000D03*
%TD*%
D19*
%TO.P,IC3,1,-OUT*%
%TO.N,ADC2_Out+*%
X162149999Y-68439650D03*
D20*
%TO.P,IC3,2,+IN*%
%TO.N,Net-(IC3-+IN)*%
X162949998Y-68441812D03*
D21*
%TO.P,IC3,3,~{SHDN}*%
%TO.N,VDD33*%
X163426299Y-67624999D03*
%TO.P,IC3,4,V+_1*%
X163426299Y-67125000D03*
%TO.P,IC3,5,VOCM*%
%TO.N,Net-(IC3-VOCM)*%
X163426299Y-66625001D03*
D20*
%TO.P,IC3,6,-IN*%
%TO.N,Net-(IC3--IN)*%
X162949998Y-65808188D03*
%TO.P,IC3,7,+OUT*%
%TO.N,ADC2_Out-*%
X162150000Y-65808188D03*
D21*
%TO.P,IC3,8,V-_1*%
%TO.N,GND*%
X161673699Y-66625001D03*
%TO.P,IC3,9,V+_2*%
%TO.N,VDD33*%
X161673699Y-67125000D03*
%TO.P,IC3,10,V-_2*%
%TO.N,GND*%
X161673699Y-67624999D03*
D22*
%TO.P,IC3,11,EP_(V-)*%
X162524999Y-67125000D03*
%TD*%
D13*
%TO.P,C112,1*%
%TO.N,GND*%
X132514444Y-78579999D03*
%TO.P,C112,2*%
%TO.N,VDD33*%
X130964444Y-78579999D03*
%TD*%
D30*
%TO.P,C115,1*%
%TO.N,ADC8_Out-*%
X127169300Y-83725000D03*
%TO.P,C115,2*%
%TO.N,Net-(IC9--IN)*%
X127169300Y-82175000D03*
%TD*%
D16*
%TO.P,R59,1*%
%TO.N,Net-(C97-Pad1)*%
X143425000Y-86975000D03*
%TO.P,R59,2*%
%TO.N,/Pedestals/SIGNAL6*%
X143425000Y-85325000D03*
%TD*%
D14*
%TO.P,R74,1*%
%TO.N,Net-(IC9--IN)*%
X125639300Y-82125000D03*
%TO.P,R74,2*%
%TO.N,ADC8_Out-*%
X125639300Y-83775000D03*
%TD*%
D19*
%TO.P,IC5,1,-OUT*%
%TO.N,ADC4_Out+*%
X147474999Y-63989650D03*
D20*
%TO.P,IC5,2,+IN*%
%TO.N,Net-(IC5-+IN)*%
X148274998Y-63991812D03*
D21*
%TO.P,IC5,3,~{SHDN}*%
%TO.N,VDD33*%
X148751299Y-63174999D03*
%TO.P,IC5,4,V+_1*%
X148751299Y-62675000D03*
%TO.P,IC5,5,VOCM*%
%TO.N,Net-(IC5-VOCM)*%
X148751299Y-62175001D03*
D20*
%TO.P,IC5,6,-IN*%
%TO.N,Net-(IC5--IN)*%
X148274998Y-61358188D03*
%TO.P,IC5,7,+OUT*%
%TO.N,ADC4_Out-*%
X147475000Y-61358188D03*
D21*
%TO.P,IC5,8,V-_1*%
%TO.N,GND*%
X146998699Y-62175001D03*
%TO.P,IC5,9,V+_2*%
%TO.N,VDD33*%
X146998699Y-62675000D03*
%TO.P,IC5,10,V-_2*%
%TO.N,GND*%
X146998699Y-63174999D03*
D22*
%TO.P,IC5,11,EP_(V-)*%
X147849999Y-62675000D03*
%TD*%
D11*
%TO.P,C38,1*%
%TO.N,/Biases\u002CThresh/discthresh1_postrc*%
X152925000Y-83100000D03*
%TO.P,C38,2*%
%TO.N,GND*%
X154475000Y-83100000D03*
%TD*%
D12*
%TO.P,PSEC5_CLK_OUT,1,1*%
%TO.N,PSEC5_CLK_OUT*%
X136925000Y-103025000D03*
%TD*%
D11*
%TO.P,C71,1*%
%TO.N,ADC4_Out-*%
X147225000Y-58283188D03*
%TO.P,C71,2*%
%TO.N,Net-(IC5--IN)*%
X148775000Y-58283188D03*
%TD*%
D26*
%TO.P,IC7,1,-OUT*%
%TO.N,ADC6_Out+*%
X137339651Y-70476300D03*
D27*
%TO.P,IC7,2,+IN*%
%TO.N,Net-(IC7-+IN)*%
X137341813Y-69676301D03*
D28*
%TO.P,IC7,3,~{SHDN}*%
%TO.N,VDD33*%
X136525000Y-69200000D03*
%TO.P,IC7,4,V+_1*%
X136025001Y-69200000D03*
%TO.P,IC7,5,VOCM*%
%TO.N,Net-(IC7-VOCM)*%
X135525002Y-69200000D03*
D27*
%TO.P,IC7,6,-IN*%
%TO.N,Net-(IC7--IN)*%
X134708189Y-69676301D03*
%TO.P,IC7,7,+OUT*%
%TO.N,ADC6_Out-*%
X134708189Y-70476299D03*
D28*
%TO.P,IC7,8,V-_1*%
%TO.N,GND*%
X135525002Y-70952600D03*
%TO.P,IC7,9,V+_2*%
%TO.N,VDD33*%
X136025001Y-70952600D03*
%TO.P,IC7,10,V-_2*%
%TO.N,GND*%
X136525000Y-70952600D03*
D29*
%TO.P,IC7,11,EP_(V-)*%
X136025001Y-70101300D03*
%TD*%
D17*
%TO.P,R5,1*%
%TO.N,Net-(C32-Pad1)*%
X162625000Y-98375000D03*
%TO.P,R5,2*%
%TO.N,Net-(IC1-~{D})*%
X160975000Y-98375000D03*
%TD*%
D14*
%TO.P,R3,1*%
%TO.N,GND*%
X151650000Y-100300000D03*
%TO.P,R3,2*%
%TO.N,Net-(IC1-~{D})*%
X151650000Y-101950000D03*
%TD*%
D15*
%TO.P,R49,1*%
%TO.N,ADC5_Out+*%
X139775001Y-67383188D03*
%TO.P,R49,2*%
%TO.N,Net-(IC6-+IN)*%
X141425001Y-67383188D03*
%TD*%
D13*
%TO.P,C104,1*%
%TO.N,Net-(IC7-VOCM)*%
X135258189Y-67376301D03*
%TO.P,C104,2*%
%TO.N,GND*%
X133708189Y-67376301D03*
%TD*%
D10*
%TO.P,C98,1*%
%TO.N,Net-(C98-Pad1)*%
X141625000Y-88425000D03*
%TO.P,C98,2*%
%TO.N,GND*%
X141625000Y-89975000D03*
%TD*%
D16*
%TO.P,R61,1*%
%TO.N,Net-(C100-Pad1)*%
X139825000Y-87000000D03*
%TO.P,R61,2*%
%TO.N,/Pedestals/SIGNAL8*%
X139825000Y-85350000D03*
%TD*%
D23*
%TO.P,J6,1,In*%
%TO.N,Net-(J6-In)*%
X179695000Y-110275000D03*
D24*
%TO.P,J6,2,Ext*%
%TO.N,GND*%
X177155000Y-112815000D03*
X182235000Y-112815000D03*
X177155000Y-107735000D03*
X182235000Y-107735000D03*
%TD*%
D32*
%TO.P,U1,1,THRES8*%
%TO.N,/Biases\u002CThresh/discthresh8_postrc*%
X141925000Y-82775000D03*
%TO.P,U1,2,VDD*%
%TO.N,VDD*%
X141925000Y-82275000D03*
%TO.P,U1,3,GND*%
%TO.N,GND*%
X141925000Y-81775000D03*
%TO.P,U1,4,GND*%
X141925000Y-81275000D03*
%TO.P,U1,5,VDD25*%
%TO.N,VDD25*%
X141925000Y-80775000D03*
%TO.P,U1,6,TRIGGERIN*%
%TO.N,TRIGGERIN*%
X141925000Y-80275000D03*
%TO.P,U1,7,TRIGGEROUT*%
%TO.N,TRIGGEROUT*%
X141925000Y-79775000D03*
%TO.P,U1,8,READCLK*%
%TO.N,ReadClk*%
X141925000Y-79275000D03*
%TO.P,U1,9,REFCLKOUT*%
%TO.N,PSEC5_CLK_OUT*%
X141925000Y-78775000D03*
%TO.P,U1,10,VDD25*%
%TO.N,VDD25*%
X141925000Y-78275000D03*
%TO.P,U1,11,GND*%
%TO.N,GND*%
X141925000Y-77775000D03*
%TO.P,U1,12,VDD*%
%TO.N,VDD*%
X141925000Y-77275000D03*
%TO.P,U1,13,GND*%
%TO.N,GND*%
X141925000Y-76775000D03*
%TO.P,U1,14,GND*%
X141925000Y-76275000D03*
%TO.P,U1,15,THRES7*%
%TO.N,/Biases\u002CThresh/discthresh7_postrc*%
X141925000Y-75775000D03*
%TO.P,U1,16,THRES6*%
%TO.N,/Biases\u002CThresh/discthresh6_postrc*%
X141925000Y-75275000D03*
%TO.P,U1,17,GND*%
%TO.N,GND*%
X141925000Y-74775000D03*
%TO.P,U1,18,READOUT8*%
%TO.N,/ADC_Buffer3/ADC8_In*%
X141925000Y-74275000D03*
D33*
%TO.P,U1,19,GND*%
%TO.N,GND*%
X142425000Y-73775000D03*
%TO.P,U1,20,READOUT7*%
%TO.N,/ADC_Buffer3/ADC7_In*%
X142925000Y-73775000D03*
%TO.P,U1,21,VDD25*%
%TO.N,VDD25*%
X143425000Y-73775000D03*
%TO.P,U1,22,READOUT6*%
%TO.N,/ADC_Buffer3/ADC6_In*%
X143925000Y-73775000D03*
%TO.P,U1,23,VDD25*%
%TO.N,VDD25*%
X144425000Y-73775000D03*
%TO.P,U1,24,THRES5*%
%TO.N,/Biases\u002CThresh/discthresh5_postrc*%
X144925000Y-73775000D03*
%TO.P,U1,25,READOUT5*%
%TO.N,/ADC_Buffer2/ADC5_In*%
X145425000Y-73775000D03*
%TO.P,U1,26,VCOCTRL*%
%TO.N,Net-(U1-VCOCTRL)*%
X145925000Y-73775000D03*
%TO.P,U1,27,VCOVDD*%
%TO.N,VDD*%
X146425000Y-73775000D03*
%TO.P,U1,28,VCOVDD*%
X146925000Y-73775000D03*
%TO.P,U1,29,VDD*%
X147425000Y-73775000D03*
%TO.P,U1,30,READOUT4*%
%TO.N,/ADC_Buffer2/ADC4_In*%
X147925000Y-73775000D03*
%TO.P,U1,31,THRES4*%
%TO.N,/Biases\u002CThresh/discthresh4_postrc*%
X148425000Y-73775000D03*
%TO.P,U1,32,GND*%
%TO.N,GND*%
X148925000Y-73775000D03*
%TO.P,U1,33,READBIAS1*%
%TO.N,/Biases\u002CThresh/readbias1_postrc*%
X149425000Y-73775000D03*
%TO.P,U1,34,READOUT3*%
%TO.N,/ADC_Buffer/ADC3_In*%
X149925000Y-73775000D03*
%TO.P,U1,35,READBIAS2*%
%TO.N,/Biases\u002CThresh/readbias2_postrc*%
X150425000Y-73775000D03*
%TO.P,U1,36,VDD25*%
%TO.N,VDD25*%
X150925000Y-73775000D03*
D32*
%TO.P,U1,37,READOUT2*%
%TO.N,/ADC_Buffer/ADC2_In*%
X151425000Y-74275000D03*
%TO.P,U1,38,VDD25*%
%TO.N,VDD25*%
X151425000Y-74775000D03*
%TO.P,U1,39,READOUT1*%
%TO.N,/ADC_Buffer/ADC1_In*%
X151425000Y-75275000D03*
%TO.P,U1,40,GND*%
%TO.N,GND*%
X151425000Y-75775000D03*
%TO.P,U1,41,THRES3*%
%TO.N,/Biases\u002CThresh/discthresh3_postrc*%
X151425000Y-76275000D03*
%TO.P,U1,42,THRES2*%
%TO.N,/Biases\u002CThresh/discthresh2_postrc*%
X151425000Y-76775000D03*
%TO.P,U1,43,GND*%
%TO.N,GND*%
X151425000Y-77275000D03*
%TO.P,U1,44,VDD*%
%TO.N,VDD*%
X151425000Y-77775000D03*
%TO.P,U1,45,VDD25*%
%TO.N,VDD25*%
X151425000Y-78275000D03*
%TO.P,U1,46,GND*%
%TO.N,GND*%
X151425000Y-78775000D03*
%TO.P,U1,47,PICO*%
%TO.N,PICO*%
X151425000Y-79275000D03*
%TO.P,U1,48,POCI*%
%TO.N,POCI*%
X151425000Y-79775000D03*
%TO.P,U1,49,RESET*%
%TO.N,rst*%
X151425000Y-80275000D03*
%TO.P,U1,50,SPICLK*%
%TO.N,SPIclk*%
X151425000Y-80775000D03*
%TO.P,U1,51,VDD25*%
%TO.N,VDD25*%
X151425000Y-81275000D03*
%TO.P,U1,52,VDD*%
%TO.N,VDD*%
X151425000Y-81775000D03*
%TO.P,U1,53,THRES1*%
%TO.N,/Biases\u002CThresh/discthresh1_postrc*%
X151425000Y-82275000D03*
%TO.P,U1,54,VDD*%
%TO.N,VDD*%
X151425000Y-82775000D03*
D33*
%TO.P,U1,55,SIGNAL1*%
%TO.N,/Pedestals/SIGNAL1*%
X150925000Y-83275000D03*
%TO.P,U1,56,VDD*%
%TO.N,VDD*%
X150425000Y-83275000D03*
%TO.P,U1,57,SIGNAL2*%
%TO.N,/Pedestals/SIGNAL2*%
X149925000Y-83275000D03*
%TO.P,U1,58,VDD*%
%TO.N,VDD*%
X149425000Y-83275000D03*
%TO.P,U1,59,SIGNAL3*%
%TO.N,/Pedestals/SIGNAL3*%
X148925000Y-83275000D03*
%TO.P,U1,60,VDD*%
%TO.N,VDD*%
X148425000Y-83275000D03*
%TO.P,U1,61,SIGNAL4*%
%TO.N,/Pedestals/SIGNAL4*%
X147925000Y-83275000D03*
%TO.P,U1,62,VDD*%
%TO.N,VDD*%
X147425000Y-83275000D03*
%TO.P,U1,63,WBUFBIAS*%
%TO.N,/Biases\u002CThresh/wbufbias_postrc*%
X146925000Y-83275000D03*
%TO.P,U1,64,DISCBIAS*%
%TO.N,/Biases\u002CThresh/discbias_postrc*%
X146425000Y-83275000D03*
%TO.P,U1,65,SIGNAL5*%
%TO.N,/Pedestals/SIGNAL5*%
X145925000Y-83275000D03*
%TO.P,U1,66,VDD*%
%TO.N,VDD*%
X145425000Y-83275000D03*
%TO.P,U1,67,SIGNAL6*%
%TO.N,/Pedestals/SIGNAL6*%
X144925000Y-83275000D03*
%TO.P,U1,68,VDD*%
%TO.N,VDD*%
X144425000Y-83275000D03*
%TO.P,U1,69,SIGNAL7*%
%TO.N,/Pedestals/SIGNAL7*%
X143925000Y-83275000D03*
%TO.P,U1,70,VDD*%
%TO.N,VDD*%
X143425000Y-83275000D03*
%TO.P,U1,71,VDD*%
X142925000Y-83275000D03*
%TO.P,U1,72,SIGNAL8*%
%TO.N,/Pedestals/SIGNAL8*%
X142425000Y-83275000D03*
%TD*%
D11*
%TO.P,C34,1*%
%TO.N,/Phase_detection/OP_AMP_OUT*%
X161500000Y-103675000D03*
%TO.P,C34,2*%
%TO.N,Net-(C34-Pad2)*%
X163050000Y-103675000D03*
%TD*%
D15*
%TO.P,R39,1*%
%TO.N,ADC3_Out+*%
X154650000Y-68660700D03*
%TO.P,R39,2*%
%TO.N,Net-(IC4-+IN)*%
X156300000Y-68660700D03*
%TD*%
D16*
%TO.P,R54,1*%
%TO.N,Net-(C89-Pad1)*%
X152625000Y-87025000D03*
%TO.P,R54,2*%
%TO.N,/Pedestals/SIGNAL1*%
X152625000Y-85375000D03*
%TD*%
D10*
%TO.P,C103,1*%
%TO.N,Net-(IC7-+IN)*%
X138933189Y-69201301D03*
%TO.P,C103,2*%
%TO.N,ADC6_Out+*%
X138933189Y-70751301D03*
%TD*%
%TO.P,C80,1*%
%TO.N,GND*%
X145400000Y-60308188D03*
%TO.P,C80,2*%
%TO.N,VDD33*%
X145400000Y-61858188D03*
%TD*%
D14*
%TO.P,R62,1*%
%TO.N,Net-(IC7--IN)*%
X131583189Y-68976301D03*
%TO.P,R62,2*%
%TO.N,ADC6_Out-*%
X131583189Y-70626301D03*
%TD*%
D12*
%TO.P,RST,1,1*%
%TO.N,rst*%
X160925000Y-59850000D03*
%TD*%
D11*
%TO.P,C72,1*%
%TO.N,ADC5_Out-*%
X139700001Y-60083188D03*
%TO.P,C72,2*%
%TO.N,Net-(IC6--IN)*%
X141250001Y-60083188D03*
%TD*%
D15*
%TO.P,R71,1*%
%TO.N,Net-(IC8-VOCM)*%
X130484444Y-73549999D03*
%TO.P,R71,2*%
%TO.N,GND*%
X132134444Y-73549999D03*
%TD*%
D25*
%TO.P,L5,1,1*%
%TO.N,Net-(C96-Pad1)*%
X145600000Y-91550000D03*
%TO.P,L5,2,2*%
%TO.N,V_ped5*%
X145600000Y-93300000D03*
%TD*%
D15*
%TO.P,R65,1*%
%TO.N,Net-(IC8-+IN)*%
X137075000Y-74350000D03*
%TO.P,R65,2*%
%TO.N,/ADC_Buffer3/ADC7_In*%
X138725000Y-74350000D03*
%TD*%
D30*
%TO.P,C67,1*%
%TO.N,GND*%
X152625000Y-66585700D03*
%TO.P,C67,2*%
%TO.N,VDD33*%
X152625000Y-65035700D03*
%TD*%
D11*
%TO.P,C30,1*%
%TO.N,VDD25*%
X162254400Y-106775000D03*
%TO.P,C30,2*%
%TO.N,GND*%
X163804400Y-106775000D03*
%TD*%
%TO.P,C86,1*%
%TO.N,/Pedestals/SIGNAL2*%
X170650000Y-92525000D03*
%TO.P,C86,2*%
%TO.N,Net-(J4-In)*%
X172200000Y-92525000D03*
%TD*%
D12*
%TO.P,TRIGGEROUT,1,1*%
%TO.N,TRIGGEROUT*%
X133800000Y-57600000D03*
%TD*%
D23*
%TO.P,J9,1,In*%
%TO.N,Net-(J9-In)*%
X119975000Y-86600000D03*
D24*
%TO.P,J9,2,Ext*%
%TO.N,GND*%
X122515000Y-84060000D03*
X117435000Y-84060000D03*
X122515000Y-89140000D03*
X117435000Y-89140000D03*
%TD*%
D11*
%TO.P,C109,1*%
%TO.N,GND*%
X133883189Y-72501301D03*
%TO.P,C109,2*%
%TO.N,VDD33*%
X135433189Y-72501301D03*
%TD*%
D15*
%TO.P,R78,1*%
%TO.N,Net-(IC9-VOCM)*%
X130714300Y-80650000D03*
%TO.P,R78,2*%
%TO.N,GND*%
X132364300Y-80650000D03*
%TD*%
D11*
%TO.P,C32,1*%
%TO.N,Net-(C32-Pad1)*%
X164500000Y-98400000D03*
%TO.P,C32,2*%
%TO.N,GND*%
X166050000Y-98400000D03*
%TD*%
D10*
%TO.P,C84,1*%
%TO.N,GND*%
X138050001Y-60733188D03*
%TO.P,C84,2*%
%TO.N,VDD33*%
X138050001Y-62283188D03*
%TD*%
D26*
%TO.P,IC9,1,-OUT*%
%TO.N,ADC8_Out+*%
X131378950Y-83475000D03*
D27*
%TO.P,IC9,2,+IN*%
%TO.N,Net-(IC9-+IN)*%
X131381112Y-82675001D03*
D28*
%TO.P,IC9,3,~{SHDN}*%
%TO.N,VDD33*%
X130564299Y-82198700D03*
%TO.P,IC9,4,V+_1*%
X130064300Y-82198700D03*
%TO.P,IC9,5,VOCM*%
%TO.N,Net-(IC9-VOCM)*%
X129564301Y-82198700D03*
D27*
%TO.P,IC9,6,-IN*%
%TO.N,Net-(IC9--IN)*%
X128747488Y-82675001D03*
%TO.P,IC9,7,+OUT*%
%TO.N,ADC8_Out-*%
X128747488Y-83474999D03*
D28*
%TO.P,IC9,8,V-_1*%
%TO.N,GND*%
X129564301Y-83951300D03*
%TO.P,IC9,9,V+_2*%
%TO.N,VDD33*%
X130064300Y-83951300D03*
%TO.P,IC9,10,V-_2*%
%TO.N,GND*%
X130564299Y-83951300D03*
D29*
%TO.P,IC9,11,EP_(V-)*%
X130064300Y-83100000D03*
%TD*%
D17*
%TO.P,R43,1*%
%TO.N,Net-(IC6--IN)*%
X141300001Y-58558188D03*
%TO.P,R43,2*%
%TO.N,ADC5_Out-*%
X139650001Y-58558188D03*
%TD*%
D16*
%TO.P,R58,1*%
%TO.N,Net-(C96-Pad1)*%
X145625000Y-86975000D03*
%TO.P,R58,2*%
%TO.N,/Pedestals/SIGNAL5*%
X145625000Y-85325000D03*
%TD*%
D30*
%TO.P,C102,1*%
%TO.N,ADC7_Out-*%
X125784444Y-76874999D03*
%TO.P,C102,2*%
%TO.N,Net-(IC8--IN)*%
X125784444Y-75324999D03*
%TD*%
D12*
%TO.P,SPICLK,1,1*%
%TO.N,SPIclk*%
X166675000Y-74450000D03*
%TD*%
D14*
%TO.P,R63,1*%
%TO.N,Net-(IC8--IN)*%
X127309444Y-75274999D03*
%TO.P,R63,2*%
%TO.N,ADC7_Out-*%
X127309444Y-76924999D03*
%TD*%
D12*
%TO.P,ADC_CNV,1,1*%
%TO.N,ADC_CNV*%
X152325000Y-113475000D03*
%TD*%
D34*
%TO.P,IC1,1,~{U}*%
%TO.N,Net-(IC1-~{U})*%
X148725000Y-102965000D03*
%TO.P,IC1,2,U*%
%TO.N,unconnected-(IC1-U-Pad2)*%
X148725000Y-101695000D03*
%TO.P,IC1,3,~{D}*%
%TO.N,Net-(IC1-~{D})*%
X148725000Y-100425000D03*
%TO.P,IC1,4,D*%
%TO.N,unconnected-(IC1-D-Pad4)*%
X148725000Y-99155000D03*
%TO.P,IC1,5,VEE*%
%TO.N,GND*%
X143775000Y-99155000D03*
%TO.P,IC1,6,FB*%
%TO.N,PSEC5_CLK_OUT*%
X143775000Y-100425000D03*
%TO.P,IC1,7,R*%
%TO.N,CLK_OUT*%
X143775000Y-101695000D03*
%TO.P,IC1,8,VCC*%
%TO.N,VDD33*%
X143775000Y-102965000D03*
%TD*%
D10*
%TO.P,C100,1*%
%TO.N,Net-(C100-Pad1)*%
X139825000Y-88425000D03*
%TO.P,C100,2*%
%TO.N,GND*%
X139825000Y-89975000D03*
%TD*%
%TO.P,C66,1*%
%TO.N,Net-(IC4-VOCM)*%
X157875000Y-63510700D03*
%TO.P,C66,2*%
%TO.N,GND*%
X157875000Y-65060700D03*
%TD*%
D11*
%TO.P,C56,1*%
%TO.N,GND*%
X156150000Y-79000000D03*
%TO.P,C56,2*%
%TO.N,VDD33*%
X157700000Y-79000000D03*
%TD*%
D30*
%TO.P,C14,1*%
%TO.N,VDD*%
X146825000Y-72650000D03*
%TO.P,C14,2*%
%TO.N,GND*%
X146825000Y-71100000D03*
%TD*%
D25*
%TO.P,L7,1,1*%
%TO.N,Net-(C98-Pad1)*%
X141625000Y-91575000D03*
%TO.P,L7,2,2*%
%TO.N,V_ped7*%
X141625000Y-93325000D03*
%TD*%
D11*
%TO.P,C28,1*%
%TO.N,VDD33*%
X142725000Y-104875000D03*
%TO.P,C28,2*%
%TO.N,GND*%
X144275000Y-104875000D03*
%TD*%
D30*
%TO.P,C70,1*%
%TO.N,GND*%
X152600000Y-62885700D03*
%TO.P,C70,2*%
%TO.N,VDD33*%
X152600000Y-61335700D03*
%TD*%
D10*
%TO.P,C74,1*%
%TO.N,Net-(IC5-VOCM)*%
X150475000Y-61108188D03*
%TO.P,C74,2*%
%TO.N,GND*%
X150475000Y-62658188D03*
%TD*%
D35*
%TO.P,U3,1,REF*%
%TO.N,VDD25*%
X159675000Y-106900000D03*
%TO.P,U3,2,VDD*%
%TO.N,VDD18*%
X159675000Y-106399998D03*
%TO.P,U3,3,IN+*%
%TO.N,/Phase_detection/OP_AMP_OUT*%
X159675000Y-105899999D03*
%TO.P,U3,4,IN*%
%TO.N,GND*%
X159675000Y-105400000D03*
%TO.P,U3,5,GND*%
X159675000Y-104899998D03*
%TO.P,U3,6,CNV*%
%TO.N,ADC_CNV*%
X156779400Y-104899998D03*
%TO.P,U3,7,SDO*%
%TO.N,ADC_SDO*%
X156779400Y-105400000D03*
%TO.P,U3,8,SCK*%
%TO.N,ADC_SCK*%
X156779400Y-105899999D03*
%TO.P,U3,9,SDI*%
%TO.N,ADC_SDI*%
X156779400Y-106399998D03*
%TO.P,U3,10,VIO*%
%TO.N,VDD18*%
X156779400Y-106900000D03*
D36*
%TO.P,U3,11,EPAD*%
%TO.N,GND*%
X158227200Y-105899999D03*
%TD*%
D17*
%TO.P,R70,1*%
%TO.N,Net-(IC7-VOCM)*%
X138333189Y-67376301D03*
%TO.P,R70,2*%
%TO.N,GND*%
X136683189Y-67376301D03*
%TD*%
D23*
%TO.P,J5,1,In*%
%TO.N,Net-(J5-In)*%
X179700000Y-98690000D03*
D24*
%TO.P,J5,2,Ext*%
%TO.N,GND*%
X177160000Y-101230000D03*
X182240000Y-101230000D03*
X177160000Y-96150000D03*
X182240000Y-96150000D03*
%TD*%
D30*
%TO.P,C62,1*%
%TO.N,GND*%
X159548699Y-67750000D03*
%TO.P,C62,2*%
%TO.N,VDD33*%
X159548699Y-66200000D03*
%TD*%
D19*
%TO.P,IC6,1,-OUT*%
%TO.N,ADC5_Out+*%
X140075000Y-64289650D03*
D20*
%TO.P,IC6,2,+IN*%
%TO.N,Net-(IC6-+IN)*%
X140874999Y-64291812D03*
D21*
%TO.P,IC6,3,~{SHDN}*%
%TO.N,VDD33*%
X141351300Y-63474999D03*
%TO.P,IC6,4,V+_1*%
X141351300Y-62975000D03*
%TO.P,IC6,5,VOCM*%
%TO.N,Net-(IC6-VOCM)*%
X141351300Y-62475001D03*
D20*
%TO.P,IC6,6,-IN*%
%TO.N,Net-(IC6--IN)*%
X140874999Y-61658188D03*
%TO.P,IC6,7,+OUT*%
%TO.N,ADC5_Out-*%
X140075001Y-61658188D03*
D21*
%TO.P,IC6,8,V-_1*%
%TO.N,GND*%
X139598700Y-62475001D03*
%TO.P,IC6,9,V+_2*%
%TO.N,VDD33*%
X139598700Y-62975000D03*
%TO.P,IC6,10,V-_2*%
%TO.N,GND*%
X139598700Y-63474999D03*
D22*
%TO.P,IC6,11,EP_(V-)*%
X140450000Y-62975000D03*
%TD*%
D17*
%TO.P,R37,1*%
%TO.N,Net-(IC4-+IN)*%
X156300001Y-71850001D03*
%TO.P,R37,2*%
%TO.N,/ADC_Buffer/ADC3_In*%
X154650001Y-71850001D03*
%TD*%
D12*
%TO.P,PICO,1,1*%
%TO.N,PICO*%
X153075000Y-56600000D03*
%TD*%
D11*
%TO.P,C88,1*%
%TO.N,/Pedestals/SIGNAL4*%
X172825000Y-111975000D03*
%TO.P,C88,2*%
%TO.N,Net-(J6-In)*%
X174375000Y-111975000D03*
%TD*%
D17*
%TO.P,R25,1*%
%TO.N,Net-(IC3--IN)*%
X163298699Y-62000000D03*
%TO.P,R25,2*%
%TO.N,ADC2_Out-*%
X161648699Y-62000000D03*
%TD*%
%TO.P,R6,1*%
%TO.N,Net-(U4-IN-)*%
X155100000Y-101875000D03*
%TO.P,R6,2*%
%TO.N,Net-(C31-Pad2)*%
X153450000Y-101875000D03*
%TD*%
D13*
%TO.P,C118,1*%
%TO.N,GND*%
X132294300Y-85480000D03*
%TO.P,C118,2*%
%TO.N,VDD33*%
X130744300Y-85480000D03*
%TD*%
D37*
%TO.N,GND*%
X153417661Y-49002139D03*
X145023400Y-115065000D03*
X159763400Y-115065000D03*
X148175000Y-94500000D03*
X159767661Y-49002139D03*
X153413400Y-115065000D03*
X142725000Y-66600000D03*
X146875000Y-69800000D03*
X151075000Y-68700000D03*
X127084444Y-79024999D03*
X141200000Y-77300000D03*
X143625001Y-59808188D03*
X144250000Y-61033188D03*
X155350000Y-90475000D03*
X160025000Y-68700000D03*
X169275000Y-100075000D03*
X157025000Y-78100000D03*
X147625000Y-80150000D03*
X157325000Y-82225000D03*
X157300000Y-61225000D03*
X159875000Y-100400000D03*
X133407661Y-49002139D03*
X151050001Y-94500000D03*
X135825000Y-74375000D03*
X128133400Y-115065000D03*
X154500000Y-84000000D03*
X150675000Y-100025000D03*
X159425000Y-78400000D03*
X143943098Y-94650000D03*
X165037661Y-49002139D03*
X137458189Y-66601301D03*
X127989300Y-84575000D03*
X166050000Y-67600000D03*
X133350000Y-85425000D03*
X128137661Y-49002139D03*
X147150000Y-76300000D03*
X166150000Y-105125000D03*
X139550000Y-57425000D03*
X147300000Y-79125000D03*
X150500000Y-76400000D03*
X155825000Y-84200000D03*
X144955838Y-80341025D03*
X165200000Y-109175000D03*
X139753400Y-115065000D03*
X162500000Y-79049997D03*
X133459444Y-79049999D03*
X142600000Y-74500000D03*
X154443626Y-74344697D03*
X145275000Y-99425000D03*
X145075000Y-78600000D03*
X152700000Y-67735700D03*
X145027661Y-49002139D03*
X146800000Y-68050000D03*
X144400000Y-106075000D03*
X149775000Y-59025000D03*
X165033400Y-115065000D03*
X154525000Y-103775000D03*
X133414300Y-80525000D03*
X157525000Y-69000000D03*
X150825000Y-67475000D03*
X148143400Y-115065000D03*
X142068098Y-94800000D03*
X154325000Y-80250000D03*
X149025000Y-72175000D03*
X140900000Y-81500000D03*
X148725000Y-79475000D03*
X145500000Y-94625000D03*
X133283189Y-73226301D03*
X148147661Y-49002139D03*
X131809444Y-72724999D03*
X139875000Y-94525000D03*
X164448699Y-63625000D03*
X149434049Y-94500000D03*
X162500000Y-80550003D03*
X139083189Y-73226301D03*
X158227200Y-103302200D03*
X141925000Y-84175000D03*
X150550000Y-78799996D03*
X133403400Y-115065000D03*
X146275000Y-106550000D03*
X139757661Y-49002139D03*
X148000000Y-74700000D03*
X138937501Y-64445688D03*
X153650000Y-62885700D03*
%TO.N,/Biases\u002CThresh/discthresh2_postrc*%
X152800000Y-76275000D03*
%TO.N,/Biases\u002CThresh/discthresh3_postrc*%
X152525000Y-75700000D03*
%TO.N,/Biases\u002CThresh/discthresh4_postrc*%
X148450000Y-72625000D03*
%TO.N,/Biases\u002CThresh/discthresh5_postrc*%
X144950000Y-72600000D03*
%TO.N,/Biases\u002CThresh/discthresh6_postrc*%
X140875000Y-75000000D03*
%TO.N,/Biases\u002CThresh/discthresh7_postrc*%
X140000000Y-75950000D03*
%TO.N,/Biases\u002CThresh/discthresh8_postrc*%
X141150000Y-82875000D03*
%TO.N,/Biases\u002CThresh/readbias1_postrc*%
X149925000Y-72600000D03*
%TO.N,/Biases\u002CThresh/readbias2_postrc*%
X151950000Y-73375000D03*
%TO.N,/Biases\u002CThresh/wbufbias_postrc*%
X147150000Y-83950000D03*
%TO.N,/Biases\u002CThresh/discbias_postrc*%
X146475000Y-84025000D03*
%TO.N,ADC2_Out-*%
X160600000Y-65500000D03*
%TO.N,ADC2_Out+*%
X161450000Y-69600000D03*
%TO.N,VDD33*%
X129964300Y-86450000D03*
X140905000Y-103650000D03*
X153275000Y-59950000D03*
X159498699Y-64875000D03*
X141850001Y-64108188D03*
X130134444Y-79349999D03*
X144225000Y-64133188D03*
X131775000Y-113700000D03*
X135283189Y-73426301D03*
X156675000Y-67110700D03*
X163825000Y-79025000D03*
X131834444Y-74799999D03*
X131375000Y-116700000D03*
X131614300Y-81725000D03*
X158825000Y-79300000D03*
X137025001Y-63108188D03*
X163800000Y-68375000D03*
X137383189Y-68801301D03*
X149325000Y-64283188D03*
X131357661Y-110100000D03*
X131600000Y-119525000D03*
%TO.N,ADC3_Out-*%
X154650000Y-59950000D03*
%TO.N,ADC3_Out+*%
X153675000Y-68525000D03*
%TO.N,Net-(IC3--IN)*%
X163298699Y-60800000D03*
%TO.N,ADC4_Out-*%
X147325000Y-57025000D03*
%TO.N,ADC4_Out+*%
X146200000Y-66025000D03*
%TO.N,Net-(IC5--IN)*%
X149950000Y-58258188D03*
%TO.N,ADC5_Out-*%
X141800000Y-56900000D03*
%TO.N,ADC5_Out+*%
X142100000Y-68350000D03*
%TO.N,Net-(IC6--IN)*%
X141300001Y-57658188D03*
%TO.N,ADC6_Out-*%
X136125001Y-65950000D03*
%TO.N,ADC6_Out+*%
X139750000Y-71775000D03*
%TO.N,Net-(IC4--IN)*%
X157350000Y-60450000D03*
%TO.N,ADC1_Out-*%
X162468777Y-54449352D03*
%TO.N,ADC1_Out+*%
X162437657Y-53700000D03*
%TO.N,ADC7_Out-*%
X129225000Y-71600000D03*
%TO.N,Net-(IC7--IN)*%
X132283189Y-68276301D03*
%TO.N,ADC7_Out+*%
X135875000Y-76050000D03*
%TO.N,Net-(IC8--IN)*%
X126584444Y-76124999D03*
%TO.N,ADC8_Out-*%
X124300000Y-77625000D03*
%TO.N,ADC8_Out+*%
X134975000Y-78800000D03*
%TO.N,SPIclk*%
X158200000Y-55700000D03*
%TO.N,POCI*%
X152600000Y-79700000D03*
%TO.N,Disc_Thresh6*%
X136275000Y-54725000D03*
X133575000Y-47275000D03*
%TO.N,Disc_Thresh1*%
X155600000Y-81600000D03*
%TO.N,READBIAS1*%
X161837661Y-46962661D03*
X151100000Y-58675000D03*
%TO.N,PSEC5_CLK_OUT*%
X135750000Y-104175000D03*
X135625000Y-85225000D03*
X150525000Y-47850000D03*
X141175000Y-78775000D03*
X142750000Y-72700000D03*
%TO.N,PICO*%
X151050000Y-56375000D03*
X152200000Y-79100000D03*
%TO.N,Disc_Thresh8*%
X130975000Y-60050000D03*
X130450000Y-47650000D03*
%TO.N,READBIAS2*%
X155025000Y-57250000D03*
X162800000Y-47075000D03*
%TO.N,TRIGGEROUT*%
X140800000Y-79675000D03*
X137950000Y-56025000D03*
%TO.N,CLK_OUT*%
X146575000Y-105075000D03*
X145270000Y-101695000D03*
X137417339Y-109757761D03*
%TO.N,TRIGGERIN*%
X136125000Y-80500000D03*
%TO.N,rst*%
X157450000Y-56100000D03*
%TO.N,ReadClk*%
X137200000Y-59625000D03*
X140025000Y-79300000D03*
%TO.N,Disc_Thresh7*%
X132025000Y-47350000D03*
X135625000Y-56600000D03*
%TO.N,Net-(IC9--IN)*%
X126439300Y-81500000D03*
%TO.N,V_ped8*%
X139075000Y-94200000D03*
%TO.N,ADC_SDI*%
X155175000Y-107900000D03*
X155625000Y-110075000D03*
%TO.N,V_ped1*%
X152414456Y-95410544D03*
%TO.N,Net-(IC9-VOCM)*%
X130075000Y-81391498D03*
%TO.N,Net-(IC1-~{D})*%
X160075000Y-98425000D03*
X154325000Y-99400000D03*
%TO.N,V_ped6*%
X143400000Y-95175000D03*
%TO.N,VDD18*%
X160975000Y-108000000D03*
X132808189Y-66826301D03*
X142175001Y-59808188D03*
X134000000Y-108550000D03*
X161150000Y-106125000D03*
X157550000Y-62175000D03*
X166450000Y-66275000D03*
X126334444Y-74149999D03*
X134525000Y-116575000D03*
X134500000Y-119475000D03*
X126714300Y-80450000D03*
X158225000Y-83200000D03*
X151100000Y-61875000D03*
X133925000Y-113550000D03*
X156144400Y-103075000D03*
%TO.N,ADC_SDO*%
X153925000Y-109725000D03*
%TO.N,VDD25*%
X136000000Y-116625000D03*
X142600000Y-79300000D03*
X156650000Y-108250000D03*
X136025000Y-119500000D03*
X150700000Y-74700000D03*
X135825000Y-113300000D03*
X150675000Y-81300000D03*
X148554098Y-109695877D03*
X135975000Y-110250000D03*
X152000000Y-78320000D03*
X163150000Y-109900000D03*
X164075000Y-104725000D03*
X144000000Y-74400000D03*
X153817500Y-106857500D03*
%TO.N,ADC_CNV*%
X152375000Y-109800000D03*
%TO.N,V_ped3*%
X149025000Y-95075000D03*
%TO.N,V_ped5*%
X144875000Y-95175000D03*
%TO.N,ADC_SCK*%
X154750000Y-110300000D03*
%TO.N,VDD*%
X129900000Y-119425000D03*
X150700000Y-77800000D03*
X129900000Y-110700000D03*
X149000000Y-82500000D03*
X145000000Y-82400000D03*
X143200000Y-82300000D03*
X146000000Y-72775000D03*
X150600000Y-82400000D03*
X146350000Y-75975000D03*
X147500000Y-82500000D03*
X129800000Y-113200000D03*
X129825000Y-116800000D03*
X142600000Y-77300000D03*
%TO.N,V_ped4*%
X147425000Y-95100000D03*
%TO.N,V_ped2*%
X150777071Y-95077071D03*
%TO.N,V_ped7*%
X141325000Y-94550000D03*
%TO.N,Net-(IC4-VOCM)*%
X159000000Y-63485700D03*
%TO.N,DAC_V_OUT*%
X153750000Y-94375000D03*
%TO.N,Net-(IC2-VOCM)*%
X157425000Y-80100000D03*
%TO.N,Net-(IC3-VOCM)*%
X165950000Y-64700000D03*
%TO.N,Net-(IC5-VOCM)*%
X151000000Y-60325000D03*
%TO.N,Net-(IC6-VOCM)*%
X141900001Y-61908188D03*
%TO.N,Net-(IC7-VOCM)*%
X134483189Y-68526301D03*
%TO.N,Net-(IC8-VOCM)*%
X128734444Y-74524999D03*
%TO.N,Net-(U1-VCOCTRL)*%
X145600000Y-76350000D03*
%TD*%
D38*
%TO.N,/Phase_detection/OP_AMP_OUT*%
X159954400Y-105899999D02*
X159675000Y-105899999D01*
X161500000Y-105475000D02*
X161600000Y-105575000D01*
X161600000Y-105575000D02*
X160279399Y-105575000D01*
X167350002Y-102575002D02*
X167650000Y-102875000D01*
X167650000Y-104450000D02*
X168325000Y-105125000D01*
X167150000Y-102575002D02*
X167350002Y-102575002D01*
X160279399Y-105575000D02*
X159954400Y-105899999D01*
X167050000Y-105575000D02*
X161600000Y-105575000D01*
X168325000Y-105125000D02*
X169350000Y-105125000D01*
X167650000Y-104975000D02*
X167050000Y-105575000D01*
X161500000Y-103675000D02*
X161500000Y-105475000D01*
X167650000Y-104450000D02*
X167650000Y-104975000D01*
X167650000Y-102875000D02*
X167650000Y-104450000D01*
D39*
%TO.N,/Pedestals/SIGNAL1*%
X150950000Y-83275000D02*
X150950000Y-83700000D01*
D38*
X150950000Y-83275000D02*
X151025000Y-83275000D01*
D39*
X150950000Y-83700000D02*
X152625000Y-85375000D01*
X152625000Y-85375000D02*
X167500000Y-85375000D01*
X172125000Y-80750000D02*
X172125000Y-78800000D01*
X152625000Y-85375000D02*
X152875000Y-85625000D01*
X167500000Y-85375000D02*
X172125000Y-80750000D01*
D38*
%TO.N,GND*%
X149750000Y-94184049D02*
X149434049Y-94500000D01*
X131509444Y-72924999D02*
X132134444Y-73549999D01*
X147400000Y-90425000D02*
X148175000Y-91200000D01*
X159700000Y-100225000D02*
X159875000Y-100400000D01*
X139598700Y-63474999D02*
X139950001Y-63474999D01*
X146700000Y-106975000D02*
X146275000Y-106550000D01*
X154498700Y-65225001D02*
X154498700Y-64784400D01*
X149750000Y-91201112D02*
X149750000Y-94184049D01*
X155350000Y-65725000D02*
X154850001Y-65225001D01*
X151400000Y-94150001D02*
X151050001Y-94500000D01*
X161576300Y-80299999D02*
X162249996Y-80299999D01*
X157875000Y-65060700D02*
X158500000Y-65685700D01*
X149000000Y-89975000D02*
X149000000Y-90451112D01*
X159673700Y-67624999D02*
X159548699Y-67750000D01*
X130064300Y-83100000D02*
X130564299Y-83599999D01*
X143525001Y-64608188D02*
X142900001Y-65233188D01*
X144275000Y-104875000D02*
X144275000Y-105950000D01*
X139598700Y-63474999D02*
X139598700Y-63784489D01*
X132514444Y-78579999D02*
X132989444Y-78579999D01*
X129698745Y-76951299D02*
X129533144Y-76951299D01*
X133350000Y-85425000D02*
X132349300Y-85425000D01*
X150475000Y-67125000D02*
X150825000Y-67475000D01*
X146998699Y-61906887D02*
X145400000Y-60308188D01*
X163804400Y-107779400D02*
X163804400Y-106775000D01*
X152625000Y-66585700D02*
X152625000Y-67660700D01*
X141950000Y-76775000D02*
X141725000Y-76775000D01*
X157835699Y-65225001D02*
X157850000Y-65210700D01*
X157375000Y-102450000D02*
X158227200Y-103302200D01*
X142450000Y-74350000D02*
X142600000Y-74500000D01*
X128364300Y-80025000D02*
X131739300Y-80025000D01*
X152600000Y-63076301D02*
X152600000Y-62885700D01*
X162025000Y-67624999D02*
X162524999Y-67125000D01*
X160725000Y-79800000D02*
X160725000Y-80100000D01*
X144275000Y-105950000D02*
X144400000Y-106075000D01*
X159548699Y-67750000D02*
X159548699Y-68223699D01*
X148950000Y-72250000D02*
X148950000Y-73775000D01*
X152625000Y-67660700D02*
X152700000Y-67735700D01*
X142250000Y-94618098D02*
X142068098Y-94800000D01*
X131509444Y-72924999D02*
X131709444Y-72724999D01*
X158875000Y-100225000D02*
X159700000Y-100225000D01*
X142450000Y-73775000D02*
X142450000Y-74625000D01*
X161673699Y-67624999D02*
X162025000Y-67624999D01*
X156150000Y-78975000D02*
X156150000Y-79000000D01*
X139598700Y-63784489D02*
X138937501Y-64445688D01*
X159675000Y-105400000D02*
X159675000Y-104899998D01*
X139083189Y-73226301D02*
X139083189Y-73126301D01*
X141125000Y-81275000D02*
X140900000Y-81500000D01*
X142300000Y-74775000D02*
X141950000Y-74775000D01*
X151400000Y-90625000D02*
X151400000Y-94150001D01*
X144775000Y-61208188D02*
X144425000Y-61208188D01*
X159548699Y-68223699D02*
X160025000Y-68700000D01*
X146998699Y-62175001D02*
X146998699Y-61906887D01*
X154850001Y-65225001D02*
X154498700Y-65225001D01*
X151175000Y-64783188D02*
X151175000Y-65033188D01*
X160725000Y-79800000D02*
X160725000Y-79400000D01*
X162249996Y-79300001D02*
X162500000Y-79049997D01*
X139875000Y-94525000D02*
X140450000Y-93950000D01*
X150475000Y-65733188D02*
X150475000Y-67125000D01*
X130564299Y-83599999D02*
X130564299Y-83951300D01*
X129564301Y-83951300D02*
X129564301Y-83599999D01*
X144775000Y-60933188D02*
X144775000Y-61208188D01*
X166675000Y-104600000D02*
X166150000Y-105125000D01*
X146225000Y-93900000D02*
X145500000Y-94625000D01*
X159248699Y-68050000D02*
X159548699Y-67750000D01*
X160725000Y-80100000D02*
X160924999Y-80299999D01*
X151075000Y-75775000D02*
X151025000Y-75825000D01*
X165575000Y-67500000D02*
X165575000Y-68225000D01*
X151025000Y-76525000D02*
X151025000Y-77200000D01*
X157175000Y-82375000D02*
X157325000Y-82225000D01*
X167150000Y-101400000D02*
X167950000Y-101400000D01*
X141625000Y-89975000D02*
X142250000Y-90600000D01*
X162524999Y-67125000D02*
X162025000Y-66625001D01*
X144775000Y-61208188D02*
X144775000Y-62783188D01*
X129564301Y-83599999D02*
X130064300Y-83100000D01*
X157025000Y-78100000D02*
X156150000Y-78975000D01*
X131709444Y-72724999D02*
X131809444Y-72724999D01*
X149025000Y-72175000D02*
X148950000Y-72250000D01*
X166050000Y-98400000D02*
X167600000Y-98400000D01*
X148950000Y-73975000D02*
X148950000Y-73775000D01*
X143775000Y-99155000D02*
X145005000Y-99155000D01*
X158500000Y-65685700D02*
X158500000Y-65935700D01*
X160825001Y-79300001D02*
X161576300Y-79300001D01*
X142900001Y-60583188D02*
X142900001Y-60533188D01*
X132364300Y-80650000D02*
X133289300Y-80650000D01*
X158225000Y-82225000D02*
X157325000Y-82225000D01*
X136683189Y-67376301D02*
X136058189Y-66751301D01*
X157375000Y-101925000D02*
X157375000Y-102450000D01*
X155350000Y-90475000D02*
X154900000Y-90025000D01*
X151025000Y-77200000D02*
X151100000Y-77275000D01*
X130765600Y-83951300D02*
X132294300Y-85480000D01*
X147350000Y-63174999D02*
X147849999Y-62675000D01*
X129238000Y-83951300D02*
X127714300Y-85475000D01*
X151025000Y-75825000D02*
X151025000Y-76525000D01*
X159548699Y-69675000D02*
X159498699Y-69725000D01*
X160825000Y-79300000D02*
X160825001Y-79300001D01*
X147849999Y-62675000D02*
X147350000Y-62175001D01*
X158500000Y-67510700D02*
X157875000Y-68135700D01*
X165575000Y-67500000D02*
X165950000Y-67500000D01*
X133283189Y-73226301D02*
X133283189Y-73101301D01*
X154475000Y-83100000D02*
X154475000Y-83975000D01*
X133283189Y-73101301D02*
X133883189Y-72501301D01*
X165200000Y-109175000D02*
X163804400Y-107779400D01*
X142450000Y-73775000D02*
X142450000Y-74350000D01*
X130698743Y-76951299D02*
X130885744Y-76951299D01*
X140450000Y-93950000D02*
X140450000Y-90600000D01*
X146825000Y-71100000D02*
X146825000Y-69850000D01*
X136025001Y-70101300D02*
X135525002Y-70601299D01*
X135525002Y-70952600D02*
X135431890Y-70952600D01*
X159227201Y-104899998D02*
X158227200Y-105899999D01*
X154475000Y-83975000D02*
X154500000Y-84000000D01*
X127534444Y-78574999D02*
X127084444Y-79024999D01*
X152710701Y-62774999D02*
X152600000Y-62885700D01*
X156800000Y-84200000D02*
X155825000Y-84200000D01*
X140450000Y-62975000D02*
X140450000Y-62933189D01*
X129698745Y-76599998D02*
X129698745Y-76951299D01*
X151425000Y-75775000D02*
X151075000Y-75775000D01*
X130698743Y-76599998D02*
X130198744Y-76099999D01*
X141675000Y-77775000D02*
X141200000Y-77300000D01*
X134333189Y-66751301D02*
X133708189Y-67376301D01*
X136909488Y-70952600D02*
X138458189Y-72501301D01*
X136683189Y-67376301D02*
X137458189Y-66601301D01*
X153475000Y-98500000D02*
X151675000Y-100300000D01*
X146998699Y-63174999D02*
X147350000Y-63174999D01*
X151100000Y-77275000D02*
X151450000Y-77275000D01*
X152985701Y-66224999D02*
X152625000Y-66585700D01*
X136525000Y-70952600D02*
X136909488Y-70952600D01*
X166675000Y-104150000D02*
X166675000Y-104600000D01*
X165575000Y-68700000D02*
X164950000Y-69325000D01*
X143425000Y-89950000D02*
X144050000Y-90575000D01*
X127739300Y-80650000D02*
X128364300Y-80025000D01*
X132989444Y-78579999D02*
X133459444Y-79049999D01*
X129533144Y-76951299D02*
X127909444Y-78574999D01*
X160725000Y-79400000D02*
X160825000Y-79300000D01*
X146825000Y-69850000D02*
X146875000Y-69800000D01*
X141725000Y-76775000D02*
X141200000Y-77300000D01*
X142250000Y-90600000D02*
X142250000Y-94618098D01*
X156425000Y-82175000D02*
X157275000Y-82175000D01*
X130564299Y-83951300D02*
X130765600Y-83951300D01*
X161673699Y-67624999D02*
X159673700Y-67624999D01*
X132349300Y-85425000D02*
X132294300Y-85480000D01*
X151675000Y-100300000D02*
X151650000Y-100300000D01*
X157875000Y-68135700D02*
X157875000Y-68650000D01*
X141950000Y-81275000D02*
X141125000Y-81275000D01*
X143525001Y-61208188D02*
X143525001Y-64608188D01*
X127989300Y-84575000D02*
X127714300Y-84850000D01*
X152554400Y-104825000D02*
X153475000Y-104825000D01*
X135525002Y-70601299D02*
X135525002Y-70952600D01*
X142900001Y-60533188D02*
X143625001Y-59808188D01*
X131739300Y-80025000D02*
X132364300Y-80650000D01*
X127714300Y-84850000D02*
X127714300Y-85475000D01*
X147350000Y-62175001D02*
X146998699Y-62175001D01*
X152600000Y-62885700D02*
X153650000Y-62885700D01*
X150574996Y-78775000D02*
X150550000Y-78799996D01*
X157275000Y-82175000D02*
X157325000Y-82225000D01*
X130698743Y-76951299D02*
X130698743Y-76599998D01*
X151175000Y-65033188D02*
X150475000Y-65733188D01*
X149000000Y-90451112D02*
X149750000Y-91201112D01*
X162249996Y-80299999D02*
X162500000Y-80550003D01*
X136058189Y-66751301D02*
X134333189Y-66751301D01*
X151175000Y-63358188D02*
X151175000Y-64783188D01*
X141950000Y-76275000D02*
X141950000Y-76775000D01*
X151450000Y-78775000D02*
X150574996Y-78775000D01*
X129564301Y-83951300D02*
X129238000Y-83951300D01*
X150625000Y-76525000D02*
X151025000Y-76525000D01*
X165575000Y-68225000D02*
X165575000Y-68700000D01*
X139598700Y-62475001D02*
X139598700Y-62281887D01*
X145400000Y-60308188D02*
X144775000Y-60933188D01*
X150500000Y-76400000D02*
X150625000Y-76525000D01*
X158500000Y-65935700D02*
X158500000Y-67510700D01*
X135431890Y-70952600D02*
X133883189Y-72501301D01*
X148175000Y-91200000D02*
X148175000Y-94500000D01*
X154498700Y-64784400D02*
X152600000Y-62885700D01*
X158227200Y-105899999D02*
X158227200Y-103302200D01*
X133289300Y-80650000D02*
X133414300Y-80525000D01*
X160924999Y-80299999D02*
X161576300Y-80299999D01*
X154850001Y-66224999D02*
X155350000Y-65725000D01*
X142900001Y-60583188D02*
X143525001Y-61208188D01*
X165950000Y-67500000D02*
X166050000Y-67600000D01*
X164950000Y-66250000D02*
X165575000Y-66875000D01*
X145600000Y-89975000D02*
X146225000Y-90600000D01*
X167600000Y-98400000D02*
X169275000Y-100075000D01*
X146225000Y-90600000D02*
X146225000Y-93900000D01*
X139991812Y-62475001D02*
X139598700Y-62475001D01*
X130885744Y-76951299D02*
X132514444Y-78579999D01*
X154900000Y-90025000D02*
X152625000Y-90025000D01*
X128134444Y-72924999D02*
X131509444Y-72924999D01*
X145005000Y-99155000D02*
X145275000Y-99425000D01*
X141950000Y-81775000D02*
X141950000Y-81275000D01*
X144775000Y-62783188D02*
X145400000Y-63408188D01*
X147400000Y-89975000D02*
X147400000Y-90425000D01*
X157875000Y-68650000D02*
X157525000Y-69000000D01*
X144050000Y-90575000D02*
X144050000Y-94543098D01*
X140450000Y-62933189D02*
X139991812Y-62475001D01*
X136525000Y-70601299D02*
X136025001Y-70101300D01*
X167950000Y-101400000D02*
X169275000Y-100075000D01*
X147704400Y-106975000D02*
X146700000Y-106975000D01*
X140450000Y-90600000D02*
X139825000Y-89975000D01*
X151450000Y-75775000D02*
X151250000Y-75775000D01*
X150675000Y-100025000D02*
X151375000Y-100025000D01*
X144425000Y-61208188D02*
X144250000Y-61033188D01*
X127509444Y-73549999D02*
X128134444Y-72924999D01*
X151375000Y-100025000D02*
X151650000Y-100300000D01*
X165575000Y-66875000D02*
X165575000Y-67500000D01*
X150475000Y-62658188D02*
X151175000Y-63358188D01*
X139950001Y-63474999D02*
X140450000Y-62975000D01*
X161576300Y-79300001D02*
X162249996Y-79300001D01*
X139083189Y-73126301D02*
X138458189Y-72501301D01*
X154498700Y-66224999D02*
X152985701Y-66224999D01*
X136525000Y-70952600D02*
X136525000Y-70601299D01*
X154498700Y-66224999D02*
X154850001Y-66224999D01*
X142450000Y-74625000D02*
X142300000Y-74775000D01*
X130198744Y-76099999D02*
X129698745Y-76599998D01*
X138050001Y-65333188D02*
X138937501Y-64445688D01*
X150752071Y-89977071D02*
X151400000Y-90625000D01*
X144050000Y-94543098D02*
X143943098Y-94650000D01*
X162025000Y-66625001D02*
X161673699Y-66625001D01*
X159548699Y-67750000D02*
X159548699Y-69675000D01*
X159675000Y-104899998D02*
X159227201Y-104899998D01*
X127909444Y-78574999D02*
X127534444Y-78574999D01*
X139598700Y-62281887D02*
X138050001Y-60733188D01*
X153475000Y-104825000D02*
X154525000Y-103775000D01*
X141950000Y-77775000D02*
X141675000Y-77775000D01*
%TO.N,Net-(C31-Pad2)*%
X155788436Y-102500000D02*
X154075000Y-102500000D01*
X153450000Y-100275000D02*
X153450000Y-101875000D01*
X158300000Y-101300000D02*
X156988436Y-101300000D01*
X156988436Y-101300000D02*
X155788436Y-102500000D01*
X158925000Y-101925000D02*
X158300000Y-101300000D01*
X154075000Y-102500000D02*
X153450000Y-101875000D01*
%TO.N,/Biases\u002CThresh/discthresh1_postrc*%
X152925000Y-83100000D02*
X152200000Y-82375000D01*
X154709011Y-84884011D02*
X166240989Y-84884011D01*
X152925000Y-83100000D02*
X154709011Y-84884011D01*
X152875000Y-81625000D02*
X152200000Y-82300000D01*
X151500000Y-82300000D02*
X152200000Y-82300000D01*
X151450000Y-82275000D02*
X151475000Y-82275000D01*
X166240989Y-84884011D02*
X166700000Y-84425000D01*
X152875000Y-81600000D02*
X152875000Y-81625000D01*
X166700000Y-84425000D02*
X166700000Y-83825000D01*
X152200000Y-82375000D02*
X152200000Y-82300000D01*
X151475000Y-82275000D02*
X151500000Y-82300000D01*
%TO.N,/Biases\u002CThresh/discthresh2_postrc*%
X152800000Y-76275000D02*
X152300000Y-76775000D01*
X152300000Y-76775000D02*
X151450000Y-76775000D01*
%TO.N,/Biases\u002CThresh/discthresh3_postrc*%
X151450000Y-76275000D02*
X151950000Y-76275000D01*
X151950000Y-76275000D02*
X152525000Y-75700000D01*
%TO.N,/Biases\u002CThresh/discthresh4_postrc*%
X148450000Y-72625000D02*
X148450000Y-73775000D01*
%TO.N,/Biases\u002CThresh/discthresh5_postrc*%
X144950000Y-73775000D02*
X144950000Y-72600000D01*
%TO.N,/Biases\u002CThresh/discthresh6_postrc*%
X141150000Y-75275000D02*
X140875000Y-75000000D01*
X141950000Y-75275000D02*
X141150000Y-75275000D01*
%TO.N,/Biases\u002CThresh/discthresh7_postrc*%
X140175000Y-75775000D02*
X140000000Y-75950000D01*
X141950000Y-75775000D02*
X140175000Y-75775000D01*
%TO.N,/Biases\u002CThresh/discthresh8_postrc*%
X141950000Y-82775000D02*
X141250000Y-82775000D01*
X141250000Y-82775000D02*
X141150000Y-82875000D01*
%TO.N,/Biases\u002CThresh/readbias1_postrc*%
X149450000Y-73075000D02*
X149450000Y-73775000D01*
X149925000Y-72600000D02*
X149450000Y-73075000D01*
%TO.N,/Biases\u002CThresh/readbias2_postrc*%
X151850000Y-73275000D02*
X151950000Y-73375000D01*
X150450000Y-73775000D02*
X150450000Y-73425000D01*
X150450000Y-73425000D02*
X150600000Y-73275000D01*
X150600000Y-73275000D02*
X151850000Y-73275000D01*
%TO.N,/Biases\u002CThresh/wbufbias_postrc*%
X146950000Y-83275000D02*
X146950000Y-83750000D01*
X146950000Y-83750000D02*
X147150000Y-83950000D01*
%TO.N,/Biases\u002CThresh/discbias_postrc*%
X146450000Y-83275000D02*
X146450000Y-84000000D01*
X146450000Y-84000000D02*
X146475000Y-84025000D01*
D40*
%TO.N,/Pedestals/SIGNAL2*%
X151665952Y-86240952D02*
X151665952Y-91738810D01*
X152427142Y-92500000D02*
X154575000Y-92500000D01*
X154575000Y-92500000D02*
X170825000Y-92500000D01*
X151665952Y-91738810D02*
X152427142Y-92500000D01*
X149950000Y-83275000D02*
X149950000Y-84250000D01*
X149950000Y-84250000D02*
X150752071Y-85052071D01*
X150752071Y-85327071D02*
X151665952Y-86240952D01*
X150752071Y-85052071D02*
X150752071Y-85327071D01*
D38*
%TO.N,Net-(C32-Pad1)*%
X162650000Y-98400000D02*
X162625000Y-98375000D01*
X162625000Y-98375000D02*
X162625000Y-100200000D01*
X162625000Y-100200000D02*
X162600000Y-100225000D01*
X162975000Y-98725000D02*
X162625000Y-98375000D01*
X164500000Y-98400000D02*
X162650000Y-98400000D01*
D40*
%TO.N,/Pedestals/SIGNAL3*%
X149800000Y-90875000D02*
X150050000Y-91125000D01*
X151416045Y-96375000D02*
X172025000Y-96375000D01*
X148950000Y-85275000D02*
X148950000Y-83275000D01*
X148925000Y-85225000D02*
X149800000Y-86100000D01*
X150050000Y-95008955D02*
X151416045Y-96375000D01*
X149800000Y-86100000D02*
X149800000Y-90875000D01*
X172025000Y-96375000D02*
X172175000Y-96525000D01*
X150050000Y-91125000D02*
X150050000Y-95008955D01*
D38*
%TO.N,Net-(C33-Pad2)*%
X157225000Y-100125000D02*
X157325000Y-100225000D01*
X157225000Y-98550000D02*
X157225000Y-100125000D01*
D40*
%TO.N,/Pedestals/SIGNAL4*%
X146509049Y-86190951D02*
X147400000Y-85300000D01*
X169075000Y-115725000D02*
X172825000Y-111975000D01*
X147950000Y-84750000D02*
X147400000Y-85300000D01*
X147950000Y-83275000D02*
X147950000Y-84750000D01*
X146509049Y-94843004D02*
X146509049Y-86190951D01*
X145809049Y-109484049D02*
X145809049Y-95543004D01*
X145809049Y-95543004D02*
X146509049Y-94843004D01*
X152050000Y-115725000D02*
X145809049Y-109484049D01*
X152050000Y-115725000D02*
X169075000Y-115725000D01*
D38*
%TO.N,Net-(C34-Pad2)*%
X163050000Y-103675000D02*
X161250000Y-101875000D01*
X161250000Y-101875000D02*
X160950000Y-101875000D01*
D40*
%TO.N,/Pedestals/SIGNAL5*%
X145950000Y-84400000D02*
X145625000Y-84725000D01*
X139227053Y-100025000D02*
X136075000Y-100025000D01*
X144409049Y-94843004D02*
X139227053Y-100025000D01*
X145625000Y-84725000D02*
X145625000Y-85325000D01*
X144409049Y-86540951D02*
X144409049Y-94843004D01*
X145950000Y-83275000D02*
X145950000Y-84400000D01*
X136075000Y-100025000D02*
X127600000Y-108500000D01*
X145625000Y-85325000D02*
X144409049Y-86540951D01*
D38*
%TO.N,Net-(C89-Pad1)*%
X152600000Y-88450000D02*
X152625000Y-88475000D01*
X152000000Y-89100000D02*
X152000000Y-90900000D01*
X152000000Y-90900000D02*
X152650000Y-91550000D01*
X152650000Y-91550000D02*
X161275000Y-91550000D01*
X152625000Y-88475000D02*
X152000000Y-89100000D01*
X152600000Y-86975000D02*
X152600000Y-88450000D01*
D40*
%TO.N,/Pedestals/SIGNAL6*%
X143550000Y-85325000D02*
X143425000Y-85325000D01*
X139477053Y-98050000D02*
X133500000Y-98050000D01*
X142534049Y-94993004D02*
X139477053Y-98050000D01*
X144950000Y-83925000D02*
X143550000Y-85325000D01*
X142534049Y-86215951D02*
X142534049Y-94993004D01*
X143425000Y-85325000D02*
X142534049Y-86215951D01*
X144950000Y-83275000D02*
X144950000Y-83925000D01*
X133500000Y-98050000D02*
X129350000Y-102200000D01*
X129350000Y-102200000D02*
X127175000Y-102200000D01*
D38*
%TO.N,Net-(C90-Pad1)*%
X150752071Y-86977071D02*
X150752071Y-88427071D01*
X150752071Y-91027071D02*
X150752071Y-91552071D01*
X150127071Y-89052071D02*
X150127071Y-90402071D01*
X150752071Y-88427071D02*
X150127071Y-89052071D01*
X150127071Y-90402071D02*
X150752071Y-91027071D01*
D40*
%TO.N,/Pedestals/SIGNAL7*%
X129950000Y-96350000D02*
X127250000Y-93650000D01*
X140715951Y-86259049D02*
X140715951Y-94609049D01*
X141625000Y-85350000D02*
X140715951Y-86259049D01*
X140715951Y-94609049D02*
X138975000Y-96350000D01*
X143950000Y-83606902D02*
X142206902Y-85350000D01*
X142206902Y-85350000D02*
X141625000Y-85350000D01*
X143950000Y-83275000D02*
X143950000Y-83606902D01*
X138975000Y-96350000D02*
X129950000Y-96350000D01*
D38*
%TO.N,Net-(C91-Pad1)*%
X149000000Y-88200000D02*
X148275000Y-88925000D01*
X148275000Y-90825000D02*
X149000000Y-91550000D01*
X149000000Y-86950000D02*
X149000000Y-88200000D01*
X148275000Y-88925000D02*
X148275000Y-90825000D01*
D40*
%TO.N,/Pedestals/SIGNAL8*%
X139825000Y-85350000D02*
X136750000Y-88425000D01*
X141900000Y-83275000D02*
X139825000Y-85350000D01*
X136750000Y-88425000D02*
X127150000Y-88425000D01*
X142450000Y-83275000D02*
X141900000Y-83275000D01*
D38*
%TO.N,Net-(C92-Pad1)*%
X146775000Y-89050000D02*
X146775000Y-90925000D01*
X147400000Y-86950000D02*
X147400000Y-88425000D01*
X147400000Y-88425000D02*
X146775000Y-89050000D01*
X146775000Y-90925000D02*
X147400000Y-91550000D01*
D40*
%TO.N,Net-(J9-In)*%
X125221877Y-93650000D02*
X125000000Y-93650000D01*
X119975000Y-88625000D02*
X119975000Y-86600000D01*
X125000000Y-93650000D02*
X119975000Y-88625000D01*
D38*
X125700000Y-93650000D02*
X125221877Y-93650000D01*
D41*
%TO.N,ADC2_Out-*%
X161698699Y-62050000D02*
X161648699Y-62000000D01*
X162150000Y-65808188D02*
X162150000Y-64051301D01*
X162150000Y-64051301D02*
X161698699Y-63600000D01*
X160908188Y-65808188D02*
X160600000Y-65500000D01*
X162150000Y-65808188D02*
X160908188Y-65808188D01*
X161698699Y-63600000D02*
X161698699Y-62050000D01*
D38*
%TO.N,Net-(C96-Pad1)*%
X145600000Y-88425000D02*
X144975000Y-89050000D01*
X145625000Y-88400000D02*
X145600000Y-88425000D01*
X144975000Y-90925000D02*
X145600000Y-91550000D01*
X145625000Y-86975000D02*
X145625000Y-88400000D01*
X144975000Y-89050000D02*
X144975000Y-90925000D01*
D41*
%TO.N,ADC2_Out+*%
X161748699Y-70850000D02*
X161748699Y-72475000D01*
X161450000Y-69600000D02*
X161450000Y-70551301D01*
X162149999Y-70448700D02*
X161748699Y-70850000D01*
X161748699Y-72475000D02*
X161798699Y-72525000D01*
X162149999Y-68439650D02*
X162149999Y-70448700D01*
X161450000Y-70551301D02*
X161748699Y-70850000D01*
D38*
%TO.N,VDD33*%
X159073699Y-66200000D02*
X159548699Y-66200000D01*
X145400000Y-64958188D02*
X145050000Y-64958188D01*
X130064300Y-83951300D02*
X130064300Y-84508500D01*
X135433189Y-72501301D02*
X136908189Y-72501301D01*
X142300000Y-102965000D02*
X141590000Y-102965000D01*
X130698743Y-75198699D02*
X130198744Y-75198699D01*
X157700000Y-79000000D02*
X158525000Y-79000000D01*
X163800000Y-68375000D02*
X163426299Y-68001299D01*
X130964444Y-78579999D02*
X129464444Y-78579999D01*
X152600000Y-61335700D02*
X152600000Y-60625000D01*
X158825000Y-79300000D02*
X159823699Y-79300000D01*
X159498699Y-71275000D02*
X158848699Y-70625000D01*
X148751299Y-63709487D02*
X149325000Y-64283188D01*
X151975000Y-61960700D02*
X151975000Y-64385700D01*
X146216812Y-62675000D02*
X146216812Y-64141376D01*
X159548699Y-66200000D02*
X159548699Y-64925000D01*
X161576300Y-79800000D02*
X163050000Y-79800000D01*
X153314300Y-65725000D02*
X152625000Y-65035700D01*
X129264300Y-85308500D02*
X129264300Y-85475000D01*
X146216812Y-64141376D02*
X145400000Y-64958188D01*
X136984490Y-69200000D02*
X137383189Y-68801301D01*
X161673699Y-67125000D02*
X160473699Y-67125000D01*
X130064300Y-84508500D02*
X129264300Y-85308500D01*
X129459444Y-78574999D02*
X130198744Y-77835699D01*
X138741813Y-62975000D02*
X138050001Y-62283188D01*
X136525000Y-69200000D02*
X136025001Y-69200000D01*
X158848699Y-66425000D02*
X159073699Y-66200000D01*
X144280000Y-103055000D02*
X144250000Y-103025000D01*
X141351300Y-63474999D02*
X141351300Y-62975000D01*
X156251300Y-66224999D02*
X156251300Y-65725000D01*
X138050001Y-63783188D02*
X137375001Y-63108188D01*
X154498700Y-65725000D02*
X153314300Y-65725000D01*
X131435744Y-75198699D02*
X131834444Y-74799999D01*
X130564299Y-82198700D02*
X131140600Y-82198700D01*
X129464444Y-78579999D02*
X129459444Y-78574999D01*
X135433189Y-72501301D02*
X136025001Y-71909489D01*
X143775000Y-102965000D02*
X142300000Y-102965000D01*
X136525000Y-69200000D02*
X136984490Y-69200000D01*
X129264300Y-85475000D02*
X129264300Y-85750000D01*
X129264300Y-85475000D02*
X130739300Y-85475000D01*
X152600000Y-61335700D02*
X151975000Y-61960700D01*
X131140600Y-82198700D02*
X131614300Y-81725000D01*
X142725000Y-104015000D02*
X143775000Y-102965000D01*
X159548699Y-64925000D02*
X159498699Y-64875000D01*
X160473699Y-67125000D02*
X159548699Y-66200000D01*
X159823700Y-79300001D02*
X159823700Y-79800000D01*
X157700000Y-79000000D02*
X157825000Y-79000000D01*
X145050000Y-64958188D02*
X144225000Y-64133188D01*
X146998699Y-62675000D02*
X146216812Y-62675000D01*
X141850001Y-64108188D02*
X141351300Y-63609487D01*
X158525000Y-79000000D02*
X158825000Y-79300000D01*
X137375001Y-63108188D02*
X137025001Y-63108188D01*
X138050001Y-63783188D02*
X138050001Y-62283188D01*
X163426299Y-67125000D02*
X163426299Y-67624999D01*
X130198744Y-77835699D02*
X130198744Y-76951299D01*
X135433189Y-72501301D02*
X135433189Y-73276301D01*
X163426299Y-68001299D02*
X163426299Y-67624999D01*
X130564299Y-82198700D02*
X130064300Y-82198700D01*
X163050000Y-79800000D02*
X163825000Y-79025000D01*
X158848699Y-70625000D02*
X158848699Y-66425000D01*
X152600000Y-60625000D02*
X153275000Y-59950000D01*
X139598700Y-62975000D02*
X138741813Y-62975000D01*
X148751299Y-63174999D02*
X148751299Y-62675000D01*
X156251300Y-66687000D02*
X156251300Y-66224999D01*
X148751299Y-63174999D02*
X148751299Y-63709487D01*
X156675000Y-67110700D02*
X156251300Y-66687000D01*
X129459444Y-78574999D02*
X130134444Y-79249999D01*
X159823699Y-79300000D02*
X159823700Y-79300001D01*
X146216812Y-62675000D02*
X145400000Y-61858188D01*
X130698743Y-75198699D02*
X131435744Y-75198699D01*
X129264300Y-85750000D02*
X129964300Y-86450000D01*
X142725000Y-104875000D02*
X142725000Y-104015000D01*
X136025001Y-70952600D02*
X136025001Y-71726301D01*
X151975000Y-64385700D02*
X152625000Y-65035700D01*
X135433189Y-73276301D02*
X135283189Y-73426301D01*
X130739300Y-85475000D02*
X130744300Y-85480000D01*
X141590000Y-102965000D02*
X140905000Y-103650000D01*
X136025001Y-71909489D02*
X136025001Y-71726301D01*
X141351300Y-63609487D02*
X141351300Y-63474999D01*
%TO.N,Net-(IC2--IN)*%
X158425000Y-84200000D02*
X158325000Y-84100000D01*
X159800000Y-82700000D02*
X159800000Y-81616813D01*
X159800000Y-82700000D02*
X159800000Y-84150000D01*
X159800000Y-81616813D02*
X160300001Y-81116812D01*
X158425000Y-84200000D02*
X159850000Y-84200000D01*
X159800000Y-84150000D02*
X159850000Y-84200000D01*
X158450000Y-84200000D02*
X158425000Y-84200000D01*
D41*
%TO.N,ADC3_Out-*%
X154725000Y-61260700D02*
X154725000Y-60025000D01*
X154975001Y-64408188D02*
X154975001Y-63110701D01*
X154725000Y-60025000D02*
X154650000Y-59950000D01*
X154675000Y-62810700D02*
X154675000Y-61310700D01*
X154675000Y-61310700D02*
X154725000Y-61260700D01*
X154975001Y-63110701D02*
X154675000Y-62810700D01*
D38*
%TO.N,Net-(IC2-+IN)*%
X159900000Y-75450000D02*
X159950000Y-75400000D01*
X160300001Y-78483188D02*
X160300001Y-77300001D01*
X158550000Y-75550000D02*
X159900000Y-76900000D01*
X155550000Y-75550000D02*
X158550000Y-75550000D01*
X159900000Y-76900000D02*
X159900000Y-75450000D01*
X160300001Y-77300001D02*
X159900000Y-76900000D01*
D41*
%TO.N,ADC3_Out+*%
X154975000Y-68335700D02*
X154650000Y-68660700D01*
X154650000Y-68660700D02*
X153810700Y-68660700D01*
X154650000Y-70160700D02*
X154700000Y-70210700D01*
X154975000Y-67039650D02*
X154975000Y-68335700D01*
X153810700Y-68660700D02*
X153675000Y-68525000D01*
X154650000Y-68660700D02*
X154650000Y-70160700D01*
D38*
%TO.N,Net-(IC3--IN)*%
X163298699Y-62000000D02*
X163298699Y-63550000D01*
X163298699Y-63550000D02*
X163248699Y-63600000D01*
X162949998Y-65808188D02*
X162949998Y-63898701D01*
X162949998Y-63898701D02*
X163248699Y-63600000D01*
X163298699Y-60800000D02*
X163298699Y-62000000D01*
D41*
%TO.N,ADC4_Out-*%
X147175000Y-59808188D02*
X147175000Y-58333188D01*
X147475000Y-61358188D02*
X147475000Y-60108188D01*
X147225000Y-57125000D02*
X147325000Y-57025000D01*
X147225000Y-58283188D02*
X147225000Y-57125000D01*
X147175000Y-58333188D02*
X147225000Y-58283188D01*
X147475000Y-60108188D02*
X147175000Y-59808188D01*
%TO.N,ADC4_Out+*%
X146666812Y-65558188D02*
X146200000Y-66025000D01*
X147150000Y-65558188D02*
X146666812Y-65558188D01*
X147200000Y-65608188D02*
X147150000Y-65558188D01*
X147200000Y-67083188D02*
X147200000Y-65608188D01*
X147150000Y-64314656D02*
X147475006Y-63989650D01*
X147150000Y-65558188D02*
X147150000Y-64314656D01*
D38*
%TO.N,Net-(IC3-+IN)*%
X155505000Y-73675000D02*
X162198699Y-73675000D01*
X163398699Y-70850000D02*
X163398699Y-72475000D01*
X162198699Y-73675000D02*
X163348699Y-72525000D01*
X163398699Y-72475000D02*
X163348699Y-72525000D01*
X162949998Y-70401299D02*
X163398699Y-70850000D01*
X162949998Y-68441812D02*
X162949998Y-70401299D01*
%TO.N,Net-(IC5--IN)*%
X148825000Y-60808186D02*
X148274998Y-61358188D01*
X148825000Y-59808188D02*
X148825000Y-59733188D01*
X148775000Y-59683188D02*
X148775000Y-58283188D01*
X148825000Y-59733188D02*
X148775000Y-59683188D01*
X148775000Y-58283188D02*
X149925000Y-58283188D01*
X149925000Y-58283188D02*
X149950000Y-58258188D01*
X148825000Y-59808188D02*
X148825000Y-60808186D01*
D41*
%TO.N,ADC5_Out-*%
X139700001Y-60083188D02*
X139700001Y-58621791D01*
X141421792Y-56900000D02*
X141800000Y-56900000D01*
X140075001Y-61658188D02*
X140075001Y-60458188D01*
X140075001Y-60458188D02*
X139700001Y-60083188D01*
X139700001Y-58621791D02*
X141421792Y-56900000D01*
X139700001Y-58608188D02*
X139650001Y-58558188D01*
X139700001Y-60083188D02*
X139700001Y-58608188D01*
%TO.N,ADC5_Out+*%
X139825001Y-64539649D02*
X140075000Y-64289650D01*
X139825001Y-65858188D02*
X139825001Y-64539649D01*
X139775001Y-67383188D02*
X139775001Y-65908188D01*
X140741813Y-68350000D02*
X142100000Y-68350000D01*
X139775001Y-67383188D02*
X140741813Y-68350000D01*
X139775001Y-65908188D02*
X139825001Y-65858188D01*
D38*
%TO.N,Net-(IC5-+IN)*%
X148800000Y-64516814D02*
X148274998Y-63991812D01*
X148350000Y-69325000D02*
X148350000Y-67483188D01*
X148750000Y-65608188D02*
X148800000Y-65558188D01*
X148350000Y-67483188D02*
X148750000Y-67083188D01*
X148800000Y-65558188D02*
X148800000Y-64516814D01*
X148750000Y-67083188D02*
X148750000Y-65608188D01*
%TO.N,Net-(IC6--IN)*%
X141300001Y-58558188D02*
X141300001Y-57658188D01*
X141250001Y-58608188D02*
X141300001Y-58558188D01*
X140874999Y-61658188D02*
X140874999Y-60458190D01*
X141250001Y-60083188D02*
X141250001Y-58608188D01*
X140874999Y-60458190D02*
X141250001Y-60083188D01*
D41*
%TO.N,ADC6_Out-*%
X130908189Y-69951301D02*
X131583189Y-70626301D01*
X131633189Y-70576301D02*
X131583189Y-70626301D01*
X136125001Y-65950000D02*
X133048093Y-65950000D01*
X133133189Y-70576301D02*
X131633189Y-70576301D01*
X133048093Y-65950000D02*
X130908189Y-68089904D01*
X134708189Y-70476299D02*
X133233191Y-70476299D01*
X133233191Y-70476299D02*
X133133189Y-70576301D01*
X130908189Y-68089904D02*
X130908189Y-69951301D01*
D38*
%TO.N,Net-(IC6-+IN)*%
X145050000Y-69350000D02*
X143083188Y-67383188D01*
X141375001Y-65858188D02*
X141375001Y-67333188D01*
X141375001Y-67333188D02*
X141425001Y-67383188D01*
X141375001Y-65858188D02*
X141375001Y-64791814D01*
X141375001Y-64791814D02*
X140874999Y-64291812D01*
X143083188Y-67383188D02*
X141425001Y-67383188D01*
D41*
%TO.N,ADC6_Out+*%
X138658188Y-70476300D02*
X138933189Y-70751301D01*
X140458189Y-70801301D02*
X140458189Y-71066811D01*
X140458189Y-71066811D02*
X139750000Y-71775000D01*
X138933189Y-70751301D02*
X140408189Y-70751301D01*
X137339651Y-70476300D02*
X138658188Y-70476300D01*
X140408189Y-70751301D02*
X140458189Y-70801301D01*
D38*
%TO.N,Net-(IC4--IN)*%
X157085700Y-60450000D02*
X156275000Y-61260700D01*
X156325000Y-62810700D02*
X156325000Y-61310700D01*
X156325000Y-61310700D02*
X156275000Y-61260700D01*
X157350000Y-60450000D02*
X157085700Y-60450000D01*
X155774999Y-63360701D02*
X156325000Y-62810700D01*
X155774999Y-64408188D02*
X155774999Y-63360701D01*
D41*
%TO.N,ADC1_Out-*%
X161691811Y-81100000D02*
X162900000Y-81100000D01*
X168925000Y-75075000D02*
X168925000Y-60905575D01*
X161099999Y-81116812D02*
X161674999Y-81116812D01*
X161450000Y-84150000D02*
X161400000Y-84200000D01*
X161450000Y-82700000D02*
X161450000Y-84150000D01*
X161099999Y-82349999D02*
X161450000Y-82700000D01*
X161674999Y-81116812D02*
X161691811Y-81100000D01*
X168925000Y-60905575D02*
X162468777Y-54449352D01*
X161099999Y-81116812D02*
X161099999Y-82349999D01*
X162900000Y-81100000D02*
X168925000Y-75075000D01*
D38*
%TO.N,Net-(IC4-+IN)*%
X156300001Y-70260701D02*
X156250000Y-70210700D01*
X156300000Y-68660700D02*
X156300000Y-68710700D01*
X155774999Y-68135699D02*
X156300000Y-68660700D01*
X156300000Y-68710700D02*
X156250000Y-68760700D01*
X156300001Y-71850001D02*
X156300001Y-70260701D01*
X156250000Y-68760700D02*
X156250000Y-70210700D01*
X155774999Y-67041812D02*
X155774999Y-68135699D01*
D41*
%TO.N,ADC1_Out+*%
X161100000Y-78485350D02*
X161100000Y-77350000D01*
X161874999Y-54674999D02*
X161874999Y-54262658D01*
X161100000Y-77350000D02*
X161550000Y-76900000D01*
X161100000Y-78485350D02*
X161285350Y-78300000D01*
X161285350Y-78300000D02*
X165037868Y-78300000D01*
X165037868Y-78300000D02*
X168475000Y-74862868D01*
X161550000Y-76900000D02*
X161550000Y-75450000D01*
X161874999Y-54262658D02*
X162437657Y-53700000D01*
X168475000Y-74862868D02*
X168475000Y-61275000D01*
X161550000Y-75450000D02*
X161500000Y-75400000D01*
X168475000Y-61275000D02*
X161874999Y-54674999D01*
%TO.N,ADC7_Out-*%
X125109444Y-76199999D02*
X125109444Y-74738602D01*
X127759445Y-76474998D02*
X127309444Y-76924999D01*
X128881932Y-76474998D02*
X127759445Y-76474998D01*
X125109444Y-74738602D02*
X128248046Y-71600000D01*
X125834444Y-76924999D02*
X125784444Y-76874999D01*
X127309444Y-76924999D02*
X125834444Y-76924999D01*
X125784444Y-76874999D02*
X125109444Y-76199999D01*
X128248046Y-71600000D02*
X129225000Y-71600000D01*
D38*
%TO.N,Net-(IC7--IN)*%
X133133189Y-69026301D02*
X131633189Y-69026301D01*
X131633189Y-69026301D02*
X131583189Y-68976301D01*
X133783189Y-69676301D02*
X133133189Y-69026301D01*
X134708189Y-69676301D02*
X133783189Y-69676301D01*
X131583189Y-68976301D02*
X132283189Y-68276301D01*
D41*
%TO.N,ADC7_Out+*%
X132784444Y-76474999D02*
X133084444Y-76774999D01*
X134609444Y-76724999D02*
X135200001Y-76724999D01*
X134649444Y-76649999D02*
X134699444Y-76599999D01*
X134559444Y-76774999D02*
X134609444Y-76724999D01*
X132934444Y-76474999D02*
X133109444Y-76649999D01*
X135200001Y-76724999D02*
X135875000Y-76050000D01*
X133084444Y-76774999D02*
X134559444Y-76774999D01*
X131513394Y-76474999D02*
X132784444Y-76474999D01*
D38*
%TO.N,Net-(IC7-+IN)*%
X137341813Y-69676301D02*
X138458189Y-69676301D01*
X143500000Y-69350000D02*
X140656888Y-69350000D01*
X138458189Y-69676301D02*
X138933189Y-69201301D01*
X140458189Y-69151301D02*
X138983189Y-69151301D01*
X138983189Y-69151301D02*
X138933189Y-69201301D01*
X140656888Y-69350000D02*
X140458189Y-69151301D01*
%TO.N,Net-(IC8--IN)*%
X127309444Y-75274999D02*
X125834444Y-75274999D01*
X125784444Y-75324999D02*
X126584444Y-76124999D01*
X125834444Y-75274999D02*
X125784444Y-75324999D01*
X128881932Y-75675000D02*
X127709445Y-75675000D01*
X127709445Y-75675000D02*
X127309444Y-75274999D01*
D41*
%TO.N,ADC8_Out-*%
X124300000Y-82435700D02*
X125639300Y-83775000D01*
X127419301Y-83474999D02*
X127169300Y-83725000D01*
X125689300Y-83725000D02*
X125639300Y-83775000D01*
X127169300Y-83725000D02*
X125689300Y-83725000D01*
X128747488Y-83474999D02*
X127419301Y-83474999D01*
X124300000Y-77625000D02*
X124300000Y-82435700D01*
%TO.N,ADC8_Out+*%
X133014300Y-83825000D02*
X132964300Y-83775000D01*
X135164300Y-78989300D02*
X134975000Y-78800000D01*
X135164300Y-83150000D02*
X135164300Y-78989300D01*
X131678950Y-83775000D02*
X131378950Y-83475000D01*
X134489300Y-83825000D02*
X133014300Y-83825000D01*
X134489300Y-83825000D02*
X135164300Y-83150000D01*
X132964300Y-83775000D02*
X131678950Y-83775000D01*
D38*
%TO.N,Net-(IC8-+IN)*%
X134649444Y-74999999D02*
X134699444Y-75049999D01*
X132434443Y-75675000D02*
X133109444Y-74999999D01*
X131515556Y-75675000D02*
X132434443Y-75675000D01*
X134609444Y-75174999D02*
X133134444Y-75174999D01*
X133134444Y-75174999D02*
X133084444Y-75124999D01*
X134609444Y-75174999D02*
X136250001Y-75174999D01*
X136250001Y-75174999D02*
X137075000Y-74350000D01*
%TO.N,SPIclk*%
X166675000Y-71050000D02*
X166403921Y-70778921D01*
X154700000Y-75275000D02*
X155475000Y-74500000D01*
X155475000Y-74500000D02*
X162682843Y-74500000D01*
X152373529Y-80775000D02*
X154700000Y-78448529D01*
X154700000Y-78448529D02*
X154700000Y-75275000D01*
X166403921Y-70778921D02*
X167050000Y-70132843D01*
X166675000Y-74450000D02*
X166675000Y-71050000D01*
X162682843Y-74500000D02*
X166403921Y-70778921D01*
X151450000Y-80775000D02*
X152373529Y-80775000D01*
X167050000Y-70132843D02*
X167050000Y-63667158D01*
X167050000Y-63667158D02*
X159082842Y-55700000D01*
X159082842Y-55700000D02*
X158200000Y-55700000D01*
%TO.N,POCI*%
X152525000Y-79775000D02*
X152600000Y-79700000D01*
X151450000Y-79775000D02*
X152525000Y-79775000D01*
%TO.N,Disc_Thresh6*%
X136275000Y-49975000D02*
X133575000Y-47275000D01*
X136275000Y-54725000D02*
X136275000Y-49975000D01*
%TO.N,Disc_Thresh1*%
X154525000Y-81600000D02*
X155600000Y-81600000D01*
%TO.N,READBIAS1*%
X161837661Y-49787339D02*
X161837661Y-46962661D01*
X151100000Y-58675000D02*
X151475000Y-58300000D01*
X153325000Y-58300000D02*
X161837661Y-49787339D01*
X151475000Y-58300000D02*
X153325000Y-58300000D01*
%TO.N,PSEC5_CLK_OUT*%
X143725000Y-60992502D02*
X143725000Y-66265686D01*
X142750000Y-70774484D02*
X142750000Y-72700000D01*
X135750000Y-104175000D02*
X139225000Y-100700000D01*
X144925516Y-70450000D02*
X143074484Y-70450000D01*
X150525000Y-47850000D02*
X150525000Y-52215686D01*
X150525000Y-52215686D02*
X144275000Y-58465686D01*
X141175000Y-78775000D02*
X136625000Y-78775000D01*
X135625000Y-79775000D02*
X135625000Y-85225000D01*
X145675000Y-69700516D02*
X144925516Y-70450000D01*
X143725000Y-66265686D02*
X145675000Y-68215686D01*
X144275000Y-60442502D02*
X143725000Y-60992502D01*
X136625000Y-78775000D02*
X135625000Y-79775000D01*
X139250000Y-100675000D02*
X142930000Y-100675000D01*
X142930000Y-100675000D02*
X142980000Y-100625000D01*
X145675000Y-68215686D02*
X145675000Y-69700516D01*
X144275000Y-58465686D02*
X144275000Y-60442502D01*
X141950000Y-78775000D02*
X141175000Y-78775000D01*
X143074484Y-70450000D02*
X142750000Y-70774484D01*
%TO.N,PICO*%
X151050000Y-56375000D02*
X151275000Y-56600000D01*
X152025000Y-79275000D02*
X152200000Y-79100000D01*
X151450000Y-79275000D02*
X152025000Y-79275000D01*
X151275000Y-56600000D02*
X153075000Y-56600000D01*
%TO.N,Disc_Thresh8*%
X130450000Y-59525000D02*
X130975000Y-60050000D01*
X130450000Y-47650000D02*
X130450000Y-59525000D01*
%TO.N,READBIAS2*%
X155025000Y-57250000D02*
X155025000Y-57225000D01*
X162825000Y-47100000D02*
X162800000Y-47075000D01*
X162825000Y-49425000D02*
X162825000Y-47100000D01*
X155025000Y-57225000D02*
X162825000Y-49425000D01*
%TO.N,TRIGGEROUT*%
X137950000Y-56025000D02*
X136375000Y-57600000D01*
X140800000Y-79675000D02*
X140900000Y-79775000D01*
X136375000Y-57600000D02*
X133800000Y-57600000D01*
X140900000Y-79775000D02*
X141950000Y-79775000D01*
%TO.N,Net-(C97-Pad1)*%
X142800000Y-90875000D02*
X143425000Y-91500000D01*
X143425000Y-88400000D02*
X142800000Y-89025000D01*
X143425000Y-86975000D02*
X143425000Y-88400000D01*
X142800000Y-89025000D02*
X142800000Y-90875000D01*
%TO.N,CLK_OUT*%
X146575000Y-105100000D02*
X146575000Y-105075000D01*
X136925000Y-105550000D02*
X140780000Y-101695000D01*
X149929400Y-105800000D02*
X150904400Y-104825000D01*
X143775000Y-101695000D02*
X145270000Y-101695000D01*
X136925000Y-109265422D02*
X136925000Y-105550000D01*
X140780000Y-101695000D02*
X143775000Y-101695000D01*
X137417339Y-109757761D02*
X136925000Y-109265422D01*
X146575000Y-105100000D02*
X147275000Y-105800000D01*
X147275000Y-105800000D02*
X149929400Y-105800000D01*
%TO.N,TRIGGERIN*%
X141775000Y-80100000D02*
X136525000Y-80100000D01*
X141950000Y-80275000D02*
X141775000Y-80100000D01*
X136525000Y-80100000D02*
X136125000Y-80500000D01*
%TO.N,rst*%
X154500000Y-75150000D02*
X155350000Y-74300000D01*
X159200000Y-56100000D02*
X157450000Y-56100000D01*
X162112500Y-59012500D02*
X159200000Y-56100000D01*
X152590686Y-80275000D02*
X154500000Y-78365686D01*
X155350000Y-74300000D02*
X162600000Y-74300000D01*
X166850000Y-70050000D02*
X166850000Y-63750000D01*
X160925000Y-59850000D02*
X161762500Y-59012500D01*
X161762500Y-59012500D02*
X162112500Y-59012500D01*
X162600000Y-74300000D02*
X166850000Y-70050000D01*
X151450000Y-80275000D02*
X152590686Y-80275000D01*
X154500000Y-78365686D02*
X154500000Y-75150000D01*
X166850000Y-63750000D02*
X162112500Y-59012500D01*
%TO.N,ReadClk*%
X135900000Y-60925000D02*
X133350000Y-60925000D01*
X140025000Y-79300000D02*
X140050000Y-79275000D01*
X140050000Y-79275000D02*
X141950000Y-79275000D01*
X137200000Y-59625000D02*
X135900000Y-60925000D01*
%TO.N,Disc_Thresh7*%
X135625000Y-50450000D02*
X135625000Y-56600000D01*
X132525000Y-47350000D02*
X135625000Y-50450000D01*
X132025000Y-47350000D02*
X132525000Y-47350000D01*
%TO.N,Net-(C98-Pad1)*%
X141625000Y-87000000D02*
X141625000Y-88425000D01*
X141625000Y-88425000D02*
X141000000Y-89050000D01*
X141000000Y-90950000D02*
X141625000Y-91575000D01*
X141000000Y-89050000D02*
X141000000Y-90950000D01*
D39*
%TO.N,Net-(J3-In)*%
X173675000Y-78800000D02*
X177525000Y-74950000D01*
X177525000Y-74950000D02*
X179700000Y-74950000D01*
%TO.N,Net-(J4-In)*%
X177650000Y-86600000D02*
X179700000Y-86600000D01*
D38*
X172200000Y-92525000D02*
X172200000Y-92050000D01*
D39*
X172200000Y-92050000D02*
X177650000Y-86600000D01*
D40*
%TO.N,Net-(J5-In)*%
X175890000Y-98690000D02*
X179700000Y-98690000D01*
X173725000Y-96525000D02*
X175890000Y-98690000D01*
%TO.N,Net-(J6-In)*%
X174375000Y-111975000D02*
X176075000Y-110275000D01*
X179555000Y-110675000D02*
X179695000Y-110815000D01*
X176075000Y-110275000D02*
X179695000Y-110275000D01*
X174375000Y-111975000D02*
X174375000Y-111875000D01*
%TO.N,Net-(J7-In)*%
X125950000Y-108550000D02*
X124010000Y-110490000D01*
X124010000Y-110490000D02*
X120350000Y-110490000D01*
%TO.N,Net-(J8-In)*%
X125625000Y-102200000D02*
X122115000Y-98690000D01*
X122115000Y-98690000D02*
X119975000Y-98690000D01*
%TO.N,Net-(J10-In)*%
X125600000Y-85000000D02*
X119975000Y-79375000D01*
X119975000Y-79375000D02*
X119975000Y-74950000D01*
X125600000Y-88425000D02*
X125600000Y-85000000D01*
D38*
%TO.N,Net-(C100-Pad1)*%
X139825000Y-87000000D02*
X139825000Y-88425000D01*
X139825000Y-88425000D02*
X139200000Y-89050000D01*
X139200000Y-90900000D02*
X139825000Y-91525000D01*
X139200000Y-89050000D02*
X139200000Y-90900000D01*
%TO.N,Net-(IC9--IN)*%
X125639300Y-82125000D02*
X126264300Y-81500000D01*
X127669301Y-82675001D02*
X127169300Y-82175000D01*
X126264300Y-81500000D02*
X126439300Y-81500000D01*
X125689300Y-82175000D02*
X125639300Y-82125000D01*
X128747488Y-82675001D02*
X127669301Y-82675001D01*
X127169300Y-82175000D02*
X125689300Y-82175000D01*
%TO.N,V_ped8*%
X139825000Y-93275000D02*
X139075000Y-94025000D01*
X139075000Y-94025000D02*
X139075000Y-94200000D01*
%TO.N,ADC_SDI*%
X155625000Y-107221000D02*
X155625000Y-107500000D01*
X155625000Y-110075000D02*
X155750000Y-109950000D01*
X156779400Y-106399998D02*
X156446002Y-106399998D01*
X155225000Y-107900000D02*
X155625000Y-107500000D01*
X155175000Y-107900000D02*
X155225000Y-107900000D01*
X155750000Y-109950000D02*
X161500000Y-109950000D01*
X155625000Y-107500000D02*
X155625000Y-110075000D01*
X156446002Y-106399998D02*
X155625000Y-107221000D01*
%TO.N,V_ped1*%
X152650000Y-93300000D02*
X152650000Y-95175000D01*
X152650000Y-95175000D02*
X152414456Y-95410544D01*
%TO.N,Net-(IC9-+IN)*%
X132964300Y-82225000D02*
X131831113Y-82225000D01*
X134489300Y-78335700D02*
X134489300Y-82175000D01*
X137125000Y-75925000D02*
X136900000Y-75925000D01*
X134489300Y-82175000D02*
X133014300Y-82175000D01*
X131831113Y-82225000D02*
X131381112Y-82675001D01*
X133014300Y-82175000D02*
X132964300Y-82225000D01*
X136900000Y-75925000D02*
X134489300Y-78335700D01*
%TO.N,Net-(IC9-VOCM)*%
X129564301Y-81425000D02*
X129564301Y-80925001D01*
X130714300Y-80650000D02*
X129289300Y-80650000D01*
X129564301Y-81425000D02*
X130041498Y-81425000D01*
X129564301Y-82198700D02*
X129564301Y-81425000D01*
X130041498Y-81425000D02*
X130075000Y-81391498D01*
X129564301Y-80925001D02*
X129289300Y-80650000D01*
%TO.N,Net-(IC1-~{D})*%
X151650000Y-101950000D02*
X151650000Y-102125000D01*
X152675000Y-100475000D02*
X151650000Y-101500000D01*
X154325000Y-99400000D02*
X153200000Y-99400000D01*
X148725000Y-100425000D02*
X150125000Y-100425000D01*
X151650000Y-101500000D02*
X151650000Y-101950000D01*
X160125000Y-98375000D02*
X160075000Y-98425000D01*
X160975000Y-98375000D02*
X160125000Y-98375000D01*
X152675000Y-99925000D02*
X152675000Y-100475000D01*
X150125000Y-100425000D02*
X151650000Y-101950000D01*
X153200000Y-99400000D02*
X152675000Y-99925000D01*
%TO.N,Net-(IC1-~{U})*%
X154350000Y-97725000D02*
X155125000Y-98500000D01*
X148725000Y-102965000D02*
X147750001Y-102965000D01*
X146825000Y-99651580D02*
X148751580Y-97725000D01*
X148751580Y-97725000D02*
X154350000Y-97725000D01*
X155125000Y-98500000D02*
X155125000Y-100250000D01*
X155125000Y-100250000D02*
X155100000Y-100275000D01*
X147750001Y-102965000D02*
X146825000Y-102039999D01*
X146825000Y-102039999D02*
X146825000Y-99651580D01*
%TO.N,V_ped6*%
X143425000Y-93250000D02*
X143425000Y-95150000D01*
X143425000Y-95150000D02*
X143400000Y-95175000D01*
%TO.N,VDD18*%
X160875002Y-106399998D02*
X161150000Y-106125000D01*
X156779400Y-106900000D02*
X157879400Y-108000000D01*
X159675000Y-106399998D02*
X160875002Y-106399998D01*
X157879400Y-108000000D02*
X160975000Y-108000000D01*
%TO.N,ADC_SDO*%
X156550000Y-114000000D02*
X156550000Y-114100000D01*
X153925000Y-107920999D02*
X153925000Y-109725000D01*
X153925000Y-109725000D02*
X153925000Y-111375000D01*
X156779400Y-105400000D02*
X156445999Y-105400000D01*
X153925000Y-111375000D02*
X156550000Y-114000000D01*
X156445999Y-105400000D02*
X153925000Y-107920999D01*
%TO.N,VDD25*%
X144450000Y-73950000D02*
X144450000Y-73775000D01*
X151450000Y-74775000D02*
X150775000Y-74775000D01*
X142600000Y-79300000D02*
X142600000Y-78575000D01*
X142600000Y-78575000D02*
X142300000Y-78275000D01*
X162254400Y-108529400D02*
X162254400Y-106775000D01*
X153817500Y-106857500D02*
X153850000Y-106825000D01*
X150950000Y-74450000D02*
X150700000Y-74700000D01*
X162254400Y-106775000D02*
X159800000Y-106775000D01*
X142600000Y-80475000D02*
X142600000Y-79300000D01*
X152554400Y-106925000D02*
X153750000Y-106925000D01*
X163150000Y-109900000D02*
X163150000Y-109425000D01*
X153817500Y-106857500D02*
X153817500Y-107016811D01*
X143450000Y-74125000D02*
X143725000Y-74400000D01*
X150854400Y-106975000D02*
X150904400Y-106925000D01*
X164849034Y-102350001D02*
X164849034Y-103624034D01*
X150904400Y-106925000D02*
X152554400Y-106925000D01*
X164650000Y-104150000D02*
X164075000Y-104725000D01*
X159800000Y-106775000D02*
X159675000Y-106900000D01*
X165125000Y-104150000D02*
X164650000Y-104150000D01*
X152000000Y-78320000D02*
X151955000Y-78275000D01*
X150950000Y-73775000D02*
X150950000Y-74450000D01*
X143450000Y-73775000D02*
X143450000Y-74125000D01*
X150700000Y-81275000D02*
X151450000Y-81275000D01*
X163150000Y-109425000D02*
X162254400Y-108529400D01*
X143725000Y-74400000D02*
X144000000Y-74400000D01*
X153750000Y-106925000D02*
X153817500Y-106857500D01*
X144000000Y-74400000D02*
X144450000Y-73950000D01*
X150775000Y-74775000D02*
X150700000Y-74700000D01*
X149254400Y-106975000D02*
X150854400Y-106975000D01*
X151955000Y-78275000D02*
X151450000Y-78275000D01*
X142300000Y-78275000D02*
X141950000Y-78275000D01*
X142300000Y-80775000D02*
X142600000Y-80475000D01*
X150675000Y-81300000D02*
X150700000Y-81275000D01*
X164849034Y-103624034D02*
X165375000Y-104150000D01*
X141950000Y-80775000D02*
X142300000Y-80775000D01*
%TO.N,ADC_CNV*%
X156500000Y-104899998D02*
X152375000Y-109024998D01*
X152325000Y-109850000D02*
X152325000Y-113475000D01*
X152375000Y-109800000D02*
X152325000Y-109850000D01*
X152375000Y-109024998D02*
X152375000Y-109800000D01*
X156779400Y-104899998D02*
X156500000Y-104899998D01*
%TO.N,V_ped3*%
X149000000Y-93300000D02*
X149000000Y-95050000D01*
X149000000Y-95050000D02*
X149025000Y-95075000D01*
%TO.N,V_ped5*%
X144875000Y-94025000D02*
X144875000Y-95175000D01*
X145600000Y-93300000D02*
X144875000Y-94025000D01*
%TO.N,ADC_SCK*%
X156500000Y-105899999D02*
X156779400Y-105899999D01*
X154750000Y-107649999D02*
X156500000Y-105899999D01*
X154750000Y-110300000D02*
X155400000Y-110950000D01*
X157650000Y-110950000D02*
X160425000Y-113725000D01*
X154750000Y-110300000D02*
X154750000Y-107649999D01*
X155400000Y-110950000D02*
X157650000Y-110950000D01*
%TO.N,VDD*%
X146950000Y-73775000D02*
X146950000Y-72955000D01*
X146450000Y-73775000D02*
X146450000Y-73950000D01*
X147450000Y-73775000D02*
X147450000Y-73950000D01*
X146825000Y-72830000D02*
X146055000Y-72830000D01*
X150725000Y-77775000D02*
X150700000Y-77800000D01*
X146900000Y-73825000D02*
X146950000Y-73775000D01*
X144450000Y-82950000D02*
X145000000Y-82400000D01*
X141975000Y-77300000D02*
X141950000Y-77275000D01*
X142950000Y-82550000D02*
X143200000Y-82300000D01*
X151225000Y-81775000D02*
X150600000Y-82400000D01*
X151450000Y-77775000D02*
X150725000Y-77775000D01*
X146450000Y-73205000D02*
X146825000Y-72830000D01*
X146450000Y-73775000D02*
X146450000Y-73205000D01*
X143175000Y-82275000D02*
X143200000Y-82300000D01*
X146055000Y-72830000D02*
X146000000Y-72775000D01*
X145450000Y-82850000D02*
X145000000Y-82400000D01*
X141950000Y-82275000D02*
X143175000Y-82275000D01*
X150450000Y-83275000D02*
X150450000Y-82550000D01*
X144450000Y-83275000D02*
X144450000Y-82950000D01*
X146350000Y-75975000D02*
X146350000Y-75275000D01*
X151450000Y-81775000D02*
X151225000Y-81775000D01*
X143450000Y-83275000D02*
X143450000Y-82550000D01*
X149000000Y-82500000D02*
X148450000Y-83050000D01*
X147450000Y-82550000D02*
X147500000Y-82500000D01*
X151450000Y-82775000D02*
X150975000Y-82775000D01*
X149450000Y-82950000D02*
X149450000Y-83275000D01*
X145450000Y-83275000D02*
X145450000Y-82850000D01*
X142600000Y-77300000D02*
X141975000Y-77300000D01*
X149000000Y-82500000D02*
X149450000Y-82950000D01*
X143450000Y-82550000D02*
X143200000Y-82300000D01*
X142950000Y-83275000D02*
X142950000Y-82550000D01*
X148450000Y-83050000D02*
X148450000Y-83275000D01*
X146350000Y-75275000D02*
X147450000Y-74175000D01*
X147450000Y-74175000D02*
X147450000Y-73775000D01*
X146950000Y-72955000D02*
X146825000Y-72830000D01*
X150450000Y-82550000D02*
X150600000Y-82400000D01*
X147450000Y-83275000D02*
X147450000Y-82550000D01*
X150975000Y-82775000D02*
X150600000Y-82400000D01*
%TO.N,V_ped4*%
X147400000Y-93300000D02*
X147400000Y-95075000D01*
X147400000Y-95075000D02*
X147425000Y-95100000D01*
%TO.N,V_ped2*%
X150500001Y-93554141D02*
X150500001Y-94800001D01*
X150752071Y-93302071D02*
X150500001Y-93554141D01*
X150500001Y-94800001D02*
X150777071Y-95077071D01*
%TO.N,V_ped7*%
X141625000Y-94250000D02*
X141625000Y-93325000D01*
X141325000Y-94550000D02*
X141625000Y-94250000D01*
%TO.N,Net-(IC4-VOCM)*%
X157875000Y-63510700D02*
X158975000Y-63510700D01*
X156808500Y-65225001D02*
X157875000Y-66291501D01*
X156251300Y-65225001D02*
X156808500Y-65225001D01*
X157875000Y-66291501D02*
X157875000Y-66485700D01*
X157875000Y-63510700D02*
X157875000Y-63601301D01*
X157875000Y-63601301D02*
X156251300Y-65225001D01*
%TO.N,/ADC_Buffer/ADC2_In*%
X153255000Y-74275000D02*
X153855000Y-73675000D01*
X151450000Y-74275000D02*
X153255000Y-74275000D01*
%TO.N,/ADC_Buffer/ADC3_In*%
X149950000Y-73575000D02*
X150450000Y-73075000D01*
X149950000Y-73775000D02*
X149950000Y-73575000D01*
X150450000Y-73075000D02*
X151425000Y-73075000D01*
X151425000Y-73075000D02*
X152649999Y-71850001D01*
X152649999Y-71850001D02*
X154650001Y-71850001D01*
%TO.N,/ADC_Buffer2/ADC4_In*%
X147950000Y-71375000D02*
X148350000Y-70975000D01*
X147950000Y-73775000D02*
X147950000Y-71375000D01*
%TO.N,/ADC_Buffer/ADC1_In*%
X153625000Y-75275000D02*
X153900000Y-75550000D01*
X151450000Y-75275000D02*
X153625000Y-75275000D01*
%TO.N,/ADC_Buffer2/ADC5_In*%
X145450000Y-71400000D02*
X145450000Y-73775000D01*
X145050000Y-71000000D02*
X145450000Y-71400000D01*
%TO.N,/ADC_Buffer3/ADC6_In*%
X143500000Y-71000000D02*
X143512500Y-71012500D01*
X143950000Y-71450000D02*
X143500000Y-71000000D01*
X143950000Y-73775000D02*
X143950000Y-71450000D01*
%TO.N,/ADC_Buffer3/ADC7_In*%
X139700000Y-73375000D02*
X138725000Y-74350000D01*
X142900000Y-73375000D02*
X139700000Y-73375000D01*
X142950000Y-73425000D02*
X142900000Y-73375000D01*
X142950000Y-73775000D02*
X142950000Y-73425000D01*
%TO.N,/ADC_Buffer3/ADC8_In*%
X141950000Y-74275000D02*
X140425000Y-74275000D01*
X140425000Y-74275000D02*
X138775000Y-75925000D01*
%TO.N,DAC_V_OUT*%
X153750000Y-94375000D02*
X153975000Y-94600000D01*
X153975000Y-94600000D02*
X156125000Y-94600000D01*
%TO.N,Net-(IC2-VOCM)*%
X156900000Y-80625000D02*
X157425000Y-80100000D01*
X158350000Y-80575000D02*
X158625001Y-80299999D01*
X157900000Y-80575000D02*
X157425000Y-80100000D01*
X156425000Y-80625000D02*
X156900000Y-80625000D01*
X158225000Y-80575000D02*
X157900000Y-80575000D01*
X158225000Y-80575000D02*
X158350000Y-80575000D01*
X158625001Y-80299999D02*
X159823700Y-80299999D01*
%TO.N,Net-(IC3-VOCM)*%
X163426299Y-66223701D02*
X164950000Y-64700000D01*
X163426299Y-66625001D02*
X163900001Y-66625001D01*
X164950000Y-64700000D02*
X165950000Y-64700000D01*
X163426299Y-66625001D02*
X163426299Y-66223701D01*
X163900001Y-66625001D02*
X164950000Y-67675000D01*
%TO.N,Net-(IC5-VOCM)*%
X149308499Y-62175001D02*
X148751299Y-62175001D01*
X149320843Y-62187345D02*
X149308499Y-62175001D01*
X151000000Y-60325000D02*
X150475000Y-60850000D01*
X149395843Y-62187345D02*
X150475000Y-61108188D01*
X150475000Y-60850000D02*
X150475000Y-61108188D01*
X149358499Y-62966687D02*
X149358499Y-62225001D01*
X149358499Y-62225001D02*
X149320843Y-62187345D01*
X150475000Y-64083188D02*
X149358499Y-62966687D01*
X149320843Y-62187345D02*
X149395843Y-62187345D01*
%TO.N,Net-(IC6-VOCM)*%
X142900001Y-62133188D02*
X142900001Y-63583188D01*
X142175001Y-62475001D02*
X142558188Y-62475001D01*
X141351300Y-62475001D02*
X142175001Y-62475001D01*
X142175001Y-62475001D02*
X142175001Y-62183188D01*
X142558188Y-62475001D02*
X142900001Y-62133188D01*
X142175001Y-62183188D02*
X141900001Y-61908188D01*
%TO.N,Net-(IC7-VOCM)*%
X135525002Y-68226301D02*
X135525002Y-67643114D01*
X135525002Y-67643114D02*
X135258189Y-67376301D01*
X135525002Y-68226301D02*
X134783189Y-68226301D01*
X134783189Y-68226301D02*
X134483189Y-68526301D01*
X137483189Y-68226301D02*
X138333189Y-67376301D01*
X135525002Y-68226301D02*
X137483189Y-68226301D01*
X135525002Y-69200000D02*
X135525002Y-68226301D01*
%TO.N,Net-(IC8-VOCM)*%
X129408144Y-75198699D02*
X128734444Y-74524999D01*
X129698745Y-75198699D02*
X129408144Y-75198699D01*
X129698745Y-74189300D02*
X129059444Y-73549999D01*
X129059444Y-73549999D02*
X130484444Y-73549999D01*
X129698745Y-75198699D02*
X129698745Y-74189300D01*
%TO.N,Net-(U4-IN-)*%
X155900000Y-101075000D02*
X161800000Y-101075000D01*
X162875000Y-101600000D02*
X162600000Y-101875000D01*
X163575000Y-101600000D02*
X162875000Y-101600000D01*
X155100000Y-101875000D02*
X155900000Y-101075000D01*
X161800000Y-101075000D02*
X162600000Y-101875000D01*
X164725001Y-100449999D02*
X163575000Y-101600000D01*
X164849034Y-100449999D02*
X164725001Y-100449999D01*
%TO.N,Net-(U4-IN+)*%
X167150000Y-100449999D02*
X166693934Y-99993933D01*
X162950516Y-100850000D02*
X161575000Y-100850000D01*
X160550000Y-100225000D02*
X158875000Y-98550000D01*
X163806583Y-99993933D02*
X162950516Y-100850000D01*
X166693934Y-99993933D02*
X163806583Y-99993933D01*
X161575000Y-100850000D02*
X160950000Y-100225000D01*
X160950000Y-100225000D02*
X160550000Y-100225000D01*
%TO.N,Net-(U1-VCOCTRL)*%
X145950000Y-73775000D02*
X145950000Y-76000000D01*
X145950000Y-76000000D02*
X145600000Y-76350000D01*
%TD*%
M02*
