%TF.GenerationSoftware,KiCad,Pcbnew,8.0.5*%
%TF.CreationDate,2025-04-03T13:44:51-05:00*%
%TF.ProjectId,PSEC5_Board,50534543-355f-4426-9f61-72642e6b6963,rev?*%
%TF.SameCoordinates,Original*%
%TF.FileFunction,Soldermask,Top*%
%TF.FilePolarity,Negative*%
%FSLAX46Y46*%
G04 Gerber Fmt 4.6, Leading zero omitted, Abs format (unit mm)*
G04 Created by KiCad (PCBNEW 8.0.5) date 2025-04-03 13:44:51*
%MOMM*%
%LPD*%
G01*
G04 APERTURE LIST*
G04 Aperture macros list*
%AMRoundRect*
0 Rectangle with rounded corners*
0 $1 Rounding radius*
0 $2 $3 $4 $5 $6 $7 $8 $9 X,Y pos of 4 corners*
0 Add a 4 corners polygon primitive as box body*
4,1,4,$2,$3,$4,$5,$6,$7,$8,$9,$2,$3,0*
0 Add four circle primitives for the rounded corners*
1,1,$1+$1,$2,$3*
1,1,$1+$1,$4,$5*
1,1,$1+$1,$6,$7*
1,1,$1+$1,$8,$9*
0 Add four rect primitives between the rounded corners*
20,1,$1+$1,$2,$3,$4,$5,0*
20,1,$1+$1,$4,$5,$6,$7,0*
20,1,$1+$1,$6,$7,$8,$9,0*
20,1,$1+$1,$8,$9,$2,$3,0*%
G04 Aperture macros list end*
%ADD10RoundRect,0.225000X-0.250000X0.225000X-0.250000X-0.225000X0.250000X-0.225000X0.250000X0.225000X0*%
%ADD11RoundRect,0.225000X-0.225000X-0.250000X0.225000X-0.250000X0.225000X0.250000X-0.225000X0.250000X0*%
%ADD12R,1.000000X1.000000*%
%ADD13RoundRect,0.225000X0.225000X0.250000X-0.225000X0.250000X-0.225000X-0.250000X0.225000X-0.250000X0*%
%ADD14RoundRect,0.200000X-0.275000X0.200000X-0.275000X-0.200000X0.275000X-0.200000X0.275000X0.200000X0*%
%ADD15RoundRect,0.200000X-0.200000X-0.275000X0.200000X-0.275000X0.200000X0.275000X-0.200000X0.275000X0*%
%ADD16RoundRect,0.200000X0.275000X-0.200000X0.275000X0.200000X-0.275000X0.200000X-0.275000X-0.200000X0*%
%ADD17RoundRect,0.200000X0.200000X0.275000X-0.200000X0.275000X-0.200000X-0.275000X0.200000X-0.275000X0*%
%ADD18R,1.805236X0.612132*%
%ADD19R,0.300000X1.009300*%
%ADD20R,0.299974X1.004824*%
%ADD21R,0.914400X0.304800*%
%ADD22R,0.349758X0.999998*%
%ADD23C,1.440000*%
%ADD24C,2.250000*%
%ADD25RoundRect,0.237500X-0.237500X0.287500X-0.237500X-0.287500X0.237500X-0.287500X0.237500X0.287500X0*%
%ADD26R,1.009300X0.300000*%
%ADD27R,1.004824X0.299974*%
%ADD28R,0.304800X0.914400*%
%ADD29R,0.999998X0.349758*%
%ADD30C,2.200000*%
%ADD31RoundRect,0.225000X0.250000X-0.225000X0.250000X0.225000X-0.250000X0.225000X-0.250000X-0.225000X0*%
%ADD32RoundRect,0.102000X0.500000X0.600000X-0.500000X0.600000X-0.500000X-0.600000X0.500000X-0.600000X0*%
%ADD33R,0.500000X0.300000*%
%ADD34R,0.300000X0.500000*%
%ADD35RoundRect,0.150000X0.825000X0.150000X-0.825000X0.150000X-0.825000X-0.150000X0.825000X-0.150000X0*%
%ADD36R,0.812800X0.254000*%
%ADD37R,1.752600X2.489200*%
%ADD38C,1.020000*%
G04 APERTURE END LIST*
D10*
%TO.C,C116*%
X132964300Y-82225000D03*
X132964300Y-83775000D03*
%TD*%
D11*
%TO.C,C121*%
X127714300Y-85475000D03*
X129264300Y-85475000D03*
%TD*%
D12*
%TO.C,READCLK*%
X133350000Y-60925000D03*
%TD*%
D13*
%TO.C,C35*%
X166675000Y-104150000D03*
X165125000Y-104150000D03*
%TD*%
D14*
%TO.C,R33*%
X164950000Y-67675000D03*
X164950000Y-69325000D03*
%TD*%
D10*
%TO.C,C90*%
X150752071Y-88427071D03*
X150752071Y-89977071D03*
%TD*%
D15*
%TO.C,R24*%
X159800000Y-82700000D03*
X161450000Y-82700000D03*
%TD*%
D16*
%TO.C,R57*%
X147400000Y-86950000D03*
X147400000Y-85300000D03*
%TD*%
D17*
%TO.C,R30*%
X161550000Y-76900000D03*
X159900000Y-76900000D03*
%TD*%
D18*
%TO.C,U4*%
X167150000Y-102350001D03*
X167150000Y-101400000D03*
X167150000Y-100449999D03*
X164849034Y-100449999D03*
X164849034Y-102350001D03*
%TD*%
D17*
%TO.C,R26*%
X155550000Y-75550000D03*
X153900000Y-75550000D03*
%TD*%
D13*
%TO.C,C94*%
X127175000Y-102200000D03*
X125625000Y-102200000D03*
%TD*%
D17*
%TO.C,R36*%
X156325000Y-62810700D03*
X154675000Y-62810700D03*
%TD*%
D19*
%TO.C,IC4*%
X154975000Y-67039650D03*
D20*
X155774999Y-67041812D03*
D21*
X156251300Y-66224999D03*
X156251300Y-65725000D03*
X156251300Y-65225001D03*
D20*
X155774999Y-64408188D03*
X154975001Y-64408188D03*
D21*
X154498700Y-65225001D03*
X154498700Y-65725000D03*
X154498700Y-66224999D03*
D22*
X155350000Y-65725000D03*
%TD*%
D14*
%TO.C,R45*%
X145050000Y-69350000D03*
X145050000Y-71000000D03*
%TD*%
D23*
%TO.C,J10*%
X119975000Y-74950000D03*
D24*
X122515000Y-72410000D03*
X117435000Y-72410000D03*
X122515000Y-77490000D03*
X117435000Y-77490000D03*
%TD*%
D12*
%TO.C,DAC_V_OUT*%
X156125000Y-94600000D03*
%TD*%
D10*
%TO.C,C92*%
X147400000Y-88425000D03*
X147400000Y-89975000D03*
%TD*%
D23*
%TO.C,J3*%
X179700000Y-74950000D03*
D24*
X177160000Y-77490000D03*
X182240000Y-77490000D03*
X177160000Y-72410000D03*
X182240000Y-72410000D03*
%TD*%
D16*
%TO.C,R69*%
X133084444Y-76774999D03*
X133084444Y-75124999D03*
%TD*%
D10*
%TO.C,C89*%
X152625000Y-88475000D03*
X152625000Y-90025000D03*
%TD*%
D12*
%TO.C,ADC_SDO1*%
X156550000Y-114100000D03*
%TD*%
D15*
%TO.C,R12*%
X152875000Y-81600000D03*
X154525000Y-81600000D03*
%TD*%
D11*
%TO.C,C52*%
X159950000Y-75400000D03*
X161500000Y-75400000D03*
%TD*%
D12*
%TO.C,PED1*%
X161275000Y-91550000D03*
%TD*%
D16*
%TO.C,R56*%
X148950000Y-86925000D03*
X148950000Y-85275000D03*
%TD*%
D12*
%TO.C,ADC_SDI1*%
X161500000Y-109950000D03*
%TD*%
D16*
%TO.C,R60*%
X141625000Y-87000000D03*
X141625000Y-85350000D03*
%TD*%
D25*
%TO.C,L4*%
X147400000Y-91550000D03*
X147400000Y-93300000D03*
%TD*%
D17*
%TO.C,R28*%
X158450000Y-84200000D03*
X156800000Y-84200000D03*
%TD*%
%TO.C,R42*%
X148825000Y-59808188D03*
X147175000Y-59808188D03*
%TD*%
D16*
%TO.C,R68*%
X140458189Y-70801301D03*
X140458189Y-69151301D03*
%TD*%
D10*
%TO.C,C55*%
X164950000Y-64700000D03*
X164950000Y-66250000D03*
%TD*%
D26*
%TO.C,IC8*%
X131513394Y-76474999D03*
D27*
X131515556Y-75675000D03*
D28*
X130698743Y-75198699D03*
X130198744Y-75198699D03*
X129698745Y-75198699D03*
D27*
X128881932Y-75675000D03*
X128881932Y-76474998D03*
D28*
X129698745Y-76951299D03*
X130198744Y-76951299D03*
X130698743Y-76951299D03*
D29*
X130198744Y-76099999D03*
%TD*%
D10*
%TO.C,C97*%
X143425000Y-88400000D03*
X143425000Y-89950000D03*
%TD*%
D13*
%TO.C,C53*%
X163348699Y-72525000D03*
X161798699Y-72525000D03*
%TD*%
D11*
%TO.C,C87*%
X172175000Y-96525000D03*
X173725000Y-96525000D03*
%TD*%
D19*
%TO.C,IC2*%
X161100000Y-78485350D03*
D20*
X160300001Y-78483188D03*
D21*
X159823700Y-79300001D03*
X159823700Y-79800000D03*
X159823700Y-80299999D03*
D20*
X160300001Y-81116812D03*
X161099999Y-81116812D03*
D21*
X161576300Y-80299999D03*
X161576300Y-79800000D03*
X161576300Y-79300001D03*
D22*
X160725000Y-79800000D03*
%TD*%
D12*
%TO.C,THRESH1*%
X166700000Y-83825000D03*
%TD*%
D30*
%TO.C,H3*%
X123825000Y-117400000D03*
%TD*%
D25*
%TO.C,L8*%
X139825000Y-91525000D03*
X139825000Y-93275000D03*
%TD*%
D11*
%TO.C,C37*%
X147704400Y-106975000D03*
X149254400Y-106975000D03*
%TD*%
D13*
%TO.C,C106*%
X129059444Y-73549999D03*
X127509444Y-73549999D03*
%TD*%
%TO.C,C108*%
X138458189Y-72501301D03*
X136908189Y-72501301D03*
%TD*%
D12*
%TO.C,ADC_SCK*%
X160425000Y-113725000D03*
%TD*%
D13*
%TO.C,C99*%
X127150000Y-88425000D03*
X125600000Y-88425000D03*
%TD*%
D23*
%TO.C,J4*%
X179700000Y-86600000D03*
D24*
X177160000Y-89140000D03*
X182240000Y-89140000D03*
X177160000Y-84060000D03*
X182240000Y-84060000D03*
%TD*%
D15*
%TO.C,R31*%
X161748699Y-70850000D03*
X163398699Y-70850000D03*
%TD*%
D14*
%TO.C,R51*%
X142900001Y-63583188D03*
X142900001Y-65233188D03*
%TD*%
D23*
%TO.C,J8*%
X119975000Y-98690000D03*
D24*
X122515000Y-96150000D03*
X117435000Y-96150000D03*
X122515000Y-101230000D03*
X117435000Y-101230000D03*
%TD*%
D13*
%TO.C,C33*%
X158875000Y-100225000D03*
X157325000Y-100225000D03*
%TD*%
D15*
%TO.C,R8*%
X157225000Y-98550000D03*
X158875000Y-98550000D03*
%TD*%
D16*
%TO.C,R55*%
X150752071Y-86977071D03*
X150752071Y-85327071D03*
%TD*%
D31*
%TO.C,C76*%
X142900001Y-62133188D03*
X142900001Y-60583188D03*
%TD*%
D32*
%TO.C,Y1*%
X152554400Y-106925000D03*
X152554400Y-104825000D03*
X150904400Y-104825000D03*
X150904400Y-106925000D03*
%TD*%
D11*
%TO.C,C85*%
X172125000Y-78800000D03*
X173675000Y-78800000D03*
%TD*%
D17*
%TO.C,R27*%
X155505000Y-73675000D03*
X153855000Y-73675000D03*
%TD*%
D16*
%TO.C,R77*%
X134489300Y-83825000D03*
X134489300Y-82175000D03*
%TD*%
D14*
%TO.C,R32*%
X158225000Y-80575000D03*
X158225000Y-82225000D03*
%TD*%
D11*
%TO.C,C64*%
X154725000Y-61260700D03*
X156275000Y-61260700D03*
%TD*%
D10*
%TO.C,C54*%
X156425000Y-80625000D03*
X156425000Y-82175000D03*
%TD*%
%TO.C,C91*%
X148950000Y-88425000D03*
X148950000Y-89975000D03*
%TD*%
D15*
%TO.C,R2*%
X153475000Y-98500000D03*
X155125000Y-98500000D03*
%TD*%
D30*
%TO.C,H2*%
X169400000Y-46450000D03*
%TD*%
D12*
%TO.C,INTEGRATOR*%
X169350000Y-105125000D03*
%TD*%
D13*
%TO.C,C75*%
X141375001Y-65858188D03*
X139825001Y-65858188D03*
%TD*%
D10*
%TO.C,C58*%
X159498699Y-69725000D03*
X159498699Y-71275000D03*
%TD*%
D13*
%TO.C,C117*%
X129289300Y-80650000D03*
X127739300Y-80650000D03*
%TD*%
D14*
%TO.C,R40*%
X157875000Y-66485700D03*
X157875000Y-68135700D03*
%TD*%
D15*
%TO.C,R7*%
X160950000Y-100225000D03*
X162600000Y-100225000D03*
%TD*%
%TO.C,R75*%
X137125000Y-75925000D03*
X138775000Y-75925000D03*
%TD*%
D14*
%TO.C,R44*%
X148350000Y-69325000D03*
X148350000Y-70975000D03*
%TD*%
D15*
%TO.C,R48*%
X147150000Y-65558188D03*
X148800000Y-65558188D03*
%TD*%
D10*
%TO.C,C96*%
X145600000Y-88425000D03*
X145600000Y-89975000D03*
%TD*%
D13*
%TO.C,C50*%
X161400000Y-84200000D03*
X159850000Y-84200000D03*
%TD*%
D12*
%TO.C,CLK_OUT*%
X136900000Y-107025000D03*
%TD*%
D13*
%TO.C,C93*%
X127500000Y-108550000D03*
X125950000Y-108550000D03*
%TD*%
D25*
%TO.C,L1*%
X152650000Y-91550000D03*
X152650000Y-93300000D03*
%TD*%
D11*
%TO.C,C31*%
X157375000Y-101925000D03*
X158925000Y-101925000D03*
%TD*%
D14*
%TO.C,R64*%
X143500000Y-69350000D03*
X143500000Y-71000000D03*
%TD*%
D10*
%TO.C,C105*%
X134609444Y-75174999D03*
X134609444Y-76724999D03*
%TD*%
D11*
%TO.C,C51*%
X161698699Y-63600000D03*
X163248699Y-63600000D03*
%TD*%
%TO.C,C114*%
X127909444Y-78574999D03*
X129459444Y-78574999D03*
%TD*%
D31*
%TO.C,C101*%
X133133189Y-70576301D03*
X133133189Y-69026301D03*
%TD*%
D10*
%TO.C,C78*%
X145400000Y-63408188D03*
X145400000Y-64958188D03*
%TD*%
D15*
%TO.C,R4*%
X153450000Y-100275000D03*
X155100000Y-100275000D03*
%TD*%
D12*
%TO.C,TRIGGERIN*%
X125500000Y-63350000D03*
%TD*%
D25*
%TO.C,L3*%
X149000000Y-91550000D03*
X149000000Y-93300000D03*
%TD*%
D13*
%TO.C,C65*%
X156250000Y-70210700D03*
X154700000Y-70210700D03*
%TD*%
D31*
%TO.C,C81*%
X138050001Y-65333188D03*
X138050001Y-63783188D03*
%TD*%
D13*
%TO.C,C95*%
X127250000Y-93650000D03*
X125700000Y-93650000D03*
%TD*%
D25*
%TO.C,L6*%
X143425000Y-91500000D03*
X143425000Y-93250000D03*
%TD*%
D13*
%TO.C,C73*%
X148750000Y-67083188D03*
X147200000Y-67083188D03*
%TD*%
D25*
%TO.C,L2*%
X150752071Y-91552071D03*
X150752071Y-93302071D03*
%TD*%
D14*
%TO.C,R50*%
X150475000Y-64083188D03*
X150475000Y-65733188D03*
%TD*%
D15*
%TO.C,R9*%
X160950000Y-101875000D03*
X162600000Y-101875000D03*
%TD*%
D23*
%TO.C,J7*%
X119975000Y-110275000D03*
D24*
X122515000Y-112815000D03*
X122515000Y-107735000D03*
X117435000Y-112815000D03*
X117435000Y-107735000D03*
%TD*%
D19*
%TO.C,IC3*%
X162149999Y-68439650D03*
D20*
X162949998Y-68441812D03*
D21*
X163426299Y-67624999D03*
X163426299Y-67125000D03*
X163426299Y-66625001D03*
D20*
X162949998Y-65808188D03*
X162150000Y-65808188D03*
D21*
X161673699Y-66625001D03*
X161673699Y-67125000D03*
X161673699Y-67624999D03*
D22*
X162524999Y-67125000D03*
%TD*%
D13*
%TO.C,C112*%
X132514444Y-78579999D03*
X130964444Y-78579999D03*
%TD*%
D31*
%TO.C,C115*%
X127169300Y-83725000D03*
X127169300Y-82175000D03*
%TD*%
D16*
%TO.C,R59*%
X143425000Y-86975000D03*
X143425000Y-85325000D03*
%TD*%
D14*
%TO.C,R74*%
X125639300Y-82125000D03*
X125639300Y-83775000D03*
%TD*%
D19*
%TO.C,IC5*%
X147474999Y-63989650D03*
D20*
X148274998Y-63991812D03*
D21*
X148751299Y-63174999D03*
X148751299Y-62675000D03*
X148751299Y-62175001D03*
D20*
X148274998Y-61358188D03*
X147475000Y-61358188D03*
D21*
X146998699Y-62175001D03*
X146998699Y-62675000D03*
X146998699Y-63174999D03*
D22*
X147849999Y-62675000D03*
%TD*%
D11*
%TO.C,C38*%
X152925000Y-83100000D03*
X154475000Y-83100000D03*
%TD*%
D12*
%TO.C,PSEC5_CLK_OUT*%
X136925000Y-103025000D03*
%TD*%
D11*
%TO.C,C71*%
X147225000Y-58283188D03*
X148775000Y-58283188D03*
%TD*%
D26*
%TO.C,IC7*%
X137339651Y-70476300D03*
D27*
X137341813Y-69676301D03*
D28*
X136525000Y-69200000D03*
X136025001Y-69200000D03*
X135525002Y-69200000D03*
D27*
X134708189Y-69676301D03*
X134708189Y-70476299D03*
D28*
X135525002Y-70952600D03*
X136025001Y-70952600D03*
X136525000Y-70952600D03*
D29*
X136025001Y-70101300D03*
%TD*%
D17*
%TO.C,R5*%
X162625000Y-98375000D03*
X160975000Y-98375000D03*
%TD*%
D14*
%TO.C,R3*%
X151650000Y-100300000D03*
X151650000Y-101950000D03*
%TD*%
D15*
%TO.C,R49*%
X139775001Y-67383188D03*
X141425001Y-67383188D03*
%TD*%
D13*
%TO.C,C104*%
X135258189Y-67376301D03*
X133708189Y-67376301D03*
%TD*%
D10*
%TO.C,C98*%
X141625000Y-88425000D03*
X141625000Y-89975000D03*
%TD*%
D16*
%TO.C,R61*%
X139825000Y-87000000D03*
X139825000Y-85350000D03*
%TD*%
D23*
%TO.C,J6*%
X179695000Y-110275000D03*
D24*
X177155000Y-112815000D03*
X182235000Y-112815000D03*
X177155000Y-107735000D03*
X182235000Y-107735000D03*
%TD*%
D33*
%TO.C,U1*%
X141925000Y-82775000D03*
X141925000Y-82275000D03*
X141925000Y-81775000D03*
X141925000Y-81275000D03*
X141925000Y-80775000D03*
X141925000Y-80275000D03*
X141925000Y-79775000D03*
X141925000Y-79275000D03*
X141925000Y-78775000D03*
X141925000Y-78275000D03*
X141925000Y-77775000D03*
X141925000Y-77275000D03*
X141925000Y-76775000D03*
X141925000Y-76275000D03*
X141925000Y-75775000D03*
X141925000Y-75275000D03*
X141925000Y-74775000D03*
X141925000Y-74275000D03*
D34*
X142425000Y-73775000D03*
X142925000Y-73775000D03*
X143425000Y-73775000D03*
X143925000Y-73775000D03*
X144425000Y-73775000D03*
X144925000Y-73775000D03*
X145425000Y-73775000D03*
X145925000Y-73775000D03*
X146425000Y-73775000D03*
X146925000Y-73775000D03*
X147425000Y-73775000D03*
X147925000Y-73775000D03*
X148425000Y-73775000D03*
X148925000Y-73775000D03*
X149425000Y-73775000D03*
X149925000Y-73775000D03*
X150425000Y-73775000D03*
X150925000Y-73775000D03*
D33*
X151425000Y-74275000D03*
X151425000Y-74775000D03*
X151425000Y-75275000D03*
X151425000Y-75775000D03*
X151425000Y-76275000D03*
X151425000Y-76775000D03*
X151425000Y-77275000D03*
X151425000Y-77775000D03*
X151425000Y-78275000D03*
X151425000Y-78775000D03*
X151425000Y-79275000D03*
X151425000Y-79775000D03*
X151425000Y-80275000D03*
X151425000Y-80775000D03*
X151425000Y-81275000D03*
X151425000Y-81775000D03*
X151425000Y-82275000D03*
X151425000Y-82775000D03*
D34*
X150925000Y-83275000D03*
X150425000Y-83275000D03*
X149925000Y-83275000D03*
X149425000Y-83275000D03*
X148925000Y-83275000D03*
X148425000Y-83275000D03*
X147925000Y-83275000D03*
X147425000Y-83275000D03*
X146925000Y-83275000D03*
X146425000Y-83275000D03*
X145925000Y-83275000D03*
X145425000Y-83275000D03*
X144925000Y-83275000D03*
X144425000Y-83275000D03*
X143925000Y-83275000D03*
X143425000Y-83275000D03*
X142925000Y-83275000D03*
X142425000Y-83275000D03*
%TD*%
D11*
%TO.C,C34*%
X161500000Y-103675000D03*
X163050000Y-103675000D03*
%TD*%
D15*
%TO.C,R39*%
X154650000Y-68660700D03*
X156300000Y-68660700D03*
%TD*%
D16*
%TO.C,R54*%
X152625000Y-87025000D03*
X152625000Y-85375000D03*
%TD*%
D30*
%TO.C,H1*%
X123825000Y-46450000D03*
%TD*%
D10*
%TO.C,C103*%
X138933189Y-69201301D03*
X138933189Y-70751301D03*
%TD*%
%TO.C,C80*%
X145400000Y-60308188D03*
X145400000Y-61858188D03*
%TD*%
D30*
%TO.C,H4*%
X169400000Y-117400000D03*
%TD*%
D14*
%TO.C,R62*%
X131583189Y-68976301D03*
X131583189Y-70626301D03*
%TD*%
D12*
%TO.C,RST*%
X160925000Y-59850000D03*
%TD*%
D11*
%TO.C,C72*%
X139700001Y-60083188D03*
X141250001Y-60083188D03*
%TD*%
D15*
%TO.C,R71*%
X130484444Y-73549999D03*
X132134444Y-73549999D03*
%TD*%
D25*
%TO.C,L5*%
X145600000Y-91550000D03*
X145600000Y-93300000D03*
%TD*%
D15*
%TO.C,R65*%
X137075000Y-74350000D03*
X138725000Y-74350000D03*
%TD*%
D31*
%TO.C,C67*%
X152625000Y-66585700D03*
X152625000Y-65035700D03*
%TD*%
D11*
%TO.C,C30*%
X162254400Y-106775000D03*
X163804400Y-106775000D03*
%TD*%
%TO.C,C86*%
X170650000Y-92525000D03*
X172200000Y-92525000D03*
%TD*%
D12*
%TO.C,TRIGGEROUT*%
X133800000Y-57600000D03*
%TD*%
D23*
%TO.C,J9*%
X119975000Y-86600000D03*
D24*
X122515000Y-84060000D03*
X117435000Y-84060000D03*
X122515000Y-89140000D03*
X117435000Y-89140000D03*
%TD*%
D11*
%TO.C,C109*%
X133883189Y-72501301D03*
X135433189Y-72501301D03*
%TD*%
D15*
%TO.C,R78*%
X130714300Y-80650000D03*
X132364300Y-80650000D03*
%TD*%
D11*
%TO.C,C32*%
X164500000Y-98400000D03*
X166050000Y-98400000D03*
%TD*%
D10*
%TO.C,C84*%
X138050001Y-60733188D03*
X138050001Y-62283188D03*
%TD*%
D26*
%TO.C,IC9*%
X131378950Y-83475000D03*
D27*
X131381112Y-82675001D03*
D28*
X130564299Y-82198700D03*
X130064300Y-82198700D03*
X129564301Y-82198700D03*
D27*
X128747488Y-82675001D03*
X128747488Y-83474999D03*
D28*
X129564301Y-83951300D03*
X130064300Y-83951300D03*
X130564299Y-83951300D03*
D29*
X130064300Y-83100000D03*
%TD*%
D17*
%TO.C,R43*%
X141300001Y-58558188D03*
X139650001Y-58558188D03*
%TD*%
D16*
%TO.C,R58*%
X145625000Y-86975000D03*
X145625000Y-85325000D03*
%TD*%
D31*
%TO.C,C102*%
X125784444Y-76874999D03*
X125784444Y-75324999D03*
%TD*%
D12*
%TO.C,SPICLK*%
X166675000Y-74450000D03*
%TD*%
D14*
%TO.C,R63*%
X127309444Y-75274999D03*
X127309444Y-76924999D03*
%TD*%
D12*
%TO.C,ADC_CNV*%
X152325000Y-113475000D03*
%TD*%
D35*
%TO.C,IC1*%
X148725000Y-102965000D03*
X148725000Y-101695000D03*
X148725000Y-100425000D03*
X148725000Y-99155000D03*
X143775000Y-99155000D03*
X143775000Y-100425000D03*
X143775000Y-101695000D03*
X143775000Y-102965000D03*
%TD*%
D10*
%TO.C,C100*%
X139825000Y-88425000D03*
X139825000Y-89975000D03*
%TD*%
%TO.C,C66*%
X157875000Y-63510700D03*
X157875000Y-65060700D03*
%TD*%
D11*
%TO.C,C56*%
X156150000Y-79000000D03*
X157700000Y-79000000D03*
%TD*%
D31*
%TO.C,C14*%
X146825000Y-72650000D03*
X146825000Y-71100000D03*
%TD*%
D25*
%TO.C,L7*%
X141625000Y-91575000D03*
X141625000Y-93325000D03*
%TD*%
D11*
%TO.C,C28*%
X142725000Y-104875000D03*
X144275000Y-104875000D03*
%TD*%
D31*
%TO.C,C70*%
X152600000Y-62885700D03*
X152600000Y-61335700D03*
%TD*%
D10*
%TO.C,C74*%
X150475000Y-61108188D03*
X150475000Y-62658188D03*
%TD*%
D36*
%TO.C,U3*%
X159675000Y-106900000D03*
X159675000Y-106399998D03*
X159675000Y-105899999D03*
X159675000Y-105400000D03*
X159675000Y-104899998D03*
X156779400Y-104899998D03*
X156779400Y-105400000D03*
X156779400Y-105899999D03*
X156779400Y-106399998D03*
X156779400Y-106900000D03*
D37*
X158227200Y-105899999D03*
%TD*%
D17*
%TO.C,R70*%
X138333189Y-67376301D03*
X136683189Y-67376301D03*
%TD*%
D23*
%TO.C,J5*%
X179700000Y-98690000D03*
D24*
X177160000Y-101230000D03*
X182240000Y-101230000D03*
X177160000Y-96150000D03*
X182240000Y-96150000D03*
%TD*%
D31*
%TO.C,C62*%
X159548699Y-67750000D03*
X159548699Y-66200000D03*
%TD*%
D19*
%TO.C,IC6*%
X140075000Y-64289650D03*
D20*
X140874999Y-64291812D03*
D21*
X141351300Y-63474999D03*
X141351300Y-62975000D03*
X141351300Y-62475001D03*
D20*
X140874999Y-61658188D03*
X140075001Y-61658188D03*
D21*
X139598700Y-62475001D03*
X139598700Y-62975000D03*
X139598700Y-63474999D03*
D22*
X140450000Y-62975000D03*
%TD*%
D17*
%TO.C,R37*%
X156300001Y-71850001D03*
X154650001Y-71850001D03*
%TD*%
D12*
%TO.C,PICO*%
X153075000Y-56600000D03*
%TD*%
D11*
%TO.C,C88*%
X172825000Y-111975000D03*
X174375000Y-111975000D03*
%TD*%
D17*
%TO.C,R25*%
X163298699Y-62000000D03*
X161648699Y-62000000D03*
%TD*%
%TO.C,R6*%
X155100000Y-101875000D03*
X153450000Y-101875000D03*
%TD*%
D13*
%TO.C,C118*%
X132294300Y-85480000D03*
X130744300Y-85480000D03*
%TD*%
D38*
%TO.C,J1*%
X165823400Y-46972139D03*
X127343400Y-46972139D03*
%TD*%
%TO.C,J2*%
X165823400Y-113035000D03*
X127343400Y-113035000D03*
%TD*%
M02*
