%TF.GenerationSoftware,KiCad,Pcbnew,8.0.5*%
%TF.CreationDate,2025-04-03T13:44:51-05:00*%
%TF.ProjectId,PSEC5_Board,50534543-355f-4426-9f61-72642e6b6963,rev?*%
%TF.SameCoordinates,Original*%
%TF.FileFunction,AssemblyDrawing,Bot*%
%FSLAX46Y46*%
G04 Gerber Fmt 4.6, Leading zero omitted, Abs format (unit mm)*
G04 Created by KiCad (PCBNEW 8.0.5) date 2025-04-03 13:44:51*
%MOMM*%
%LPD*%
G01*
G04 APERTURE LIST*
%ADD10C,0.040000*%
%ADD11C,0.060000*%
%ADD12C,0.150000*%
%ADD13C,0.100000*%
%ADD14C,0.200000*%
%ADD15C,0.050000*%
G04 APERTURE END LIST*
D10*
X144055714Y-81439765D02*
X144067618Y-81451670D01*
X144067618Y-81451670D02*
X144103333Y-81463574D01*
X144103333Y-81463574D02*
X144127142Y-81463574D01*
X144127142Y-81463574D02*
X144162856Y-81451670D01*
X144162856Y-81451670D02*
X144186666Y-81427860D01*
X144186666Y-81427860D02*
X144198571Y-81404050D01*
X144198571Y-81404050D02*
X144210475Y-81356431D01*
X144210475Y-81356431D02*
X144210475Y-81320717D01*
X144210475Y-81320717D02*
X144198571Y-81273098D01*
X144198571Y-81273098D02*
X144186666Y-81249289D01*
X144186666Y-81249289D02*
X144162856Y-81225479D01*
X144162856Y-81225479D02*
X144127142Y-81213574D01*
X144127142Y-81213574D02*
X144103333Y-81213574D01*
X144103333Y-81213574D02*
X144067618Y-81225479D01*
X144067618Y-81225479D02*
X144055714Y-81237384D01*
X143817618Y-81463574D02*
X143960475Y-81463574D01*
X143889047Y-81463574D02*
X143889047Y-81213574D01*
X143889047Y-81213574D02*
X143912856Y-81249289D01*
X143912856Y-81249289D02*
X143936666Y-81273098D01*
X143936666Y-81273098D02*
X143960475Y-81285003D01*
X143734285Y-81213574D02*
X143567619Y-81213574D01*
X143567619Y-81213574D02*
X143674761Y-81463574D01*
D11*
X148981927Y-58776045D02*
X148791451Y-58642712D01*
X148981927Y-58547474D02*
X148581927Y-58547474D01*
X148581927Y-58547474D02*
X148581927Y-58699855D01*
X148581927Y-58699855D02*
X148600975Y-58737950D01*
X148600975Y-58737950D02*
X148620022Y-58756997D01*
X148620022Y-58756997D02*
X148658118Y-58776045D01*
X148658118Y-58776045D02*
X148715260Y-58776045D01*
X148715260Y-58776045D02*
X148753356Y-58756997D01*
X148753356Y-58756997D02*
X148772403Y-58737950D01*
X148772403Y-58737950D02*
X148791451Y-58699855D01*
X148791451Y-58699855D02*
X148791451Y-58547474D01*
X148715260Y-59118902D02*
X148981927Y-59118902D01*
X148562880Y-59023664D02*
X148848594Y-58928426D01*
X148848594Y-58928426D02*
X148848594Y-59176045D01*
X148581927Y-59499854D02*
X148581927Y-59423664D01*
X148581927Y-59423664D02*
X148600975Y-59385568D01*
X148600975Y-59385568D02*
X148620022Y-59366521D01*
X148620022Y-59366521D02*
X148677165Y-59328426D01*
X148677165Y-59328426D02*
X148753356Y-59309378D01*
X148753356Y-59309378D02*
X148905737Y-59309378D01*
X148905737Y-59309378D02*
X148943832Y-59328426D01*
X148943832Y-59328426D02*
X148962880Y-59347473D01*
X148962880Y-59347473D02*
X148981927Y-59385568D01*
X148981927Y-59385568D02*
X148981927Y-59461759D01*
X148981927Y-59461759D02*
X148962880Y-59499854D01*
X148962880Y-59499854D02*
X148943832Y-59518902D01*
X148943832Y-59518902D02*
X148905737Y-59537949D01*
X148905737Y-59537949D02*
X148810499Y-59537949D01*
X148810499Y-59537949D02*
X148772403Y-59518902D01*
X148772403Y-59518902D02*
X148753356Y-59499854D01*
X148753356Y-59499854D02*
X148734308Y-59461759D01*
X148734308Y-59461759D02*
X148734308Y-59385568D01*
X148734308Y-59385568D02*
X148753356Y-59347473D01*
X148753356Y-59347473D02*
X148772403Y-59328426D01*
X148772403Y-59328426D02*
X148810499Y-59309378D01*
X158007142Y-77281927D02*
X158140475Y-77091451D01*
X158235713Y-77281927D02*
X158235713Y-76881927D01*
X158235713Y-76881927D02*
X158083332Y-76881927D01*
X158083332Y-76881927D02*
X158045237Y-76900975D01*
X158045237Y-76900975D02*
X158026190Y-76920022D01*
X158026190Y-76920022D02*
X158007142Y-76958118D01*
X158007142Y-76958118D02*
X158007142Y-77015260D01*
X158007142Y-77015260D02*
X158026190Y-77053356D01*
X158026190Y-77053356D02*
X158045237Y-77072403D01*
X158045237Y-77072403D02*
X158083332Y-77091451D01*
X158083332Y-77091451D02*
X158235713Y-77091451D01*
X157626190Y-77281927D02*
X157854761Y-77281927D01*
X157740475Y-77281927D02*
X157740475Y-76881927D01*
X157740475Y-76881927D02*
X157778571Y-76939070D01*
X157778571Y-76939070D02*
X157816666Y-76977165D01*
X157816666Y-76977165D02*
X157854761Y-76996213D01*
X157492857Y-76881927D02*
X157245238Y-76881927D01*
X157245238Y-76881927D02*
X157378571Y-77034308D01*
X157378571Y-77034308D02*
X157321428Y-77034308D01*
X157321428Y-77034308D02*
X157283333Y-77053356D01*
X157283333Y-77053356D02*
X157264285Y-77072403D01*
X157264285Y-77072403D02*
X157245238Y-77110499D01*
X157245238Y-77110499D02*
X157245238Y-77205737D01*
X157245238Y-77205737D02*
X157264285Y-77243832D01*
X157264285Y-77243832D02*
X157283333Y-77262880D01*
X157283333Y-77262880D02*
X157321428Y-77281927D01*
X157321428Y-77281927D02*
X157435714Y-77281927D01*
X157435714Y-77281927D02*
X157473809Y-77262880D01*
X157473809Y-77262880D02*
X157492857Y-77243832D01*
X135105807Y-72645133D02*
X135124855Y-72664181D01*
X135124855Y-72664181D02*
X135181997Y-72683228D01*
X135181997Y-72683228D02*
X135220093Y-72683228D01*
X135220093Y-72683228D02*
X135277236Y-72664181D01*
X135277236Y-72664181D02*
X135315331Y-72626085D01*
X135315331Y-72626085D02*
X135334378Y-72587990D01*
X135334378Y-72587990D02*
X135353426Y-72511800D01*
X135353426Y-72511800D02*
X135353426Y-72454657D01*
X135353426Y-72454657D02*
X135334378Y-72378466D01*
X135334378Y-72378466D02*
X135315331Y-72340371D01*
X135315331Y-72340371D02*
X135277236Y-72302276D01*
X135277236Y-72302276D02*
X135220093Y-72283228D01*
X135220093Y-72283228D02*
X135181997Y-72283228D01*
X135181997Y-72283228D02*
X135124855Y-72302276D01*
X135124855Y-72302276D02*
X135105807Y-72321323D01*
X134724855Y-72683228D02*
X134953426Y-72683228D01*
X134839140Y-72683228D02*
X134839140Y-72283228D01*
X134839140Y-72283228D02*
X134877236Y-72340371D01*
X134877236Y-72340371D02*
X134915331Y-72378466D01*
X134915331Y-72378466D02*
X134953426Y-72397514D01*
X134343903Y-72683228D02*
X134572474Y-72683228D01*
X134458188Y-72683228D02*
X134458188Y-72283228D01*
X134458188Y-72283228D02*
X134496284Y-72340371D01*
X134496284Y-72340371D02*
X134534379Y-72378466D01*
X134534379Y-72378466D02*
X134572474Y-72397514D01*
X134096284Y-72283228D02*
X134058189Y-72283228D01*
X134058189Y-72283228D02*
X134020093Y-72302276D01*
X134020093Y-72302276D02*
X134001046Y-72321323D01*
X134001046Y-72321323D02*
X133981998Y-72359419D01*
X133981998Y-72359419D02*
X133962951Y-72435609D01*
X133962951Y-72435609D02*
X133962951Y-72530847D01*
X133962951Y-72530847D02*
X133981998Y-72607038D01*
X133981998Y-72607038D02*
X134001046Y-72645133D01*
X134001046Y-72645133D02*
X134020093Y-72664181D01*
X134020093Y-72664181D02*
X134058189Y-72683228D01*
X134058189Y-72683228D02*
X134096284Y-72683228D01*
X134096284Y-72683228D02*
X134134379Y-72664181D01*
X134134379Y-72664181D02*
X134153427Y-72645133D01*
X134153427Y-72645133D02*
X134172474Y-72607038D01*
X134172474Y-72607038D02*
X134191522Y-72530847D01*
X134191522Y-72530847D02*
X134191522Y-72435609D01*
X134191522Y-72435609D02*
X134172474Y-72359419D01*
X134172474Y-72359419D02*
X134153427Y-72321323D01*
X134153427Y-72321323D02*
X134134379Y-72302276D01*
X134134379Y-72302276D02*
X134096284Y-72283228D01*
X156731327Y-105677857D02*
X156540851Y-105544524D01*
X156731327Y-105449286D02*
X156331327Y-105449286D01*
X156331327Y-105449286D02*
X156331327Y-105601667D01*
X156331327Y-105601667D02*
X156350375Y-105639762D01*
X156350375Y-105639762D02*
X156369422Y-105658809D01*
X156369422Y-105658809D02*
X156407518Y-105677857D01*
X156407518Y-105677857D02*
X156464660Y-105677857D01*
X156464660Y-105677857D02*
X156502756Y-105658809D01*
X156502756Y-105658809D02*
X156521803Y-105639762D01*
X156521803Y-105639762D02*
X156540851Y-105601667D01*
X156540851Y-105601667D02*
X156540851Y-105449286D01*
X156731327Y-106058809D02*
X156731327Y-105830238D01*
X156731327Y-105944524D02*
X156331327Y-105944524D01*
X156331327Y-105944524D02*
X156388470Y-105906428D01*
X156388470Y-105906428D02*
X156426565Y-105868333D01*
X156426565Y-105868333D02*
X156445613Y-105830238D01*
X156331327Y-106306428D02*
X156331327Y-106344523D01*
X156331327Y-106344523D02*
X156350375Y-106382619D01*
X156350375Y-106382619D02*
X156369422Y-106401666D01*
X156369422Y-106401666D02*
X156407518Y-106420714D01*
X156407518Y-106420714D02*
X156483708Y-106439761D01*
X156483708Y-106439761D02*
X156578946Y-106439761D01*
X156578946Y-106439761D02*
X156655137Y-106420714D01*
X156655137Y-106420714D02*
X156693232Y-106401666D01*
X156693232Y-106401666D02*
X156712280Y-106382619D01*
X156712280Y-106382619D02*
X156731327Y-106344523D01*
X156731327Y-106344523D02*
X156731327Y-106306428D01*
X156731327Y-106306428D02*
X156712280Y-106268333D01*
X156712280Y-106268333D02*
X156693232Y-106249285D01*
X156693232Y-106249285D02*
X156655137Y-106230238D01*
X156655137Y-106230238D02*
X156578946Y-106211190D01*
X156578946Y-106211190D02*
X156483708Y-106211190D01*
X156483708Y-106211190D02*
X156407518Y-106230238D01*
X156407518Y-106230238D02*
X156369422Y-106249285D01*
X156369422Y-106249285D02*
X156350375Y-106268333D01*
X156350375Y-106268333D02*
X156331327Y-106306428D01*
X135157142Y-82518832D02*
X135176190Y-82537880D01*
X135176190Y-82537880D02*
X135233332Y-82556927D01*
X135233332Y-82556927D02*
X135271428Y-82556927D01*
X135271428Y-82556927D02*
X135328571Y-82537880D01*
X135328571Y-82537880D02*
X135366666Y-82499784D01*
X135366666Y-82499784D02*
X135385713Y-82461689D01*
X135385713Y-82461689D02*
X135404761Y-82385499D01*
X135404761Y-82385499D02*
X135404761Y-82328356D01*
X135404761Y-82328356D02*
X135385713Y-82252165D01*
X135385713Y-82252165D02*
X135366666Y-82214070D01*
X135366666Y-82214070D02*
X135328571Y-82175975D01*
X135328571Y-82175975D02*
X135271428Y-82156927D01*
X135271428Y-82156927D02*
X135233332Y-82156927D01*
X135233332Y-82156927D02*
X135176190Y-82175975D01*
X135176190Y-82175975D02*
X135157142Y-82195022D01*
X134814285Y-82290260D02*
X134814285Y-82556927D01*
X134909523Y-82137880D02*
X135004761Y-82423594D01*
X135004761Y-82423594D02*
X134757142Y-82423594D01*
X134414285Y-82156927D02*
X134604761Y-82156927D01*
X134604761Y-82156927D02*
X134623809Y-82347403D01*
X134623809Y-82347403D02*
X134604761Y-82328356D01*
X134604761Y-82328356D02*
X134566666Y-82309308D01*
X134566666Y-82309308D02*
X134471428Y-82309308D01*
X134471428Y-82309308D02*
X134433333Y-82328356D01*
X134433333Y-82328356D02*
X134414285Y-82347403D01*
X134414285Y-82347403D02*
X134395238Y-82385499D01*
X134395238Y-82385499D02*
X134395238Y-82480737D01*
X134395238Y-82480737D02*
X134414285Y-82518832D01*
X134414285Y-82518832D02*
X134433333Y-82537880D01*
X134433333Y-82537880D02*
X134471428Y-82556927D01*
X134471428Y-82556927D02*
X134566666Y-82556927D01*
X134566666Y-82556927D02*
X134604761Y-82537880D01*
X134604761Y-82537880D02*
X134623809Y-82518832D01*
X138193833Y-61251045D02*
X138212881Y-61231997D01*
X138212881Y-61231997D02*
X138231928Y-61174855D01*
X138231928Y-61174855D02*
X138231928Y-61136759D01*
X138231928Y-61136759D02*
X138212881Y-61079616D01*
X138212881Y-61079616D02*
X138174785Y-61041521D01*
X138174785Y-61041521D02*
X138136690Y-61022474D01*
X138136690Y-61022474D02*
X138060500Y-61003426D01*
X138060500Y-61003426D02*
X138003357Y-61003426D01*
X138003357Y-61003426D02*
X137927166Y-61022474D01*
X137927166Y-61022474D02*
X137889071Y-61041521D01*
X137889071Y-61041521D02*
X137850976Y-61079616D01*
X137850976Y-61079616D02*
X137831928Y-61136759D01*
X137831928Y-61136759D02*
X137831928Y-61174855D01*
X137831928Y-61174855D02*
X137850976Y-61231997D01*
X137850976Y-61231997D02*
X137870023Y-61251045D01*
X138003357Y-61479616D02*
X137984309Y-61441521D01*
X137984309Y-61441521D02*
X137965261Y-61422474D01*
X137965261Y-61422474D02*
X137927166Y-61403426D01*
X137927166Y-61403426D02*
X137908119Y-61403426D01*
X137908119Y-61403426D02*
X137870023Y-61422474D01*
X137870023Y-61422474D02*
X137850976Y-61441521D01*
X137850976Y-61441521D02*
X137831928Y-61479616D01*
X137831928Y-61479616D02*
X137831928Y-61555807D01*
X137831928Y-61555807D02*
X137850976Y-61593902D01*
X137850976Y-61593902D02*
X137870023Y-61612950D01*
X137870023Y-61612950D02*
X137908119Y-61631997D01*
X137908119Y-61631997D02*
X137927166Y-61631997D01*
X137927166Y-61631997D02*
X137965261Y-61612950D01*
X137965261Y-61612950D02*
X137984309Y-61593902D01*
X137984309Y-61593902D02*
X138003357Y-61555807D01*
X138003357Y-61555807D02*
X138003357Y-61479616D01*
X138003357Y-61479616D02*
X138022404Y-61441521D01*
X138022404Y-61441521D02*
X138041452Y-61422474D01*
X138041452Y-61422474D02*
X138079547Y-61403426D01*
X138079547Y-61403426D02*
X138155738Y-61403426D01*
X138155738Y-61403426D02*
X138193833Y-61422474D01*
X138193833Y-61422474D02*
X138212881Y-61441521D01*
X138212881Y-61441521D02*
X138231928Y-61479616D01*
X138231928Y-61479616D02*
X138231928Y-61555807D01*
X138231928Y-61555807D02*
X138212881Y-61593902D01*
X138212881Y-61593902D02*
X138193833Y-61612950D01*
X138193833Y-61612950D02*
X138155738Y-61631997D01*
X138155738Y-61631997D02*
X138079547Y-61631997D01*
X138079547Y-61631997D02*
X138041452Y-61612950D01*
X138041452Y-61612950D02*
X138022404Y-61593902D01*
X138022404Y-61593902D02*
X138003357Y-61555807D01*
X137831928Y-61765330D02*
X137831928Y-62012949D01*
X137831928Y-62012949D02*
X137984309Y-61879616D01*
X137984309Y-61879616D02*
X137984309Y-61936759D01*
X137984309Y-61936759D02*
X138003357Y-61974854D01*
X138003357Y-61974854D02*
X138022404Y-61993902D01*
X138022404Y-61993902D02*
X138060500Y-62012949D01*
X138060500Y-62012949D02*
X138155738Y-62012949D01*
X138155738Y-62012949D02*
X138193833Y-61993902D01*
X138193833Y-61993902D02*
X138212881Y-61974854D01*
X138212881Y-61974854D02*
X138231928Y-61936759D01*
X138231928Y-61936759D02*
X138231928Y-61822473D01*
X138231928Y-61822473D02*
X138212881Y-61784378D01*
X138212881Y-61784378D02*
X138193833Y-61765330D01*
D10*
X153335714Y-80739765D02*
X153347618Y-80751670D01*
X153347618Y-80751670D02*
X153383333Y-80763574D01*
X153383333Y-80763574D02*
X153407142Y-80763574D01*
X153407142Y-80763574D02*
X153442856Y-80751670D01*
X153442856Y-80751670D02*
X153466666Y-80727860D01*
X153466666Y-80727860D02*
X153478571Y-80704050D01*
X153478571Y-80704050D02*
X153490475Y-80656431D01*
X153490475Y-80656431D02*
X153490475Y-80620717D01*
X153490475Y-80620717D02*
X153478571Y-80573098D01*
X153478571Y-80573098D02*
X153466666Y-80549289D01*
X153466666Y-80549289D02*
X153442856Y-80525479D01*
X153442856Y-80525479D02*
X153407142Y-80513574D01*
X153407142Y-80513574D02*
X153383333Y-80513574D01*
X153383333Y-80513574D02*
X153347618Y-80525479D01*
X153347618Y-80525479D02*
X153335714Y-80537384D01*
X153240475Y-80537384D02*
X153228571Y-80525479D01*
X153228571Y-80525479D02*
X153204761Y-80513574D01*
X153204761Y-80513574D02*
X153145237Y-80513574D01*
X153145237Y-80513574D02*
X153121428Y-80525479D01*
X153121428Y-80525479D02*
X153109523Y-80537384D01*
X153109523Y-80537384D02*
X153097618Y-80561193D01*
X153097618Y-80561193D02*
X153097618Y-80585003D01*
X153097618Y-80585003D02*
X153109523Y-80620717D01*
X153109523Y-80620717D02*
X153252380Y-80763574D01*
X153252380Y-80763574D02*
X153097618Y-80763574D01*
X152871428Y-80513574D02*
X152990476Y-80513574D01*
X152990476Y-80513574D02*
X153002380Y-80632622D01*
X153002380Y-80632622D02*
X152990476Y-80620717D01*
X152990476Y-80620717D02*
X152966666Y-80608812D01*
X152966666Y-80608812D02*
X152907142Y-80608812D01*
X152907142Y-80608812D02*
X152883333Y-80620717D01*
X152883333Y-80620717D02*
X152871428Y-80632622D01*
X152871428Y-80632622D02*
X152859523Y-80656431D01*
X152859523Y-80656431D02*
X152859523Y-80715955D01*
X152859523Y-80715955D02*
X152871428Y-80739765D01*
X152871428Y-80739765D02*
X152883333Y-80751670D01*
X152883333Y-80751670D02*
X152907142Y-80763574D01*
X152907142Y-80763574D02*
X152966666Y-80763574D01*
X152966666Y-80763574D02*
X152990476Y-80751670D01*
X152990476Y-80751670D02*
X153002380Y-80739765D01*
D11*
X140732143Y-58740115D02*
X140865476Y-58549639D01*
X140960714Y-58740115D02*
X140960714Y-58340115D01*
X140960714Y-58340115D02*
X140808333Y-58340115D01*
X140808333Y-58340115D02*
X140770238Y-58359163D01*
X140770238Y-58359163D02*
X140751191Y-58378210D01*
X140751191Y-58378210D02*
X140732143Y-58416306D01*
X140732143Y-58416306D02*
X140732143Y-58473448D01*
X140732143Y-58473448D02*
X140751191Y-58511544D01*
X140751191Y-58511544D02*
X140770238Y-58530591D01*
X140770238Y-58530591D02*
X140808333Y-58549639D01*
X140808333Y-58549639D02*
X140960714Y-58549639D01*
X140389286Y-58473448D02*
X140389286Y-58740115D01*
X140484524Y-58321068D02*
X140579762Y-58606782D01*
X140579762Y-58606782D02*
X140332143Y-58606782D01*
X140217858Y-58340115D02*
X139951191Y-58340115D01*
X139951191Y-58340115D02*
X140122620Y-58740115D01*
X145543832Y-60826045D02*
X145562880Y-60806997D01*
X145562880Y-60806997D02*
X145581927Y-60749855D01*
X145581927Y-60749855D02*
X145581927Y-60711759D01*
X145581927Y-60711759D02*
X145562880Y-60654616D01*
X145562880Y-60654616D02*
X145524784Y-60616521D01*
X145524784Y-60616521D02*
X145486689Y-60597474D01*
X145486689Y-60597474D02*
X145410499Y-60578426D01*
X145410499Y-60578426D02*
X145353356Y-60578426D01*
X145353356Y-60578426D02*
X145277165Y-60597474D01*
X145277165Y-60597474D02*
X145239070Y-60616521D01*
X145239070Y-60616521D02*
X145200975Y-60654616D01*
X145200975Y-60654616D02*
X145181927Y-60711759D01*
X145181927Y-60711759D02*
X145181927Y-60749855D01*
X145181927Y-60749855D02*
X145200975Y-60806997D01*
X145200975Y-60806997D02*
X145220022Y-60826045D01*
X145181927Y-60959378D02*
X145181927Y-61226045D01*
X145181927Y-61226045D02*
X145581927Y-61054616D01*
X145581927Y-61397473D02*
X145581927Y-61473664D01*
X145581927Y-61473664D02*
X145562880Y-61511759D01*
X145562880Y-61511759D02*
X145543832Y-61530807D01*
X145543832Y-61530807D02*
X145486689Y-61568902D01*
X145486689Y-61568902D02*
X145410499Y-61587949D01*
X145410499Y-61587949D02*
X145258118Y-61587949D01*
X145258118Y-61587949D02*
X145220022Y-61568902D01*
X145220022Y-61568902D02*
X145200975Y-61549854D01*
X145200975Y-61549854D02*
X145181927Y-61511759D01*
X145181927Y-61511759D02*
X145181927Y-61435568D01*
X145181927Y-61435568D02*
X145200975Y-61397473D01*
X145200975Y-61397473D02*
X145220022Y-61378426D01*
X145220022Y-61378426D02*
X145258118Y-61359378D01*
X145258118Y-61359378D02*
X145353356Y-61359378D01*
X145353356Y-61359378D02*
X145391451Y-61378426D01*
X145391451Y-61378426D02*
X145410499Y-61397473D01*
X145410499Y-61397473D02*
X145429546Y-61435568D01*
X145429546Y-61435568D02*
X145429546Y-61511759D01*
X145429546Y-61511759D02*
X145410499Y-61549854D01*
X145410499Y-61549854D02*
X145391451Y-61568902D01*
X145391451Y-61568902D02*
X145353356Y-61587949D01*
D10*
X147164765Y-74414285D02*
X147176670Y-74402381D01*
X147176670Y-74402381D02*
X147188574Y-74366666D01*
X147188574Y-74366666D02*
X147188574Y-74342857D01*
X147188574Y-74342857D02*
X147176670Y-74307143D01*
X147176670Y-74307143D02*
X147152860Y-74283333D01*
X147152860Y-74283333D02*
X147129050Y-74271428D01*
X147129050Y-74271428D02*
X147081431Y-74259524D01*
X147081431Y-74259524D02*
X147045717Y-74259524D01*
X147045717Y-74259524D02*
X146998098Y-74271428D01*
X146998098Y-74271428D02*
X146974289Y-74283333D01*
X146974289Y-74283333D02*
X146950479Y-74307143D01*
X146950479Y-74307143D02*
X146938574Y-74342857D01*
X146938574Y-74342857D02*
X146938574Y-74366666D01*
X146938574Y-74366666D02*
X146950479Y-74402381D01*
X146950479Y-74402381D02*
X146962384Y-74414285D01*
X146962384Y-74509524D02*
X146950479Y-74521428D01*
X146950479Y-74521428D02*
X146938574Y-74545238D01*
X146938574Y-74545238D02*
X146938574Y-74604762D01*
X146938574Y-74604762D02*
X146950479Y-74628571D01*
X146950479Y-74628571D02*
X146962384Y-74640476D01*
X146962384Y-74640476D02*
X146986193Y-74652381D01*
X146986193Y-74652381D02*
X147010003Y-74652381D01*
X147010003Y-74652381D02*
X147045717Y-74640476D01*
X147045717Y-74640476D02*
X147188574Y-74497619D01*
X147188574Y-74497619D02*
X147188574Y-74652381D01*
X146938574Y-74807142D02*
X146938574Y-74830952D01*
X146938574Y-74830952D02*
X146950479Y-74854761D01*
X146950479Y-74854761D02*
X146962384Y-74866666D01*
X146962384Y-74866666D02*
X146986193Y-74878571D01*
X146986193Y-74878571D02*
X147033812Y-74890476D01*
X147033812Y-74890476D02*
X147093336Y-74890476D01*
X147093336Y-74890476D02*
X147140955Y-74878571D01*
X147140955Y-74878571D02*
X147164765Y-74866666D01*
X147164765Y-74866666D02*
X147176670Y-74854761D01*
X147176670Y-74854761D02*
X147188574Y-74830952D01*
X147188574Y-74830952D02*
X147188574Y-74807142D01*
X147188574Y-74807142D02*
X147176670Y-74783333D01*
X147176670Y-74783333D02*
X147164765Y-74771428D01*
X147164765Y-74771428D02*
X147140955Y-74759523D01*
X147140955Y-74759523D02*
X147093336Y-74747619D01*
X147093336Y-74747619D02*
X147033812Y-74747619D01*
X147033812Y-74747619D02*
X146986193Y-74759523D01*
X146986193Y-74759523D02*
X146962384Y-74771428D01*
X146962384Y-74771428D02*
X146950479Y-74783333D01*
X146950479Y-74783333D02*
X146938574Y-74807142D01*
D11*
X144507142Y-68018832D02*
X144526190Y-68037880D01*
X144526190Y-68037880D02*
X144583332Y-68056927D01*
X144583332Y-68056927D02*
X144621428Y-68056927D01*
X144621428Y-68056927D02*
X144678571Y-68037880D01*
X144678571Y-68037880D02*
X144716666Y-67999784D01*
X144716666Y-67999784D02*
X144735713Y-67961689D01*
X144735713Y-67961689D02*
X144754761Y-67885499D01*
X144754761Y-67885499D02*
X144754761Y-67828356D01*
X144754761Y-67828356D02*
X144735713Y-67752165D01*
X144735713Y-67752165D02*
X144716666Y-67714070D01*
X144716666Y-67714070D02*
X144678571Y-67675975D01*
X144678571Y-67675975D02*
X144621428Y-67656927D01*
X144621428Y-67656927D02*
X144583332Y-67656927D01*
X144583332Y-67656927D02*
X144526190Y-67675975D01*
X144526190Y-67675975D02*
X144507142Y-67695022D01*
X144164285Y-67790260D02*
X144164285Y-68056927D01*
X144259523Y-67637880D02*
X144354761Y-67923594D01*
X144354761Y-67923594D02*
X144107142Y-67923594D01*
X143973809Y-67695022D02*
X143954761Y-67675975D01*
X143954761Y-67675975D02*
X143916666Y-67656927D01*
X143916666Y-67656927D02*
X143821428Y-67656927D01*
X143821428Y-67656927D02*
X143783333Y-67675975D01*
X143783333Y-67675975D02*
X143764285Y-67695022D01*
X143764285Y-67695022D02*
X143745238Y-67733118D01*
X143745238Y-67733118D02*
X143745238Y-67771213D01*
X143745238Y-67771213D02*
X143764285Y-67828356D01*
X143764285Y-67828356D02*
X143992857Y-68056927D01*
X143992857Y-68056927D02*
X143745238Y-68056927D01*
X148643832Y-89342857D02*
X148662880Y-89323809D01*
X148662880Y-89323809D02*
X148681927Y-89266667D01*
X148681927Y-89266667D02*
X148681927Y-89228571D01*
X148681927Y-89228571D02*
X148662880Y-89171428D01*
X148662880Y-89171428D02*
X148624784Y-89133333D01*
X148624784Y-89133333D02*
X148586689Y-89114286D01*
X148586689Y-89114286D02*
X148510499Y-89095238D01*
X148510499Y-89095238D02*
X148453356Y-89095238D01*
X148453356Y-89095238D02*
X148377165Y-89114286D01*
X148377165Y-89114286D02*
X148339070Y-89133333D01*
X148339070Y-89133333D02*
X148300975Y-89171428D01*
X148300975Y-89171428D02*
X148281927Y-89228571D01*
X148281927Y-89228571D02*
X148281927Y-89266667D01*
X148281927Y-89266667D02*
X148300975Y-89323809D01*
X148300975Y-89323809D02*
X148320022Y-89342857D01*
X148415260Y-89685714D02*
X148681927Y-89685714D01*
X148262880Y-89590476D02*
X148548594Y-89495238D01*
X148548594Y-89495238D02*
X148548594Y-89742857D01*
X148453356Y-89952380D02*
X148434308Y-89914285D01*
X148434308Y-89914285D02*
X148415260Y-89895238D01*
X148415260Y-89895238D02*
X148377165Y-89876190D01*
X148377165Y-89876190D02*
X148358118Y-89876190D01*
X148358118Y-89876190D02*
X148320022Y-89895238D01*
X148320022Y-89895238D02*
X148300975Y-89914285D01*
X148300975Y-89914285D02*
X148281927Y-89952380D01*
X148281927Y-89952380D02*
X148281927Y-90028571D01*
X148281927Y-90028571D02*
X148300975Y-90066666D01*
X148300975Y-90066666D02*
X148320022Y-90085714D01*
X148320022Y-90085714D02*
X148358118Y-90104761D01*
X148358118Y-90104761D02*
X148377165Y-90104761D01*
X148377165Y-90104761D02*
X148415260Y-90085714D01*
X148415260Y-90085714D02*
X148434308Y-90066666D01*
X148434308Y-90066666D02*
X148453356Y-90028571D01*
X148453356Y-90028571D02*
X148453356Y-89952380D01*
X148453356Y-89952380D02*
X148472403Y-89914285D01*
X148472403Y-89914285D02*
X148491451Y-89895238D01*
X148491451Y-89895238D02*
X148529546Y-89876190D01*
X148529546Y-89876190D02*
X148605737Y-89876190D01*
X148605737Y-89876190D02*
X148643832Y-89895238D01*
X148643832Y-89895238D02*
X148662880Y-89914285D01*
X148662880Y-89914285D02*
X148681927Y-89952380D01*
X148681927Y-89952380D02*
X148681927Y-90028571D01*
X148681927Y-90028571D02*
X148662880Y-90066666D01*
X148662880Y-90066666D02*
X148643832Y-90085714D01*
X148643832Y-90085714D02*
X148605737Y-90104761D01*
X148605737Y-90104761D02*
X148529546Y-90104761D01*
X148529546Y-90104761D02*
X148491451Y-90085714D01*
X148491451Y-90085714D02*
X148472403Y-90066666D01*
X148472403Y-90066666D02*
X148453356Y-90028571D01*
D10*
X146609765Y-81064285D02*
X146621670Y-81052381D01*
X146621670Y-81052381D02*
X146633574Y-81016666D01*
X146633574Y-81016666D02*
X146633574Y-80992857D01*
X146633574Y-80992857D02*
X146621670Y-80957143D01*
X146621670Y-80957143D02*
X146597860Y-80933333D01*
X146597860Y-80933333D02*
X146574050Y-80921428D01*
X146574050Y-80921428D02*
X146526431Y-80909524D01*
X146526431Y-80909524D02*
X146490717Y-80909524D01*
X146490717Y-80909524D02*
X146443098Y-80921428D01*
X146443098Y-80921428D02*
X146419289Y-80933333D01*
X146419289Y-80933333D02*
X146395479Y-80957143D01*
X146395479Y-80957143D02*
X146383574Y-80992857D01*
X146383574Y-80992857D02*
X146383574Y-81016666D01*
X146383574Y-81016666D02*
X146395479Y-81052381D01*
X146395479Y-81052381D02*
X146407384Y-81064285D01*
X146633574Y-81302381D02*
X146633574Y-81159524D01*
X146633574Y-81230952D02*
X146383574Y-81230952D01*
X146383574Y-81230952D02*
X146419289Y-81207143D01*
X146419289Y-81207143D02*
X146443098Y-81183333D01*
X146443098Y-81183333D02*
X146455003Y-81159524D01*
X146633574Y-81540476D02*
X146633574Y-81397619D01*
X146633574Y-81469047D02*
X146383574Y-81469047D01*
X146383574Y-81469047D02*
X146419289Y-81445238D01*
X146419289Y-81445238D02*
X146443098Y-81421428D01*
X146443098Y-81421428D02*
X146455003Y-81397619D01*
D11*
X148493832Y-66792857D02*
X148512880Y-66773809D01*
X148512880Y-66773809D02*
X148531927Y-66716667D01*
X148531927Y-66716667D02*
X148531927Y-66678571D01*
X148531927Y-66678571D02*
X148512880Y-66621428D01*
X148512880Y-66621428D02*
X148474784Y-66583333D01*
X148474784Y-66583333D02*
X148436689Y-66564286D01*
X148436689Y-66564286D02*
X148360499Y-66545238D01*
X148360499Y-66545238D02*
X148303356Y-66545238D01*
X148303356Y-66545238D02*
X148227165Y-66564286D01*
X148227165Y-66564286D02*
X148189070Y-66583333D01*
X148189070Y-66583333D02*
X148150975Y-66621428D01*
X148150975Y-66621428D02*
X148131927Y-66678571D01*
X148131927Y-66678571D02*
X148131927Y-66716667D01*
X148131927Y-66716667D02*
X148150975Y-66773809D01*
X148150975Y-66773809D02*
X148170022Y-66792857D01*
X148265260Y-67135714D02*
X148531927Y-67135714D01*
X148112880Y-67040476D02*
X148398594Y-66945238D01*
X148398594Y-66945238D02*
X148398594Y-67192857D01*
X148531927Y-67554761D02*
X148531927Y-67326190D01*
X148531927Y-67440476D02*
X148131927Y-67440476D01*
X148131927Y-67440476D02*
X148189070Y-67402380D01*
X148189070Y-67402380D02*
X148227165Y-67364285D01*
X148227165Y-67364285D02*
X148246213Y-67326190D01*
D10*
X144055714Y-79489765D02*
X144067618Y-79501670D01*
X144067618Y-79501670D02*
X144103333Y-79513574D01*
X144103333Y-79513574D02*
X144127142Y-79513574D01*
X144127142Y-79513574D02*
X144162856Y-79501670D01*
X144162856Y-79501670D02*
X144186666Y-79477860D01*
X144186666Y-79477860D02*
X144198571Y-79454050D01*
X144198571Y-79454050D02*
X144210475Y-79406431D01*
X144210475Y-79406431D02*
X144210475Y-79370717D01*
X144210475Y-79370717D02*
X144198571Y-79323098D01*
X144198571Y-79323098D02*
X144186666Y-79299289D01*
X144186666Y-79299289D02*
X144162856Y-79275479D01*
X144162856Y-79275479D02*
X144127142Y-79263574D01*
X144127142Y-79263574D02*
X144103333Y-79263574D01*
X144103333Y-79263574D02*
X144067618Y-79275479D01*
X144067618Y-79275479D02*
X144055714Y-79287384D01*
X143817618Y-79513574D02*
X143960475Y-79513574D01*
X143889047Y-79513574D02*
X143889047Y-79263574D01*
X143889047Y-79263574D02*
X143912856Y-79299289D01*
X143912856Y-79299289D02*
X143936666Y-79323098D01*
X143936666Y-79323098D02*
X143960475Y-79335003D01*
X143591428Y-79263574D02*
X143710476Y-79263574D01*
X143710476Y-79263574D02*
X143722380Y-79382622D01*
X143722380Y-79382622D02*
X143710476Y-79370717D01*
X143710476Y-79370717D02*
X143686666Y-79358812D01*
X143686666Y-79358812D02*
X143627142Y-79358812D01*
X143627142Y-79358812D02*
X143603333Y-79370717D01*
X143603333Y-79370717D02*
X143591428Y-79382622D01*
X143591428Y-79382622D02*
X143579523Y-79406431D01*
X143579523Y-79406431D02*
X143579523Y-79465955D01*
X143579523Y-79465955D02*
X143591428Y-79489765D01*
X143591428Y-79489765D02*
X143603333Y-79501670D01*
X143603333Y-79501670D02*
X143627142Y-79513574D01*
X143627142Y-79513574D02*
X143686666Y-79513574D01*
X143686666Y-79513574D02*
X143710476Y-79501670D01*
X143710476Y-79501670D02*
X143722380Y-79489765D01*
X149241666Y-78814765D02*
X149253570Y-78826670D01*
X149253570Y-78826670D02*
X149289285Y-78838574D01*
X149289285Y-78838574D02*
X149313094Y-78838574D01*
X149313094Y-78838574D02*
X149348808Y-78826670D01*
X149348808Y-78826670D02*
X149372618Y-78802860D01*
X149372618Y-78802860D02*
X149384523Y-78779050D01*
X149384523Y-78779050D02*
X149396427Y-78731431D01*
X149396427Y-78731431D02*
X149396427Y-78695717D01*
X149396427Y-78695717D02*
X149384523Y-78648098D01*
X149384523Y-78648098D02*
X149372618Y-78624289D01*
X149372618Y-78624289D02*
X149348808Y-78600479D01*
X149348808Y-78600479D02*
X149313094Y-78588574D01*
X149313094Y-78588574D02*
X149289285Y-78588574D01*
X149289285Y-78588574D02*
X149253570Y-78600479D01*
X149253570Y-78600479D02*
X149241666Y-78612384D01*
X149098808Y-78695717D02*
X149122618Y-78683812D01*
X149122618Y-78683812D02*
X149134523Y-78671908D01*
X149134523Y-78671908D02*
X149146427Y-78648098D01*
X149146427Y-78648098D02*
X149146427Y-78636193D01*
X149146427Y-78636193D02*
X149134523Y-78612384D01*
X149134523Y-78612384D02*
X149122618Y-78600479D01*
X149122618Y-78600479D02*
X149098808Y-78588574D01*
X149098808Y-78588574D02*
X149051189Y-78588574D01*
X149051189Y-78588574D02*
X149027380Y-78600479D01*
X149027380Y-78600479D02*
X149015475Y-78612384D01*
X149015475Y-78612384D02*
X149003570Y-78636193D01*
X149003570Y-78636193D02*
X149003570Y-78648098D01*
X149003570Y-78648098D02*
X149015475Y-78671908D01*
X149015475Y-78671908D02*
X149027380Y-78683812D01*
X149027380Y-78683812D02*
X149051189Y-78695717D01*
X149051189Y-78695717D02*
X149098808Y-78695717D01*
X149098808Y-78695717D02*
X149122618Y-78707622D01*
X149122618Y-78707622D02*
X149134523Y-78719527D01*
X149134523Y-78719527D02*
X149146427Y-78743336D01*
X149146427Y-78743336D02*
X149146427Y-78790955D01*
X149146427Y-78790955D02*
X149134523Y-78814765D01*
X149134523Y-78814765D02*
X149122618Y-78826670D01*
X149122618Y-78826670D02*
X149098808Y-78838574D01*
X149098808Y-78838574D02*
X149051189Y-78838574D01*
X149051189Y-78838574D02*
X149027380Y-78826670D01*
X149027380Y-78826670D02*
X149015475Y-78814765D01*
X149015475Y-78814765D02*
X149003570Y-78790955D01*
X149003570Y-78790955D02*
X149003570Y-78743336D01*
X149003570Y-78743336D02*
X149015475Y-78719527D01*
X149015475Y-78719527D02*
X149027380Y-78707622D01*
X149027380Y-78707622D02*
X149051189Y-78695717D01*
D11*
X138207142Y-79418832D02*
X138226190Y-79437880D01*
X138226190Y-79437880D02*
X138283332Y-79456927D01*
X138283332Y-79456927D02*
X138321428Y-79456927D01*
X138321428Y-79456927D02*
X138378571Y-79437880D01*
X138378571Y-79437880D02*
X138416666Y-79399784D01*
X138416666Y-79399784D02*
X138435713Y-79361689D01*
X138435713Y-79361689D02*
X138454761Y-79285499D01*
X138454761Y-79285499D02*
X138454761Y-79228356D01*
X138454761Y-79228356D02*
X138435713Y-79152165D01*
X138435713Y-79152165D02*
X138416666Y-79114070D01*
X138416666Y-79114070D02*
X138378571Y-79075975D01*
X138378571Y-79075975D02*
X138321428Y-79056927D01*
X138321428Y-79056927D02*
X138283332Y-79056927D01*
X138283332Y-79056927D02*
X138226190Y-79075975D01*
X138226190Y-79075975D02*
X138207142Y-79095022D01*
X137864285Y-79190260D02*
X137864285Y-79456927D01*
X137959523Y-79037880D02*
X138054761Y-79323594D01*
X138054761Y-79323594D02*
X137807142Y-79323594D01*
X137483333Y-79190260D02*
X137483333Y-79456927D01*
X137578571Y-79037880D02*
X137673809Y-79323594D01*
X137673809Y-79323594D02*
X137426190Y-79323594D01*
X165131927Y-65217857D02*
X164941451Y-65084524D01*
X165131927Y-64989286D02*
X164731927Y-64989286D01*
X164731927Y-64989286D02*
X164731927Y-65141667D01*
X164731927Y-65141667D02*
X164750975Y-65179762D01*
X164750975Y-65179762D02*
X164770022Y-65198809D01*
X164770022Y-65198809D02*
X164808118Y-65217857D01*
X164808118Y-65217857D02*
X164865260Y-65217857D01*
X164865260Y-65217857D02*
X164903356Y-65198809D01*
X164903356Y-65198809D02*
X164922403Y-65179762D01*
X164922403Y-65179762D02*
X164941451Y-65141667D01*
X164941451Y-65141667D02*
X164941451Y-64989286D01*
X164731927Y-65351190D02*
X164731927Y-65598809D01*
X164731927Y-65598809D02*
X164884308Y-65465476D01*
X164884308Y-65465476D02*
X164884308Y-65522619D01*
X164884308Y-65522619D02*
X164903356Y-65560714D01*
X164903356Y-65560714D02*
X164922403Y-65579762D01*
X164922403Y-65579762D02*
X164960499Y-65598809D01*
X164960499Y-65598809D02*
X165055737Y-65598809D01*
X165055737Y-65598809D02*
X165093832Y-65579762D01*
X165093832Y-65579762D02*
X165112880Y-65560714D01*
X165112880Y-65560714D02*
X165131927Y-65522619D01*
X165131927Y-65522619D02*
X165131927Y-65408333D01*
X165131927Y-65408333D02*
X165112880Y-65370238D01*
X165112880Y-65370238D02*
X165093832Y-65351190D01*
X164731927Y-65960714D02*
X164731927Y-65770238D01*
X164731927Y-65770238D02*
X164922403Y-65751190D01*
X164922403Y-65751190D02*
X164903356Y-65770238D01*
X164903356Y-65770238D02*
X164884308Y-65808333D01*
X164884308Y-65808333D02*
X164884308Y-65903571D01*
X164884308Y-65903571D02*
X164903356Y-65941666D01*
X164903356Y-65941666D02*
X164922403Y-65960714D01*
X164922403Y-65960714D02*
X164960499Y-65979761D01*
X164960499Y-65979761D02*
X165055737Y-65979761D01*
X165055737Y-65979761D02*
X165093832Y-65960714D01*
X165093832Y-65960714D02*
X165112880Y-65941666D01*
X165112880Y-65941666D02*
X165131927Y-65903571D01*
X165131927Y-65903571D02*
X165131927Y-65808333D01*
X165131927Y-65808333D02*
X165112880Y-65770238D01*
X165112880Y-65770238D02*
X165093832Y-65751190D01*
D10*
X146189765Y-74414285D02*
X146201670Y-74402381D01*
X146201670Y-74402381D02*
X146213574Y-74366666D01*
X146213574Y-74366666D02*
X146213574Y-74342857D01*
X146213574Y-74342857D02*
X146201670Y-74307143D01*
X146201670Y-74307143D02*
X146177860Y-74283333D01*
X146177860Y-74283333D02*
X146154050Y-74271428D01*
X146154050Y-74271428D02*
X146106431Y-74259524D01*
X146106431Y-74259524D02*
X146070717Y-74259524D01*
X146070717Y-74259524D02*
X146023098Y-74271428D01*
X146023098Y-74271428D02*
X145999289Y-74283333D01*
X145999289Y-74283333D02*
X145975479Y-74307143D01*
X145975479Y-74307143D02*
X145963574Y-74342857D01*
X145963574Y-74342857D02*
X145963574Y-74366666D01*
X145963574Y-74366666D02*
X145975479Y-74402381D01*
X145975479Y-74402381D02*
X145987384Y-74414285D01*
X146213574Y-74652381D02*
X146213574Y-74509524D01*
X146213574Y-74580952D02*
X145963574Y-74580952D01*
X145963574Y-74580952D02*
X145999289Y-74557143D01*
X145999289Y-74557143D02*
X146023098Y-74533333D01*
X146023098Y-74533333D02*
X146035003Y-74509524D01*
X146070717Y-74795238D02*
X146058812Y-74771428D01*
X146058812Y-74771428D02*
X146046908Y-74759523D01*
X146046908Y-74759523D02*
X146023098Y-74747619D01*
X146023098Y-74747619D02*
X146011193Y-74747619D01*
X146011193Y-74747619D02*
X145987384Y-74759523D01*
X145987384Y-74759523D02*
X145975479Y-74771428D01*
X145975479Y-74771428D02*
X145963574Y-74795238D01*
X145963574Y-74795238D02*
X145963574Y-74842857D01*
X145963574Y-74842857D02*
X145975479Y-74866666D01*
X145975479Y-74866666D02*
X145987384Y-74878571D01*
X145987384Y-74878571D02*
X146011193Y-74890476D01*
X146011193Y-74890476D02*
X146023098Y-74890476D01*
X146023098Y-74890476D02*
X146046908Y-74878571D01*
X146046908Y-74878571D02*
X146058812Y-74866666D01*
X146058812Y-74866666D02*
X146070717Y-74842857D01*
X146070717Y-74842857D02*
X146070717Y-74795238D01*
X146070717Y-74795238D02*
X146082622Y-74771428D01*
X146082622Y-74771428D02*
X146094527Y-74759523D01*
X146094527Y-74759523D02*
X146118336Y-74747619D01*
X146118336Y-74747619D02*
X146165955Y-74747619D01*
X146165955Y-74747619D02*
X146189765Y-74759523D01*
X146189765Y-74759523D02*
X146201670Y-74771428D01*
X146201670Y-74771428D02*
X146213574Y-74795238D01*
X146213574Y-74795238D02*
X146213574Y-74842857D01*
X146213574Y-74842857D02*
X146201670Y-74866666D01*
X146201670Y-74866666D02*
X146189765Y-74878571D01*
X146189765Y-74878571D02*
X146165955Y-74890476D01*
X146165955Y-74890476D02*
X146118336Y-74890476D01*
X146118336Y-74890476D02*
X146094527Y-74878571D01*
X146094527Y-74878571D02*
X146082622Y-74866666D01*
X146082622Y-74866666D02*
X146070717Y-74842857D01*
D11*
X138257142Y-82556927D02*
X138390475Y-82366451D01*
X138485713Y-82556927D02*
X138485713Y-82156927D01*
X138485713Y-82156927D02*
X138333332Y-82156927D01*
X138333332Y-82156927D02*
X138295237Y-82175975D01*
X138295237Y-82175975D02*
X138276190Y-82195022D01*
X138276190Y-82195022D02*
X138257142Y-82233118D01*
X138257142Y-82233118D02*
X138257142Y-82290260D01*
X138257142Y-82290260D02*
X138276190Y-82328356D01*
X138276190Y-82328356D02*
X138295237Y-82347403D01*
X138295237Y-82347403D02*
X138333332Y-82366451D01*
X138333332Y-82366451D02*
X138485713Y-82366451D01*
X137876190Y-82556927D02*
X138104761Y-82556927D01*
X137990475Y-82556927D02*
X137990475Y-82156927D01*
X137990475Y-82156927D02*
X138028571Y-82214070D01*
X138028571Y-82214070D02*
X138066666Y-82252165D01*
X138066666Y-82252165D02*
X138104761Y-82271213D01*
X137685714Y-82556927D02*
X137609523Y-82556927D01*
X137609523Y-82556927D02*
X137571428Y-82537880D01*
X137571428Y-82537880D02*
X137552380Y-82518832D01*
X137552380Y-82518832D02*
X137514285Y-82461689D01*
X137514285Y-82461689D02*
X137495238Y-82385499D01*
X137495238Y-82385499D02*
X137495238Y-82233118D01*
X137495238Y-82233118D02*
X137514285Y-82195022D01*
X137514285Y-82195022D02*
X137533333Y-82175975D01*
X137533333Y-82175975D02*
X137571428Y-82156927D01*
X137571428Y-82156927D02*
X137647619Y-82156927D01*
X137647619Y-82156927D02*
X137685714Y-82175975D01*
X137685714Y-82175975D02*
X137704761Y-82195022D01*
X137704761Y-82195022D02*
X137723809Y-82233118D01*
X137723809Y-82233118D02*
X137723809Y-82328356D01*
X137723809Y-82328356D02*
X137704761Y-82366451D01*
X137704761Y-82366451D02*
X137685714Y-82385499D01*
X137685714Y-82385499D02*
X137647619Y-82404546D01*
X137647619Y-82404546D02*
X137571428Y-82404546D01*
X137571428Y-82404546D02*
X137533333Y-82385499D01*
X137533333Y-82385499D02*
X137514285Y-82366451D01*
X137514285Y-82366451D02*
X137495238Y-82328356D01*
X138193833Y-64301045D02*
X138212881Y-64281997D01*
X138212881Y-64281997D02*
X138231928Y-64224855D01*
X138231928Y-64224855D02*
X138231928Y-64186759D01*
X138231928Y-64186759D02*
X138212881Y-64129616D01*
X138212881Y-64129616D02*
X138174785Y-64091521D01*
X138174785Y-64091521D02*
X138136690Y-64072474D01*
X138136690Y-64072474D02*
X138060500Y-64053426D01*
X138060500Y-64053426D02*
X138003357Y-64053426D01*
X138003357Y-64053426D02*
X137927166Y-64072474D01*
X137927166Y-64072474D02*
X137889071Y-64091521D01*
X137889071Y-64091521D02*
X137850976Y-64129616D01*
X137850976Y-64129616D02*
X137831928Y-64186759D01*
X137831928Y-64186759D02*
X137831928Y-64224855D01*
X137831928Y-64224855D02*
X137850976Y-64281997D01*
X137850976Y-64281997D02*
X137870023Y-64301045D01*
X138003357Y-64529616D02*
X137984309Y-64491521D01*
X137984309Y-64491521D02*
X137965261Y-64472474D01*
X137965261Y-64472474D02*
X137927166Y-64453426D01*
X137927166Y-64453426D02*
X137908119Y-64453426D01*
X137908119Y-64453426D02*
X137870023Y-64472474D01*
X137870023Y-64472474D02*
X137850976Y-64491521D01*
X137850976Y-64491521D02*
X137831928Y-64529616D01*
X137831928Y-64529616D02*
X137831928Y-64605807D01*
X137831928Y-64605807D02*
X137850976Y-64643902D01*
X137850976Y-64643902D02*
X137870023Y-64662950D01*
X137870023Y-64662950D02*
X137908119Y-64681997D01*
X137908119Y-64681997D02*
X137927166Y-64681997D01*
X137927166Y-64681997D02*
X137965261Y-64662950D01*
X137965261Y-64662950D02*
X137984309Y-64643902D01*
X137984309Y-64643902D02*
X138003357Y-64605807D01*
X138003357Y-64605807D02*
X138003357Y-64529616D01*
X138003357Y-64529616D02*
X138022404Y-64491521D01*
X138022404Y-64491521D02*
X138041452Y-64472474D01*
X138041452Y-64472474D02*
X138079547Y-64453426D01*
X138079547Y-64453426D02*
X138155738Y-64453426D01*
X138155738Y-64453426D02*
X138193833Y-64472474D01*
X138193833Y-64472474D02*
X138212881Y-64491521D01*
X138212881Y-64491521D02*
X138231928Y-64529616D01*
X138231928Y-64529616D02*
X138231928Y-64605807D01*
X138231928Y-64605807D02*
X138212881Y-64643902D01*
X138212881Y-64643902D02*
X138193833Y-64662950D01*
X138193833Y-64662950D02*
X138155738Y-64681997D01*
X138155738Y-64681997D02*
X138079547Y-64681997D01*
X138079547Y-64681997D02*
X138041452Y-64662950D01*
X138041452Y-64662950D02*
X138022404Y-64643902D01*
X138022404Y-64643902D02*
X138003357Y-64605807D01*
X137870023Y-64834378D02*
X137850976Y-64853426D01*
X137850976Y-64853426D02*
X137831928Y-64891521D01*
X137831928Y-64891521D02*
X137831928Y-64986759D01*
X137831928Y-64986759D02*
X137850976Y-65024854D01*
X137850976Y-65024854D02*
X137870023Y-65043902D01*
X137870023Y-65043902D02*
X137908119Y-65062949D01*
X137908119Y-65062949D02*
X137946214Y-65062949D01*
X137946214Y-65062949D02*
X138003357Y-65043902D01*
X138003357Y-65043902D02*
X138231928Y-64815330D01*
X138231928Y-64815330D02*
X138231928Y-65062949D01*
X154982142Y-77218832D02*
X155001190Y-77237880D01*
X155001190Y-77237880D02*
X155058332Y-77256927D01*
X155058332Y-77256927D02*
X155096428Y-77256927D01*
X155096428Y-77256927D02*
X155153571Y-77237880D01*
X155153571Y-77237880D02*
X155191666Y-77199784D01*
X155191666Y-77199784D02*
X155210713Y-77161689D01*
X155210713Y-77161689D02*
X155229761Y-77085499D01*
X155229761Y-77085499D02*
X155229761Y-77028356D01*
X155229761Y-77028356D02*
X155210713Y-76952165D01*
X155210713Y-76952165D02*
X155191666Y-76914070D01*
X155191666Y-76914070D02*
X155153571Y-76875975D01*
X155153571Y-76875975D02*
X155096428Y-76856927D01*
X155096428Y-76856927D02*
X155058332Y-76856927D01*
X155058332Y-76856927D02*
X155001190Y-76875975D01*
X155001190Y-76875975D02*
X154982142Y-76895022D01*
X154848809Y-76856927D02*
X154601190Y-76856927D01*
X154601190Y-76856927D02*
X154734523Y-77009308D01*
X154734523Y-77009308D02*
X154677380Y-77009308D01*
X154677380Y-77009308D02*
X154639285Y-77028356D01*
X154639285Y-77028356D02*
X154620237Y-77047403D01*
X154620237Y-77047403D02*
X154601190Y-77085499D01*
X154601190Y-77085499D02*
X154601190Y-77180737D01*
X154601190Y-77180737D02*
X154620237Y-77218832D01*
X154620237Y-77218832D02*
X154639285Y-77237880D01*
X154639285Y-77237880D02*
X154677380Y-77256927D01*
X154677380Y-77256927D02*
X154791666Y-77256927D01*
X154791666Y-77256927D02*
X154829761Y-77237880D01*
X154829761Y-77237880D02*
X154848809Y-77218832D01*
X154410714Y-77256927D02*
X154334523Y-77256927D01*
X154334523Y-77256927D02*
X154296428Y-77237880D01*
X154296428Y-77237880D02*
X154277380Y-77218832D01*
X154277380Y-77218832D02*
X154239285Y-77161689D01*
X154239285Y-77161689D02*
X154220238Y-77085499D01*
X154220238Y-77085499D02*
X154220238Y-76933118D01*
X154220238Y-76933118D02*
X154239285Y-76895022D01*
X154239285Y-76895022D02*
X154258333Y-76875975D01*
X154258333Y-76875975D02*
X154296428Y-76856927D01*
X154296428Y-76856927D02*
X154372619Y-76856927D01*
X154372619Y-76856927D02*
X154410714Y-76875975D01*
X154410714Y-76875975D02*
X154429761Y-76895022D01*
X154429761Y-76895022D02*
X154448809Y-76933118D01*
X154448809Y-76933118D02*
X154448809Y-77028356D01*
X154448809Y-77028356D02*
X154429761Y-77066451D01*
X154429761Y-77066451D02*
X154410714Y-77085499D01*
X154410714Y-77085499D02*
X154372619Y-77104546D01*
X154372619Y-77104546D02*
X154296428Y-77104546D01*
X154296428Y-77104546D02*
X154258333Y-77085499D01*
X154258333Y-77085499D02*
X154239285Y-77066451D01*
X154239285Y-77066451D02*
X154220238Y-77028356D01*
D10*
X144939765Y-84583333D02*
X144951670Y-84571429D01*
X144951670Y-84571429D02*
X144963574Y-84535714D01*
X144963574Y-84535714D02*
X144963574Y-84511905D01*
X144963574Y-84511905D02*
X144951670Y-84476191D01*
X144951670Y-84476191D02*
X144927860Y-84452381D01*
X144927860Y-84452381D02*
X144904050Y-84440476D01*
X144904050Y-84440476D02*
X144856431Y-84428572D01*
X144856431Y-84428572D02*
X144820717Y-84428572D01*
X144820717Y-84428572D02*
X144773098Y-84440476D01*
X144773098Y-84440476D02*
X144749289Y-84452381D01*
X144749289Y-84452381D02*
X144725479Y-84476191D01*
X144725479Y-84476191D02*
X144713574Y-84511905D01*
X144713574Y-84511905D02*
X144713574Y-84535714D01*
X144713574Y-84535714D02*
X144725479Y-84571429D01*
X144725479Y-84571429D02*
X144737384Y-84583333D01*
X144737384Y-84678572D02*
X144725479Y-84690476D01*
X144725479Y-84690476D02*
X144713574Y-84714286D01*
X144713574Y-84714286D02*
X144713574Y-84773810D01*
X144713574Y-84773810D02*
X144725479Y-84797619D01*
X144725479Y-84797619D02*
X144737384Y-84809524D01*
X144737384Y-84809524D02*
X144761193Y-84821429D01*
X144761193Y-84821429D02*
X144785003Y-84821429D01*
X144785003Y-84821429D02*
X144820717Y-84809524D01*
X144820717Y-84809524D02*
X144963574Y-84666667D01*
X144963574Y-84666667D02*
X144963574Y-84821429D01*
X143959765Y-84588333D02*
X143971670Y-84576429D01*
X143971670Y-84576429D02*
X143983574Y-84540714D01*
X143983574Y-84540714D02*
X143983574Y-84516905D01*
X143983574Y-84516905D02*
X143971670Y-84481191D01*
X143971670Y-84481191D02*
X143947860Y-84457381D01*
X143947860Y-84457381D02*
X143924050Y-84445476D01*
X143924050Y-84445476D02*
X143876431Y-84433572D01*
X143876431Y-84433572D02*
X143840717Y-84433572D01*
X143840717Y-84433572D02*
X143793098Y-84445476D01*
X143793098Y-84445476D02*
X143769289Y-84457381D01*
X143769289Y-84457381D02*
X143745479Y-84481191D01*
X143745479Y-84481191D02*
X143733574Y-84516905D01*
X143733574Y-84516905D02*
X143733574Y-84540714D01*
X143733574Y-84540714D02*
X143745479Y-84576429D01*
X143745479Y-84576429D02*
X143757384Y-84588333D01*
X143733574Y-84671667D02*
X143733574Y-84826429D01*
X143733574Y-84826429D02*
X143828812Y-84743095D01*
X143828812Y-84743095D02*
X143828812Y-84778810D01*
X143828812Y-84778810D02*
X143840717Y-84802619D01*
X143840717Y-84802619D02*
X143852622Y-84814524D01*
X143852622Y-84814524D02*
X143876431Y-84826429D01*
X143876431Y-84826429D02*
X143935955Y-84826429D01*
X143935955Y-84826429D02*
X143959765Y-84814524D01*
X143959765Y-84814524D02*
X143971670Y-84802619D01*
X143971670Y-84802619D02*
X143983574Y-84778810D01*
X143983574Y-84778810D02*
X143983574Y-84707381D01*
X143983574Y-84707381D02*
X143971670Y-84683572D01*
X143971670Y-84683572D02*
X143959765Y-84671667D01*
D11*
X146616666Y-77456927D02*
X146749999Y-77266451D01*
X146845237Y-77456927D02*
X146845237Y-77056927D01*
X146845237Y-77056927D02*
X146692856Y-77056927D01*
X146692856Y-77056927D02*
X146654761Y-77075975D01*
X146654761Y-77075975D02*
X146635714Y-77095022D01*
X146635714Y-77095022D02*
X146616666Y-77133118D01*
X146616666Y-77133118D02*
X146616666Y-77190260D01*
X146616666Y-77190260D02*
X146635714Y-77228356D01*
X146635714Y-77228356D02*
X146654761Y-77247403D01*
X146654761Y-77247403D02*
X146692856Y-77266451D01*
X146692856Y-77266451D02*
X146845237Y-77266451D01*
X146235714Y-77456927D02*
X146464285Y-77456927D01*
X146349999Y-77456927D02*
X146349999Y-77056927D01*
X146349999Y-77056927D02*
X146388095Y-77114070D01*
X146388095Y-77114070D02*
X146426190Y-77152165D01*
X146426190Y-77152165D02*
X146464285Y-77171213D01*
X138157142Y-74531927D02*
X138290475Y-74341451D01*
X138385713Y-74531927D02*
X138385713Y-74131927D01*
X138385713Y-74131927D02*
X138233332Y-74131927D01*
X138233332Y-74131927D02*
X138195237Y-74150975D01*
X138195237Y-74150975D02*
X138176190Y-74170022D01*
X138176190Y-74170022D02*
X138157142Y-74208118D01*
X138157142Y-74208118D02*
X138157142Y-74265260D01*
X138157142Y-74265260D02*
X138176190Y-74303356D01*
X138176190Y-74303356D02*
X138195237Y-74322403D01*
X138195237Y-74322403D02*
X138233332Y-74341451D01*
X138233332Y-74341451D02*
X138385713Y-74341451D01*
X137776190Y-74531927D02*
X138004761Y-74531927D01*
X137890475Y-74531927D02*
X137890475Y-74131927D01*
X137890475Y-74131927D02*
X137928571Y-74189070D01*
X137928571Y-74189070D02*
X137966666Y-74227165D01*
X137966666Y-74227165D02*
X138004761Y-74246213D01*
X137642857Y-74131927D02*
X137376190Y-74131927D01*
X137376190Y-74131927D02*
X137547619Y-74531927D01*
X132182062Y-78718831D02*
X132201110Y-78737879D01*
X132201110Y-78737879D02*
X132258252Y-78756926D01*
X132258252Y-78756926D02*
X132296348Y-78756926D01*
X132296348Y-78756926D02*
X132353491Y-78737879D01*
X132353491Y-78737879D02*
X132391586Y-78699783D01*
X132391586Y-78699783D02*
X132410633Y-78661688D01*
X132410633Y-78661688D02*
X132429681Y-78585498D01*
X132429681Y-78585498D02*
X132429681Y-78528355D01*
X132429681Y-78528355D02*
X132410633Y-78452164D01*
X132410633Y-78452164D02*
X132391586Y-78414069D01*
X132391586Y-78414069D02*
X132353491Y-78375974D01*
X132353491Y-78375974D02*
X132296348Y-78356926D01*
X132296348Y-78356926D02*
X132258252Y-78356926D01*
X132258252Y-78356926D02*
X132201110Y-78375974D01*
X132201110Y-78375974D02*
X132182062Y-78395021D01*
X131801110Y-78756926D02*
X132029681Y-78756926D01*
X131915395Y-78756926D02*
X131915395Y-78356926D01*
X131915395Y-78356926D02*
X131953491Y-78414069D01*
X131953491Y-78414069D02*
X131991586Y-78452164D01*
X131991586Y-78452164D02*
X132029681Y-78471212D01*
X131420158Y-78756926D02*
X131648729Y-78756926D01*
X131534443Y-78756926D02*
X131534443Y-78356926D01*
X131534443Y-78356926D02*
X131572539Y-78414069D01*
X131572539Y-78414069D02*
X131610634Y-78452164D01*
X131610634Y-78452164D02*
X131648729Y-78471212D01*
X131039206Y-78756926D02*
X131267777Y-78756926D01*
X131153491Y-78756926D02*
X131153491Y-78356926D01*
X131153491Y-78356926D02*
X131191587Y-78414069D01*
X131191587Y-78414069D02*
X131229682Y-78452164D01*
X131229682Y-78452164D02*
X131267777Y-78471212D01*
X152743832Y-61853557D02*
X152762880Y-61834509D01*
X152762880Y-61834509D02*
X152781927Y-61777367D01*
X152781927Y-61777367D02*
X152781927Y-61739271D01*
X152781927Y-61739271D02*
X152762880Y-61682128D01*
X152762880Y-61682128D02*
X152724784Y-61644033D01*
X152724784Y-61644033D02*
X152686689Y-61624986D01*
X152686689Y-61624986D02*
X152610499Y-61605938D01*
X152610499Y-61605938D02*
X152553356Y-61605938D01*
X152553356Y-61605938D02*
X152477165Y-61624986D01*
X152477165Y-61624986D02*
X152439070Y-61644033D01*
X152439070Y-61644033D02*
X152400975Y-61682128D01*
X152400975Y-61682128D02*
X152381927Y-61739271D01*
X152381927Y-61739271D02*
X152381927Y-61777367D01*
X152381927Y-61777367D02*
X152400975Y-61834509D01*
X152400975Y-61834509D02*
X152420022Y-61853557D01*
X152381927Y-62196414D02*
X152381927Y-62120224D01*
X152381927Y-62120224D02*
X152400975Y-62082128D01*
X152400975Y-62082128D02*
X152420022Y-62063081D01*
X152420022Y-62063081D02*
X152477165Y-62024986D01*
X152477165Y-62024986D02*
X152553356Y-62005938D01*
X152553356Y-62005938D02*
X152705737Y-62005938D01*
X152705737Y-62005938D02*
X152743832Y-62024986D01*
X152743832Y-62024986D02*
X152762880Y-62044033D01*
X152762880Y-62044033D02*
X152781927Y-62082128D01*
X152781927Y-62082128D02*
X152781927Y-62158319D01*
X152781927Y-62158319D02*
X152762880Y-62196414D01*
X152762880Y-62196414D02*
X152743832Y-62215462D01*
X152743832Y-62215462D02*
X152705737Y-62234509D01*
X152705737Y-62234509D02*
X152610499Y-62234509D01*
X152610499Y-62234509D02*
X152572403Y-62215462D01*
X152572403Y-62215462D02*
X152553356Y-62196414D01*
X152553356Y-62196414D02*
X152534308Y-62158319D01*
X152534308Y-62158319D02*
X152534308Y-62082128D01*
X152534308Y-62082128D02*
X152553356Y-62044033D01*
X152553356Y-62044033D02*
X152572403Y-62024986D01*
X152572403Y-62024986D02*
X152610499Y-62005938D01*
X152781927Y-62424985D02*
X152781927Y-62501176D01*
X152781927Y-62501176D02*
X152762880Y-62539271D01*
X152762880Y-62539271D02*
X152743832Y-62558319D01*
X152743832Y-62558319D02*
X152686689Y-62596414D01*
X152686689Y-62596414D02*
X152610499Y-62615461D01*
X152610499Y-62615461D02*
X152458118Y-62615461D01*
X152458118Y-62615461D02*
X152420022Y-62596414D01*
X152420022Y-62596414D02*
X152400975Y-62577366D01*
X152400975Y-62577366D02*
X152381927Y-62539271D01*
X152381927Y-62539271D02*
X152381927Y-62463080D01*
X152381927Y-62463080D02*
X152400975Y-62424985D01*
X152400975Y-62424985D02*
X152420022Y-62405938D01*
X152420022Y-62405938D02*
X152458118Y-62386890D01*
X152458118Y-62386890D02*
X152553356Y-62386890D01*
X152553356Y-62386890D02*
X152591451Y-62405938D01*
X152591451Y-62405938D02*
X152610499Y-62424985D01*
X152610499Y-62424985D02*
X152629546Y-62463080D01*
X152629546Y-62463080D02*
X152629546Y-62539271D01*
X152629546Y-62539271D02*
X152610499Y-62577366D01*
X152610499Y-62577366D02*
X152591451Y-62596414D01*
X152591451Y-62596414D02*
X152553356Y-62615461D01*
X150656927Y-61626045D02*
X150466451Y-61492712D01*
X150656927Y-61397474D02*
X150256927Y-61397474D01*
X150256927Y-61397474D02*
X150256927Y-61549855D01*
X150256927Y-61549855D02*
X150275975Y-61587950D01*
X150275975Y-61587950D02*
X150295022Y-61606997D01*
X150295022Y-61606997D02*
X150333118Y-61626045D01*
X150333118Y-61626045D02*
X150390260Y-61626045D01*
X150390260Y-61626045D02*
X150428356Y-61606997D01*
X150428356Y-61606997D02*
X150447403Y-61587950D01*
X150447403Y-61587950D02*
X150466451Y-61549855D01*
X150466451Y-61549855D02*
X150466451Y-61397474D01*
X150256927Y-61987950D02*
X150256927Y-61797474D01*
X150256927Y-61797474D02*
X150447403Y-61778426D01*
X150447403Y-61778426D02*
X150428356Y-61797474D01*
X150428356Y-61797474D02*
X150409308Y-61835569D01*
X150409308Y-61835569D02*
X150409308Y-61930807D01*
X150409308Y-61930807D02*
X150428356Y-61968902D01*
X150428356Y-61968902D02*
X150447403Y-61987950D01*
X150447403Y-61987950D02*
X150485499Y-62006997D01*
X150485499Y-62006997D02*
X150580737Y-62006997D01*
X150580737Y-62006997D02*
X150618832Y-61987950D01*
X150618832Y-61987950D02*
X150637880Y-61968902D01*
X150637880Y-61968902D02*
X150656927Y-61930807D01*
X150656927Y-61930807D02*
X150656927Y-61835569D01*
X150656927Y-61835569D02*
X150637880Y-61797474D01*
X150637880Y-61797474D02*
X150618832Y-61778426D01*
X150295022Y-62159378D02*
X150275975Y-62178426D01*
X150275975Y-62178426D02*
X150256927Y-62216521D01*
X150256927Y-62216521D02*
X150256927Y-62311759D01*
X150256927Y-62311759D02*
X150275975Y-62349854D01*
X150275975Y-62349854D02*
X150295022Y-62368902D01*
X150295022Y-62368902D02*
X150333118Y-62387949D01*
X150333118Y-62387949D02*
X150371213Y-62387949D01*
X150371213Y-62387949D02*
X150428356Y-62368902D01*
X150428356Y-62368902D02*
X150656927Y-62140330D01*
X150656927Y-62140330D02*
X150656927Y-62387949D01*
X146943832Y-89317857D02*
X146962880Y-89298809D01*
X146962880Y-89298809D02*
X146981927Y-89241667D01*
X146981927Y-89241667D02*
X146981927Y-89203571D01*
X146981927Y-89203571D02*
X146962880Y-89146428D01*
X146962880Y-89146428D02*
X146924784Y-89108333D01*
X146924784Y-89108333D02*
X146886689Y-89089286D01*
X146886689Y-89089286D02*
X146810499Y-89070238D01*
X146810499Y-89070238D02*
X146753356Y-89070238D01*
X146753356Y-89070238D02*
X146677165Y-89089286D01*
X146677165Y-89089286D02*
X146639070Y-89108333D01*
X146639070Y-89108333D02*
X146600975Y-89146428D01*
X146600975Y-89146428D02*
X146581927Y-89203571D01*
X146581927Y-89203571D02*
X146581927Y-89241667D01*
X146581927Y-89241667D02*
X146600975Y-89298809D01*
X146600975Y-89298809D02*
X146620022Y-89317857D01*
X146715260Y-89660714D02*
X146981927Y-89660714D01*
X146562880Y-89565476D02*
X146848594Y-89470238D01*
X146848594Y-89470238D02*
X146848594Y-89717857D01*
X146981927Y-89889285D02*
X146981927Y-89965476D01*
X146981927Y-89965476D02*
X146962880Y-90003571D01*
X146962880Y-90003571D02*
X146943832Y-90022619D01*
X146943832Y-90022619D02*
X146886689Y-90060714D01*
X146886689Y-90060714D02*
X146810499Y-90079761D01*
X146810499Y-90079761D02*
X146658118Y-90079761D01*
X146658118Y-90079761D02*
X146620022Y-90060714D01*
X146620022Y-90060714D02*
X146600975Y-90041666D01*
X146600975Y-90041666D02*
X146581927Y-90003571D01*
X146581927Y-90003571D02*
X146581927Y-89927380D01*
X146581927Y-89927380D02*
X146600975Y-89889285D01*
X146600975Y-89889285D02*
X146620022Y-89870238D01*
X146620022Y-89870238D02*
X146658118Y-89851190D01*
X146658118Y-89851190D02*
X146753356Y-89851190D01*
X146753356Y-89851190D02*
X146791451Y-89870238D01*
X146791451Y-89870238D02*
X146810499Y-89889285D01*
X146810499Y-89889285D02*
X146829546Y-89927380D01*
X146829546Y-89927380D02*
X146829546Y-90003571D01*
X146829546Y-90003571D02*
X146810499Y-90041666D01*
X146810499Y-90041666D02*
X146791451Y-90060714D01*
X146791451Y-90060714D02*
X146753356Y-90079761D01*
X158056927Y-64028557D02*
X157866451Y-63895224D01*
X158056927Y-63799986D02*
X157656927Y-63799986D01*
X157656927Y-63799986D02*
X157656927Y-63952367D01*
X157656927Y-63952367D02*
X157675975Y-63990462D01*
X157675975Y-63990462D02*
X157695022Y-64009509D01*
X157695022Y-64009509D02*
X157733118Y-64028557D01*
X157733118Y-64028557D02*
X157790260Y-64028557D01*
X157790260Y-64028557D02*
X157828356Y-64009509D01*
X157828356Y-64009509D02*
X157847403Y-63990462D01*
X157847403Y-63990462D02*
X157866451Y-63952367D01*
X157866451Y-63952367D02*
X157866451Y-63799986D01*
X157790260Y-64371414D02*
X158056927Y-64371414D01*
X157637880Y-64276176D02*
X157923594Y-64180938D01*
X157923594Y-64180938D02*
X157923594Y-64428557D01*
X158056927Y-64790461D02*
X158056927Y-64561890D01*
X158056927Y-64676176D02*
X157656927Y-64676176D01*
X157656927Y-64676176D02*
X157714070Y-64638080D01*
X157714070Y-64638080D02*
X157752165Y-64599985D01*
X157752165Y-64599985D02*
X157771213Y-64561890D01*
D10*
X149241666Y-77839765D02*
X149253570Y-77851670D01*
X149253570Y-77851670D02*
X149289285Y-77863574D01*
X149289285Y-77863574D02*
X149313094Y-77863574D01*
X149313094Y-77863574D02*
X149348808Y-77851670D01*
X149348808Y-77851670D02*
X149372618Y-77827860D01*
X149372618Y-77827860D02*
X149384523Y-77804050D01*
X149384523Y-77804050D02*
X149396427Y-77756431D01*
X149396427Y-77756431D02*
X149396427Y-77720717D01*
X149396427Y-77720717D02*
X149384523Y-77673098D01*
X149384523Y-77673098D02*
X149372618Y-77649289D01*
X149372618Y-77649289D02*
X149348808Y-77625479D01*
X149348808Y-77625479D02*
X149313094Y-77613574D01*
X149313094Y-77613574D02*
X149289285Y-77613574D01*
X149289285Y-77613574D02*
X149253570Y-77625479D01*
X149253570Y-77625479D02*
X149241666Y-77637384D01*
X149122618Y-77863574D02*
X149074999Y-77863574D01*
X149074999Y-77863574D02*
X149051189Y-77851670D01*
X149051189Y-77851670D02*
X149039285Y-77839765D01*
X149039285Y-77839765D02*
X149015475Y-77804050D01*
X149015475Y-77804050D02*
X149003570Y-77756431D01*
X149003570Y-77756431D02*
X149003570Y-77661193D01*
X149003570Y-77661193D02*
X149015475Y-77637384D01*
X149015475Y-77637384D02*
X149027380Y-77625479D01*
X149027380Y-77625479D02*
X149051189Y-77613574D01*
X149051189Y-77613574D02*
X149098808Y-77613574D01*
X149098808Y-77613574D02*
X149122618Y-77625479D01*
X149122618Y-77625479D02*
X149134523Y-77637384D01*
X149134523Y-77637384D02*
X149146427Y-77661193D01*
X149146427Y-77661193D02*
X149146427Y-77720717D01*
X149146427Y-77720717D02*
X149134523Y-77744527D01*
X149134523Y-77744527D02*
X149122618Y-77756431D01*
X149122618Y-77756431D02*
X149098808Y-77768336D01*
X149098808Y-77768336D02*
X149051189Y-77768336D01*
X149051189Y-77768336D02*
X149027380Y-77756431D01*
X149027380Y-77756431D02*
X149015475Y-77744527D01*
X149015475Y-77744527D02*
X149003570Y-77720717D01*
X145214765Y-74414285D02*
X145226670Y-74402381D01*
X145226670Y-74402381D02*
X145238574Y-74366666D01*
X145238574Y-74366666D02*
X145238574Y-74342857D01*
X145238574Y-74342857D02*
X145226670Y-74307143D01*
X145226670Y-74307143D02*
X145202860Y-74283333D01*
X145202860Y-74283333D02*
X145179050Y-74271428D01*
X145179050Y-74271428D02*
X145131431Y-74259524D01*
X145131431Y-74259524D02*
X145095717Y-74259524D01*
X145095717Y-74259524D02*
X145048098Y-74271428D01*
X145048098Y-74271428D02*
X145024289Y-74283333D01*
X145024289Y-74283333D02*
X145000479Y-74307143D01*
X145000479Y-74307143D02*
X144988574Y-74342857D01*
X144988574Y-74342857D02*
X144988574Y-74366666D01*
X144988574Y-74366666D02*
X145000479Y-74402381D01*
X145000479Y-74402381D02*
X145012384Y-74414285D01*
X145238574Y-74652381D02*
X145238574Y-74509524D01*
X145238574Y-74580952D02*
X144988574Y-74580952D01*
X144988574Y-74580952D02*
X145024289Y-74557143D01*
X145024289Y-74557143D02*
X145048098Y-74533333D01*
X145048098Y-74533333D02*
X145060003Y-74509524D01*
X145238574Y-74771428D02*
X145238574Y-74819047D01*
X145238574Y-74819047D02*
X145226670Y-74842857D01*
X145226670Y-74842857D02*
X145214765Y-74854761D01*
X145214765Y-74854761D02*
X145179050Y-74878571D01*
X145179050Y-74878571D02*
X145131431Y-74890476D01*
X145131431Y-74890476D02*
X145036193Y-74890476D01*
X145036193Y-74890476D02*
X145012384Y-74878571D01*
X145012384Y-74878571D02*
X145000479Y-74866666D01*
X145000479Y-74866666D02*
X144988574Y-74842857D01*
X144988574Y-74842857D02*
X144988574Y-74795238D01*
X144988574Y-74795238D02*
X145000479Y-74771428D01*
X145000479Y-74771428D02*
X145012384Y-74759523D01*
X145012384Y-74759523D02*
X145036193Y-74747619D01*
X145036193Y-74747619D02*
X145095717Y-74747619D01*
X145095717Y-74747619D02*
X145119527Y-74759523D01*
X145119527Y-74759523D02*
X145131431Y-74771428D01*
X145131431Y-74771428D02*
X145143336Y-74795238D01*
X145143336Y-74795238D02*
X145143336Y-74842857D01*
X145143336Y-74842857D02*
X145131431Y-74866666D01*
X145131431Y-74866666D02*
X145119527Y-74878571D01*
X145119527Y-74878571D02*
X145095717Y-74890476D01*
D11*
X154432142Y-70231927D02*
X154565475Y-70041451D01*
X154660713Y-70231927D02*
X154660713Y-69831927D01*
X154660713Y-69831927D02*
X154508332Y-69831927D01*
X154508332Y-69831927D02*
X154470237Y-69850975D01*
X154470237Y-69850975D02*
X154451190Y-69870022D01*
X154451190Y-69870022D02*
X154432142Y-69908118D01*
X154432142Y-69908118D02*
X154432142Y-69965260D01*
X154432142Y-69965260D02*
X154451190Y-70003356D01*
X154451190Y-70003356D02*
X154470237Y-70022403D01*
X154470237Y-70022403D02*
X154508332Y-70041451D01*
X154508332Y-70041451D02*
X154660713Y-70041451D01*
X154279761Y-69870022D02*
X154260713Y-69850975D01*
X154260713Y-69850975D02*
X154222618Y-69831927D01*
X154222618Y-69831927D02*
X154127380Y-69831927D01*
X154127380Y-69831927D02*
X154089285Y-69850975D01*
X154089285Y-69850975D02*
X154070237Y-69870022D01*
X154070237Y-69870022D02*
X154051190Y-69908118D01*
X154051190Y-69908118D02*
X154051190Y-69946213D01*
X154051190Y-69946213D02*
X154070237Y-70003356D01*
X154070237Y-70003356D02*
X154298809Y-70231927D01*
X154298809Y-70231927D02*
X154051190Y-70231927D01*
X153670238Y-70231927D02*
X153898809Y-70231927D01*
X153784523Y-70231927D02*
X153784523Y-69831927D01*
X153784523Y-69831927D02*
X153822619Y-69889070D01*
X153822619Y-69889070D02*
X153860714Y-69927165D01*
X153860714Y-69927165D02*
X153898809Y-69946213D01*
X127346227Y-82692857D02*
X127155751Y-82559524D01*
X127346227Y-82464286D02*
X126946227Y-82464286D01*
X126946227Y-82464286D02*
X126946227Y-82616667D01*
X126946227Y-82616667D02*
X126965275Y-82654762D01*
X126965275Y-82654762D02*
X126984322Y-82673809D01*
X126984322Y-82673809D02*
X127022418Y-82692857D01*
X127022418Y-82692857D02*
X127079560Y-82692857D01*
X127079560Y-82692857D02*
X127117656Y-82673809D01*
X127117656Y-82673809D02*
X127136703Y-82654762D01*
X127136703Y-82654762D02*
X127155751Y-82616667D01*
X127155751Y-82616667D02*
X127155751Y-82464286D01*
X126946227Y-82826190D02*
X126946227Y-83092857D01*
X126946227Y-83092857D02*
X127346227Y-82921428D01*
X126946227Y-83416666D02*
X126946227Y-83340476D01*
X126946227Y-83340476D02*
X126965275Y-83302380D01*
X126965275Y-83302380D02*
X126984322Y-83283333D01*
X126984322Y-83283333D02*
X127041465Y-83245238D01*
X127041465Y-83245238D02*
X127117656Y-83226190D01*
X127117656Y-83226190D02*
X127270037Y-83226190D01*
X127270037Y-83226190D02*
X127308132Y-83245238D01*
X127308132Y-83245238D02*
X127327180Y-83264285D01*
X127327180Y-83264285D02*
X127346227Y-83302380D01*
X127346227Y-83302380D02*
X127346227Y-83378571D01*
X127346227Y-83378571D02*
X127327180Y-83416666D01*
X127327180Y-83416666D02*
X127308132Y-83435714D01*
X127308132Y-83435714D02*
X127270037Y-83454761D01*
X127270037Y-83454761D02*
X127174799Y-83454761D01*
X127174799Y-83454761D02*
X127136703Y-83435714D01*
X127136703Y-83435714D02*
X127117656Y-83416666D01*
X127117656Y-83416666D02*
X127098608Y-83378571D01*
X127098608Y-83378571D02*
X127098608Y-83302380D01*
X127098608Y-83302380D02*
X127117656Y-83264285D01*
X127117656Y-83264285D02*
X127136703Y-83245238D01*
X127136703Y-83245238D02*
X127174799Y-83226190D01*
X151943832Y-70467857D02*
X151962880Y-70448809D01*
X151962880Y-70448809D02*
X151981927Y-70391667D01*
X151981927Y-70391667D02*
X151981927Y-70353571D01*
X151981927Y-70353571D02*
X151962880Y-70296428D01*
X151962880Y-70296428D02*
X151924784Y-70258333D01*
X151924784Y-70258333D02*
X151886689Y-70239286D01*
X151886689Y-70239286D02*
X151810499Y-70220238D01*
X151810499Y-70220238D02*
X151753356Y-70220238D01*
X151753356Y-70220238D02*
X151677165Y-70239286D01*
X151677165Y-70239286D02*
X151639070Y-70258333D01*
X151639070Y-70258333D02*
X151600975Y-70296428D01*
X151600975Y-70296428D02*
X151581927Y-70353571D01*
X151581927Y-70353571D02*
X151581927Y-70391667D01*
X151581927Y-70391667D02*
X151600975Y-70448809D01*
X151600975Y-70448809D02*
X151620022Y-70467857D01*
X151715260Y-70810714D02*
X151981927Y-70810714D01*
X151562880Y-70715476D02*
X151848594Y-70620238D01*
X151848594Y-70620238D02*
X151848594Y-70867857D01*
X151581927Y-70982142D02*
X151581927Y-71248809D01*
X151581927Y-71248809D02*
X151981927Y-71077380D01*
X128936918Y-85618832D02*
X128955966Y-85637880D01*
X128955966Y-85637880D02*
X129013108Y-85656927D01*
X129013108Y-85656927D02*
X129051204Y-85656927D01*
X129051204Y-85656927D02*
X129108347Y-85637880D01*
X129108347Y-85637880D02*
X129146442Y-85599784D01*
X129146442Y-85599784D02*
X129165489Y-85561689D01*
X129165489Y-85561689D02*
X129184537Y-85485499D01*
X129184537Y-85485499D02*
X129184537Y-85428356D01*
X129184537Y-85428356D02*
X129165489Y-85352165D01*
X129165489Y-85352165D02*
X129146442Y-85314070D01*
X129146442Y-85314070D02*
X129108347Y-85275975D01*
X129108347Y-85275975D02*
X129051204Y-85256927D01*
X129051204Y-85256927D02*
X129013108Y-85256927D01*
X129013108Y-85256927D02*
X128955966Y-85275975D01*
X128955966Y-85275975D02*
X128936918Y-85295022D01*
X128555966Y-85656927D02*
X128784537Y-85656927D01*
X128670251Y-85656927D02*
X128670251Y-85256927D01*
X128670251Y-85256927D02*
X128708347Y-85314070D01*
X128708347Y-85314070D02*
X128746442Y-85352165D01*
X128746442Y-85352165D02*
X128784537Y-85371213D01*
X128403585Y-85295022D02*
X128384537Y-85275975D01*
X128384537Y-85275975D02*
X128346442Y-85256927D01*
X128346442Y-85256927D02*
X128251204Y-85256927D01*
X128251204Y-85256927D02*
X128213109Y-85275975D01*
X128213109Y-85275975D02*
X128194061Y-85295022D01*
X128194061Y-85295022D02*
X128175014Y-85333118D01*
X128175014Y-85333118D02*
X128175014Y-85371213D01*
X128175014Y-85371213D02*
X128194061Y-85428356D01*
X128194061Y-85428356D02*
X128422633Y-85656927D01*
X128422633Y-85656927D02*
X128175014Y-85656927D01*
X127927395Y-85256927D02*
X127889300Y-85256927D01*
X127889300Y-85256927D02*
X127851204Y-85275975D01*
X127851204Y-85275975D02*
X127832157Y-85295022D01*
X127832157Y-85295022D02*
X127813109Y-85333118D01*
X127813109Y-85333118D02*
X127794062Y-85409308D01*
X127794062Y-85409308D02*
X127794062Y-85504546D01*
X127794062Y-85504546D02*
X127813109Y-85580737D01*
X127813109Y-85580737D02*
X127832157Y-85618832D01*
X127832157Y-85618832D02*
X127851204Y-85637880D01*
X127851204Y-85637880D02*
X127889300Y-85656927D01*
X127889300Y-85656927D02*
X127927395Y-85656927D01*
X127927395Y-85656927D02*
X127965490Y-85637880D01*
X127965490Y-85637880D02*
X127984538Y-85618832D01*
X127984538Y-85618832D02*
X128003585Y-85580737D01*
X128003585Y-85580737D02*
X128022633Y-85504546D01*
X128022633Y-85504546D02*
X128022633Y-85409308D01*
X128022633Y-85409308D02*
X128003585Y-85333118D01*
X128003585Y-85333118D02*
X127984538Y-85295022D01*
X127984538Y-85295022D02*
X127965490Y-85275975D01*
X127965490Y-85275975D02*
X127927395Y-85256927D01*
X138207142Y-76068832D02*
X138226190Y-76087880D01*
X138226190Y-76087880D02*
X138283332Y-76106927D01*
X138283332Y-76106927D02*
X138321428Y-76106927D01*
X138321428Y-76106927D02*
X138378571Y-76087880D01*
X138378571Y-76087880D02*
X138416666Y-76049784D01*
X138416666Y-76049784D02*
X138435713Y-76011689D01*
X138435713Y-76011689D02*
X138454761Y-75935499D01*
X138454761Y-75935499D02*
X138454761Y-75878356D01*
X138454761Y-75878356D02*
X138435713Y-75802165D01*
X138435713Y-75802165D02*
X138416666Y-75764070D01*
X138416666Y-75764070D02*
X138378571Y-75725975D01*
X138378571Y-75725975D02*
X138321428Y-75706927D01*
X138321428Y-75706927D02*
X138283332Y-75706927D01*
X138283332Y-75706927D02*
X138226190Y-75725975D01*
X138226190Y-75725975D02*
X138207142Y-75745022D01*
X137864285Y-75840260D02*
X137864285Y-76106927D01*
X137959523Y-75687880D02*
X138054761Y-75973594D01*
X138054761Y-75973594D02*
X137807142Y-75973594D01*
X137692857Y-75706927D02*
X137445238Y-75706927D01*
X137445238Y-75706927D02*
X137578571Y-75859308D01*
X137578571Y-75859308D02*
X137521428Y-75859308D01*
X137521428Y-75859308D02*
X137483333Y-75878356D01*
X137483333Y-75878356D02*
X137464285Y-75897403D01*
X137464285Y-75897403D02*
X137445238Y-75935499D01*
X137445238Y-75935499D02*
X137445238Y-76030737D01*
X137445238Y-76030737D02*
X137464285Y-76068832D01*
X137464285Y-76068832D02*
X137483333Y-76087880D01*
X137483333Y-76087880D02*
X137521428Y-76106927D01*
X137521428Y-76106927D02*
X137635714Y-76106927D01*
X137635714Y-76106927D02*
X137673809Y-76087880D01*
X137673809Y-76087880D02*
X137692857Y-76068832D01*
X148531927Y-69892857D02*
X148341451Y-69759524D01*
X148531927Y-69664286D02*
X148131927Y-69664286D01*
X148131927Y-69664286D02*
X148131927Y-69816667D01*
X148131927Y-69816667D02*
X148150975Y-69854762D01*
X148150975Y-69854762D02*
X148170022Y-69873809D01*
X148170022Y-69873809D02*
X148208118Y-69892857D01*
X148208118Y-69892857D02*
X148265260Y-69892857D01*
X148265260Y-69892857D02*
X148303356Y-69873809D01*
X148303356Y-69873809D02*
X148322403Y-69854762D01*
X148322403Y-69854762D02*
X148341451Y-69816667D01*
X148341451Y-69816667D02*
X148341451Y-69664286D01*
X148531927Y-70273809D02*
X148531927Y-70045238D01*
X148531927Y-70159524D02*
X148131927Y-70159524D01*
X148131927Y-70159524D02*
X148189070Y-70121428D01*
X148189070Y-70121428D02*
X148227165Y-70083333D01*
X148227165Y-70083333D02*
X148246213Y-70045238D01*
X148131927Y-70635714D02*
X148131927Y-70445238D01*
X148131927Y-70445238D02*
X148322403Y-70426190D01*
X148322403Y-70426190D02*
X148303356Y-70445238D01*
X148303356Y-70445238D02*
X148284308Y-70483333D01*
X148284308Y-70483333D02*
X148284308Y-70578571D01*
X148284308Y-70578571D02*
X148303356Y-70616666D01*
X148303356Y-70616666D02*
X148322403Y-70635714D01*
X148322403Y-70635714D02*
X148360499Y-70654761D01*
X148360499Y-70654761D02*
X148455737Y-70654761D01*
X148455737Y-70654761D02*
X148493832Y-70635714D01*
X148493832Y-70635714D02*
X148512880Y-70616666D01*
X148512880Y-70616666D02*
X148531927Y-70578571D01*
X148531927Y-70578571D02*
X148531927Y-70483333D01*
X148531927Y-70483333D02*
X148512880Y-70445238D01*
X148512880Y-70445238D02*
X148493832Y-70426190D01*
X134740331Y-67558228D02*
X134873664Y-67367752D01*
X134968902Y-67558228D02*
X134968902Y-67158228D01*
X134968902Y-67158228D02*
X134816521Y-67158228D01*
X134816521Y-67158228D02*
X134778426Y-67177276D01*
X134778426Y-67177276D02*
X134759379Y-67196323D01*
X134759379Y-67196323D02*
X134740331Y-67234419D01*
X134740331Y-67234419D02*
X134740331Y-67291561D01*
X134740331Y-67291561D02*
X134759379Y-67329657D01*
X134759379Y-67329657D02*
X134778426Y-67348704D01*
X134778426Y-67348704D02*
X134816521Y-67367752D01*
X134816521Y-67367752D02*
X134968902Y-67367752D01*
X134606998Y-67158228D02*
X134340331Y-67158228D01*
X134340331Y-67158228D02*
X134511760Y-67558228D01*
X134206998Y-67196323D02*
X134187950Y-67177276D01*
X134187950Y-67177276D02*
X134149855Y-67158228D01*
X134149855Y-67158228D02*
X134054617Y-67158228D01*
X134054617Y-67158228D02*
X134016522Y-67177276D01*
X134016522Y-67177276D02*
X133997474Y-67196323D01*
X133997474Y-67196323D02*
X133978427Y-67234419D01*
X133978427Y-67234419D02*
X133978427Y-67272514D01*
X133978427Y-67272514D02*
X133997474Y-67329657D01*
X133997474Y-67329657D02*
X134226046Y-67558228D01*
X134226046Y-67558228D02*
X133978427Y-67558228D01*
X131961918Y-85618832D02*
X131980966Y-85637880D01*
X131980966Y-85637880D02*
X132038108Y-85656927D01*
X132038108Y-85656927D02*
X132076204Y-85656927D01*
X132076204Y-85656927D02*
X132133347Y-85637880D01*
X132133347Y-85637880D02*
X132171442Y-85599784D01*
X132171442Y-85599784D02*
X132190489Y-85561689D01*
X132190489Y-85561689D02*
X132209537Y-85485499D01*
X132209537Y-85485499D02*
X132209537Y-85428356D01*
X132209537Y-85428356D02*
X132190489Y-85352165D01*
X132190489Y-85352165D02*
X132171442Y-85314070D01*
X132171442Y-85314070D02*
X132133347Y-85275975D01*
X132133347Y-85275975D02*
X132076204Y-85256927D01*
X132076204Y-85256927D02*
X132038108Y-85256927D01*
X132038108Y-85256927D02*
X131980966Y-85275975D01*
X131980966Y-85275975D02*
X131961918Y-85295022D01*
X131580966Y-85656927D02*
X131809537Y-85656927D01*
X131695251Y-85656927D02*
X131695251Y-85256927D01*
X131695251Y-85256927D02*
X131733347Y-85314070D01*
X131733347Y-85314070D02*
X131771442Y-85352165D01*
X131771442Y-85352165D02*
X131809537Y-85371213D01*
X131200014Y-85656927D02*
X131428585Y-85656927D01*
X131314299Y-85656927D02*
X131314299Y-85256927D01*
X131314299Y-85256927D02*
X131352395Y-85314070D01*
X131352395Y-85314070D02*
X131390490Y-85352165D01*
X131390490Y-85352165D02*
X131428585Y-85371213D01*
X131009538Y-85656927D02*
X130933347Y-85656927D01*
X130933347Y-85656927D02*
X130895252Y-85637880D01*
X130895252Y-85637880D02*
X130876204Y-85618832D01*
X130876204Y-85618832D02*
X130838109Y-85561689D01*
X130838109Y-85561689D02*
X130819062Y-85485499D01*
X130819062Y-85485499D02*
X130819062Y-85333118D01*
X130819062Y-85333118D02*
X130838109Y-85295022D01*
X130838109Y-85295022D02*
X130857157Y-85275975D01*
X130857157Y-85275975D02*
X130895252Y-85256927D01*
X130895252Y-85256927D02*
X130971443Y-85256927D01*
X130971443Y-85256927D02*
X131009538Y-85275975D01*
X131009538Y-85275975D02*
X131028585Y-85295022D01*
X131028585Y-85295022D02*
X131047633Y-85333118D01*
X131047633Y-85333118D02*
X131047633Y-85428356D01*
X131047633Y-85428356D02*
X131028585Y-85466451D01*
X131028585Y-85466451D02*
X131009538Y-85485499D01*
X131009538Y-85485499D02*
X130971443Y-85504546D01*
X130971443Y-85504546D02*
X130895252Y-85504546D01*
X130895252Y-85504546D02*
X130857157Y-85485499D01*
X130857157Y-85485499D02*
X130838109Y-85466451D01*
X130838109Y-85466451D02*
X130819062Y-85428356D01*
X127491371Y-75842856D02*
X127300895Y-75709523D01*
X127491371Y-75614285D02*
X127091371Y-75614285D01*
X127091371Y-75614285D02*
X127091371Y-75766666D01*
X127091371Y-75766666D02*
X127110419Y-75804761D01*
X127110419Y-75804761D02*
X127129466Y-75823808D01*
X127129466Y-75823808D02*
X127167562Y-75842856D01*
X127167562Y-75842856D02*
X127224704Y-75842856D01*
X127224704Y-75842856D02*
X127262800Y-75823808D01*
X127262800Y-75823808D02*
X127281847Y-75804761D01*
X127281847Y-75804761D02*
X127300895Y-75766666D01*
X127300895Y-75766666D02*
X127300895Y-75614285D01*
X127091371Y-76185713D02*
X127091371Y-76109523D01*
X127091371Y-76109523D02*
X127110419Y-76071427D01*
X127110419Y-76071427D02*
X127129466Y-76052380D01*
X127129466Y-76052380D02*
X127186609Y-76014285D01*
X127186609Y-76014285D02*
X127262800Y-75995237D01*
X127262800Y-75995237D02*
X127415181Y-75995237D01*
X127415181Y-75995237D02*
X127453276Y-76014285D01*
X127453276Y-76014285D02*
X127472324Y-76033332D01*
X127472324Y-76033332D02*
X127491371Y-76071427D01*
X127491371Y-76071427D02*
X127491371Y-76147618D01*
X127491371Y-76147618D02*
X127472324Y-76185713D01*
X127472324Y-76185713D02*
X127453276Y-76204761D01*
X127453276Y-76204761D02*
X127415181Y-76223808D01*
X127415181Y-76223808D02*
X127319943Y-76223808D01*
X127319943Y-76223808D02*
X127281847Y-76204761D01*
X127281847Y-76204761D02*
X127262800Y-76185713D01*
X127262800Y-76185713D02*
X127243752Y-76147618D01*
X127243752Y-76147618D02*
X127243752Y-76071427D01*
X127243752Y-76071427D02*
X127262800Y-76033332D01*
X127262800Y-76033332D02*
X127281847Y-76014285D01*
X127281847Y-76014285D02*
X127319943Y-75995237D01*
X127091371Y-76357141D02*
X127091371Y-76623808D01*
X127091371Y-76623808D02*
X127491371Y-76452379D01*
X158373232Y-105677857D02*
X158392280Y-105658809D01*
X158392280Y-105658809D02*
X158411327Y-105601667D01*
X158411327Y-105601667D02*
X158411327Y-105563571D01*
X158411327Y-105563571D02*
X158392280Y-105506428D01*
X158392280Y-105506428D02*
X158354184Y-105468333D01*
X158354184Y-105468333D02*
X158316089Y-105449286D01*
X158316089Y-105449286D02*
X158239899Y-105430238D01*
X158239899Y-105430238D02*
X158182756Y-105430238D01*
X158182756Y-105430238D02*
X158106565Y-105449286D01*
X158106565Y-105449286D02*
X158068470Y-105468333D01*
X158068470Y-105468333D02*
X158030375Y-105506428D01*
X158030375Y-105506428D02*
X158011327Y-105563571D01*
X158011327Y-105563571D02*
X158011327Y-105601667D01*
X158011327Y-105601667D02*
X158030375Y-105658809D01*
X158030375Y-105658809D02*
X158049422Y-105677857D01*
X158011327Y-105811190D02*
X158011327Y-106058809D01*
X158011327Y-106058809D02*
X158163708Y-105925476D01*
X158163708Y-105925476D02*
X158163708Y-105982619D01*
X158163708Y-105982619D02*
X158182756Y-106020714D01*
X158182756Y-106020714D02*
X158201803Y-106039762D01*
X158201803Y-106039762D02*
X158239899Y-106058809D01*
X158239899Y-106058809D02*
X158335137Y-106058809D01*
X158335137Y-106058809D02*
X158373232Y-106039762D01*
X158373232Y-106039762D02*
X158392280Y-106020714D01*
X158392280Y-106020714D02*
X158411327Y-105982619D01*
X158411327Y-105982619D02*
X158411327Y-105868333D01*
X158411327Y-105868333D02*
X158392280Y-105830238D01*
X158392280Y-105830238D02*
X158373232Y-105811190D01*
X158011327Y-106401666D02*
X158011327Y-106325476D01*
X158011327Y-106325476D02*
X158030375Y-106287380D01*
X158030375Y-106287380D02*
X158049422Y-106268333D01*
X158049422Y-106268333D02*
X158106565Y-106230238D01*
X158106565Y-106230238D02*
X158182756Y-106211190D01*
X158182756Y-106211190D02*
X158335137Y-106211190D01*
X158335137Y-106211190D02*
X158373232Y-106230238D01*
X158373232Y-106230238D02*
X158392280Y-106249285D01*
X158392280Y-106249285D02*
X158411327Y-106287380D01*
X158411327Y-106287380D02*
X158411327Y-106363571D01*
X158411327Y-106363571D02*
X158392280Y-106401666D01*
X158392280Y-106401666D02*
X158373232Y-106420714D01*
X158373232Y-106420714D02*
X158335137Y-106439761D01*
X158335137Y-106439761D02*
X158239899Y-106439761D01*
X158239899Y-106439761D02*
X158201803Y-106420714D01*
X158201803Y-106420714D02*
X158182756Y-106401666D01*
X158182756Y-106401666D02*
X158163708Y-106363571D01*
X158163708Y-106363571D02*
X158163708Y-106287380D01*
X158163708Y-106287380D02*
X158182756Y-106249285D01*
X158182756Y-106249285D02*
X158201803Y-106230238D01*
X158201803Y-106230238D02*
X158239899Y-106211190D01*
X128771442Y-80831927D02*
X128904775Y-80641451D01*
X129000013Y-80831927D02*
X129000013Y-80431927D01*
X129000013Y-80431927D02*
X128847632Y-80431927D01*
X128847632Y-80431927D02*
X128809537Y-80450975D01*
X128809537Y-80450975D02*
X128790490Y-80470022D01*
X128790490Y-80470022D02*
X128771442Y-80508118D01*
X128771442Y-80508118D02*
X128771442Y-80565260D01*
X128771442Y-80565260D02*
X128790490Y-80603356D01*
X128790490Y-80603356D02*
X128809537Y-80622403D01*
X128809537Y-80622403D02*
X128847632Y-80641451D01*
X128847632Y-80641451D02*
X129000013Y-80641451D01*
X128638109Y-80431927D02*
X128371442Y-80431927D01*
X128371442Y-80431927D02*
X128542871Y-80831927D01*
X128200014Y-80831927D02*
X128123823Y-80831927D01*
X128123823Y-80831927D02*
X128085728Y-80812880D01*
X128085728Y-80812880D02*
X128066680Y-80793832D01*
X128066680Y-80793832D02*
X128028585Y-80736689D01*
X128028585Y-80736689D02*
X128009538Y-80660499D01*
X128009538Y-80660499D02*
X128009538Y-80508118D01*
X128009538Y-80508118D02*
X128028585Y-80470022D01*
X128028585Y-80470022D02*
X128047633Y-80450975D01*
X128047633Y-80450975D02*
X128085728Y-80431927D01*
X128085728Y-80431927D02*
X128161919Y-80431927D01*
X128161919Y-80431927D02*
X128200014Y-80450975D01*
X128200014Y-80450975D02*
X128219061Y-80470022D01*
X128219061Y-80470022D02*
X128238109Y-80508118D01*
X128238109Y-80508118D02*
X128238109Y-80603356D01*
X128238109Y-80603356D02*
X128219061Y-80641451D01*
X128219061Y-80641451D02*
X128200014Y-80660499D01*
X128200014Y-80660499D02*
X128161919Y-80679546D01*
X128161919Y-80679546D02*
X128085728Y-80679546D01*
X128085728Y-80679546D02*
X128047633Y-80660499D01*
X128047633Y-80660499D02*
X128028585Y-80641451D01*
X128028585Y-80641451D02*
X128009538Y-80603356D01*
D10*
X143941666Y-76464765D02*
X143953570Y-76476670D01*
X143953570Y-76476670D02*
X143989285Y-76488574D01*
X143989285Y-76488574D02*
X144013094Y-76488574D01*
X144013094Y-76488574D02*
X144048808Y-76476670D01*
X144048808Y-76476670D02*
X144072618Y-76452860D01*
X144072618Y-76452860D02*
X144084523Y-76429050D01*
X144084523Y-76429050D02*
X144096427Y-76381431D01*
X144096427Y-76381431D02*
X144096427Y-76345717D01*
X144096427Y-76345717D02*
X144084523Y-76298098D01*
X144084523Y-76298098D02*
X144072618Y-76274289D01*
X144072618Y-76274289D02*
X144048808Y-76250479D01*
X144048808Y-76250479D02*
X144013094Y-76238574D01*
X144013094Y-76238574D02*
X143989285Y-76238574D01*
X143989285Y-76238574D02*
X143953570Y-76250479D01*
X143953570Y-76250479D02*
X143941666Y-76262384D01*
X143715475Y-76238574D02*
X143834523Y-76238574D01*
X143834523Y-76238574D02*
X143846427Y-76357622D01*
X143846427Y-76357622D02*
X143834523Y-76345717D01*
X143834523Y-76345717D02*
X143810713Y-76333812D01*
X143810713Y-76333812D02*
X143751189Y-76333812D01*
X143751189Y-76333812D02*
X143727380Y-76345717D01*
X143727380Y-76345717D02*
X143715475Y-76357622D01*
X143715475Y-76357622D02*
X143703570Y-76381431D01*
X143703570Y-76381431D02*
X143703570Y-76440955D01*
X143703570Y-76440955D02*
X143715475Y-76464765D01*
X143715475Y-76464765D02*
X143727380Y-76476670D01*
X143727380Y-76476670D02*
X143751189Y-76488574D01*
X143751189Y-76488574D02*
X143810713Y-76488574D01*
X143810713Y-76488574D02*
X143834523Y-76476670D01*
X143834523Y-76476670D02*
X143846427Y-76464765D01*
X149360714Y-76864765D02*
X149372618Y-76876670D01*
X149372618Y-76876670D02*
X149408333Y-76888574D01*
X149408333Y-76888574D02*
X149432142Y-76888574D01*
X149432142Y-76888574D02*
X149467856Y-76876670D01*
X149467856Y-76876670D02*
X149491666Y-76852860D01*
X149491666Y-76852860D02*
X149503571Y-76829050D01*
X149503571Y-76829050D02*
X149515475Y-76781431D01*
X149515475Y-76781431D02*
X149515475Y-76745717D01*
X149515475Y-76745717D02*
X149503571Y-76698098D01*
X149503571Y-76698098D02*
X149491666Y-76674289D01*
X149491666Y-76674289D02*
X149467856Y-76650479D01*
X149467856Y-76650479D02*
X149432142Y-76638574D01*
X149432142Y-76638574D02*
X149408333Y-76638574D01*
X149408333Y-76638574D02*
X149372618Y-76650479D01*
X149372618Y-76650479D02*
X149360714Y-76662384D01*
X149122618Y-76888574D02*
X149265475Y-76888574D01*
X149194047Y-76888574D02*
X149194047Y-76638574D01*
X149194047Y-76638574D02*
X149217856Y-76674289D01*
X149217856Y-76674289D02*
X149241666Y-76698098D01*
X149241666Y-76698098D02*
X149265475Y-76710003D01*
X148967857Y-76638574D02*
X148944047Y-76638574D01*
X148944047Y-76638574D02*
X148920238Y-76650479D01*
X148920238Y-76650479D02*
X148908333Y-76662384D01*
X148908333Y-76662384D02*
X148896428Y-76686193D01*
X148896428Y-76686193D02*
X148884523Y-76733812D01*
X148884523Y-76733812D02*
X148884523Y-76793336D01*
X148884523Y-76793336D02*
X148896428Y-76840955D01*
X148896428Y-76840955D02*
X148908333Y-76864765D01*
X148908333Y-76864765D02*
X148920238Y-76876670D01*
X148920238Y-76876670D02*
X148944047Y-76888574D01*
X148944047Y-76888574D02*
X148967857Y-76888574D01*
X148967857Y-76888574D02*
X148991666Y-76876670D01*
X148991666Y-76876670D02*
X149003571Y-76864765D01*
X149003571Y-76864765D02*
X149015476Y-76840955D01*
X149015476Y-76840955D02*
X149027380Y-76793336D01*
X149027380Y-76793336D02*
X149027380Y-76733812D01*
X149027380Y-76733812D02*
X149015476Y-76686193D01*
X149015476Y-76686193D02*
X149003571Y-76662384D01*
X149003571Y-76662384D02*
X148991666Y-76650479D01*
X148991666Y-76650479D02*
X148967857Y-76638574D01*
D11*
X133315116Y-69544158D02*
X133124640Y-69410825D01*
X133315116Y-69315587D02*
X132915116Y-69315587D01*
X132915116Y-69315587D02*
X132915116Y-69467968D01*
X132915116Y-69467968D02*
X132934164Y-69506063D01*
X132934164Y-69506063D02*
X132953211Y-69525110D01*
X132953211Y-69525110D02*
X132991307Y-69544158D01*
X132991307Y-69544158D02*
X133048449Y-69544158D01*
X133048449Y-69544158D02*
X133086545Y-69525110D01*
X133086545Y-69525110D02*
X133105592Y-69506063D01*
X133105592Y-69506063D02*
X133124640Y-69467968D01*
X133124640Y-69467968D02*
X133124640Y-69315587D01*
X132915116Y-69887015D02*
X132915116Y-69810825D01*
X132915116Y-69810825D02*
X132934164Y-69772729D01*
X132934164Y-69772729D02*
X132953211Y-69753682D01*
X132953211Y-69753682D02*
X133010354Y-69715587D01*
X133010354Y-69715587D02*
X133086545Y-69696539D01*
X133086545Y-69696539D02*
X133238926Y-69696539D01*
X133238926Y-69696539D02*
X133277021Y-69715587D01*
X133277021Y-69715587D02*
X133296069Y-69734634D01*
X133296069Y-69734634D02*
X133315116Y-69772729D01*
X133315116Y-69772729D02*
X133315116Y-69848920D01*
X133315116Y-69848920D02*
X133296069Y-69887015D01*
X133296069Y-69887015D02*
X133277021Y-69906063D01*
X133277021Y-69906063D02*
X133238926Y-69925110D01*
X133238926Y-69925110D02*
X133143688Y-69925110D01*
X133143688Y-69925110D02*
X133105592Y-69906063D01*
X133105592Y-69906063D02*
X133086545Y-69887015D01*
X133086545Y-69887015D02*
X133067497Y-69848920D01*
X133067497Y-69848920D02*
X133067497Y-69772729D01*
X133067497Y-69772729D02*
X133086545Y-69734634D01*
X133086545Y-69734634D02*
X133105592Y-69715587D01*
X133105592Y-69715587D02*
X133143688Y-69696539D01*
X132915116Y-70267967D02*
X132915116Y-70191777D01*
X132915116Y-70191777D02*
X132934164Y-70153681D01*
X132934164Y-70153681D02*
X132953211Y-70134634D01*
X132953211Y-70134634D02*
X133010354Y-70096539D01*
X133010354Y-70096539D02*
X133086545Y-70077491D01*
X133086545Y-70077491D02*
X133238926Y-70077491D01*
X133238926Y-70077491D02*
X133277021Y-70096539D01*
X133277021Y-70096539D02*
X133296069Y-70115586D01*
X133296069Y-70115586D02*
X133315116Y-70153681D01*
X133315116Y-70153681D02*
X133315116Y-70229872D01*
X133315116Y-70229872D02*
X133296069Y-70267967D01*
X133296069Y-70267967D02*
X133277021Y-70287015D01*
X133277021Y-70287015D02*
X133238926Y-70306062D01*
X133238926Y-70306062D02*
X133143688Y-70306062D01*
X133143688Y-70306062D02*
X133105592Y-70287015D01*
X133105592Y-70287015D02*
X133086545Y-70267967D01*
X133086545Y-70267967D02*
X133067497Y-70229872D01*
X133067497Y-70229872D02*
X133067497Y-70153681D01*
X133067497Y-70153681D02*
X133086545Y-70115586D01*
X133086545Y-70115586D02*
X133105592Y-70096539D01*
X133105592Y-70096539D02*
X133143688Y-70077491D01*
X159873232Y-105667857D02*
X159892280Y-105648809D01*
X159892280Y-105648809D02*
X159911327Y-105591667D01*
X159911327Y-105591667D02*
X159911327Y-105553571D01*
X159911327Y-105553571D02*
X159892280Y-105496428D01*
X159892280Y-105496428D02*
X159854184Y-105458333D01*
X159854184Y-105458333D02*
X159816089Y-105439286D01*
X159816089Y-105439286D02*
X159739899Y-105420238D01*
X159739899Y-105420238D02*
X159682756Y-105420238D01*
X159682756Y-105420238D02*
X159606565Y-105439286D01*
X159606565Y-105439286D02*
X159568470Y-105458333D01*
X159568470Y-105458333D02*
X159530375Y-105496428D01*
X159530375Y-105496428D02*
X159511327Y-105553571D01*
X159511327Y-105553571D02*
X159511327Y-105591667D01*
X159511327Y-105591667D02*
X159530375Y-105648809D01*
X159530375Y-105648809D02*
X159549422Y-105667857D01*
X159549422Y-105820238D02*
X159530375Y-105839286D01*
X159530375Y-105839286D02*
X159511327Y-105877381D01*
X159511327Y-105877381D02*
X159511327Y-105972619D01*
X159511327Y-105972619D02*
X159530375Y-106010714D01*
X159530375Y-106010714D02*
X159549422Y-106029762D01*
X159549422Y-106029762D02*
X159587518Y-106048809D01*
X159587518Y-106048809D02*
X159625613Y-106048809D01*
X159625613Y-106048809D02*
X159682756Y-106029762D01*
X159682756Y-106029762D02*
X159911327Y-105801190D01*
X159911327Y-105801190D02*
X159911327Y-106048809D01*
X159911327Y-106239285D02*
X159911327Y-106315476D01*
X159911327Y-106315476D02*
X159892280Y-106353571D01*
X159892280Y-106353571D02*
X159873232Y-106372619D01*
X159873232Y-106372619D02*
X159816089Y-106410714D01*
X159816089Y-106410714D02*
X159739899Y-106429761D01*
X159739899Y-106429761D02*
X159587518Y-106429761D01*
X159587518Y-106429761D02*
X159549422Y-106410714D01*
X159549422Y-106410714D02*
X159530375Y-106391666D01*
X159530375Y-106391666D02*
X159511327Y-106353571D01*
X159511327Y-106353571D02*
X159511327Y-106277380D01*
X159511327Y-106277380D02*
X159530375Y-106239285D01*
X159530375Y-106239285D02*
X159549422Y-106220238D01*
X159549422Y-106220238D02*
X159587518Y-106201190D01*
X159587518Y-106201190D02*
X159682756Y-106201190D01*
X159682756Y-106201190D02*
X159720851Y-106220238D01*
X159720851Y-106220238D02*
X159739899Y-106239285D01*
X159739899Y-106239285D02*
X159758946Y-106277380D01*
X159758946Y-106277380D02*
X159758946Y-106353571D01*
X159758946Y-106353571D02*
X159739899Y-106391666D01*
X159739899Y-106391666D02*
X159720851Y-106410714D01*
X159720851Y-106410714D02*
X159682756Y-106429761D01*
X161107142Y-80693832D02*
X161126190Y-80712880D01*
X161126190Y-80712880D02*
X161183332Y-80731927D01*
X161183332Y-80731927D02*
X161221428Y-80731927D01*
X161221428Y-80731927D02*
X161278571Y-80712880D01*
X161278571Y-80712880D02*
X161316666Y-80674784D01*
X161316666Y-80674784D02*
X161335713Y-80636689D01*
X161335713Y-80636689D02*
X161354761Y-80560499D01*
X161354761Y-80560499D02*
X161354761Y-80503356D01*
X161354761Y-80503356D02*
X161335713Y-80427165D01*
X161335713Y-80427165D02*
X161316666Y-80389070D01*
X161316666Y-80389070D02*
X161278571Y-80350975D01*
X161278571Y-80350975D02*
X161221428Y-80331927D01*
X161221428Y-80331927D02*
X161183332Y-80331927D01*
X161183332Y-80331927D02*
X161126190Y-80350975D01*
X161126190Y-80350975D02*
X161107142Y-80370022D01*
X160764285Y-80331927D02*
X160840475Y-80331927D01*
X160840475Y-80331927D02*
X160878571Y-80350975D01*
X160878571Y-80350975D02*
X160897618Y-80370022D01*
X160897618Y-80370022D02*
X160935713Y-80427165D01*
X160935713Y-80427165D02*
X160954761Y-80503356D01*
X160954761Y-80503356D02*
X160954761Y-80655737D01*
X160954761Y-80655737D02*
X160935713Y-80693832D01*
X160935713Y-80693832D02*
X160916666Y-80712880D01*
X160916666Y-80712880D02*
X160878571Y-80731927D01*
X160878571Y-80731927D02*
X160802380Y-80731927D01*
X160802380Y-80731927D02*
X160764285Y-80712880D01*
X160764285Y-80712880D02*
X160745237Y-80693832D01*
X160745237Y-80693832D02*
X160726190Y-80655737D01*
X160726190Y-80655737D02*
X160726190Y-80560499D01*
X160726190Y-80560499D02*
X160745237Y-80522403D01*
X160745237Y-80522403D02*
X160764285Y-80503356D01*
X160764285Y-80503356D02*
X160802380Y-80484308D01*
X160802380Y-80484308D02*
X160878571Y-80484308D01*
X160878571Y-80484308D02*
X160916666Y-80503356D01*
X160916666Y-80503356D02*
X160935713Y-80522403D01*
X160935713Y-80522403D02*
X160954761Y-80560499D01*
X160345238Y-80731927D02*
X160573809Y-80731927D01*
X160459523Y-80731927D02*
X160459523Y-80331927D01*
X160459523Y-80331927D02*
X160497619Y-80389070D01*
X160497619Y-80389070D02*
X160535714Y-80427165D01*
X160535714Y-80427165D02*
X160573809Y-80446213D01*
X152768832Y-65553557D02*
X152787880Y-65534509D01*
X152787880Y-65534509D02*
X152806927Y-65477367D01*
X152806927Y-65477367D02*
X152806927Y-65439271D01*
X152806927Y-65439271D02*
X152787880Y-65382128D01*
X152787880Y-65382128D02*
X152749784Y-65344033D01*
X152749784Y-65344033D02*
X152711689Y-65324986D01*
X152711689Y-65324986D02*
X152635499Y-65305938D01*
X152635499Y-65305938D02*
X152578356Y-65305938D01*
X152578356Y-65305938D02*
X152502165Y-65324986D01*
X152502165Y-65324986D02*
X152464070Y-65344033D01*
X152464070Y-65344033D02*
X152425975Y-65382128D01*
X152425975Y-65382128D02*
X152406927Y-65439271D01*
X152406927Y-65439271D02*
X152406927Y-65477367D01*
X152406927Y-65477367D02*
X152425975Y-65534509D01*
X152425975Y-65534509D02*
X152445022Y-65553557D01*
X152406927Y-65896414D02*
X152406927Y-65820224D01*
X152406927Y-65820224D02*
X152425975Y-65782128D01*
X152425975Y-65782128D02*
X152445022Y-65763081D01*
X152445022Y-65763081D02*
X152502165Y-65724986D01*
X152502165Y-65724986D02*
X152578356Y-65705938D01*
X152578356Y-65705938D02*
X152730737Y-65705938D01*
X152730737Y-65705938D02*
X152768832Y-65724986D01*
X152768832Y-65724986D02*
X152787880Y-65744033D01*
X152787880Y-65744033D02*
X152806927Y-65782128D01*
X152806927Y-65782128D02*
X152806927Y-65858319D01*
X152806927Y-65858319D02*
X152787880Y-65896414D01*
X152787880Y-65896414D02*
X152768832Y-65915462D01*
X152768832Y-65915462D02*
X152730737Y-65934509D01*
X152730737Y-65934509D02*
X152635499Y-65934509D01*
X152635499Y-65934509D02*
X152597403Y-65915462D01*
X152597403Y-65915462D02*
X152578356Y-65896414D01*
X152578356Y-65896414D02*
X152559308Y-65858319D01*
X152559308Y-65858319D02*
X152559308Y-65782128D01*
X152559308Y-65782128D02*
X152578356Y-65744033D01*
X152578356Y-65744033D02*
X152597403Y-65724986D01*
X152597403Y-65724986D02*
X152635499Y-65705938D01*
X152578356Y-66163080D02*
X152559308Y-66124985D01*
X152559308Y-66124985D02*
X152540260Y-66105938D01*
X152540260Y-66105938D02*
X152502165Y-66086890D01*
X152502165Y-66086890D02*
X152483118Y-66086890D01*
X152483118Y-66086890D02*
X152445022Y-66105938D01*
X152445022Y-66105938D02*
X152425975Y-66124985D01*
X152425975Y-66124985D02*
X152406927Y-66163080D01*
X152406927Y-66163080D02*
X152406927Y-66239271D01*
X152406927Y-66239271D02*
X152425975Y-66277366D01*
X152425975Y-66277366D02*
X152445022Y-66296414D01*
X152445022Y-66296414D02*
X152483118Y-66315461D01*
X152483118Y-66315461D02*
X152502165Y-66315461D01*
X152502165Y-66315461D02*
X152540260Y-66296414D01*
X152540260Y-66296414D02*
X152559308Y-66277366D01*
X152559308Y-66277366D02*
X152578356Y-66239271D01*
X152578356Y-66239271D02*
X152578356Y-66163080D01*
X152578356Y-66163080D02*
X152597403Y-66124985D01*
X152597403Y-66124985D02*
X152616451Y-66105938D01*
X152616451Y-66105938D02*
X152654546Y-66086890D01*
X152654546Y-66086890D02*
X152730737Y-66086890D01*
X152730737Y-66086890D02*
X152768832Y-66105938D01*
X152768832Y-66105938D02*
X152787880Y-66124985D01*
X152787880Y-66124985D02*
X152806927Y-66163080D01*
X152806927Y-66163080D02*
X152806927Y-66239271D01*
X152806927Y-66239271D02*
X152787880Y-66277366D01*
X152787880Y-66277366D02*
X152768832Y-66296414D01*
X152768832Y-66296414D02*
X152730737Y-66315461D01*
X152730737Y-66315461D02*
X152654546Y-66315461D01*
X152654546Y-66315461D02*
X152616451Y-66296414D01*
X152616451Y-66296414D02*
X152597403Y-66277366D01*
X152597403Y-66277366D02*
X152578356Y-66239271D01*
X148681927Y-86292857D02*
X148491451Y-86159524D01*
X148681927Y-86064286D02*
X148281927Y-86064286D01*
X148281927Y-86064286D02*
X148281927Y-86216667D01*
X148281927Y-86216667D02*
X148300975Y-86254762D01*
X148300975Y-86254762D02*
X148320022Y-86273809D01*
X148320022Y-86273809D02*
X148358118Y-86292857D01*
X148358118Y-86292857D02*
X148415260Y-86292857D01*
X148415260Y-86292857D02*
X148453356Y-86273809D01*
X148453356Y-86273809D02*
X148472403Y-86254762D01*
X148472403Y-86254762D02*
X148491451Y-86216667D01*
X148491451Y-86216667D02*
X148491451Y-86064286D01*
X148320022Y-86445238D02*
X148300975Y-86464286D01*
X148300975Y-86464286D02*
X148281927Y-86502381D01*
X148281927Y-86502381D02*
X148281927Y-86597619D01*
X148281927Y-86597619D02*
X148300975Y-86635714D01*
X148300975Y-86635714D02*
X148320022Y-86654762D01*
X148320022Y-86654762D02*
X148358118Y-86673809D01*
X148358118Y-86673809D02*
X148396213Y-86673809D01*
X148396213Y-86673809D02*
X148453356Y-86654762D01*
X148453356Y-86654762D02*
X148681927Y-86426190D01*
X148681927Y-86426190D02*
X148681927Y-86673809D01*
X148320022Y-86826190D02*
X148300975Y-86845238D01*
X148300975Y-86845238D02*
X148281927Y-86883333D01*
X148281927Y-86883333D02*
X148281927Y-86978571D01*
X148281927Y-86978571D02*
X148300975Y-87016666D01*
X148300975Y-87016666D02*
X148320022Y-87035714D01*
X148320022Y-87035714D02*
X148358118Y-87054761D01*
X148358118Y-87054761D02*
X148396213Y-87054761D01*
X148396213Y-87054761D02*
X148453356Y-87035714D01*
X148453356Y-87035714D02*
X148681927Y-86807142D01*
X148681927Y-86807142D02*
X148681927Y-87054761D01*
X157182142Y-79143832D02*
X157201190Y-79162880D01*
X157201190Y-79162880D02*
X157258332Y-79181927D01*
X157258332Y-79181927D02*
X157296428Y-79181927D01*
X157296428Y-79181927D02*
X157353571Y-79162880D01*
X157353571Y-79162880D02*
X157391666Y-79124784D01*
X157391666Y-79124784D02*
X157410713Y-79086689D01*
X157410713Y-79086689D02*
X157429761Y-79010499D01*
X157429761Y-79010499D02*
X157429761Y-78953356D01*
X157429761Y-78953356D02*
X157410713Y-78877165D01*
X157410713Y-78877165D02*
X157391666Y-78839070D01*
X157391666Y-78839070D02*
X157353571Y-78800975D01*
X157353571Y-78800975D02*
X157296428Y-78781927D01*
X157296428Y-78781927D02*
X157258332Y-78781927D01*
X157258332Y-78781927D02*
X157201190Y-78800975D01*
X157201190Y-78800975D02*
X157182142Y-78820022D01*
X156820237Y-78781927D02*
X157010713Y-78781927D01*
X157010713Y-78781927D02*
X157029761Y-78972403D01*
X157029761Y-78972403D02*
X157010713Y-78953356D01*
X157010713Y-78953356D02*
X156972618Y-78934308D01*
X156972618Y-78934308D02*
X156877380Y-78934308D01*
X156877380Y-78934308D02*
X156839285Y-78953356D01*
X156839285Y-78953356D02*
X156820237Y-78972403D01*
X156820237Y-78972403D02*
X156801190Y-79010499D01*
X156801190Y-79010499D02*
X156801190Y-79105737D01*
X156801190Y-79105737D02*
X156820237Y-79143832D01*
X156820237Y-79143832D02*
X156839285Y-79162880D01*
X156839285Y-79162880D02*
X156877380Y-79181927D01*
X156877380Y-79181927D02*
X156972618Y-79181927D01*
X156972618Y-79181927D02*
X157010713Y-79162880D01*
X157010713Y-79162880D02*
X157029761Y-79143832D01*
X156667857Y-78781927D02*
X156401190Y-78781927D01*
X156401190Y-78781927D02*
X156572619Y-79181927D01*
D10*
X142964765Y-84583333D02*
X142976670Y-84571429D01*
X142976670Y-84571429D02*
X142988574Y-84535714D01*
X142988574Y-84535714D02*
X142988574Y-84511905D01*
X142988574Y-84511905D02*
X142976670Y-84476191D01*
X142976670Y-84476191D02*
X142952860Y-84452381D01*
X142952860Y-84452381D02*
X142929050Y-84440476D01*
X142929050Y-84440476D02*
X142881431Y-84428572D01*
X142881431Y-84428572D02*
X142845717Y-84428572D01*
X142845717Y-84428572D02*
X142798098Y-84440476D01*
X142798098Y-84440476D02*
X142774289Y-84452381D01*
X142774289Y-84452381D02*
X142750479Y-84476191D01*
X142750479Y-84476191D02*
X142738574Y-84511905D01*
X142738574Y-84511905D02*
X142738574Y-84535714D01*
X142738574Y-84535714D02*
X142750479Y-84571429D01*
X142750479Y-84571429D02*
X142762384Y-84583333D01*
X142988574Y-84821429D02*
X142988574Y-84678572D01*
X142988574Y-84750000D02*
X142738574Y-84750000D01*
X142738574Y-84750000D02*
X142774289Y-84726191D01*
X142774289Y-84726191D02*
X142798098Y-84702381D01*
X142798098Y-84702381D02*
X142810003Y-84678572D01*
D11*
X145543832Y-63926045D02*
X145562880Y-63906997D01*
X145562880Y-63906997D02*
X145581927Y-63849855D01*
X145581927Y-63849855D02*
X145581927Y-63811759D01*
X145581927Y-63811759D02*
X145562880Y-63754616D01*
X145562880Y-63754616D02*
X145524784Y-63716521D01*
X145524784Y-63716521D02*
X145486689Y-63697474D01*
X145486689Y-63697474D02*
X145410499Y-63678426D01*
X145410499Y-63678426D02*
X145353356Y-63678426D01*
X145353356Y-63678426D02*
X145277165Y-63697474D01*
X145277165Y-63697474D02*
X145239070Y-63716521D01*
X145239070Y-63716521D02*
X145200975Y-63754616D01*
X145200975Y-63754616D02*
X145181927Y-63811759D01*
X145181927Y-63811759D02*
X145181927Y-63849855D01*
X145181927Y-63849855D02*
X145200975Y-63906997D01*
X145200975Y-63906997D02*
X145220022Y-63926045D01*
X145181927Y-64059378D02*
X145181927Y-64326045D01*
X145181927Y-64326045D02*
X145581927Y-64154616D01*
X145181927Y-64440330D02*
X145181927Y-64706997D01*
X145181927Y-64706997D02*
X145581927Y-64535568D01*
X159642531Y-70242857D02*
X159661579Y-70223809D01*
X159661579Y-70223809D02*
X159680626Y-70166667D01*
X159680626Y-70166667D02*
X159680626Y-70128571D01*
X159680626Y-70128571D02*
X159661579Y-70071428D01*
X159661579Y-70071428D02*
X159623483Y-70033333D01*
X159623483Y-70033333D02*
X159585388Y-70014286D01*
X159585388Y-70014286D02*
X159509198Y-69995238D01*
X159509198Y-69995238D02*
X159452055Y-69995238D01*
X159452055Y-69995238D02*
X159375864Y-70014286D01*
X159375864Y-70014286D02*
X159337769Y-70033333D01*
X159337769Y-70033333D02*
X159299674Y-70071428D01*
X159299674Y-70071428D02*
X159280626Y-70128571D01*
X159280626Y-70128571D02*
X159280626Y-70166667D01*
X159280626Y-70166667D02*
X159299674Y-70223809D01*
X159299674Y-70223809D02*
X159318721Y-70242857D01*
X159280626Y-70604762D02*
X159280626Y-70414286D01*
X159280626Y-70414286D02*
X159471102Y-70395238D01*
X159471102Y-70395238D02*
X159452055Y-70414286D01*
X159452055Y-70414286D02*
X159433007Y-70452381D01*
X159433007Y-70452381D02*
X159433007Y-70547619D01*
X159433007Y-70547619D02*
X159452055Y-70585714D01*
X159452055Y-70585714D02*
X159471102Y-70604762D01*
X159471102Y-70604762D02*
X159509198Y-70623809D01*
X159509198Y-70623809D02*
X159604436Y-70623809D01*
X159604436Y-70623809D02*
X159642531Y-70604762D01*
X159642531Y-70604762D02*
X159661579Y-70585714D01*
X159661579Y-70585714D02*
X159680626Y-70547619D01*
X159680626Y-70547619D02*
X159680626Y-70452381D01*
X159680626Y-70452381D02*
X159661579Y-70414286D01*
X159661579Y-70414286D02*
X159642531Y-70395238D01*
X159680626Y-70814285D02*
X159680626Y-70890476D01*
X159680626Y-70890476D02*
X159661579Y-70928571D01*
X159661579Y-70928571D02*
X159642531Y-70947619D01*
X159642531Y-70947619D02*
X159585388Y-70985714D01*
X159585388Y-70985714D02*
X159509198Y-71004761D01*
X159509198Y-71004761D02*
X159356817Y-71004761D01*
X159356817Y-71004761D02*
X159318721Y-70985714D01*
X159318721Y-70985714D02*
X159299674Y-70966666D01*
X159299674Y-70966666D02*
X159280626Y-70928571D01*
X159280626Y-70928571D02*
X159280626Y-70852380D01*
X159280626Y-70852380D02*
X159299674Y-70814285D01*
X159299674Y-70814285D02*
X159318721Y-70795238D01*
X159318721Y-70795238D02*
X159356817Y-70776190D01*
X159356817Y-70776190D02*
X159452055Y-70776190D01*
X159452055Y-70776190D02*
X159490150Y-70795238D01*
X159490150Y-70795238D02*
X159509198Y-70814285D01*
X159509198Y-70814285D02*
X159528245Y-70852380D01*
X159528245Y-70852380D02*
X159528245Y-70928571D01*
X159528245Y-70928571D02*
X159509198Y-70966666D01*
X159509198Y-70966666D02*
X159490150Y-70985714D01*
X159490150Y-70985714D02*
X159452055Y-71004761D01*
X158406927Y-81142857D02*
X158216451Y-81009524D01*
X158406927Y-80914286D02*
X158006927Y-80914286D01*
X158006927Y-80914286D02*
X158006927Y-81066667D01*
X158006927Y-81066667D02*
X158025975Y-81104762D01*
X158025975Y-81104762D02*
X158045022Y-81123809D01*
X158045022Y-81123809D02*
X158083118Y-81142857D01*
X158083118Y-81142857D02*
X158140260Y-81142857D01*
X158140260Y-81142857D02*
X158178356Y-81123809D01*
X158178356Y-81123809D02*
X158197403Y-81104762D01*
X158197403Y-81104762D02*
X158216451Y-81066667D01*
X158216451Y-81066667D02*
X158216451Y-80914286D01*
X158006927Y-81276190D02*
X158006927Y-81523809D01*
X158006927Y-81523809D02*
X158159308Y-81390476D01*
X158159308Y-81390476D02*
X158159308Y-81447619D01*
X158159308Y-81447619D02*
X158178356Y-81485714D01*
X158178356Y-81485714D02*
X158197403Y-81504762D01*
X158197403Y-81504762D02*
X158235499Y-81523809D01*
X158235499Y-81523809D02*
X158330737Y-81523809D01*
X158330737Y-81523809D02*
X158368832Y-81504762D01*
X158368832Y-81504762D02*
X158387880Y-81485714D01*
X158387880Y-81485714D02*
X158406927Y-81447619D01*
X158406927Y-81447619D02*
X158406927Y-81333333D01*
X158406927Y-81333333D02*
X158387880Y-81295238D01*
X158387880Y-81295238D02*
X158368832Y-81276190D01*
X158140260Y-81866666D02*
X158406927Y-81866666D01*
X157987880Y-81771428D02*
X158273594Y-81676190D01*
X158273594Y-81676190D02*
X158273594Y-81923809D01*
X143081928Y-61101045D02*
X142891452Y-60967712D01*
X143081928Y-60872474D02*
X142681928Y-60872474D01*
X142681928Y-60872474D02*
X142681928Y-61024855D01*
X142681928Y-61024855D02*
X142700976Y-61062950D01*
X142700976Y-61062950D02*
X142720023Y-61081997D01*
X142720023Y-61081997D02*
X142758119Y-61101045D01*
X142758119Y-61101045D02*
X142815261Y-61101045D01*
X142815261Y-61101045D02*
X142853357Y-61081997D01*
X142853357Y-61081997D02*
X142872404Y-61062950D01*
X142872404Y-61062950D02*
X142891452Y-61024855D01*
X142891452Y-61024855D02*
X142891452Y-60872474D01*
X142681928Y-61462950D02*
X142681928Y-61272474D01*
X142681928Y-61272474D02*
X142872404Y-61253426D01*
X142872404Y-61253426D02*
X142853357Y-61272474D01*
X142853357Y-61272474D02*
X142834309Y-61310569D01*
X142834309Y-61310569D02*
X142834309Y-61405807D01*
X142834309Y-61405807D02*
X142853357Y-61443902D01*
X142853357Y-61443902D02*
X142872404Y-61462950D01*
X142872404Y-61462950D02*
X142910500Y-61481997D01*
X142910500Y-61481997D02*
X143005738Y-61481997D01*
X143005738Y-61481997D02*
X143043833Y-61462950D01*
X143043833Y-61462950D02*
X143062881Y-61443902D01*
X143062881Y-61443902D02*
X143081928Y-61405807D01*
X143081928Y-61405807D02*
X143081928Y-61310569D01*
X143081928Y-61310569D02*
X143062881Y-61272474D01*
X143062881Y-61272474D02*
X143043833Y-61253426D01*
X142681928Y-61615330D02*
X142681928Y-61862949D01*
X142681928Y-61862949D02*
X142834309Y-61729616D01*
X142834309Y-61729616D02*
X142834309Y-61786759D01*
X142834309Y-61786759D02*
X142853357Y-61824854D01*
X142853357Y-61824854D02*
X142872404Y-61843902D01*
X142872404Y-61843902D02*
X142910500Y-61862949D01*
X142910500Y-61862949D02*
X143005738Y-61862949D01*
X143005738Y-61862949D02*
X143043833Y-61843902D01*
X143043833Y-61843902D02*
X143062881Y-61824854D01*
X143062881Y-61824854D02*
X143081928Y-61786759D01*
X143081928Y-61786759D02*
X143081928Y-61672473D01*
X143081928Y-61672473D02*
X143062881Y-61634378D01*
X143062881Y-61634378D02*
X143043833Y-61615330D01*
D10*
X146116666Y-79464765D02*
X146128570Y-79476670D01*
X146128570Y-79476670D02*
X146164285Y-79488574D01*
X146164285Y-79488574D02*
X146188094Y-79488574D01*
X146188094Y-79488574D02*
X146223808Y-79476670D01*
X146223808Y-79476670D02*
X146247618Y-79452860D01*
X146247618Y-79452860D02*
X146259523Y-79429050D01*
X146259523Y-79429050D02*
X146271427Y-79381431D01*
X146271427Y-79381431D02*
X146271427Y-79345717D01*
X146271427Y-79345717D02*
X146259523Y-79298098D01*
X146259523Y-79298098D02*
X146247618Y-79274289D01*
X146247618Y-79274289D02*
X146223808Y-79250479D01*
X146223808Y-79250479D02*
X146188094Y-79238574D01*
X146188094Y-79238574D02*
X146164285Y-79238574D01*
X146164285Y-79238574D02*
X146128570Y-79250479D01*
X146128570Y-79250479D02*
X146116666Y-79262384D01*
X145902380Y-79321908D02*
X145902380Y-79488574D01*
X145961904Y-79226670D02*
X146021427Y-79405241D01*
X146021427Y-79405241D02*
X145866666Y-79405241D01*
D11*
X128516586Y-73731926D02*
X128649919Y-73541450D01*
X128745157Y-73731926D02*
X128745157Y-73331926D01*
X128745157Y-73331926D02*
X128592776Y-73331926D01*
X128592776Y-73331926D02*
X128554681Y-73350974D01*
X128554681Y-73350974D02*
X128535634Y-73370021D01*
X128535634Y-73370021D02*
X128516586Y-73408117D01*
X128516586Y-73408117D02*
X128516586Y-73465259D01*
X128516586Y-73465259D02*
X128535634Y-73503355D01*
X128535634Y-73503355D02*
X128554681Y-73522402D01*
X128554681Y-73522402D02*
X128592776Y-73541450D01*
X128592776Y-73541450D02*
X128745157Y-73541450D01*
X128383253Y-73331926D02*
X128116586Y-73331926D01*
X128116586Y-73331926D02*
X128288015Y-73731926D01*
X128002301Y-73331926D02*
X127754682Y-73331926D01*
X127754682Y-73331926D02*
X127888015Y-73484307D01*
X127888015Y-73484307D02*
X127830872Y-73484307D01*
X127830872Y-73484307D02*
X127792777Y-73503355D01*
X127792777Y-73503355D02*
X127773729Y-73522402D01*
X127773729Y-73522402D02*
X127754682Y-73560498D01*
X127754682Y-73560498D02*
X127754682Y-73655736D01*
X127754682Y-73655736D02*
X127773729Y-73693831D01*
X127773729Y-73693831D02*
X127792777Y-73712879D01*
X127792777Y-73712879D02*
X127830872Y-73731926D01*
X127830872Y-73731926D02*
X127945158Y-73731926D01*
X127945158Y-73731926D02*
X127983253Y-73712879D01*
X127983253Y-73712879D02*
X128002301Y-73693831D01*
X138207142Y-77956927D02*
X138340475Y-77766451D01*
X138435713Y-77956927D02*
X138435713Y-77556927D01*
X138435713Y-77556927D02*
X138283332Y-77556927D01*
X138283332Y-77556927D02*
X138245237Y-77575975D01*
X138245237Y-77575975D02*
X138226190Y-77595022D01*
X138226190Y-77595022D02*
X138207142Y-77633118D01*
X138207142Y-77633118D02*
X138207142Y-77690260D01*
X138207142Y-77690260D02*
X138226190Y-77728356D01*
X138226190Y-77728356D02*
X138245237Y-77747403D01*
X138245237Y-77747403D02*
X138283332Y-77766451D01*
X138283332Y-77766451D02*
X138435713Y-77766451D01*
X137826190Y-77956927D02*
X138054761Y-77956927D01*
X137940475Y-77956927D02*
X137940475Y-77556927D01*
X137940475Y-77556927D02*
X137978571Y-77614070D01*
X137978571Y-77614070D02*
X138016666Y-77652165D01*
X138016666Y-77652165D02*
X138054761Y-77671213D01*
X137597619Y-77728356D02*
X137635714Y-77709308D01*
X137635714Y-77709308D02*
X137654761Y-77690260D01*
X137654761Y-77690260D02*
X137673809Y-77652165D01*
X137673809Y-77652165D02*
X137673809Y-77633118D01*
X137673809Y-77633118D02*
X137654761Y-77595022D01*
X137654761Y-77595022D02*
X137635714Y-77575975D01*
X137635714Y-77575975D02*
X137597619Y-77556927D01*
X137597619Y-77556927D02*
X137521428Y-77556927D01*
X137521428Y-77556927D02*
X137483333Y-77575975D01*
X137483333Y-77575975D02*
X137464285Y-77595022D01*
X137464285Y-77595022D02*
X137445238Y-77633118D01*
X137445238Y-77633118D02*
X137445238Y-77652165D01*
X137445238Y-77652165D02*
X137464285Y-77690260D01*
X137464285Y-77690260D02*
X137483333Y-77709308D01*
X137483333Y-77709308D02*
X137521428Y-77728356D01*
X137521428Y-77728356D02*
X137597619Y-77728356D01*
X137597619Y-77728356D02*
X137635714Y-77747403D01*
X137635714Y-77747403D02*
X137654761Y-77766451D01*
X137654761Y-77766451D02*
X137673809Y-77804546D01*
X137673809Y-77804546D02*
X137673809Y-77880737D01*
X137673809Y-77880737D02*
X137654761Y-77918832D01*
X137654761Y-77918832D02*
X137635714Y-77937880D01*
X137635714Y-77937880D02*
X137597619Y-77956927D01*
X137597619Y-77956927D02*
X137521428Y-77956927D01*
X137521428Y-77956927D02*
X137483333Y-77937880D01*
X137483333Y-77937880D02*
X137464285Y-77918832D01*
X137464285Y-77918832D02*
X137445238Y-77880737D01*
X137445238Y-77880737D02*
X137445238Y-77804546D01*
X137445238Y-77804546D02*
X137464285Y-77766451D01*
X137464285Y-77766451D02*
X137483333Y-77747403D01*
X137483333Y-77747403D02*
X137521428Y-77728356D01*
X161107142Y-79193832D02*
X161126190Y-79212880D01*
X161126190Y-79212880D02*
X161183332Y-79231927D01*
X161183332Y-79231927D02*
X161221428Y-79231927D01*
X161221428Y-79231927D02*
X161278571Y-79212880D01*
X161278571Y-79212880D02*
X161316666Y-79174784D01*
X161316666Y-79174784D02*
X161335713Y-79136689D01*
X161335713Y-79136689D02*
X161354761Y-79060499D01*
X161354761Y-79060499D02*
X161354761Y-79003356D01*
X161354761Y-79003356D02*
X161335713Y-78927165D01*
X161335713Y-78927165D02*
X161316666Y-78889070D01*
X161316666Y-78889070D02*
X161278571Y-78850975D01*
X161278571Y-78850975D02*
X161221428Y-78831927D01*
X161221428Y-78831927D02*
X161183332Y-78831927D01*
X161183332Y-78831927D02*
X161126190Y-78850975D01*
X161126190Y-78850975D02*
X161107142Y-78870022D01*
X160764285Y-78831927D02*
X160840475Y-78831927D01*
X160840475Y-78831927D02*
X160878571Y-78850975D01*
X160878571Y-78850975D02*
X160897618Y-78870022D01*
X160897618Y-78870022D02*
X160935713Y-78927165D01*
X160935713Y-78927165D02*
X160954761Y-79003356D01*
X160954761Y-79003356D02*
X160954761Y-79155737D01*
X160954761Y-79155737D02*
X160935713Y-79193832D01*
X160935713Y-79193832D02*
X160916666Y-79212880D01*
X160916666Y-79212880D02*
X160878571Y-79231927D01*
X160878571Y-79231927D02*
X160802380Y-79231927D01*
X160802380Y-79231927D02*
X160764285Y-79212880D01*
X160764285Y-79212880D02*
X160745237Y-79193832D01*
X160745237Y-79193832D02*
X160726190Y-79155737D01*
X160726190Y-79155737D02*
X160726190Y-79060499D01*
X160726190Y-79060499D02*
X160745237Y-79022403D01*
X160745237Y-79022403D02*
X160764285Y-79003356D01*
X160764285Y-79003356D02*
X160802380Y-78984308D01*
X160802380Y-78984308D02*
X160878571Y-78984308D01*
X160878571Y-78984308D02*
X160916666Y-79003356D01*
X160916666Y-79003356D02*
X160935713Y-79022403D01*
X160935713Y-79022403D02*
X160954761Y-79060499D01*
X160478571Y-78831927D02*
X160440476Y-78831927D01*
X160440476Y-78831927D02*
X160402380Y-78850975D01*
X160402380Y-78850975D02*
X160383333Y-78870022D01*
X160383333Y-78870022D02*
X160364285Y-78908118D01*
X160364285Y-78908118D02*
X160345238Y-78984308D01*
X160345238Y-78984308D02*
X160345238Y-79079546D01*
X160345238Y-79079546D02*
X160364285Y-79155737D01*
X160364285Y-79155737D02*
X160383333Y-79193832D01*
X160383333Y-79193832D02*
X160402380Y-79212880D01*
X160402380Y-79212880D02*
X160440476Y-79231927D01*
X160440476Y-79231927D02*
X160478571Y-79231927D01*
X160478571Y-79231927D02*
X160516666Y-79212880D01*
X160516666Y-79212880D02*
X160535714Y-79193832D01*
X160535714Y-79193832D02*
X160554761Y-79155737D01*
X160554761Y-79155737D02*
X160573809Y-79079546D01*
X160573809Y-79079546D02*
X160573809Y-78984308D01*
X160573809Y-78984308D02*
X160554761Y-78908118D01*
X160554761Y-78908118D02*
X160535714Y-78870022D01*
X160535714Y-78870022D02*
X160516666Y-78850975D01*
X160516666Y-78850975D02*
X160478571Y-78831927D01*
D12*
X149086905Y-108404820D02*
X149086905Y-109214343D01*
X149086905Y-109214343D02*
X149039286Y-109309581D01*
X149039286Y-109309581D02*
X148991667Y-109357201D01*
X148991667Y-109357201D02*
X148896429Y-109404820D01*
X148896429Y-109404820D02*
X148705953Y-109404820D01*
X148705953Y-109404820D02*
X148610715Y-109357201D01*
X148610715Y-109357201D02*
X148563096Y-109309581D01*
X148563096Y-109309581D02*
X148515477Y-109214343D01*
X148515477Y-109214343D02*
X148515477Y-108404820D01*
X148086905Y-108500058D02*
X148039286Y-108452439D01*
X148039286Y-108452439D02*
X147944048Y-108404820D01*
X147944048Y-108404820D02*
X147705953Y-108404820D01*
X147705953Y-108404820D02*
X147610715Y-108452439D01*
X147610715Y-108452439D02*
X147563096Y-108500058D01*
X147563096Y-108500058D02*
X147515477Y-108595296D01*
X147515477Y-108595296D02*
X147515477Y-108690534D01*
X147515477Y-108690534D02*
X147563096Y-108833391D01*
X147563096Y-108833391D02*
X148134524Y-109404820D01*
X148134524Y-109404820D02*
X147515477Y-109404820D01*
D10*
X149360714Y-75844765D02*
X149372618Y-75856670D01*
X149372618Y-75856670D02*
X149408333Y-75868574D01*
X149408333Y-75868574D02*
X149432142Y-75868574D01*
X149432142Y-75868574D02*
X149467856Y-75856670D01*
X149467856Y-75856670D02*
X149491666Y-75832860D01*
X149491666Y-75832860D02*
X149503571Y-75809050D01*
X149503571Y-75809050D02*
X149515475Y-75761431D01*
X149515475Y-75761431D02*
X149515475Y-75725717D01*
X149515475Y-75725717D02*
X149503571Y-75678098D01*
X149503571Y-75678098D02*
X149491666Y-75654289D01*
X149491666Y-75654289D02*
X149467856Y-75630479D01*
X149467856Y-75630479D02*
X149432142Y-75618574D01*
X149432142Y-75618574D02*
X149408333Y-75618574D01*
X149408333Y-75618574D02*
X149372618Y-75630479D01*
X149372618Y-75630479D02*
X149360714Y-75642384D01*
X149265475Y-75642384D02*
X149253571Y-75630479D01*
X149253571Y-75630479D02*
X149229761Y-75618574D01*
X149229761Y-75618574D02*
X149170237Y-75618574D01*
X149170237Y-75618574D02*
X149146428Y-75630479D01*
X149146428Y-75630479D02*
X149134523Y-75642384D01*
X149134523Y-75642384D02*
X149122618Y-75666193D01*
X149122618Y-75666193D02*
X149122618Y-75690003D01*
X149122618Y-75690003D02*
X149134523Y-75725717D01*
X149134523Y-75725717D02*
X149277380Y-75868574D01*
X149277380Y-75868574D02*
X149122618Y-75868574D01*
X149027380Y-75642384D02*
X149015476Y-75630479D01*
X149015476Y-75630479D02*
X148991666Y-75618574D01*
X148991666Y-75618574D02*
X148932142Y-75618574D01*
X148932142Y-75618574D02*
X148908333Y-75630479D01*
X148908333Y-75630479D02*
X148896428Y-75642384D01*
X148896428Y-75642384D02*
X148884523Y-75666193D01*
X148884523Y-75666193D02*
X148884523Y-75690003D01*
X148884523Y-75690003D02*
X148896428Y-75725717D01*
X148896428Y-75725717D02*
X149039285Y-75868574D01*
X149039285Y-75868574D02*
X148884523Y-75868574D01*
X148659765Y-81064285D02*
X148671670Y-81052381D01*
X148671670Y-81052381D02*
X148683574Y-81016666D01*
X148683574Y-81016666D02*
X148683574Y-80992857D01*
X148683574Y-80992857D02*
X148671670Y-80957143D01*
X148671670Y-80957143D02*
X148647860Y-80933333D01*
X148647860Y-80933333D02*
X148624050Y-80921428D01*
X148624050Y-80921428D02*
X148576431Y-80909524D01*
X148576431Y-80909524D02*
X148540717Y-80909524D01*
X148540717Y-80909524D02*
X148493098Y-80921428D01*
X148493098Y-80921428D02*
X148469289Y-80933333D01*
X148469289Y-80933333D02*
X148445479Y-80957143D01*
X148445479Y-80957143D02*
X148433574Y-80992857D01*
X148433574Y-80992857D02*
X148433574Y-81016666D01*
X148433574Y-81016666D02*
X148445479Y-81052381D01*
X148445479Y-81052381D02*
X148457384Y-81064285D01*
X148683574Y-81302381D02*
X148683574Y-81159524D01*
X148683574Y-81230952D02*
X148433574Y-81230952D01*
X148433574Y-81230952D02*
X148469289Y-81207143D01*
X148469289Y-81207143D02*
X148493098Y-81183333D01*
X148493098Y-81183333D02*
X148505003Y-81159524D01*
X148433574Y-81385714D02*
X148433574Y-81540476D01*
X148433574Y-81540476D02*
X148528812Y-81457142D01*
X148528812Y-81457142D02*
X148528812Y-81492857D01*
X148528812Y-81492857D02*
X148540717Y-81516666D01*
X148540717Y-81516666D02*
X148552622Y-81528571D01*
X148552622Y-81528571D02*
X148576431Y-81540476D01*
X148576431Y-81540476D02*
X148635955Y-81540476D01*
X148635955Y-81540476D02*
X148659765Y-81528571D01*
X148659765Y-81528571D02*
X148671670Y-81516666D01*
X148671670Y-81516666D02*
X148683574Y-81492857D01*
X148683574Y-81492857D02*
X148683574Y-81421428D01*
X148683574Y-81421428D02*
X148671670Y-81397619D01*
X148671670Y-81397619D02*
X148659765Y-81385714D01*
D11*
X150106927Y-66792857D02*
X149916451Y-66659524D01*
X150106927Y-66564286D02*
X149706927Y-66564286D01*
X149706927Y-66564286D02*
X149706927Y-66716667D01*
X149706927Y-66716667D02*
X149725975Y-66754762D01*
X149725975Y-66754762D02*
X149745022Y-66773809D01*
X149745022Y-66773809D02*
X149783118Y-66792857D01*
X149783118Y-66792857D02*
X149840260Y-66792857D01*
X149840260Y-66792857D02*
X149878356Y-66773809D01*
X149878356Y-66773809D02*
X149897403Y-66754762D01*
X149897403Y-66754762D02*
X149916451Y-66716667D01*
X149916451Y-66716667D02*
X149916451Y-66564286D01*
X149745022Y-66945238D02*
X149725975Y-66964286D01*
X149725975Y-66964286D02*
X149706927Y-67002381D01*
X149706927Y-67002381D02*
X149706927Y-67097619D01*
X149706927Y-67097619D02*
X149725975Y-67135714D01*
X149725975Y-67135714D02*
X149745022Y-67154762D01*
X149745022Y-67154762D02*
X149783118Y-67173809D01*
X149783118Y-67173809D02*
X149821213Y-67173809D01*
X149821213Y-67173809D02*
X149878356Y-67154762D01*
X149878356Y-67154762D02*
X150106927Y-66926190D01*
X150106927Y-66926190D02*
X150106927Y-67173809D01*
X149706927Y-67421428D02*
X149706927Y-67459523D01*
X149706927Y-67459523D02*
X149725975Y-67497619D01*
X149725975Y-67497619D02*
X149745022Y-67516666D01*
X149745022Y-67516666D02*
X149783118Y-67535714D01*
X149783118Y-67535714D02*
X149859308Y-67554761D01*
X149859308Y-67554761D02*
X149954546Y-67554761D01*
X149954546Y-67554761D02*
X150030737Y-67535714D01*
X150030737Y-67535714D02*
X150068832Y-67516666D01*
X150068832Y-67516666D02*
X150087880Y-67497619D01*
X150087880Y-67497619D02*
X150106927Y-67459523D01*
X150106927Y-67459523D02*
X150106927Y-67421428D01*
X150106927Y-67421428D02*
X150087880Y-67383333D01*
X150087880Y-67383333D02*
X150068832Y-67364285D01*
X150068832Y-67364285D02*
X150030737Y-67345238D01*
X150030737Y-67345238D02*
X149954546Y-67326190D01*
X149954546Y-67326190D02*
X149859308Y-67326190D01*
X149859308Y-67326190D02*
X149783118Y-67345238D01*
X149783118Y-67345238D02*
X149745022Y-67364285D01*
X149745022Y-67364285D02*
X149725975Y-67383333D01*
X149725975Y-67383333D02*
X149706927Y-67421428D01*
X152011542Y-106031927D02*
X152144875Y-105841451D01*
X152240113Y-106031927D02*
X152240113Y-105631927D01*
X152240113Y-105631927D02*
X152087732Y-105631927D01*
X152087732Y-105631927D02*
X152049637Y-105650975D01*
X152049637Y-105650975D02*
X152030590Y-105670022D01*
X152030590Y-105670022D02*
X152011542Y-105708118D01*
X152011542Y-105708118D02*
X152011542Y-105765260D01*
X152011542Y-105765260D02*
X152030590Y-105803356D01*
X152030590Y-105803356D02*
X152049637Y-105822403D01*
X152049637Y-105822403D02*
X152087732Y-105841451D01*
X152087732Y-105841451D02*
X152240113Y-105841451D01*
X151630590Y-106031927D02*
X151859161Y-106031927D01*
X151744875Y-106031927D02*
X151744875Y-105631927D01*
X151744875Y-105631927D02*
X151782971Y-105689070D01*
X151782971Y-105689070D02*
X151821066Y-105727165D01*
X151821066Y-105727165D02*
X151859161Y-105746213D01*
X151249638Y-106031927D02*
X151478209Y-106031927D01*
X151363923Y-106031927D02*
X151363923Y-105631927D01*
X151363923Y-105631927D02*
X151402019Y-105689070D01*
X151402019Y-105689070D02*
X151440114Y-105727165D01*
X151440114Y-105727165D02*
X151478209Y-105746213D01*
D10*
X143941666Y-77459765D02*
X143953570Y-77471670D01*
X143953570Y-77471670D02*
X143989285Y-77483574D01*
X143989285Y-77483574D02*
X144013094Y-77483574D01*
X144013094Y-77483574D02*
X144048808Y-77471670D01*
X144048808Y-77471670D02*
X144072618Y-77447860D01*
X144072618Y-77447860D02*
X144084523Y-77424050D01*
X144084523Y-77424050D02*
X144096427Y-77376431D01*
X144096427Y-77376431D02*
X144096427Y-77340717D01*
X144096427Y-77340717D02*
X144084523Y-77293098D01*
X144084523Y-77293098D02*
X144072618Y-77269289D01*
X144072618Y-77269289D02*
X144048808Y-77245479D01*
X144048808Y-77245479D02*
X144013094Y-77233574D01*
X144013094Y-77233574D02*
X143989285Y-77233574D01*
X143989285Y-77233574D02*
X143953570Y-77245479D01*
X143953570Y-77245479D02*
X143941666Y-77257384D01*
X143727380Y-77233574D02*
X143774999Y-77233574D01*
X143774999Y-77233574D02*
X143798808Y-77245479D01*
X143798808Y-77245479D02*
X143810713Y-77257384D01*
X143810713Y-77257384D02*
X143834523Y-77293098D01*
X143834523Y-77293098D02*
X143846427Y-77340717D01*
X143846427Y-77340717D02*
X143846427Y-77435955D01*
X143846427Y-77435955D02*
X143834523Y-77459765D01*
X143834523Y-77459765D02*
X143822618Y-77471670D01*
X143822618Y-77471670D02*
X143798808Y-77483574D01*
X143798808Y-77483574D02*
X143751189Y-77483574D01*
X143751189Y-77483574D02*
X143727380Y-77471670D01*
X143727380Y-77471670D02*
X143715475Y-77459765D01*
X143715475Y-77459765D02*
X143703570Y-77435955D01*
X143703570Y-77435955D02*
X143703570Y-77376431D01*
X143703570Y-77376431D02*
X143715475Y-77352622D01*
X143715475Y-77352622D02*
X143727380Y-77340717D01*
X143727380Y-77340717D02*
X143751189Y-77328812D01*
X143751189Y-77328812D02*
X143798808Y-77328812D01*
X143798808Y-77328812D02*
X143822618Y-77340717D01*
X143822618Y-77340717D02*
X143834523Y-77352622D01*
X143834523Y-77352622D02*
X143846427Y-77376431D01*
D11*
X158007142Y-75731927D02*
X158140475Y-75541451D01*
X158235713Y-75731927D02*
X158235713Y-75331927D01*
X158235713Y-75331927D02*
X158083332Y-75331927D01*
X158083332Y-75331927D02*
X158045237Y-75350975D01*
X158045237Y-75350975D02*
X158026190Y-75370022D01*
X158026190Y-75370022D02*
X158007142Y-75408118D01*
X158007142Y-75408118D02*
X158007142Y-75465260D01*
X158007142Y-75465260D02*
X158026190Y-75503356D01*
X158026190Y-75503356D02*
X158045237Y-75522403D01*
X158045237Y-75522403D02*
X158083332Y-75541451D01*
X158083332Y-75541451D02*
X158235713Y-75541451D01*
X157626190Y-75731927D02*
X157854761Y-75731927D01*
X157740475Y-75731927D02*
X157740475Y-75331927D01*
X157740475Y-75331927D02*
X157778571Y-75389070D01*
X157778571Y-75389070D02*
X157816666Y-75427165D01*
X157816666Y-75427165D02*
X157854761Y-75446213D01*
X157283333Y-75465260D02*
X157283333Y-75731927D01*
X157378571Y-75312880D02*
X157473809Y-75598594D01*
X157473809Y-75598594D02*
X157226190Y-75598594D01*
X150068832Y-69892857D02*
X150087880Y-69873809D01*
X150087880Y-69873809D02*
X150106927Y-69816667D01*
X150106927Y-69816667D02*
X150106927Y-69778571D01*
X150106927Y-69778571D02*
X150087880Y-69721428D01*
X150087880Y-69721428D02*
X150049784Y-69683333D01*
X150049784Y-69683333D02*
X150011689Y-69664286D01*
X150011689Y-69664286D02*
X149935499Y-69645238D01*
X149935499Y-69645238D02*
X149878356Y-69645238D01*
X149878356Y-69645238D02*
X149802165Y-69664286D01*
X149802165Y-69664286D02*
X149764070Y-69683333D01*
X149764070Y-69683333D02*
X149725975Y-69721428D01*
X149725975Y-69721428D02*
X149706927Y-69778571D01*
X149706927Y-69778571D02*
X149706927Y-69816667D01*
X149706927Y-69816667D02*
X149725975Y-69873809D01*
X149725975Y-69873809D02*
X149745022Y-69892857D01*
X149840260Y-70235714D02*
X150106927Y-70235714D01*
X149687880Y-70140476D02*
X149973594Y-70045238D01*
X149973594Y-70045238D02*
X149973594Y-70292857D01*
X149706927Y-70616666D02*
X149706927Y-70540476D01*
X149706927Y-70540476D02*
X149725975Y-70502380D01*
X149725975Y-70502380D02*
X149745022Y-70483333D01*
X149745022Y-70483333D02*
X149802165Y-70445238D01*
X149802165Y-70445238D02*
X149878356Y-70426190D01*
X149878356Y-70426190D02*
X150030737Y-70426190D01*
X150030737Y-70426190D02*
X150068832Y-70445238D01*
X150068832Y-70445238D02*
X150087880Y-70464285D01*
X150087880Y-70464285D02*
X150106927Y-70502380D01*
X150106927Y-70502380D02*
X150106927Y-70578571D01*
X150106927Y-70578571D02*
X150087880Y-70616666D01*
X150087880Y-70616666D02*
X150068832Y-70635714D01*
X150068832Y-70635714D02*
X150030737Y-70654761D01*
X150030737Y-70654761D02*
X149935499Y-70654761D01*
X149935499Y-70654761D02*
X149897403Y-70635714D01*
X149897403Y-70635714D02*
X149878356Y-70616666D01*
X149878356Y-70616666D02*
X149859308Y-70578571D01*
X149859308Y-70578571D02*
X149859308Y-70502380D01*
X149859308Y-70502380D02*
X149878356Y-70464285D01*
X149878356Y-70464285D02*
X149897403Y-70445238D01*
X149897403Y-70445238D02*
X149935499Y-70426190D01*
X145231927Y-69917857D02*
X145041451Y-69784524D01*
X145231927Y-69689286D02*
X144831927Y-69689286D01*
X144831927Y-69689286D02*
X144831927Y-69841667D01*
X144831927Y-69841667D02*
X144850975Y-69879762D01*
X144850975Y-69879762D02*
X144870022Y-69898809D01*
X144870022Y-69898809D02*
X144908118Y-69917857D01*
X144908118Y-69917857D02*
X144965260Y-69917857D01*
X144965260Y-69917857D02*
X145003356Y-69898809D01*
X145003356Y-69898809D02*
X145022403Y-69879762D01*
X145022403Y-69879762D02*
X145041451Y-69841667D01*
X145041451Y-69841667D02*
X145041451Y-69689286D01*
X145231927Y-70298809D02*
X145231927Y-70070238D01*
X145231927Y-70184524D02*
X144831927Y-70184524D01*
X144831927Y-70184524D02*
X144889070Y-70146428D01*
X144889070Y-70146428D02*
X144927165Y-70108333D01*
X144927165Y-70108333D02*
X144946213Y-70070238D01*
X144831927Y-70641666D02*
X144831927Y-70565476D01*
X144831927Y-70565476D02*
X144850975Y-70527380D01*
X144850975Y-70527380D02*
X144870022Y-70508333D01*
X144870022Y-70508333D02*
X144927165Y-70470238D01*
X144927165Y-70470238D02*
X145003356Y-70451190D01*
X145003356Y-70451190D02*
X145155737Y-70451190D01*
X145155737Y-70451190D02*
X145193832Y-70470238D01*
X145193832Y-70470238D02*
X145212880Y-70489285D01*
X145212880Y-70489285D02*
X145231927Y-70527380D01*
X145231927Y-70527380D02*
X145231927Y-70603571D01*
X145231927Y-70603571D02*
X145212880Y-70641666D01*
X145212880Y-70641666D02*
X145193832Y-70660714D01*
X145193832Y-70660714D02*
X145155737Y-70679761D01*
X145155737Y-70679761D02*
X145060499Y-70679761D01*
X145060499Y-70679761D02*
X145022403Y-70660714D01*
X145022403Y-70660714D02*
X145003356Y-70641666D01*
X145003356Y-70641666D02*
X144984308Y-70603571D01*
X144984308Y-70603571D02*
X144984308Y-70527380D01*
X144984308Y-70527380D02*
X145003356Y-70489285D01*
X145003356Y-70489285D02*
X145022403Y-70470238D01*
X145022403Y-70470238D02*
X145060499Y-70451190D01*
X154982142Y-75693832D02*
X155001190Y-75712880D01*
X155001190Y-75712880D02*
X155058332Y-75731927D01*
X155058332Y-75731927D02*
X155096428Y-75731927D01*
X155096428Y-75731927D02*
X155153571Y-75712880D01*
X155153571Y-75712880D02*
X155191666Y-75674784D01*
X155191666Y-75674784D02*
X155210713Y-75636689D01*
X155210713Y-75636689D02*
X155229761Y-75560499D01*
X155229761Y-75560499D02*
X155229761Y-75503356D01*
X155229761Y-75503356D02*
X155210713Y-75427165D01*
X155210713Y-75427165D02*
X155191666Y-75389070D01*
X155191666Y-75389070D02*
X155153571Y-75350975D01*
X155153571Y-75350975D02*
X155096428Y-75331927D01*
X155096428Y-75331927D02*
X155058332Y-75331927D01*
X155058332Y-75331927D02*
X155001190Y-75350975D01*
X155001190Y-75350975D02*
X154982142Y-75370022D01*
X154639285Y-75465260D02*
X154639285Y-75731927D01*
X154734523Y-75312880D02*
X154829761Y-75598594D01*
X154829761Y-75598594D02*
X154582142Y-75598594D01*
X154353571Y-75331927D02*
X154315476Y-75331927D01*
X154315476Y-75331927D02*
X154277380Y-75350975D01*
X154277380Y-75350975D02*
X154258333Y-75370022D01*
X154258333Y-75370022D02*
X154239285Y-75408118D01*
X154239285Y-75408118D02*
X154220238Y-75484308D01*
X154220238Y-75484308D02*
X154220238Y-75579546D01*
X154220238Y-75579546D02*
X154239285Y-75655737D01*
X154239285Y-75655737D02*
X154258333Y-75693832D01*
X154258333Y-75693832D02*
X154277380Y-75712880D01*
X154277380Y-75712880D02*
X154315476Y-75731927D01*
X154315476Y-75731927D02*
X154353571Y-75731927D01*
X154353571Y-75731927D02*
X154391666Y-75712880D01*
X154391666Y-75712880D02*
X154410714Y-75693832D01*
X154410714Y-75693832D02*
X154429761Y-75655737D01*
X154429761Y-75655737D02*
X154448809Y-75579546D01*
X154448809Y-75579546D02*
X154448809Y-75484308D01*
X154448809Y-75484308D02*
X154429761Y-75408118D01*
X154429761Y-75408118D02*
X154410714Y-75370022D01*
X154410714Y-75370022D02*
X154391666Y-75350975D01*
X154391666Y-75350975D02*
X154353571Y-75331927D01*
X156456927Y-61828557D02*
X156266451Y-61695224D01*
X156456927Y-61599986D02*
X156056927Y-61599986D01*
X156056927Y-61599986D02*
X156056927Y-61752367D01*
X156056927Y-61752367D02*
X156075975Y-61790462D01*
X156075975Y-61790462D02*
X156095022Y-61809509D01*
X156095022Y-61809509D02*
X156133118Y-61828557D01*
X156133118Y-61828557D02*
X156190260Y-61828557D01*
X156190260Y-61828557D02*
X156228356Y-61809509D01*
X156228356Y-61809509D02*
X156247403Y-61790462D01*
X156247403Y-61790462D02*
X156266451Y-61752367D01*
X156266451Y-61752367D02*
X156266451Y-61599986D01*
X156056927Y-61961890D02*
X156056927Y-62209509D01*
X156056927Y-62209509D02*
X156209308Y-62076176D01*
X156209308Y-62076176D02*
X156209308Y-62133319D01*
X156209308Y-62133319D02*
X156228356Y-62171414D01*
X156228356Y-62171414D02*
X156247403Y-62190462D01*
X156247403Y-62190462D02*
X156285499Y-62209509D01*
X156285499Y-62209509D02*
X156380737Y-62209509D01*
X156380737Y-62209509D02*
X156418832Y-62190462D01*
X156418832Y-62190462D02*
X156437880Y-62171414D01*
X156437880Y-62171414D02*
X156456927Y-62133319D01*
X156456927Y-62133319D02*
X156456927Y-62019033D01*
X156456927Y-62019033D02*
X156437880Y-61980938D01*
X156437880Y-61980938D02*
X156418832Y-61961890D01*
X156228356Y-62438080D02*
X156209308Y-62399985D01*
X156209308Y-62399985D02*
X156190260Y-62380938D01*
X156190260Y-62380938D02*
X156152165Y-62361890D01*
X156152165Y-62361890D02*
X156133118Y-62361890D01*
X156133118Y-62361890D02*
X156095022Y-62380938D01*
X156095022Y-62380938D02*
X156075975Y-62399985D01*
X156075975Y-62399985D02*
X156056927Y-62438080D01*
X156056927Y-62438080D02*
X156056927Y-62514271D01*
X156056927Y-62514271D02*
X156075975Y-62552366D01*
X156075975Y-62552366D02*
X156095022Y-62571414D01*
X156095022Y-62571414D02*
X156133118Y-62590461D01*
X156133118Y-62590461D02*
X156152165Y-62590461D01*
X156152165Y-62590461D02*
X156190260Y-62571414D01*
X156190260Y-62571414D02*
X156209308Y-62552366D01*
X156209308Y-62552366D02*
X156228356Y-62514271D01*
X156228356Y-62514271D02*
X156228356Y-62438080D01*
X156228356Y-62438080D02*
X156247403Y-62399985D01*
X156247403Y-62399985D02*
X156266451Y-62380938D01*
X156266451Y-62380938D02*
X156304546Y-62361890D01*
X156304546Y-62361890D02*
X156380737Y-62361890D01*
X156380737Y-62361890D02*
X156418832Y-62380938D01*
X156418832Y-62380938D02*
X156437880Y-62399985D01*
X156437880Y-62399985D02*
X156456927Y-62438080D01*
X156456927Y-62438080D02*
X156456927Y-62514271D01*
X156456927Y-62514271D02*
X156437880Y-62552366D01*
X156437880Y-62552366D02*
X156418832Y-62571414D01*
X156418832Y-62571414D02*
X156380737Y-62590461D01*
X156380737Y-62590461D02*
X156304546Y-62590461D01*
X156304546Y-62590461D02*
X156266451Y-62571414D01*
X156266451Y-62571414D02*
X156247403Y-62552366D01*
X156247403Y-62552366D02*
X156228356Y-62514271D01*
D10*
X153335714Y-82689765D02*
X153347618Y-82701670D01*
X153347618Y-82701670D02*
X153383333Y-82713574D01*
X153383333Y-82713574D02*
X153407142Y-82713574D01*
X153407142Y-82713574D02*
X153442856Y-82701670D01*
X153442856Y-82701670D02*
X153466666Y-82677860D01*
X153466666Y-82677860D02*
X153478571Y-82654050D01*
X153478571Y-82654050D02*
X153490475Y-82606431D01*
X153490475Y-82606431D02*
X153490475Y-82570717D01*
X153490475Y-82570717D02*
X153478571Y-82523098D01*
X153478571Y-82523098D02*
X153466666Y-82499289D01*
X153466666Y-82499289D02*
X153442856Y-82475479D01*
X153442856Y-82475479D02*
X153407142Y-82463574D01*
X153407142Y-82463574D02*
X153383333Y-82463574D01*
X153383333Y-82463574D02*
X153347618Y-82475479D01*
X153347618Y-82475479D02*
X153335714Y-82487384D01*
X153240475Y-82487384D02*
X153228571Y-82475479D01*
X153228571Y-82475479D02*
X153204761Y-82463574D01*
X153204761Y-82463574D02*
X153145237Y-82463574D01*
X153145237Y-82463574D02*
X153121428Y-82475479D01*
X153121428Y-82475479D02*
X153109523Y-82487384D01*
X153109523Y-82487384D02*
X153097618Y-82511193D01*
X153097618Y-82511193D02*
X153097618Y-82535003D01*
X153097618Y-82535003D02*
X153109523Y-82570717D01*
X153109523Y-82570717D02*
X153252380Y-82713574D01*
X153252380Y-82713574D02*
X153097618Y-82713574D01*
X152883333Y-82463574D02*
X152930952Y-82463574D01*
X152930952Y-82463574D02*
X152954761Y-82475479D01*
X152954761Y-82475479D02*
X152966666Y-82487384D01*
X152966666Y-82487384D02*
X152990476Y-82523098D01*
X152990476Y-82523098D02*
X153002380Y-82570717D01*
X153002380Y-82570717D02*
X153002380Y-82665955D01*
X153002380Y-82665955D02*
X152990476Y-82689765D01*
X152990476Y-82689765D02*
X152978571Y-82701670D01*
X152978571Y-82701670D02*
X152954761Y-82713574D01*
X152954761Y-82713574D02*
X152907142Y-82713574D01*
X152907142Y-82713574D02*
X152883333Y-82701670D01*
X152883333Y-82701670D02*
X152871428Y-82689765D01*
X152871428Y-82689765D02*
X152859523Y-82665955D01*
X152859523Y-82665955D02*
X152859523Y-82606431D01*
X152859523Y-82606431D02*
X152871428Y-82582622D01*
X152871428Y-82582622D02*
X152883333Y-82570717D01*
X152883333Y-82570717D02*
X152907142Y-82558812D01*
X152907142Y-82558812D02*
X152954761Y-82558812D01*
X152954761Y-82558812D02*
X152978571Y-82570717D01*
X152978571Y-82570717D02*
X152990476Y-82582622D01*
X152990476Y-82582622D02*
X153002380Y-82606431D01*
D11*
X159692531Y-66717857D02*
X159711579Y-66698809D01*
X159711579Y-66698809D02*
X159730626Y-66641667D01*
X159730626Y-66641667D02*
X159730626Y-66603571D01*
X159730626Y-66603571D02*
X159711579Y-66546428D01*
X159711579Y-66546428D02*
X159673483Y-66508333D01*
X159673483Y-66508333D02*
X159635388Y-66489286D01*
X159635388Y-66489286D02*
X159559198Y-66470238D01*
X159559198Y-66470238D02*
X159502055Y-66470238D01*
X159502055Y-66470238D02*
X159425864Y-66489286D01*
X159425864Y-66489286D02*
X159387769Y-66508333D01*
X159387769Y-66508333D02*
X159349674Y-66546428D01*
X159349674Y-66546428D02*
X159330626Y-66603571D01*
X159330626Y-66603571D02*
X159330626Y-66641667D01*
X159330626Y-66641667D02*
X159349674Y-66698809D01*
X159349674Y-66698809D02*
X159368721Y-66717857D01*
X159330626Y-67060714D02*
X159330626Y-66984524D01*
X159330626Y-66984524D02*
X159349674Y-66946428D01*
X159349674Y-66946428D02*
X159368721Y-66927381D01*
X159368721Y-66927381D02*
X159425864Y-66889286D01*
X159425864Y-66889286D02*
X159502055Y-66870238D01*
X159502055Y-66870238D02*
X159654436Y-66870238D01*
X159654436Y-66870238D02*
X159692531Y-66889286D01*
X159692531Y-66889286D02*
X159711579Y-66908333D01*
X159711579Y-66908333D02*
X159730626Y-66946428D01*
X159730626Y-66946428D02*
X159730626Y-67022619D01*
X159730626Y-67022619D02*
X159711579Y-67060714D01*
X159711579Y-67060714D02*
X159692531Y-67079762D01*
X159692531Y-67079762D02*
X159654436Y-67098809D01*
X159654436Y-67098809D02*
X159559198Y-67098809D01*
X159559198Y-67098809D02*
X159521102Y-67079762D01*
X159521102Y-67079762D02*
X159502055Y-67060714D01*
X159502055Y-67060714D02*
X159483007Y-67022619D01*
X159483007Y-67022619D02*
X159483007Y-66946428D01*
X159483007Y-66946428D02*
X159502055Y-66908333D01*
X159502055Y-66908333D02*
X159521102Y-66889286D01*
X159521102Y-66889286D02*
X159559198Y-66870238D01*
X159330626Y-67232142D02*
X159330626Y-67479761D01*
X159330626Y-67479761D02*
X159483007Y-67346428D01*
X159483007Y-67346428D02*
X159483007Y-67403571D01*
X159483007Y-67403571D02*
X159502055Y-67441666D01*
X159502055Y-67441666D02*
X159521102Y-67460714D01*
X159521102Y-67460714D02*
X159559198Y-67479761D01*
X159559198Y-67479761D02*
X159654436Y-67479761D01*
X159654436Y-67479761D02*
X159692531Y-67460714D01*
X159692531Y-67460714D02*
X159711579Y-67441666D01*
X159711579Y-67441666D02*
X159730626Y-67403571D01*
X159730626Y-67403571D02*
X159730626Y-67289285D01*
X159730626Y-67289285D02*
X159711579Y-67251190D01*
X159711579Y-67251190D02*
X159692531Y-67232142D01*
D10*
X153335714Y-81714765D02*
X153347618Y-81726670D01*
X153347618Y-81726670D02*
X153383333Y-81738574D01*
X153383333Y-81738574D02*
X153407142Y-81738574D01*
X153407142Y-81738574D02*
X153442856Y-81726670D01*
X153442856Y-81726670D02*
X153466666Y-81702860D01*
X153466666Y-81702860D02*
X153478571Y-81679050D01*
X153478571Y-81679050D02*
X153490475Y-81631431D01*
X153490475Y-81631431D02*
X153490475Y-81595717D01*
X153490475Y-81595717D02*
X153478571Y-81548098D01*
X153478571Y-81548098D02*
X153466666Y-81524289D01*
X153466666Y-81524289D02*
X153442856Y-81500479D01*
X153442856Y-81500479D02*
X153407142Y-81488574D01*
X153407142Y-81488574D02*
X153383333Y-81488574D01*
X153383333Y-81488574D02*
X153347618Y-81500479D01*
X153347618Y-81500479D02*
X153335714Y-81512384D01*
X153240475Y-81512384D02*
X153228571Y-81500479D01*
X153228571Y-81500479D02*
X153204761Y-81488574D01*
X153204761Y-81488574D02*
X153145237Y-81488574D01*
X153145237Y-81488574D02*
X153121428Y-81500479D01*
X153121428Y-81500479D02*
X153109523Y-81512384D01*
X153109523Y-81512384D02*
X153097618Y-81536193D01*
X153097618Y-81536193D02*
X153097618Y-81560003D01*
X153097618Y-81560003D02*
X153109523Y-81595717D01*
X153109523Y-81595717D02*
X153252380Y-81738574D01*
X153252380Y-81738574D02*
X153097618Y-81738574D01*
X153014285Y-81488574D02*
X152847619Y-81488574D01*
X152847619Y-81488574D02*
X152954761Y-81738574D01*
X143941666Y-78439765D02*
X143953570Y-78451670D01*
X143953570Y-78451670D02*
X143989285Y-78463574D01*
X143989285Y-78463574D02*
X144013094Y-78463574D01*
X144013094Y-78463574D02*
X144048808Y-78451670D01*
X144048808Y-78451670D02*
X144072618Y-78427860D01*
X144072618Y-78427860D02*
X144084523Y-78404050D01*
X144084523Y-78404050D02*
X144096427Y-78356431D01*
X144096427Y-78356431D02*
X144096427Y-78320717D01*
X144096427Y-78320717D02*
X144084523Y-78273098D01*
X144084523Y-78273098D02*
X144072618Y-78249289D01*
X144072618Y-78249289D02*
X144048808Y-78225479D01*
X144048808Y-78225479D02*
X144013094Y-78213574D01*
X144013094Y-78213574D02*
X143989285Y-78213574D01*
X143989285Y-78213574D02*
X143953570Y-78225479D01*
X143953570Y-78225479D02*
X143941666Y-78237384D01*
X143858332Y-78213574D02*
X143691666Y-78213574D01*
X143691666Y-78213574D02*
X143798808Y-78463574D01*
X149360714Y-73869765D02*
X149372618Y-73881670D01*
X149372618Y-73881670D02*
X149408333Y-73893574D01*
X149408333Y-73893574D02*
X149432142Y-73893574D01*
X149432142Y-73893574D02*
X149467856Y-73881670D01*
X149467856Y-73881670D02*
X149491666Y-73857860D01*
X149491666Y-73857860D02*
X149503571Y-73834050D01*
X149503571Y-73834050D02*
X149515475Y-73786431D01*
X149515475Y-73786431D02*
X149515475Y-73750717D01*
X149515475Y-73750717D02*
X149503571Y-73703098D01*
X149503571Y-73703098D02*
X149491666Y-73679289D01*
X149491666Y-73679289D02*
X149467856Y-73655479D01*
X149467856Y-73655479D02*
X149432142Y-73643574D01*
X149432142Y-73643574D02*
X149408333Y-73643574D01*
X149408333Y-73643574D02*
X149372618Y-73655479D01*
X149372618Y-73655479D02*
X149360714Y-73667384D01*
X149265475Y-73667384D02*
X149253571Y-73655479D01*
X149253571Y-73655479D02*
X149229761Y-73643574D01*
X149229761Y-73643574D02*
X149170237Y-73643574D01*
X149170237Y-73643574D02*
X149146428Y-73655479D01*
X149146428Y-73655479D02*
X149134523Y-73667384D01*
X149134523Y-73667384D02*
X149122618Y-73691193D01*
X149122618Y-73691193D02*
X149122618Y-73715003D01*
X149122618Y-73715003D02*
X149134523Y-73750717D01*
X149134523Y-73750717D02*
X149277380Y-73893574D01*
X149277380Y-73893574D02*
X149122618Y-73893574D01*
X148908333Y-73726908D02*
X148908333Y-73893574D01*
X148967857Y-73631670D02*
X149027380Y-73810241D01*
X149027380Y-73810241D02*
X148872619Y-73810241D01*
X149360714Y-74864765D02*
X149372618Y-74876670D01*
X149372618Y-74876670D02*
X149408333Y-74888574D01*
X149408333Y-74888574D02*
X149432142Y-74888574D01*
X149432142Y-74888574D02*
X149467856Y-74876670D01*
X149467856Y-74876670D02*
X149491666Y-74852860D01*
X149491666Y-74852860D02*
X149503571Y-74829050D01*
X149503571Y-74829050D02*
X149515475Y-74781431D01*
X149515475Y-74781431D02*
X149515475Y-74745717D01*
X149515475Y-74745717D02*
X149503571Y-74698098D01*
X149503571Y-74698098D02*
X149491666Y-74674289D01*
X149491666Y-74674289D02*
X149467856Y-74650479D01*
X149467856Y-74650479D02*
X149432142Y-74638574D01*
X149432142Y-74638574D02*
X149408333Y-74638574D01*
X149408333Y-74638574D02*
X149372618Y-74650479D01*
X149372618Y-74650479D02*
X149360714Y-74662384D01*
X149265475Y-74662384D02*
X149253571Y-74650479D01*
X149253571Y-74650479D02*
X149229761Y-74638574D01*
X149229761Y-74638574D02*
X149170237Y-74638574D01*
X149170237Y-74638574D02*
X149146428Y-74650479D01*
X149146428Y-74650479D02*
X149134523Y-74662384D01*
X149134523Y-74662384D02*
X149122618Y-74686193D01*
X149122618Y-74686193D02*
X149122618Y-74710003D01*
X149122618Y-74710003D02*
X149134523Y-74745717D01*
X149134523Y-74745717D02*
X149277380Y-74888574D01*
X149277380Y-74888574D02*
X149122618Y-74888574D01*
X149039285Y-74638574D02*
X148884523Y-74638574D01*
X148884523Y-74638574D02*
X148967857Y-74733812D01*
X148967857Y-74733812D02*
X148932142Y-74733812D01*
X148932142Y-74733812D02*
X148908333Y-74745717D01*
X148908333Y-74745717D02*
X148896428Y-74757622D01*
X148896428Y-74757622D02*
X148884523Y-74781431D01*
X148884523Y-74781431D02*
X148884523Y-74840955D01*
X148884523Y-74840955D02*
X148896428Y-74864765D01*
X148896428Y-74864765D02*
X148908333Y-74876670D01*
X148908333Y-74876670D02*
X148932142Y-74888574D01*
X148932142Y-74888574D02*
X149003571Y-74888574D01*
X149003571Y-74888574D02*
X149027380Y-74876670D01*
X149027380Y-74876670D02*
X149039285Y-74864765D01*
D11*
X145168832Y-107767857D02*
X145187880Y-107748809D01*
X145187880Y-107748809D02*
X145206927Y-107691667D01*
X145206927Y-107691667D02*
X145206927Y-107653571D01*
X145206927Y-107653571D02*
X145187880Y-107596428D01*
X145187880Y-107596428D02*
X145149784Y-107558333D01*
X145149784Y-107558333D02*
X145111689Y-107539286D01*
X145111689Y-107539286D02*
X145035499Y-107520238D01*
X145035499Y-107520238D02*
X144978356Y-107520238D01*
X144978356Y-107520238D02*
X144902165Y-107539286D01*
X144902165Y-107539286D02*
X144864070Y-107558333D01*
X144864070Y-107558333D02*
X144825975Y-107596428D01*
X144825975Y-107596428D02*
X144806927Y-107653571D01*
X144806927Y-107653571D02*
X144806927Y-107691667D01*
X144806927Y-107691667D02*
X144825975Y-107748809D01*
X144825975Y-107748809D02*
X144845022Y-107767857D01*
X144845022Y-107920238D02*
X144825975Y-107939286D01*
X144825975Y-107939286D02*
X144806927Y-107977381D01*
X144806927Y-107977381D02*
X144806927Y-108072619D01*
X144806927Y-108072619D02*
X144825975Y-108110714D01*
X144825975Y-108110714D02*
X144845022Y-108129762D01*
X144845022Y-108129762D02*
X144883118Y-108148809D01*
X144883118Y-108148809D02*
X144921213Y-108148809D01*
X144921213Y-108148809D02*
X144978356Y-108129762D01*
X144978356Y-108129762D02*
X145206927Y-107901190D01*
X145206927Y-107901190D02*
X145206927Y-108148809D01*
X145206927Y-108529761D02*
X145206927Y-108301190D01*
X145206927Y-108415476D02*
X144806927Y-108415476D01*
X144806927Y-108415476D02*
X144864070Y-108377380D01*
X144864070Y-108377380D02*
X144902165Y-108339285D01*
X144902165Y-108339285D02*
X144921213Y-108301190D01*
D10*
X144050714Y-80464765D02*
X144062618Y-80476670D01*
X144062618Y-80476670D02*
X144098333Y-80488574D01*
X144098333Y-80488574D02*
X144122142Y-80488574D01*
X144122142Y-80488574D02*
X144157856Y-80476670D01*
X144157856Y-80476670D02*
X144181666Y-80452860D01*
X144181666Y-80452860D02*
X144193571Y-80429050D01*
X144193571Y-80429050D02*
X144205475Y-80381431D01*
X144205475Y-80381431D02*
X144205475Y-80345717D01*
X144205475Y-80345717D02*
X144193571Y-80298098D01*
X144193571Y-80298098D02*
X144181666Y-80274289D01*
X144181666Y-80274289D02*
X144157856Y-80250479D01*
X144157856Y-80250479D02*
X144122142Y-80238574D01*
X144122142Y-80238574D02*
X144098333Y-80238574D01*
X144098333Y-80238574D02*
X144062618Y-80250479D01*
X144062618Y-80250479D02*
X144050714Y-80262384D01*
X143812618Y-80488574D02*
X143955475Y-80488574D01*
X143884047Y-80488574D02*
X143884047Y-80238574D01*
X143884047Y-80238574D02*
X143907856Y-80274289D01*
X143907856Y-80274289D02*
X143931666Y-80298098D01*
X143931666Y-80298098D02*
X143955475Y-80310003D01*
X143598333Y-80238574D02*
X143645952Y-80238574D01*
X143645952Y-80238574D02*
X143669761Y-80250479D01*
X143669761Y-80250479D02*
X143681666Y-80262384D01*
X143681666Y-80262384D02*
X143705476Y-80298098D01*
X143705476Y-80298098D02*
X143717380Y-80345717D01*
X143717380Y-80345717D02*
X143717380Y-80440955D01*
X143717380Y-80440955D02*
X143705476Y-80464765D01*
X143705476Y-80464765D02*
X143693571Y-80476670D01*
X143693571Y-80476670D02*
X143669761Y-80488574D01*
X143669761Y-80488574D02*
X143622142Y-80488574D01*
X143622142Y-80488574D02*
X143598333Y-80476670D01*
X143598333Y-80476670D02*
X143586428Y-80464765D01*
X143586428Y-80464765D02*
X143574523Y-80440955D01*
X143574523Y-80440955D02*
X143574523Y-80381431D01*
X143574523Y-80381431D02*
X143586428Y-80357622D01*
X143586428Y-80357622D02*
X143598333Y-80345717D01*
X143598333Y-80345717D02*
X143622142Y-80333812D01*
X143622142Y-80333812D02*
X143669761Y-80333812D01*
X143669761Y-80333812D02*
X143693571Y-80345717D01*
X143693571Y-80345717D02*
X143705476Y-80357622D01*
X143705476Y-80357622D02*
X143717380Y-80381431D01*
D11*
X129132062Y-78718831D02*
X129151110Y-78737879D01*
X129151110Y-78737879D02*
X129208252Y-78756926D01*
X129208252Y-78756926D02*
X129246348Y-78756926D01*
X129246348Y-78756926D02*
X129303491Y-78737879D01*
X129303491Y-78737879D02*
X129341586Y-78699783D01*
X129341586Y-78699783D02*
X129360633Y-78661688D01*
X129360633Y-78661688D02*
X129379681Y-78585498D01*
X129379681Y-78585498D02*
X129379681Y-78528355D01*
X129379681Y-78528355D02*
X129360633Y-78452164D01*
X129360633Y-78452164D02*
X129341586Y-78414069D01*
X129341586Y-78414069D02*
X129303491Y-78375974D01*
X129303491Y-78375974D02*
X129246348Y-78356926D01*
X129246348Y-78356926D02*
X129208252Y-78356926D01*
X129208252Y-78356926D02*
X129151110Y-78375974D01*
X129151110Y-78375974D02*
X129132062Y-78395021D01*
X128751110Y-78756926D02*
X128979681Y-78756926D01*
X128865395Y-78756926D02*
X128865395Y-78356926D01*
X128865395Y-78356926D02*
X128903491Y-78414069D01*
X128903491Y-78414069D02*
X128941586Y-78452164D01*
X128941586Y-78452164D02*
X128979681Y-78471212D01*
X128370158Y-78756926D02*
X128598729Y-78756926D01*
X128484443Y-78756926D02*
X128484443Y-78356926D01*
X128484443Y-78356926D02*
X128522539Y-78414069D01*
X128522539Y-78414069D02*
X128560634Y-78452164D01*
X128560634Y-78452164D02*
X128598729Y-78471212D01*
X128236825Y-78356926D02*
X127989206Y-78356926D01*
X127989206Y-78356926D02*
X128122539Y-78509307D01*
X128122539Y-78509307D02*
X128065396Y-78509307D01*
X128065396Y-78509307D02*
X128027301Y-78528355D01*
X128027301Y-78528355D02*
X128008253Y-78547402D01*
X128008253Y-78547402D02*
X127989206Y-78585498D01*
X127989206Y-78585498D02*
X127989206Y-78680736D01*
X127989206Y-78680736D02*
X128008253Y-78718831D01*
X128008253Y-78718831D02*
X128027301Y-78737879D01*
X128027301Y-78737879D02*
X128065396Y-78756926D01*
X128065396Y-78756926D02*
X128179682Y-78756926D01*
X128179682Y-78756926D02*
X128217777Y-78737879D01*
X128217777Y-78737879D02*
X128236825Y-78718831D01*
D10*
X147614765Y-81064285D02*
X147626670Y-81052381D01*
X147626670Y-81052381D02*
X147638574Y-81016666D01*
X147638574Y-81016666D02*
X147638574Y-80992857D01*
X147638574Y-80992857D02*
X147626670Y-80957143D01*
X147626670Y-80957143D02*
X147602860Y-80933333D01*
X147602860Y-80933333D02*
X147579050Y-80921428D01*
X147579050Y-80921428D02*
X147531431Y-80909524D01*
X147531431Y-80909524D02*
X147495717Y-80909524D01*
X147495717Y-80909524D02*
X147448098Y-80921428D01*
X147448098Y-80921428D02*
X147424289Y-80933333D01*
X147424289Y-80933333D02*
X147400479Y-80957143D01*
X147400479Y-80957143D02*
X147388574Y-80992857D01*
X147388574Y-80992857D02*
X147388574Y-81016666D01*
X147388574Y-81016666D02*
X147400479Y-81052381D01*
X147400479Y-81052381D02*
X147412384Y-81064285D01*
X147638574Y-81302381D02*
X147638574Y-81159524D01*
X147638574Y-81230952D02*
X147388574Y-81230952D01*
X147388574Y-81230952D02*
X147424289Y-81207143D01*
X147424289Y-81207143D02*
X147448098Y-81183333D01*
X147448098Y-81183333D02*
X147460003Y-81159524D01*
X147412384Y-81397619D02*
X147400479Y-81409523D01*
X147400479Y-81409523D02*
X147388574Y-81433333D01*
X147388574Y-81433333D02*
X147388574Y-81492857D01*
X147388574Y-81492857D02*
X147400479Y-81516666D01*
X147400479Y-81516666D02*
X147412384Y-81528571D01*
X147412384Y-81528571D02*
X147436193Y-81540476D01*
X147436193Y-81540476D02*
X147460003Y-81540476D01*
X147460003Y-81540476D02*
X147495717Y-81528571D01*
X147495717Y-81528571D02*
X147638574Y-81385714D01*
X147638574Y-81385714D02*
X147638574Y-81540476D01*
D11*
X146956927Y-86292857D02*
X146766451Y-86159524D01*
X146956927Y-86064286D02*
X146556927Y-86064286D01*
X146556927Y-86064286D02*
X146556927Y-86216667D01*
X146556927Y-86216667D02*
X146575975Y-86254762D01*
X146575975Y-86254762D02*
X146595022Y-86273809D01*
X146595022Y-86273809D02*
X146633118Y-86292857D01*
X146633118Y-86292857D02*
X146690260Y-86292857D01*
X146690260Y-86292857D02*
X146728356Y-86273809D01*
X146728356Y-86273809D02*
X146747403Y-86254762D01*
X146747403Y-86254762D02*
X146766451Y-86216667D01*
X146766451Y-86216667D02*
X146766451Y-86064286D01*
X146595022Y-86445238D02*
X146575975Y-86464286D01*
X146575975Y-86464286D02*
X146556927Y-86502381D01*
X146556927Y-86502381D02*
X146556927Y-86597619D01*
X146556927Y-86597619D02*
X146575975Y-86635714D01*
X146575975Y-86635714D02*
X146595022Y-86654762D01*
X146595022Y-86654762D02*
X146633118Y-86673809D01*
X146633118Y-86673809D02*
X146671213Y-86673809D01*
X146671213Y-86673809D02*
X146728356Y-86654762D01*
X146728356Y-86654762D02*
X146956927Y-86426190D01*
X146956927Y-86426190D02*
X146956927Y-86673809D01*
X146556927Y-86807142D02*
X146556927Y-87054761D01*
X146556927Y-87054761D02*
X146709308Y-86921428D01*
X146709308Y-86921428D02*
X146709308Y-86978571D01*
X146709308Y-86978571D02*
X146728356Y-87016666D01*
X146728356Y-87016666D02*
X146747403Y-87035714D01*
X146747403Y-87035714D02*
X146785499Y-87054761D01*
X146785499Y-87054761D02*
X146880737Y-87054761D01*
X146880737Y-87054761D02*
X146918832Y-87035714D01*
X146918832Y-87035714D02*
X146937880Y-87016666D01*
X146937880Y-87016666D02*
X146956927Y-86978571D01*
X146956927Y-86978571D02*
X146956927Y-86864285D01*
X146956927Y-86864285D02*
X146937880Y-86826190D01*
X146937880Y-86826190D02*
X146918832Y-86807142D01*
X138130807Y-72645133D02*
X138149855Y-72664181D01*
X138149855Y-72664181D02*
X138206997Y-72683228D01*
X138206997Y-72683228D02*
X138245093Y-72683228D01*
X138245093Y-72683228D02*
X138302236Y-72664181D01*
X138302236Y-72664181D02*
X138340331Y-72626085D01*
X138340331Y-72626085D02*
X138359378Y-72587990D01*
X138359378Y-72587990D02*
X138378426Y-72511800D01*
X138378426Y-72511800D02*
X138378426Y-72454657D01*
X138378426Y-72454657D02*
X138359378Y-72378466D01*
X138359378Y-72378466D02*
X138340331Y-72340371D01*
X138340331Y-72340371D02*
X138302236Y-72302276D01*
X138302236Y-72302276D02*
X138245093Y-72283228D01*
X138245093Y-72283228D02*
X138206997Y-72283228D01*
X138206997Y-72283228D02*
X138149855Y-72302276D01*
X138149855Y-72302276D02*
X138130807Y-72321323D01*
X137749855Y-72683228D02*
X137978426Y-72683228D01*
X137864140Y-72683228D02*
X137864140Y-72283228D01*
X137864140Y-72283228D02*
X137902236Y-72340371D01*
X137902236Y-72340371D02*
X137940331Y-72378466D01*
X137940331Y-72378466D02*
X137978426Y-72397514D01*
X137502236Y-72283228D02*
X137464141Y-72283228D01*
X137464141Y-72283228D02*
X137426045Y-72302276D01*
X137426045Y-72302276D02*
X137406998Y-72321323D01*
X137406998Y-72321323D02*
X137387950Y-72359419D01*
X137387950Y-72359419D02*
X137368903Y-72435609D01*
X137368903Y-72435609D02*
X137368903Y-72530847D01*
X137368903Y-72530847D02*
X137387950Y-72607038D01*
X137387950Y-72607038D02*
X137406998Y-72645133D01*
X137406998Y-72645133D02*
X137426045Y-72664181D01*
X137426045Y-72664181D02*
X137464141Y-72683228D01*
X137464141Y-72683228D02*
X137502236Y-72683228D01*
X137502236Y-72683228D02*
X137540331Y-72664181D01*
X137540331Y-72664181D02*
X137559379Y-72645133D01*
X137559379Y-72645133D02*
X137578426Y-72607038D01*
X137578426Y-72607038D02*
X137597474Y-72530847D01*
X137597474Y-72530847D02*
X137597474Y-72435609D01*
X137597474Y-72435609D02*
X137578426Y-72359419D01*
X137578426Y-72359419D02*
X137559379Y-72321323D01*
X137559379Y-72321323D02*
X137540331Y-72302276D01*
X137540331Y-72302276D02*
X137502236Y-72283228D01*
X137235570Y-72283228D02*
X136968903Y-72283228D01*
X136968903Y-72283228D02*
X137140332Y-72683228D01*
X163405626Y-62542857D02*
X163215150Y-62409524D01*
X163405626Y-62314286D02*
X163005626Y-62314286D01*
X163005626Y-62314286D02*
X163005626Y-62466667D01*
X163005626Y-62466667D02*
X163024674Y-62504762D01*
X163024674Y-62504762D02*
X163043721Y-62523809D01*
X163043721Y-62523809D02*
X163081817Y-62542857D01*
X163081817Y-62542857D02*
X163138959Y-62542857D01*
X163138959Y-62542857D02*
X163177055Y-62523809D01*
X163177055Y-62523809D02*
X163196102Y-62504762D01*
X163196102Y-62504762D02*
X163215150Y-62466667D01*
X163215150Y-62466667D02*
X163215150Y-62314286D01*
X163043721Y-62695238D02*
X163024674Y-62714286D01*
X163024674Y-62714286D02*
X163005626Y-62752381D01*
X163005626Y-62752381D02*
X163005626Y-62847619D01*
X163005626Y-62847619D02*
X163024674Y-62885714D01*
X163024674Y-62885714D02*
X163043721Y-62904762D01*
X163043721Y-62904762D02*
X163081817Y-62923809D01*
X163081817Y-62923809D02*
X163119912Y-62923809D01*
X163119912Y-62923809D02*
X163177055Y-62904762D01*
X163177055Y-62904762D02*
X163405626Y-62676190D01*
X163405626Y-62676190D02*
X163405626Y-62923809D01*
X163405626Y-63114285D02*
X163405626Y-63190476D01*
X163405626Y-63190476D02*
X163386579Y-63228571D01*
X163386579Y-63228571D02*
X163367531Y-63247619D01*
X163367531Y-63247619D02*
X163310388Y-63285714D01*
X163310388Y-63285714D02*
X163234198Y-63304761D01*
X163234198Y-63304761D02*
X163081817Y-63304761D01*
X163081817Y-63304761D02*
X163043721Y-63285714D01*
X163043721Y-63285714D02*
X163024674Y-63266666D01*
X163024674Y-63266666D02*
X163005626Y-63228571D01*
X163005626Y-63228571D02*
X163005626Y-63152380D01*
X163005626Y-63152380D02*
X163024674Y-63114285D01*
X163024674Y-63114285D02*
X163043721Y-63095238D01*
X163043721Y-63095238D02*
X163081817Y-63076190D01*
X163081817Y-63076190D02*
X163177055Y-63076190D01*
X163177055Y-63076190D02*
X163215150Y-63095238D01*
X163215150Y-63095238D02*
X163234198Y-63114285D01*
X163234198Y-63114285D02*
X163253245Y-63152380D01*
X163253245Y-63152380D02*
X163253245Y-63228571D01*
X163253245Y-63228571D02*
X163234198Y-63266666D01*
X163234198Y-63266666D02*
X163215150Y-63285714D01*
X163215150Y-63285714D02*
X163177055Y-63304761D01*
D13*
%TO.C,C17*%
X143395000Y-81100000D02*
X144395000Y-81100000D01*
X143395000Y-81600000D02*
X143395000Y-81100000D01*
X144395000Y-81100000D02*
X144395000Y-81600000D01*
X144395000Y-81600000D02*
X143395000Y-81600000D01*
%TO.C,R46*%
X148387500Y-58233188D02*
X149212500Y-58233188D01*
X148387500Y-59833188D02*
X148387500Y-58233188D01*
X149212500Y-58233188D02*
X149212500Y-59833188D01*
X149212500Y-59833188D02*
X148387500Y-59833188D01*
%TO.C,R13*%
X156950000Y-76687500D02*
X158550000Y-76687500D01*
X156950000Y-77512500D02*
X156950000Y-76687500D01*
X158550000Y-76687500D02*
X158550000Y-77512500D01*
X158550000Y-77512500D02*
X156950000Y-77512500D01*
%TO.C,C110*%
X133858189Y-72101301D02*
X135458189Y-72101301D01*
X133858189Y-72901301D02*
X133858189Y-72101301D01*
X135458189Y-72101301D02*
X135458189Y-72901301D01*
X135458189Y-72901301D02*
X133858189Y-72901301D01*
%TO.C,R10*%
X156149400Y-105135000D02*
X156949400Y-105135000D01*
X156149400Y-106735000D02*
X156149400Y-105135000D01*
X156949400Y-105135000D02*
X156949400Y-106735000D01*
X156949400Y-106735000D02*
X156149400Y-106735000D01*
%TO.C,C45*%
X134100000Y-81975000D02*
X135700000Y-81975000D01*
X134100000Y-82775000D02*
X134100000Y-81975000D01*
X135700000Y-81975000D02*
X135700000Y-82775000D01*
X135700000Y-82775000D02*
X134100000Y-82775000D01*
%TO.C,C83*%
X137650001Y-60708188D02*
X138450001Y-60708188D01*
X137650001Y-62308188D02*
X137650001Y-60708188D01*
X138450001Y-60708188D02*
X138450001Y-62308188D01*
X138450001Y-62308188D02*
X137650001Y-62308188D01*
%TO.C,C25*%
X152675000Y-80400000D02*
X153675000Y-80400000D01*
X152675000Y-80900000D02*
X152675000Y-80400000D01*
X153675000Y-80400000D02*
X153675000Y-80900000D01*
X153675000Y-80900000D02*
X152675000Y-80900000D01*
%TO.C,R47*%
X139675001Y-58145688D02*
X141275001Y-58145688D01*
X139675001Y-58970688D02*
X139675001Y-58145688D01*
X141275001Y-58145688D02*
X141275001Y-58970688D01*
X141275001Y-58970688D02*
X139675001Y-58970688D01*
%TO.C,J1*%
X126583400Y-46017139D02*
X166583400Y-46017139D01*
X126583400Y-50467139D02*
X126583400Y-46017139D01*
X128103400Y-51987139D02*
X126583400Y-50467139D01*
X165063400Y-51987139D02*
X128103400Y-51987139D01*
X166583400Y-46017139D02*
X166583400Y-50467139D01*
X166583400Y-50467139D02*
X165063400Y-51987139D01*
D14*
X164083400Y-44702139D02*
G75*
G02*
X163883400Y-44702139I-100000J0D01*
G01*
X163883400Y-44702139D02*
G75*
G02*
X164083400Y-44702139I100000J0D01*
G01*
D13*
%TO.C,C79*%
X145000000Y-60283188D02*
X145800000Y-60283188D01*
X145000000Y-61883188D02*
X145000000Y-60283188D01*
X145800000Y-60283188D02*
X145800000Y-61883188D01*
X145800000Y-61883188D02*
X145000000Y-61883188D01*
%TO.C,C20*%
X146825000Y-74075000D02*
X147325000Y-74075000D01*
X146825000Y-75075000D02*
X146825000Y-74075000D01*
X147325000Y-74075000D02*
X147325000Y-75075000D01*
X147325000Y-75075000D02*
X146825000Y-75075000D01*
%TO.C,C42*%
X143450000Y-67475000D02*
X145050000Y-67475000D01*
X143450000Y-68275000D02*
X143450000Y-67475000D01*
X145050000Y-67475000D02*
X145050000Y-68275000D01*
X145050000Y-68275000D02*
X143450000Y-68275000D01*
%TO.C,C48*%
X148100000Y-88800000D02*
X148900000Y-88800000D01*
X148100000Y-90400000D02*
X148100000Y-88800000D01*
X148900000Y-88800000D02*
X148900000Y-90400000D01*
X148900000Y-90400000D02*
X148100000Y-90400000D01*
%TO.C,C11*%
X146270000Y-80725000D02*
X146770000Y-80725000D01*
X146270000Y-81725000D02*
X146270000Y-80725000D01*
X146770000Y-80725000D02*
X146770000Y-81725000D01*
X146770000Y-81725000D02*
X146270000Y-81725000D01*
%TO.C,J2*%
X126583400Y-112080000D02*
X166583400Y-112080000D01*
X126583400Y-116530000D02*
X126583400Y-112080000D01*
X128103400Y-118050000D02*
X126583400Y-116530000D01*
X165063400Y-118050000D02*
X128103400Y-118050000D01*
X166583400Y-112080000D02*
X166583400Y-116530000D01*
X166583400Y-116530000D02*
X165063400Y-118050000D01*
D14*
X164083400Y-110765000D02*
G75*
G02*
X163883400Y-110765000I-100000J0D01*
G01*
X163883400Y-110765000D02*
G75*
G02*
X164083400Y-110765000I100000J0D01*
G01*
D13*
%TO.C,C41*%
X147950000Y-66250000D02*
X148750000Y-66250000D01*
X147950000Y-67850000D02*
X147950000Y-66250000D01*
X148750000Y-66250000D02*
X148750000Y-67850000D01*
X148750000Y-67850000D02*
X147950000Y-67850000D01*
%TO.C,C15*%
X143395000Y-79150000D02*
X144395000Y-79150000D01*
X143395000Y-79650000D02*
X143395000Y-79150000D01*
X144395000Y-79150000D02*
X144395000Y-79650000D01*
X144395000Y-79650000D02*
X143395000Y-79650000D01*
%TO.C,C8*%
X148700000Y-78475000D02*
X149700000Y-78475000D01*
X148700000Y-78975000D02*
X148700000Y-78475000D01*
X149700000Y-78475000D02*
X149700000Y-78975000D01*
X149700000Y-78975000D02*
X148700000Y-78975000D01*
%TO.C,C44*%
X137150000Y-78875000D02*
X138750000Y-78875000D01*
X137150000Y-79675000D02*
X137150000Y-78875000D01*
X138750000Y-78875000D02*
X138750000Y-79675000D01*
X138750000Y-79675000D02*
X137150000Y-79675000D01*
%TO.C,R35*%
X164537500Y-64675000D02*
X165362500Y-64675000D01*
X164537500Y-66275000D02*
X164537500Y-64675000D01*
X165362500Y-64675000D02*
X165362500Y-66275000D01*
X165362500Y-66275000D02*
X164537500Y-66275000D01*
%TO.C,C18*%
X145850000Y-74075000D02*
X146350000Y-74075000D01*
X145850000Y-75075000D02*
X145850000Y-74075000D01*
X146350000Y-74075000D02*
X146350000Y-75075000D01*
X146350000Y-75075000D02*
X145850000Y-75075000D01*
%TO.C,R19*%
X137200000Y-81962500D02*
X138800000Y-81962500D01*
X137200000Y-82787500D02*
X137200000Y-81962500D01*
X138800000Y-81962500D02*
X138800000Y-82787500D01*
X138800000Y-82787500D02*
X137200000Y-82787500D01*
%TO.C,C82*%
X137650001Y-63758188D02*
X138450001Y-63758188D01*
X137650001Y-65358188D02*
X137650001Y-63758188D01*
X138450001Y-63758188D02*
X138450001Y-65358188D01*
X138450001Y-65358188D02*
X137650001Y-65358188D01*
%TO.C,C39*%
X153925000Y-76675000D02*
X155525000Y-76675000D01*
X153925000Y-77475000D02*
X153925000Y-76675000D01*
X155525000Y-76675000D02*
X155525000Y-77475000D01*
X155525000Y-77475000D02*
X153925000Y-77475000D01*
%TO.C,C2*%
X144600000Y-84125000D02*
X145100000Y-84125000D01*
X144600000Y-85125000D02*
X144600000Y-84125000D01*
X145100000Y-84125000D02*
X145100000Y-85125000D01*
X145100000Y-85125000D02*
X144600000Y-85125000D01*
%TO.C,C3*%
X143620000Y-84130000D02*
X144120000Y-84130000D01*
X143620000Y-85130000D02*
X143620000Y-84130000D01*
X144120000Y-84130000D02*
X144120000Y-85130000D01*
X144120000Y-85130000D02*
X143620000Y-85130000D01*
%TO.C,R1*%
X145750000Y-76862500D02*
X147350000Y-76862500D01*
X145750000Y-77687500D02*
X145750000Y-76862500D01*
X147350000Y-76862500D02*
X147350000Y-77687500D01*
X147350000Y-77687500D02*
X145750000Y-77687500D01*
%TO.C,R17*%
X137100000Y-73937500D02*
X138700000Y-73937500D01*
X137100000Y-74762500D02*
X137100000Y-73937500D01*
X138700000Y-73937500D02*
X138700000Y-74762500D01*
X138700000Y-74762500D02*
X137100000Y-74762500D01*
%TO.C,C111*%
X130934444Y-78174999D02*
X132534444Y-78174999D01*
X130934444Y-78974999D02*
X130934444Y-78174999D01*
X132534444Y-78174999D02*
X132534444Y-78974999D01*
X132534444Y-78974999D02*
X130934444Y-78974999D01*
%TO.C,C69*%
X152200000Y-61310700D02*
X153000000Y-61310700D01*
X152200000Y-62910700D02*
X152200000Y-61310700D01*
X153000000Y-61310700D02*
X153000000Y-62910700D01*
X153000000Y-62910700D02*
X152200000Y-62910700D01*
%TO.C,R52*%
X150062500Y-61083188D02*
X150887500Y-61083188D01*
X150062500Y-62683188D02*
X150062500Y-61083188D01*
X150887500Y-61083188D02*
X150887500Y-62683188D01*
X150887500Y-62683188D02*
X150062500Y-62683188D01*
%TO.C,C49*%
X146400000Y-88775000D02*
X147200000Y-88775000D01*
X146400000Y-90375000D02*
X146400000Y-88775000D01*
X147200000Y-88775000D02*
X147200000Y-90375000D01*
X147200000Y-90375000D02*
X146400000Y-90375000D01*
%TO.C,R41*%
X157462500Y-63485700D02*
X158287500Y-63485700D01*
X157462500Y-65085700D02*
X157462500Y-63485700D01*
X158287500Y-63485700D02*
X158287500Y-65085700D01*
X158287500Y-65085700D02*
X157462500Y-65085700D01*
%TO.C,C9*%
X148700000Y-77500000D02*
X149700000Y-77500000D01*
X148700000Y-78000000D02*
X148700000Y-77500000D01*
X149700000Y-77500000D02*
X149700000Y-78000000D01*
X149700000Y-78000000D02*
X148700000Y-78000000D01*
%TO.C,C19*%
X144875000Y-74075000D02*
X145375000Y-74075000D01*
X144875000Y-75075000D02*
X144875000Y-74075000D01*
X145375000Y-74075000D02*
X145375000Y-75075000D01*
X145375000Y-75075000D02*
X144875000Y-75075000D01*
%TO.C,R21*%
X153375000Y-69637500D02*
X154975000Y-69637500D01*
X153375000Y-70462500D02*
X153375000Y-69637500D01*
X154975000Y-69637500D02*
X154975000Y-70462500D01*
X154975000Y-70462500D02*
X153375000Y-70462500D01*
%TO.C,R76*%
X126751800Y-82150000D02*
X127576800Y-82150000D01*
X126751800Y-83750000D02*
X126751800Y-82150000D01*
X127576800Y-82150000D02*
X127576800Y-83750000D01*
X127576800Y-83750000D02*
X126751800Y-83750000D01*
%TO.C,C47*%
X151400000Y-69925000D02*
X152200000Y-69925000D01*
X151400000Y-71525000D02*
X151400000Y-69925000D01*
X152200000Y-69925000D02*
X152200000Y-71525000D01*
X152200000Y-71525000D02*
X151400000Y-71525000D01*
%TO.C,C120*%
X127689300Y-85075000D02*
X129289300Y-85075000D01*
X127689300Y-85875000D02*
X127689300Y-85075000D01*
X129289300Y-85075000D02*
X129289300Y-85875000D01*
X129289300Y-85875000D02*
X127689300Y-85875000D01*
%TO.C,C43*%
X137150000Y-75525000D02*
X138750000Y-75525000D01*
X137150000Y-76325000D02*
X137150000Y-75525000D01*
X138750000Y-75525000D02*
X138750000Y-76325000D01*
X138750000Y-76325000D02*
X137150000Y-76325000D01*
%TO.C,R15*%
X147937500Y-69350000D02*
X148762500Y-69350000D01*
X147937500Y-70950000D02*
X147937500Y-69350000D01*
X148762500Y-69350000D02*
X148762500Y-70950000D01*
X148762500Y-70950000D02*
X147937500Y-70950000D01*
%TO.C,R72*%
X133683189Y-66963801D02*
X135283189Y-66963801D01*
X133683189Y-67788801D02*
X133683189Y-66963801D01*
X135283189Y-66963801D02*
X135283189Y-67788801D01*
X135283189Y-67788801D02*
X133683189Y-67788801D01*
%TO.C,C119*%
X130714300Y-85075000D02*
X132314300Y-85075000D01*
X130714300Y-85875000D02*
X130714300Y-85075000D01*
X132314300Y-85075000D02*
X132314300Y-85875000D01*
X132314300Y-85875000D02*
X130714300Y-85875000D01*
%TO.C,R67*%
X126896944Y-75299999D02*
X127721944Y-75299999D01*
X126896944Y-76899999D02*
X126896944Y-75299999D01*
X127721944Y-75299999D02*
X127721944Y-76899999D01*
X127721944Y-76899999D02*
X126896944Y-76899999D01*
%TO.C,C36*%
X157829400Y-105135000D02*
X158629400Y-105135000D01*
X157829400Y-106735000D02*
X157829400Y-105135000D01*
X158629400Y-105135000D02*
X158629400Y-106735000D01*
X158629400Y-106735000D02*
X157829400Y-106735000D01*
%TO.C,R79*%
X127714300Y-80237500D02*
X129314300Y-80237500D01*
X127714300Y-81062500D02*
X127714300Y-80237500D01*
X129314300Y-80237500D02*
X129314300Y-81062500D01*
X129314300Y-81062500D02*
X127714300Y-81062500D01*
%TO.C,C5*%
X143400000Y-76125000D02*
X144400000Y-76125000D01*
X143400000Y-76625000D02*
X143400000Y-76125000D01*
X144400000Y-76125000D02*
X144400000Y-76625000D01*
X144400000Y-76625000D02*
X143400000Y-76625000D01*
%TO.C,C10*%
X148700000Y-76525000D02*
X149700000Y-76525000D01*
X148700000Y-77025000D02*
X148700000Y-76525000D01*
X149700000Y-76525000D02*
X149700000Y-77025000D01*
X149700000Y-77025000D02*
X148700000Y-77025000D01*
%TO.C,R66*%
X132720689Y-69001301D02*
X133545689Y-69001301D01*
X132720689Y-70601301D02*
X132720689Y-69001301D01*
X133545689Y-69001301D02*
X133545689Y-70601301D01*
X133545689Y-70601301D02*
X132720689Y-70601301D01*
%TO.C,C29*%
X159329400Y-105125000D02*
X160129400Y-105125000D01*
X159329400Y-106725000D02*
X159329400Y-105125000D01*
X160129400Y-105125000D02*
X160129400Y-106725000D01*
X160129400Y-106725000D02*
X159329400Y-106725000D01*
%TO.C,C61*%
X160050000Y-80150000D02*
X161650000Y-80150000D01*
X160050000Y-80950000D02*
X160050000Y-80150000D01*
X161650000Y-80150000D02*
X161650000Y-80950000D01*
X161650000Y-80950000D02*
X160050000Y-80950000D01*
%TO.C,C68*%
X152225000Y-65010700D02*
X153025000Y-65010700D01*
X152225000Y-66610700D02*
X152225000Y-65010700D01*
X153025000Y-65010700D02*
X153025000Y-66610700D01*
X153025000Y-66610700D02*
X152225000Y-66610700D01*
%TO.C,R22*%
X148087500Y-85750000D02*
X148912500Y-85750000D01*
X148087500Y-87350000D02*
X148087500Y-85750000D01*
X148912500Y-85750000D02*
X148912500Y-87350000D01*
X148912500Y-87350000D02*
X148087500Y-87350000D01*
%TO.C,C57*%
X156125000Y-78600000D02*
X157725000Y-78600000D01*
X156125000Y-79400000D02*
X156125000Y-78600000D01*
X157725000Y-78600000D02*
X157725000Y-79400000D01*
X157725000Y-79400000D02*
X156125000Y-79400000D01*
%TO.C,C1*%
X142625000Y-84125000D02*
X143125000Y-84125000D01*
X142625000Y-85125000D02*
X142625000Y-84125000D01*
X143125000Y-84125000D02*
X143125000Y-85125000D01*
X143125000Y-85125000D02*
X142625000Y-85125000D01*
%TO.C,C77*%
X145000000Y-63383188D02*
X145800000Y-63383188D01*
X145000000Y-64983188D02*
X145000000Y-63383188D01*
X145800000Y-63383188D02*
X145800000Y-64983188D01*
X145800000Y-64983188D02*
X145000000Y-64983188D01*
%TO.C,C59*%
X159098699Y-69700000D02*
X159898699Y-69700000D01*
X159098699Y-71300000D02*
X159098699Y-69700000D01*
X159898699Y-69700000D02*
X159898699Y-71300000D01*
X159898699Y-71300000D02*
X159098699Y-71300000D01*
%TO.C,R34*%
X157812500Y-80600000D02*
X158637500Y-80600000D01*
X157812500Y-82200000D02*
X157812500Y-80600000D01*
X158637500Y-80600000D02*
X158637500Y-82200000D01*
X158637500Y-82200000D02*
X157812500Y-82200000D01*
%TO.C,R53*%
X142487501Y-60558188D02*
X143312501Y-60558188D01*
X142487501Y-62158188D02*
X142487501Y-60558188D01*
X143312501Y-60558188D02*
X143312501Y-62158188D01*
X143312501Y-62158188D02*
X142487501Y-62158188D01*
%TO.C,C4*%
X145575000Y-79125000D02*
X146575000Y-79125000D01*
X145575000Y-79625000D02*
X145575000Y-79125000D01*
X146575000Y-79125000D02*
X146575000Y-79625000D01*
X146575000Y-79625000D02*
X145575000Y-79625000D01*
%TO.C,R73*%
X127459444Y-73137499D02*
X129059444Y-73137499D01*
X127459444Y-73962499D02*
X127459444Y-73137499D01*
X129059444Y-73137499D02*
X129059444Y-73962499D01*
X129059444Y-73962499D02*
X127459444Y-73962499D01*
%TO.C,R18*%
X137150000Y-77362500D02*
X138750000Y-77362500D01*
X137150000Y-78187500D02*
X137150000Y-77362500D01*
X138750000Y-77362500D02*
X138750000Y-78187500D01*
X138750000Y-78187500D02*
X137150000Y-78187500D01*
%TO.C,C60*%
X160050000Y-78650000D02*
X161650000Y-78650000D01*
X160050000Y-79450000D02*
X160050000Y-78650000D01*
X161650000Y-78650000D02*
X161650000Y-79450000D01*
X161650000Y-79450000D02*
X160050000Y-79450000D01*
D15*
%TO.C,U2*%
X147188021Y-108188001D02*
X147188021Y-108412994D01*
X147188021Y-108188001D02*
X147371815Y-108188001D01*
X147188021Y-108412994D02*
X147371815Y-108412994D01*
X147188021Y-108838012D02*
X147188021Y-109063006D01*
X147188021Y-108838012D02*
X147371815Y-108838012D01*
X147188021Y-109063006D02*
X147371815Y-109063006D01*
X147188021Y-109487998D02*
X147188021Y-109713017D01*
X147188021Y-109487998D02*
X147371815Y-109487998D01*
X147188021Y-109713017D02*
X147371815Y-109713017D01*
X147371815Y-108188001D02*
X147466430Y-108188001D01*
X147371815Y-108412994D02*
X147466430Y-108412994D01*
X147371815Y-108838012D02*
X147466430Y-108838012D01*
X147371815Y-109063006D02*
X147466430Y-109063006D01*
X147371815Y-109487998D02*
X147466430Y-109487998D01*
X147371815Y-109713017D02*
X147466430Y-109713017D01*
X147466430Y-108188001D02*
X147478317Y-108188001D01*
X147466430Y-108412994D02*
X147478317Y-108412994D01*
X147466430Y-108838012D02*
X147478317Y-108838012D01*
X147466430Y-109063006D02*
X147478317Y-109063006D01*
X147466430Y-109487998D02*
X147478317Y-109487998D01*
X147466430Y-109713017D02*
X147478317Y-109713017D01*
X147478317Y-108188001D02*
X147703006Y-108188001D01*
X147478317Y-108412994D02*
X147703006Y-108412994D01*
X147478317Y-108838012D02*
X147703006Y-108838012D01*
X147478317Y-109063006D02*
X147703006Y-109063006D01*
X147478317Y-109487998D02*
X147703006Y-109487998D01*
X147478317Y-109713017D02*
X147703006Y-109713017D01*
X147703006Y-107950511D02*
X147703006Y-108188001D01*
X147703006Y-107950511D02*
X148953016Y-107950511D01*
X147703006Y-108188001D02*
X147740039Y-108188001D01*
X147703006Y-108412994D02*
X147703006Y-108838012D01*
X147703006Y-108412994D02*
X147740039Y-108412994D01*
X147703006Y-108838012D02*
X147740039Y-108838012D01*
X147703006Y-109063006D02*
X147703006Y-109487998D01*
X147703006Y-109063006D02*
X147740039Y-109063006D01*
X147703006Y-109487998D02*
X147740039Y-109487998D01*
X147703006Y-109713017D02*
X147703006Y-109950507D01*
X147703006Y-109713017D02*
X147740039Y-109713017D01*
X147703006Y-109950507D02*
X148953016Y-109950507D01*
X147718017Y-107975505D02*
X147718017Y-108188001D01*
X147718017Y-107975505D02*
X148938005Y-107975505D01*
X147718017Y-108412994D02*
X147718017Y-108838012D01*
X147718017Y-109063006D02*
X147718017Y-109487998D01*
X147718017Y-109713017D02*
X147718017Y-109925513D01*
X147718017Y-109925513D02*
X148938005Y-109925513D01*
X147740039Y-108188001D02*
X147740039Y-108412994D01*
X147740039Y-108838012D02*
X147740039Y-109063006D01*
X147740039Y-109487998D02*
X147740039Y-109713017D01*
X148915957Y-108188001D02*
X148915957Y-108412994D01*
X148915957Y-108188001D02*
X148953016Y-108188001D01*
X148915957Y-108412994D02*
X148953016Y-108412994D01*
X148915957Y-108838012D02*
X148915957Y-109063006D01*
X148915957Y-108838012D02*
X148953016Y-108838012D01*
X148915957Y-109063006D02*
X148953016Y-109063006D01*
X148915957Y-109487998D02*
X148915957Y-109713017D01*
X148915957Y-109487998D02*
X148953016Y-109487998D01*
X148915957Y-109713017D02*
X148953016Y-109713017D01*
X148938005Y-107975505D02*
X148938005Y-108188001D01*
X148938005Y-108412994D02*
X148938005Y-108838012D01*
X148938005Y-109063006D02*
X148938005Y-109487998D01*
X148938005Y-109713017D02*
X148938005Y-109925513D01*
X148953016Y-107950511D02*
X148953016Y-108188001D01*
X148953016Y-108188001D02*
X149177704Y-108188001D01*
X148953016Y-108412994D02*
X148953016Y-108838012D01*
X148953016Y-108412994D02*
X149177704Y-108412994D01*
X148953016Y-108838012D02*
X149177704Y-108838012D01*
X148953016Y-109063006D02*
X148953016Y-109487998D01*
X148953016Y-109063006D02*
X149177704Y-109063006D01*
X148953016Y-109487998D02*
X149177704Y-109487998D01*
X148953016Y-109713017D02*
X148953016Y-109950507D01*
X148953016Y-109713017D02*
X149177704Y-109713017D01*
X149177704Y-108188001D02*
X149189592Y-108188001D01*
X149177704Y-108412994D02*
X149189592Y-108412994D01*
X149177704Y-108838012D02*
X149189592Y-108838012D01*
X149177704Y-109063006D02*
X149189592Y-109063006D01*
X149177704Y-109487998D02*
X149189592Y-109487998D01*
X149177704Y-109713017D02*
X149189592Y-109713017D01*
X149189592Y-108188001D02*
X149284207Y-108188001D01*
X149189592Y-108412994D02*
X149284207Y-108412994D01*
X149189592Y-108838012D02*
X149284207Y-108838012D01*
X149189592Y-109063006D02*
X149284207Y-109063006D01*
X149189592Y-109487998D02*
X149284207Y-109487998D01*
X149189592Y-109713017D02*
X149284207Y-109713017D01*
X149284207Y-108188001D02*
X149468001Y-108188001D01*
X149284207Y-108412994D02*
X149468001Y-108412994D01*
X149284207Y-108838012D02*
X149468001Y-108838012D01*
X149284207Y-109063006D02*
X149468001Y-109063006D01*
X149284207Y-109487998D02*
X149468001Y-109487998D01*
X149284207Y-109713017D02*
X149468001Y-109713017D01*
X149468001Y-108188001D02*
X149468001Y-108412994D01*
X149468001Y-108838012D02*
X149468001Y-109063006D01*
X149468001Y-109487998D02*
X149468001Y-109713017D01*
X148539809Y-108299863D02*
G75*
G02*
X148756547Y-108299863I108369J0D01*
G01*
X148756547Y-108299863D02*
G75*
G02*
X148539809Y-108299863I-108369J0D01*
G01*
D13*
%TO.C,C22*%
X148700000Y-75505000D02*
X149700000Y-75505000D01*
X148700000Y-76005000D02*
X148700000Y-75505000D01*
X149700000Y-75505000D02*
X149700000Y-76005000D01*
X149700000Y-76005000D02*
X148700000Y-76005000D01*
%TO.C,C13*%
X148320000Y-80725000D02*
X148820000Y-80725000D01*
X148320000Y-81725000D02*
X148320000Y-80725000D01*
X148820000Y-80725000D02*
X148820000Y-81725000D01*
X148820000Y-81725000D02*
X148320000Y-81725000D01*
%TO.C,R20*%
X149512500Y-66250000D02*
X150337500Y-66250000D01*
X149512500Y-67850000D02*
X149512500Y-66250000D01*
X150337500Y-66250000D02*
X150337500Y-67850000D01*
X150337500Y-67850000D02*
X149512500Y-67850000D01*
%TO.C,R11*%
X150954400Y-105437500D02*
X152554400Y-105437500D01*
X150954400Y-106262500D02*
X150954400Y-105437500D01*
X152554400Y-105437500D02*
X152554400Y-106262500D01*
X152554400Y-106262500D02*
X150954400Y-106262500D01*
%TO.C,C6*%
X143400000Y-77120000D02*
X144400000Y-77120000D01*
X143400000Y-77620000D02*
X143400000Y-77120000D01*
X144400000Y-77120000D02*
X144400000Y-77620000D01*
X144400000Y-77620000D02*
X143400000Y-77620000D01*
%TO.C,R14*%
X156950000Y-75137500D02*
X158550000Y-75137500D01*
X156950000Y-75962500D02*
X156950000Y-75137500D01*
X158550000Y-75137500D02*
X158550000Y-75962500D01*
X158550000Y-75962500D02*
X156950000Y-75962500D01*
%TO.C,C46*%
X149525000Y-69350000D02*
X150325000Y-69350000D01*
X149525000Y-70950000D02*
X149525000Y-69350000D01*
X150325000Y-69350000D02*
X150325000Y-70950000D01*
X150325000Y-70950000D02*
X149525000Y-70950000D01*
%TO.C,R16*%
X144637500Y-69375000D02*
X145462500Y-69375000D01*
X144637500Y-70975000D02*
X144637500Y-69375000D01*
X145462500Y-69375000D02*
X145462500Y-70975000D01*
X145462500Y-70975000D02*
X144637500Y-70975000D01*
%TO.C,C40*%
X153925000Y-75150000D02*
X155525000Y-75150000D01*
X153925000Y-75950000D02*
X153925000Y-75150000D01*
X155525000Y-75150000D02*
X155525000Y-75950000D01*
X155525000Y-75950000D02*
X153925000Y-75950000D01*
%TO.C,R38*%
X155862500Y-61285700D02*
X156687500Y-61285700D01*
X155862500Y-62885700D02*
X155862500Y-61285700D01*
X156687500Y-61285700D02*
X156687500Y-62885700D01*
X156687500Y-62885700D02*
X155862500Y-62885700D01*
%TO.C,C26*%
X152675000Y-82350000D02*
X153675000Y-82350000D01*
X152675000Y-82850000D02*
X152675000Y-82350000D01*
X153675000Y-82350000D02*
X153675000Y-82850000D01*
X153675000Y-82850000D02*
X152675000Y-82850000D01*
%TO.C,C63*%
X159148699Y-66175000D02*
X159948699Y-66175000D01*
X159148699Y-67775000D02*
X159148699Y-66175000D01*
X159948699Y-66175000D02*
X159948699Y-67775000D01*
X159948699Y-67775000D02*
X159148699Y-67775000D01*
%TO.C,C27*%
X152675000Y-81375000D02*
X153675000Y-81375000D01*
X152675000Y-81875000D02*
X152675000Y-81375000D01*
X153675000Y-81375000D02*
X153675000Y-81875000D01*
X153675000Y-81875000D02*
X152675000Y-81875000D01*
%TO.C,C7*%
X143400000Y-78100000D02*
X144400000Y-78100000D01*
X143400000Y-78600000D02*
X143400000Y-78100000D01*
X144400000Y-78100000D02*
X144400000Y-78600000D01*
X144400000Y-78600000D02*
X143400000Y-78600000D01*
%TO.C,C24*%
X148700000Y-73530000D02*
X149700000Y-73530000D01*
X148700000Y-74030000D02*
X148700000Y-73530000D01*
X149700000Y-73530000D02*
X149700000Y-74030000D01*
X149700000Y-74030000D02*
X148700000Y-74030000D01*
%TO.C,C23*%
X148700000Y-74525000D02*
X149700000Y-74525000D01*
X148700000Y-75025000D02*
X148700000Y-74525000D01*
X149700000Y-74525000D02*
X149700000Y-75025000D01*
X149700000Y-75025000D02*
X148700000Y-75025000D01*
%TO.C,C21*%
X144625000Y-107225000D02*
X145425000Y-107225000D01*
X144625000Y-108825000D02*
X144625000Y-107225000D01*
X145425000Y-107225000D02*
X145425000Y-108825000D01*
X145425000Y-108825000D02*
X144625000Y-108825000D01*
%TO.C,C16*%
X143390000Y-80125000D02*
X144390000Y-80125000D01*
X143390000Y-80625000D02*
X143390000Y-80125000D01*
X144390000Y-80125000D02*
X144390000Y-80625000D01*
X144390000Y-80625000D02*
X143390000Y-80625000D01*
%TO.C,C113*%
X127884444Y-78174999D02*
X129484444Y-78174999D01*
X127884444Y-78974999D02*
X127884444Y-78174999D01*
X129484444Y-78174999D02*
X129484444Y-78974999D01*
X129484444Y-78974999D02*
X127884444Y-78974999D01*
%TO.C,C12*%
X147275000Y-80725000D02*
X147775000Y-80725000D01*
X147275000Y-81725000D02*
X147275000Y-80725000D01*
X147775000Y-80725000D02*
X147775000Y-81725000D01*
X147775000Y-81725000D02*
X147275000Y-81725000D01*
%TO.C,R23*%
X146362500Y-85750000D02*
X147187500Y-85750000D01*
X146362500Y-87350000D02*
X146362500Y-85750000D01*
X147187500Y-85750000D02*
X147187500Y-87350000D01*
X147187500Y-87350000D02*
X146362500Y-87350000D01*
%TO.C,C107*%
X136883189Y-72101301D02*
X138483189Y-72101301D01*
X136883189Y-72901301D02*
X136883189Y-72101301D01*
X138483189Y-72101301D02*
X138483189Y-72901301D01*
X138483189Y-72901301D02*
X136883189Y-72901301D01*
%TO.C,R29*%
X162811199Y-62000000D02*
X163636199Y-62000000D01*
X162811199Y-63600000D02*
X162811199Y-62000000D01*
X163636199Y-62000000D02*
X163636199Y-63600000D01*
X163636199Y-63600000D02*
X162811199Y-63600000D01*
%TD*%
M02*
