%TF.GenerationSoftware,KiCad,Pcbnew,8.0.5*%
%TF.CreationDate,2025-03-31T18:49:43-05:00*%
%TF.ProjectId,PSEC5_Board,50534543-355f-4426-9f61-72642e6b6963,rev?*%
%TF.SameCoordinates,Original*%
%TF.FileFunction,Paste,Bot*%
%TF.FilePolarity,Positive*%
%FSLAX46Y46*%
G04 Gerber Fmt 4.6, Leading zero omitted, Abs format (unit mm)*
G04 Created by KiCad (PCBNEW 8.0.5) date 2025-03-31 18:49:43*
%MOMM*%
%LPD*%
G01*
G04 APERTURE LIST*
G04 Aperture macros list*
%AMRoundRect*
0 Rectangle with rounded corners*
0 $1 Rounding radius*
0 $2 $3 $4 $5 $6 $7 $8 $9 X,Y pos of 4 corners*
0 Add a 4 corners polygon primitive as box body*
4,1,4,$2,$3,$4,$5,$6,$7,$8,$9,$2,$3,0*
0 Add four circle primitives for the rounded corners*
1,1,$1+$1,$2,$3*
1,1,$1+$1,$4,$5*
1,1,$1+$1,$6,$7*
1,1,$1+$1,$8,$9*
0 Add four rect primitives between the rounded corners*
20,1,$1+$1,$2,$3,$4,$5,0*
20,1,$1+$1,$4,$5,$6,$7,0*
20,1,$1+$1,$6,$7,$8,$9,0*
20,1,$1+$1,$8,$9,$2,$3,0*%
G04 Aperture macros list end*
%ADD10RoundRect,0.140000X0.140000X0.170000X-0.140000X0.170000X-0.140000X-0.170000X0.140000X-0.170000X0*%
%ADD11RoundRect,0.200000X-0.275000X0.200000X-0.275000X-0.200000X0.275000X-0.200000X0.275000X0.200000X0*%
%ADD12RoundRect,0.200000X-0.200000X-0.275000X0.200000X-0.275000X0.200000X0.275000X-0.200000X0.275000X0*%
%ADD13RoundRect,0.225000X-0.225000X-0.250000X0.225000X-0.250000X0.225000X0.250000X-0.225000X0.250000X0*%
%ADD14RoundRect,0.225000X0.250000X-0.225000X0.250000X0.225000X-0.250000X0.225000X-0.250000X-0.225000X0*%
%ADD15RoundRect,0.225000X0.225000X0.250000X-0.225000X0.250000X-0.225000X-0.250000X0.225000X-0.250000X0*%
%ADD16RoundRect,0.225000X-0.250000X0.225000X-0.250000X-0.225000X0.250000X-0.225000X0.250000X0.225000X0*%
%ADD17RoundRect,0.200000X0.200000X0.275000X-0.200000X0.275000X-0.200000X-0.275000X0.200000X-0.275000X0*%
%ADD18R,2.540000X0.640000*%
%ADD19R,4.700000X0.640000*%
%ADD20R,0.300000X1.450000*%
%ADD21RoundRect,0.140000X0.170000X-0.140000X0.170000X0.140000X-0.170000X0.140000X-0.170000X-0.140000X0*%
%ADD22RoundRect,0.140000X-0.170000X0.140000X-0.170000X-0.140000X0.170000X-0.140000X0.170000X0.140000X0*%
%ADD23RoundRect,0.140000X-0.140000X-0.170000X0.140000X-0.170000X0.140000X0.170000X-0.140000X0.170000X0*%
%ADD24RoundRect,0.200000X0.275000X-0.200000X0.275000X0.200000X-0.275000X0.200000X-0.275000X-0.200000X0*%
%ADD25R,0.850001X0.399999*%
G04 APERTURE END LIST*
D10*
%TO.C,C17*%
X144375000Y-81350000D03*
X143415000Y-81350000D03*
%TD*%
D11*
%TO.C,R46*%
X148800000Y-58208188D03*
X148800000Y-59858188D03*
%TD*%
D12*
%TO.C,R13*%
X156925000Y-77100000D03*
X158575000Y-77100000D03*
%TD*%
D13*
%TO.C,C110*%
X135433189Y-72501301D03*
X133883189Y-72501301D03*
%TD*%
D14*
%TO.C,R10*%
X156549400Y-106710000D03*
X156549400Y-105160000D03*
%TD*%
D15*
%TO.C,C45*%
X135675000Y-82375000D03*
X134125000Y-82375000D03*
%TD*%
D16*
%TO.C,C83*%
X138050001Y-62283188D03*
X138050001Y-60733188D03*
%TD*%
D10*
%TO.C,C25*%
X153655000Y-80650000D03*
X152695000Y-80650000D03*
%TD*%
D17*
%TO.C,R47*%
X141300001Y-58558188D03*
X139650001Y-58558188D03*
%TD*%
D18*
%TO.C,J1*%
X128133400Y-49002139D03*
D19*
X133403400Y-49002139D03*
X139753400Y-49002139D03*
D18*
X145023400Y-49002139D03*
X148143400Y-49002139D03*
D19*
X153413400Y-49002139D03*
X159763400Y-49002139D03*
D18*
X165033400Y-49002139D03*
D20*
X129833400Y-52092139D03*
X129833400Y-45912139D03*
X130333400Y-52092139D03*
X130333400Y-45912139D03*
X131333400Y-52092139D03*
X131333400Y-45912139D03*
X131833400Y-52092139D03*
X131833400Y-45912139D03*
X132833400Y-52092139D03*
X132833400Y-45912139D03*
X133333400Y-52092139D03*
X133333400Y-45912139D03*
X134333400Y-52092139D03*
X134333400Y-45912139D03*
X134833400Y-52092139D03*
X134833400Y-45912139D03*
X135833400Y-52092139D03*
X135833400Y-45912139D03*
X136333400Y-52092139D03*
X136333400Y-45912139D03*
X137333400Y-52092139D03*
X137333400Y-45912139D03*
X137833400Y-52092139D03*
X137833400Y-45912139D03*
X138833400Y-52092139D03*
X138833400Y-45912139D03*
X139333400Y-52092139D03*
X139333400Y-45912139D03*
X140333400Y-52092139D03*
X140333400Y-45912139D03*
X140833400Y-52092139D03*
X140833400Y-45912139D03*
X141833400Y-52092139D03*
X141833400Y-45912139D03*
X142333400Y-52092139D03*
X142333400Y-45912139D03*
X143333400Y-52092139D03*
X143333400Y-45912139D03*
X143833400Y-52092139D03*
X143833400Y-45912139D03*
X149833400Y-52092139D03*
X149833400Y-45912139D03*
X150333400Y-52092139D03*
X150333400Y-45912139D03*
X151333400Y-52092139D03*
X151333400Y-45912139D03*
X151833400Y-52092139D03*
X151833400Y-45912139D03*
X152833400Y-52092139D03*
X152833400Y-45912139D03*
X153333400Y-52092139D03*
X153333400Y-45912139D03*
X154333400Y-52092139D03*
X154333400Y-45912139D03*
X154833400Y-52092139D03*
X154833400Y-45912139D03*
X155833400Y-52092139D03*
X155833400Y-45912139D03*
X156333400Y-52092139D03*
X156333400Y-45912139D03*
X157333400Y-52092139D03*
X157333400Y-45912139D03*
X157833400Y-52092139D03*
X157833400Y-45912139D03*
X158833400Y-52092139D03*
X158833400Y-45912139D03*
X159333400Y-52092139D03*
X159333400Y-45912139D03*
X160333400Y-52092139D03*
X160333400Y-45912139D03*
X160833400Y-52092139D03*
X160833400Y-45912139D03*
X161833400Y-52092139D03*
X161833400Y-45912139D03*
X162333400Y-52092139D03*
X162333400Y-45912139D03*
X163333400Y-52092139D03*
X163333400Y-45912139D03*
X163833400Y-52092139D03*
X163833400Y-45912139D03*
%TD*%
D16*
%TO.C,C79*%
X145400000Y-61858188D03*
X145400000Y-60308188D03*
%TD*%
D21*
%TO.C,C20*%
X147075000Y-75055000D03*
X147075000Y-74095000D03*
%TD*%
D15*
%TO.C,C42*%
X145025000Y-67875000D03*
X143475000Y-67875000D03*
%TD*%
D16*
%TO.C,C48*%
X148500000Y-88825000D03*
X148500000Y-90375000D03*
%TD*%
D22*
%TO.C,C11*%
X146520000Y-80745000D03*
X146520000Y-81705000D03*
%TD*%
D18*
%TO.C,J2*%
X128133400Y-115065000D03*
D19*
X133403400Y-115065000D03*
X139753400Y-115065000D03*
D18*
X145023400Y-115065000D03*
X148143400Y-115065000D03*
D19*
X153413400Y-115065000D03*
X159763400Y-115065000D03*
D18*
X165033400Y-115065000D03*
D20*
X129833400Y-118155000D03*
X129833400Y-111975000D03*
X130333400Y-118155000D03*
X130333400Y-111975000D03*
X131333400Y-118155000D03*
X131333400Y-111975000D03*
X131833400Y-118155000D03*
X131833400Y-111975000D03*
X132833400Y-118155000D03*
X132833400Y-111975000D03*
X133333400Y-118155000D03*
X133333400Y-111975000D03*
X134333400Y-118155000D03*
X134333400Y-111975000D03*
X134833400Y-118155000D03*
X134833400Y-111975000D03*
X135833400Y-118155000D03*
X135833400Y-111975000D03*
X136333400Y-118155000D03*
X136333400Y-111975000D03*
X137333400Y-118155000D03*
X137333400Y-111975000D03*
X137833400Y-118155000D03*
X137833400Y-111975000D03*
X138833400Y-118155000D03*
X138833400Y-111975000D03*
X139333400Y-118155000D03*
X139333400Y-111975000D03*
X140333400Y-118155000D03*
X140333400Y-111975000D03*
X140833400Y-118155000D03*
X140833400Y-111975000D03*
X141833400Y-118155000D03*
X141833400Y-111975000D03*
X142333400Y-118155000D03*
X142333400Y-111975000D03*
X143333400Y-118155000D03*
X143333400Y-111975000D03*
X143833400Y-118155000D03*
X143833400Y-111975000D03*
X149833400Y-118155000D03*
X149833400Y-111975000D03*
X150333400Y-118155000D03*
X150333400Y-111975000D03*
X151333400Y-118155000D03*
X151333400Y-111975000D03*
X151833400Y-118155000D03*
X151833400Y-111975000D03*
X152833400Y-118155000D03*
X152833400Y-111975000D03*
X153333400Y-118155000D03*
X153333400Y-111975000D03*
X154333400Y-118155000D03*
X154333400Y-111975000D03*
X154833400Y-118155000D03*
X154833400Y-111975000D03*
X155833400Y-118155000D03*
X155833400Y-111975000D03*
X156333400Y-118155000D03*
X156333400Y-111975000D03*
X157333400Y-118155000D03*
X157333400Y-111975000D03*
X157833400Y-118155000D03*
X157833400Y-111975000D03*
X158833400Y-118155000D03*
X158833400Y-111975000D03*
X159333400Y-118155000D03*
X159333400Y-111975000D03*
X160333400Y-118155000D03*
X160333400Y-111975000D03*
X160833400Y-118155000D03*
X160833400Y-111975000D03*
X161833400Y-118155000D03*
X161833400Y-111975000D03*
X162333400Y-118155000D03*
X162333400Y-111975000D03*
X163333400Y-118155000D03*
X163333400Y-111975000D03*
X163833400Y-118155000D03*
X163833400Y-111975000D03*
%TD*%
D14*
%TO.C,C41*%
X148350000Y-67825000D03*
X148350000Y-66275000D03*
%TD*%
D10*
%TO.C,C15*%
X144375000Y-79400000D03*
X143415000Y-79400000D03*
%TD*%
D23*
%TO.C,C8*%
X148720000Y-78725000D03*
X149680000Y-78725000D03*
%TD*%
D15*
%TO.C,C44*%
X138725000Y-79275000D03*
X137175000Y-79275000D03*
%TD*%
D24*
%TO.C,R35*%
X164950000Y-66300000D03*
X164950000Y-64650000D03*
%TD*%
D21*
%TO.C,C18*%
X146100000Y-75055000D03*
X146100000Y-74095000D03*
%TD*%
D17*
%TO.C,R19*%
X138825000Y-82375000D03*
X137175000Y-82375000D03*
%TD*%
D14*
%TO.C,C82*%
X138050001Y-63783188D03*
X138050001Y-65333188D03*
%TD*%
D13*
%TO.C,C39*%
X153950000Y-77075000D03*
X155500000Y-77075000D03*
%TD*%
D21*
%TO.C,C2*%
X144850000Y-85105000D03*
X144850000Y-84145000D03*
%TD*%
%TO.C,C3*%
X143870000Y-85110000D03*
X143870000Y-84150000D03*
%TD*%
D17*
%TO.C,R1*%
X147375000Y-77275000D03*
X145725000Y-77275000D03*
%TD*%
%TO.C,R17*%
X138725000Y-74350000D03*
X137075000Y-74350000D03*
%TD*%
D15*
%TO.C,C111*%
X130959444Y-78574999D03*
X132509444Y-78574999D03*
%TD*%
D14*
%TO.C,C69*%
X152600000Y-61335700D03*
X152600000Y-62885700D03*
%TD*%
D24*
%TO.C,R52*%
X150475000Y-62708188D03*
X150475000Y-61058188D03*
%TD*%
D16*
%TO.C,C49*%
X146800000Y-88800000D03*
X146800000Y-90350000D03*
%TD*%
D24*
%TO.C,R41*%
X157875000Y-65110700D03*
X157875000Y-63460700D03*
%TD*%
D23*
%TO.C,C9*%
X148720000Y-77750000D03*
X149680000Y-77750000D03*
%TD*%
D21*
%TO.C,C19*%
X145125000Y-75055000D03*
X145125000Y-74095000D03*
%TD*%
D12*
%TO.C,R21*%
X153350000Y-70050000D03*
X155000000Y-70050000D03*
%TD*%
D11*
%TO.C,R76*%
X127164300Y-82125000D03*
X127164300Y-83775000D03*
%TD*%
D14*
%TO.C,C47*%
X151800000Y-71500000D03*
X151800000Y-69950000D03*
%TD*%
D13*
%TO.C,C120*%
X129264300Y-85475000D03*
X127714300Y-85475000D03*
%TD*%
D15*
%TO.C,C43*%
X138725000Y-75925000D03*
X137175000Y-75925000D03*
%TD*%
D24*
%TO.C,R15*%
X148350000Y-70975000D03*
X148350000Y-69325000D03*
%TD*%
D12*
%TO.C,R72*%
X133658189Y-67376301D03*
X135308189Y-67376301D03*
%TD*%
D15*
%TO.C,C119*%
X130739300Y-85475000D03*
X132289300Y-85475000D03*
%TD*%
D11*
%TO.C,R67*%
X127309444Y-75274999D03*
X127309444Y-76924999D03*
%TD*%
D14*
%TO.C,C36*%
X158229400Y-105160000D03*
X158229400Y-106710000D03*
%TD*%
D12*
%TO.C,R79*%
X127689300Y-80650000D03*
X129339300Y-80650000D03*
%TD*%
D10*
%TO.C,C5*%
X144380000Y-76375000D03*
X143420000Y-76375000D03*
%TD*%
D23*
%TO.C,C10*%
X148720000Y-76775000D03*
X149680000Y-76775000D03*
%TD*%
D11*
%TO.C,R66*%
X133133189Y-68976301D03*
X133133189Y-70626301D03*
%TD*%
D16*
%TO.C,C29*%
X159729400Y-105150000D03*
X159729400Y-106700000D03*
%TD*%
D13*
%TO.C,C61*%
X161625000Y-80550000D03*
X160075000Y-80550000D03*
%TD*%
D14*
%TO.C,C68*%
X152625000Y-65035700D03*
X152625000Y-66585700D03*
%TD*%
D11*
%TO.C,R22*%
X148500000Y-85725000D03*
X148500000Y-87375000D03*
%TD*%
D13*
%TO.C,C57*%
X157700000Y-79000000D03*
X156150000Y-79000000D03*
%TD*%
D21*
%TO.C,C1*%
X142875000Y-85105000D03*
X142875000Y-84145000D03*
%TD*%
D16*
%TO.C,C77*%
X145400000Y-64958188D03*
X145400000Y-63408188D03*
%TD*%
%TO.C,C59*%
X159498699Y-71275000D03*
X159498699Y-69725000D03*
%TD*%
D24*
%TO.C,R34*%
X158225000Y-82225000D03*
X158225000Y-80575000D03*
%TD*%
D11*
%TO.C,R53*%
X142900001Y-60533188D03*
X142900001Y-62183188D03*
%TD*%
D23*
%TO.C,C4*%
X145595000Y-79375000D03*
X146555000Y-79375000D03*
%TD*%
D12*
%TO.C,R73*%
X127434444Y-73549999D03*
X129084444Y-73549999D03*
%TD*%
D17*
%TO.C,R18*%
X138775000Y-77775000D03*
X137125000Y-77775000D03*
%TD*%
D13*
%TO.C,C60*%
X161625000Y-79050000D03*
X160075000Y-79050000D03*
%TD*%
D25*
%TO.C,U2*%
X149450000Y-108300000D03*
X149450000Y-108950001D03*
X149450000Y-109600000D03*
X147199999Y-109600000D03*
X147199999Y-108950001D03*
X147199999Y-108300000D03*
%TD*%
D23*
%TO.C,C22*%
X148720000Y-75755000D03*
X149680000Y-75755000D03*
%TD*%
D22*
%TO.C,C13*%
X148570000Y-80745000D03*
X148570000Y-81705000D03*
%TD*%
D24*
%TO.C,R20*%
X149925000Y-67875000D03*
X149925000Y-66225000D03*
%TD*%
D12*
%TO.C,R11*%
X150929400Y-105850000D03*
X152579400Y-105850000D03*
%TD*%
D10*
%TO.C,C6*%
X144380000Y-77370000D03*
X143420000Y-77370000D03*
%TD*%
D12*
%TO.C,R14*%
X156925000Y-75550000D03*
X158575000Y-75550000D03*
%TD*%
D14*
%TO.C,C46*%
X149925000Y-70925000D03*
X149925000Y-69375000D03*
%TD*%
D24*
%TO.C,R16*%
X145050000Y-71000000D03*
X145050000Y-69350000D03*
%TD*%
D13*
%TO.C,C40*%
X153950000Y-75550000D03*
X155500000Y-75550000D03*
%TD*%
D11*
%TO.C,R38*%
X156275000Y-61260700D03*
X156275000Y-62910700D03*
%TD*%
D10*
%TO.C,C26*%
X153655000Y-82600000D03*
X152695000Y-82600000D03*
%TD*%
D14*
%TO.C,C63*%
X159548699Y-66200000D03*
X159548699Y-67750000D03*
%TD*%
D10*
%TO.C,C27*%
X153655000Y-81625000D03*
X152695000Y-81625000D03*
%TD*%
%TO.C,C7*%
X144380000Y-78350000D03*
X143420000Y-78350000D03*
%TD*%
D23*
%TO.C,C24*%
X148720000Y-73780000D03*
X149680000Y-73780000D03*
%TD*%
%TO.C,C23*%
X148720000Y-74775000D03*
X149680000Y-74775000D03*
%TD*%
D16*
%TO.C,C21*%
X145025000Y-107250000D03*
X145025000Y-108800000D03*
%TD*%
D10*
%TO.C,C16*%
X144370000Y-80375000D03*
X143410000Y-80375000D03*
%TD*%
D13*
%TO.C,C113*%
X129459444Y-78574999D03*
X127909444Y-78574999D03*
%TD*%
D22*
%TO.C,C12*%
X147525000Y-80745000D03*
X147525000Y-81705000D03*
%TD*%
D11*
%TO.C,R23*%
X146775000Y-85725000D03*
X146775000Y-87375000D03*
%TD*%
D15*
%TO.C,C107*%
X136908189Y-72501301D03*
X138458189Y-72501301D03*
%TD*%
D11*
%TO.C,R29*%
X163223699Y-61975000D03*
X163223699Y-63625000D03*
%TD*%
M02*
