%TF.GenerationSoftware,KiCad,Pcbnew,8.0.5*%
%TF.CreationDate,2025-04-03T13:44:51-05:00*%
%TF.ProjectId,PSEC5_Board,50534543-355f-4426-9f61-72642e6b6963,rev?*%
%TF.SameCoordinates,Original*%
%TF.FileFunction,Legend,Bot*%
%TF.FilePolarity,Positive*%
%FSLAX46Y46*%
G04 Gerber Fmt 4.6, Leading zero omitted, Abs format (unit mm)*
G04 Created by KiCad (PCBNEW 8.0.5) date 2025-04-03 13:44:51*
%MOMM*%
%LPD*%
G01*
G04 APERTURE LIST*
%ADD10C,0.150000*%
%ADD11C,0.200000*%
%ADD12C,0.120000*%
G04 APERTURE END LIST*
D10*
X141989285Y-81711104D02*
X142027381Y-81749200D01*
X142027381Y-81749200D02*
X142141666Y-81787295D01*
X142141666Y-81787295D02*
X142217857Y-81787295D01*
X142217857Y-81787295D02*
X142332143Y-81749200D01*
X142332143Y-81749200D02*
X142408333Y-81673009D01*
X142408333Y-81673009D02*
X142446428Y-81596819D01*
X142446428Y-81596819D02*
X142484524Y-81444438D01*
X142484524Y-81444438D02*
X142484524Y-81330152D01*
X142484524Y-81330152D02*
X142446428Y-81177771D01*
X142446428Y-81177771D02*
X142408333Y-81101580D01*
X142408333Y-81101580D02*
X142332143Y-81025390D01*
X142332143Y-81025390D02*
X142217857Y-80987295D01*
X142217857Y-80987295D02*
X142141666Y-80987295D01*
X142141666Y-80987295D02*
X142027381Y-81025390D01*
X142027381Y-81025390D02*
X141989285Y-81063485D01*
X141227381Y-81787295D02*
X141684524Y-81787295D01*
X141455952Y-81787295D02*
X141455952Y-80987295D01*
X141455952Y-80987295D02*
X141532143Y-81101580D01*
X141532143Y-81101580D02*
X141608333Y-81177771D01*
X141608333Y-81177771D02*
X141684524Y-81215866D01*
X140960714Y-80987295D02*
X140427380Y-80987295D01*
X140427380Y-80987295D02*
X140770238Y-81787295D01*
D11*
X147879695Y-58315714D02*
X147498742Y-58049047D01*
X147879695Y-57858571D02*
X147079695Y-57858571D01*
X147079695Y-57858571D02*
X147079695Y-58163333D01*
X147079695Y-58163333D02*
X147117790Y-58239523D01*
X147117790Y-58239523D02*
X147155885Y-58277618D01*
X147155885Y-58277618D02*
X147232076Y-58315714D01*
X147232076Y-58315714D02*
X147346361Y-58315714D01*
X147346361Y-58315714D02*
X147422552Y-58277618D01*
X147422552Y-58277618D02*
X147460647Y-58239523D01*
X147460647Y-58239523D02*
X147498742Y-58163333D01*
X147498742Y-58163333D02*
X147498742Y-57858571D01*
X147346361Y-59001428D02*
X147879695Y-59001428D01*
X147041600Y-58810952D02*
X147613028Y-58620475D01*
X147613028Y-58620475D02*
X147613028Y-59115714D01*
X147079695Y-59763333D02*
X147079695Y-59610952D01*
X147079695Y-59610952D02*
X147117790Y-59534761D01*
X147117790Y-59534761D02*
X147155885Y-59496666D01*
X147155885Y-59496666D02*
X147270171Y-59420476D01*
X147270171Y-59420476D02*
X147422552Y-59382380D01*
X147422552Y-59382380D02*
X147727314Y-59382380D01*
X147727314Y-59382380D02*
X147803504Y-59420476D01*
X147803504Y-59420476D02*
X147841600Y-59458571D01*
X147841600Y-59458571D02*
X147879695Y-59534761D01*
X147879695Y-59534761D02*
X147879695Y-59687142D01*
X147879695Y-59687142D02*
X147841600Y-59763333D01*
X147841600Y-59763333D02*
X147803504Y-59801428D01*
X147803504Y-59801428D02*
X147727314Y-59839523D01*
X147727314Y-59839523D02*
X147536838Y-59839523D01*
X147536838Y-59839523D02*
X147460647Y-59801428D01*
X147460647Y-59801428D02*
X147422552Y-59763333D01*
X147422552Y-59763333D02*
X147384457Y-59687142D01*
X147384457Y-59687142D02*
X147384457Y-59534761D01*
X147384457Y-59534761D02*
X147422552Y-59458571D01*
X147422552Y-59458571D02*
X147460647Y-59420476D01*
X147460647Y-59420476D02*
X147536838Y-59382380D01*
X161139285Y-77484695D02*
X161405952Y-77103742D01*
X161596428Y-77484695D02*
X161596428Y-76684695D01*
X161596428Y-76684695D02*
X161291666Y-76684695D01*
X161291666Y-76684695D02*
X161215476Y-76722790D01*
X161215476Y-76722790D02*
X161177381Y-76760885D01*
X161177381Y-76760885D02*
X161139285Y-76837076D01*
X161139285Y-76837076D02*
X161139285Y-76951361D01*
X161139285Y-76951361D02*
X161177381Y-77027552D01*
X161177381Y-77027552D02*
X161215476Y-77065647D01*
X161215476Y-77065647D02*
X161291666Y-77103742D01*
X161291666Y-77103742D02*
X161596428Y-77103742D01*
X160377381Y-77484695D02*
X160834524Y-77484695D01*
X160605952Y-77484695D02*
X160605952Y-76684695D01*
X160605952Y-76684695D02*
X160682143Y-76798980D01*
X160682143Y-76798980D02*
X160758333Y-76875171D01*
X160758333Y-76875171D02*
X160834524Y-76913266D01*
X160110714Y-76684695D02*
X159615476Y-76684695D01*
X159615476Y-76684695D02*
X159882142Y-76989457D01*
X159882142Y-76989457D02*
X159767857Y-76989457D01*
X159767857Y-76989457D02*
X159691666Y-77027552D01*
X159691666Y-77027552D02*
X159653571Y-77065647D01*
X159653571Y-77065647D02*
X159615476Y-77141838D01*
X159615476Y-77141838D02*
X159615476Y-77332314D01*
X159615476Y-77332314D02*
X159653571Y-77408504D01*
X159653571Y-77408504D02*
X159691666Y-77446600D01*
X159691666Y-77446600D02*
X159767857Y-77484695D01*
X159767857Y-77484695D02*
X159996428Y-77484695D01*
X159996428Y-77484695D02*
X160072619Y-77446600D01*
X160072619Y-77446600D02*
X160110714Y-77408504D01*
X132345237Y-72308504D02*
X132383333Y-72346600D01*
X132383333Y-72346600D02*
X132497618Y-72384695D01*
X132497618Y-72384695D02*
X132573809Y-72384695D01*
X132573809Y-72384695D02*
X132688095Y-72346600D01*
X132688095Y-72346600D02*
X132764285Y-72270409D01*
X132764285Y-72270409D02*
X132802380Y-72194219D01*
X132802380Y-72194219D02*
X132840476Y-72041838D01*
X132840476Y-72041838D02*
X132840476Y-71927552D01*
X132840476Y-71927552D02*
X132802380Y-71775171D01*
X132802380Y-71775171D02*
X132764285Y-71698980D01*
X132764285Y-71698980D02*
X132688095Y-71622790D01*
X132688095Y-71622790D02*
X132573809Y-71584695D01*
X132573809Y-71584695D02*
X132497618Y-71584695D01*
X132497618Y-71584695D02*
X132383333Y-71622790D01*
X132383333Y-71622790D02*
X132345237Y-71660885D01*
X131583333Y-72384695D02*
X132040476Y-72384695D01*
X131811904Y-72384695D02*
X131811904Y-71584695D01*
X131811904Y-71584695D02*
X131888095Y-71698980D01*
X131888095Y-71698980D02*
X131964285Y-71775171D01*
X131964285Y-71775171D02*
X132040476Y-71813266D01*
X130821428Y-72384695D02*
X131278571Y-72384695D01*
X131049999Y-72384695D02*
X131049999Y-71584695D01*
X131049999Y-71584695D02*
X131126190Y-71698980D01*
X131126190Y-71698980D02*
X131202380Y-71775171D01*
X131202380Y-71775171D02*
X131278571Y-71813266D01*
X130326189Y-71584695D02*
X130249999Y-71584695D01*
X130249999Y-71584695D02*
X130173808Y-71622790D01*
X130173808Y-71622790D02*
X130135713Y-71660885D01*
X130135713Y-71660885D02*
X130097618Y-71737076D01*
X130097618Y-71737076D02*
X130059523Y-71889457D01*
X130059523Y-71889457D02*
X130059523Y-72079933D01*
X130059523Y-72079933D02*
X130097618Y-72232314D01*
X130097618Y-72232314D02*
X130135713Y-72308504D01*
X130135713Y-72308504D02*
X130173808Y-72346600D01*
X130173808Y-72346600D02*
X130249999Y-72384695D01*
X130249999Y-72384695D02*
X130326189Y-72384695D01*
X130326189Y-72384695D02*
X130402380Y-72346600D01*
X130402380Y-72346600D02*
X130440475Y-72308504D01*
X130440475Y-72308504D02*
X130478570Y-72232314D01*
X130478570Y-72232314D02*
X130516666Y-72079933D01*
X130516666Y-72079933D02*
X130516666Y-71889457D01*
X130516666Y-71889457D02*
X130478570Y-71737076D01*
X130478570Y-71737076D02*
X130440475Y-71660885D01*
X130440475Y-71660885D02*
X130402380Y-71622790D01*
X130402380Y-71622790D02*
X130326189Y-71584695D01*
X157059695Y-108205714D02*
X156678742Y-107939047D01*
X157059695Y-107748571D02*
X156259695Y-107748571D01*
X156259695Y-107748571D02*
X156259695Y-108053333D01*
X156259695Y-108053333D02*
X156297790Y-108129523D01*
X156297790Y-108129523D02*
X156335885Y-108167618D01*
X156335885Y-108167618D02*
X156412076Y-108205714D01*
X156412076Y-108205714D02*
X156526361Y-108205714D01*
X156526361Y-108205714D02*
X156602552Y-108167618D01*
X156602552Y-108167618D02*
X156640647Y-108129523D01*
X156640647Y-108129523D02*
X156678742Y-108053333D01*
X156678742Y-108053333D02*
X156678742Y-107748571D01*
X157059695Y-108967618D02*
X157059695Y-108510475D01*
X157059695Y-108739047D02*
X156259695Y-108739047D01*
X156259695Y-108739047D02*
X156373980Y-108662856D01*
X156373980Y-108662856D02*
X156450171Y-108586666D01*
X156450171Y-108586666D02*
X156488266Y-108510475D01*
X156259695Y-109462857D02*
X156259695Y-109539047D01*
X156259695Y-109539047D02*
X156297790Y-109615238D01*
X156297790Y-109615238D02*
X156335885Y-109653333D01*
X156335885Y-109653333D02*
X156412076Y-109691428D01*
X156412076Y-109691428D02*
X156564457Y-109729523D01*
X156564457Y-109729523D02*
X156754933Y-109729523D01*
X156754933Y-109729523D02*
X156907314Y-109691428D01*
X156907314Y-109691428D02*
X156983504Y-109653333D01*
X156983504Y-109653333D02*
X157021600Y-109615238D01*
X157021600Y-109615238D02*
X157059695Y-109539047D01*
X157059695Y-109539047D02*
X157059695Y-109462857D01*
X157059695Y-109462857D02*
X157021600Y-109386666D01*
X157021600Y-109386666D02*
X156983504Y-109348571D01*
X156983504Y-109348571D02*
X156907314Y-109310476D01*
X156907314Y-109310476D02*
X156754933Y-109272380D01*
X156754933Y-109272380D02*
X156564457Y-109272380D01*
X156564457Y-109272380D02*
X156412076Y-109310476D01*
X156412076Y-109310476D02*
X156335885Y-109348571D01*
X156335885Y-109348571D02*
X156297790Y-109386666D01*
X156297790Y-109386666D02*
X156259695Y-109462857D01*
X135394285Y-84193504D02*
X135432381Y-84231600D01*
X135432381Y-84231600D02*
X135546666Y-84269695D01*
X135546666Y-84269695D02*
X135622857Y-84269695D01*
X135622857Y-84269695D02*
X135737143Y-84231600D01*
X135737143Y-84231600D02*
X135813333Y-84155409D01*
X135813333Y-84155409D02*
X135851428Y-84079219D01*
X135851428Y-84079219D02*
X135889524Y-83926838D01*
X135889524Y-83926838D02*
X135889524Y-83812552D01*
X135889524Y-83812552D02*
X135851428Y-83660171D01*
X135851428Y-83660171D02*
X135813333Y-83583980D01*
X135813333Y-83583980D02*
X135737143Y-83507790D01*
X135737143Y-83507790D02*
X135622857Y-83469695D01*
X135622857Y-83469695D02*
X135546666Y-83469695D01*
X135546666Y-83469695D02*
X135432381Y-83507790D01*
X135432381Y-83507790D02*
X135394285Y-83545885D01*
X134708571Y-83736361D02*
X134708571Y-84269695D01*
X134899047Y-83431600D02*
X135089524Y-84003028D01*
X135089524Y-84003028D02*
X134594285Y-84003028D01*
X133908571Y-83469695D02*
X134289523Y-83469695D01*
X134289523Y-83469695D02*
X134327619Y-83850647D01*
X134327619Y-83850647D02*
X134289523Y-83812552D01*
X134289523Y-83812552D02*
X134213333Y-83774457D01*
X134213333Y-83774457D02*
X134022857Y-83774457D01*
X134022857Y-83774457D02*
X133946666Y-83812552D01*
X133946666Y-83812552D02*
X133908571Y-83850647D01*
X133908571Y-83850647D02*
X133870476Y-83926838D01*
X133870476Y-83926838D02*
X133870476Y-84117314D01*
X133870476Y-84117314D02*
X133908571Y-84193504D01*
X133908571Y-84193504D02*
X133946666Y-84231600D01*
X133946666Y-84231600D02*
X134022857Y-84269695D01*
X134022857Y-84269695D02*
X134213333Y-84269695D01*
X134213333Y-84269695D02*
X134289523Y-84231600D01*
X134289523Y-84231600D02*
X134327619Y-84193504D01*
X136963504Y-60885714D02*
X137001600Y-60847618D01*
X137001600Y-60847618D02*
X137039695Y-60733333D01*
X137039695Y-60733333D02*
X137039695Y-60657142D01*
X137039695Y-60657142D02*
X137001600Y-60542856D01*
X137001600Y-60542856D02*
X136925409Y-60466666D01*
X136925409Y-60466666D02*
X136849219Y-60428571D01*
X136849219Y-60428571D02*
X136696838Y-60390475D01*
X136696838Y-60390475D02*
X136582552Y-60390475D01*
X136582552Y-60390475D02*
X136430171Y-60428571D01*
X136430171Y-60428571D02*
X136353980Y-60466666D01*
X136353980Y-60466666D02*
X136277790Y-60542856D01*
X136277790Y-60542856D02*
X136239695Y-60657142D01*
X136239695Y-60657142D02*
X136239695Y-60733333D01*
X136239695Y-60733333D02*
X136277790Y-60847618D01*
X136277790Y-60847618D02*
X136315885Y-60885714D01*
X136582552Y-61342856D02*
X136544457Y-61266666D01*
X136544457Y-61266666D02*
X136506361Y-61228571D01*
X136506361Y-61228571D02*
X136430171Y-61190475D01*
X136430171Y-61190475D02*
X136392076Y-61190475D01*
X136392076Y-61190475D02*
X136315885Y-61228571D01*
X136315885Y-61228571D02*
X136277790Y-61266666D01*
X136277790Y-61266666D02*
X136239695Y-61342856D01*
X136239695Y-61342856D02*
X136239695Y-61495237D01*
X136239695Y-61495237D02*
X136277790Y-61571428D01*
X136277790Y-61571428D02*
X136315885Y-61609523D01*
X136315885Y-61609523D02*
X136392076Y-61647618D01*
X136392076Y-61647618D02*
X136430171Y-61647618D01*
X136430171Y-61647618D02*
X136506361Y-61609523D01*
X136506361Y-61609523D02*
X136544457Y-61571428D01*
X136544457Y-61571428D02*
X136582552Y-61495237D01*
X136582552Y-61495237D02*
X136582552Y-61342856D01*
X136582552Y-61342856D02*
X136620647Y-61266666D01*
X136620647Y-61266666D02*
X136658742Y-61228571D01*
X136658742Y-61228571D02*
X136734933Y-61190475D01*
X136734933Y-61190475D02*
X136887314Y-61190475D01*
X136887314Y-61190475D02*
X136963504Y-61228571D01*
X136963504Y-61228571D02*
X137001600Y-61266666D01*
X137001600Y-61266666D02*
X137039695Y-61342856D01*
X137039695Y-61342856D02*
X137039695Y-61495237D01*
X137039695Y-61495237D02*
X137001600Y-61571428D01*
X137001600Y-61571428D02*
X136963504Y-61609523D01*
X136963504Y-61609523D02*
X136887314Y-61647618D01*
X136887314Y-61647618D02*
X136734933Y-61647618D01*
X136734933Y-61647618D02*
X136658742Y-61609523D01*
X136658742Y-61609523D02*
X136620647Y-61571428D01*
X136620647Y-61571428D02*
X136582552Y-61495237D01*
X136239695Y-61914285D02*
X136239695Y-62409523D01*
X136239695Y-62409523D02*
X136544457Y-62142857D01*
X136544457Y-62142857D02*
X136544457Y-62257142D01*
X136544457Y-62257142D02*
X136582552Y-62333333D01*
X136582552Y-62333333D02*
X136620647Y-62371428D01*
X136620647Y-62371428D02*
X136696838Y-62409523D01*
X136696838Y-62409523D02*
X136887314Y-62409523D01*
X136887314Y-62409523D02*
X136963504Y-62371428D01*
X136963504Y-62371428D02*
X137001600Y-62333333D01*
X137001600Y-62333333D02*
X137039695Y-62257142D01*
X137039695Y-62257142D02*
X137039695Y-62028571D01*
X137039695Y-62028571D02*
X137001600Y-61952380D01*
X137001600Y-61952380D02*
X136963504Y-61914285D01*
D10*
X155914285Y-80936104D02*
X155952381Y-80974200D01*
X155952381Y-80974200D02*
X156066666Y-81012295D01*
X156066666Y-81012295D02*
X156142857Y-81012295D01*
X156142857Y-81012295D02*
X156257143Y-80974200D01*
X156257143Y-80974200D02*
X156333333Y-80898009D01*
X156333333Y-80898009D02*
X156371428Y-80821819D01*
X156371428Y-80821819D02*
X156409524Y-80669438D01*
X156409524Y-80669438D02*
X156409524Y-80555152D01*
X156409524Y-80555152D02*
X156371428Y-80402771D01*
X156371428Y-80402771D02*
X156333333Y-80326580D01*
X156333333Y-80326580D02*
X156257143Y-80250390D01*
X156257143Y-80250390D02*
X156142857Y-80212295D01*
X156142857Y-80212295D02*
X156066666Y-80212295D01*
X156066666Y-80212295D02*
X155952381Y-80250390D01*
X155952381Y-80250390D02*
X155914285Y-80288485D01*
X155609524Y-80288485D02*
X155571428Y-80250390D01*
X155571428Y-80250390D02*
X155495238Y-80212295D01*
X155495238Y-80212295D02*
X155304762Y-80212295D01*
X155304762Y-80212295D02*
X155228571Y-80250390D01*
X155228571Y-80250390D02*
X155190476Y-80288485D01*
X155190476Y-80288485D02*
X155152381Y-80364676D01*
X155152381Y-80364676D02*
X155152381Y-80440866D01*
X155152381Y-80440866D02*
X155190476Y-80555152D01*
X155190476Y-80555152D02*
X155647619Y-81012295D01*
X155647619Y-81012295D02*
X155152381Y-81012295D01*
X154428571Y-80212295D02*
X154809523Y-80212295D01*
X154809523Y-80212295D02*
X154847619Y-80593247D01*
X154847619Y-80593247D02*
X154809523Y-80555152D01*
X154809523Y-80555152D02*
X154733333Y-80517057D01*
X154733333Y-80517057D02*
X154542857Y-80517057D01*
X154542857Y-80517057D02*
X154466666Y-80555152D01*
X154466666Y-80555152D02*
X154428571Y-80593247D01*
X154428571Y-80593247D02*
X154390476Y-80669438D01*
X154390476Y-80669438D02*
X154390476Y-80859914D01*
X154390476Y-80859914D02*
X154428571Y-80936104D01*
X154428571Y-80936104D02*
X154466666Y-80974200D01*
X154466666Y-80974200D02*
X154542857Y-81012295D01*
X154542857Y-81012295D02*
X154733333Y-81012295D01*
X154733333Y-81012295D02*
X154809523Y-80974200D01*
X154809523Y-80974200D02*
X154847619Y-80936104D01*
D11*
X141034285Y-57449695D02*
X141300952Y-57068742D01*
X141491428Y-57449695D02*
X141491428Y-56649695D01*
X141491428Y-56649695D02*
X141186666Y-56649695D01*
X141186666Y-56649695D02*
X141110476Y-56687790D01*
X141110476Y-56687790D02*
X141072381Y-56725885D01*
X141072381Y-56725885D02*
X141034285Y-56802076D01*
X141034285Y-56802076D02*
X141034285Y-56916361D01*
X141034285Y-56916361D02*
X141072381Y-56992552D01*
X141072381Y-56992552D02*
X141110476Y-57030647D01*
X141110476Y-57030647D02*
X141186666Y-57068742D01*
X141186666Y-57068742D02*
X141491428Y-57068742D01*
X140348571Y-56916361D02*
X140348571Y-57449695D01*
X140539047Y-56611600D02*
X140729524Y-57183028D01*
X140729524Y-57183028D02*
X140234285Y-57183028D01*
X140005714Y-56649695D02*
X139472380Y-56649695D01*
X139472380Y-56649695D02*
X139815238Y-57449695D01*
X167866666Y-49984695D02*
X167866666Y-50556123D01*
X167866666Y-50556123D02*
X167904761Y-50670409D01*
X167904761Y-50670409D02*
X167980952Y-50746600D01*
X167980952Y-50746600D02*
X168095237Y-50784695D01*
X168095237Y-50784695D02*
X168171428Y-50784695D01*
X167066666Y-50784695D02*
X167523809Y-50784695D01*
X167295237Y-50784695D02*
X167295237Y-49984695D01*
X167295237Y-49984695D02*
X167371428Y-50098980D01*
X167371428Y-50098980D02*
X167447618Y-50175171D01*
X167447618Y-50175171D02*
X167523809Y-50213266D01*
X147173504Y-60565714D02*
X147211600Y-60527618D01*
X147211600Y-60527618D02*
X147249695Y-60413333D01*
X147249695Y-60413333D02*
X147249695Y-60337142D01*
X147249695Y-60337142D02*
X147211600Y-60222856D01*
X147211600Y-60222856D02*
X147135409Y-60146666D01*
X147135409Y-60146666D02*
X147059219Y-60108571D01*
X147059219Y-60108571D02*
X146906838Y-60070475D01*
X146906838Y-60070475D02*
X146792552Y-60070475D01*
X146792552Y-60070475D02*
X146640171Y-60108571D01*
X146640171Y-60108571D02*
X146563980Y-60146666D01*
X146563980Y-60146666D02*
X146487790Y-60222856D01*
X146487790Y-60222856D02*
X146449695Y-60337142D01*
X146449695Y-60337142D02*
X146449695Y-60413333D01*
X146449695Y-60413333D02*
X146487790Y-60527618D01*
X146487790Y-60527618D02*
X146525885Y-60565714D01*
X146449695Y-60832380D02*
X146449695Y-61365714D01*
X146449695Y-61365714D02*
X147249695Y-61022856D01*
X147249695Y-61708571D02*
X147249695Y-61860952D01*
X147249695Y-61860952D02*
X147211600Y-61937142D01*
X147211600Y-61937142D02*
X147173504Y-61975238D01*
X147173504Y-61975238D02*
X147059219Y-62051428D01*
X147059219Y-62051428D02*
X146906838Y-62089523D01*
X146906838Y-62089523D02*
X146602076Y-62089523D01*
X146602076Y-62089523D02*
X146525885Y-62051428D01*
X146525885Y-62051428D02*
X146487790Y-62013333D01*
X146487790Y-62013333D02*
X146449695Y-61937142D01*
X146449695Y-61937142D02*
X146449695Y-61784761D01*
X146449695Y-61784761D02*
X146487790Y-61708571D01*
X146487790Y-61708571D02*
X146525885Y-61670476D01*
X146525885Y-61670476D02*
X146602076Y-61632380D01*
X146602076Y-61632380D02*
X146792552Y-61632380D01*
X146792552Y-61632380D02*
X146868742Y-61670476D01*
X146868742Y-61670476D02*
X146906838Y-61708571D01*
X146906838Y-61708571D02*
X146944933Y-61784761D01*
X146944933Y-61784761D02*
X146944933Y-61937142D01*
X146944933Y-61937142D02*
X146906838Y-62013333D01*
X146906838Y-62013333D02*
X146868742Y-62051428D01*
X146868742Y-62051428D02*
X146792552Y-62089523D01*
D10*
X147511104Y-71135714D02*
X147549200Y-71097618D01*
X147549200Y-71097618D02*
X147587295Y-70983333D01*
X147587295Y-70983333D02*
X147587295Y-70907142D01*
X147587295Y-70907142D02*
X147549200Y-70792856D01*
X147549200Y-70792856D02*
X147473009Y-70716666D01*
X147473009Y-70716666D02*
X147396819Y-70678571D01*
X147396819Y-70678571D02*
X147244438Y-70640475D01*
X147244438Y-70640475D02*
X147130152Y-70640475D01*
X147130152Y-70640475D02*
X146977771Y-70678571D01*
X146977771Y-70678571D02*
X146901580Y-70716666D01*
X146901580Y-70716666D02*
X146825390Y-70792856D01*
X146825390Y-70792856D02*
X146787295Y-70907142D01*
X146787295Y-70907142D02*
X146787295Y-70983333D01*
X146787295Y-70983333D02*
X146825390Y-71097618D01*
X146825390Y-71097618D02*
X146863485Y-71135714D01*
X146863485Y-71440475D02*
X146825390Y-71478571D01*
X146825390Y-71478571D02*
X146787295Y-71554761D01*
X146787295Y-71554761D02*
X146787295Y-71745237D01*
X146787295Y-71745237D02*
X146825390Y-71821428D01*
X146825390Y-71821428D02*
X146863485Y-71859523D01*
X146863485Y-71859523D02*
X146939676Y-71897618D01*
X146939676Y-71897618D02*
X147015866Y-71897618D01*
X147015866Y-71897618D02*
X147130152Y-71859523D01*
X147130152Y-71859523D02*
X147587295Y-71402380D01*
X147587295Y-71402380D02*
X147587295Y-71897618D01*
X146787295Y-72392857D02*
X146787295Y-72469047D01*
X146787295Y-72469047D02*
X146825390Y-72545238D01*
X146825390Y-72545238D02*
X146863485Y-72583333D01*
X146863485Y-72583333D02*
X146939676Y-72621428D01*
X146939676Y-72621428D02*
X147092057Y-72659523D01*
X147092057Y-72659523D02*
X147282533Y-72659523D01*
X147282533Y-72659523D02*
X147434914Y-72621428D01*
X147434914Y-72621428D02*
X147511104Y-72583333D01*
X147511104Y-72583333D02*
X147549200Y-72545238D01*
X147549200Y-72545238D02*
X147587295Y-72469047D01*
X147587295Y-72469047D02*
X147587295Y-72392857D01*
X147587295Y-72392857D02*
X147549200Y-72316666D01*
X147549200Y-72316666D02*
X147511104Y-72278571D01*
X147511104Y-72278571D02*
X147434914Y-72240476D01*
X147434914Y-72240476D02*
X147282533Y-72202380D01*
X147282533Y-72202380D02*
X147092057Y-72202380D01*
X147092057Y-72202380D02*
X146939676Y-72240476D01*
X146939676Y-72240476D02*
X146863485Y-72278571D01*
X146863485Y-72278571D02*
X146825390Y-72316666D01*
X146825390Y-72316666D02*
X146787295Y-72392857D01*
D11*
X144764285Y-66843504D02*
X144802381Y-66881600D01*
X144802381Y-66881600D02*
X144916666Y-66919695D01*
X144916666Y-66919695D02*
X144992857Y-66919695D01*
X144992857Y-66919695D02*
X145107143Y-66881600D01*
X145107143Y-66881600D02*
X145183333Y-66805409D01*
X145183333Y-66805409D02*
X145221428Y-66729219D01*
X145221428Y-66729219D02*
X145259524Y-66576838D01*
X145259524Y-66576838D02*
X145259524Y-66462552D01*
X145259524Y-66462552D02*
X145221428Y-66310171D01*
X145221428Y-66310171D02*
X145183333Y-66233980D01*
X145183333Y-66233980D02*
X145107143Y-66157790D01*
X145107143Y-66157790D02*
X144992857Y-66119695D01*
X144992857Y-66119695D02*
X144916666Y-66119695D01*
X144916666Y-66119695D02*
X144802381Y-66157790D01*
X144802381Y-66157790D02*
X144764285Y-66195885D01*
X144078571Y-66386361D02*
X144078571Y-66919695D01*
X144269047Y-66081600D02*
X144459524Y-66653028D01*
X144459524Y-66653028D02*
X143964285Y-66653028D01*
X143697619Y-66195885D02*
X143659523Y-66157790D01*
X143659523Y-66157790D02*
X143583333Y-66119695D01*
X143583333Y-66119695D02*
X143392857Y-66119695D01*
X143392857Y-66119695D02*
X143316666Y-66157790D01*
X143316666Y-66157790D02*
X143278571Y-66195885D01*
X143278571Y-66195885D02*
X143240476Y-66272076D01*
X143240476Y-66272076D02*
X143240476Y-66348266D01*
X143240476Y-66348266D02*
X143278571Y-66462552D01*
X143278571Y-66462552D02*
X143735714Y-66919695D01*
X143735714Y-66919695D02*
X143240476Y-66919695D01*
X150200504Y-89085714D02*
X150238600Y-89047618D01*
X150238600Y-89047618D02*
X150276695Y-88933333D01*
X150276695Y-88933333D02*
X150276695Y-88857142D01*
X150276695Y-88857142D02*
X150238600Y-88742856D01*
X150238600Y-88742856D02*
X150162409Y-88666666D01*
X150162409Y-88666666D02*
X150086219Y-88628571D01*
X150086219Y-88628571D02*
X149933838Y-88590475D01*
X149933838Y-88590475D02*
X149819552Y-88590475D01*
X149819552Y-88590475D02*
X149667171Y-88628571D01*
X149667171Y-88628571D02*
X149590980Y-88666666D01*
X149590980Y-88666666D02*
X149514790Y-88742856D01*
X149514790Y-88742856D02*
X149476695Y-88857142D01*
X149476695Y-88857142D02*
X149476695Y-88933333D01*
X149476695Y-88933333D02*
X149514790Y-89047618D01*
X149514790Y-89047618D02*
X149552885Y-89085714D01*
X149743361Y-89771428D02*
X150276695Y-89771428D01*
X149438600Y-89580952D02*
X150010028Y-89390475D01*
X150010028Y-89390475D02*
X150010028Y-89885714D01*
X149819552Y-90304761D02*
X149781457Y-90228571D01*
X149781457Y-90228571D02*
X149743361Y-90190476D01*
X149743361Y-90190476D02*
X149667171Y-90152380D01*
X149667171Y-90152380D02*
X149629076Y-90152380D01*
X149629076Y-90152380D02*
X149552885Y-90190476D01*
X149552885Y-90190476D02*
X149514790Y-90228571D01*
X149514790Y-90228571D02*
X149476695Y-90304761D01*
X149476695Y-90304761D02*
X149476695Y-90457142D01*
X149476695Y-90457142D02*
X149514790Y-90533333D01*
X149514790Y-90533333D02*
X149552885Y-90571428D01*
X149552885Y-90571428D02*
X149629076Y-90609523D01*
X149629076Y-90609523D02*
X149667171Y-90609523D01*
X149667171Y-90609523D02*
X149743361Y-90571428D01*
X149743361Y-90571428D02*
X149781457Y-90533333D01*
X149781457Y-90533333D02*
X149819552Y-90457142D01*
X149819552Y-90457142D02*
X149819552Y-90304761D01*
X149819552Y-90304761D02*
X149857647Y-90228571D01*
X149857647Y-90228571D02*
X149895742Y-90190476D01*
X149895742Y-90190476D02*
X149971933Y-90152380D01*
X149971933Y-90152380D02*
X150124314Y-90152380D01*
X150124314Y-90152380D02*
X150200504Y-90190476D01*
X150200504Y-90190476D02*
X150238600Y-90228571D01*
X150238600Y-90228571D02*
X150276695Y-90304761D01*
X150276695Y-90304761D02*
X150276695Y-90457142D01*
X150276695Y-90457142D02*
X150238600Y-90533333D01*
X150238600Y-90533333D02*
X150200504Y-90571428D01*
X150200504Y-90571428D02*
X150124314Y-90609523D01*
X150124314Y-90609523D02*
X149971933Y-90609523D01*
X149971933Y-90609523D02*
X149895742Y-90571428D01*
X149895742Y-90571428D02*
X149857647Y-90533333D01*
X149857647Y-90533333D02*
X149819552Y-90457142D01*
D10*
X147461104Y-83110714D02*
X147499200Y-83072618D01*
X147499200Y-83072618D02*
X147537295Y-82958333D01*
X147537295Y-82958333D02*
X147537295Y-82882142D01*
X147537295Y-82882142D02*
X147499200Y-82767856D01*
X147499200Y-82767856D02*
X147423009Y-82691666D01*
X147423009Y-82691666D02*
X147346819Y-82653571D01*
X147346819Y-82653571D02*
X147194438Y-82615475D01*
X147194438Y-82615475D02*
X147080152Y-82615475D01*
X147080152Y-82615475D02*
X146927771Y-82653571D01*
X146927771Y-82653571D02*
X146851580Y-82691666D01*
X146851580Y-82691666D02*
X146775390Y-82767856D01*
X146775390Y-82767856D02*
X146737295Y-82882142D01*
X146737295Y-82882142D02*
X146737295Y-82958333D01*
X146737295Y-82958333D02*
X146775390Y-83072618D01*
X146775390Y-83072618D02*
X146813485Y-83110714D01*
X147537295Y-83872618D02*
X147537295Y-83415475D01*
X147537295Y-83644047D02*
X146737295Y-83644047D01*
X146737295Y-83644047D02*
X146851580Y-83567856D01*
X146851580Y-83567856D02*
X146927771Y-83491666D01*
X146927771Y-83491666D02*
X146965866Y-83415475D01*
X147537295Y-84634523D02*
X147537295Y-84177380D01*
X147537295Y-84405952D02*
X146737295Y-84405952D01*
X146737295Y-84405952D02*
X146851580Y-84329761D01*
X146851580Y-84329761D02*
X146927771Y-84253571D01*
X146927771Y-84253571D02*
X146965866Y-84177380D01*
D11*
X125377727Y-111096834D02*
X125377727Y-111668262D01*
X125377727Y-111668262D02*
X125415822Y-111782548D01*
X125415822Y-111782548D02*
X125492013Y-111858739D01*
X125492013Y-111858739D02*
X125606298Y-111896834D01*
X125606298Y-111896834D02*
X125682489Y-111896834D01*
X125034870Y-111173024D02*
X124996774Y-111134929D01*
X124996774Y-111134929D02*
X124920584Y-111096834D01*
X124920584Y-111096834D02*
X124730108Y-111096834D01*
X124730108Y-111096834D02*
X124653917Y-111134929D01*
X124653917Y-111134929D02*
X124615822Y-111173024D01*
X124615822Y-111173024D02*
X124577727Y-111249215D01*
X124577727Y-111249215D02*
X124577727Y-111325405D01*
X124577727Y-111325405D02*
X124615822Y-111439691D01*
X124615822Y-111439691D02*
X125072965Y-111896834D01*
X125072965Y-111896834D02*
X124577727Y-111896834D01*
X148293504Y-63875714D02*
X148331600Y-63837618D01*
X148331600Y-63837618D02*
X148369695Y-63723333D01*
X148369695Y-63723333D02*
X148369695Y-63647142D01*
X148369695Y-63647142D02*
X148331600Y-63532856D01*
X148331600Y-63532856D02*
X148255409Y-63456666D01*
X148255409Y-63456666D02*
X148179219Y-63418571D01*
X148179219Y-63418571D02*
X148026838Y-63380475D01*
X148026838Y-63380475D02*
X147912552Y-63380475D01*
X147912552Y-63380475D02*
X147760171Y-63418571D01*
X147760171Y-63418571D02*
X147683980Y-63456666D01*
X147683980Y-63456666D02*
X147607790Y-63532856D01*
X147607790Y-63532856D02*
X147569695Y-63647142D01*
X147569695Y-63647142D02*
X147569695Y-63723333D01*
X147569695Y-63723333D02*
X147607790Y-63837618D01*
X147607790Y-63837618D02*
X147645885Y-63875714D01*
X147836361Y-64561428D02*
X148369695Y-64561428D01*
X147531600Y-64370952D02*
X148103028Y-64180475D01*
X148103028Y-64180475D02*
X148103028Y-64675714D01*
X148369695Y-65399523D02*
X148369695Y-64942380D01*
X148369695Y-65170952D02*
X147569695Y-65170952D01*
X147569695Y-65170952D02*
X147683980Y-65094761D01*
X147683980Y-65094761D02*
X147760171Y-65018571D01*
X147760171Y-65018571D02*
X147798266Y-64942380D01*
D10*
X141964285Y-79661104D02*
X142002381Y-79699200D01*
X142002381Y-79699200D02*
X142116666Y-79737295D01*
X142116666Y-79737295D02*
X142192857Y-79737295D01*
X142192857Y-79737295D02*
X142307143Y-79699200D01*
X142307143Y-79699200D02*
X142383333Y-79623009D01*
X142383333Y-79623009D02*
X142421428Y-79546819D01*
X142421428Y-79546819D02*
X142459524Y-79394438D01*
X142459524Y-79394438D02*
X142459524Y-79280152D01*
X142459524Y-79280152D02*
X142421428Y-79127771D01*
X142421428Y-79127771D02*
X142383333Y-79051580D01*
X142383333Y-79051580D02*
X142307143Y-78975390D01*
X142307143Y-78975390D02*
X142192857Y-78937295D01*
X142192857Y-78937295D02*
X142116666Y-78937295D01*
X142116666Y-78937295D02*
X142002381Y-78975390D01*
X142002381Y-78975390D02*
X141964285Y-79013485D01*
X141202381Y-79737295D02*
X141659524Y-79737295D01*
X141430952Y-79737295D02*
X141430952Y-78937295D01*
X141430952Y-78937295D02*
X141507143Y-79051580D01*
X141507143Y-79051580D02*
X141583333Y-79127771D01*
X141583333Y-79127771D02*
X141659524Y-79165866D01*
X140478571Y-78937295D02*
X140859523Y-78937295D01*
X140859523Y-78937295D02*
X140897619Y-79318247D01*
X140897619Y-79318247D02*
X140859523Y-79280152D01*
X140859523Y-79280152D02*
X140783333Y-79242057D01*
X140783333Y-79242057D02*
X140592857Y-79242057D01*
X140592857Y-79242057D02*
X140516666Y-79280152D01*
X140516666Y-79280152D02*
X140478571Y-79318247D01*
X140478571Y-79318247D02*
X140440476Y-79394438D01*
X140440476Y-79394438D02*
X140440476Y-79584914D01*
X140440476Y-79584914D02*
X140478571Y-79661104D01*
X140478571Y-79661104D02*
X140516666Y-79699200D01*
X140516666Y-79699200D02*
X140592857Y-79737295D01*
X140592857Y-79737295D02*
X140783333Y-79737295D01*
X140783333Y-79737295D02*
X140859523Y-79699200D01*
X140859523Y-79699200D02*
X140897619Y-79661104D01*
X151508332Y-79511104D02*
X151546428Y-79549200D01*
X151546428Y-79549200D02*
X151660713Y-79587295D01*
X151660713Y-79587295D02*
X151736904Y-79587295D01*
X151736904Y-79587295D02*
X151851190Y-79549200D01*
X151851190Y-79549200D02*
X151927380Y-79473009D01*
X151927380Y-79473009D02*
X151965475Y-79396819D01*
X151965475Y-79396819D02*
X152003571Y-79244438D01*
X152003571Y-79244438D02*
X152003571Y-79130152D01*
X152003571Y-79130152D02*
X151965475Y-78977771D01*
X151965475Y-78977771D02*
X151927380Y-78901580D01*
X151927380Y-78901580D02*
X151851190Y-78825390D01*
X151851190Y-78825390D02*
X151736904Y-78787295D01*
X151736904Y-78787295D02*
X151660713Y-78787295D01*
X151660713Y-78787295D02*
X151546428Y-78825390D01*
X151546428Y-78825390D02*
X151508332Y-78863485D01*
X151051190Y-79130152D02*
X151127380Y-79092057D01*
X151127380Y-79092057D02*
X151165475Y-79053961D01*
X151165475Y-79053961D02*
X151203571Y-78977771D01*
X151203571Y-78977771D02*
X151203571Y-78939676D01*
X151203571Y-78939676D02*
X151165475Y-78863485D01*
X151165475Y-78863485D02*
X151127380Y-78825390D01*
X151127380Y-78825390D02*
X151051190Y-78787295D01*
X151051190Y-78787295D02*
X150898809Y-78787295D01*
X150898809Y-78787295D02*
X150822618Y-78825390D01*
X150822618Y-78825390D02*
X150784523Y-78863485D01*
X150784523Y-78863485D02*
X150746428Y-78939676D01*
X150746428Y-78939676D02*
X150746428Y-78977771D01*
X150746428Y-78977771D02*
X150784523Y-79053961D01*
X150784523Y-79053961D02*
X150822618Y-79092057D01*
X150822618Y-79092057D02*
X150898809Y-79130152D01*
X150898809Y-79130152D02*
X151051190Y-79130152D01*
X151051190Y-79130152D02*
X151127380Y-79168247D01*
X151127380Y-79168247D02*
X151165475Y-79206342D01*
X151165475Y-79206342D02*
X151203571Y-79282533D01*
X151203571Y-79282533D02*
X151203571Y-79434914D01*
X151203571Y-79434914D02*
X151165475Y-79511104D01*
X151165475Y-79511104D02*
X151127380Y-79549200D01*
X151127380Y-79549200D02*
X151051190Y-79587295D01*
X151051190Y-79587295D02*
X150898809Y-79587295D01*
X150898809Y-79587295D02*
X150822618Y-79549200D01*
X150822618Y-79549200D02*
X150784523Y-79511104D01*
X150784523Y-79511104D02*
X150746428Y-79434914D01*
X150746428Y-79434914D02*
X150746428Y-79282533D01*
X150746428Y-79282533D02*
X150784523Y-79206342D01*
X150784523Y-79206342D02*
X150822618Y-79168247D01*
X150822618Y-79168247D02*
X150898809Y-79130152D01*
D11*
X135734285Y-79403504D02*
X135772381Y-79441600D01*
X135772381Y-79441600D02*
X135886666Y-79479695D01*
X135886666Y-79479695D02*
X135962857Y-79479695D01*
X135962857Y-79479695D02*
X136077143Y-79441600D01*
X136077143Y-79441600D02*
X136153333Y-79365409D01*
X136153333Y-79365409D02*
X136191428Y-79289219D01*
X136191428Y-79289219D02*
X136229524Y-79136838D01*
X136229524Y-79136838D02*
X136229524Y-79022552D01*
X136229524Y-79022552D02*
X136191428Y-78870171D01*
X136191428Y-78870171D02*
X136153333Y-78793980D01*
X136153333Y-78793980D02*
X136077143Y-78717790D01*
X136077143Y-78717790D02*
X135962857Y-78679695D01*
X135962857Y-78679695D02*
X135886666Y-78679695D01*
X135886666Y-78679695D02*
X135772381Y-78717790D01*
X135772381Y-78717790D02*
X135734285Y-78755885D01*
X135048571Y-78946361D02*
X135048571Y-79479695D01*
X135239047Y-78641600D02*
X135429524Y-79213028D01*
X135429524Y-79213028D02*
X134934285Y-79213028D01*
X134286666Y-78946361D02*
X134286666Y-79479695D01*
X134477142Y-78641600D02*
X134667619Y-79213028D01*
X134667619Y-79213028D02*
X134172380Y-79213028D01*
X166739695Y-64960714D02*
X166358742Y-64694047D01*
X166739695Y-64503571D02*
X165939695Y-64503571D01*
X165939695Y-64503571D02*
X165939695Y-64808333D01*
X165939695Y-64808333D02*
X165977790Y-64884523D01*
X165977790Y-64884523D02*
X166015885Y-64922618D01*
X166015885Y-64922618D02*
X166092076Y-64960714D01*
X166092076Y-64960714D02*
X166206361Y-64960714D01*
X166206361Y-64960714D02*
X166282552Y-64922618D01*
X166282552Y-64922618D02*
X166320647Y-64884523D01*
X166320647Y-64884523D02*
X166358742Y-64808333D01*
X166358742Y-64808333D02*
X166358742Y-64503571D01*
X165939695Y-65227380D02*
X165939695Y-65722618D01*
X165939695Y-65722618D02*
X166244457Y-65455952D01*
X166244457Y-65455952D02*
X166244457Y-65570237D01*
X166244457Y-65570237D02*
X166282552Y-65646428D01*
X166282552Y-65646428D02*
X166320647Y-65684523D01*
X166320647Y-65684523D02*
X166396838Y-65722618D01*
X166396838Y-65722618D02*
X166587314Y-65722618D01*
X166587314Y-65722618D02*
X166663504Y-65684523D01*
X166663504Y-65684523D02*
X166701600Y-65646428D01*
X166701600Y-65646428D02*
X166739695Y-65570237D01*
X166739695Y-65570237D02*
X166739695Y-65341666D01*
X166739695Y-65341666D02*
X166701600Y-65265475D01*
X166701600Y-65265475D02*
X166663504Y-65227380D01*
X165939695Y-66446428D02*
X165939695Y-66065476D01*
X165939695Y-66065476D02*
X166320647Y-66027380D01*
X166320647Y-66027380D02*
X166282552Y-66065476D01*
X166282552Y-66065476D02*
X166244457Y-66141666D01*
X166244457Y-66141666D02*
X166244457Y-66332142D01*
X166244457Y-66332142D02*
X166282552Y-66408333D01*
X166282552Y-66408333D02*
X166320647Y-66446428D01*
X166320647Y-66446428D02*
X166396838Y-66484523D01*
X166396838Y-66484523D02*
X166587314Y-66484523D01*
X166587314Y-66484523D02*
X166663504Y-66446428D01*
X166663504Y-66446428D02*
X166701600Y-66408333D01*
X166701600Y-66408333D02*
X166739695Y-66332142D01*
X166739695Y-66332142D02*
X166739695Y-66141666D01*
X166739695Y-66141666D02*
X166701600Y-66065476D01*
X166701600Y-66065476D02*
X166663504Y-66027380D01*
D10*
X146561104Y-71085714D02*
X146599200Y-71047618D01*
X146599200Y-71047618D02*
X146637295Y-70933333D01*
X146637295Y-70933333D02*
X146637295Y-70857142D01*
X146637295Y-70857142D02*
X146599200Y-70742856D01*
X146599200Y-70742856D02*
X146523009Y-70666666D01*
X146523009Y-70666666D02*
X146446819Y-70628571D01*
X146446819Y-70628571D02*
X146294438Y-70590475D01*
X146294438Y-70590475D02*
X146180152Y-70590475D01*
X146180152Y-70590475D02*
X146027771Y-70628571D01*
X146027771Y-70628571D02*
X145951580Y-70666666D01*
X145951580Y-70666666D02*
X145875390Y-70742856D01*
X145875390Y-70742856D02*
X145837295Y-70857142D01*
X145837295Y-70857142D02*
X145837295Y-70933333D01*
X145837295Y-70933333D02*
X145875390Y-71047618D01*
X145875390Y-71047618D02*
X145913485Y-71085714D01*
X146637295Y-71847618D02*
X146637295Y-71390475D01*
X146637295Y-71619047D02*
X145837295Y-71619047D01*
X145837295Y-71619047D02*
X145951580Y-71542856D01*
X145951580Y-71542856D02*
X146027771Y-71466666D01*
X146027771Y-71466666D02*
X146065866Y-71390475D01*
X146180152Y-72304761D02*
X146142057Y-72228571D01*
X146142057Y-72228571D02*
X146103961Y-72190476D01*
X146103961Y-72190476D02*
X146027771Y-72152380D01*
X146027771Y-72152380D02*
X145989676Y-72152380D01*
X145989676Y-72152380D02*
X145913485Y-72190476D01*
X145913485Y-72190476D02*
X145875390Y-72228571D01*
X145875390Y-72228571D02*
X145837295Y-72304761D01*
X145837295Y-72304761D02*
X145837295Y-72457142D01*
X145837295Y-72457142D02*
X145875390Y-72533333D01*
X145875390Y-72533333D02*
X145913485Y-72571428D01*
X145913485Y-72571428D02*
X145989676Y-72609523D01*
X145989676Y-72609523D02*
X146027771Y-72609523D01*
X146027771Y-72609523D02*
X146103961Y-72571428D01*
X146103961Y-72571428D02*
X146142057Y-72533333D01*
X146142057Y-72533333D02*
X146180152Y-72457142D01*
X146180152Y-72457142D02*
X146180152Y-72304761D01*
X146180152Y-72304761D02*
X146218247Y-72228571D01*
X146218247Y-72228571D02*
X146256342Y-72190476D01*
X146256342Y-72190476D02*
X146332533Y-72152380D01*
X146332533Y-72152380D02*
X146484914Y-72152380D01*
X146484914Y-72152380D02*
X146561104Y-72190476D01*
X146561104Y-72190476D02*
X146599200Y-72228571D01*
X146599200Y-72228571D02*
X146637295Y-72304761D01*
X146637295Y-72304761D02*
X146637295Y-72457142D01*
X146637295Y-72457142D02*
X146599200Y-72533333D01*
X146599200Y-72533333D02*
X146561104Y-72571428D01*
X146561104Y-72571428D02*
X146484914Y-72609523D01*
X146484914Y-72609523D02*
X146332533Y-72609523D01*
X146332533Y-72609523D02*
X146256342Y-72571428D01*
X146256342Y-72571428D02*
X146218247Y-72533333D01*
X146218247Y-72533333D02*
X146180152Y-72457142D01*
D11*
X138514285Y-84159695D02*
X138780952Y-83778742D01*
X138971428Y-84159695D02*
X138971428Y-83359695D01*
X138971428Y-83359695D02*
X138666666Y-83359695D01*
X138666666Y-83359695D02*
X138590476Y-83397790D01*
X138590476Y-83397790D02*
X138552381Y-83435885D01*
X138552381Y-83435885D02*
X138514285Y-83512076D01*
X138514285Y-83512076D02*
X138514285Y-83626361D01*
X138514285Y-83626361D02*
X138552381Y-83702552D01*
X138552381Y-83702552D02*
X138590476Y-83740647D01*
X138590476Y-83740647D02*
X138666666Y-83778742D01*
X138666666Y-83778742D02*
X138971428Y-83778742D01*
X137752381Y-84159695D02*
X138209524Y-84159695D01*
X137980952Y-84159695D02*
X137980952Y-83359695D01*
X137980952Y-83359695D02*
X138057143Y-83473980D01*
X138057143Y-83473980D02*
X138133333Y-83550171D01*
X138133333Y-83550171D02*
X138209524Y-83588266D01*
X137371428Y-84159695D02*
X137219047Y-84159695D01*
X137219047Y-84159695D02*
X137142857Y-84121600D01*
X137142857Y-84121600D02*
X137104761Y-84083504D01*
X137104761Y-84083504D02*
X137028571Y-83969219D01*
X137028571Y-83969219D02*
X136990476Y-83816838D01*
X136990476Y-83816838D02*
X136990476Y-83512076D01*
X136990476Y-83512076D02*
X137028571Y-83435885D01*
X137028571Y-83435885D02*
X137066666Y-83397790D01*
X137066666Y-83397790D02*
X137142857Y-83359695D01*
X137142857Y-83359695D02*
X137295238Y-83359695D01*
X137295238Y-83359695D02*
X137371428Y-83397790D01*
X137371428Y-83397790D02*
X137409523Y-83435885D01*
X137409523Y-83435885D02*
X137447619Y-83512076D01*
X137447619Y-83512076D02*
X137447619Y-83702552D01*
X137447619Y-83702552D02*
X137409523Y-83778742D01*
X137409523Y-83778742D02*
X137371428Y-83816838D01*
X137371428Y-83816838D02*
X137295238Y-83854933D01*
X137295238Y-83854933D02*
X137142857Y-83854933D01*
X137142857Y-83854933D02*
X137066666Y-83816838D01*
X137066666Y-83816838D02*
X137028571Y-83778742D01*
X137028571Y-83778742D02*
X136990476Y-83702552D01*
X136983504Y-64005714D02*
X137021600Y-63967618D01*
X137021600Y-63967618D02*
X137059695Y-63853333D01*
X137059695Y-63853333D02*
X137059695Y-63777142D01*
X137059695Y-63777142D02*
X137021600Y-63662856D01*
X137021600Y-63662856D02*
X136945409Y-63586666D01*
X136945409Y-63586666D02*
X136869219Y-63548571D01*
X136869219Y-63548571D02*
X136716838Y-63510475D01*
X136716838Y-63510475D02*
X136602552Y-63510475D01*
X136602552Y-63510475D02*
X136450171Y-63548571D01*
X136450171Y-63548571D02*
X136373980Y-63586666D01*
X136373980Y-63586666D02*
X136297790Y-63662856D01*
X136297790Y-63662856D02*
X136259695Y-63777142D01*
X136259695Y-63777142D02*
X136259695Y-63853333D01*
X136259695Y-63853333D02*
X136297790Y-63967618D01*
X136297790Y-63967618D02*
X136335885Y-64005714D01*
X136602552Y-64462856D02*
X136564457Y-64386666D01*
X136564457Y-64386666D02*
X136526361Y-64348571D01*
X136526361Y-64348571D02*
X136450171Y-64310475D01*
X136450171Y-64310475D02*
X136412076Y-64310475D01*
X136412076Y-64310475D02*
X136335885Y-64348571D01*
X136335885Y-64348571D02*
X136297790Y-64386666D01*
X136297790Y-64386666D02*
X136259695Y-64462856D01*
X136259695Y-64462856D02*
X136259695Y-64615237D01*
X136259695Y-64615237D02*
X136297790Y-64691428D01*
X136297790Y-64691428D02*
X136335885Y-64729523D01*
X136335885Y-64729523D02*
X136412076Y-64767618D01*
X136412076Y-64767618D02*
X136450171Y-64767618D01*
X136450171Y-64767618D02*
X136526361Y-64729523D01*
X136526361Y-64729523D02*
X136564457Y-64691428D01*
X136564457Y-64691428D02*
X136602552Y-64615237D01*
X136602552Y-64615237D02*
X136602552Y-64462856D01*
X136602552Y-64462856D02*
X136640647Y-64386666D01*
X136640647Y-64386666D02*
X136678742Y-64348571D01*
X136678742Y-64348571D02*
X136754933Y-64310475D01*
X136754933Y-64310475D02*
X136907314Y-64310475D01*
X136907314Y-64310475D02*
X136983504Y-64348571D01*
X136983504Y-64348571D02*
X137021600Y-64386666D01*
X137021600Y-64386666D02*
X137059695Y-64462856D01*
X137059695Y-64462856D02*
X137059695Y-64615237D01*
X137059695Y-64615237D02*
X137021600Y-64691428D01*
X137021600Y-64691428D02*
X136983504Y-64729523D01*
X136983504Y-64729523D02*
X136907314Y-64767618D01*
X136907314Y-64767618D02*
X136754933Y-64767618D01*
X136754933Y-64767618D02*
X136678742Y-64729523D01*
X136678742Y-64729523D02*
X136640647Y-64691428D01*
X136640647Y-64691428D02*
X136602552Y-64615237D01*
X136335885Y-65072380D02*
X136297790Y-65110476D01*
X136297790Y-65110476D02*
X136259695Y-65186666D01*
X136259695Y-65186666D02*
X136259695Y-65377142D01*
X136259695Y-65377142D02*
X136297790Y-65453333D01*
X136297790Y-65453333D02*
X136335885Y-65491428D01*
X136335885Y-65491428D02*
X136412076Y-65529523D01*
X136412076Y-65529523D02*
X136488266Y-65529523D01*
X136488266Y-65529523D02*
X136602552Y-65491428D01*
X136602552Y-65491428D02*
X137059695Y-65034285D01*
X137059695Y-65034285D02*
X137059695Y-65529523D01*
X154914285Y-78658504D02*
X154952381Y-78696600D01*
X154952381Y-78696600D02*
X155066666Y-78734695D01*
X155066666Y-78734695D02*
X155142857Y-78734695D01*
X155142857Y-78734695D02*
X155257143Y-78696600D01*
X155257143Y-78696600D02*
X155333333Y-78620409D01*
X155333333Y-78620409D02*
X155371428Y-78544219D01*
X155371428Y-78544219D02*
X155409524Y-78391838D01*
X155409524Y-78391838D02*
X155409524Y-78277552D01*
X155409524Y-78277552D02*
X155371428Y-78125171D01*
X155371428Y-78125171D02*
X155333333Y-78048980D01*
X155333333Y-78048980D02*
X155257143Y-77972790D01*
X155257143Y-77972790D02*
X155142857Y-77934695D01*
X155142857Y-77934695D02*
X155066666Y-77934695D01*
X155066666Y-77934695D02*
X154952381Y-77972790D01*
X154952381Y-77972790D02*
X154914285Y-78010885D01*
X154647619Y-77934695D02*
X154152381Y-77934695D01*
X154152381Y-77934695D02*
X154419047Y-78239457D01*
X154419047Y-78239457D02*
X154304762Y-78239457D01*
X154304762Y-78239457D02*
X154228571Y-78277552D01*
X154228571Y-78277552D02*
X154190476Y-78315647D01*
X154190476Y-78315647D02*
X154152381Y-78391838D01*
X154152381Y-78391838D02*
X154152381Y-78582314D01*
X154152381Y-78582314D02*
X154190476Y-78658504D01*
X154190476Y-78658504D02*
X154228571Y-78696600D01*
X154228571Y-78696600D02*
X154304762Y-78734695D01*
X154304762Y-78734695D02*
X154533333Y-78734695D01*
X154533333Y-78734695D02*
X154609524Y-78696600D01*
X154609524Y-78696600D02*
X154647619Y-78658504D01*
X153771428Y-78734695D02*
X153619047Y-78734695D01*
X153619047Y-78734695D02*
X153542857Y-78696600D01*
X153542857Y-78696600D02*
X153504761Y-78658504D01*
X153504761Y-78658504D02*
X153428571Y-78544219D01*
X153428571Y-78544219D02*
X153390476Y-78391838D01*
X153390476Y-78391838D02*
X153390476Y-78087076D01*
X153390476Y-78087076D02*
X153428571Y-78010885D01*
X153428571Y-78010885D02*
X153466666Y-77972790D01*
X153466666Y-77972790D02*
X153542857Y-77934695D01*
X153542857Y-77934695D02*
X153695238Y-77934695D01*
X153695238Y-77934695D02*
X153771428Y-77972790D01*
X153771428Y-77972790D02*
X153809523Y-78010885D01*
X153809523Y-78010885D02*
X153847619Y-78087076D01*
X153847619Y-78087076D02*
X153847619Y-78277552D01*
X153847619Y-78277552D02*
X153809523Y-78353742D01*
X153809523Y-78353742D02*
X153771428Y-78391838D01*
X153771428Y-78391838D02*
X153695238Y-78429933D01*
X153695238Y-78429933D02*
X153542857Y-78429933D01*
X153542857Y-78429933D02*
X153466666Y-78391838D01*
X153466666Y-78391838D02*
X153428571Y-78353742D01*
X153428571Y-78353742D02*
X153390476Y-78277552D01*
D10*
X146211104Y-84191667D02*
X146249200Y-84153571D01*
X146249200Y-84153571D02*
X146287295Y-84039286D01*
X146287295Y-84039286D02*
X146287295Y-83963095D01*
X146287295Y-83963095D02*
X146249200Y-83848809D01*
X146249200Y-83848809D02*
X146173009Y-83772619D01*
X146173009Y-83772619D02*
X146096819Y-83734524D01*
X146096819Y-83734524D02*
X145944438Y-83696428D01*
X145944438Y-83696428D02*
X145830152Y-83696428D01*
X145830152Y-83696428D02*
X145677771Y-83734524D01*
X145677771Y-83734524D02*
X145601580Y-83772619D01*
X145601580Y-83772619D02*
X145525390Y-83848809D01*
X145525390Y-83848809D02*
X145487295Y-83963095D01*
X145487295Y-83963095D02*
X145487295Y-84039286D01*
X145487295Y-84039286D02*
X145525390Y-84153571D01*
X145525390Y-84153571D02*
X145563485Y-84191667D01*
X145563485Y-84496428D02*
X145525390Y-84534524D01*
X145525390Y-84534524D02*
X145487295Y-84610714D01*
X145487295Y-84610714D02*
X145487295Y-84801190D01*
X145487295Y-84801190D02*
X145525390Y-84877381D01*
X145525390Y-84877381D02*
X145563485Y-84915476D01*
X145563485Y-84915476D02*
X145639676Y-84953571D01*
X145639676Y-84953571D02*
X145715866Y-84953571D01*
X145715866Y-84953571D02*
X145830152Y-84915476D01*
X145830152Y-84915476D02*
X146287295Y-84458333D01*
X146287295Y-84458333D02*
X146287295Y-84953571D01*
X144236104Y-86566667D02*
X144274200Y-86528571D01*
X144274200Y-86528571D02*
X144312295Y-86414286D01*
X144312295Y-86414286D02*
X144312295Y-86338095D01*
X144312295Y-86338095D02*
X144274200Y-86223809D01*
X144274200Y-86223809D02*
X144198009Y-86147619D01*
X144198009Y-86147619D02*
X144121819Y-86109524D01*
X144121819Y-86109524D02*
X143969438Y-86071428D01*
X143969438Y-86071428D02*
X143855152Y-86071428D01*
X143855152Y-86071428D02*
X143702771Y-86109524D01*
X143702771Y-86109524D02*
X143626580Y-86147619D01*
X143626580Y-86147619D02*
X143550390Y-86223809D01*
X143550390Y-86223809D02*
X143512295Y-86338095D01*
X143512295Y-86338095D02*
X143512295Y-86414286D01*
X143512295Y-86414286D02*
X143550390Y-86528571D01*
X143550390Y-86528571D02*
X143588485Y-86566667D01*
X143512295Y-86833333D02*
X143512295Y-87328571D01*
X143512295Y-87328571D02*
X143817057Y-87061905D01*
X143817057Y-87061905D02*
X143817057Y-87176190D01*
X143817057Y-87176190D02*
X143855152Y-87252381D01*
X143855152Y-87252381D02*
X143893247Y-87290476D01*
X143893247Y-87290476D02*
X143969438Y-87328571D01*
X143969438Y-87328571D02*
X144159914Y-87328571D01*
X144159914Y-87328571D02*
X144236104Y-87290476D01*
X144236104Y-87290476D02*
X144274200Y-87252381D01*
X144274200Y-87252381D02*
X144312295Y-87176190D01*
X144312295Y-87176190D02*
X144312295Y-86947619D01*
X144312295Y-86947619D02*
X144274200Y-86871428D01*
X144274200Y-86871428D02*
X144236104Y-86833333D01*
X150608332Y-80637295D02*
X150874999Y-80256342D01*
X151065475Y-80637295D02*
X151065475Y-79837295D01*
X151065475Y-79837295D02*
X150760713Y-79837295D01*
X150760713Y-79837295D02*
X150684523Y-79875390D01*
X150684523Y-79875390D02*
X150646428Y-79913485D01*
X150646428Y-79913485D02*
X150608332Y-79989676D01*
X150608332Y-79989676D02*
X150608332Y-80103961D01*
X150608332Y-80103961D02*
X150646428Y-80180152D01*
X150646428Y-80180152D02*
X150684523Y-80218247D01*
X150684523Y-80218247D02*
X150760713Y-80256342D01*
X150760713Y-80256342D02*
X151065475Y-80256342D01*
X149846428Y-80637295D02*
X150303571Y-80637295D01*
X150074999Y-80637295D02*
X150074999Y-79837295D01*
X150074999Y-79837295D02*
X150151190Y-79951580D01*
X150151190Y-79951580D02*
X150227380Y-80027771D01*
X150227380Y-80027771D02*
X150303571Y-80065866D01*
D11*
X136104285Y-74729695D02*
X136370952Y-74348742D01*
X136561428Y-74729695D02*
X136561428Y-73929695D01*
X136561428Y-73929695D02*
X136256666Y-73929695D01*
X136256666Y-73929695D02*
X136180476Y-73967790D01*
X136180476Y-73967790D02*
X136142381Y-74005885D01*
X136142381Y-74005885D02*
X136104285Y-74082076D01*
X136104285Y-74082076D02*
X136104285Y-74196361D01*
X136104285Y-74196361D02*
X136142381Y-74272552D01*
X136142381Y-74272552D02*
X136180476Y-74310647D01*
X136180476Y-74310647D02*
X136256666Y-74348742D01*
X136256666Y-74348742D02*
X136561428Y-74348742D01*
X135342381Y-74729695D02*
X135799524Y-74729695D01*
X135570952Y-74729695D02*
X135570952Y-73929695D01*
X135570952Y-73929695D02*
X135647143Y-74043980D01*
X135647143Y-74043980D02*
X135723333Y-74120171D01*
X135723333Y-74120171D02*
X135799524Y-74158266D01*
X135075714Y-73929695D02*
X134542380Y-73929695D01*
X134542380Y-73929695D02*
X134885238Y-74729695D01*
X132495237Y-77383504D02*
X132533333Y-77421600D01*
X132533333Y-77421600D02*
X132647618Y-77459695D01*
X132647618Y-77459695D02*
X132723809Y-77459695D01*
X132723809Y-77459695D02*
X132838095Y-77421600D01*
X132838095Y-77421600D02*
X132914285Y-77345409D01*
X132914285Y-77345409D02*
X132952380Y-77269219D01*
X132952380Y-77269219D02*
X132990476Y-77116838D01*
X132990476Y-77116838D02*
X132990476Y-77002552D01*
X132990476Y-77002552D02*
X132952380Y-76850171D01*
X132952380Y-76850171D02*
X132914285Y-76773980D01*
X132914285Y-76773980D02*
X132838095Y-76697790D01*
X132838095Y-76697790D02*
X132723809Y-76659695D01*
X132723809Y-76659695D02*
X132647618Y-76659695D01*
X132647618Y-76659695D02*
X132533333Y-76697790D01*
X132533333Y-76697790D02*
X132495237Y-76735885D01*
X131733333Y-77459695D02*
X132190476Y-77459695D01*
X131961904Y-77459695D02*
X131961904Y-76659695D01*
X131961904Y-76659695D02*
X132038095Y-76773980D01*
X132038095Y-76773980D02*
X132114285Y-76850171D01*
X132114285Y-76850171D02*
X132190476Y-76888266D01*
X130971428Y-77459695D02*
X131428571Y-77459695D01*
X131199999Y-77459695D02*
X131199999Y-76659695D01*
X131199999Y-76659695D02*
X131276190Y-76773980D01*
X131276190Y-76773980D02*
X131352380Y-76850171D01*
X131352380Y-76850171D02*
X131428571Y-76888266D01*
X130209523Y-77459695D02*
X130666666Y-77459695D01*
X130438094Y-77459695D02*
X130438094Y-76659695D01*
X130438094Y-76659695D02*
X130514285Y-76773980D01*
X130514285Y-76773980D02*
X130590475Y-76850171D01*
X130590475Y-76850171D02*
X130666666Y-76888266D01*
X154203504Y-61395714D02*
X154241600Y-61357618D01*
X154241600Y-61357618D02*
X154279695Y-61243333D01*
X154279695Y-61243333D02*
X154279695Y-61167142D01*
X154279695Y-61167142D02*
X154241600Y-61052856D01*
X154241600Y-61052856D02*
X154165409Y-60976666D01*
X154165409Y-60976666D02*
X154089219Y-60938571D01*
X154089219Y-60938571D02*
X153936838Y-60900475D01*
X153936838Y-60900475D02*
X153822552Y-60900475D01*
X153822552Y-60900475D02*
X153670171Y-60938571D01*
X153670171Y-60938571D02*
X153593980Y-60976666D01*
X153593980Y-60976666D02*
X153517790Y-61052856D01*
X153517790Y-61052856D02*
X153479695Y-61167142D01*
X153479695Y-61167142D02*
X153479695Y-61243333D01*
X153479695Y-61243333D02*
X153517790Y-61357618D01*
X153517790Y-61357618D02*
X153555885Y-61395714D01*
X153479695Y-62081428D02*
X153479695Y-61929047D01*
X153479695Y-61929047D02*
X153517790Y-61852856D01*
X153517790Y-61852856D02*
X153555885Y-61814761D01*
X153555885Y-61814761D02*
X153670171Y-61738571D01*
X153670171Y-61738571D02*
X153822552Y-61700475D01*
X153822552Y-61700475D02*
X154127314Y-61700475D01*
X154127314Y-61700475D02*
X154203504Y-61738571D01*
X154203504Y-61738571D02*
X154241600Y-61776666D01*
X154241600Y-61776666D02*
X154279695Y-61852856D01*
X154279695Y-61852856D02*
X154279695Y-62005237D01*
X154279695Y-62005237D02*
X154241600Y-62081428D01*
X154241600Y-62081428D02*
X154203504Y-62119523D01*
X154203504Y-62119523D02*
X154127314Y-62157618D01*
X154127314Y-62157618D02*
X153936838Y-62157618D01*
X153936838Y-62157618D02*
X153860647Y-62119523D01*
X153860647Y-62119523D02*
X153822552Y-62081428D01*
X153822552Y-62081428D02*
X153784457Y-62005237D01*
X153784457Y-62005237D02*
X153784457Y-61852856D01*
X153784457Y-61852856D02*
X153822552Y-61776666D01*
X153822552Y-61776666D02*
X153860647Y-61738571D01*
X153860647Y-61738571D02*
X153936838Y-61700475D01*
X154279695Y-62538571D02*
X154279695Y-62690952D01*
X154279695Y-62690952D02*
X154241600Y-62767142D01*
X154241600Y-62767142D02*
X154203504Y-62805238D01*
X154203504Y-62805238D02*
X154089219Y-62881428D01*
X154089219Y-62881428D02*
X153936838Y-62919523D01*
X153936838Y-62919523D02*
X153632076Y-62919523D01*
X153632076Y-62919523D02*
X153555885Y-62881428D01*
X153555885Y-62881428D02*
X153517790Y-62843333D01*
X153517790Y-62843333D02*
X153479695Y-62767142D01*
X153479695Y-62767142D02*
X153479695Y-62614761D01*
X153479695Y-62614761D02*
X153517790Y-62538571D01*
X153517790Y-62538571D02*
X153555885Y-62500476D01*
X153555885Y-62500476D02*
X153632076Y-62462380D01*
X153632076Y-62462380D02*
X153822552Y-62462380D01*
X153822552Y-62462380D02*
X153898742Y-62500476D01*
X153898742Y-62500476D02*
X153936838Y-62538571D01*
X153936838Y-62538571D02*
X153974933Y-62614761D01*
X153974933Y-62614761D02*
X153974933Y-62767142D01*
X153974933Y-62767142D02*
X153936838Y-62843333D01*
X153936838Y-62843333D02*
X153898742Y-62881428D01*
X153898742Y-62881428D02*
X153822552Y-62919523D01*
X149569695Y-61305714D02*
X149188742Y-61039047D01*
X149569695Y-60848571D02*
X148769695Y-60848571D01*
X148769695Y-60848571D02*
X148769695Y-61153333D01*
X148769695Y-61153333D02*
X148807790Y-61229523D01*
X148807790Y-61229523D02*
X148845885Y-61267618D01*
X148845885Y-61267618D02*
X148922076Y-61305714D01*
X148922076Y-61305714D02*
X149036361Y-61305714D01*
X149036361Y-61305714D02*
X149112552Y-61267618D01*
X149112552Y-61267618D02*
X149150647Y-61229523D01*
X149150647Y-61229523D02*
X149188742Y-61153333D01*
X149188742Y-61153333D02*
X149188742Y-60848571D01*
X148769695Y-62029523D02*
X148769695Y-61648571D01*
X148769695Y-61648571D02*
X149150647Y-61610475D01*
X149150647Y-61610475D02*
X149112552Y-61648571D01*
X149112552Y-61648571D02*
X149074457Y-61724761D01*
X149074457Y-61724761D02*
X149074457Y-61915237D01*
X149074457Y-61915237D02*
X149112552Y-61991428D01*
X149112552Y-61991428D02*
X149150647Y-62029523D01*
X149150647Y-62029523D02*
X149226838Y-62067618D01*
X149226838Y-62067618D02*
X149417314Y-62067618D01*
X149417314Y-62067618D02*
X149493504Y-62029523D01*
X149493504Y-62029523D02*
X149531600Y-61991428D01*
X149531600Y-61991428D02*
X149569695Y-61915237D01*
X149569695Y-61915237D02*
X149569695Y-61724761D01*
X149569695Y-61724761D02*
X149531600Y-61648571D01*
X149531600Y-61648571D02*
X149493504Y-61610475D01*
X148845885Y-62372380D02*
X148807790Y-62410476D01*
X148807790Y-62410476D02*
X148769695Y-62486666D01*
X148769695Y-62486666D02*
X148769695Y-62677142D01*
X148769695Y-62677142D02*
X148807790Y-62753333D01*
X148807790Y-62753333D02*
X148845885Y-62791428D01*
X148845885Y-62791428D02*
X148922076Y-62829523D01*
X148922076Y-62829523D02*
X148998266Y-62829523D01*
X148998266Y-62829523D02*
X149112552Y-62791428D01*
X149112552Y-62791428D02*
X149569695Y-62334285D01*
X149569695Y-62334285D02*
X149569695Y-62829523D01*
X145553504Y-89135714D02*
X145591600Y-89097618D01*
X145591600Y-89097618D02*
X145629695Y-88983333D01*
X145629695Y-88983333D02*
X145629695Y-88907142D01*
X145629695Y-88907142D02*
X145591600Y-88792856D01*
X145591600Y-88792856D02*
X145515409Y-88716666D01*
X145515409Y-88716666D02*
X145439219Y-88678571D01*
X145439219Y-88678571D02*
X145286838Y-88640475D01*
X145286838Y-88640475D02*
X145172552Y-88640475D01*
X145172552Y-88640475D02*
X145020171Y-88678571D01*
X145020171Y-88678571D02*
X144943980Y-88716666D01*
X144943980Y-88716666D02*
X144867790Y-88792856D01*
X144867790Y-88792856D02*
X144829695Y-88907142D01*
X144829695Y-88907142D02*
X144829695Y-88983333D01*
X144829695Y-88983333D02*
X144867790Y-89097618D01*
X144867790Y-89097618D02*
X144905885Y-89135714D01*
X145096361Y-89821428D02*
X145629695Y-89821428D01*
X144791600Y-89630952D02*
X145363028Y-89440475D01*
X145363028Y-89440475D02*
X145363028Y-89935714D01*
X145629695Y-90278571D02*
X145629695Y-90430952D01*
X145629695Y-90430952D02*
X145591600Y-90507142D01*
X145591600Y-90507142D02*
X145553504Y-90545238D01*
X145553504Y-90545238D02*
X145439219Y-90621428D01*
X145439219Y-90621428D02*
X145286838Y-90659523D01*
X145286838Y-90659523D02*
X144982076Y-90659523D01*
X144982076Y-90659523D02*
X144905885Y-90621428D01*
X144905885Y-90621428D02*
X144867790Y-90583333D01*
X144867790Y-90583333D02*
X144829695Y-90507142D01*
X144829695Y-90507142D02*
X144829695Y-90354761D01*
X144829695Y-90354761D02*
X144867790Y-90278571D01*
X144867790Y-90278571D02*
X144905885Y-90240476D01*
X144905885Y-90240476D02*
X144982076Y-90202380D01*
X144982076Y-90202380D02*
X145172552Y-90202380D01*
X145172552Y-90202380D02*
X145248742Y-90240476D01*
X145248742Y-90240476D02*
X145286838Y-90278571D01*
X145286838Y-90278571D02*
X145324933Y-90354761D01*
X145324933Y-90354761D02*
X145324933Y-90507142D01*
X145324933Y-90507142D02*
X145286838Y-90583333D01*
X145286838Y-90583333D02*
X145248742Y-90621428D01*
X145248742Y-90621428D02*
X145172552Y-90659523D01*
X159664695Y-63771414D02*
X159283742Y-63504747D01*
X159664695Y-63314271D02*
X158864695Y-63314271D01*
X158864695Y-63314271D02*
X158864695Y-63619033D01*
X158864695Y-63619033D02*
X158902790Y-63695223D01*
X158902790Y-63695223D02*
X158940885Y-63733318D01*
X158940885Y-63733318D02*
X159017076Y-63771414D01*
X159017076Y-63771414D02*
X159131361Y-63771414D01*
X159131361Y-63771414D02*
X159207552Y-63733318D01*
X159207552Y-63733318D02*
X159245647Y-63695223D01*
X159245647Y-63695223D02*
X159283742Y-63619033D01*
X159283742Y-63619033D02*
X159283742Y-63314271D01*
X159131361Y-64457128D02*
X159664695Y-64457128D01*
X158826600Y-64266652D02*
X159398028Y-64076175D01*
X159398028Y-64076175D02*
X159398028Y-64571414D01*
X159664695Y-65295223D02*
X159664695Y-64838080D01*
X159664695Y-65066652D02*
X158864695Y-65066652D01*
X158864695Y-65066652D02*
X158978980Y-64990461D01*
X158978980Y-64990461D02*
X159055171Y-64914271D01*
X159055171Y-64914271D02*
X159093266Y-64838080D01*
D10*
X151758332Y-78336104D02*
X151796428Y-78374200D01*
X151796428Y-78374200D02*
X151910713Y-78412295D01*
X151910713Y-78412295D02*
X151986904Y-78412295D01*
X151986904Y-78412295D02*
X152101190Y-78374200D01*
X152101190Y-78374200D02*
X152177380Y-78298009D01*
X152177380Y-78298009D02*
X152215475Y-78221819D01*
X152215475Y-78221819D02*
X152253571Y-78069438D01*
X152253571Y-78069438D02*
X152253571Y-77955152D01*
X152253571Y-77955152D02*
X152215475Y-77802771D01*
X152215475Y-77802771D02*
X152177380Y-77726580D01*
X152177380Y-77726580D02*
X152101190Y-77650390D01*
X152101190Y-77650390D02*
X151986904Y-77612295D01*
X151986904Y-77612295D02*
X151910713Y-77612295D01*
X151910713Y-77612295D02*
X151796428Y-77650390D01*
X151796428Y-77650390D02*
X151758332Y-77688485D01*
X151377380Y-78412295D02*
X151224999Y-78412295D01*
X151224999Y-78412295D02*
X151148809Y-78374200D01*
X151148809Y-78374200D02*
X151110713Y-78336104D01*
X151110713Y-78336104D02*
X151034523Y-78221819D01*
X151034523Y-78221819D02*
X150996428Y-78069438D01*
X150996428Y-78069438D02*
X150996428Y-77764676D01*
X150996428Y-77764676D02*
X151034523Y-77688485D01*
X151034523Y-77688485D02*
X151072618Y-77650390D01*
X151072618Y-77650390D02*
X151148809Y-77612295D01*
X151148809Y-77612295D02*
X151301190Y-77612295D01*
X151301190Y-77612295D02*
X151377380Y-77650390D01*
X151377380Y-77650390D02*
X151415475Y-77688485D01*
X151415475Y-77688485D02*
X151453571Y-77764676D01*
X151453571Y-77764676D02*
X151453571Y-77955152D01*
X151453571Y-77955152D02*
X151415475Y-78031342D01*
X151415475Y-78031342D02*
X151377380Y-78069438D01*
X151377380Y-78069438D02*
X151301190Y-78107533D01*
X151301190Y-78107533D02*
X151148809Y-78107533D01*
X151148809Y-78107533D02*
X151072618Y-78069438D01*
X151072618Y-78069438D02*
X151034523Y-78031342D01*
X151034523Y-78031342D02*
X150996428Y-77955152D01*
X144311104Y-73385714D02*
X144349200Y-73347618D01*
X144349200Y-73347618D02*
X144387295Y-73233333D01*
X144387295Y-73233333D02*
X144387295Y-73157142D01*
X144387295Y-73157142D02*
X144349200Y-73042856D01*
X144349200Y-73042856D02*
X144273009Y-72966666D01*
X144273009Y-72966666D02*
X144196819Y-72928571D01*
X144196819Y-72928571D02*
X144044438Y-72890475D01*
X144044438Y-72890475D02*
X143930152Y-72890475D01*
X143930152Y-72890475D02*
X143777771Y-72928571D01*
X143777771Y-72928571D02*
X143701580Y-72966666D01*
X143701580Y-72966666D02*
X143625390Y-73042856D01*
X143625390Y-73042856D02*
X143587295Y-73157142D01*
X143587295Y-73157142D02*
X143587295Y-73233333D01*
X143587295Y-73233333D02*
X143625390Y-73347618D01*
X143625390Y-73347618D02*
X143663485Y-73385714D01*
X144387295Y-74147618D02*
X144387295Y-73690475D01*
X144387295Y-73919047D02*
X143587295Y-73919047D01*
X143587295Y-73919047D02*
X143701580Y-73842856D01*
X143701580Y-73842856D02*
X143777771Y-73766666D01*
X143777771Y-73766666D02*
X143815866Y-73690475D01*
X144387295Y-74528571D02*
X144387295Y-74680952D01*
X144387295Y-74680952D02*
X144349200Y-74757142D01*
X144349200Y-74757142D02*
X144311104Y-74795238D01*
X144311104Y-74795238D02*
X144196819Y-74871428D01*
X144196819Y-74871428D02*
X144044438Y-74909523D01*
X144044438Y-74909523D02*
X143739676Y-74909523D01*
X143739676Y-74909523D02*
X143663485Y-74871428D01*
X143663485Y-74871428D02*
X143625390Y-74833333D01*
X143625390Y-74833333D02*
X143587295Y-74757142D01*
X143587295Y-74757142D02*
X143587295Y-74604761D01*
X143587295Y-74604761D02*
X143625390Y-74528571D01*
X143625390Y-74528571D02*
X143663485Y-74490476D01*
X143663485Y-74490476D02*
X143739676Y-74452380D01*
X143739676Y-74452380D02*
X143930152Y-74452380D01*
X143930152Y-74452380D02*
X144006342Y-74490476D01*
X144006342Y-74490476D02*
X144044438Y-74528571D01*
X144044438Y-74528571D02*
X144082533Y-74604761D01*
X144082533Y-74604761D02*
X144082533Y-74757142D01*
X144082533Y-74757142D02*
X144044438Y-74833333D01*
X144044438Y-74833333D02*
X144006342Y-74871428D01*
X144006342Y-74871428D02*
X143930152Y-74909523D01*
D11*
X155814285Y-71809695D02*
X156080952Y-71428742D01*
X156271428Y-71809695D02*
X156271428Y-71009695D01*
X156271428Y-71009695D02*
X155966666Y-71009695D01*
X155966666Y-71009695D02*
X155890476Y-71047790D01*
X155890476Y-71047790D02*
X155852381Y-71085885D01*
X155852381Y-71085885D02*
X155814285Y-71162076D01*
X155814285Y-71162076D02*
X155814285Y-71276361D01*
X155814285Y-71276361D02*
X155852381Y-71352552D01*
X155852381Y-71352552D02*
X155890476Y-71390647D01*
X155890476Y-71390647D02*
X155966666Y-71428742D01*
X155966666Y-71428742D02*
X156271428Y-71428742D01*
X155509524Y-71085885D02*
X155471428Y-71047790D01*
X155471428Y-71047790D02*
X155395238Y-71009695D01*
X155395238Y-71009695D02*
X155204762Y-71009695D01*
X155204762Y-71009695D02*
X155128571Y-71047790D01*
X155128571Y-71047790D02*
X155090476Y-71085885D01*
X155090476Y-71085885D02*
X155052381Y-71162076D01*
X155052381Y-71162076D02*
X155052381Y-71238266D01*
X155052381Y-71238266D02*
X155090476Y-71352552D01*
X155090476Y-71352552D02*
X155547619Y-71809695D01*
X155547619Y-71809695D02*
X155052381Y-71809695D01*
X154290476Y-71809695D02*
X154747619Y-71809695D01*
X154519047Y-71809695D02*
X154519047Y-71009695D01*
X154519047Y-71009695D02*
X154595238Y-71123980D01*
X154595238Y-71123980D02*
X154671428Y-71200171D01*
X154671428Y-71200171D02*
X154747619Y-71238266D01*
X126079695Y-82465714D02*
X125698742Y-82199047D01*
X126079695Y-82008571D02*
X125279695Y-82008571D01*
X125279695Y-82008571D02*
X125279695Y-82313333D01*
X125279695Y-82313333D02*
X125317790Y-82389523D01*
X125317790Y-82389523D02*
X125355885Y-82427618D01*
X125355885Y-82427618D02*
X125432076Y-82465714D01*
X125432076Y-82465714D02*
X125546361Y-82465714D01*
X125546361Y-82465714D02*
X125622552Y-82427618D01*
X125622552Y-82427618D02*
X125660647Y-82389523D01*
X125660647Y-82389523D02*
X125698742Y-82313333D01*
X125698742Y-82313333D02*
X125698742Y-82008571D01*
X125279695Y-82732380D02*
X125279695Y-83265714D01*
X125279695Y-83265714D02*
X126079695Y-82922856D01*
X125279695Y-83913333D02*
X125279695Y-83760952D01*
X125279695Y-83760952D02*
X125317790Y-83684761D01*
X125317790Y-83684761D02*
X125355885Y-83646666D01*
X125355885Y-83646666D02*
X125470171Y-83570476D01*
X125470171Y-83570476D02*
X125622552Y-83532380D01*
X125622552Y-83532380D02*
X125927314Y-83532380D01*
X125927314Y-83532380D02*
X126003504Y-83570476D01*
X126003504Y-83570476D02*
X126041600Y-83608571D01*
X126041600Y-83608571D02*
X126079695Y-83684761D01*
X126079695Y-83684761D02*
X126079695Y-83837142D01*
X126079695Y-83837142D02*
X126041600Y-83913333D01*
X126041600Y-83913333D02*
X126003504Y-83951428D01*
X126003504Y-83951428D02*
X125927314Y-83989523D01*
X125927314Y-83989523D02*
X125736838Y-83989523D01*
X125736838Y-83989523D02*
X125660647Y-83951428D01*
X125660647Y-83951428D02*
X125622552Y-83913333D01*
X125622552Y-83913333D02*
X125584457Y-83837142D01*
X125584457Y-83837142D02*
X125584457Y-83684761D01*
X125584457Y-83684761D02*
X125622552Y-83608571D01*
X125622552Y-83608571D02*
X125660647Y-83570476D01*
X125660647Y-83570476D02*
X125736838Y-83532380D01*
X153708504Y-71485714D02*
X153746600Y-71447618D01*
X153746600Y-71447618D02*
X153784695Y-71333333D01*
X153784695Y-71333333D02*
X153784695Y-71257142D01*
X153784695Y-71257142D02*
X153746600Y-71142856D01*
X153746600Y-71142856D02*
X153670409Y-71066666D01*
X153670409Y-71066666D02*
X153594219Y-71028571D01*
X153594219Y-71028571D02*
X153441838Y-70990475D01*
X153441838Y-70990475D02*
X153327552Y-70990475D01*
X153327552Y-70990475D02*
X153175171Y-71028571D01*
X153175171Y-71028571D02*
X153098980Y-71066666D01*
X153098980Y-71066666D02*
X153022790Y-71142856D01*
X153022790Y-71142856D02*
X152984695Y-71257142D01*
X152984695Y-71257142D02*
X152984695Y-71333333D01*
X152984695Y-71333333D02*
X153022790Y-71447618D01*
X153022790Y-71447618D02*
X153060885Y-71485714D01*
X153251361Y-72171428D02*
X153784695Y-72171428D01*
X152946600Y-71980952D02*
X153518028Y-71790475D01*
X153518028Y-71790475D02*
X153518028Y-72285714D01*
X152984695Y-72514285D02*
X152984695Y-73047619D01*
X152984695Y-73047619D02*
X153784695Y-72704761D01*
X129395237Y-87153504D02*
X129433333Y-87191600D01*
X129433333Y-87191600D02*
X129547618Y-87229695D01*
X129547618Y-87229695D02*
X129623809Y-87229695D01*
X129623809Y-87229695D02*
X129738095Y-87191600D01*
X129738095Y-87191600D02*
X129814285Y-87115409D01*
X129814285Y-87115409D02*
X129852380Y-87039219D01*
X129852380Y-87039219D02*
X129890476Y-86886838D01*
X129890476Y-86886838D02*
X129890476Y-86772552D01*
X129890476Y-86772552D02*
X129852380Y-86620171D01*
X129852380Y-86620171D02*
X129814285Y-86543980D01*
X129814285Y-86543980D02*
X129738095Y-86467790D01*
X129738095Y-86467790D02*
X129623809Y-86429695D01*
X129623809Y-86429695D02*
X129547618Y-86429695D01*
X129547618Y-86429695D02*
X129433333Y-86467790D01*
X129433333Y-86467790D02*
X129395237Y-86505885D01*
X128633333Y-87229695D02*
X129090476Y-87229695D01*
X128861904Y-87229695D02*
X128861904Y-86429695D01*
X128861904Y-86429695D02*
X128938095Y-86543980D01*
X128938095Y-86543980D02*
X129014285Y-86620171D01*
X129014285Y-86620171D02*
X129090476Y-86658266D01*
X128328571Y-86505885D02*
X128290475Y-86467790D01*
X128290475Y-86467790D02*
X128214285Y-86429695D01*
X128214285Y-86429695D02*
X128023809Y-86429695D01*
X128023809Y-86429695D02*
X127947618Y-86467790D01*
X127947618Y-86467790D02*
X127909523Y-86505885D01*
X127909523Y-86505885D02*
X127871428Y-86582076D01*
X127871428Y-86582076D02*
X127871428Y-86658266D01*
X127871428Y-86658266D02*
X127909523Y-86772552D01*
X127909523Y-86772552D02*
X128366666Y-87229695D01*
X128366666Y-87229695D02*
X127871428Y-87229695D01*
X127376189Y-86429695D02*
X127299999Y-86429695D01*
X127299999Y-86429695D02*
X127223808Y-86467790D01*
X127223808Y-86467790D02*
X127185713Y-86505885D01*
X127185713Y-86505885D02*
X127147618Y-86582076D01*
X127147618Y-86582076D02*
X127109523Y-86734457D01*
X127109523Y-86734457D02*
X127109523Y-86924933D01*
X127109523Y-86924933D02*
X127147618Y-87077314D01*
X127147618Y-87077314D02*
X127185713Y-87153504D01*
X127185713Y-87153504D02*
X127223808Y-87191600D01*
X127223808Y-87191600D02*
X127299999Y-87229695D01*
X127299999Y-87229695D02*
X127376189Y-87229695D01*
X127376189Y-87229695D02*
X127452380Y-87191600D01*
X127452380Y-87191600D02*
X127490475Y-87153504D01*
X127490475Y-87153504D02*
X127528570Y-87077314D01*
X127528570Y-87077314D02*
X127566666Y-86924933D01*
X127566666Y-86924933D02*
X127566666Y-86734457D01*
X127566666Y-86734457D02*
X127528570Y-86582076D01*
X127528570Y-86582076D02*
X127490475Y-86505885D01*
X127490475Y-86505885D02*
X127452380Y-86467790D01*
X127452380Y-86467790D02*
X127376189Y-86429695D01*
X135684285Y-76003504D02*
X135722381Y-76041600D01*
X135722381Y-76041600D02*
X135836666Y-76079695D01*
X135836666Y-76079695D02*
X135912857Y-76079695D01*
X135912857Y-76079695D02*
X136027143Y-76041600D01*
X136027143Y-76041600D02*
X136103333Y-75965409D01*
X136103333Y-75965409D02*
X136141428Y-75889219D01*
X136141428Y-75889219D02*
X136179524Y-75736838D01*
X136179524Y-75736838D02*
X136179524Y-75622552D01*
X136179524Y-75622552D02*
X136141428Y-75470171D01*
X136141428Y-75470171D02*
X136103333Y-75393980D01*
X136103333Y-75393980D02*
X136027143Y-75317790D01*
X136027143Y-75317790D02*
X135912857Y-75279695D01*
X135912857Y-75279695D02*
X135836666Y-75279695D01*
X135836666Y-75279695D02*
X135722381Y-75317790D01*
X135722381Y-75317790D02*
X135684285Y-75355885D01*
X134998571Y-75546361D02*
X134998571Y-76079695D01*
X135189047Y-75241600D02*
X135379524Y-75813028D01*
X135379524Y-75813028D02*
X134884285Y-75813028D01*
X134655714Y-75279695D02*
X134160476Y-75279695D01*
X134160476Y-75279695D02*
X134427142Y-75584457D01*
X134427142Y-75584457D02*
X134312857Y-75584457D01*
X134312857Y-75584457D02*
X134236666Y-75622552D01*
X134236666Y-75622552D02*
X134198571Y-75660647D01*
X134198571Y-75660647D02*
X134160476Y-75736838D01*
X134160476Y-75736838D02*
X134160476Y-75927314D01*
X134160476Y-75927314D02*
X134198571Y-76003504D01*
X134198571Y-76003504D02*
X134236666Y-76041600D01*
X134236666Y-76041600D02*
X134312857Y-76079695D01*
X134312857Y-76079695D02*
X134541428Y-76079695D01*
X134541428Y-76079695D02*
X134617619Y-76041600D01*
X134617619Y-76041600D02*
X134655714Y-76003504D01*
X149639285Y-72884695D02*
X149905952Y-72503742D01*
X150096428Y-72884695D02*
X150096428Y-72084695D01*
X150096428Y-72084695D02*
X149791666Y-72084695D01*
X149791666Y-72084695D02*
X149715476Y-72122790D01*
X149715476Y-72122790D02*
X149677381Y-72160885D01*
X149677381Y-72160885D02*
X149639285Y-72237076D01*
X149639285Y-72237076D02*
X149639285Y-72351361D01*
X149639285Y-72351361D02*
X149677381Y-72427552D01*
X149677381Y-72427552D02*
X149715476Y-72465647D01*
X149715476Y-72465647D02*
X149791666Y-72503742D01*
X149791666Y-72503742D02*
X150096428Y-72503742D01*
X148877381Y-72884695D02*
X149334524Y-72884695D01*
X149105952Y-72884695D02*
X149105952Y-72084695D01*
X149105952Y-72084695D02*
X149182143Y-72198980D01*
X149182143Y-72198980D02*
X149258333Y-72275171D01*
X149258333Y-72275171D02*
X149334524Y-72313266D01*
X148153571Y-72084695D02*
X148534523Y-72084695D01*
X148534523Y-72084695D02*
X148572619Y-72465647D01*
X148572619Y-72465647D02*
X148534523Y-72427552D01*
X148534523Y-72427552D02*
X148458333Y-72389457D01*
X148458333Y-72389457D02*
X148267857Y-72389457D01*
X148267857Y-72389457D02*
X148191666Y-72427552D01*
X148191666Y-72427552D02*
X148153571Y-72465647D01*
X148153571Y-72465647D02*
X148115476Y-72541838D01*
X148115476Y-72541838D02*
X148115476Y-72732314D01*
X148115476Y-72732314D02*
X148153571Y-72808504D01*
X148153571Y-72808504D02*
X148191666Y-72846600D01*
X148191666Y-72846600D02*
X148267857Y-72884695D01*
X148267857Y-72884695D02*
X148458333Y-72884695D01*
X148458333Y-72884695D02*
X148534523Y-72846600D01*
X148534523Y-72846600D02*
X148572619Y-72808504D01*
X135054285Y-66459695D02*
X135320952Y-66078742D01*
X135511428Y-66459695D02*
X135511428Y-65659695D01*
X135511428Y-65659695D02*
X135206666Y-65659695D01*
X135206666Y-65659695D02*
X135130476Y-65697790D01*
X135130476Y-65697790D02*
X135092381Y-65735885D01*
X135092381Y-65735885D02*
X135054285Y-65812076D01*
X135054285Y-65812076D02*
X135054285Y-65926361D01*
X135054285Y-65926361D02*
X135092381Y-66002552D01*
X135092381Y-66002552D02*
X135130476Y-66040647D01*
X135130476Y-66040647D02*
X135206666Y-66078742D01*
X135206666Y-66078742D02*
X135511428Y-66078742D01*
X134787619Y-65659695D02*
X134254285Y-65659695D01*
X134254285Y-65659695D02*
X134597143Y-66459695D01*
X133987619Y-65735885D02*
X133949523Y-65697790D01*
X133949523Y-65697790D02*
X133873333Y-65659695D01*
X133873333Y-65659695D02*
X133682857Y-65659695D01*
X133682857Y-65659695D02*
X133606666Y-65697790D01*
X133606666Y-65697790D02*
X133568571Y-65735885D01*
X133568571Y-65735885D02*
X133530476Y-65812076D01*
X133530476Y-65812076D02*
X133530476Y-65888266D01*
X133530476Y-65888266D02*
X133568571Y-66002552D01*
X133568571Y-66002552D02*
X134025714Y-66459695D01*
X134025714Y-66459695D02*
X133530476Y-66459695D01*
X132495237Y-87073504D02*
X132533333Y-87111600D01*
X132533333Y-87111600D02*
X132647618Y-87149695D01*
X132647618Y-87149695D02*
X132723809Y-87149695D01*
X132723809Y-87149695D02*
X132838095Y-87111600D01*
X132838095Y-87111600D02*
X132914285Y-87035409D01*
X132914285Y-87035409D02*
X132952380Y-86959219D01*
X132952380Y-86959219D02*
X132990476Y-86806838D01*
X132990476Y-86806838D02*
X132990476Y-86692552D01*
X132990476Y-86692552D02*
X132952380Y-86540171D01*
X132952380Y-86540171D02*
X132914285Y-86463980D01*
X132914285Y-86463980D02*
X132838095Y-86387790D01*
X132838095Y-86387790D02*
X132723809Y-86349695D01*
X132723809Y-86349695D02*
X132647618Y-86349695D01*
X132647618Y-86349695D02*
X132533333Y-86387790D01*
X132533333Y-86387790D02*
X132495237Y-86425885D01*
X131733333Y-87149695D02*
X132190476Y-87149695D01*
X131961904Y-87149695D02*
X131961904Y-86349695D01*
X131961904Y-86349695D02*
X132038095Y-86463980D01*
X132038095Y-86463980D02*
X132114285Y-86540171D01*
X132114285Y-86540171D02*
X132190476Y-86578266D01*
X130971428Y-87149695D02*
X131428571Y-87149695D01*
X131199999Y-87149695D02*
X131199999Y-86349695D01*
X131199999Y-86349695D02*
X131276190Y-86463980D01*
X131276190Y-86463980D02*
X131352380Y-86540171D01*
X131352380Y-86540171D02*
X131428571Y-86578266D01*
X130590475Y-87149695D02*
X130438094Y-87149695D01*
X130438094Y-87149695D02*
X130361904Y-87111600D01*
X130361904Y-87111600D02*
X130323808Y-87073504D01*
X130323808Y-87073504D02*
X130247618Y-86959219D01*
X130247618Y-86959219D02*
X130209523Y-86806838D01*
X130209523Y-86806838D02*
X130209523Y-86502076D01*
X130209523Y-86502076D02*
X130247618Y-86425885D01*
X130247618Y-86425885D02*
X130285713Y-86387790D01*
X130285713Y-86387790D02*
X130361904Y-86349695D01*
X130361904Y-86349695D02*
X130514285Y-86349695D01*
X130514285Y-86349695D02*
X130590475Y-86387790D01*
X130590475Y-86387790D02*
X130628570Y-86425885D01*
X130628570Y-86425885D02*
X130666666Y-86502076D01*
X130666666Y-86502076D02*
X130666666Y-86692552D01*
X130666666Y-86692552D02*
X130628570Y-86768742D01*
X130628570Y-86768742D02*
X130590475Y-86806838D01*
X130590475Y-86806838D02*
X130514285Y-86844933D01*
X130514285Y-86844933D02*
X130361904Y-86844933D01*
X130361904Y-86844933D02*
X130285713Y-86806838D01*
X130285713Y-86806838D02*
X130247618Y-86768742D01*
X130247618Y-86768742D02*
X130209523Y-86692552D01*
X126389695Y-75555714D02*
X126008742Y-75289047D01*
X126389695Y-75098571D02*
X125589695Y-75098571D01*
X125589695Y-75098571D02*
X125589695Y-75403333D01*
X125589695Y-75403333D02*
X125627790Y-75479523D01*
X125627790Y-75479523D02*
X125665885Y-75517618D01*
X125665885Y-75517618D02*
X125742076Y-75555714D01*
X125742076Y-75555714D02*
X125856361Y-75555714D01*
X125856361Y-75555714D02*
X125932552Y-75517618D01*
X125932552Y-75517618D02*
X125970647Y-75479523D01*
X125970647Y-75479523D02*
X126008742Y-75403333D01*
X126008742Y-75403333D02*
X126008742Y-75098571D01*
X125589695Y-76241428D02*
X125589695Y-76089047D01*
X125589695Y-76089047D02*
X125627790Y-76012856D01*
X125627790Y-76012856D02*
X125665885Y-75974761D01*
X125665885Y-75974761D02*
X125780171Y-75898571D01*
X125780171Y-75898571D02*
X125932552Y-75860475D01*
X125932552Y-75860475D02*
X126237314Y-75860475D01*
X126237314Y-75860475D02*
X126313504Y-75898571D01*
X126313504Y-75898571D02*
X126351600Y-75936666D01*
X126351600Y-75936666D02*
X126389695Y-76012856D01*
X126389695Y-76012856D02*
X126389695Y-76165237D01*
X126389695Y-76165237D02*
X126351600Y-76241428D01*
X126351600Y-76241428D02*
X126313504Y-76279523D01*
X126313504Y-76279523D02*
X126237314Y-76317618D01*
X126237314Y-76317618D02*
X126046838Y-76317618D01*
X126046838Y-76317618D02*
X125970647Y-76279523D01*
X125970647Y-76279523D02*
X125932552Y-76241428D01*
X125932552Y-76241428D02*
X125894457Y-76165237D01*
X125894457Y-76165237D02*
X125894457Y-76012856D01*
X125894457Y-76012856D02*
X125932552Y-75936666D01*
X125932552Y-75936666D02*
X125970647Y-75898571D01*
X125970647Y-75898571D02*
X126046838Y-75860475D01*
X125589695Y-76584285D02*
X125589695Y-77117619D01*
X125589695Y-77117619D02*
X126389695Y-76774761D01*
X158703504Y-107875714D02*
X158741600Y-107837618D01*
X158741600Y-107837618D02*
X158779695Y-107723333D01*
X158779695Y-107723333D02*
X158779695Y-107647142D01*
X158779695Y-107647142D02*
X158741600Y-107532856D01*
X158741600Y-107532856D02*
X158665409Y-107456666D01*
X158665409Y-107456666D02*
X158589219Y-107418571D01*
X158589219Y-107418571D02*
X158436838Y-107380475D01*
X158436838Y-107380475D02*
X158322552Y-107380475D01*
X158322552Y-107380475D02*
X158170171Y-107418571D01*
X158170171Y-107418571D02*
X158093980Y-107456666D01*
X158093980Y-107456666D02*
X158017790Y-107532856D01*
X158017790Y-107532856D02*
X157979695Y-107647142D01*
X157979695Y-107647142D02*
X157979695Y-107723333D01*
X157979695Y-107723333D02*
X158017790Y-107837618D01*
X158017790Y-107837618D02*
X158055885Y-107875714D01*
X157979695Y-108142380D02*
X157979695Y-108637618D01*
X157979695Y-108637618D02*
X158284457Y-108370952D01*
X158284457Y-108370952D02*
X158284457Y-108485237D01*
X158284457Y-108485237D02*
X158322552Y-108561428D01*
X158322552Y-108561428D02*
X158360647Y-108599523D01*
X158360647Y-108599523D02*
X158436838Y-108637618D01*
X158436838Y-108637618D02*
X158627314Y-108637618D01*
X158627314Y-108637618D02*
X158703504Y-108599523D01*
X158703504Y-108599523D02*
X158741600Y-108561428D01*
X158741600Y-108561428D02*
X158779695Y-108485237D01*
X158779695Y-108485237D02*
X158779695Y-108256666D01*
X158779695Y-108256666D02*
X158741600Y-108180475D01*
X158741600Y-108180475D02*
X158703504Y-108142380D01*
X157979695Y-109323333D02*
X157979695Y-109170952D01*
X157979695Y-109170952D02*
X158017790Y-109094761D01*
X158017790Y-109094761D02*
X158055885Y-109056666D01*
X158055885Y-109056666D02*
X158170171Y-108980476D01*
X158170171Y-108980476D02*
X158322552Y-108942380D01*
X158322552Y-108942380D02*
X158627314Y-108942380D01*
X158627314Y-108942380D02*
X158703504Y-108980476D01*
X158703504Y-108980476D02*
X158741600Y-109018571D01*
X158741600Y-109018571D02*
X158779695Y-109094761D01*
X158779695Y-109094761D02*
X158779695Y-109247142D01*
X158779695Y-109247142D02*
X158741600Y-109323333D01*
X158741600Y-109323333D02*
X158703504Y-109361428D01*
X158703504Y-109361428D02*
X158627314Y-109399523D01*
X158627314Y-109399523D02*
X158436838Y-109399523D01*
X158436838Y-109399523D02*
X158360647Y-109361428D01*
X158360647Y-109361428D02*
X158322552Y-109323333D01*
X158322552Y-109323333D02*
X158284457Y-109247142D01*
X158284457Y-109247142D02*
X158284457Y-109094761D01*
X158284457Y-109094761D02*
X158322552Y-109018571D01*
X158322552Y-109018571D02*
X158360647Y-108980476D01*
X158360647Y-108980476D02*
X158436838Y-108942380D01*
X131594285Y-80949695D02*
X131860952Y-80568742D01*
X132051428Y-80949695D02*
X132051428Y-80149695D01*
X132051428Y-80149695D02*
X131746666Y-80149695D01*
X131746666Y-80149695D02*
X131670476Y-80187790D01*
X131670476Y-80187790D02*
X131632381Y-80225885D01*
X131632381Y-80225885D02*
X131594285Y-80302076D01*
X131594285Y-80302076D02*
X131594285Y-80416361D01*
X131594285Y-80416361D02*
X131632381Y-80492552D01*
X131632381Y-80492552D02*
X131670476Y-80530647D01*
X131670476Y-80530647D02*
X131746666Y-80568742D01*
X131746666Y-80568742D02*
X132051428Y-80568742D01*
X131327619Y-80149695D02*
X130794285Y-80149695D01*
X130794285Y-80149695D02*
X131137143Y-80949695D01*
X130451428Y-80949695D02*
X130299047Y-80949695D01*
X130299047Y-80949695D02*
X130222857Y-80911600D01*
X130222857Y-80911600D02*
X130184761Y-80873504D01*
X130184761Y-80873504D02*
X130108571Y-80759219D01*
X130108571Y-80759219D02*
X130070476Y-80606838D01*
X130070476Y-80606838D02*
X130070476Y-80302076D01*
X130070476Y-80302076D02*
X130108571Y-80225885D01*
X130108571Y-80225885D02*
X130146666Y-80187790D01*
X130146666Y-80187790D02*
X130222857Y-80149695D01*
X130222857Y-80149695D02*
X130375238Y-80149695D01*
X130375238Y-80149695D02*
X130451428Y-80187790D01*
X130451428Y-80187790D02*
X130489523Y-80225885D01*
X130489523Y-80225885D02*
X130527619Y-80302076D01*
X130527619Y-80302076D02*
X130527619Y-80492552D01*
X130527619Y-80492552D02*
X130489523Y-80568742D01*
X130489523Y-80568742D02*
X130451428Y-80606838D01*
X130451428Y-80606838D02*
X130375238Y-80644933D01*
X130375238Y-80644933D02*
X130222857Y-80644933D01*
X130222857Y-80644933D02*
X130146666Y-80606838D01*
X130146666Y-80606838D02*
X130108571Y-80568742D01*
X130108571Y-80568742D02*
X130070476Y-80492552D01*
D10*
X141558332Y-76536104D02*
X141596428Y-76574200D01*
X141596428Y-76574200D02*
X141710713Y-76612295D01*
X141710713Y-76612295D02*
X141786904Y-76612295D01*
X141786904Y-76612295D02*
X141901190Y-76574200D01*
X141901190Y-76574200D02*
X141977380Y-76498009D01*
X141977380Y-76498009D02*
X142015475Y-76421819D01*
X142015475Y-76421819D02*
X142053571Y-76269438D01*
X142053571Y-76269438D02*
X142053571Y-76155152D01*
X142053571Y-76155152D02*
X142015475Y-76002771D01*
X142015475Y-76002771D02*
X141977380Y-75926580D01*
X141977380Y-75926580D02*
X141901190Y-75850390D01*
X141901190Y-75850390D02*
X141786904Y-75812295D01*
X141786904Y-75812295D02*
X141710713Y-75812295D01*
X141710713Y-75812295D02*
X141596428Y-75850390D01*
X141596428Y-75850390D02*
X141558332Y-75888485D01*
X140834523Y-75812295D02*
X141215475Y-75812295D01*
X141215475Y-75812295D02*
X141253571Y-76193247D01*
X141253571Y-76193247D02*
X141215475Y-76155152D01*
X141215475Y-76155152D02*
X141139285Y-76117057D01*
X141139285Y-76117057D02*
X140948809Y-76117057D01*
X140948809Y-76117057D02*
X140872618Y-76155152D01*
X140872618Y-76155152D02*
X140834523Y-76193247D01*
X140834523Y-76193247D02*
X140796428Y-76269438D01*
X140796428Y-76269438D02*
X140796428Y-76459914D01*
X140796428Y-76459914D02*
X140834523Y-76536104D01*
X140834523Y-76536104D02*
X140872618Y-76574200D01*
X140872618Y-76574200D02*
X140948809Y-76612295D01*
X140948809Y-76612295D02*
X141139285Y-76612295D01*
X141139285Y-76612295D02*
X141215475Y-76574200D01*
X141215475Y-76574200D02*
X141253571Y-76536104D01*
X152139285Y-77236104D02*
X152177381Y-77274200D01*
X152177381Y-77274200D02*
X152291666Y-77312295D01*
X152291666Y-77312295D02*
X152367857Y-77312295D01*
X152367857Y-77312295D02*
X152482143Y-77274200D01*
X152482143Y-77274200D02*
X152558333Y-77198009D01*
X152558333Y-77198009D02*
X152596428Y-77121819D01*
X152596428Y-77121819D02*
X152634524Y-76969438D01*
X152634524Y-76969438D02*
X152634524Y-76855152D01*
X152634524Y-76855152D02*
X152596428Y-76702771D01*
X152596428Y-76702771D02*
X152558333Y-76626580D01*
X152558333Y-76626580D02*
X152482143Y-76550390D01*
X152482143Y-76550390D02*
X152367857Y-76512295D01*
X152367857Y-76512295D02*
X152291666Y-76512295D01*
X152291666Y-76512295D02*
X152177381Y-76550390D01*
X152177381Y-76550390D02*
X152139285Y-76588485D01*
X151377381Y-77312295D02*
X151834524Y-77312295D01*
X151605952Y-77312295D02*
X151605952Y-76512295D01*
X151605952Y-76512295D02*
X151682143Y-76626580D01*
X151682143Y-76626580D02*
X151758333Y-76702771D01*
X151758333Y-76702771D02*
X151834524Y-76740866D01*
X150882142Y-76512295D02*
X150805952Y-76512295D01*
X150805952Y-76512295D02*
X150729761Y-76550390D01*
X150729761Y-76550390D02*
X150691666Y-76588485D01*
X150691666Y-76588485D02*
X150653571Y-76664676D01*
X150653571Y-76664676D02*
X150615476Y-76817057D01*
X150615476Y-76817057D02*
X150615476Y-77007533D01*
X150615476Y-77007533D02*
X150653571Y-77159914D01*
X150653571Y-77159914D02*
X150691666Y-77236104D01*
X150691666Y-77236104D02*
X150729761Y-77274200D01*
X150729761Y-77274200D02*
X150805952Y-77312295D01*
X150805952Y-77312295D02*
X150882142Y-77312295D01*
X150882142Y-77312295D02*
X150958333Y-77274200D01*
X150958333Y-77274200D02*
X150996428Y-77236104D01*
X150996428Y-77236104D02*
X151034523Y-77159914D01*
X151034523Y-77159914D02*
X151072619Y-77007533D01*
X151072619Y-77007533D02*
X151072619Y-76817057D01*
X151072619Y-76817057D02*
X151034523Y-76664676D01*
X151034523Y-76664676D02*
X150996428Y-76588485D01*
X150996428Y-76588485D02*
X150958333Y-76550390D01*
X150958333Y-76550390D02*
X150882142Y-76512295D01*
D11*
X132229695Y-69345714D02*
X131848742Y-69079047D01*
X132229695Y-68888571D02*
X131429695Y-68888571D01*
X131429695Y-68888571D02*
X131429695Y-69193333D01*
X131429695Y-69193333D02*
X131467790Y-69269523D01*
X131467790Y-69269523D02*
X131505885Y-69307618D01*
X131505885Y-69307618D02*
X131582076Y-69345714D01*
X131582076Y-69345714D02*
X131696361Y-69345714D01*
X131696361Y-69345714D02*
X131772552Y-69307618D01*
X131772552Y-69307618D02*
X131810647Y-69269523D01*
X131810647Y-69269523D02*
X131848742Y-69193333D01*
X131848742Y-69193333D02*
X131848742Y-68888571D01*
X131429695Y-70031428D02*
X131429695Y-69879047D01*
X131429695Y-69879047D02*
X131467790Y-69802856D01*
X131467790Y-69802856D02*
X131505885Y-69764761D01*
X131505885Y-69764761D02*
X131620171Y-69688571D01*
X131620171Y-69688571D02*
X131772552Y-69650475D01*
X131772552Y-69650475D02*
X132077314Y-69650475D01*
X132077314Y-69650475D02*
X132153504Y-69688571D01*
X132153504Y-69688571D02*
X132191600Y-69726666D01*
X132191600Y-69726666D02*
X132229695Y-69802856D01*
X132229695Y-69802856D02*
X132229695Y-69955237D01*
X132229695Y-69955237D02*
X132191600Y-70031428D01*
X132191600Y-70031428D02*
X132153504Y-70069523D01*
X132153504Y-70069523D02*
X132077314Y-70107618D01*
X132077314Y-70107618D02*
X131886838Y-70107618D01*
X131886838Y-70107618D02*
X131810647Y-70069523D01*
X131810647Y-70069523D02*
X131772552Y-70031428D01*
X131772552Y-70031428D02*
X131734457Y-69955237D01*
X131734457Y-69955237D02*
X131734457Y-69802856D01*
X131734457Y-69802856D02*
X131772552Y-69726666D01*
X131772552Y-69726666D02*
X131810647Y-69688571D01*
X131810647Y-69688571D02*
X131886838Y-69650475D01*
X131429695Y-70793333D02*
X131429695Y-70640952D01*
X131429695Y-70640952D02*
X131467790Y-70564761D01*
X131467790Y-70564761D02*
X131505885Y-70526666D01*
X131505885Y-70526666D02*
X131620171Y-70450476D01*
X131620171Y-70450476D02*
X131772552Y-70412380D01*
X131772552Y-70412380D02*
X132077314Y-70412380D01*
X132077314Y-70412380D02*
X132153504Y-70450476D01*
X132153504Y-70450476D02*
X132191600Y-70488571D01*
X132191600Y-70488571D02*
X132229695Y-70564761D01*
X132229695Y-70564761D02*
X132229695Y-70717142D01*
X132229695Y-70717142D02*
X132191600Y-70793333D01*
X132191600Y-70793333D02*
X132153504Y-70831428D01*
X132153504Y-70831428D02*
X132077314Y-70869523D01*
X132077314Y-70869523D02*
X131886838Y-70869523D01*
X131886838Y-70869523D02*
X131810647Y-70831428D01*
X131810647Y-70831428D02*
X131772552Y-70793333D01*
X131772552Y-70793333D02*
X131734457Y-70717142D01*
X131734457Y-70717142D02*
X131734457Y-70564761D01*
X131734457Y-70564761D02*
X131772552Y-70488571D01*
X131772552Y-70488571D02*
X131810647Y-70450476D01*
X131810647Y-70450476D02*
X131886838Y-70412380D01*
X160153504Y-108175714D02*
X160191600Y-108137618D01*
X160191600Y-108137618D02*
X160229695Y-108023333D01*
X160229695Y-108023333D02*
X160229695Y-107947142D01*
X160229695Y-107947142D02*
X160191600Y-107832856D01*
X160191600Y-107832856D02*
X160115409Y-107756666D01*
X160115409Y-107756666D02*
X160039219Y-107718571D01*
X160039219Y-107718571D02*
X159886838Y-107680475D01*
X159886838Y-107680475D02*
X159772552Y-107680475D01*
X159772552Y-107680475D02*
X159620171Y-107718571D01*
X159620171Y-107718571D02*
X159543980Y-107756666D01*
X159543980Y-107756666D02*
X159467790Y-107832856D01*
X159467790Y-107832856D02*
X159429695Y-107947142D01*
X159429695Y-107947142D02*
X159429695Y-108023333D01*
X159429695Y-108023333D02*
X159467790Y-108137618D01*
X159467790Y-108137618D02*
X159505885Y-108175714D01*
X159505885Y-108480475D02*
X159467790Y-108518571D01*
X159467790Y-108518571D02*
X159429695Y-108594761D01*
X159429695Y-108594761D02*
X159429695Y-108785237D01*
X159429695Y-108785237D02*
X159467790Y-108861428D01*
X159467790Y-108861428D02*
X159505885Y-108899523D01*
X159505885Y-108899523D02*
X159582076Y-108937618D01*
X159582076Y-108937618D02*
X159658266Y-108937618D01*
X159658266Y-108937618D02*
X159772552Y-108899523D01*
X159772552Y-108899523D02*
X160229695Y-108442380D01*
X160229695Y-108442380D02*
X160229695Y-108937618D01*
X160229695Y-109318571D02*
X160229695Y-109470952D01*
X160229695Y-109470952D02*
X160191600Y-109547142D01*
X160191600Y-109547142D02*
X160153504Y-109585238D01*
X160153504Y-109585238D02*
X160039219Y-109661428D01*
X160039219Y-109661428D02*
X159886838Y-109699523D01*
X159886838Y-109699523D02*
X159582076Y-109699523D01*
X159582076Y-109699523D02*
X159505885Y-109661428D01*
X159505885Y-109661428D02*
X159467790Y-109623333D01*
X159467790Y-109623333D02*
X159429695Y-109547142D01*
X159429695Y-109547142D02*
X159429695Y-109394761D01*
X159429695Y-109394761D02*
X159467790Y-109318571D01*
X159467790Y-109318571D02*
X159505885Y-109280476D01*
X159505885Y-109280476D02*
X159582076Y-109242380D01*
X159582076Y-109242380D02*
X159772552Y-109242380D01*
X159772552Y-109242380D02*
X159848742Y-109280476D01*
X159848742Y-109280476D02*
X159886838Y-109318571D01*
X159886838Y-109318571D02*
X159924933Y-109394761D01*
X159924933Y-109394761D02*
X159924933Y-109547142D01*
X159924933Y-109547142D02*
X159886838Y-109623333D01*
X159886838Y-109623333D02*
X159848742Y-109661428D01*
X159848742Y-109661428D02*
X159772552Y-109699523D01*
X164654285Y-80803504D02*
X164692381Y-80841600D01*
X164692381Y-80841600D02*
X164806666Y-80879695D01*
X164806666Y-80879695D02*
X164882857Y-80879695D01*
X164882857Y-80879695D02*
X164997143Y-80841600D01*
X164997143Y-80841600D02*
X165073333Y-80765409D01*
X165073333Y-80765409D02*
X165111428Y-80689219D01*
X165111428Y-80689219D02*
X165149524Y-80536838D01*
X165149524Y-80536838D02*
X165149524Y-80422552D01*
X165149524Y-80422552D02*
X165111428Y-80270171D01*
X165111428Y-80270171D02*
X165073333Y-80193980D01*
X165073333Y-80193980D02*
X164997143Y-80117790D01*
X164997143Y-80117790D02*
X164882857Y-80079695D01*
X164882857Y-80079695D02*
X164806666Y-80079695D01*
X164806666Y-80079695D02*
X164692381Y-80117790D01*
X164692381Y-80117790D02*
X164654285Y-80155885D01*
X163968571Y-80079695D02*
X164120952Y-80079695D01*
X164120952Y-80079695D02*
X164197143Y-80117790D01*
X164197143Y-80117790D02*
X164235238Y-80155885D01*
X164235238Y-80155885D02*
X164311428Y-80270171D01*
X164311428Y-80270171D02*
X164349524Y-80422552D01*
X164349524Y-80422552D02*
X164349524Y-80727314D01*
X164349524Y-80727314D02*
X164311428Y-80803504D01*
X164311428Y-80803504D02*
X164273333Y-80841600D01*
X164273333Y-80841600D02*
X164197143Y-80879695D01*
X164197143Y-80879695D02*
X164044762Y-80879695D01*
X164044762Y-80879695D02*
X163968571Y-80841600D01*
X163968571Y-80841600D02*
X163930476Y-80803504D01*
X163930476Y-80803504D02*
X163892381Y-80727314D01*
X163892381Y-80727314D02*
X163892381Y-80536838D01*
X163892381Y-80536838D02*
X163930476Y-80460647D01*
X163930476Y-80460647D02*
X163968571Y-80422552D01*
X163968571Y-80422552D02*
X164044762Y-80384457D01*
X164044762Y-80384457D02*
X164197143Y-80384457D01*
X164197143Y-80384457D02*
X164273333Y-80422552D01*
X164273333Y-80422552D02*
X164311428Y-80460647D01*
X164311428Y-80460647D02*
X164349524Y-80536838D01*
X163130476Y-80879695D02*
X163587619Y-80879695D01*
X163359047Y-80879695D02*
X163359047Y-80079695D01*
X163359047Y-80079695D02*
X163435238Y-80193980D01*
X163435238Y-80193980D02*
X163511428Y-80270171D01*
X163511428Y-80270171D02*
X163587619Y-80308266D01*
X154313504Y-65245714D02*
X154351600Y-65207618D01*
X154351600Y-65207618D02*
X154389695Y-65093333D01*
X154389695Y-65093333D02*
X154389695Y-65017142D01*
X154389695Y-65017142D02*
X154351600Y-64902856D01*
X154351600Y-64902856D02*
X154275409Y-64826666D01*
X154275409Y-64826666D02*
X154199219Y-64788571D01*
X154199219Y-64788571D02*
X154046838Y-64750475D01*
X154046838Y-64750475D02*
X153932552Y-64750475D01*
X153932552Y-64750475D02*
X153780171Y-64788571D01*
X153780171Y-64788571D02*
X153703980Y-64826666D01*
X153703980Y-64826666D02*
X153627790Y-64902856D01*
X153627790Y-64902856D02*
X153589695Y-65017142D01*
X153589695Y-65017142D02*
X153589695Y-65093333D01*
X153589695Y-65093333D02*
X153627790Y-65207618D01*
X153627790Y-65207618D02*
X153665885Y-65245714D01*
X153589695Y-65931428D02*
X153589695Y-65779047D01*
X153589695Y-65779047D02*
X153627790Y-65702856D01*
X153627790Y-65702856D02*
X153665885Y-65664761D01*
X153665885Y-65664761D02*
X153780171Y-65588571D01*
X153780171Y-65588571D02*
X153932552Y-65550475D01*
X153932552Y-65550475D02*
X154237314Y-65550475D01*
X154237314Y-65550475D02*
X154313504Y-65588571D01*
X154313504Y-65588571D02*
X154351600Y-65626666D01*
X154351600Y-65626666D02*
X154389695Y-65702856D01*
X154389695Y-65702856D02*
X154389695Y-65855237D01*
X154389695Y-65855237D02*
X154351600Y-65931428D01*
X154351600Y-65931428D02*
X154313504Y-65969523D01*
X154313504Y-65969523D02*
X154237314Y-66007618D01*
X154237314Y-66007618D02*
X154046838Y-66007618D01*
X154046838Y-66007618D02*
X153970647Y-65969523D01*
X153970647Y-65969523D02*
X153932552Y-65931428D01*
X153932552Y-65931428D02*
X153894457Y-65855237D01*
X153894457Y-65855237D02*
X153894457Y-65702856D01*
X153894457Y-65702856D02*
X153932552Y-65626666D01*
X153932552Y-65626666D02*
X153970647Y-65588571D01*
X153970647Y-65588571D02*
X154046838Y-65550475D01*
X153932552Y-66464761D02*
X153894457Y-66388571D01*
X153894457Y-66388571D02*
X153856361Y-66350476D01*
X153856361Y-66350476D02*
X153780171Y-66312380D01*
X153780171Y-66312380D02*
X153742076Y-66312380D01*
X153742076Y-66312380D02*
X153665885Y-66350476D01*
X153665885Y-66350476D02*
X153627790Y-66388571D01*
X153627790Y-66388571D02*
X153589695Y-66464761D01*
X153589695Y-66464761D02*
X153589695Y-66617142D01*
X153589695Y-66617142D02*
X153627790Y-66693333D01*
X153627790Y-66693333D02*
X153665885Y-66731428D01*
X153665885Y-66731428D02*
X153742076Y-66769523D01*
X153742076Y-66769523D02*
X153780171Y-66769523D01*
X153780171Y-66769523D02*
X153856361Y-66731428D01*
X153856361Y-66731428D02*
X153894457Y-66693333D01*
X153894457Y-66693333D02*
X153932552Y-66617142D01*
X153932552Y-66617142D02*
X153932552Y-66464761D01*
X153932552Y-66464761D02*
X153970647Y-66388571D01*
X153970647Y-66388571D02*
X154008742Y-66350476D01*
X154008742Y-66350476D02*
X154084933Y-66312380D01*
X154084933Y-66312380D02*
X154237314Y-66312380D01*
X154237314Y-66312380D02*
X154313504Y-66350476D01*
X154313504Y-66350476D02*
X154351600Y-66388571D01*
X154351600Y-66388571D02*
X154389695Y-66464761D01*
X154389695Y-66464761D02*
X154389695Y-66617142D01*
X154389695Y-66617142D02*
X154351600Y-66693333D01*
X154351600Y-66693333D02*
X154313504Y-66731428D01*
X154313504Y-66731428D02*
X154237314Y-66769523D01*
X154237314Y-66769523D02*
X154084933Y-66769523D01*
X154084933Y-66769523D02*
X154008742Y-66731428D01*
X154008742Y-66731428D02*
X153970647Y-66693333D01*
X153970647Y-66693333D02*
X153932552Y-66617142D01*
X150259695Y-86015714D02*
X149878742Y-85749047D01*
X150259695Y-85558571D02*
X149459695Y-85558571D01*
X149459695Y-85558571D02*
X149459695Y-85863333D01*
X149459695Y-85863333D02*
X149497790Y-85939523D01*
X149497790Y-85939523D02*
X149535885Y-85977618D01*
X149535885Y-85977618D02*
X149612076Y-86015714D01*
X149612076Y-86015714D02*
X149726361Y-86015714D01*
X149726361Y-86015714D02*
X149802552Y-85977618D01*
X149802552Y-85977618D02*
X149840647Y-85939523D01*
X149840647Y-85939523D02*
X149878742Y-85863333D01*
X149878742Y-85863333D02*
X149878742Y-85558571D01*
X149535885Y-86320475D02*
X149497790Y-86358571D01*
X149497790Y-86358571D02*
X149459695Y-86434761D01*
X149459695Y-86434761D02*
X149459695Y-86625237D01*
X149459695Y-86625237D02*
X149497790Y-86701428D01*
X149497790Y-86701428D02*
X149535885Y-86739523D01*
X149535885Y-86739523D02*
X149612076Y-86777618D01*
X149612076Y-86777618D02*
X149688266Y-86777618D01*
X149688266Y-86777618D02*
X149802552Y-86739523D01*
X149802552Y-86739523D02*
X150259695Y-86282380D01*
X150259695Y-86282380D02*
X150259695Y-86777618D01*
X149535885Y-87082380D02*
X149497790Y-87120476D01*
X149497790Y-87120476D02*
X149459695Y-87196666D01*
X149459695Y-87196666D02*
X149459695Y-87387142D01*
X149459695Y-87387142D02*
X149497790Y-87463333D01*
X149497790Y-87463333D02*
X149535885Y-87501428D01*
X149535885Y-87501428D02*
X149612076Y-87539523D01*
X149612076Y-87539523D02*
X149688266Y-87539523D01*
X149688266Y-87539523D02*
X149802552Y-87501428D01*
X149802552Y-87501428D02*
X150259695Y-87044285D01*
X150259695Y-87044285D02*
X150259695Y-87539523D01*
X154789285Y-79708504D02*
X154827381Y-79746600D01*
X154827381Y-79746600D02*
X154941666Y-79784695D01*
X154941666Y-79784695D02*
X155017857Y-79784695D01*
X155017857Y-79784695D02*
X155132143Y-79746600D01*
X155132143Y-79746600D02*
X155208333Y-79670409D01*
X155208333Y-79670409D02*
X155246428Y-79594219D01*
X155246428Y-79594219D02*
X155284524Y-79441838D01*
X155284524Y-79441838D02*
X155284524Y-79327552D01*
X155284524Y-79327552D02*
X155246428Y-79175171D01*
X155246428Y-79175171D02*
X155208333Y-79098980D01*
X155208333Y-79098980D02*
X155132143Y-79022790D01*
X155132143Y-79022790D02*
X155017857Y-78984695D01*
X155017857Y-78984695D02*
X154941666Y-78984695D01*
X154941666Y-78984695D02*
X154827381Y-79022790D01*
X154827381Y-79022790D02*
X154789285Y-79060885D01*
X154065476Y-78984695D02*
X154446428Y-78984695D01*
X154446428Y-78984695D02*
X154484524Y-79365647D01*
X154484524Y-79365647D02*
X154446428Y-79327552D01*
X154446428Y-79327552D02*
X154370238Y-79289457D01*
X154370238Y-79289457D02*
X154179762Y-79289457D01*
X154179762Y-79289457D02*
X154103571Y-79327552D01*
X154103571Y-79327552D02*
X154065476Y-79365647D01*
X154065476Y-79365647D02*
X154027381Y-79441838D01*
X154027381Y-79441838D02*
X154027381Y-79632314D01*
X154027381Y-79632314D02*
X154065476Y-79708504D01*
X154065476Y-79708504D02*
X154103571Y-79746600D01*
X154103571Y-79746600D02*
X154179762Y-79784695D01*
X154179762Y-79784695D02*
X154370238Y-79784695D01*
X154370238Y-79784695D02*
X154446428Y-79746600D01*
X154446428Y-79746600D02*
X154484524Y-79708504D01*
X153760714Y-78984695D02*
X153227380Y-78984695D01*
X153227380Y-78984695D02*
X153570238Y-79784695D01*
D10*
X143061104Y-86641667D02*
X143099200Y-86603571D01*
X143099200Y-86603571D02*
X143137295Y-86489286D01*
X143137295Y-86489286D02*
X143137295Y-86413095D01*
X143137295Y-86413095D02*
X143099200Y-86298809D01*
X143099200Y-86298809D02*
X143023009Y-86222619D01*
X143023009Y-86222619D02*
X142946819Y-86184524D01*
X142946819Y-86184524D02*
X142794438Y-86146428D01*
X142794438Y-86146428D02*
X142680152Y-86146428D01*
X142680152Y-86146428D02*
X142527771Y-86184524D01*
X142527771Y-86184524D02*
X142451580Y-86222619D01*
X142451580Y-86222619D02*
X142375390Y-86298809D01*
X142375390Y-86298809D02*
X142337295Y-86413095D01*
X142337295Y-86413095D02*
X142337295Y-86489286D01*
X142337295Y-86489286D02*
X142375390Y-86603571D01*
X142375390Y-86603571D02*
X142413485Y-86641667D01*
X143137295Y-87403571D02*
X143137295Y-86946428D01*
X143137295Y-87175000D02*
X142337295Y-87175000D01*
X142337295Y-87175000D02*
X142451580Y-87098809D01*
X142451580Y-87098809D02*
X142527771Y-87022619D01*
X142527771Y-87022619D02*
X142565866Y-86946428D01*
D11*
X144323504Y-63505714D02*
X144361600Y-63467618D01*
X144361600Y-63467618D02*
X144399695Y-63353333D01*
X144399695Y-63353333D02*
X144399695Y-63277142D01*
X144399695Y-63277142D02*
X144361600Y-63162856D01*
X144361600Y-63162856D02*
X144285409Y-63086666D01*
X144285409Y-63086666D02*
X144209219Y-63048571D01*
X144209219Y-63048571D02*
X144056838Y-63010475D01*
X144056838Y-63010475D02*
X143942552Y-63010475D01*
X143942552Y-63010475D02*
X143790171Y-63048571D01*
X143790171Y-63048571D02*
X143713980Y-63086666D01*
X143713980Y-63086666D02*
X143637790Y-63162856D01*
X143637790Y-63162856D02*
X143599695Y-63277142D01*
X143599695Y-63277142D02*
X143599695Y-63353333D01*
X143599695Y-63353333D02*
X143637790Y-63467618D01*
X143637790Y-63467618D02*
X143675885Y-63505714D01*
X143599695Y-63772380D02*
X143599695Y-64305714D01*
X143599695Y-64305714D02*
X144399695Y-63962856D01*
X143599695Y-64534285D02*
X143599695Y-65067619D01*
X143599695Y-65067619D02*
X144399695Y-64724761D01*
X161183504Y-69915714D02*
X161221600Y-69877618D01*
X161221600Y-69877618D02*
X161259695Y-69763333D01*
X161259695Y-69763333D02*
X161259695Y-69687142D01*
X161259695Y-69687142D02*
X161221600Y-69572856D01*
X161221600Y-69572856D02*
X161145409Y-69496666D01*
X161145409Y-69496666D02*
X161069219Y-69458571D01*
X161069219Y-69458571D02*
X160916838Y-69420475D01*
X160916838Y-69420475D02*
X160802552Y-69420475D01*
X160802552Y-69420475D02*
X160650171Y-69458571D01*
X160650171Y-69458571D02*
X160573980Y-69496666D01*
X160573980Y-69496666D02*
X160497790Y-69572856D01*
X160497790Y-69572856D02*
X160459695Y-69687142D01*
X160459695Y-69687142D02*
X160459695Y-69763333D01*
X160459695Y-69763333D02*
X160497790Y-69877618D01*
X160497790Y-69877618D02*
X160535885Y-69915714D01*
X160459695Y-70639523D02*
X160459695Y-70258571D01*
X160459695Y-70258571D02*
X160840647Y-70220475D01*
X160840647Y-70220475D02*
X160802552Y-70258571D01*
X160802552Y-70258571D02*
X160764457Y-70334761D01*
X160764457Y-70334761D02*
X160764457Y-70525237D01*
X160764457Y-70525237D02*
X160802552Y-70601428D01*
X160802552Y-70601428D02*
X160840647Y-70639523D01*
X160840647Y-70639523D02*
X160916838Y-70677618D01*
X160916838Y-70677618D02*
X161107314Y-70677618D01*
X161107314Y-70677618D02*
X161183504Y-70639523D01*
X161183504Y-70639523D02*
X161221600Y-70601428D01*
X161221600Y-70601428D02*
X161259695Y-70525237D01*
X161259695Y-70525237D02*
X161259695Y-70334761D01*
X161259695Y-70334761D02*
X161221600Y-70258571D01*
X161221600Y-70258571D02*
X161183504Y-70220475D01*
X161259695Y-71058571D02*
X161259695Y-71210952D01*
X161259695Y-71210952D02*
X161221600Y-71287142D01*
X161221600Y-71287142D02*
X161183504Y-71325238D01*
X161183504Y-71325238D02*
X161069219Y-71401428D01*
X161069219Y-71401428D02*
X160916838Y-71439523D01*
X160916838Y-71439523D02*
X160612076Y-71439523D01*
X160612076Y-71439523D02*
X160535885Y-71401428D01*
X160535885Y-71401428D02*
X160497790Y-71363333D01*
X160497790Y-71363333D02*
X160459695Y-71287142D01*
X160459695Y-71287142D02*
X160459695Y-71134761D01*
X160459695Y-71134761D02*
X160497790Y-71058571D01*
X160497790Y-71058571D02*
X160535885Y-71020476D01*
X160535885Y-71020476D02*
X160612076Y-70982380D01*
X160612076Y-70982380D02*
X160802552Y-70982380D01*
X160802552Y-70982380D02*
X160878742Y-71020476D01*
X160878742Y-71020476D02*
X160916838Y-71058571D01*
X160916838Y-71058571D02*
X160954933Y-71134761D01*
X160954933Y-71134761D02*
X160954933Y-71287142D01*
X160954933Y-71287142D02*
X160916838Y-71363333D01*
X160916838Y-71363333D02*
X160878742Y-71401428D01*
X160878742Y-71401428D02*
X160802552Y-71439523D01*
X158709695Y-84315714D02*
X158328742Y-84049047D01*
X158709695Y-83858571D02*
X157909695Y-83858571D01*
X157909695Y-83858571D02*
X157909695Y-84163333D01*
X157909695Y-84163333D02*
X157947790Y-84239523D01*
X157947790Y-84239523D02*
X157985885Y-84277618D01*
X157985885Y-84277618D02*
X158062076Y-84315714D01*
X158062076Y-84315714D02*
X158176361Y-84315714D01*
X158176361Y-84315714D02*
X158252552Y-84277618D01*
X158252552Y-84277618D02*
X158290647Y-84239523D01*
X158290647Y-84239523D02*
X158328742Y-84163333D01*
X158328742Y-84163333D02*
X158328742Y-83858571D01*
X157909695Y-84582380D02*
X157909695Y-85077618D01*
X157909695Y-85077618D02*
X158214457Y-84810952D01*
X158214457Y-84810952D02*
X158214457Y-84925237D01*
X158214457Y-84925237D02*
X158252552Y-85001428D01*
X158252552Y-85001428D02*
X158290647Y-85039523D01*
X158290647Y-85039523D02*
X158366838Y-85077618D01*
X158366838Y-85077618D02*
X158557314Y-85077618D01*
X158557314Y-85077618D02*
X158633504Y-85039523D01*
X158633504Y-85039523D02*
X158671600Y-85001428D01*
X158671600Y-85001428D02*
X158709695Y-84925237D01*
X158709695Y-84925237D02*
X158709695Y-84696666D01*
X158709695Y-84696666D02*
X158671600Y-84620475D01*
X158671600Y-84620475D02*
X158633504Y-84582380D01*
X158176361Y-85763333D02*
X158709695Y-85763333D01*
X157871600Y-85572857D02*
X158443028Y-85382380D01*
X158443028Y-85382380D02*
X158443028Y-85877619D01*
X141829696Y-60843902D02*
X141448743Y-60577235D01*
X141829696Y-60386759D02*
X141029696Y-60386759D01*
X141029696Y-60386759D02*
X141029696Y-60691521D01*
X141029696Y-60691521D02*
X141067791Y-60767711D01*
X141067791Y-60767711D02*
X141105886Y-60805806D01*
X141105886Y-60805806D02*
X141182077Y-60843902D01*
X141182077Y-60843902D02*
X141296362Y-60843902D01*
X141296362Y-60843902D02*
X141372553Y-60805806D01*
X141372553Y-60805806D02*
X141410648Y-60767711D01*
X141410648Y-60767711D02*
X141448743Y-60691521D01*
X141448743Y-60691521D02*
X141448743Y-60386759D01*
X141029696Y-61567711D02*
X141029696Y-61186759D01*
X141029696Y-61186759D02*
X141410648Y-61148663D01*
X141410648Y-61148663D02*
X141372553Y-61186759D01*
X141372553Y-61186759D02*
X141334458Y-61262949D01*
X141334458Y-61262949D02*
X141334458Y-61453425D01*
X141334458Y-61453425D02*
X141372553Y-61529616D01*
X141372553Y-61529616D02*
X141410648Y-61567711D01*
X141410648Y-61567711D02*
X141486839Y-61605806D01*
X141486839Y-61605806D02*
X141677315Y-61605806D01*
X141677315Y-61605806D02*
X141753505Y-61567711D01*
X141753505Y-61567711D02*
X141791601Y-61529616D01*
X141791601Y-61529616D02*
X141829696Y-61453425D01*
X141829696Y-61453425D02*
X141829696Y-61262949D01*
X141829696Y-61262949D02*
X141791601Y-61186759D01*
X141791601Y-61186759D02*
X141753505Y-61148663D01*
X141029696Y-61872473D02*
X141029696Y-62367711D01*
X141029696Y-62367711D02*
X141334458Y-62101045D01*
X141334458Y-62101045D02*
X141334458Y-62215330D01*
X141334458Y-62215330D02*
X141372553Y-62291521D01*
X141372553Y-62291521D02*
X141410648Y-62329616D01*
X141410648Y-62329616D02*
X141486839Y-62367711D01*
X141486839Y-62367711D02*
X141677315Y-62367711D01*
X141677315Y-62367711D02*
X141753505Y-62329616D01*
X141753505Y-62329616D02*
X141791601Y-62291521D01*
X141791601Y-62291521D02*
X141829696Y-62215330D01*
X141829696Y-62215330D02*
X141829696Y-61986759D01*
X141829696Y-61986759D02*
X141791601Y-61910568D01*
X141791601Y-61910568D02*
X141753505Y-61872473D01*
D10*
X150833332Y-81686104D02*
X150871428Y-81724200D01*
X150871428Y-81724200D02*
X150985713Y-81762295D01*
X150985713Y-81762295D02*
X151061904Y-81762295D01*
X151061904Y-81762295D02*
X151176190Y-81724200D01*
X151176190Y-81724200D02*
X151252380Y-81648009D01*
X151252380Y-81648009D02*
X151290475Y-81571819D01*
X151290475Y-81571819D02*
X151328571Y-81419438D01*
X151328571Y-81419438D02*
X151328571Y-81305152D01*
X151328571Y-81305152D02*
X151290475Y-81152771D01*
X151290475Y-81152771D02*
X151252380Y-81076580D01*
X151252380Y-81076580D02*
X151176190Y-81000390D01*
X151176190Y-81000390D02*
X151061904Y-80962295D01*
X151061904Y-80962295D02*
X150985713Y-80962295D01*
X150985713Y-80962295D02*
X150871428Y-81000390D01*
X150871428Y-81000390D02*
X150833332Y-81038485D01*
X150147618Y-81228961D02*
X150147618Y-81762295D01*
X150338094Y-80924200D02*
X150528571Y-81495628D01*
X150528571Y-81495628D02*
X150033332Y-81495628D01*
D11*
X128744285Y-72559695D02*
X129010952Y-72178742D01*
X129201428Y-72559695D02*
X129201428Y-71759695D01*
X129201428Y-71759695D02*
X128896666Y-71759695D01*
X128896666Y-71759695D02*
X128820476Y-71797790D01*
X128820476Y-71797790D02*
X128782381Y-71835885D01*
X128782381Y-71835885D02*
X128744285Y-71912076D01*
X128744285Y-71912076D02*
X128744285Y-72026361D01*
X128744285Y-72026361D02*
X128782381Y-72102552D01*
X128782381Y-72102552D02*
X128820476Y-72140647D01*
X128820476Y-72140647D02*
X128896666Y-72178742D01*
X128896666Y-72178742D02*
X129201428Y-72178742D01*
X128477619Y-71759695D02*
X127944285Y-71759695D01*
X127944285Y-71759695D02*
X128287143Y-72559695D01*
X127715714Y-71759695D02*
X127220476Y-71759695D01*
X127220476Y-71759695D02*
X127487142Y-72064457D01*
X127487142Y-72064457D02*
X127372857Y-72064457D01*
X127372857Y-72064457D02*
X127296666Y-72102552D01*
X127296666Y-72102552D02*
X127258571Y-72140647D01*
X127258571Y-72140647D02*
X127220476Y-72216838D01*
X127220476Y-72216838D02*
X127220476Y-72407314D01*
X127220476Y-72407314D02*
X127258571Y-72483504D01*
X127258571Y-72483504D02*
X127296666Y-72521600D01*
X127296666Y-72521600D02*
X127372857Y-72559695D01*
X127372857Y-72559695D02*
X127601428Y-72559695D01*
X127601428Y-72559695D02*
X127677619Y-72521600D01*
X127677619Y-72521600D02*
X127715714Y-72483504D01*
X135739285Y-78009695D02*
X136005952Y-77628742D01*
X136196428Y-78009695D02*
X136196428Y-77209695D01*
X136196428Y-77209695D02*
X135891666Y-77209695D01*
X135891666Y-77209695D02*
X135815476Y-77247790D01*
X135815476Y-77247790D02*
X135777381Y-77285885D01*
X135777381Y-77285885D02*
X135739285Y-77362076D01*
X135739285Y-77362076D02*
X135739285Y-77476361D01*
X135739285Y-77476361D02*
X135777381Y-77552552D01*
X135777381Y-77552552D02*
X135815476Y-77590647D01*
X135815476Y-77590647D02*
X135891666Y-77628742D01*
X135891666Y-77628742D02*
X136196428Y-77628742D01*
X134977381Y-78009695D02*
X135434524Y-78009695D01*
X135205952Y-78009695D02*
X135205952Y-77209695D01*
X135205952Y-77209695D02*
X135282143Y-77323980D01*
X135282143Y-77323980D02*
X135358333Y-77400171D01*
X135358333Y-77400171D02*
X135434524Y-77438266D01*
X134520238Y-77552552D02*
X134596428Y-77514457D01*
X134596428Y-77514457D02*
X134634523Y-77476361D01*
X134634523Y-77476361D02*
X134672619Y-77400171D01*
X134672619Y-77400171D02*
X134672619Y-77362076D01*
X134672619Y-77362076D02*
X134634523Y-77285885D01*
X134634523Y-77285885D02*
X134596428Y-77247790D01*
X134596428Y-77247790D02*
X134520238Y-77209695D01*
X134520238Y-77209695D02*
X134367857Y-77209695D01*
X134367857Y-77209695D02*
X134291666Y-77247790D01*
X134291666Y-77247790D02*
X134253571Y-77285885D01*
X134253571Y-77285885D02*
X134215476Y-77362076D01*
X134215476Y-77362076D02*
X134215476Y-77400171D01*
X134215476Y-77400171D02*
X134253571Y-77476361D01*
X134253571Y-77476361D02*
X134291666Y-77514457D01*
X134291666Y-77514457D02*
X134367857Y-77552552D01*
X134367857Y-77552552D02*
X134520238Y-77552552D01*
X134520238Y-77552552D02*
X134596428Y-77590647D01*
X134596428Y-77590647D02*
X134634523Y-77628742D01*
X134634523Y-77628742D02*
X134672619Y-77704933D01*
X134672619Y-77704933D02*
X134672619Y-77857314D01*
X134672619Y-77857314D02*
X134634523Y-77933504D01*
X134634523Y-77933504D02*
X134596428Y-77971600D01*
X134596428Y-77971600D02*
X134520238Y-78009695D01*
X134520238Y-78009695D02*
X134367857Y-78009695D01*
X134367857Y-78009695D02*
X134291666Y-77971600D01*
X134291666Y-77971600D02*
X134253571Y-77933504D01*
X134253571Y-77933504D02*
X134215476Y-77857314D01*
X134215476Y-77857314D02*
X134215476Y-77704933D01*
X134215476Y-77704933D02*
X134253571Y-77628742D01*
X134253571Y-77628742D02*
X134291666Y-77590647D01*
X134291666Y-77590647D02*
X134367857Y-77552552D01*
X164514285Y-79373504D02*
X164552381Y-79411600D01*
X164552381Y-79411600D02*
X164666666Y-79449695D01*
X164666666Y-79449695D02*
X164742857Y-79449695D01*
X164742857Y-79449695D02*
X164857143Y-79411600D01*
X164857143Y-79411600D02*
X164933333Y-79335409D01*
X164933333Y-79335409D02*
X164971428Y-79259219D01*
X164971428Y-79259219D02*
X165009524Y-79106838D01*
X165009524Y-79106838D02*
X165009524Y-78992552D01*
X165009524Y-78992552D02*
X164971428Y-78840171D01*
X164971428Y-78840171D02*
X164933333Y-78763980D01*
X164933333Y-78763980D02*
X164857143Y-78687790D01*
X164857143Y-78687790D02*
X164742857Y-78649695D01*
X164742857Y-78649695D02*
X164666666Y-78649695D01*
X164666666Y-78649695D02*
X164552381Y-78687790D01*
X164552381Y-78687790D02*
X164514285Y-78725885D01*
X163828571Y-78649695D02*
X163980952Y-78649695D01*
X163980952Y-78649695D02*
X164057143Y-78687790D01*
X164057143Y-78687790D02*
X164095238Y-78725885D01*
X164095238Y-78725885D02*
X164171428Y-78840171D01*
X164171428Y-78840171D02*
X164209524Y-78992552D01*
X164209524Y-78992552D02*
X164209524Y-79297314D01*
X164209524Y-79297314D02*
X164171428Y-79373504D01*
X164171428Y-79373504D02*
X164133333Y-79411600D01*
X164133333Y-79411600D02*
X164057143Y-79449695D01*
X164057143Y-79449695D02*
X163904762Y-79449695D01*
X163904762Y-79449695D02*
X163828571Y-79411600D01*
X163828571Y-79411600D02*
X163790476Y-79373504D01*
X163790476Y-79373504D02*
X163752381Y-79297314D01*
X163752381Y-79297314D02*
X163752381Y-79106838D01*
X163752381Y-79106838D02*
X163790476Y-79030647D01*
X163790476Y-79030647D02*
X163828571Y-78992552D01*
X163828571Y-78992552D02*
X163904762Y-78954457D01*
X163904762Y-78954457D02*
X164057143Y-78954457D01*
X164057143Y-78954457D02*
X164133333Y-78992552D01*
X164133333Y-78992552D02*
X164171428Y-79030647D01*
X164171428Y-79030647D02*
X164209524Y-79106838D01*
X163257142Y-78649695D02*
X163180952Y-78649695D01*
X163180952Y-78649695D02*
X163104761Y-78687790D01*
X163104761Y-78687790D02*
X163066666Y-78725885D01*
X163066666Y-78725885D02*
X163028571Y-78802076D01*
X163028571Y-78802076D02*
X162990476Y-78954457D01*
X162990476Y-78954457D02*
X162990476Y-79144933D01*
X162990476Y-79144933D02*
X163028571Y-79297314D01*
X163028571Y-79297314D02*
X163066666Y-79373504D01*
X163066666Y-79373504D02*
X163104761Y-79411600D01*
X163104761Y-79411600D02*
X163180952Y-79449695D01*
X163180952Y-79449695D02*
X163257142Y-79449695D01*
X163257142Y-79449695D02*
X163333333Y-79411600D01*
X163333333Y-79411600D02*
X163371428Y-79373504D01*
X163371428Y-79373504D02*
X163409523Y-79297314D01*
X163409523Y-79297314D02*
X163447619Y-79144933D01*
X163447619Y-79144933D02*
X163447619Y-78954457D01*
X163447619Y-78954457D02*
X163409523Y-78802076D01*
X163409523Y-78802076D02*
X163371428Y-78725885D01*
X163371428Y-78725885D02*
X163333333Y-78687790D01*
X163333333Y-78687790D02*
X163257142Y-78649695D01*
X150534696Y-108830477D02*
X151182315Y-108830477D01*
X151182315Y-108830477D02*
X151258505Y-108868572D01*
X151258505Y-108868572D02*
X151296601Y-108906667D01*
X151296601Y-108906667D02*
X151334696Y-108982858D01*
X151334696Y-108982858D02*
X151334696Y-109135239D01*
X151334696Y-109135239D02*
X151296601Y-109211429D01*
X151296601Y-109211429D02*
X151258505Y-109249524D01*
X151258505Y-109249524D02*
X151182315Y-109287620D01*
X151182315Y-109287620D02*
X150534696Y-109287620D01*
X150610886Y-109630476D02*
X150572791Y-109668572D01*
X150572791Y-109668572D02*
X150534696Y-109744762D01*
X150534696Y-109744762D02*
X150534696Y-109935238D01*
X150534696Y-109935238D02*
X150572791Y-110011429D01*
X150572791Y-110011429D02*
X150610886Y-110049524D01*
X150610886Y-110049524D02*
X150687077Y-110087619D01*
X150687077Y-110087619D02*
X150763267Y-110087619D01*
X150763267Y-110087619D02*
X150877553Y-110049524D01*
X150877553Y-110049524D02*
X151334696Y-109592381D01*
X151334696Y-109592381D02*
X151334696Y-110087619D01*
D10*
X152214285Y-76261104D02*
X152252381Y-76299200D01*
X152252381Y-76299200D02*
X152366666Y-76337295D01*
X152366666Y-76337295D02*
X152442857Y-76337295D01*
X152442857Y-76337295D02*
X152557143Y-76299200D01*
X152557143Y-76299200D02*
X152633333Y-76223009D01*
X152633333Y-76223009D02*
X152671428Y-76146819D01*
X152671428Y-76146819D02*
X152709524Y-75994438D01*
X152709524Y-75994438D02*
X152709524Y-75880152D01*
X152709524Y-75880152D02*
X152671428Y-75727771D01*
X152671428Y-75727771D02*
X152633333Y-75651580D01*
X152633333Y-75651580D02*
X152557143Y-75575390D01*
X152557143Y-75575390D02*
X152442857Y-75537295D01*
X152442857Y-75537295D02*
X152366666Y-75537295D01*
X152366666Y-75537295D02*
X152252381Y-75575390D01*
X152252381Y-75575390D02*
X152214285Y-75613485D01*
X151909524Y-75613485D02*
X151871428Y-75575390D01*
X151871428Y-75575390D02*
X151795238Y-75537295D01*
X151795238Y-75537295D02*
X151604762Y-75537295D01*
X151604762Y-75537295D02*
X151528571Y-75575390D01*
X151528571Y-75575390D02*
X151490476Y-75613485D01*
X151490476Y-75613485D02*
X151452381Y-75689676D01*
X151452381Y-75689676D02*
X151452381Y-75765866D01*
X151452381Y-75765866D02*
X151490476Y-75880152D01*
X151490476Y-75880152D02*
X151947619Y-76337295D01*
X151947619Y-76337295D02*
X151452381Y-76337295D01*
X151147619Y-75613485D02*
X151109523Y-75575390D01*
X151109523Y-75575390D02*
X151033333Y-75537295D01*
X151033333Y-75537295D02*
X150842857Y-75537295D01*
X150842857Y-75537295D02*
X150766666Y-75575390D01*
X150766666Y-75575390D02*
X150728571Y-75613485D01*
X150728571Y-75613485D02*
X150690476Y-75689676D01*
X150690476Y-75689676D02*
X150690476Y-75765866D01*
X150690476Y-75765866D02*
X150728571Y-75880152D01*
X150728571Y-75880152D02*
X151185714Y-76337295D01*
X151185714Y-76337295D02*
X150690476Y-76337295D01*
X150086104Y-82935714D02*
X150124200Y-82897618D01*
X150124200Y-82897618D02*
X150162295Y-82783333D01*
X150162295Y-82783333D02*
X150162295Y-82707142D01*
X150162295Y-82707142D02*
X150124200Y-82592856D01*
X150124200Y-82592856D02*
X150048009Y-82516666D01*
X150048009Y-82516666D02*
X149971819Y-82478571D01*
X149971819Y-82478571D02*
X149819438Y-82440475D01*
X149819438Y-82440475D02*
X149705152Y-82440475D01*
X149705152Y-82440475D02*
X149552771Y-82478571D01*
X149552771Y-82478571D02*
X149476580Y-82516666D01*
X149476580Y-82516666D02*
X149400390Y-82592856D01*
X149400390Y-82592856D02*
X149362295Y-82707142D01*
X149362295Y-82707142D02*
X149362295Y-82783333D01*
X149362295Y-82783333D02*
X149400390Y-82897618D01*
X149400390Y-82897618D02*
X149438485Y-82935714D01*
X150162295Y-83697618D02*
X150162295Y-83240475D01*
X150162295Y-83469047D02*
X149362295Y-83469047D01*
X149362295Y-83469047D02*
X149476580Y-83392856D01*
X149476580Y-83392856D02*
X149552771Y-83316666D01*
X149552771Y-83316666D02*
X149590866Y-83240475D01*
X149362295Y-83964285D02*
X149362295Y-84459523D01*
X149362295Y-84459523D02*
X149667057Y-84192857D01*
X149667057Y-84192857D02*
X149667057Y-84307142D01*
X149667057Y-84307142D02*
X149705152Y-84383333D01*
X149705152Y-84383333D02*
X149743247Y-84421428D01*
X149743247Y-84421428D02*
X149819438Y-84459523D01*
X149819438Y-84459523D02*
X150009914Y-84459523D01*
X150009914Y-84459523D02*
X150086104Y-84421428D01*
X150086104Y-84421428D02*
X150124200Y-84383333D01*
X150124200Y-84383333D02*
X150162295Y-84307142D01*
X150162295Y-84307142D02*
X150162295Y-84078571D01*
X150162295Y-84078571D02*
X150124200Y-84002380D01*
X150124200Y-84002380D02*
X150086104Y-83964285D01*
D11*
X149649695Y-63825714D02*
X149268742Y-63559047D01*
X149649695Y-63368571D02*
X148849695Y-63368571D01*
X148849695Y-63368571D02*
X148849695Y-63673333D01*
X148849695Y-63673333D02*
X148887790Y-63749523D01*
X148887790Y-63749523D02*
X148925885Y-63787618D01*
X148925885Y-63787618D02*
X149002076Y-63825714D01*
X149002076Y-63825714D02*
X149116361Y-63825714D01*
X149116361Y-63825714D02*
X149192552Y-63787618D01*
X149192552Y-63787618D02*
X149230647Y-63749523D01*
X149230647Y-63749523D02*
X149268742Y-63673333D01*
X149268742Y-63673333D02*
X149268742Y-63368571D01*
X148925885Y-64130475D02*
X148887790Y-64168571D01*
X148887790Y-64168571D02*
X148849695Y-64244761D01*
X148849695Y-64244761D02*
X148849695Y-64435237D01*
X148849695Y-64435237D02*
X148887790Y-64511428D01*
X148887790Y-64511428D02*
X148925885Y-64549523D01*
X148925885Y-64549523D02*
X149002076Y-64587618D01*
X149002076Y-64587618D02*
X149078266Y-64587618D01*
X149078266Y-64587618D02*
X149192552Y-64549523D01*
X149192552Y-64549523D02*
X149649695Y-64092380D01*
X149649695Y-64092380D02*
X149649695Y-64587618D01*
X148849695Y-65082857D02*
X148849695Y-65159047D01*
X148849695Y-65159047D02*
X148887790Y-65235238D01*
X148887790Y-65235238D02*
X148925885Y-65273333D01*
X148925885Y-65273333D02*
X149002076Y-65311428D01*
X149002076Y-65311428D02*
X149154457Y-65349523D01*
X149154457Y-65349523D02*
X149344933Y-65349523D01*
X149344933Y-65349523D02*
X149497314Y-65311428D01*
X149497314Y-65311428D02*
X149573504Y-65273333D01*
X149573504Y-65273333D02*
X149611600Y-65235238D01*
X149611600Y-65235238D02*
X149649695Y-65159047D01*
X149649695Y-65159047D02*
X149649695Y-65082857D01*
X149649695Y-65082857D02*
X149611600Y-65006666D01*
X149611600Y-65006666D02*
X149573504Y-64968571D01*
X149573504Y-64968571D02*
X149497314Y-64930476D01*
X149497314Y-64930476D02*
X149344933Y-64892380D01*
X149344933Y-64892380D02*
X149154457Y-64892380D01*
X149154457Y-64892380D02*
X149002076Y-64930476D01*
X149002076Y-64930476D02*
X148925885Y-64968571D01*
X148925885Y-64968571D02*
X148887790Y-65006666D01*
X148887790Y-65006666D02*
X148849695Y-65082857D01*
X152268685Y-107639695D02*
X152535352Y-107258742D01*
X152725828Y-107639695D02*
X152725828Y-106839695D01*
X152725828Y-106839695D02*
X152421066Y-106839695D01*
X152421066Y-106839695D02*
X152344876Y-106877790D01*
X152344876Y-106877790D02*
X152306781Y-106915885D01*
X152306781Y-106915885D02*
X152268685Y-106992076D01*
X152268685Y-106992076D02*
X152268685Y-107106361D01*
X152268685Y-107106361D02*
X152306781Y-107182552D01*
X152306781Y-107182552D02*
X152344876Y-107220647D01*
X152344876Y-107220647D02*
X152421066Y-107258742D01*
X152421066Y-107258742D02*
X152725828Y-107258742D01*
X151506781Y-107639695D02*
X151963924Y-107639695D01*
X151735352Y-107639695D02*
X151735352Y-106839695D01*
X151735352Y-106839695D02*
X151811543Y-106953980D01*
X151811543Y-106953980D02*
X151887733Y-107030171D01*
X151887733Y-107030171D02*
X151963924Y-107068266D01*
X150744876Y-107639695D02*
X151202019Y-107639695D01*
X150973447Y-107639695D02*
X150973447Y-106839695D01*
X150973447Y-106839695D02*
X151049638Y-106953980D01*
X151049638Y-106953980D02*
X151125828Y-107030171D01*
X151125828Y-107030171D02*
X151202019Y-107068266D01*
D10*
X141583332Y-77611104D02*
X141621428Y-77649200D01*
X141621428Y-77649200D02*
X141735713Y-77687295D01*
X141735713Y-77687295D02*
X141811904Y-77687295D01*
X141811904Y-77687295D02*
X141926190Y-77649200D01*
X141926190Y-77649200D02*
X142002380Y-77573009D01*
X142002380Y-77573009D02*
X142040475Y-77496819D01*
X142040475Y-77496819D02*
X142078571Y-77344438D01*
X142078571Y-77344438D02*
X142078571Y-77230152D01*
X142078571Y-77230152D02*
X142040475Y-77077771D01*
X142040475Y-77077771D02*
X142002380Y-77001580D01*
X142002380Y-77001580D02*
X141926190Y-76925390D01*
X141926190Y-76925390D02*
X141811904Y-76887295D01*
X141811904Y-76887295D02*
X141735713Y-76887295D01*
X141735713Y-76887295D02*
X141621428Y-76925390D01*
X141621428Y-76925390D02*
X141583332Y-76963485D01*
X140897618Y-76887295D02*
X141049999Y-76887295D01*
X141049999Y-76887295D02*
X141126190Y-76925390D01*
X141126190Y-76925390D02*
X141164285Y-76963485D01*
X141164285Y-76963485D02*
X141240475Y-77077771D01*
X141240475Y-77077771D02*
X141278571Y-77230152D01*
X141278571Y-77230152D02*
X141278571Y-77534914D01*
X141278571Y-77534914D02*
X141240475Y-77611104D01*
X141240475Y-77611104D02*
X141202380Y-77649200D01*
X141202380Y-77649200D02*
X141126190Y-77687295D01*
X141126190Y-77687295D02*
X140973809Y-77687295D01*
X140973809Y-77687295D02*
X140897618Y-77649200D01*
X140897618Y-77649200D02*
X140859523Y-77611104D01*
X140859523Y-77611104D02*
X140821428Y-77534914D01*
X140821428Y-77534914D02*
X140821428Y-77344438D01*
X140821428Y-77344438D02*
X140859523Y-77268247D01*
X140859523Y-77268247D02*
X140897618Y-77230152D01*
X140897618Y-77230152D02*
X140973809Y-77192057D01*
X140973809Y-77192057D02*
X141126190Y-77192057D01*
X141126190Y-77192057D02*
X141202380Y-77230152D01*
X141202380Y-77230152D02*
X141240475Y-77268247D01*
X141240475Y-77268247D02*
X141278571Y-77344438D01*
D11*
X158254285Y-74599695D02*
X158520952Y-74218742D01*
X158711428Y-74599695D02*
X158711428Y-73799695D01*
X158711428Y-73799695D02*
X158406666Y-73799695D01*
X158406666Y-73799695D02*
X158330476Y-73837790D01*
X158330476Y-73837790D02*
X158292381Y-73875885D01*
X158292381Y-73875885D02*
X158254285Y-73952076D01*
X158254285Y-73952076D02*
X158254285Y-74066361D01*
X158254285Y-74066361D02*
X158292381Y-74142552D01*
X158292381Y-74142552D02*
X158330476Y-74180647D01*
X158330476Y-74180647D02*
X158406666Y-74218742D01*
X158406666Y-74218742D02*
X158711428Y-74218742D01*
X157492381Y-74599695D02*
X157949524Y-74599695D01*
X157720952Y-74599695D02*
X157720952Y-73799695D01*
X157720952Y-73799695D02*
X157797143Y-73913980D01*
X157797143Y-73913980D02*
X157873333Y-73990171D01*
X157873333Y-73990171D02*
X157949524Y-74028266D01*
X156806666Y-74066361D02*
X156806666Y-74599695D01*
X156997142Y-73761600D02*
X157187619Y-74333028D01*
X157187619Y-74333028D02*
X156692380Y-74333028D01*
X152439285Y-68883504D02*
X152477381Y-68921600D01*
X152477381Y-68921600D02*
X152591666Y-68959695D01*
X152591666Y-68959695D02*
X152667857Y-68959695D01*
X152667857Y-68959695D02*
X152782143Y-68921600D01*
X152782143Y-68921600D02*
X152858333Y-68845409D01*
X152858333Y-68845409D02*
X152896428Y-68769219D01*
X152896428Y-68769219D02*
X152934524Y-68616838D01*
X152934524Y-68616838D02*
X152934524Y-68502552D01*
X152934524Y-68502552D02*
X152896428Y-68350171D01*
X152896428Y-68350171D02*
X152858333Y-68273980D01*
X152858333Y-68273980D02*
X152782143Y-68197790D01*
X152782143Y-68197790D02*
X152667857Y-68159695D01*
X152667857Y-68159695D02*
X152591666Y-68159695D01*
X152591666Y-68159695D02*
X152477381Y-68197790D01*
X152477381Y-68197790D02*
X152439285Y-68235885D01*
X151753571Y-68426361D02*
X151753571Y-68959695D01*
X151944047Y-68121600D02*
X152134524Y-68693028D01*
X152134524Y-68693028D02*
X151639285Y-68693028D01*
X150991666Y-68159695D02*
X151144047Y-68159695D01*
X151144047Y-68159695D02*
X151220238Y-68197790D01*
X151220238Y-68197790D02*
X151258333Y-68235885D01*
X151258333Y-68235885D02*
X151334523Y-68350171D01*
X151334523Y-68350171D02*
X151372619Y-68502552D01*
X151372619Y-68502552D02*
X151372619Y-68807314D01*
X151372619Y-68807314D02*
X151334523Y-68883504D01*
X151334523Y-68883504D02*
X151296428Y-68921600D01*
X151296428Y-68921600D02*
X151220238Y-68959695D01*
X151220238Y-68959695D02*
X151067857Y-68959695D01*
X151067857Y-68959695D02*
X150991666Y-68921600D01*
X150991666Y-68921600D02*
X150953571Y-68883504D01*
X150953571Y-68883504D02*
X150915476Y-68807314D01*
X150915476Y-68807314D02*
X150915476Y-68616838D01*
X150915476Y-68616838D02*
X150953571Y-68540647D01*
X150953571Y-68540647D02*
X150991666Y-68502552D01*
X150991666Y-68502552D02*
X151067857Y-68464457D01*
X151067857Y-68464457D02*
X151220238Y-68464457D01*
X151220238Y-68464457D02*
X151296428Y-68502552D01*
X151296428Y-68502552D02*
X151334523Y-68540647D01*
X151334523Y-68540647D02*
X151372619Y-68616838D01*
X147134695Y-68635714D02*
X146753742Y-68369047D01*
X147134695Y-68178571D02*
X146334695Y-68178571D01*
X146334695Y-68178571D02*
X146334695Y-68483333D01*
X146334695Y-68483333D02*
X146372790Y-68559523D01*
X146372790Y-68559523D02*
X146410885Y-68597618D01*
X146410885Y-68597618D02*
X146487076Y-68635714D01*
X146487076Y-68635714D02*
X146601361Y-68635714D01*
X146601361Y-68635714D02*
X146677552Y-68597618D01*
X146677552Y-68597618D02*
X146715647Y-68559523D01*
X146715647Y-68559523D02*
X146753742Y-68483333D01*
X146753742Y-68483333D02*
X146753742Y-68178571D01*
X147134695Y-69397618D02*
X147134695Y-68940475D01*
X147134695Y-69169047D02*
X146334695Y-69169047D01*
X146334695Y-69169047D02*
X146448980Y-69092856D01*
X146448980Y-69092856D02*
X146525171Y-69016666D01*
X146525171Y-69016666D02*
X146563266Y-68940475D01*
X146334695Y-70083333D02*
X146334695Y-69930952D01*
X146334695Y-69930952D02*
X146372790Y-69854761D01*
X146372790Y-69854761D02*
X146410885Y-69816666D01*
X146410885Y-69816666D02*
X146525171Y-69740476D01*
X146525171Y-69740476D02*
X146677552Y-69702380D01*
X146677552Y-69702380D02*
X146982314Y-69702380D01*
X146982314Y-69702380D02*
X147058504Y-69740476D01*
X147058504Y-69740476D02*
X147096600Y-69778571D01*
X147096600Y-69778571D02*
X147134695Y-69854761D01*
X147134695Y-69854761D02*
X147134695Y-70007142D01*
X147134695Y-70007142D02*
X147096600Y-70083333D01*
X147096600Y-70083333D02*
X147058504Y-70121428D01*
X147058504Y-70121428D02*
X146982314Y-70159523D01*
X146982314Y-70159523D02*
X146791838Y-70159523D01*
X146791838Y-70159523D02*
X146715647Y-70121428D01*
X146715647Y-70121428D02*
X146677552Y-70083333D01*
X146677552Y-70083333D02*
X146639457Y-70007142D01*
X146639457Y-70007142D02*
X146639457Y-69854761D01*
X146639457Y-69854761D02*
X146677552Y-69778571D01*
X146677552Y-69778571D02*
X146715647Y-69740476D01*
X146715647Y-69740476D02*
X146791838Y-69702380D01*
X155194285Y-74481004D02*
X155232381Y-74519100D01*
X155232381Y-74519100D02*
X155346666Y-74557195D01*
X155346666Y-74557195D02*
X155422857Y-74557195D01*
X155422857Y-74557195D02*
X155537143Y-74519100D01*
X155537143Y-74519100D02*
X155613333Y-74442909D01*
X155613333Y-74442909D02*
X155651428Y-74366719D01*
X155651428Y-74366719D02*
X155689524Y-74214338D01*
X155689524Y-74214338D02*
X155689524Y-74100052D01*
X155689524Y-74100052D02*
X155651428Y-73947671D01*
X155651428Y-73947671D02*
X155613333Y-73871480D01*
X155613333Y-73871480D02*
X155537143Y-73795290D01*
X155537143Y-73795290D02*
X155422857Y-73757195D01*
X155422857Y-73757195D02*
X155346666Y-73757195D01*
X155346666Y-73757195D02*
X155232381Y-73795290D01*
X155232381Y-73795290D02*
X155194285Y-73833385D01*
X154508571Y-74023861D02*
X154508571Y-74557195D01*
X154699047Y-73719100D02*
X154889524Y-74290528D01*
X154889524Y-74290528D02*
X154394285Y-74290528D01*
X153937142Y-73757195D02*
X153860952Y-73757195D01*
X153860952Y-73757195D02*
X153784761Y-73795290D01*
X153784761Y-73795290D02*
X153746666Y-73833385D01*
X153746666Y-73833385D02*
X153708571Y-73909576D01*
X153708571Y-73909576D02*
X153670476Y-74061957D01*
X153670476Y-74061957D02*
X153670476Y-74252433D01*
X153670476Y-74252433D02*
X153708571Y-74404814D01*
X153708571Y-74404814D02*
X153746666Y-74481004D01*
X153746666Y-74481004D02*
X153784761Y-74519100D01*
X153784761Y-74519100D02*
X153860952Y-74557195D01*
X153860952Y-74557195D02*
X153937142Y-74557195D01*
X153937142Y-74557195D02*
X154013333Y-74519100D01*
X154013333Y-74519100D02*
X154051428Y-74481004D01*
X154051428Y-74481004D02*
X154089523Y-74404814D01*
X154089523Y-74404814D02*
X154127619Y-74252433D01*
X154127619Y-74252433D02*
X154127619Y-74061957D01*
X154127619Y-74061957D02*
X154089523Y-73909576D01*
X154089523Y-73909576D02*
X154051428Y-73833385D01*
X154051428Y-73833385D02*
X154013333Y-73795290D01*
X154013333Y-73795290D02*
X153937142Y-73757195D01*
X155349695Y-61505714D02*
X154968742Y-61239047D01*
X155349695Y-61048571D02*
X154549695Y-61048571D01*
X154549695Y-61048571D02*
X154549695Y-61353333D01*
X154549695Y-61353333D02*
X154587790Y-61429523D01*
X154587790Y-61429523D02*
X154625885Y-61467618D01*
X154625885Y-61467618D02*
X154702076Y-61505714D01*
X154702076Y-61505714D02*
X154816361Y-61505714D01*
X154816361Y-61505714D02*
X154892552Y-61467618D01*
X154892552Y-61467618D02*
X154930647Y-61429523D01*
X154930647Y-61429523D02*
X154968742Y-61353333D01*
X154968742Y-61353333D02*
X154968742Y-61048571D01*
X154549695Y-61772380D02*
X154549695Y-62267618D01*
X154549695Y-62267618D02*
X154854457Y-62000952D01*
X154854457Y-62000952D02*
X154854457Y-62115237D01*
X154854457Y-62115237D02*
X154892552Y-62191428D01*
X154892552Y-62191428D02*
X154930647Y-62229523D01*
X154930647Y-62229523D02*
X155006838Y-62267618D01*
X155006838Y-62267618D02*
X155197314Y-62267618D01*
X155197314Y-62267618D02*
X155273504Y-62229523D01*
X155273504Y-62229523D02*
X155311600Y-62191428D01*
X155311600Y-62191428D02*
X155349695Y-62115237D01*
X155349695Y-62115237D02*
X155349695Y-61886666D01*
X155349695Y-61886666D02*
X155311600Y-61810475D01*
X155311600Y-61810475D02*
X155273504Y-61772380D01*
X154892552Y-62724761D02*
X154854457Y-62648571D01*
X154854457Y-62648571D02*
X154816361Y-62610476D01*
X154816361Y-62610476D02*
X154740171Y-62572380D01*
X154740171Y-62572380D02*
X154702076Y-62572380D01*
X154702076Y-62572380D02*
X154625885Y-62610476D01*
X154625885Y-62610476D02*
X154587790Y-62648571D01*
X154587790Y-62648571D02*
X154549695Y-62724761D01*
X154549695Y-62724761D02*
X154549695Y-62877142D01*
X154549695Y-62877142D02*
X154587790Y-62953333D01*
X154587790Y-62953333D02*
X154625885Y-62991428D01*
X154625885Y-62991428D02*
X154702076Y-63029523D01*
X154702076Y-63029523D02*
X154740171Y-63029523D01*
X154740171Y-63029523D02*
X154816361Y-62991428D01*
X154816361Y-62991428D02*
X154854457Y-62953333D01*
X154854457Y-62953333D02*
X154892552Y-62877142D01*
X154892552Y-62877142D02*
X154892552Y-62724761D01*
X154892552Y-62724761D02*
X154930647Y-62648571D01*
X154930647Y-62648571D02*
X154968742Y-62610476D01*
X154968742Y-62610476D02*
X155044933Y-62572380D01*
X155044933Y-62572380D02*
X155197314Y-62572380D01*
X155197314Y-62572380D02*
X155273504Y-62610476D01*
X155273504Y-62610476D02*
X155311600Y-62648571D01*
X155311600Y-62648571D02*
X155349695Y-62724761D01*
X155349695Y-62724761D02*
X155349695Y-62877142D01*
X155349695Y-62877142D02*
X155311600Y-62953333D01*
X155311600Y-62953333D02*
X155273504Y-62991428D01*
X155273504Y-62991428D02*
X155197314Y-63029523D01*
X155197314Y-63029523D02*
X155044933Y-63029523D01*
X155044933Y-63029523D02*
X154968742Y-62991428D01*
X154968742Y-62991428D02*
X154930647Y-62953333D01*
X154930647Y-62953333D02*
X154892552Y-62877142D01*
D10*
X153064285Y-84136104D02*
X153102381Y-84174200D01*
X153102381Y-84174200D02*
X153216666Y-84212295D01*
X153216666Y-84212295D02*
X153292857Y-84212295D01*
X153292857Y-84212295D02*
X153407143Y-84174200D01*
X153407143Y-84174200D02*
X153483333Y-84098009D01*
X153483333Y-84098009D02*
X153521428Y-84021819D01*
X153521428Y-84021819D02*
X153559524Y-83869438D01*
X153559524Y-83869438D02*
X153559524Y-83755152D01*
X153559524Y-83755152D02*
X153521428Y-83602771D01*
X153521428Y-83602771D02*
X153483333Y-83526580D01*
X153483333Y-83526580D02*
X153407143Y-83450390D01*
X153407143Y-83450390D02*
X153292857Y-83412295D01*
X153292857Y-83412295D02*
X153216666Y-83412295D01*
X153216666Y-83412295D02*
X153102381Y-83450390D01*
X153102381Y-83450390D02*
X153064285Y-83488485D01*
X152759524Y-83488485D02*
X152721428Y-83450390D01*
X152721428Y-83450390D02*
X152645238Y-83412295D01*
X152645238Y-83412295D02*
X152454762Y-83412295D01*
X152454762Y-83412295D02*
X152378571Y-83450390D01*
X152378571Y-83450390D02*
X152340476Y-83488485D01*
X152340476Y-83488485D02*
X152302381Y-83564676D01*
X152302381Y-83564676D02*
X152302381Y-83640866D01*
X152302381Y-83640866D02*
X152340476Y-83755152D01*
X152340476Y-83755152D02*
X152797619Y-84212295D01*
X152797619Y-84212295D02*
X152302381Y-84212295D01*
X151616666Y-83412295D02*
X151769047Y-83412295D01*
X151769047Y-83412295D02*
X151845238Y-83450390D01*
X151845238Y-83450390D02*
X151883333Y-83488485D01*
X151883333Y-83488485D02*
X151959523Y-83602771D01*
X151959523Y-83602771D02*
X151997619Y-83755152D01*
X151997619Y-83755152D02*
X151997619Y-84059914D01*
X151997619Y-84059914D02*
X151959523Y-84136104D01*
X151959523Y-84136104D02*
X151921428Y-84174200D01*
X151921428Y-84174200D02*
X151845238Y-84212295D01*
X151845238Y-84212295D02*
X151692857Y-84212295D01*
X151692857Y-84212295D02*
X151616666Y-84174200D01*
X151616666Y-84174200D02*
X151578571Y-84136104D01*
X151578571Y-84136104D02*
X151540476Y-84059914D01*
X151540476Y-84059914D02*
X151540476Y-83869438D01*
X151540476Y-83869438D02*
X151578571Y-83793247D01*
X151578571Y-83793247D02*
X151616666Y-83755152D01*
X151616666Y-83755152D02*
X151692857Y-83717057D01*
X151692857Y-83717057D02*
X151845238Y-83717057D01*
X151845238Y-83717057D02*
X151921428Y-83755152D01*
X151921428Y-83755152D02*
X151959523Y-83793247D01*
X151959523Y-83793247D02*
X151997619Y-83869438D01*
D11*
X161253504Y-66425714D02*
X161291600Y-66387618D01*
X161291600Y-66387618D02*
X161329695Y-66273333D01*
X161329695Y-66273333D02*
X161329695Y-66197142D01*
X161329695Y-66197142D02*
X161291600Y-66082856D01*
X161291600Y-66082856D02*
X161215409Y-66006666D01*
X161215409Y-66006666D02*
X161139219Y-65968571D01*
X161139219Y-65968571D02*
X160986838Y-65930475D01*
X160986838Y-65930475D02*
X160872552Y-65930475D01*
X160872552Y-65930475D02*
X160720171Y-65968571D01*
X160720171Y-65968571D02*
X160643980Y-66006666D01*
X160643980Y-66006666D02*
X160567790Y-66082856D01*
X160567790Y-66082856D02*
X160529695Y-66197142D01*
X160529695Y-66197142D02*
X160529695Y-66273333D01*
X160529695Y-66273333D02*
X160567790Y-66387618D01*
X160567790Y-66387618D02*
X160605885Y-66425714D01*
X160529695Y-67111428D02*
X160529695Y-66959047D01*
X160529695Y-66959047D02*
X160567790Y-66882856D01*
X160567790Y-66882856D02*
X160605885Y-66844761D01*
X160605885Y-66844761D02*
X160720171Y-66768571D01*
X160720171Y-66768571D02*
X160872552Y-66730475D01*
X160872552Y-66730475D02*
X161177314Y-66730475D01*
X161177314Y-66730475D02*
X161253504Y-66768571D01*
X161253504Y-66768571D02*
X161291600Y-66806666D01*
X161291600Y-66806666D02*
X161329695Y-66882856D01*
X161329695Y-66882856D02*
X161329695Y-67035237D01*
X161329695Y-67035237D02*
X161291600Y-67111428D01*
X161291600Y-67111428D02*
X161253504Y-67149523D01*
X161253504Y-67149523D02*
X161177314Y-67187618D01*
X161177314Y-67187618D02*
X160986838Y-67187618D01*
X160986838Y-67187618D02*
X160910647Y-67149523D01*
X160910647Y-67149523D02*
X160872552Y-67111428D01*
X160872552Y-67111428D02*
X160834457Y-67035237D01*
X160834457Y-67035237D02*
X160834457Y-66882856D01*
X160834457Y-66882856D02*
X160872552Y-66806666D01*
X160872552Y-66806666D02*
X160910647Y-66768571D01*
X160910647Y-66768571D02*
X160986838Y-66730475D01*
X160529695Y-67454285D02*
X160529695Y-67949523D01*
X160529695Y-67949523D02*
X160834457Y-67682857D01*
X160834457Y-67682857D02*
X160834457Y-67797142D01*
X160834457Y-67797142D02*
X160872552Y-67873333D01*
X160872552Y-67873333D02*
X160910647Y-67911428D01*
X160910647Y-67911428D02*
X160986838Y-67949523D01*
X160986838Y-67949523D02*
X161177314Y-67949523D01*
X161177314Y-67949523D02*
X161253504Y-67911428D01*
X161253504Y-67911428D02*
X161291600Y-67873333D01*
X161291600Y-67873333D02*
X161329695Y-67797142D01*
X161329695Y-67797142D02*
X161329695Y-67568571D01*
X161329695Y-67568571D02*
X161291600Y-67492380D01*
X161291600Y-67492380D02*
X161253504Y-67454285D01*
D10*
X155989285Y-82061104D02*
X156027381Y-82099200D01*
X156027381Y-82099200D02*
X156141666Y-82137295D01*
X156141666Y-82137295D02*
X156217857Y-82137295D01*
X156217857Y-82137295D02*
X156332143Y-82099200D01*
X156332143Y-82099200D02*
X156408333Y-82023009D01*
X156408333Y-82023009D02*
X156446428Y-81946819D01*
X156446428Y-81946819D02*
X156484524Y-81794438D01*
X156484524Y-81794438D02*
X156484524Y-81680152D01*
X156484524Y-81680152D02*
X156446428Y-81527771D01*
X156446428Y-81527771D02*
X156408333Y-81451580D01*
X156408333Y-81451580D02*
X156332143Y-81375390D01*
X156332143Y-81375390D02*
X156217857Y-81337295D01*
X156217857Y-81337295D02*
X156141666Y-81337295D01*
X156141666Y-81337295D02*
X156027381Y-81375390D01*
X156027381Y-81375390D02*
X155989285Y-81413485D01*
X155684524Y-81413485D02*
X155646428Y-81375390D01*
X155646428Y-81375390D02*
X155570238Y-81337295D01*
X155570238Y-81337295D02*
X155379762Y-81337295D01*
X155379762Y-81337295D02*
X155303571Y-81375390D01*
X155303571Y-81375390D02*
X155265476Y-81413485D01*
X155265476Y-81413485D02*
X155227381Y-81489676D01*
X155227381Y-81489676D02*
X155227381Y-81565866D01*
X155227381Y-81565866D02*
X155265476Y-81680152D01*
X155265476Y-81680152D02*
X155722619Y-82137295D01*
X155722619Y-82137295D02*
X155227381Y-82137295D01*
X154960714Y-81337295D02*
X154427380Y-81337295D01*
X154427380Y-81337295D02*
X154770238Y-82137295D01*
X141583332Y-78586104D02*
X141621428Y-78624200D01*
X141621428Y-78624200D02*
X141735713Y-78662295D01*
X141735713Y-78662295D02*
X141811904Y-78662295D01*
X141811904Y-78662295D02*
X141926190Y-78624200D01*
X141926190Y-78624200D02*
X142002380Y-78548009D01*
X142002380Y-78548009D02*
X142040475Y-78471819D01*
X142040475Y-78471819D02*
X142078571Y-78319438D01*
X142078571Y-78319438D02*
X142078571Y-78205152D01*
X142078571Y-78205152D02*
X142040475Y-78052771D01*
X142040475Y-78052771D02*
X142002380Y-77976580D01*
X142002380Y-77976580D02*
X141926190Y-77900390D01*
X141926190Y-77900390D02*
X141811904Y-77862295D01*
X141811904Y-77862295D02*
X141735713Y-77862295D01*
X141735713Y-77862295D02*
X141621428Y-77900390D01*
X141621428Y-77900390D02*
X141583332Y-77938485D01*
X141316666Y-77862295D02*
X140783332Y-77862295D01*
X140783332Y-77862295D02*
X141126190Y-78662295D01*
X152189285Y-74086104D02*
X152227381Y-74124200D01*
X152227381Y-74124200D02*
X152341666Y-74162295D01*
X152341666Y-74162295D02*
X152417857Y-74162295D01*
X152417857Y-74162295D02*
X152532143Y-74124200D01*
X152532143Y-74124200D02*
X152608333Y-74048009D01*
X152608333Y-74048009D02*
X152646428Y-73971819D01*
X152646428Y-73971819D02*
X152684524Y-73819438D01*
X152684524Y-73819438D02*
X152684524Y-73705152D01*
X152684524Y-73705152D02*
X152646428Y-73552771D01*
X152646428Y-73552771D02*
X152608333Y-73476580D01*
X152608333Y-73476580D02*
X152532143Y-73400390D01*
X152532143Y-73400390D02*
X152417857Y-73362295D01*
X152417857Y-73362295D02*
X152341666Y-73362295D01*
X152341666Y-73362295D02*
X152227381Y-73400390D01*
X152227381Y-73400390D02*
X152189285Y-73438485D01*
X151884524Y-73438485D02*
X151846428Y-73400390D01*
X151846428Y-73400390D02*
X151770238Y-73362295D01*
X151770238Y-73362295D02*
X151579762Y-73362295D01*
X151579762Y-73362295D02*
X151503571Y-73400390D01*
X151503571Y-73400390D02*
X151465476Y-73438485D01*
X151465476Y-73438485D02*
X151427381Y-73514676D01*
X151427381Y-73514676D02*
X151427381Y-73590866D01*
X151427381Y-73590866D02*
X151465476Y-73705152D01*
X151465476Y-73705152D02*
X151922619Y-74162295D01*
X151922619Y-74162295D02*
X151427381Y-74162295D01*
X150741666Y-73628961D02*
X150741666Y-74162295D01*
X150932142Y-73324200D02*
X151122619Y-73895628D01*
X151122619Y-73895628D02*
X150627380Y-73895628D01*
X152214285Y-75186104D02*
X152252381Y-75224200D01*
X152252381Y-75224200D02*
X152366666Y-75262295D01*
X152366666Y-75262295D02*
X152442857Y-75262295D01*
X152442857Y-75262295D02*
X152557143Y-75224200D01*
X152557143Y-75224200D02*
X152633333Y-75148009D01*
X152633333Y-75148009D02*
X152671428Y-75071819D01*
X152671428Y-75071819D02*
X152709524Y-74919438D01*
X152709524Y-74919438D02*
X152709524Y-74805152D01*
X152709524Y-74805152D02*
X152671428Y-74652771D01*
X152671428Y-74652771D02*
X152633333Y-74576580D01*
X152633333Y-74576580D02*
X152557143Y-74500390D01*
X152557143Y-74500390D02*
X152442857Y-74462295D01*
X152442857Y-74462295D02*
X152366666Y-74462295D01*
X152366666Y-74462295D02*
X152252381Y-74500390D01*
X152252381Y-74500390D02*
X152214285Y-74538485D01*
X151909524Y-74538485D02*
X151871428Y-74500390D01*
X151871428Y-74500390D02*
X151795238Y-74462295D01*
X151795238Y-74462295D02*
X151604762Y-74462295D01*
X151604762Y-74462295D02*
X151528571Y-74500390D01*
X151528571Y-74500390D02*
X151490476Y-74538485D01*
X151490476Y-74538485D02*
X151452381Y-74614676D01*
X151452381Y-74614676D02*
X151452381Y-74690866D01*
X151452381Y-74690866D02*
X151490476Y-74805152D01*
X151490476Y-74805152D02*
X151947619Y-75262295D01*
X151947619Y-75262295D02*
X151452381Y-75262295D01*
X151185714Y-74462295D02*
X150690476Y-74462295D01*
X150690476Y-74462295D02*
X150957142Y-74767057D01*
X150957142Y-74767057D02*
X150842857Y-74767057D01*
X150842857Y-74767057D02*
X150766666Y-74805152D01*
X150766666Y-74805152D02*
X150728571Y-74843247D01*
X150728571Y-74843247D02*
X150690476Y-74919438D01*
X150690476Y-74919438D02*
X150690476Y-75109914D01*
X150690476Y-75109914D02*
X150728571Y-75186104D01*
X150728571Y-75186104D02*
X150766666Y-75224200D01*
X150766666Y-75224200D02*
X150842857Y-75262295D01*
X150842857Y-75262295D02*
X151071428Y-75262295D01*
X151071428Y-75262295D02*
X151147619Y-75224200D01*
X151147619Y-75224200D02*
X151185714Y-75186104D01*
D11*
X143878504Y-107510714D02*
X143916600Y-107472618D01*
X143916600Y-107472618D02*
X143954695Y-107358333D01*
X143954695Y-107358333D02*
X143954695Y-107282142D01*
X143954695Y-107282142D02*
X143916600Y-107167856D01*
X143916600Y-107167856D02*
X143840409Y-107091666D01*
X143840409Y-107091666D02*
X143764219Y-107053571D01*
X143764219Y-107053571D02*
X143611838Y-107015475D01*
X143611838Y-107015475D02*
X143497552Y-107015475D01*
X143497552Y-107015475D02*
X143345171Y-107053571D01*
X143345171Y-107053571D02*
X143268980Y-107091666D01*
X143268980Y-107091666D02*
X143192790Y-107167856D01*
X143192790Y-107167856D02*
X143154695Y-107282142D01*
X143154695Y-107282142D02*
X143154695Y-107358333D01*
X143154695Y-107358333D02*
X143192790Y-107472618D01*
X143192790Y-107472618D02*
X143230885Y-107510714D01*
X143230885Y-107815475D02*
X143192790Y-107853571D01*
X143192790Y-107853571D02*
X143154695Y-107929761D01*
X143154695Y-107929761D02*
X143154695Y-108120237D01*
X143154695Y-108120237D02*
X143192790Y-108196428D01*
X143192790Y-108196428D02*
X143230885Y-108234523D01*
X143230885Y-108234523D02*
X143307076Y-108272618D01*
X143307076Y-108272618D02*
X143383266Y-108272618D01*
X143383266Y-108272618D02*
X143497552Y-108234523D01*
X143497552Y-108234523D02*
X143954695Y-107777380D01*
X143954695Y-107777380D02*
X143954695Y-108272618D01*
X143954695Y-109034523D02*
X143954695Y-108577380D01*
X143954695Y-108805952D02*
X143154695Y-108805952D01*
X143154695Y-108805952D02*
X143268980Y-108729761D01*
X143268980Y-108729761D02*
X143345171Y-108653571D01*
X143345171Y-108653571D02*
X143383266Y-108577380D01*
D10*
X141989285Y-80661104D02*
X142027381Y-80699200D01*
X142027381Y-80699200D02*
X142141666Y-80737295D01*
X142141666Y-80737295D02*
X142217857Y-80737295D01*
X142217857Y-80737295D02*
X142332143Y-80699200D01*
X142332143Y-80699200D02*
X142408333Y-80623009D01*
X142408333Y-80623009D02*
X142446428Y-80546819D01*
X142446428Y-80546819D02*
X142484524Y-80394438D01*
X142484524Y-80394438D02*
X142484524Y-80280152D01*
X142484524Y-80280152D02*
X142446428Y-80127771D01*
X142446428Y-80127771D02*
X142408333Y-80051580D01*
X142408333Y-80051580D02*
X142332143Y-79975390D01*
X142332143Y-79975390D02*
X142217857Y-79937295D01*
X142217857Y-79937295D02*
X142141666Y-79937295D01*
X142141666Y-79937295D02*
X142027381Y-79975390D01*
X142027381Y-79975390D02*
X141989285Y-80013485D01*
X141227381Y-80737295D02*
X141684524Y-80737295D01*
X141455952Y-80737295D02*
X141455952Y-79937295D01*
X141455952Y-79937295D02*
X141532143Y-80051580D01*
X141532143Y-80051580D02*
X141608333Y-80127771D01*
X141608333Y-80127771D02*
X141684524Y-80165866D01*
X140541666Y-79937295D02*
X140694047Y-79937295D01*
X140694047Y-79937295D02*
X140770238Y-79975390D01*
X140770238Y-79975390D02*
X140808333Y-80013485D01*
X140808333Y-80013485D02*
X140884523Y-80127771D01*
X140884523Y-80127771D02*
X140922619Y-80280152D01*
X140922619Y-80280152D02*
X140922619Y-80584914D01*
X140922619Y-80584914D02*
X140884523Y-80661104D01*
X140884523Y-80661104D02*
X140846428Y-80699200D01*
X140846428Y-80699200D02*
X140770238Y-80737295D01*
X140770238Y-80737295D02*
X140617857Y-80737295D01*
X140617857Y-80737295D02*
X140541666Y-80699200D01*
X140541666Y-80699200D02*
X140503571Y-80661104D01*
X140503571Y-80661104D02*
X140465476Y-80584914D01*
X140465476Y-80584914D02*
X140465476Y-80394438D01*
X140465476Y-80394438D02*
X140503571Y-80318247D01*
X140503571Y-80318247D02*
X140541666Y-80280152D01*
X140541666Y-80280152D02*
X140617857Y-80242057D01*
X140617857Y-80242057D02*
X140770238Y-80242057D01*
X140770238Y-80242057D02*
X140846428Y-80280152D01*
X140846428Y-80280152D02*
X140884523Y-80318247D01*
X140884523Y-80318247D02*
X140922619Y-80394438D01*
D11*
X126320237Y-78858504D02*
X126358333Y-78896600D01*
X126358333Y-78896600D02*
X126472618Y-78934695D01*
X126472618Y-78934695D02*
X126548809Y-78934695D01*
X126548809Y-78934695D02*
X126663095Y-78896600D01*
X126663095Y-78896600D02*
X126739285Y-78820409D01*
X126739285Y-78820409D02*
X126777380Y-78744219D01*
X126777380Y-78744219D02*
X126815476Y-78591838D01*
X126815476Y-78591838D02*
X126815476Y-78477552D01*
X126815476Y-78477552D02*
X126777380Y-78325171D01*
X126777380Y-78325171D02*
X126739285Y-78248980D01*
X126739285Y-78248980D02*
X126663095Y-78172790D01*
X126663095Y-78172790D02*
X126548809Y-78134695D01*
X126548809Y-78134695D02*
X126472618Y-78134695D01*
X126472618Y-78134695D02*
X126358333Y-78172790D01*
X126358333Y-78172790D02*
X126320237Y-78210885D01*
X125558333Y-78934695D02*
X126015476Y-78934695D01*
X125786904Y-78934695D02*
X125786904Y-78134695D01*
X125786904Y-78134695D02*
X125863095Y-78248980D01*
X125863095Y-78248980D02*
X125939285Y-78325171D01*
X125939285Y-78325171D02*
X126015476Y-78363266D01*
X124796428Y-78934695D02*
X125253571Y-78934695D01*
X125024999Y-78934695D02*
X125024999Y-78134695D01*
X125024999Y-78134695D02*
X125101190Y-78248980D01*
X125101190Y-78248980D02*
X125177380Y-78325171D01*
X125177380Y-78325171D02*
X125253571Y-78363266D01*
X124529761Y-78134695D02*
X124034523Y-78134695D01*
X124034523Y-78134695D02*
X124301189Y-78439457D01*
X124301189Y-78439457D02*
X124186904Y-78439457D01*
X124186904Y-78439457D02*
X124110713Y-78477552D01*
X124110713Y-78477552D02*
X124072618Y-78515647D01*
X124072618Y-78515647D02*
X124034523Y-78591838D01*
X124034523Y-78591838D02*
X124034523Y-78782314D01*
X124034523Y-78782314D02*
X124072618Y-78858504D01*
X124072618Y-78858504D02*
X124110713Y-78896600D01*
X124110713Y-78896600D02*
X124186904Y-78934695D01*
X124186904Y-78934695D02*
X124415475Y-78934695D01*
X124415475Y-78934695D02*
X124491666Y-78896600D01*
X124491666Y-78896600D02*
X124529761Y-78858504D01*
D10*
X148686104Y-83135714D02*
X148724200Y-83097618D01*
X148724200Y-83097618D02*
X148762295Y-82983333D01*
X148762295Y-82983333D02*
X148762295Y-82907142D01*
X148762295Y-82907142D02*
X148724200Y-82792856D01*
X148724200Y-82792856D02*
X148648009Y-82716666D01*
X148648009Y-82716666D02*
X148571819Y-82678571D01*
X148571819Y-82678571D02*
X148419438Y-82640475D01*
X148419438Y-82640475D02*
X148305152Y-82640475D01*
X148305152Y-82640475D02*
X148152771Y-82678571D01*
X148152771Y-82678571D02*
X148076580Y-82716666D01*
X148076580Y-82716666D02*
X148000390Y-82792856D01*
X148000390Y-82792856D02*
X147962295Y-82907142D01*
X147962295Y-82907142D02*
X147962295Y-82983333D01*
X147962295Y-82983333D02*
X148000390Y-83097618D01*
X148000390Y-83097618D02*
X148038485Y-83135714D01*
X148762295Y-83897618D02*
X148762295Y-83440475D01*
X148762295Y-83669047D02*
X147962295Y-83669047D01*
X147962295Y-83669047D02*
X148076580Y-83592856D01*
X148076580Y-83592856D02*
X148152771Y-83516666D01*
X148152771Y-83516666D02*
X148190866Y-83440475D01*
X148038485Y-84202380D02*
X148000390Y-84240476D01*
X148000390Y-84240476D02*
X147962295Y-84316666D01*
X147962295Y-84316666D02*
X147962295Y-84507142D01*
X147962295Y-84507142D02*
X148000390Y-84583333D01*
X148000390Y-84583333D02*
X148038485Y-84621428D01*
X148038485Y-84621428D02*
X148114676Y-84659523D01*
X148114676Y-84659523D02*
X148190866Y-84659523D01*
X148190866Y-84659523D02*
X148305152Y-84621428D01*
X148305152Y-84621428D02*
X148762295Y-84164285D01*
X148762295Y-84164285D02*
X148762295Y-84659523D01*
D11*
X145584695Y-86235714D02*
X145203742Y-85969047D01*
X145584695Y-85778571D02*
X144784695Y-85778571D01*
X144784695Y-85778571D02*
X144784695Y-86083333D01*
X144784695Y-86083333D02*
X144822790Y-86159523D01*
X144822790Y-86159523D02*
X144860885Y-86197618D01*
X144860885Y-86197618D02*
X144937076Y-86235714D01*
X144937076Y-86235714D02*
X145051361Y-86235714D01*
X145051361Y-86235714D02*
X145127552Y-86197618D01*
X145127552Y-86197618D02*
X145165647Y-86159523D01*
X145165647Y-86159523D02*
X145203742Y-86083333D01*
X145203742Y-86083333D02*
X145203742Y-85778571D01*
X144860885Y-86540475D02*
X144822790Y-86578571D01*
X144822790Y-86578571D02*
X144784695Y-86654761D01*
X144784695Y-86654761D02*
X144784695Y-86845237D01*
X144784695Y-86845237D02*
X144822790Y-86921428D01*
X144822790Y-86921428D02*
X144860885Y-86959523D01*
X144860885Y-86959523D02*
X144937076Y-86997618D01*
X144937076Y-86997618D02*
X145013266Y-86997618D01*
X145013266Y-86997618D02*
X145127552Y-86959523D01*
X145127552Y-86959523D02*
X145584695Y-86502380D01*
X145584695Y-86502380D02*
X145584695Y-86997618D01*
X144784695Y-87264285D02*
X144784695Y-87759523D01*
X144784695Y-87759523D02*
X145089457Y-87492857D01*
X145089457Y-87492857D02*
X145089457Y-87607142D01*
X145089457Y-87607142D02*
X145127552Y-87683333D01*
X145127552Y-87683333D02*
X145165647Y-87721428D01*
X145165647Y-87721428D02*
X145241838Y-87759523D01*
X145241838Y-87759523D02*
X145432314Y-87759523D01*
X145432314Y-87759523D02*
X145508504Y-87721428D01*
X145508504Y-87721428D02*
X145546600Y-87683333D01*
X145546600Y-87683333D02*
X145584695Y-87607142D01*
X145584695Y-87607142D02*
X145584695Y-87378571D01*
X145584695Y-87378571D02*
X145546600Y-87302380D01*
X145546600Y-87302380D02*
X145508504Y-87264285D01*
X141620237Y-72758504D02*
X141658333Y-72796600D01*
X141658333Y-72796600D02*
X141772618Y-72834695D01*
X141772618Y-72834695D02*
X141848809Y-72834695D01*
X141848809Y-72834695D02*
X141963095Y-72796600D01*
X141963095Y-72796600D02*
X142039285Y-72720409D01*
X142039285Y-72720409D02*
X142077380Y-72644219D01*
X142077380Y-72644219D02*
X142115476Y-72491838D01*
X142115476Y-72491838D02*
X142115476Y-72377552D01*
X142115476Y-72377552D02*
X142077380Y-72225171D01*
X142077380Y-72225171D02*
X142039285Y-72148980D01*
X142039285Y-72148980D02*
X141963095Y-72072790D01*
X141963095Y-72072790D02*
X141848809Y-72034695D01*
X141848809Y-72034695D02*
X141772618Y-72034695D01*
X141772618Y-72034695D02*
X141658333Y-72072790D01*
X141658333Y-72072790D02*
X141620237Y-72110885D01*
X140858333Y-72834695D02*
X141315476Y-72834695D01*
X141086904Y-72834695D02*
X141086904Y-72034695D01*
X141086904Y-72034695D02*
X141163095Y-72148980D01*
X141163095Y-72148980D02*
X141239285Y-72225171D01*
X141239285Y-72225171D02*
X141315476Y-72263266D01*
X140363094Y-72034695D02*
X140286904Y-72034695D01*
X140286904Y-72034695D02*
X140210713Y-72072790D01*
X140210713Y-72072790D02*
X140172618Y-72110885D01*
X140172618Y-72110885D02*
X140134523Y-72187076D01*
X140134523Y-72187076D02*
X140096428Y-72339457D01*
X140096428Y-72339457D02*
X140096428Y-72529933D01*
X140096428Y-72529933D02*
X140134523Y-72682314D01*
X140134523Y-72682314D02*
X140172618Y-72758504D01*
X140172618Y-72758504D02*
X140210713Y-72796600D01*
X140210713Y-72796600D02*
X140286904Y-72834695D01*
X140286904Y-72834695D02*
X140363094Y-72834695D01*
X140363094Y-72834695D02*
X140439285Y-72796600D01*
X140439285Y-72796600D02*
X140477380Y-72758504D01*
X140477380Y-72758504D02*
X140515475Y-72682314D01*
X140515475Y-72682314D02*
X140553571Y-72529933D01*
X140553571Y-72529933D02*
X140553571Y-72339457D01*
X140553571Y-72339457D02*
X140515475Y-72187076D01*
X140515475Y-72187076D02*
X140477380Y-72110885D01*
X140477380Y-72110885D02*
X140439285Y-72072790D01*
X140439285Y-72072790D02*
X140363094Y-72034695D01*
X139829761Y-72034695D02*
X139296427Y-72034695D01*
X139296427Y-72034695D02*
X139639285Y-72834695D01*
X165049695Y-62005714D02*
X164668742Y-61739047D01*
X165049695Y-61548571D02*
X164249695Y-61548571D01*
X164249695Y-61548571D02*
X164249695Y-61853333D01*
X164249695Y-61853333D02*
X164287790Y-61929523D01*
X164287790Y-61929523D02*
X164325885Y-61967618D01*
X164325885Y-61967618D02*
X164402076Y-62005714D01*
X164402076Y-62005714D02*
X164516361Y-62005714D01*
X164516361Y-62005714D02*
X164592552Y-61967618D01*
X164592552Y-61967618D02*
X164630647Y-61929523D01*
X164630647Y-61929523D02*
X164668742Y-61853333D01*
X164668742Y-61853333D02*
X164668742Y-61548571D01*
X164325885Y-62310475D02*
X164287790Y-62348571D01*
X164287790Y-62348571D02*
X164249695Y-62424761D01*
X164249695Y-62424761D02*
X164249695Y-62615237D01*
X164249695Y-62615237D02*
X164287790Y-62691428D01*
X164287790Y-62691428D02*
X164325885Y-62729523D01*
X164325885Y-62729523D02*
X164402076Y-62767618D01*
X164402076Y-62767618D02*
X164478266Y-62767618D01*
X164478266Y-62767618D02*
X164592552Y-62729523D01*
X164592552Y-62729523D02*
X165049695Y-62272380D01*
X165049695Y-62272380D02*
X165049695Y-62767618D01*
X165049695Y-63148571D02*
X165049695Y-63300952D01*
X165049695Y-63300952D02*
X165011600Y-63377142D01*
X165011600Y-63377142D02*
X164973504Y-63415238D01*
X164973504Y-63415238D02*
X164859219Y-63491428D01*
X164859219Y-63491428D02*
X164706838Y-63529523D01*
X164706838Y-63529523D02*
X164402076Y-63529523D01*
X164402076Y-63529523D02*
X164325885Y-63491428D01*
X164325885Y-63491428D02*
X164287790Y-63453333D01*
X164287790Y-63453333D02*
X164249695Y-63377142D01*
X164249695Y-63377142D02*
X164249695Y-63224761D01*
X164249695Y-63224761D02*
X164287790Y-63148571D01*
X164287790Y-63148571D02*
X164325885Y-63110476D01*
X164325885Y-63110476D02*
X164402076Y-63072380D01*
X164402076Y-63072380D02*
X164592552Y-63072380D01*
X164592552Y-63072380D02*
X164668742Y-63110476D01*
X164668742Y-63110476D02*
X164706838Y-63148571D01*
X164706838Y-63148571D02*
X164744933Y-63224761D01*
X164744933Y-63224761D02*
X164744933Y-63377142D01*
X164744933Y-63377142D02*
X164706838Y-63453333D01*
X164706838Y-63453333D02*
X164668742Y-63491428D01*
X164668742Y-63491428D02*
X164592552Y-63529523D01*
D12*
%TO.C,C17*%
X143787164Y-80990000D02*
X144002836Y-80990000D01*
X143787164Y-81710000D02*
X144002836Y-81710000D01*
%TO.C,R46*%
X148277500Y-59270446D02*
X148277500Y-58795930D01*
X149322500Y-59270446D02*
X149322500Y-58795930D01*
%TO.C,R13*%
X157987258Y-76577500D02*
X157512742Y-76577500D01*
X157987258Y-77622500D02*
X157512742Y-77622500D01*
%TO.C,C110*%
X134798769Y-71991301D02*
X134517609Y-71991301D01*
X134798769Y-73011301D02*
X134517609Y-73011301D01*
%TO.C,R10*%
X156039400Y-105794420D02*
X156039400Y-106075580D01*
X157059400Y-105794420D02*
X157059400Y-106075580D01*
%TO.C,C45*%
X134759420Y-81865000D02*
X135040580Y-81865000D01*
X134759420Y-82885000D02*
X135040580Y-82885000D01*
%TO.C,C83*%
X137540001Y-61648768D02*
X137540001Y-61367608D01*
X138560001Y-61648768D02*
X138560001Y-61367608D01*
%TO.C,C25*%
X153067164Y-80290000D02*
X153282836Y-80290000D01*
X153067164Y-81010000D02*
X153282836Y-81010000D01*
%TO.C,R47*%
X140237743Y-58035688D02*
X140712259Y-58035688D01*
X140237743Y-59080688D02*
X140712259Y-59080688D01*
D11*
%TO.C,J1*%
X126583400Y-46017139D02*
X126583400Y-46212139D01*
X126583400Y-50467139D02*
X126583400Y-49672139D01*
X128103400Y-51987139D02*
X126583400Y-50467139D01*
X129333400Y-46017139D02*
X126583400Y-46017139D01*
X129333400Y-51987139D02*
X128103400Y-51987139D01*
X164333400Y-46017139D02*
X166583400Y-46017139D01*
X164333400Y-51987139D02*
X165063400Y-51987139D01*
X165063400Y-51987139D02*
X166583400Y-50467139D01*
X166583400Y-46017139D02*
X166583400Y-46212139D01*
X166583400Y-50467139D02*
X166583400Y-49672139D01*
X164083400Y-44702139D02*
G75*
G02*
X163883400Y-44702139I-100000J0D01*
G01*
X163883400Y-44702139D02*
G75*
G02*
X164083400Y-44702139I100000J0D01*
G01*
D12*
%TO.C,C79*%
X144890000Y-61223768D02*
X144890000Y-60942608D01*
X145910000Y-61223768D02*
X145910000Y-60942608D01*
%TO.C,C20*%
X146715000Y-74467164D02*
X146715000Y-74682836D01*
X147435000Y-74467164D02*
X147435000Y-74682836D01*
%TO.C,C42*%
X144109420Y-67365000D02*
X144390580Y-67365000D01*
X144109420Y-68385000D02*
X144390580Y-68385000D01*
%TO.C,C48*%
X147990000Y-89740580D02*
X147990000Y-89459420D01*
X149010000Y-89740580D02*
X149010000Y-89459420D01*
%TO.C,C11*%
X146160000Y-81332836D02*
X146160000Y-81117164D01*
X146880000Y-81332836D02*
X146880000Y-81117164D01*
D11*
%TO.C,J2*%
X126583400Y-112080000D02*
X126583400Y-112275000D01*
X126583400Y-116530000D02*
X126583400Y-115735000D01*
X128103400Y-118050000D02*
X126583400Y-116530000D01*
X129333400Y-112080000D02*
X126583400Y-112080000D01*
X129333400Y-118050000D02*
X128103400Y-118050000D01*
X164333400Y-112080000D02*
X166583400Y-112080000D01*
X164333400Y-118050000D02*
X165063400Y-118050000D01*
X165063400Y-118050000D02*
X166583400Y-116530000D01*
X166583400Y-112080000D02*
X166583400Y-112275000D01*
X166583400Y-116530000D02*
X166583400Y-115735000D01*
X164083400Y-110765000D02*
G75*
G02*
X163883400Y-110765000I-100000J0D01*
G01*
X163883400Y-110765000D02*
G75*
G02*
X164083400Y-110765000I100000J0D01*
G01*
D12*
%TO.C,C41*%
X147840000Y-66909420D02*
X147840000Y-67190580D01*
X148860000Y-66909420D02*
X148860000Y-67190580D01*
%TO.C,C15*%
X143787164Y-79040000D02*
X144002836Y-79040000D01*
X143787164Y-79760000D02*
X144002836Y-79760000D01*
%TO.C,C8*%
X149307836Y-78365000D02*
X149092164Y-78365000D01*
X149307836Y-79085000D02*
X149092164Y-79085000D01*
%TO.C,C44*%
X137809420Y-78765000D02*
X138090580Y-78765000D01*
X137809420Y-79785000D02*
X138090580Y-79785000D01*
%TO.C,R35*%
X164427500Y-65237742D02*
X164427500Y-65712258D01*
X165472500Y-65237742D02*
X165472500Y-65712258D01*
%TO.C,C18*%
X145740000Y-74467164D02*
X145740000Y-74682836D01*
X146460000Y-74467164D02*
X146460000Y-74682836D01*
%TO.C,R19*%
X137762742Y-81852500D02*
X138237258Y-81852500D01*
X137762742Y-82897500D02*
X138237258Y-82897500D01*
%TO.C,C82*%
X137540001Y-64417608D02*
X137540001Y-64698768D01*
X138560001Y-64417608D02*
X138560001Y-64698768D01*
%TO.C,C39*%
X154865580Y-76565000D02*
X154584420Y-76565000D01*
X154865580Y-77585000D02*
X154584420Y-77585000D01*
%TO.C,C2*%
X144490000Y-84517164D02*
X144490000Y-84732836D01*
X145210000Y-84517164D02*
X145210000Y-84732836D01*
%TO.C,C3*%
X143510000Y-84522164D02*
X143510000Y-84737836D01*
X144230000Y-84522164D02*
X144230000Y-84737836D01*
%TO.C,R1*%
X146312742Y-76752500D02*
X146787258Y-76752500D01*
X146312742Y-77797500D02*
X146787258Y-77797500D01*
%TO.C,R17*%
X137662742Y-73827500D02*
X138137258Y-73827500D01*
X137662742Y-74872500D02*
X138137258Y-74872500D01*
%TO.C,C111*%
X131593864Y-78064999D02*
X131875024Y-78064999D01*
X131593864Y-79084999D02*
X131875024Y-79084999D01*
%TO.C,C69*%
X152090000Y-61970120D02*
X152090000Y-62251280D01*
X153110000Y-61970120D02*
X153110000Y-62251280D01*
%TO.C,R52*%
X149952500Y-61645930D02*
X149952500Y-62120446D01*
X150997500Y-61645930D02*
X150997500Y-62120446D01*
%TO.C,C49*%
X146290000Y-89715580D02*
X146290000Y-89434420D01*
X147310000Y-89715580D02*
X147310000Y-89434420D01*
%TO.C,R41*%
X157352500Y-64048442D02*
X157352500Y-64522958D01*
X158397500Y-64048442D02*
X158397500Y-64522958D01*
%TO.C,C9*%
X149307836Y-77390000D02*
X149092164Y-77390000D01*
X149307836Y-78110000D02*
X149092164Y-78110000D01*
%TO.C,C19*%
X144765000Y-74467164D02*
X144765000Y-74682836D01*
X145485000Y-74467164D02*
X145485000Y-74682836D01*
%TO.C,R21*%
X154412258Y-69527500D02*
X153937742Y-69527500D01*
X154412258Y-70572500D02*
X153937742Y-70572500D01*
%TO.C,R76*%
X126641800Y-83187258D02*
X126641800Y-82712742D01*
X127686800Y-83187258D02*
X127686800Y-82712742D01*
%TO.C,C47*%
X151290000Y-70584420D02*
X151290000Y-70865580D01*
X152310000Y-70584420D02*
X152310000Y-70865580D01*
%TO.C,C120*%
X128629880Y-84965000D02*
X128348720Y-84965000D01*
X128629880Y-85985000D02*
X128348720Y-85985000D01*
%TO.C,C43*%
X137809420Y-75415000D02*
X138090580Y-75415000D01*
X137809420Y-76435000D02*
X138090580Y-76435000D01*
%TO.C,R15*%
X147827500Y-69912742D02*
X147827500Y-70387258D01*
X148872500Y-69912742D02*
X148872500Y-70387258D01*
%TO.C,R72*%
X134720447Y-66853801D02*
X134245931Y-66853801D01*
X134720447Y-67898801D02*
X134245931Y-67898801D01*
%TO.C,C119*%
X131373720Y-84965000D02*
X131654880Y-84965000D01*
X131373720Y-85985000D02*
X131654880Y-85985000D01*
%TO.C,R67*%
X126786944Y-76337257D02*
X126786944Y-75862741D01*
X127831944Y-76337257D02*
X127831944Y-75862741D01*
%TO.C,C36*%
X157719400Y-105794420D02*
X157719400Y-106075580D01*
X158739400Y-105794420D02*
X158739400Y-106075580D01*
%TO.C,R79*%
X128751558Y-80127500D02*
X128277042Y-80127500D01*
X128751558Y-81172500D02*
X128277042Y-81172500D01*
%TO.C,C5*%
X143792164Y-76015000D02*
X144007836Y-76015000D01*
X143792164Y-76735000D02*
X144007836Y-76735000D01*
%TO.C,C10*%
X149307836Y-76415000D02*
X149092164Y-76415000D01*
X149307836Y-77135000D02*
X149092164Y-77135000D01*
%TO.C,R66*%
X132610689Y-70038559D02*
X132610689Y-69564043D01*
X133655689Y-70038559D02*
X133655689Y-69564043D01*
%TO.C,C29*%
X159219400Y-106065580D02*
X159219400Y-105784420D01*
X160239400Y-106065580D02*
X160239400Y-105784420D01*
%TO.C,C61*%
X160990580Y-80040000D02*
X160709420Y-80040000D01*
X160990580Y-81060000D02*
X160709420Y-81060000D01*
%TO.C,C68*%
X152115000Y-65670120D02*
X152115000Y-65951280D01*
X153135000Y-65670120D02*
X153135000Y-65951280D01*
%TO.C,R22*%
X147977500Y-86787258D02*
X147977500Y-86312742D01*
X149022500Y-86787258D02*
X149022500Y-86312742D01*
%TO.C,C57*%
X157065580Y-78490000D02*
X156784420Y-78490000D01*
X157065580Y-79510000D02*
X156784420Y-79510000D01*
%TO.C,C1*%
X142515000Y-84517164D02*
X142515000Y-84732836D01*
X143235000Y-84517164D02*
X143235000Y-84732836D01*
%TO.C,C77*%
X144890000Y-64323768D02*
X144890000Y-64042608D01*
X145910000Y-64323768D02*
X145910000Y-64042608D01*
%TO.C,C59*%
X158988699Y-70640580D02*
X158988699Y-70359420D01*
X160008699Y-70640580D02*
X160008699Y-70359420D01*
%TO.C,R34*%
X157702500Y-81162742D02*
X157702500Y-81637258D01*
X158747500Y-81162742D02*
X158747500Y-81637258D01*
%TO.C,R53*%
X142377501Y-61595446D02*
X142377501Y-61120930D01*
X143422501Y-61595446D02*
X143422501Y-61120930D01*
%TO.C,C4*%
X146182836Y-79015000D02*
X145967164Y-79015000D01*
X146182836Y-79735000D02*
X145967164Y-79735000D01*
%TO.C,R73*%
X128496702Y-73027499D02*
X128022186Y-73027499D01*
X128496702Y-74072499D02*
X128022186Y-74072499D01*
%TO.C,R18*%
X137712742Y-77252500D02*
X138187258Y-77252500D01*
X137712742Y-78297500D02*
X138187258Y-78297500D01*
%TO.C,C60*%
X160990580Y-78540000D02*
X160709420Y-78540000D01*
X160990580Y-79560000D02*
X160709420Y-79560000D01*
%TO.C,C22*%
X149307836Y-75395000D02*
X149092164Y-75395000D01*
X149307836Y-76115000D02*
X149092164Y-76115000D01*
%TO.C,C13*%
X148210000Y-81332836D02*
X148210000Y-81117164D01*
X148930000Y-81332836D02*
X148930000Y-81117164D01*
%TO.C,R20*%
X149402500Y-66812742D02*
X149402500Y-67287258D01*
X150447500Y-66812742D02*
X150447500Y-67287258D01*
%TO.C,R11*%
X151991658Y-105327500D02*
X151517142Y-105327500D01*
X151991658Y-106372500D02*
X151517142Y-106372500D01*
%TO.C,C6*%
X143792164Y-77010000D02*
X144007836Y-77010000D01*
X143792164Y-77730000D02*
X144007836Y-77730000D01*
%TO.C,R14*%
X157987258Y-75027500D02*
X157512742Y-75027500D01*
X157987258Y-76072500D02*
X157512742Y-76072500D01*
%TO.C,C46*%
X149415000Y-70009420D02*
X149415000Y-70290580D01*
X150435000Y-70009420D02*
X150435000Y-70290580D01*
%TO.C,R16*%
X144527500Y-69937742D02*
X144527500Y-70412258D01*
X145572500Y-69937742D02*
X145572500Y-70412258D01*
%TO.C,C40*%
X154865580Y-75040000D02*
X154584420Y-75040000D01*
X154865580Y-76060000D02*
X154584420Y-76060000D01*
%TO.C,R38*%
X155752500Y-62322958D02*
X155752500Y-61848442D01*
X156797500Y-62322958D02*
X156797500Y-61848442D01*
%TO.C,C26*%
X153067164Y-82240000D02*
X153282836Y-82240000D01*
X153067164Y-82960000D02*
X153282836Y-82960000D01*
%TO.C,C63*%
X159038699Y-66834420D02*
X159038699Y-67115580D01*
X160058699Y-66834420D02*
X160058699Y-67115580D01*
%TO.C,C27*%
X153067164Y-81265000D02*
X153282836Y-81265000D01*
X153067164Y-81985000D02*
X153282836Y-81985000D01*
%TO.C,C7*%
X143792164Y-77990000D02*
X144007836Y-77990000D01*
X143792164Y-78710000D02*
X144007836Y-78710000D01*
%TO.C,C24*%
X149307836Y-73420000D02*
X149092164Y-73420000D01*
X149307836Y-74140000D02*
X149092164Y-74140000D01*
%TO.C,C23*%
X149307836Y-74415000D02*
X149092164Y-74415000D01*
X149307836Y-75135000D02*
X149092164Y-75135000D01*
%TO.C,C21*%
X144515000Y-108165580D02*
X144515000Y-107884420D01*
X145535000Y-108165580D02*
X145535000Y-107884420D01*
%TO.C,C16*%
X143782164Y-80015000D02*
X143997836Y-80015000D01*
X143782164Y-80735000D02*
X143997836Y-80735000D01*
%TO.C,C113*%
X128825024Y-78064999D02*
X128543864Y-78064999D01*
X128825024Y-79084999D02*
X128543864Y-79084999D01*
%TO.C,C12*%
X147165000Y-81332836D02*
X147165000Y-81117164D01*
X147885000Y-81332836D02*
X147885000Y-81117164D01*
%TO.C,R23*%
X146252500Y-86787258D02*
X146252500Y-86312742D01*
X147297500Y-86787258D02*
X147297500Y-86312742D01*
%TO.C,C107*%
X137542609Y-71991301D02*
X137823769Y-71991301D01*
X137542609Y-73011301D02*
X137823769Y-73011301D01*
%TO.C,R29*%
X162701199Y-63037258D02*
X162701199Y-62562742D01*
X163746199Y-63037258D02*
X163746199Y-62562742D01*
%TD*%
M02*
