%TF.GenerationSoftware,KiCad,Pcbnew,8.0.5*%
%TF.CreationDate,2025-04-03T13:44:51-05:00*%
%TF.ProjectId,PSEC5_Board,50534543-355f-4426-9f61-72642e6b6963,rev?*%
%TF.SameCoordinates,Original*%
%TF.FileFunction,Other,User*%
%FSLAX46Y46*%
G04 Gerber Fmt 4.6, Leading zero omitted, Abs format (unit mm)*
G04 Created by KiCad (PCBNEW 8.0.5) date 2025-04-03 13:44:51*
%MOMM*%
%LPD*%
G01*
G04 APERTURE LIST*
%ADD10C,0.050000*%
G04 APERTURE END LIST*
D10*
%TO.C,C17*%
X142985000Y-80890000D02*
X144805000Y-80890000D01*
X142985000Y-81810000D02*
X142985000Y-80890000D01*
X144805000Y-80890000D02*
X144805000Y-81810000D01*
X144805000Y-81810000D02*
X142985000Y-81810000D01*
%TO.C,R46*%
X148070000Y-57553188D02*
X149530000Y-57553188D01*
X148070000Y-60513188D02*
X148070000Y-57553188D01*
X149530000Y-57553188D02*
X149530000Y-60513188D01*
X149530000Y-60513188D02*
X148070000Y-60513188D01*
%TO.C,R13*%
X156270000Y-76370000D02*
X159230000Y-76370000D01*
X156270000Y-77830000D02*
X156270000Y-76370000D01*
X159230000Y-76370000D02*
X159230000Y-77830000D01*
X159230000Y-77830000D02*
X156270000Y-77830000D01*
%TO.C,C110*%
X133178189Y-71771301D02*
X136138189Y-71771301D01*
X133178189Y-73231301D02*
X133178189Y-71771301D01*
X136138189Y-71771301D02*
X136138189Y-73231301D01*
X136138189Y-73231301D02*
X133178189Y-73231301D01*
%TO.C,R10*%
X155819400Y-104455000D02*
X157279400Y-104455000D01*
X155819400Y-107415000D02*
X155819400Y-104455000D01*
X157279400Y-104455000D02*
X157279400Y-107415000D01*
X157279400Y-107415000D02*
X155819400Y-107415000D01*
%TO.C,C45*%
X133420000Y-81645000D02*
X136380000Y-81645000D01*
X133420000Y-83105000D02*
X133420000Y-81645000D01*
X136380000Y-81645000D02*
X136380000Y-83105000D01*
X136380000Y-83105000D02*
X133420000Y-83105000D01*
%TO.C,C83*%
X137320001Y-60028188D02*
X138780001Y-60028188D01*
X137320001Y-62988188D02*
X137320001Y-60028188D01*
X138780001Y-60028188D02*
X138780001Y-62988188D01*
X138780001Y-62988188D02*
X137320001Y-62988188D01*
%TO.C,C25*%
X152265000Y-80190000D02*
X154085000Y-80190000D01*
X152265000Y-81110000D02*
X152265000Y-80190000D01*
X154085000Y-80190000D02*
X154085000Y-81110000D01*
X154085000Y-81110000D02*
X152265000Y-81110000D01*
%TO.C,R47*%
X138995001Y-57828188D02*
X141955001Y-57828188D01*
X138995001Y-59288188D02*
X138995001Y-57828188D01*
X141955001Y-57828188D02*
X141955001Y-59288188D01*
X141955001Y-59288188D02*
X138995001Y-59288188D01*
%TO.C,J1*%
X126333400Y-44937139D02*
X166833400Y-44937139D01*
X126333400Y-53067139D02*
X126333400Y-44937139D01*
X166833400Y-44937139D02*
X166833400Y-53067139D01*
X166833400Y-53067139D02*
X126333400Y-53067139D01*
%TO.C,C79*%
X144670000Y-59603188D02*
X146130000Y-59603188D01*
X144670000Y-62563188D02*
X144670000Y-59603188D01*
X146130000Y-59603188D02*
X146130000Y-62563188D01*
X146130000Y-62563188D02*
X144670000Y-62563188D01*
%TO.C,C20*%
X146615000Y-73665000D02*
X147535000Y-73665000D01*
X146615000Y-75485000D02*
X146615000Y-73665000D01*
X147535000Y-73665000D02*
X147535000Y-75485000D01*
X147535000Y-75485000D02*
X146615000Y-75485000D01*
%TO.C,C42*%
X142770000Y-67145000D02*
X145730000Y-67145000D01*
X142770000Y-68605000D02*
X142770000Y-67145000D01*
X145730000Y-67145000D02*
X145730000Y-68605000D01*
X145730000Y-68605000D02*
X142770000Y-68605000D01*
%TO.C,C48*%
X147770000Y-88120000D02*
X149230000Y-88120000D01*
X147770000Y-91080000D02*
X147770000Y-88120000D01*
X149230000Y-88120000D02*
X149230000Y-91080000D01*
X149230000Y-91080000D02*
X147770000Y-91080000D01*
%TO.C,C11*%
X146060000Y-80315000D02*
X146980000Y-80315000D01*
X146060000Y-82135000D02*
X146060000Y-80315000D01*
X146980000Y-80315000D02*
X146980000Y-82135000D01*
X146980000Y-82135000D02*
X146060000Y-82135000D01*
%TO.C,J2*%
X126333400Y-111000000D02*
X166833400Y-111000000D01*
X126333400Y-119130000D02*
X126333400Y-111000000D01*
X166833400Y-111000000D02*
X166833400Y-119130000D01*
X166833400Y-119130000D02*
X126333400Y-119130000D01*
%TO.C,C41*%
X147620000Y-65570000D02*
X149080000Y-65570000D01*
X147620000Y-68530000D02*
X147620000Y-65570000D01*
X149080000Y-65570000D02*
X149080000Y-68530000D01*
X149080000Y-68530000D02*
X147620000Y-68530000D01*
%TO.C,C15*%
X142985000Y-78940000D02*
X144805000Y-78940000D01*
X142985000Y-79860000D02*
X142985000Y-78940000D01*
X144805000Y-78940000D02*
X144805000Y-79860000D01*
X144805000Y-79860000D02*
X142985000Y-79860000D01*
%TO.C,C8*%
X148290000Y-78265000D02*
X150110000Y-78265000D01*
X148290000Y-79185000D02*
X148290000Y-78265000D01*
X150110000Y-78265000D02*
X150110000Y-79185000D01*
X150110000Y-79185000D02*
X148290000Y-79185000D01*
%TO.C,C44*%
X136470000Y-78545000D02*
X139430000Y-78545000D01*
X136470000Y-80005000D02*
X136470000Y-78545000D01*
X139430000Y-78545000D02*
X139430000Y-80005000D01*
X139430000Y-80005000D02*
X136470000Y-80005000D01*
%TO.C,R35*%
X164220000Y-63995000D02*
X165680000Y-63995000D01*
X164220000Y-66955000D02*
X164220000Y-63995000D01*
X165680000Y-63995000D02*
X165680000Y-66955000D01*
X165680000Y-66955000D02*
X164220000Y-66955000D01*
%TO.C,C18*%
X145640000Y-73665000D02*
X146560000Y-73665000D01*
X145640000Y-75485000D02*
X145640000Y-73665000D01*
X146560000Y-73665000D02*
X146560000Y-75485000D01*
X146560000Y-75485000D02*
X145640000Y-75485000D01*
%TO.C,R19*%
X136520000Y-81645000D02*
X139480000Y-81645000D01*
X136520000Y-83105000D02*
X136520000Y-81645000D01*
X139480000Y-81645000D02*
X139480000Y-83105000D01*
X139480000Y-83105000D02*
X136520000Y-83105000D01*
%TO.C,C82*%
X137320001Y-63078188D02*
X138780001Y-63078188D01*
X137320001Y-66038188D02*
X137320001Y-63078188D01*
X138780001Y-63078188D02*
X138780001Y-66038188D01*
X138780001Y-66038188D02*
X137320001Y-66038188D01*
%TO.C,C39*%
X153245000Y-76345000D02*
X156205000Y-76345000D01*
X153245000Y-77805000D02*
X153245000Y-76345000D01*
X156205000Y-76345000D02*
X156205000Y-77805000D01*
X156205000Y-77805000D02*
X153245000Y-77805000D01*
%TO.C,C2*%
X144390000Y-83715000D02*
X145310000Y-83715000D01*
X144390000Y-85535000D02*
X144390000Y-83715000D01*
X145310000Y-83715000D02*
X145310000Y-85535000D01*
X145310000Y-85535000D02*
X144390000Y-85535000D01*
%TO.C,C3*%
X143410000Y-83720000D02*
X144330000Y-83720000D01*
X143410000Y-85540000D02*
X143410000Y-83720000D01*
X144330000Y-83720000D02*
X144330000Y-85540000D01*
X144330000Y-85540000D02*
X143410000Y-85540000D01*
%TO.C,R1*%
X145070000Y-76545000D02*
X148030000Y-76545000D01*
X145070000Y-78005000D02*
X145070000Y-76545000D01*
X148030000Y-76545000D02*
X148030000Y-78005000D01*
X148030000Y-78005000D02*
X145070000Y-78005000D01*
%TO.C,R17*%
X136420000Y-73620000D02*
X139380000Y-73620000D01*
X136420000Y-75080000D02*
X136420000Y-73620000D01*
X139380000Y-73620000D02*
X139380000Y-75080000D01*
X139380000Y-75080000D02*
X136420000Y-75080000D01*
%TO.C,C111*%
X130254444Y-77844999D02*
X133214444Y-77844999D01*
X130254444Y-79304999D02*
X130254444Y-77844999D01*
X133214444Y-77844999D02*
X133214444Y-79304999D01*
X133214444Y-79304999D02*
X130254444Y-79304999D01*
%TO.C,C69*%
X151870000Y-60630700D02*
X153330000Y-60630700D01*
X151870000Y-63590700D02*
X151870000Y-60630700D01*
X153330000Y-60630700D02*
X153330000Y-63590700D01*
X153330000Y-63590700D02*
X151870000Y-63590700D01*
%TO.C,R52*%
X149745000Y-60403188D02*
X151205000Y-60403188D01*
X149745000Y-63363188D02*
X149745000Y-60403188D01*
X151205000Y-60403188D02*
X151205000Y-63363188D01*
X151205000Y-63363188D02*
X149745000Y-63363188D01*
%TO.C,C49*%
X146070000Y-88095000D02*
X147530000Y-88095000D01*
X146070000Y-91055000D02*
X146070000Y-88095000D01*
X147530000Y-88095000D02*
X147530000Y-91055000D01*
X147530000Y-91055000D02*
X146070000Y-91055000D01*
%TO.C,R41*%
X157145000Y-62805700D02*
X158605000Y-62805700D01*
X157145000Y-65765700D02*
X157145000Y-62805700D01*
X158605000Y-62805700D02*
X158605000Y-65765700D01*
X158605000Y-65765700D02*
X157145000Y-65765700D01*
%TO.C,C9*%
X148290000Y-77290000D02*
X150110000Y-77290000D01*
X148290000Y-78210000D02*
X148290000Y-77290000D01*
X150110000Y-77290000D02*
X150110000Y-78210000D01*
X150110000Y-78210000D02*
X148290000Y-78210000D01*
%TO.C,C19*%
X144665000Y-73665000D02*
X145585000Y-73665000D01*
X144665000Y-75485000D02*
X144665000Y-73665000D01*
X145585000Y-73665000D02*
X145585000Y-75485000D01*
X145585000Y-75485000D02*
X144665000Y-75485000D01*
%TO.C,R21*%
X152695000Y-69320000D02*
X155655000Y-69320000D01*
X152695000Y-70780000D02*
X152695000Y-69320000D01*
X155655000Y-69320000D02*
X155655000Y-70780000D01*
X155655000Y-70780000D02*
X152695000Y-70780000D01*
%TO.C,R76*%
X126434300Y-81470000D02*
X127894300Y-81470000D01*
X126434300Y-84430000D02*
X126434300Y-81470000D01*
X127894300Y-81470000D02*
X127894300Y-84430000D01*
X127894300Y-84430000D02*
X126434300Y-84430000D01*
%TO.C,C47*%
X151070000Y-69245000D02*
X152530000Y-69245000D01*
X151070000Y-72205000D02*
X151070000Y-69245000D01*
X152530000Y-69245000D02*
X152530000Y-72205000D01*
X152530000Y-72205000D02*
X151070000Y-72205000D01*
%TO.C,C120*%
X127009300Y-84745000D02*
X129969300Y-84745000D01*
X127009300Y-86205000D02*
X127009300Y-84745000D01*
X129969300Y-84745000D02*
X129969300Y-86205000D01*
X129969300Y-86205000D02*
X127009300Y-86205000D01*
%TO.C,C43*%
X136470000Y-75195000D02*
X139430000Y-75195000D01*
X136470000Y-76655000D02*
X136470000Y-75195000D01*
X139430000Y-75195000D02*
X139430000Y-76655000D01*
X139430000Y-76655000D02*
X136470000Y-76655000D01*
%TO.C,R15*%
X147620000Y-68670000D02*
X149080000Y-68670000D01*
X147620000Y-71630000D02*
X147620000Y-68670000D01*
X149080000Y-68670000D02*
X149080000Y-71630000D01*
X149080000Y-71630000D02*
X147620000Y-71630000D01*
%TO.C,R72*%
X133003189Y-66646301D02*
X135963189Y-66646301D01*
X133003189Y-68106301D02*
X133003189Y-66646301D01*
X135963189Y-66646301D02*
X135963189Y-68106301D01*
X135963189Y-68106301D02*
X133003189Y-68106301D01*
%TO.C,C119*%
X130034300Y-84745000D02*
X132994300Y-84745000D01*
X130034300Y-86205000D02*
X130034300Y-84745000D01*
X132994300Y-84745000D02*
X132994300Y-86205000D01*
X132994300Y-86205000D02*
X130034300Y-86205000D01*
%TO.C,R67*%
X126579444Y-74619999D02*
X128039444Y-74619999D01*
X126579444Y-77579999D02*
X126579444Y-74619999D01*
X128039444Y-74619999D02*
X128039444Y-77579999D01*
X128039444Y-77579999D02*
X126579444Y-77579999D01*
%TO.C,C36*%
X157499400Y-104455000D02*
X158959400Y-104455000D01*
X157499400Y-107415000D02*
X157499400Y-104455000D01*
X158959400Y-104455000D02*
X158959400Y-107415000D01*
X158959400Y-107415000D02*
X157499400Y-107415000D01*
%TO.C,R79*%
X127034300Y-79920000D02*
X129994300Y-79920000D01*
X127034300Y-81380000D02*
X127034300Y-79920000D01*
X129994300Y-79920000D02*
X129994300Y-81380000D01*
X129994300Y-81380000D02*
X127034300Y-81380000D01*
%TO.C,C5*%
X142990000Y-75915000D02*
X144810000Y-75915000D01*
X142990000Y-76835000D02*
X142990000Y-75915000D01*
X144810000Y-75915000D02*
X144810000Y-76835000D01*
X144810000Y-76835000D02*
X142990000Y-76835000D01*
%TO.C,C10*%
X148290000Y-76315000D02*
X150110000Y-76315000D01*
X148290000Y-77235000D02*
X148290000Y-76315000D01*
X150110000Y-76315000D02*
X150110000Y-77235000D01*
X150110000Y-77235000D02*
X148290000Y-77235000D01*
%TO.C,R66*%
X132403189Y-68321301D02*
X133863189Y-68321301D01*
X132403189Y-71281301D02*
X132403189Y-68321301D01*
X133863189Y-68321301D02*
X133863189Y-71281301D01*
X133863189Y-71281301D02*
X132403189Y-71281301D01*
%TO.C,C29*%
X158999400Y-104445000D02*
X160459400Y-104445000D01*
X158999400Y-107405000D02*
X158999400Y-104445000D01*
X160459400Y-104445000D02*
X160459400Y-107405000D01*
X160459400Y-107405000D02*
X158999400Y-107405000D01*
%TO.C,C61*%
X159370000Y-79820000D02*
X162330000Y-79820000D01*
X159370000Y-81280000D02*
X159370000Y-79820000D01*
X162330000Y-79820000D02*
X162330000Y-81280000D01*
X162330000Y-81280000D02*
X159370000Y-81280000D01*
%TO.C,C68*%
X151895000Y-64330700D02*
X153355000Y-64330700D01*
X151895000Y-67290700D02*
X151895000Y-64330700D01*
X153355000Y-64330700D02*
X153355000Y-67290700D01*
X153355000Y-67290700D02*
X151895000Y-67290700D01*
%TO.C,R22*%
X147770000Y-85070000D02*
X149230000Y-85070000D01*
X147770000Y-88030000D02*
X147770000Y-85070000D01*
X149230000Y-85070000D02*
X149230000Y-88030000D01*
X149230000Y-88030000D02*
X147770000Y-88030000D01*
%TO.C,C57*%
X155445000Y-78270000D02*
X158405000Y-78270000D01*
X155445000Y-79730000D02*
X155445000Y-78270000D01*
X158405000Y-78270000D02*
X158405000Y-79730000D01*
X158405000Y-79730000D02*
X155445000Y-79730000D01*
%TO.C,C1*%
X142415000Y-83715000D02*
X143335000Y-83715000D01*
X142415000Y-85535000D02*
X142415000Y-83715000D01*
X143335000Y-83715000D02*
X143335000Y-85535000D01*
X143335000Y-85535000D02*
X142415000Y-85535000D01*
%TO.C,C77*%
X144670000Y-62703188D02*
X146130000Y-62703188D01*
X144670000Y-65663188D02*
X144670000Y-62703188D01*
X146130000Y-62703188D02*
X146130000Y-65663188D01*
X146130000Y-65663188D02*
X144670000Y-65663188D01*
%TO.C,C59*%
X158768699Y-69020000D02*
X160228699Y-69020000D01*
X158768699Y-71980000D02*
X158768699Y-69020000D01*
X160228699Y-69020000D02*
X160228699Y-71980000D01*
X160228699Y-71980000D02*
X158768699Y-71980000D01*
%TO.C,R34*%
X157495000Y-79920000D02*
X158955000Y-79920000D01*
X157495000Y-82880000D02*
X157495000Y-79920000D01*
X158955000Y-79920000D02*
X158955000Y-82880000D01*
X158955000Y-82880000D02*
X157495000Y-82880000D01*
%TO.C,R53*%
X142170001Y-59878188D02*
X143630001Y-59878188D01*
X142170001Y-62838188D02*
X142170001Y-59878188D01*
X143630001Y-59878188D02*
X143630001Y-62838188D01*
X143630001Y-62838188D02*
X142170001Y-62838188D01*
%TO.C,C4*%
X145165000Y-78915000D02*
X146985000Y-78915000D01*
X145165000Y-79835000D02*
X145165000Y-78915000D01*
X146985000Y-78915000D02*
X146985000Y-79835000D01*
X146985000Y-79835000D02*
X145165000Y-79835000D01*
%TO.C,R73*%
X126779444Y-72819999D02*
X129739444Y-72819999D01*
X126779444Y-74279999D02*
X126779444Y-72819999D01*
X129739444Y-72819999D02*
X129739444Y-74279999D01*
X129739444Y-74279999D02*
X126779444Y-74279999D01*
%TO.C,R18*%
X136470000Y-77045000D02*
X139430000Y-77045000D01*
X136470000Y-78505000D02*
X136470000Y-77045000D01*
X139430000Y-77045000D02*
X139430000Y-78505000D01*
X139430000Y-78505000D02*
X136470000Y-78505000D01*
%TO.C,C60*%
X159370000Y-78320000D02*
X162330000Y-78320000D01*
X159370000Y-79780000D02*
X159370000Y-78320000D01*
X162330000Y-78320000D02*
X162330000Y-79780000D01*
X162330000Y-79780000D02*
X159370000Y-79780000D01*
%TO.C,U2*%
X146525002Y-107599999D02*
X146525002Y-110300001D01*
X146525002Y-107599999D02*
X150125002Y-107599999D01*
X146525002Y-110300001D02*
X150125002Y-110300001D01*
X150125002Y-107599999D02*
X150125002Y-110300001D01*
%TO.C,C22*%
X148290000Y-75295000D02*
X150110000Y-75295000D01*
X148290000Y-76215000D02*
X148290000Y-75295000D01*
X150110000Y-75295000D02*
X150110000Y-76215000D01*
X150110000Y-76215000D02*
X148290000Y-76215000D01*
%TO.C,C13*%
X148110000Y-80315000D02*
X149030000Y-80315000D01*
X148110000Y-82135000D02*
X148110000Y-80315000D01*
X149030000Y-80315000D02*
X149030000Y-82135000D01*
X149030000Y-82135000D02*
X148110000Y-82135000D01*
%TO.C,R20*%
X149195000Y-65570000D02*
X150655000Y-65570000D01*
X149195000Y-68530000D02*
X149195000Y-65570000D01*
X150655000Y-65570000D02*
X150655000Y-68530000D01*
X150655000Y-68530000D02*
X149195000Y-68530000D01*
%TO.C,R11*%
X150274400Y-105120000D02*
X153234400Y-105120000D01*
X150274400Y-106580000D02*
X150274400Y-105120000D01*
X153234400Y-105120000D02*
X153234400Y-106580000D01*
X153234400Y-106580000D02*
X150274400Y-106580000D01*
%TO.C,C6*%
X142990000Y-76910000D02*
X144810000Y-76910000D01*
X142990000Y-77830000D02*
X142990000Y-76910000D01*
X144810000Y-76910000D02*
X144810000Y-77830000D01*
X144810000Y-77830000D02*
X142990000Y-77830000D01*
%TO.C,R14*%
X156270000Y-74820000D02*
X159230000Y-74820000D01*
X156270000Y-76280000D02*
X156270000Y-74820000D01*
X159230000Y-74820000D02*
X159230000Y-76280000D01*
X159230000Y-76280000D02*
X156270000Y-76280000D01*
%TO.C,C46*%
X149195000Y-68670000D02*
X150655000Y-68670000D01*
X149195000Y-71630000D02*
X149195000Y-68670000D01*
X150655000Y-68670000D02*
X150655000Y-71630000D01*
X150655000Y-71630000D02*
X149195000Y-71630000D01*
%TO.C,R16*%
X144320000Y-68695000D02*
X145780000Y-68695000D01*
X144320000Y-71655000D02*
X144320000Y-68695000D01*
X145780000Y-68695000D02*
X145780000Y-71655000D01*
X145780000Y-71655000D02*
X144320000Y-71655000D01*
%TO.C,C40*%
X153245000Y-74820000D02*
X156205000Y-74820000D01*
X153245000Y-76280000D02*
X153245000Y-74820000D01*
X156205000Y-74820000D02*
X156205000Y-76280000D01*
X156205000Y-76280000D02*
X153245000Y-76280000D01*
%TO.C,R38*%
X155545000Y-60605700D02*
X157005000Y-60605700D01*
X155545000Y-63565700D02*
X155545000Y-60605700D01*
X157005000Y-60605700D02*
X157005000Y-63565700D01*
X157005000Y-63565700D02*
X155545000Y-63565700D01*
%TO.C,C26*%
X152265000Y-82140000D02*
X154085000Y-82140000D01*
X152265000Y-83060000D02*
X152265000Y-82140000D01*
X154085000Y-82140000D02*
X154085000Y-83060000D01*
X154085000Y-83060000D02*
X152265000Y-83060000D01*
%TO.C,C63*%
X158818699Y-65495000D02*
X160278699Y-65495000D01*
X158818699Y-68455000D02*
X158818699Y-65495000D01*
X160278699Y-65495000D02*
X160278699Y-68455000D01*
X160278699Y-68455000D02*
X158818699Y-68455000D01*
%TO.C,C27*%
X152265000Y-81165000D02*
X154085000Y-81165000D01*
X152265000Y-82085000D02*
X152265000Y-81165000D01*
X154085000Y-81165000D02*
X154085000Y-82085000D01*
X154085000Y-82085000D02*
X152265000Y-82085000D01*
%TO.C,C7*%
X142990000Y-77890000D02*
X144810000Y-77890000D01*
X142990000Y-78810000D02*
X142990000Y-77890000D01*
X144810000Y-77890000D02*
X144810000Y-78810000D01*
X144810000Y-78810000D02*
X142990000Y-78810000D01*
%TO.C,C24*%
X148290000Y-73320000D02*
X150110000Y-73320000D01*
X148290000Y-74240000D02*
X148290000Y-73320000D01*
X150110000Y-73320000D02*
X150110000Y-74240000D01*
X150110000Y-74240000D02*
X148290000Y-74240000D01*
%TO.C,C23*%
X148290000Y-74315000D02*
X150110000Y-74315000D01*
X148290000Y-75235000D02*
X148290000Y-74315000D01*
X150110000Y-74315000D02*
X150110000Y-75235000D01*
X150110000Y-75235000D02*
X148290000Y-75235000D01*
%TO.C,C21*%
X144295000Y-106545000D02*
X145755000Y-106545000D01*
X144295000Y-109505000D02*
X144295000Y-106545000D01*
X145755000Y-106545000D02*
X145755000Y-109505000D01*
X145755000Y-109505000D02*
X144295000Y-109505000D01*
%TO.C,C16*%
X142980000Y-79915000D02*
X144800000Y-79915000D01*
X142980000Y-80835000D02*
X142980000Y-79915000D01*
X144800000Y-79915000D02*
X144800000Y-80835000D01*
X144800000Y-80835000D02*
X142980000Y-80835000D01*
%TO.C,C113*%
X127204444Y-77844999D02*
X130164444Y-77844999D01*
X127204444Y-79304999D02*
X127204444Y-77844999D01*
X130164444Y-77844999D02*
X130164444Y-79304999D01*
X130164444Y-79304999D02*
X127204444Y-79304999D01*
%TO.C,C12*%
X147065000Y-80315000D02*
X147985000Y-80315000D01*
X147065000Y-82135000D02*
X147065000Y-80315000D01*
X147985000Y-80315000D02*
X147985000Y-82135000D01*
X147985000Y-82135000D02*
X147065000Y-82135000D01*
%TO.C,R23*%
X146045000Y-85070000D02*
X147505000Y-85070000D01*
X146045000Y-88030000D02*
X146045000Y-85070000D01*
X147505000Y-85070000D02*
X147505000Y-88030000D01*
X147505000Y-88030000D02*
X146045000Y-88030000D01*
%TO.C,C107*%
X136203189Y-71771301D02*
X139163189Y-71771301D01*
X136203189Y-73231301D02*
X136203189Y-71771301D01*
X139163189Y-71771301D02*
X139163189Y-73231301D01*
X139163189Y-73231301D02*
X136203189Y-73231301D01*
%TO.C,R29*%
X162493699Y-61320000D02*
X163953699Y-61320000D01*
X162493699Y-64280000D02*
X162493699Y-61320000D01*
X163953699Y-61320000D02*
X163953699Y-64280000D01*
X163953699Y-64280000D02*
X162493699Y-64280000D01*
%TD*%
M02*
