M48
; DRILL file {KiCad 8.0.5} date 2025-03-31T18:49:55-0500
; FORMAT={-:-/ absolute / inch / decimal}
; #@! TF.CreationDate,2025-03-31T18:49:55-05:00
; #@! TF.GenerationSoftware,Kicad,Pcbnew,8.0.5
; #@! TF.FileFunction,Plated,1,6,PTH
FMAT,2
INCH
; #@! TA.AperFunction,Plated,PTH,ViaDrill
T1C0.0079
; #@! TA.AperFunction,Plated,PTH,ComponentDrill
T2C0.0197
; #@! TA.AperFunction,Plated,PTH,ComponentDrill
T3C0.0350
; #@! TA.AperFunction,Plated,PTH,ComponentDrill
T4C0.0669
%
G90
G05
T1
X4.8937Y-3.0561
X4.9738Y-2.9193
X4.9779Y-3.2087
X4.9836Y-2.997
X4.9888Y-3.1673
X5.0033Y-3.1112
X5.0389Y-3.3297
X5.0446Y-4.5301
X5.0448Y-1.9292
X5.0683Y-2.9341
X5.0876Y-2.8189
X5.1102Y-4.4567
X5.1112Y-4.5984
X5.1142Y-4.3583
X5.1142Y-4.7018
X5.1167Y-3.4035
X5.1211Y-3.2044
X5.1234Y-3.124
X5.1358Y-1.876
X5.1565Y-2.3642
X5.1716Y-4.3346
X5.1722Y-4.5945
X5.1811Y-4.7057
X5.1817Y-3.2175
X5.188Y-4.4764
X5.1893Y-2.8632
X5.1903Y-2.9449
X5.1978Y-1.8642
X5.208Y-2.688
X5.2287Y-2.631
X5.2474Y-2.8829
X5.25Y-3.3632
X5.2521Y-4.5301
X5.2523Y-1.9292
X5.2525Y-3.1703
X5.2543Y-3.1122
X5.2589Y-1.8612
X5.2726Y-4.4705
X5.2756Y-4.2736
X5.2946Y-2.6979
X5.2953Y-4.7037
X5.2963Y-4.5896
X5.314Y-3.1024
X5.3261Y-2.8908
X5.3396Y-2.2283
X5.3396Y-3.3553
X5.3445Y-4.1014
X5.3474Y-2.9281
X5.3474Y-4.4606
X5.3494Y-2.9941
X5.3533Y-4.3406
X5.3543Y-4.5915
X5.3553Y-4.7047
X5.3593Y-3.1693
X5.3593Y-2.5965
X5.3652Y-2.1545
X5.3947Y-2.4846
X5.4016Y-2.3474
X5.4088Y-2.7087
X5.4101Y-4.3212
X5.4117Y-2.6221
X5.4311Y-2.2057
X5.47Y-2.5372
X5.4754Y-3.7087
X5.4757Y-2.8829
X5.4941Y-2.2608
X5.502Y-2.8258
X5.5021Y-4.5301
X5.5023Y-1.9292
X5.5069Y-3.7215
X5.5118Y-2.9902
X5.5128Y-3.122
X5.5433Y-3.1368
X5.5463Y-2.9528
X5.5472Y-3.2087
X5.5474Y-4.0807
X5.5571Y-3.2628
X5.5581Y-3.1014
X5.5591Y-3.0433
X5.563Y-2.27
X5.564Y-3.7224
X5.5827Y-2.2402
X5.5846Y-2.5239
X5.5866Y-2.4373
X5.5876Y-3.314
X5.5932Y-3.7323
X5.5945Y-2.6909
X5.5974Y-2.3547
X5.6142Y-2.9331
X5.6142Y-3.0433
X5.6142Y-3.122
X5.6191Y-2.622
X5.6201Y-2.8622
X5.6378Y-3.2402
X5.6457Y-3.747
X5.6545Y-2.3547
X5.6671Y-3.7264
X5.6693Y-2.9291
X5.6781Y-2.5249
X5.6791Y-2.4029
X5.685Y-4.1762
X5.7037Y-3.747
X5.7067Y-2.8583
X5.7069Y-3.163
X5.7087Y-3.2441
X5.7096Y-4.5301
X5.7098Y-1.9292
X5.7116Y-3.0945
X5.7193Y-4.0037
X5.7195Y-3.9144
X5.7283Y-3.7254
X5.7323Y-3.0059
X5.748Y-2.8652
X5.7559Y-2.5994
X5.7589Y-4.1949
X5.7618Y-2.9911
X5.7667Y-3.3081
X5.7707Y-4.1368
X5.7795Y-2.6791
X5.7825Y-2.748
X5.7933Y-3.0039
X5.7933Y-3.3051
X5.7992Y-3.1152
X5.8002Y-2.2451
X5.8041Y-3.7441
X5.8071Y-3.248
X5.812Y-3.1555
X5.8268Y-2.9409
X5.8324Y-4.5301
X5.8326Y-1.9292
X5.8337Y-3.7205
X5.8445Y-2.8593
X5.8486Y-4.3187
X5.8553Y-3.1289
X5.8661Y-3.248
X5.8671Y-2.8415
X5.8671Y-3.7431
X5.8789Y-2.5308
X5.8832Y-3.7205
X5.8967Y-2.3238
X5.9026Y-2.8583
X5.9035Y-2.2936
X5.9252Y-3.0079
X5.9262Y-1.8839
X5.9272Y-3.1024
X5.9291Y-3.2441
X5.9321Y-3.2008
X5.9321Y-3.938
X5.9331Y-2.9409
X5.9331Y-3.063
X5.9361Y-3.7432
X5.938Y-2.6565
X5.9449Y-2.375
X5.9469Y-2.2195
X5.9469Y-3.7205
X5.9478Y-2.7047
X5.9488Y-2.31
X5.9488Y-2.436
X5.9823Y-2.8888
X5.9843Y-3.0835
X5.9921Y-3.1142
X5.999Y-4.3228
X6.0006Y-3.7563
X6.0049Y-2.9803
X6.0079Y-3.1378
X6.0118Y-2.6668
X6.0157Y-3.003
X6.0344Y-2.3602
X6.0399Y-4.5301
X6.0401Y-1.9292
X6.0492Y-2.4758
X6.0502Y-2.6978
X6.0531Y-3.7156
X6.0558Y-4.207
X6.06Y-4.3199
X6.0758Y-3.1594
X6.0758Y-3.9134
X6.0805Y-2.927
X6.0827Y-3.3071
X6.0837Y-4.0856
X6.0886Y-2.3602
X6.0925Y-4.3425
X6.1033Y-2.2539
X6.1093Y-4.248
X6.1161Y-3.562
X6.126Y-3.2126
X6.127Y-4.3337
X6.1348Y-3.315
X6.1474Y-4.0581
X6.1673Y-4.2618
X6.1683Y-2.6422
X6.1821Y-3.0748
X6.1929Y-2.4104
X6.1939Y-3.2372
X6.1949Y-2.3799
X6.1978Y-3.1535
X6.1988Y-2.2087
X6.2018Y-2.7165
X6.2028Y-2.4478
X6.2283Y-2.1929
X6.2293Y-3.2756
X6.2294Y-4.067
X6.253Y-3.122
X6.2598Y-2.4994
X6.2766Y-3.0866
X6.2795Y-2.5541
X6.2899Y-4.5301
X6.2901Y-1.9292
X6.2943Y-3.9528
X6.3002Y-2.7047
X6.3022Y-3.875
X6.3228Y-2.5787
X6.3376Y-4.252
X6.3445Y-4.1781
X6.3563Y-2.7402
X6.3716Y-1.8489
X6.3952Y-2.1142
X6.3964Y-2.1437
X6.3976Y-3.1122
X6.3976Y-3.1713
X6.4094Y-1.8533
X6.4232Y-4.3268
X6.4291Y-2.3937
X6.4488Y-2.6919
X6.4498Y-3.1112
X6.4596Y-4.123
X6.4744Y-2.5049
X6.4974Y-4.5301
X6.4975Y-1.9292
X6.5039Y-4.2982
X6.5335Y-2.5472
X6.5374Y-2.6614
X6.5413Y-4.1388
X6.5531Y-2.6093
X6.6644Y-3.94
T2
X4.9409Y-2.4941
X5.25Y-2.3986
X5.2677Y-2.2677
X5.3898Y-4.2136
X5.3907Y-4.0561
X5.997Y-4.4675
X6.0266Y-2.2283
X6.1467Y-3.7244
X6.1634Y-4.4921
X6.3159Y-4.4774
X6.3356Y-2.3563
X6.3494Y-3.6043
X6.3583Y-4.3287
X6.562Y-2.9311
X6.563Y-3.3002
X6.6673Y-4.1388
T3
X4.7234Y-2.9508
X4.7234Y-3.4094
X4.7234Y-3.8854
X4.7234Y-4.3415
X7.0746Y-4.3415
X7.0748Y-2.9508
X7.0748Y-3.4094
X7.0748Y-3.8854
T4
X4.6234Y-2.8508
X4.6234Y-3.0508
X4.6234Y-3.3094
X4.6234Y-3.5094
X4.6234Y-3.7854
X4.6234Y-3.9854
X4.6234Y-4.2415
X4.6234Y-4.4415
X4.8234Y-2.8508
X4.8234Y-3.0508
X4.8234Y-3.3094
X4.8234Y-3.5094
X4.8234Y-3.7854
X4.8234Y-3.9854
X4.8234Y-4.2415
X4.8234Y-4.4415
X6.9746Y-4.2415
X6.9746Y-4.4415
X6.9748Y-2.8508
X6.9748Y-3.0508
X6.9748Y-3.3094
X6.9748Y-3.5094
X6.9748Y-3.7854
X6.9748Y-3.9854
X7.1746Y-4.2415
X7.1746Y-4.4415
X7.1748Y-2.8508
X7.1748Y-3.0508
X7.1748Y-3.3094
X7.1748Y-3.5094
X7.1748Y-3.7854
X7.1748Y-3.9854
M30
