M48
; DRILL file {KiCad 8.0.5} date 2025-03-25T15:29:47-0500
; FORMAT={-:-/ absolute / metric / decimal}
; #@! TF.CreationDate,2025-03-25T15:29:48-05:00
; #@! TF.GenerationSoftware,Kicad,Pcbnew,8.0.5
; #@! TF.FileFunction,Plated,1,6,PTH
FMAT,2
METRIC
; #@! TA.AperFunction,Plated,PTH,ViaDrill
T1C0.200
; #@! TA.AperFunction,Plated,PTH,ComponentDrill
T2C0.500
; #@! TA.AperFunction,Plated,PTH,ComponentDrill
T3C0.890
; #@! TA.AperFunction,Plated,PTH,ComponentDrill
T4C1.700
%
G90
G05
T1
X122.3Y-78.35
X124.3Y-77.625
X126.334Y-74.15
X126.439Y-81.5
X126.584Y-76.125
X126.714Y-80.45
X127.084Y-79.025
X127.989Y-84.575
X128.133Y-115.065
X128.138Y-49.002
X128.734Y-74.525
X129.225Y-71.6
X129.8Y-113.2
X129.825Y-116.8
X129.9Y-110.7
X129.9Y-119.425
X129.964Y-86.45
X130.075Y-81.391
X130.134Y-79.35
X130.45Y-47.65
X130.975Y-60.05
X131.358Y-110.1
X131.375Y-116.7
X131.6Y-119.525
X131.614Y-81.725
X131.775Y-113.7
X131.809Y-72.725
X131.834Y-74.8
X132.025Y-47.35
X132.283Y-68.276
X132.808Y-66.826
X133.283Y-73.226
X133.35Y-85.425
X133.403Y-115.065
X133.408Y-49.002
X133.414Y-80.525
X133.459Y-79.05
X133.575Y-47.275
X133.925Y-113.55
X134.0Y-108.55
X134.483Y-68.526
X134.5Y-119.475
X134.525Y-116.575
X134.975Y-78.8
X135.283Y-73.426
X135.625Y-56.6
X135.625Y-85.225
X135.75Y-104.175
X135.825Y-74.375
X135.825Y-113.3
X135.875Y-76.05
X135.975Y-110.25
X136.0Y-116.625
X136.025Y-119.5
X136.125Y-80.5
X136.125Y-65.95
X136.275Y-54.725
X137.025Y-63.108
X137.2Y-59.625
X137.383Y-68.801
X137.417Y-109.758
X137.458Y-66.601
X137.95Y-56.025
X138.938Y-64.446
X139.075Y-94.2
X139.083Y-73.226
X139.55Y-57.425
X139.75Y-71.775
X139.753Y-115.065
X139.758Y-49.002
X139.875Y-94.525
X140.0Y-75.95
X140.025Y-79.3
X140.8Y-79.675
X140.875Y-75.0
X140.9Y-81.5
X140.905Y-103.65
X141.15Y-82.875
X141.175Y-78.775
X141.2Y-77.3
X141.3Y-57.658
X141.325Y-94.55
X141.8Y-56.9
X141.85Y-64.108
X141.9Y-61.908
X141.925Y-84.175
X142.068Y-94.8
X142.1Y-68.35
X142.175Y-59.808
X142.6Y-74.5
X142.6Y-77.3
X142.6Y-79.3
X142.725Y-66.6
X142.75Y-72.7
X143.2Y-82.3
X143.4Y-95.175
X143.625Y-59.808
X143.943Y-94.65
X144.0Y-74.4
X144.225Y-64.133
X144.25Y-61.033
X144.4Y-106.075
X144.875Y-95.175
X144.95Y-72.6
X144.956Y-80.341
X145.0Y-82.4
X145.023Y-115.065
X145.028Y-49.002
X145.075Y-78.6
X145.27Y-101.695
X145.275Y-99.425
X145.5Y-94.625
X145.6Y-76.35
X146.0Y-72.775
X146.2Y-66.025
X146.275Y-106.55
X146.35Y-75.975
X146.475Y-84.025
X146.575Y-105.075
X146.8Y-68.05
X146.875Y-69.8
X147.15Y-76.3
X147.15Y-83.95
X147.3Y-79.125
X147.325Y-57.025
X147.425Y-95.1
X147.5Y-82.5
X147.625Y-80.15
X148.0Y-74.7
X148.143Y-115.065
X148.148Y-49.002
X148.175Y-94.5
X148.45Y-72.625
X148.554Y-109.696
X148.725Y-79.475
X149.0Y-82.5
X149.025Y-72.175
X149.025Y-95.075
X149.325Y-64.283
X149.434Y-94.5
X149.775Y-59.025
X149.925Y-72.6
X149.95Y-58.258
X150.5Y-76.4
X150.525Y-47.85
X150.55Y-78.8
X150.6Y-82.4
X150.675Y-81.3
X150.675Y-100.025
X150.7Y-74.7
X150.7Y-77.8
X150.777Y-95.077
X150.825Y-67.475
X151.0Y-60.325
X151.05Y-56.375
X151.05Y-94.5
X151.075Y-68.7
X151.1Y-58.675
X151.1Y-61.875
X151.95Y-73.375
X152.0Y-78.32
X152.2Y-79.1
X152.375Y-109.8
X152.414Y-95.411
X152.525Y-75.7
X152.6Y-79.7
X152.7Y-67.736
X152.8Y-76.275
X153.275Y-59.95
X153.413Y-115.065
X153.418Y-49.002
X153.65Y-62.886
X153.675Y-68.525
X153.75Y-94.375
X153.817Y-106.858
X153.925Y-109.725
X154.325Y-80.25
X154.325Y-99.4
X154.444Y-74.345
X154.5Y-84.0
X154.525Y-103.775
X154.65Y-59.95
X154.75Y-110.3
X155.025Y-57.25
X155.175Y-107.9
X155.35Y-90.475
X155.6Y-81.6
X155.625Y-110.075
X155.825Y-84.2
X156.144Y-103.075
X156.65Y-108.25
X156.675Y-67.111
X157.025Y-78.1
X157.3Y-61.225
X157.325Y-82.225
X157.35Y-60.45
X157.425Y-80.1
X157.45Y-56.1
X157.525Y-69.0
X157.55Y-62.175
X158.2Y-55.7
X158.225Y-83.2
X158.227Y-103.302
X158.825Y-79.3
X159.0Y-63.486
X159.425Y-78.4
X159.499Y-64.875
X159.763Y-115.065
X159.768Y-49.002
X159.875Y-100.4
X160.025Y-68.7
X160.075Y-98.425
X160.6Y-65.5
X160.975Y-108.0
X161.15Y-106.125
X161.45Y-69.6
X161.838Y-46.963
X162.438Y-53.7
X162.469Y-54.449
X162.5Y-79.05
X162.5Y-80.55
X162.8Y-47.075
X163.15Y-109.9
X163.299Y-60.8
X163.8Y-68.375
X163.825Y-79.025
X164.075Y-104.725
X164.449Y-63.625
X165.033Y-115.065
X165.038Y-49.002
X165.2Y-109.175
X165.95Y-64.7
X166.05Y-67.6
X166.15Y-105.125
X166.45Y-66.275
X169.275Y-100.075
T2
X119.575Y-77.9
X133.35Y-60.925
X133.8Y-57.6
X136.9Y-107.025
X136.925Y-103.025
X152.325Y-113.475
X153.075Y-56.6
X156.125Y-94.6
X156.55Y-114.1
X160.425Y-113.725
X160.925Y-59.85
X161.275Y-91.55
X161.5Y-109.95
X166.675Y-74.45
X166.7Y-83.825
X169.35Y-105.125
T3
X120.35Y-102.14
X120.35Y-110.49
X120.36Y-93.765
X120.375Y-85.375
X179.695Y-110.49
X179.7Y-85.375
X179.7Y-93.765
X179.7Y-102.14
T4
X117.81Y-99.6
X117.81Y-104.68
X117.81Y-107.95
X117.81Y-113.03
X117.82Y-91.225
X117.82Y-96.305
X117.835Y-82.835
X117.835Y-87.915
X122.89Y-99.6
X122.89Y-104.68
X122.89Y-107.95
X122.89Y-113.03
X122.9Y-91.225
X122.9Y-96.305
X122.915Y-82.835
X122.915Y-87.915
X177.155Y-107.95
X177.155Y-113.03
X177.16Y-82.835
X177.16Y-87.915
X177.16Y-91.225
X177.16Y-96.305
X177.16Y-99.6
X177.16Y-104.68
X182.235Y-107.95
X182.235Y-113.03
X182.24Y-82.835
X182.24Y-87.915
X182.24Y-91.225
X182.24Y-96.305
X182.24Y-99.6
X182.24Y-104.68
M30
