%TF.GenerationSoftware,KiCad,Pcbnew,8.0.5*%
%TF.CreationDate,2025-03-25T15:29:15-05:00*%
%TF.ProjectId,PSEC5_Board,50534543-355f-4426-9f61-72642e6b6963,rev?*%
%TF.SameCoordinates,Original*%
%TF.FileFunction,Other,User*%
%FSLAX46Y46*%
G04 Gerber Fmt 4.6, Leading zero omitted, Abs format (unit mm)*
G04 Created by KiCad (PCBNEW 8.0.5) date 2025-03-25 15:29:15*
%MOMM*%
%LPD*%
G01*
G04 APERTURE LIST*
%ADD10C,0.050000*%
%ADD11C,0.152400*%
G04 APERTURE END LIST*
D10*
%TO.C,C85*%
X132234300Y-81520000D02*
X133694300Y-81520000D01*
X132234300Y-84480000D02*
X132234300Y-81520000D01*
X133694300Y-81520000D02*
X133694300Y-84480000D01*
X133694300Y-84480000D02*
X132234300Y-84480000D01*
%TO.C,C90*%
X127009300Y-84745000D02*
X129969300Y-84745000D01*
X127009300Y-86205000D02*
X127009300Y-84745000D01*
X129969300Y-84745000D02*
X129969300Y-86205000D01*
X129969300Y-86205000D02*
X127009300Y-86205000D01*
%TO.C,READCLK*%
X132350000Y-59925000D02*
X132350000Y-61925000D01*
X132350000Y-59925000D02*
X134350000Y-59925000D01*
X134350000Y-61925000D02*
X132350000Y-61925000D01*
X134350000Y-61925000D02*
X134350000Y-59925000D01*
%TO.C,C104*%
X164420000Y-103420000D02*
X167380000Y-103420000D01*
X164420000Y-104880000D02*
X164420000Y-103420000D01*
X167380000Y-103420000D02*
X167380000Y-104880000D01*
X167380000Y-104880000D02*
X164420000Y-104880000D01*
%TO.C,R55*%
X164220000Y-67020000D02*
X165680000Y-67020000D01*
X164220000Y-69980000D02*
X164220000Y-67020000D01*
X165680000Y-67020000D02*
X165680000Y-69980000D01*
X165680000Y-69980000D02*
X164220000Y-69980000D01*
%TO.C,C21*%
X150022071Y-87722071D02*
X151482071Y-87722071D01*
X150022071Y-90682071D02*
X150022071Y-87722071D01*
X151482071Y-87722071D02*
X151482071Y-90682071D01*
X151482071Y-90682071D02*
X150022071Y-90682071D01*
%TO.C,R34*%
X159145000Y-81970000D02*
X162105000Y-81970000D01*
X159145000Y-83430000D02*
X159145000Y-81970000D01*
X162105000Y-81970000D02*
X162105000Y-83430000D01*
X162105000Y-83430000D02*
X159145000Y-83430000D01*
%TO.C,R54*%
X146670000Y-84645000D02*
X148130000Y-84645000D01*
X146670000Y-87605000D02*
X146670000Y-84645000D01*
X148130000Y-84645000D02*
X148130000Y-87605000D01*
X148130000Y-87605000D02*
X146670000Y-87605000D01*
%TO.C,R38*%
X159245000Y-76170000D02*
X162205000Y-76170000D01*
X159245000Y-77630000D02*
X159245000Y-76170000D01*
X162205000Y-76170000D02*
X162205000Y-77630000D01*
X162205000Y-77630000D02*
X159245000Y-77630000D01*
%TO.C,R36*%
X153245000Y-74820000D02*
X156205000Y-74820000D01*
X153245000Y-76280000D02*
X153245000Y-74820000D01*
X156205000Y-74820000D02*
X156205000Y-76280000D01*
X156205000Y-76280000D02*
X153245000Y-76280000D01*
%TO.C,C28*%
X124920000Y-101470000D02*
X127880000Y-101470000D01*
X124920000Y-102930000D02*
X124920000Y-101470000D01*
X127880000Y-101470000D02*
X127880000Y-102930000D01*
X127880000Y-102930000D02*
X124920000Y-102930000D01*
%TO.C,R26*%
X154020000Y-62080700D02*
X156980000Y-62080700D01*
X154020000Y-63540700D02*
X154020000Y-62080700D01*
X156980000Y-62080700D02*
X156980000Y-63540700D01*
X156980000Y-63540700D02*
X154020000Y-63540700D01*
D11*
%TO.C,IC2*%
X153838300Y-64525000D02*
X154092300Y-64525000D01*
X153838300Y-66925000D02*
X153838300Y-64525000D01*
X154092300Y-63947000D02*
X154375000Y-63947000D01*
X154092300Y-64525000D02*
X154092300Y-63947000D01*
X154092300Y-66925000D02*
X153838300Y-66925000D01*
X154092300Y-67503000D02*
X154092300Y-66925000D01*
X154375000Y-63693000D02*
X156375000Y-63693000D01*
X154375000Y-63947000D02*
X154375000Y-63693000D01*
X154375000Y-67503000D02*
X154092300Y-67503000D01*
X154375000Y-67757000D02*
X154375000Y-67503000D01*
X156375000Y-63693000D02*
X156375000Y-63947000D01*
X156375000Y-63947000D02*
X156657700Y-63947000D01*
X156375000Y-67503000D02*
X156375000Y-67757000D01*
X156375000Y-67757000D02*
X154375000Y-67757000D01*
X156657700Y-63947000D02*
X156657700Y-64525000D01*
X156657700Y-64525000D02*
X156911700Y-64525000D01*
X156657700Y-66925000D02*
X156657700Y-67503000D01*
X156657700Y-67503000D02*
X156375000Y-67503000D01*
X156911700Y-64525000D02*
X156911700Y-66925000D01*
X156911700Y-66925000D02*
X156657700Y-66925000D01*
D10*
%TO.C,R37*%
X144320000Y-68695000D02*
X145780000Y-68695000D01*
X144320000Y-71655000D02*
X144320000Y-68695000D01*
X145780000Y-68695000D02*
X145780000Y-71655000D01*
X145780000Y-71655000D02*
X144320000Y-71655000D01*
%TO.C,J8*%
X116235000Y-89515000D02*
X116235000Y-81235000D01*
X116235000Y-89515000D02*
X124515000Y-89515000D01*
X124515000Y-81235000D02*
X116235000Y-81235000D01*
X124515000Y-81235000D02*
X124515000Y-89515000D01*
%TO.C,TP3*%
X155125000Y-93600000D02*
X155125000Y-95600000D01*
X155125000Y-93600000D02*
X157125000Y-93600000D01*
X157125000Y-95600000D02*
X155125000Y-95600000D01*
X157125000Y-95600000D02*
X157125000Y-93600000D01*
%TO.C,C25*%
X146670000Y-87720000D02*
X148130000Y-87720000D01*
X146670000Y-90680000D02*
X146670000Y-87720000D01*
X148130000Y-87720000D02*
X148130000Y-90680000D01*
X148130000Y-90680000D02*
X146670000Y-90680000D01*
%TO.C,J11*%
X175560000Y-89515000D02*
X175560000Y-81235000D01*
X175560000Y-89515000D02*
X183840000Y-89515000D01*
X183840000Y-81235000D02*
X175560000Y-81235000D01*
X183840000Y-81235000D02*
X183840000Y-89515000D01*
%TO.C,R48*%
X132354444Y-74469999D02*
X133814444Y-74469999D01*
X132354444Y-77429999D02*
X132354444Y-74469999D01*
X133814444Y-74469999D02*
X133814444Y-77429999D01*
X133814444Y-77429999D02*
X132354444Y-77429999D01*
%TO.C,C3*%
X151895000Y-87770000D02*
X153355000Y-87770000D01*
X151895000Y-90730000D02*
X151895000Y-87770000D01*
X153355000Y-87770000D02*
X153355000Y-90730000D01*
X153355000Y-90730000D02*
X151895000Y-90730000D01*
%TO.C,ADC_SDO*%
X155550000Y-113100000D02*
X155550000Y-115100000D01*
X155550000Y-113100000D02*
X157550000Y-113100000D01*
X157550000Y-115100000D02*
X155550000Y-115100000D01*
X157550000Y-115100000D02*
X157550000Y-113100000D01*
%TO.C,R2*%
X152220000Y-80870000D02*
X155180000Y-80870000D01*
X152220000Y-82330000D02*
X152220000Y-80870000D01*
X155180000Y-80870000D02*
X155180000Y-82330000D01*
X155180000Y-82330000D02*
X152220000Y-82330000D01*
%TO.C,C70*%
X159245000Y-74670000D02*
X162205000Y-74670000D01*
X159245000Y-76130000D02*
X159245000Y-74670000D01*
X162205000Y-74670000D02*
X162205000Y-76130000D01*
X162205000Y-76130000D02*
X159245000Y-76130000D01*
%TO.C,PED1*%
X160275000Y-90550000D02*
X160275000Y-92550000D01*
X160275000Y-90550000D02*
X162275000Y-90550000D01*
X162275000Y-92550000D02*
X160275000Y-92550000D01*
X162275000Y-92550000D02*
X162275000Y-90550000D01*
%TO.C,R19*%
X148220000Y-84620000D02*
X149680000Y-84620000D01*
X148220000Y-87580000D02*
X148220000Y-84620000D01*
X149680000Y-84620000D02*
X149680000Y-87580000D01*
X149680000Y-87580000D02*
X148220000Y-87580000D01*
%TO.C,ADC_SDI*%
X160500000Y-108950000D02*
X160500000Y-110950000D01*
X160500000Y-108950000D02*
X162500000Y-108950000D01*
X162500000Y-110950000D02*
X160500000Y-110950000D01*
X162500000Y-110950000D02*
X162500000Y-108950000D01*
%TO.C,R60*%
X140895000Y-84695000D02*
X142355000Y-84695000D01*
X140895000Y-87655000D02*
X140895000Y-84695000D01*
X142355000Y-84695000D02*
X142355000Y-87655000D01*
X142355000Y-87655000D02*
X140895000Y-87655000D01*
%TO.C,L4*%
X146670000Y-90775000D02*
X148130000Y-90775000D01*
X146670000Y-94075000D02*
X146670000Y-90775000D01*
X148130000Y-90775000D02*
X148130000Y-94075000D01*
X148130000Y-94075000D02*
X146670000Y-94075000D01*
%TO.C,R40*%
X156145000Y-83470000D02*
X159105000Y-83470000D01*
X156145000Y-84930000D02*
X156145000Y-83470000D01*
X159105000Y-83470000D02*
X159105000Y-84930000D01*
X159105000Y-84930000D02*
X156145000Y-84930000D01*
%TO.C,R30*%
X146520000Y-59078188D02*
X149480000Y-59078188D01*
X146520000Y-60538188D02*
X146520000Y-59078188D01*
X149480000Y-59078188D02*
X149480000Y-60538188D01*
X149480000Y-60538188D02*
X146520000Y-60538188D01*
%TO.C,R44*%
X139728189Y-68496301D02*
X141188189Y-68496301D01*
X139728189Y-71456301D02*
X139728189Y-68496301D01*
X141188189Y-68496301D02*
X141188189Y-71456301D01*
X141188189Y-71456301D02*
X139728189Y-71456301D01*
%TO.C,C38*%
X164220000Y-63995000D02*
X165680000Y-63995000D01*
X164220000Y-66955000D02*
X164220000Y-63995000D01*
X165680000Y-63995000D02*
X165680000Y-66955000D01*
X165680000Y-66955000D02*
X164220000Y-66955000D01*
D11*
%TO.C,IC7*%
X128166744Y-75074999D02*
X128420744Y-75074999D01*
X128166744Y-77074999D02*
X128166744Y-75074999D01*
X128420744Y-74792299D02*
X128998744Y-74792299D01*
X128420744Y-75074999D02*
X128420744Y-74792299D01*
X128420744Y-77074999D02*
X128166744Y-77074999D01*
X128420744Y-77357699D02*
X128420744Y-77074999D01*
X128998744Y-74538299D02*
X131398744Y-74538299D01*
X128998744Y-74792299D02*
X128998744Y-74538299D01*
X128998744Y-77357699D02*
X128420744Y-77357699D01*
X128998744Y-77611699D02*
X128998744Y-77357699D01*
X131398744Y-74538299D02*
X131398744Y-74792299D01*
X131398744Y-74792299D02*
X131976744Y-74792299D01*
X131398744Y-77357699D02*
X131398744Y-77611699D01*
X131398744Y-77611699D02*
X128998744Y-77611699D01*
X131976744Y-74792299D02*
X131976744Y-75074999D01*
X131976744Y-75074999D02*
X132230744Y-75074999D01*
X131976744Y-77074999D02*
X131976744Y-77357699D01*
X131976744Y-77357699D02*
X131398744Y-77357699D01*
X132230744Y-75074999D02*
X132230744Y-77074999D01*
X132230744Y-77074999D02*
X131976744Y-77074999D01*
D10*
%TO.C,C29*%
X142695000Y-87695000D02*
X144155000Y-87695000D01*
X142695000Y-90655000D02*
X142695000Y-87695000D01*
X144155000Y-87695000D02*
X144155000Y-90655000D01*
X144155000Y-90655000D02*
X142695000Y-90655000D01*
%TO.C,C36*%
X161093699Y-71795000D02*
X164053699Y-71795000D01*
X161093699Y-73255000D02*
X161093699Y-71795000D01*
X164053699Y-71795000D02*
X164053699Y-73255000D01*
X164053699Y-73255000D02*
X161093699Y-73255000D01*
%TO.C,C22*%
X171870000Y-100220000D02*
X174830000Y-100220000D01*
X171870000Y-101680000D02*
X171870000Y-100220000D01*
X174830000Y-100220000D02*
X174830000Y-101680000D01*
X174830000Y-101680000D02*
X171870000Y-101680000D01*
D11*
%TO.C,IC4*%
X159163300Y-78600000D02*
X159417300Y-78600000D01*
X159163300Y-81000000D02*
X159163300Y-78600000D01*
X159417300Y-78022000D02*
X159700000Y-78022000D01*
X159417300Y-78600000D02*
X159417300Y-78022000D01*
X159417300Y-81000000D02*
X159163300Y-81000000D01*
X159417300Y-81578000D02*
X159417300Y-81000000D01*
X159700000Y-77768000D02*
X161700000Y-77768000D01*
X159700000Y-78022000D02*
X159700000Y-77768000D01*
X159700000Y-81578000D02*
X159417300Y-81578000D01*
X159700000Y-81832000D02*
X159700000Y-81578000D01*
X161700000Y-77768000D02*
X161700000Y-78022000D01*
X161700000Y-78022000D02*
X161982700Y-78022000D01*
X161700000Y-81578000D02*
X161700000Y-81832000D01*
X161700000Y-81832000D02*
X159700000Y-81832000D01*
X161982700Y-78022000D02*
X161982700Y-78600000D01*
X161982700Y-78600000D02*
X162236700Y-78600000D01*
X161982700Y-81000000D02*
X161982700Y-81578000D01*
X161982700Y-81578000D02*
X161700000Y-81578000D01*
X162236700Y-78600000D02*
X162236700Y-81000000D01*
X162236700Y-81000000D02*
X161982700Y-81000000D01*
D10*
%TO.C,THRESH1*%
X165700000Y-82825000D02*
X165700000Y-84825000D01*
X165700000Y-82825000D02*
X167700000Y-82825000D01*
X167700000Y-84825000D02*
X165700000Y-84825000D01*
X167700000Y-84825000D02*
X167700000Y-82825000D01*
%TO.C,H3*%
X126275000Y-117400000D02*
G75*
G02*
X121375000Y-117400000I-2450000J0D01*
G01*
X121375000Y-117400000D02*
G75*
G02*
X126275000Y-117400000I2450000J0D01*
G01*
%TO.C,L8*%
X139095000Y-90750000D02*
X140555000Y-90750000D01*
X139095000Y-94050000D02*
X139095000Y-90750000D01*
X140555000Y-90750000D02*
X140555000Y-94050000D01*
X140555000Y-94050000D02*
X139095000Y-94050000D01*
%TO.C,C93*%
X146999400Y-106245000D02*
X149959400Y-106245000D01*
X146999400Y-107705000D02*
X146999400Y-106245000D01*
X149959400Y-106245000D02*
X149959400Y-107705000D01*
X149959400Y-107705000D02*
X146999400Y-107705000D01*
%TO.C,C79*%
X126804444Y-72819999D02*
X129764444Y-72819999D01*
X126804444Y-74279999D02*
X126804444Y-72819999D01*
X129764444Y-72819999D02*
X129764444Y-74279999D01*
X129764444Y-74279999D02*
X126804444Y-74279999D01*
%TO.C,C74*%
X136203189Y-71771301D02*
X139163189Y-71771301D01*
X136203189Y-73231301D02*
X136203189Y-71771301D01*
X139163189Y-71771301D02*
X139163189Y-73231301D01*
X139163189Y-73231301D02*
X136203189Y-73231301D01*
%TO.C,ADC_SDK*%
X159425000Y-112725000D02*
X159425000Y-114725000D01*
X159425000Y-112725000D02*
X161425000Y-112725000D01*
X161425000Y-114725000D02*
X159425000Y-114725000D01*
X161425000Y-114725000D02*
X161425000Y-112725000D01*
%TO.C,C32*%
X124895000Y-87695000D02*
X127855000Y-87695000D01*
X124895000Y-89155000D02*
X124895000Y-87695000D01*
X127855000Y-87695000D02*
X127855000Y-89155000D01*
X127855000Y-89155000D02*
X124895000Y-89155000D01*
%TO.C,J2*%
X175560000Y-97905000D02*
X175560000Y-89625000D01*
X175560000Y-97905000D02*
X183840000Y-97905000D01*
X183840000Y-89625000D02*
X175560000Y-89625000D01*
X183840000Y-89625000D02*
X183840000Y-97905000D01*
%TO.C,R23*%
X161093699Y-70120000D02*
X164053699Y-70120000D01*
X161093699Y-71580000D02*
X161093699Y-70120000D01*
X164053699Y-70120000D02*
X164053699Y-71580000D01*
X164053699Y-71580000D02*
X161093699Y-71580000D01*
%TO.C,R14*%
X142170001Y-62928188D02*
X143630001Y-62928188D01*
X142170001Y-65888188D02*
X142170001Y-62928188D01*
X143630001Y-62928188D02*
X143630001Y-65888188D01*
X143630001Y-65888188D02*
X142170001Y-65888188D01*
%TO.C,J6*%
X116210000Y-106280000D02*
X116210000Y-98000000D01*
X116210000Y-106280000D02*
X124490000Y-106280000D01*
X124490000Y-98000000D02*
X116210000Y-98000000D01*
X124490000Y-98000000D02*
X124490000Y-106280000D01*
%TO.C,C92*%
X156620000Y-99495000D02*
X159580000Y-99495000D01*
X156620000Y-100955000D02*
X156620000Y-99495000D01*
X159580000Y-99495000D02*
X159580000Y-100955000D01*
X159580000Y-100955000D02*
X156620000Y-100955000D01*
%TO.C,R77*%
X156570000Y-97820000D02*
X159530000Y-97820000D01*
X156570000Y-99280000D02*
X156570000Y-97820000D01*
X159530000Y-97820000D02*
X159530000Y-99280000D01*
X159530000Y-99280000D02*
X156570000Y-99280000D01*
%TO.C,R17*%
X150022071Y-84672071D02*
X151482071Y-84672071D01*
X150022071Y-87632071D02*
X150022071Y-84672071D01*
X151482071Y-84672071D02*
X151482071Y-87632071D01*
X151482071Y-87632071D02*
X150022071Y-87632071D01*
%TO.C,C61*%
X142170001Y-59878188D02*
X143630001Y-59878188D01*
X142170001Y-62838188D02*
X142170001Y-59878188D01*
X143630001Y-59878188D02*
X143630001Y-62838188D01*
X143630001Y-62838188D02*
X142170001Y-62838188D01*
%TO.C,Y1*%
X150104400Y-103925000D02*
X153354400Y-103925000D01*
X150104400Y-107825000D02*
X150104400Y-103925000D01*
X153354400Y-103925000D02*
X153354400Y-107825000D01*
X153354400Y-107825000D02*
X150104400Y-107825000D01*
%TO.C,C2*%
X172170000Y-85045000D02*
X175130000Y-85045000D01*
X172170000Y-86505000D02*
X172170000Y-85045000D01*
X175130000Y-85045000D02*
X175130000Y-86505000D01*
X175130000Y-86505000D02*
X172170000Y-86505000D01*
%TO.C,R22*%
X153200000Y-72945000D02*
X156160000Y-72945000D01*
X153200000Y-74405000D02*
X153200000Y-72945000D01*
X156160000Y-72945000D02*
X156160000Y-74405000D01*
X156160000Y-74405000D02*
X153200000Y-74405000D01*
%TO.C,R52*%
X133759300Y-81520000D02*
X135219300Y-81520000D01*
X133759300Y-84480000D02*
X133759300Y-81520000D01*
X135219300Y-81520000D02*
X135219300Y-84480000D01*
X135219300Y-84480000D02*
X133759300Y-84480000D01*
%TO.C,R18*%
X157495000Y-79920000D02*
X158955000Y-79920000D01*
X157495000Y-82880000D02*
X157495000Y-79920000D01*
X158955000Y-79920000D02*
X158955000Y-82880000D01*
X158955000Y-82880000D02*
X157495000Y-82880000D01*
%TO.C,C45*%
X154020000Y-60530700D02*
X156980000Y-60530700D01*
X154020000Y-61990700D02*
X154020000Y-60530700D01*
X156980000Y-60530700D02*
X156980000Y-61990700D01*
X156980000Y-61990700D02*
X154020000Y-61990700D01*
%TO.C,C37*%
X155695000Y-79920000D02*
X157155000Y-79920000D01*
X155695000Y-82880000D02*
X155695000Y-79920000D01*
X157155000Y-79920000D02*
X157155000Y-82880000D01*
X157155000Y-82880000D02*
X155695000Y-82880000D01*
%TO.C,C23*%
X148220000Y-87720000D02*
X149680000Y-87720000D01*
X148220000Y-90680000D02*
X148220000Y-87720000D01*
X149680000Y-87720000D02*
X149680000Y-90680000D01*
X149680000Y-90680000D02*
X148220000Y-90680000D01*
%TO.C,R1*%
X152820000Y-97770000D02*
X155780000Y-97770000D01*
X152820000Y-99230000D02*
X152820000Y-97770000D01*
X155780000Y-97770000D02*
X155780000Y-99230000D01*
X155780000Y-99230000D02*
X152820000Y-99230000D01*
%TO.C,H2*%
X171850000Y-46450000D02*
G75*
G02*
X166950000Y-46450000I-2450000J0D01*
G01*
X166950000Y-46450000D02*
G75*
G02*
X171850000Y-46450000I2450000J0D01*
G01*
%TO.C,INTEGRATOR*%
X168350000Y-104125000D02*
X168350000Y-106125000D01*
X168350000Y-104125000D02*
X170350000Y-104125000D01*
X170350000Y-106125000D02*
X168350000Y-106125000D01*
X170350000Y-106125000D02*
X170350000Y-104125000D01*
%TO.C,C60*%
X139120001Y-65128188D02*
X142080001Y-65128188D01*
X139120001Y-66588188D02*
X139120001Y-65128188D01*
X142080001Y-65128188D02*
X142080001Y-66588188D01*
X142080001Y-66588188D02*
X139120001Y-66588188D01*
%TO.C,C39*%
X158768699Y-69020000D02*
X160228699Y-69020000D01*
X158768699Y-71980000D02*
X158768699Y-69020000D01*
X160228699Y-69020000D02*
X160228699Y-71980000D01*
X160228699Y-71980000D02*
X158768699Y-71980000D01*
%TO.C,C86*%
X127034300Y-79920000D02*
X129994300Y-79920000D01*
X127034300Y-81380000D02*
X127034300Y-79920000D01*
X129994300Y-79920000D02*
X129994300Y-81380000D01*
X129994300Y-81380000D02*
X127034300Y-81380000D01*
%TO.C,R59*%
X157145000Y-65830700D02*
X158605000Y-65830700D01*
X157145000Y-68790700D02*
X157145000Y-65830700D01*
X158605000Y-65830700D02*
X158605000Y-68790700D01*
X158605000Y-68790700D02*
X157145000Y-68790700D01*
%TO.C,R76*%
X160295000Y-99495000D02*
X163255000Y-99495000D01*
X160295000Y-100955000D02*
X160295000Y-99495000D01*
X163255000Y-99495000D02*
X163255000Y-100955000D01*
X163255000Y-100955000D02*
X160295000Y-100955000D01*
%TO.C,R51*%
X136470000Y-75195000D02*
X139430000Y-75195000D01*
X136470000Y-76655000D02*
X136470000Y-75195000D01*
X139430000Y-75195000D02*
X139430000Y-76655000D01*
X139430000Y-76655000D02*
X136470000Y-76655000D01*
%TO.C,R31*%
X147620000Y-68670000D02*
X149080000Y-68670000D01*
X147620000Y-71630000D02*
X147620000Y-68670000D01*
X149080000Y-68670000D02*
X149080000Y-71630000D01*
X149080000Y-71630000D02*
X147620000Y-71630000D01*
%TO.C,R32*%
X146495000Y-64828188D02*
X149455000Y-64828188D01*
X146495000Y-66288188D02*
X146495000Y-64828188D01*
X149455000Y-64828188D02*
X149455000Y-66288188D01*
X149455000Y-66288188D02*
X146495000Y-66288188D01*
%TO.C,C27*%
X144870000Y-87720000D02*
X146330000Y-87720000D01*
X144870000Y-90680000D02*
X144870000Y-87720000D01*
X146330000Y-87720000D02*
X146330000Y-90680000D01*
X146330000Y-90680000D02*
X144870000Y-90680000D01*
%TO.C,C68*%
X159145000Y-83470000D02*
X162105000Y-83470000D01*
X159145000Y-84930000D02*
X159145000Y-83470000D01*
X162105000Y-83470000D02*
X162105000Y-84930000D01*
X162105000Y-84930000D02*
X159145000Y-84930000D01*
%TO.C,CLK_OUT*%
X135900000Y-106025000D02*
X135900000Y-108025000D01*
X135900000Y-106025000D02*
X137900000Y-106025000D01*
X137900000Y-108025000D02*
X135900000Y-108025000D01*
X137900000Y-108025000D02*
X137900000Y-106025000D01*
%TO.C,C26*%
X125245000Y-107820000D02*
X128205000Y-107820000D01*
X125245000Y-109280000D02*
X125245000Y-107820000D01*
X128205000Y-107820000D02*
X128205000Y-109280000D01*
X128205000Y-109280000D02*
X125245000Y-109280000D01*
%TO.C,L1*%
X151920000Y-90775000D02*
X153380000Y-90775000D01*
X151920000Y-94075000D02*
X151920000Y-90775000D01*
X153380000Y-90775000D02*
X153380000Y-94075000D01*
X153380000Y-94075000D02*
X151920000Y-94075000D01*
%TO.C,C1*%
X156670000Y-101195000D02*
X159630000Y-101195000D01*
X156670000Y-102655000D02*
X156670000Y-101195000D01*
X159630000Y-101195000D02*
X159630000Y-102655000D01*
X159630000Y-102655000D02*
X156670000Y-102655000D01*
%TO.C,R43*%
X142770000Y-68695000D02*
X144230000Y-68695000D01*
X142770000Y-71655000D02*
X142770000Y-68695000D01*
X144230000Y-68695000D02*
X144230000Y-71655000D01*
X144230000Y-71655000D02*
X142770000Y-71655000D01*
%TO.C,C78*%
X133879444Y-74469999D02*
X135339444Y-74469999D01*
X133879444Y-77429999D02*
X133879444Y-74469999D01*
X135339444Y-74469999D02*
X135339444Y-77429999D01*
X135339444Y-77429999D02*
X133879444Y-77429999D01*
%TO.C,C35*%
X160993699Y-62870000D02*
X163953699Y-62870000D01*
X160993699Y-64330000D02*
X160993699Y-62870000D01*
X163953699Y-62870000D02*
X163953699Y-64330000D01*
X163953699Y-64330000D02*
X160993699Y-64330000D01*
%TO.C,C83*%
X127204444Y-77844999D02*
X130164444Y-77844999D01*
X127204444Y-79304999D02*
X127204444Y-77844999D01*
X130164444Y-77844999D02*
X130164444Y-79304999D01*
X130164444Y-79304999D02*
X127204444Y-79304999D01*
%TO.C,C66*%
X132403189Y-68321301D02*
X133863189Y-68321301D01*
X132403189Y-71281301D02*
X132403189Y-68321301D01*
X133863189Y-68321301D02*
X133863189Y-71281301D01*
X133863189Y-71281301D02*
X132403189Y-71281301D01*
%TO.C,C56*%
X144670000Y-62703188D02*
X146130000Y-62703188D01*
X144670000Y-65663188D02*
X144670000Y-62703188D01*
X146130000Y-62703188D02*
X146130000Y-65663188D01*
X146130000Y-65663188D02*
X144670000Y-65663188D01*
%TO.C,R73*%
X152795000Y-99545000D02*
X155755000Y-99545000D01*
X152795000Y-101005000D02*
X152795000Y-99545000D01*
X155755000Y-99545000D02*
X155755000Y-101005000D01*
X155755000Y-101005000D02*
X152795000Y-101005000D01*
%TO.C,TRIGGERIN*%
X118575000Y-76900000D02*
X118575000Y-78900000D01*
X118575000Y-76900000D02*
X120575000Y-76900000D01*
X120575000Y-78900000D02*
X118575000Y-78900000D01*
X120575000Y-78900000D02*
X120575000Y-76900000D01*
%TO.C,L3*%
X148270000Y-90775000D02*
X149730000Y-90775000D01*
X148270000Y-94075000D02*
X148270000Y-90775000D01*
X149730000Y-90775000D02*
X149730000Y-94075000D01*
X149730000Y-94075000D02*
X148270000Y-94075000D01*
%TO.C,C46*%
X153995000Y-69480700D02*
X156955000Y-69480700D01*
X153995000Y-70940700D02*
X153995000Y-69480700D01*
X156955000Y-69480700D02*
X156955000Y-70940700D01*
X156955000Y-70940700D02*
X153995000Y-70940700D01*
%TO.C,C62*%
X137320001Y-63078188D02*
X138780001Y-63078188D01*
X137320001Y-66038188D02*
X137320001Y-63078188D01*
X138780001Y-63078188D02*
X138780001Y-66038188D01*
X138780001Y-66038188D02*
X137320001Y-66038188D01*
%TO.C,C30*%
X124995000Y-92920000D02*
X127955000Y-92920000D01*
X124995000Y-94380000D02*
X124995000Y-92920000D01*
X127955000Y-92920000D02*
X127955000Y-94380000D01*
X127955000Y-94380000D02*
X124995000Y-94380000D01*
%TO.C,L6*%
X142695000Y-90725000D02*
X144155000Y-90725000D01*
X142695000Y-94025000D02*
X142695000Y-90725000D01*
X144155000Y-90725000D02*
X144155000Y-94025000D01*
X144155000Y-94025000D02*
X142695000Y-94025000D01*
%TO.C,C53*%
X146495000Y-66353188D02*
X149455000Y-66353188D01*
X146495000Y-67813188D02*
X146495000Y-66353188D01*
X149455000Y-66353188D02*
X149455000Y-67813188D01*
X149455000Y-67813188D02*
X146495000Y-67813188D01*
%TO.C,L2*%
X150022071Y-90777071D02*
X151482071Y-90777071D01*
X150022071Y-94077071D02*
X150022071Y-90777071D01*
X151482071Y-90777071D02*
X151482071Y-94077071D01*
X151482071Y-94077071D02*
X150022071Y-94077071D01*
%TO.C,R64*%
X149745000Y-63428188D02*
X151205000Y-63428188D01*
X149745000Y-66388188D02*
X149745000Y-63428188D01*
X151205000Y-63428188D02*
X151205000Y-66388188D01*
X151205000Y-66388188D02*
X149745000Y-66388188D01*
%TO.C,R78*%
X160295000Y-101145000D02*
X163255000Y-101145000D01*
X160295000Y-102605000D02*
X160295000Y-101145000D01*
X163255000Y-101145000D02*
X163255000Y-102605000D01*
X163255000Y-102605000D02*
X160295000Y-102605000D01*
%TO.C,J5*%
X116210000Y-106350000D02*
X116210000Y-114630000D01*
X116210000Y-106350000D02*
X124490000Y-106350000D01*
X124490000Y-114630000D02*
X116210000Y-114630000D01*
X124490000Y-114630000D02*
X124490000Y-106350000D01*
D11*
%TO.C,IC1*%
X161013299Y-65925000D02*
X161267299Y-65925000D01*
X161013299Y-68325000D02*
X161013299Y-65925000D01*
X161267299Y-65347000D02*
X161549999Y-65347000D01*
X161267299Y-65925000D02*
X161267299Y-65347000D01*
X161267299Y-68325000D02*
X161013299Y-68325000D01*
X161267299Y-68903000D02*
X161267299Y-68325000D01*
X161549999Y-65093000D02*
X163549999Y-65093000D01*
X161549999Y-65347000D02*
X161549999Y-65093000D01*
X161549999Y-68903000D02*
X161267299Y-68903000D01*
X161549999Y-69157000D02*
X161549999Y-68903000D01*
X163549999Y-65093000D02*
X163549999Y-65347000D01*
X163549999Y-65347000D02*
X163832699Y-65347000D01*
X163549999Y-68903000D02*
X163549999Y-69157000D01*
X163549999Y-69157000D02*
X161549999Y-69157000D01*
X163832699Y-65347000D02*
X163832699Y-65925000D01*
X163832699Y-65925000D02*
X164086699Y-65925000D01*
X163832699Y-68325000D02*
X163832699Y-68903000D01*
X163832699Y-68903000D02*
X163549999Y-68903000D01*
X164086699Y-65925000D02*
X164086699Y-68325000D01*
X164086699Y-68325000D02*
X163832699Y-68325000D01*
D10*
%TO.C,C81*%
X130259444Y-77849999D02*
X133219444Y-77849999D01*
X130259444Y-79309999D02*
X130259444Y-77849999D01*
X133219444Y-77849999D02*
X133219444Y-79309999D01*
X133219444Y-79309999D02*
X130259444Y-79309999D01*
%TO.C,C84*%
X126439300Y-81470000D02*
X127899300Y-81470000D01*
X126439300Y-84430000D02*
X126439300Y-81470000D01*
X127899300Y-81470000D02*
X127899300Y-84430000D01*
X127899300Y-84430000D02*
X126439300Y-84430000D01*
%TO.C,R58*%
X142695000Y-84670000D02*
X144155000Y-84670000D01*
X142695000Y-87630000D02*
X142695000Y-84670000D01*
X144155000Y-84670000D02*
X144155000Y-87630000D01*
X144155000Y-87630000D02*
X142695000Y-87630000D01*
%TO.C,R50*%
X124909300Y-81470000D02*
X126369300Y-81470000D01*
X124909300Y-84430000D02*
X124909300Y-81470000D01*
X126369300Y-81470000D02*
X126369300Y-84430000D01*
X126369300Y-84430000D02*
X124909300Y-84430000D01*
D11*
%TO.C,IC3*%
X146338299Y-61475000D02*
X146592299Y-61475000D01*
X146338299Y-63875000D02*
X146338299Y-61475000D01*
X146592299Y-60897000D02*
X146874999Y-60897000D01*
X146592299Y-61475000D02*
X146592299Y-60897000D01*
X146592299Y-63875000D02*
X146338299Y-63875000D01*
X146592299Y-64453000D02*
X146592299Y-63875000D01*
X146874999Y-60643000D02*
X148874999Y-60643000D01*
X146874999Y-60897000D02*
X146874999Y-60643000D01*
X146874999Y-64453000D02*
X146592299Y-64453000D01*
X146874999Y-64707000D02*
X146874999Y-64453000D01*
X148874999Y-60643000D02*
X148874999Y-60897000D01*
X148874999Y-60897000D02*
X149157699Y-60897000D01*
X148874999Y-64453000D02*
X148874999Y-64707000D01*
X148874999Y-64707000D02*
X146874999Y-64707000D01*
X149157699Y-60897000D02*
X149157699Y-61475000D01*
X149157699Y-61475000D02*
X149411699Y-61475000D01*
X149157699Y-63875000D02*
X149157699Y-64453000D01*
X149157699Y-64453000D02*
X148874999Y-64453000D01*
X149411699Y-61475000D02*
X149411699Y-63875000D01*
X149411699Y-63875000D02*
X149157699Y-63875000D01*
D10*
%TO.C,C8*%
X152220000Y-82370000D02*
X155180000Y-82370000D01*
X152220000Y-83830000D02*
X152220000Y-82370000D01*
X155180000Y-82370000D02*
X155180000Y-83830000D01*
X155180000Y-83830000D02*
X152220000Y-83830000D01*
%TO.C,PSEC5_CLK_OUT*%
X135925000Y-102025000D02*
X135925000Y-104025000D01*
X135925000Y-102025000D02*
X137925000Y-102025000D01*
X137925000Y-104025000D02*
X135925000Y-104025000D01*
X137925000Y-104025000D02*
X137925000Y-102025000D01*
%TO.C,C52*%
X146520000Y-57553188D02*
X149480000Y-57553188D01*
X146520000Y-59013188D02*
X146520000Y-57553188D01*
X149480000Y-57553188D02*
X149480000Y-59013188D01*
X149480000Y-59013188D02*
X146520000Y-59013188D01*
D11*
%TO.C,IC6*%
X133993001Y-69076300D02*
X134247001Y-69076300D01*
X133993001Y-71076300D02*
X133993001Y-69076300D01*
X134247001Y-68793600D02*
X134825001Y-68793600D01*
X134247001Y-69076300D02*
X134247001Y-68793600D01*
X134247001Y-71076300D02*
X133993001Y-71076300D01*
X134247001Y-71359000D02*
X134247001Y-71076300D01*
X134825001Y-68539600D02*
X137225001Y-68539600D01*
X134825001Y-68793600D02*
X134825001Y-68539600D01*
X134825001Y-71359000D02*
X134247001Y-71359000D01*
X134825001Y-71613000D02*
X134825001Y-71359000D01*
X137225001Y-68539600D02*
X137225001Y-68793600D01*
X137225001Y-68793600D02*
X137803001Y-68793600D01*
X137225001Y-71359000D02*
X137225001Y-71613000D01*
X137225001Y-71613000D02*
X134825001Y-71613000D01*
X137803001Y-68793600D02*
X137803001Y-69076300D01*
X137803001Y-69076300D02*
X138057001Y-69076300D01*
X137803001Y-71076300D02*
X137803001Y-71359000D01*
X137803001Y-71359000D02*
X137225001Y-71359000D01*
X138057001Y-69076300D02*
X138057001Y-71076300D01*
X138057001Y-71076300D02*
X137803001Y-71076300D01*
D10*
%TO.C,R74*%
X160320000Y-97645000D02*
X163280000Y-97645000D01*
X160320000Y-99105000D02*
X160320000Y-97645000D01*
X163280000Y-97645000D02*
X163280000Y-99105000D01*
X163280000Y-99105000D02*
X160320000Y-99105000D01*
%TO.C,R72*%
X150920000Y-99645000D02*
X152380000Y-99645000D01*
X150920000Y-102605000D02*
X150920000Y-99645000D01*
X152380000Y-99645000D02*
X152380000Y-102605000D01*
X152380000Y-102605000D02*
X150920000Y-102605000D01*
%TO.C,R39*%
X139120001Y-66653188D02*
X142080001Y-66653188D01*
X139120001Y-68113188D02*
X139120001Y-66653188D01*
X142080001Y-66653188D02*
X142080001Y-68113188D01*
X142080001Y-68113188D02*
X139120001Y-68113188D01*
%TO.C,C69*%
X133003189Y-66646301D02*
X135963189Y-66646301D01*
X133003189Y-68106301D02*
X133003189Y-66646301D01*
X135963189Y-66646301D02*
X135963189Y-68106301D01*
X135963189Y-68106301D02*
X133003189Y-68106301D01*
%TO.C,C31*%
X140895000Y-87720000D02*
X142355000Y-87720000D01*
X140895000Y-90680000D02*
X140895000Y-87720000D01*
X142355000Y-87720000D02*
X142355000Y-90680000D01*
X142355000Y-90680000D02*
X140895000Y-90680000D01*
%TO.C,R62*%
X139095000Y-84695000D02*
X140555000Y-84695000D01*
X139095000Y-87655000D02*
X139095000Y-84695000D01*
X140555000Y-84695000D02*
X140555000Y-87655000D01*
X140555000Y-87655000D02*
X139095000Y-87655000D01*
%TO.C,J4*%
X175555000Y-114630000D02*
X175555000Y-106350000D01*
X175555000Y-114630000D02*
X183835000Y-114630000D01*
X183835000Y-106350000D02*
X175555000Y-106350000D01*
X183835000Y-106350000D02*
X183835000Y-114630000D01*
%TO.C,C103*%
X160795000Y-102945000D02*
X163755000Y-102945000D01*
X160795000Y-104405000D02*
X160795000Y-102945000D01*
X163755000Y-102945000D02*
X163755000Y-104405000D01*
X163755000Y-104405000D02*
X160795000Y-104405000D01*
%TO.C,R28*%
X153995000Y-67930700D02*
X156955000Y-67930700D01*
X153995000Y-69390700D02*
X153995000Y-67930700D01*
X156955000Y-67930700D02*
X156955000Y-69390700D01*
X156955000Y-69390700D02*
X153995000Y-69390700D01*
%TO.C,R15*%
X151895000Y-84720000D02*
X153355000Y-84720000D01*
X151895000Y-87680000D02*
X151895000Y-84720000D01*
X153355000Y-84720000D02*
X153355000Y-87680000D01*
X153355000Y-87680000D02*
X151895000Y-87680000D01*
%TO.C,H1*%
X126275000Y-46450000D02*
G75*
G02*
X121375000Y-46450000I-2450000J0D01*
G01*
X121375000Y-46450000D02*
G75*
G02*
X126275000Y-46450000I2450000J0D01*
G01*
%TO.C,C67*%
X138203189Y-68496301D02*
X139663189Y-68496301D01*
X138203189Y-71456301D02*
X138203189Y-68496301D01*
X139663189Y-68496301D02*
X139663189Y-71456301D01*
X139663189Y-71456301D02*
X138203189Y-71456301D01*
%TO.C,C58*%
X144670000Y-59603188D02*
X146130000Y-59603188D01*
X144670000Y-62563188D02*
X144670000Y-59603188D01*
X146130000Y-59603188D02*
X146130000Y-62563188D01*
X146130000Y-62563188D02*
X144670000Y-62563188D01*
%TO.C,H4*%
X171850000Y-117400000D02*
G75*
G02*
X166950000Y-117400000I-2450000J0D01*
G01*
X166950000Y-117400000D02*
G75*
G02*
X171850000Y-117400000I2450000J0D01*
G01*
%TO.C,R42*%
X130853189Y-68321301D02*
X132313189Y-68321301D01*
X130853189Y-71281301D02*
X130853189Y-68321301D01*
X132313189Y-68321301D02*
X132313189Y-71281301D01*
X132313189Y-71281301D02*
X130853189Y-71281301D01*
%TO.C,RST*%
X159925000Y-58850000D02*
X159925000Y-60850000D01*
X159925000Y-58850000D02*
X161925000Y-58850000D01*
X161925000Y-60850000D02*
X159925000Y-60850000D01*
X161925000Y-60850000D02*
X161925000Y-58850000D01*
%TO.C,C59*%
X138995001Y-59353188D02*
X141955001Y-59353188D01*
X138995001Y-60813188D02*
X138995001Y-59353188D01*
X141955001Y-59353188D02*
X141955001Y-60813188D01*
X141955001Y-60813188D02*
X138995001Y-60813188D01*
%TO.C,R68*%
X129829444Y-72819999D02*
X132789444Y-72819999D01*
X129829444Y-74279999D02*
X129829444Y-72819999D01*
X132789444Y-72819999D02*
X132789444Y-74279999D01*
X132789444Y-74279999D02*
X129829444Y-74279999D01*
%TO.C,L5*%
X144870000Y-90775000D02*
X146330000Y-90775000D01*
X144870000Y-94075000D02*
X144870000Y-90775000D01*
X146330000Y-90775000D02*
X146330000Y-94075000D01*
X146330000Y-94075000D02*
X144870000Y-94075000D01*
%TO.C,R47*%
X136420000Y-73620000D02*
X139380000Y-73620000D01*
X136420000Y-75080000D02*
X136420000Y-73620000D01*
X139380000Y-73620000D02*
X139380000Y-75080000D01*
X139380000Y-75080000D02*
X136420000Y-75080000D01*
%TO.C,C48*%
X151895000Y-64330700D02*
X153355000Y-64330700D01*
X151895000Y-67290700D02*
X151895000Y-64330700D01*
X153355000Y-64330700D02*
X153355000Y-67290700D01*
X153355000Y-67290700D02*
X151895000Y-67290700D01*
%TO.C,C94*%
X161549400Y-106045000D02*
X164509400Y-106045000D01*
X161549400Y-107505000D02*
X161549400Y-106045000D01*
X164509400Y-106045000D02*
X164509400Y-107505000D01*
X164509400Y-107505000D02*
X161549400Y-107505000D01*
%TO.C,C20*%
X171720000Y-93370000D02*
X174680000Y-93370000D01*
X171720000Y-94830000D02*
X171720000Y-93370000D01*
X174680000Y-93370000D02*
X174680000Y-94830000D01*
X174680000Y-94830000D02*
X171720000Y-94830000D01*
%TO.C,TRIGGEROUT*%
X132800000Y-56600000D02*
X132800000Y-58600000D01*
X132800000Y-56600000D02*
X134800000Y-56600000D01*
X134800000Y-58600000D02*
X132800000Y-58600000D01*
X134800000Y-58600000D02*
X134800000Y-56600000D01*
%TO.C,J7*%
X116220000Y-97905000D02*
X116220000Y-89625000D01*
X116220000Y-97905000D02*
X124500000Y-97905000D01*
X124500000Y-89625000D02*
X116220000Y-89625000D01*
X124500000Y-89625000D02*
X124500000Y-97905000D01*
%TO.C,C75*%
X133178189Y-71771301D02*
X136138189Y-71771301D01*
X133178189Y-73231301D02*
X133178189Y-71771301D01*
X136138189Y-71771301D02*
X136138189Y-73231301D01*
X136138189Y-73231301D02*
X133178189Y-73231301D01*
%TO.C,R70*%
X130059300Y-79920000D02*
X133019300Y-79920000D01*
X130059300Y-81380000D02*
X130059300Y-79920000D01*
X133019300Y-79920000D02*
X133019300Y-81380000D01*
X133019300Y-81380000D02*
X130059300Y-81380000D01*
%TO.C,C6*%
X163795000Y-97670000D02*
X166755000Y-97670000D01*
X163795000Y-99130000D02*
X163795000Y-97670000D01*
X166755000Y-97670000D02*
X166755000Y-99130000D01*
X166755000Y-99130000D02*
X163795000Y-99130000D01*
%TO.C,C65*%
X137320001Y-60028188D02*
X138780001Y-60028188D01*
X137320001Y-62988188D02*
X137320001Y-60028188D01*
X138780001Y-60028188D02*
X138780001Y-62988188D01*
X138780001Y-62988188D02*
X137320001Y-62988188D01*
D11*
%TO.C,IC8*%
X128032300Y-82075000D02*
X128286300Y-82075000D01*
X128032300Y-84075000D02*
X128032300Y-82075000D01*
X128286300Y-81792300D02*
X128864300Y-81792300D01*
X128286300Y-82075000D02*
X128286300Y-81792300D01*
X128286300Y-84075000D02*
X128032300Y-84075000D01*
X128286300Y-84357700D02*
X128286300Y-84075000D01*
X128864300Y-81538300D02*
X131264300Y-81538300D01*
X128864300Y-81792300D02*
X128864300Y-81538300D01*
X128864300Y-84357700D02*
X128286300Y-84357700D01*
X128864300Y-84611700D02*
X128864300Y-84357700D01*
X131264300Y-81538300D02*
X131264300Y-81792300D01*
X131264300Y-81792300D02*
X131842300Y-81792300D01*
X131264300Y-84357700D02*
X131264300Y-84611700D01*
X131264300Y-84611700D02*
X128864300Y-84611700D01*
X131842300Y-81792300D02*
X131842300Y-82075000D01*
X131842300Y-82075000D02*
X132096300Y-82075000D01*
X131842300Y-84075000D02*
X131842300Y-84357700D01*
X131842300Y-84357700D02*
X131264300Y-84357700D01*
X132096300Y-82075000D02*
X132096300Y-84075000D01*
X132096300Y-84075000D02*
X131842300Y-84075000D01*
D10*
%TO.C,R35*%
X138995001Y-57828188D02*
X141955001Y-57828188D01*
X138995001Y-59288188D02*
X138995001Y-57828188D01*
X141955001Y-57828188D02*
X141955001Y-59288188D01*
X141955001Y-59288188D02*
X138995001Y-59288188D01*
%TO.C,R56*%
X144895000Y-84670000D02*
X146355000Y-84670000D01*
X144895000Y-87630000D02*
X144895000Y-84670000D01*
X146355000Y-84670000D02*
X146355000Y-87630000D01*
X146355000Y-87630000D02*
X144895000Y-87630000D01*
%TO.C,C77*%
X125054444Y-74619999D02*
X126514444Y-74619999D01*
X125054444Y-77579999D02*
X125054444Y-74619999D01*
X126514444Y-74619999D02*
X126514444Y-77579999D01*
X126514444Y-77579999D02*
X125054444Y-77579999D01*
%TO.C,SPICLK*%
X165675000Y-73450000D02*
X165675000Y-75450000D01*
X165675000Y-73450000D02*
X167675000Y-73450000D01*
X167675000Y-75450000D02*
X165675000Y-75450000D01*
X167675000Y-75450000D02*
X167675000Y-73450000D01*
%TO.C,R46*%
X126579444Y-74619999D02*
X128039444Y-74619999D01*
X126579444Y-77579999D02*
X126579444Y-74619999D01*
X128039444Y-74619999D02*
X128039444Y-77579999D01*
X128039444Y-77579999D02*
X126579444Y-77579999D01*
%TO.C,ADC_CNV*%
X151325000Y-112475000D02*
X151325000Y-114475000D01*
X151325000Y-112475000D02*
X153325000Y-112475000D01*
X153325000Y-114475000D02*
X151325000Y-114475000D01*
X153325000Y-114475000D02*
X153325000Y-112475000D01*
%TO.C,IC9*%
X142550000Y-98360000D02*
X142550000Y-103760000D01*
X142550000Y-103760000D02*
X149950000Y-103760000D01*
X149950000Y-98360000D02*
X142550000Y-98360000D01*
X149950000Y-103760000D02*
X149950000Y-98360000D01*
%TO.C,C33*%
X139095000Y-87720000D02*
X140555000Y-87720000D01*
X139095000Y-90680000D02*
X139095000Y-87720000D01*
X140555000Y-87720000D02*
X140555000Y-90680000D01*
X140555000Y-90680000D02*
X139095000Y-90680000D01*
%TO.C,C47*%
X157145000Y-62805700D02*
X158605000Y-62805700D01*
X157145000Y-65765700D02*
X157145000Y-62805700D01*
X158605000Y-62805700D02*
X158605000Y-65765700D01*
X158605000Y-65765700D02*
X157145000Y-65765700D01*
%TO.C,C72*%
X155445000Y-78270000D02*
X158405000Y-78270000D01*
X155445000Y-79730000D02*
X155445000Y-78270000D01*
X158405000Y-78270000D02*
X158405000Y-79730000D01*
X158405000Y-79730000D02*
X155445000Y-79730000D01*
%TO.C,C7*%
X146095000Y-70395000D02*
X147555000Y-70395000D01*
X146095000Y-73355000D02*
X146095000Y-70395000D01*
X147555000Y-70395000D02*
X147555000Y-73355000D01*
X147555000Y-73355000D02*
X146095000Y-73355000D01*
%TO.C,L7*%
X140895000Y-90800000D02*
X142355000Y-90800000D01*
X140895000Y-94100000D02*
X140895000Y-90800000D01*
X142355000Y-90800000D02*
X142355000Y-94100000D01*
X142355000Y-94100000D02*
X140895000Y-94100000D01*
%TO.C,C122*%
X142020000Y-104145000D02*
X144980000Y-104145000D01*
X142020000Y-105605000D02*
X142020000Y-104145000D01*
X144980000Y-104145000D02*
X144980000Y-105605000D01*
X144980000Y-105605000D02*
X142020000Y-105605000D01*
%TO.C,C51*%
X151870000Y-60630700D02*
X153330000Y-60630700D01*
X151870000Y-63590700D02*
X151870000Y-60630700D01*
X153330000Y-60630700D02*
X153330000Y-63590700D01*
X153330000Y-63590700D02*
X151870000Y-63590700D01*
%TO.C,C54*%
X149745000Y-60403188D02*
X151205000Y-60403188D01*
X149745000Y-63363188D02*
X149745000Y-60403188D01*
X151205000Y-60403188D02*
X151205000Y-63363188D01*
X151205000Y-63363188D02*
X149745000Y-63363188D01*
D11*
%TO.C,U7*%
X156119000Y-104518999D02*
X156423800Y-104518999D01*
X156119000Y-107280999D02*
X156119000Y-104518999D01*
X156119000Y-107280999D02*
X156423800Y-107280999D01*
X156423800Y-104096599D02*
X160030600Y-104096599D01*
X156423800Y-104518999D02*
X156423800Y-104096599D01*
X156423800Y-107703399D02*
X156423800Y-107280999D01*
X160030600Y-104096599D02*
X160030600Y-104518999D01*
X160030600Y-107280999D02*
X160030600Y-107703399D01*
X160030600Y-107703399D02*
X156423800Y-107703399D01*
X160335400Y-104518999D02*
X160030600Y-104518999D01*
X160335400Y-104518999D02*
X160335400Y-107280999D01*
X160335400Y-107280999D02*
X160030600Y-107280999D01*
D10*
%TO.C,R66*%
X136028189Y-66646301D02*
X138988189Y-66646301D01*
X136028189Y-68106301D02*
X136028189Y-66646301D01*
X138988189Y-66646301D02*
X138988189Y-68106301D01*
X138988189Y-68106301D02*
X136028189Y-68106301D01*
%TO.C,J3*%
X175560000Y-106280000D02*
X175560000Y-98000000D01*
X175560000Y-106280000D02*
X183840000Y-106280000D01*
X183840000Y-98000000D02*
X175560000Y-98000000D01*
X183840000Y-98000000D02*
X183840000Y-106280000D01*
%TO.C,C41*%
X158818699Y-65495000D02*
X160278699Y-65495000D01*
X158818699Y-68455000D02*
X158818699Y-65495000D01*
X160278699Y-65495000D02*
X160278699Y-68455000D01*
X160278699Y-68455000D02*
X158818699Y-68455000D01*
D11*
%TO.C,IC5*%
X138938300Y-61775000D02*
X139192300Y-61775000D01*
X138938300Y-64175000D02*
X138938300Y-61775000D01*
X139192300Y-61197000D02*
X139475000Y-61197000D01*
X139192300Y-61775000D02*
X139192300Y-61197000D01*
X139192300Y-64175000D02*
X138938300Y-64175000D01*
X139192300Y-64753000D02*
X139192300Y-64175000D01*
X139475000Y-60943000D02*
X141475000Y-60943000D01*
X139475000Y-61197000D02*
X139475000Y-60943000D01*
X139475000Y-64753000D02*
X139192300Y-64753000D01*
X139475000Y-65007000D02*
X139475000Y-64753000D01*
X141475000Y-60943000D02*
X141475000Y-61197000D01*
X141475000Y-61197000D02*
X141757700Y-61197000D01*
X141475000Y-64753000D02*
X141475000Y-65007000D01*
X141475000Y-65007000D02*
X139475000Y-65007000D01*
X141757700Y-61197000D02*
X141757700Y-61775000D01*
X141757700Y-61775000D02*
X142011700Y-61775000D01*
X141757700Y-64175000D02*
X141757700Y-64753000D01*
X141757700Y-64753000D02*
X141475000Y-64753000D01*
X142011700Y-61775000D02*
X142011700Y-64175000D01*
X142011700Y-64175000D02*
X141757700Y-64175000D01*
D10*
%TO.C,R27*%
X153995001Y-71120001D02*
X156955001Y-71120001D01*
X153995001Y-72580001D02*
X153995001Y-71120001D01*
X156955001Y-71120001D02*
X156955001Y-72580001D01*
X156955001Y-72580001D02*
X153995001Y-72580001D01*
%TO.C,PICO*%
X152075000Y-55600000D02*
X152075000Y-57600000D01*
X152075000Y-55600000D02*
X154075000Y-55600000D01*
X154075000Y-57600000D02*
X152075000Y-57600000D01*
X154075000Y-57600000D02*
X154075000Y-55600000D01*
%TO.C,C24*%
X172120000Y-111245000D02*
X175080000Y-111245000D01*
X172120000Y-112705000D02*
X172120000Y-111245000D01*
X175080000Y-111245000D02*
X175080000Y-112705000D01*
X175080000Y-112705000D02*
X172120000Y-112705000D01*
%TO.C,R21*%
X160993699Y-61270000D02*
X163953699Y-61270000D01*
X160993699Y-62730000D02*
X160993699Y-61270000D01*
X163953699Y-61270000D02*
X163953699Y-62730000D01*
X163953699Y-62730000D02*
X160993699Y-62730000D01*
%TO.C,R75*%
X152795000Y-101145000D02*
X155755000Y-101145000D01*
X152795000Y-102605000D02*
X152795000Y-101145000D01*
X155755000Y-101145000D02*
X155755000Y-102605000D01*
X155755000Y-102605000D02*
X152795000Y-102605000D01*
%TO.C,C87*%
X130039300Y-84750000D02*
X132999300Y-84750000D01*
X130039300Y-86210000D02*
X130039300Y-84750000D01*
X132999300Y-84750000D02*
X132999300Y-86210000D01*
X132999300Y-86210000D02*
X130039300Y-86210000D01*
%TD*%
M02*
